<svg width="50" height="60" viewBox="0 0 50 60" fill="none" xmlns="http://www.w3.org/2000/svg">
<path d="M3.18521 11.0013C3.36871 10.9347 3.61695 10.971 3.80691 11.0327C3.86644 11.0518 3.84561 11.1598 3.88705 11.1777C3.96787 11.2127 4.03627 11.1551 4.11918 11.1978C4.14649 11.2124 4.12744 11.3824 4.15577 11.394C4.3109 11.4561 4.44801 11.4023 4.60054 11.4259C5.34933 11.5427 6.07775 11.5467 6.83382 11.5601C7.08115 11.5646 7.3904 11.6913 7.64161 11.6029C7.67067 11.5925 7.64035 11.4471 7.64497 11.4345C7.7177 11.2416 7.71367 11.5406 7.77488 11.5751C8.01871 11.7108 8.2694 11.7026 8.4881 11.6262C8.48941 11.6258 8.49068 11.6252 8.4919 11.6247C8.57694 11.5854 8.4616 11.3123 8.56938 11.4654C8.57695 11.4759 8.56679 11.6339 8.59411 11.6483C8.65606 11.6805 8.76454 11.6428 8.81085 11.6511C8.9002 11.668 8.91446 11.6651 8.99686 11.6595C9.10972 11.6532 9.24939 11.7188 9.36686 11.6725C9.39214 11.6622 9.34323 11.5055 9.3822 11.4745C9.42124 11.4436 9.53196 11.4472 9.57223 11.4815C9.61255 11.5158 9.60835 11.6428 9.61751 11.671C9.69354 11.9091 9.78889 11.5609 9.80425 11.5511C10.0871 11.382 10.3545 11.5503 10.6347 11.523C10.8457 11.5021 11.0641 11.4171 11.2638 11.4063C11.5041 11.3938 11.7157 11.4601 11.9453 11.4219C11.9695 11.4181 11.922 11.2333 11.9515 11.2282C12.2631 11.1746 12.584 11.1621 12.9113 11.2555C12.9442 11.2651 12.921 11.4341 12.9549 11.4535C13.1614 11.5686 13.5053 11.8604 13.5419 11.1308C13.6761 11.1445 13.838 11.1559 13.9711 11.2873C14.0445 11.3597 14.0162 11.5074 14.0592 11.4941C14.0664 11.4919 14.0757 11.4851 14.0878 11.4725C14.1068 11.4531 14.0621 11.2991 14.0919 11.2819C14.2172 11.2097 14.3682 11.2443 14.4896 11.1482C14.5142 11.1282 14.4909 10.9884 14.4955 10.9622C14.5351 10.7498 14.6794 11.0768 14.7053 11.0988C14.9015 11.2622 15.0203 11.175 15.1839 11.1601C15.2219 11.1568 15.1548 10.9732 15.1905 10.9632C15.3759 10.9137 15.5729 10.9064 15.7676 10.9676C15.8109 10.9817 15.7929 11.1471 15.8146 11.1621C15.9104 11.226 15.8921 10.9199 15.9831 10.9753C16.0022 10.9866 16.0094 11.1254 16.0145 11.1402C16.0938 11.3713 16.0956 11.0296 16.1074 11.0206C16.2571 10.8989 16.4051 11.2368 16.556 11.1671C16.574 11.1584 16.5095 10.9897 16.5614 10.976C16.9069 10.8831 17.2835 10.8823 17.6504 10.9745C17.7074 10.9886 17.6864 11.1244 17.692 11.1401C17.7816 11.3842 17.772 11.0422 17.7878 11.0271C17.9149 10.9168 18.0831 11.1817 18.1222 10.7672C18.6102 10.8136 19.0619 10.6234 19.5502 10.6865C19.6706 10.702 19.7938 10.7328 19.919 10.7865C19.927 10.7895 19.9388 10.9572 19.9547 10.9625C20.1467 11.0287 20.0736 10.7763 20.1431 10.4435C20.1605 10.3599 20.309 10.7262 20.3214 10.7528C20.3663 10.851 20.374 11.1021 20.3868 11.1204C20.4919 11.2641 20.353 10.4513 20.4617 10.4342C20.4654 10.435 20.4743 10.5872 20.4858 10.6007C20.5215 10.6431 20.5404 10.5791 20.5763 10.6264C20.6584 10.7359 20.7437 11.1281 20.8045 10.8826C20.812 10.8507 20.7208 10.3917 20.8207 10.3983C20.8606 10.4014 21.0299 10.3664 21.0827 10.3887C21.1353 10.4109 21.1262 10.565 21.1306 10.5709C21.2913 10.747 21.2554 10.8364 21.3671 11.1172C21.4789 11.397 21.3494 10.7077 21.3634 10.6262C21.3774 10.545 21.4986 10.6919 21.5313 10.7445C21.5638 10.7971 21.55 10.8964 21.576 10.925C21.7481 11.1112 21.5806 10.5717 21.6082 10.4545C21.6727 10.177 21.8383 10.6766 21.9443 10.7107C21.9728 10.72 21.932 10.6067 21.9537 10.5919C22.0395 10.5348 22.1221 10.6855 22.2035 10.5211C22.2169 10.4943 22.2507 10.1717 22.3442 10.3886C22.3576 10.4199 22.3567 10.5514 22.4013 10.5733C22.468 10.6062 22.5801 10.616 22.637 10.5624C22.6789 10.5227 22.589 10.3215 22.6594 10.3768C22.6905 10.4015 22.6631 10.5329 22.7197 10.569C22.7761 10.6053 22.9003 10.5784 22.9472 10.5659C22.9941 10.5534 22.9405 10.3983 22.9425 10.3869C22.9551 10.3213 23.033 10.2286 23.0411 10.2274C23.4463 10.137 23.8689 10.3391 24.2495 10.1782C24.2795 10.1658 24.2282 10.0016 24.2325 9.99796C24.3264 9.90815 24.3235 10.3702 24.4255 10.506C24.3526 10.1671 24.4079 10.2208 24.4766 10.1696C24.5097 10.1446 24.4657 10.0163 24.4665 10.0022C24.4837 9.79183 24.5688 10.0438 24.5883 10.095C24.6603 10.2832 24.656 10.046 24.704 10.1717C24.7518 10.2965 24.7319 10.4983 24.803 10.4827C24.8005 10.357 24.6886 10.048 24.7333 9.98634C24.8025 9.89037 24.9158 9.86419 25.0376 9.86604C25.2116 9.86873 25.4032 9.92866 25.5044 9.92527C25.6771 9.91931 25.7234 9.88709 25.828 9.91269C26.0162 9.95906 25.9074 9.73506 25.994 9.60625C26.0809 9.47731 26.141 10.0684 26.1808 10.1903C26.2202 10.3121 26.2121 10.1804 26.2444 10.2453C26.2767 10.3102 26.2521 10.4031 26.3018 10.4202C26.3515 10.4373 26.4309 10.1913 26.4212 10.0577C26.4008 9.77456 26.2889 9.4951 26.4273 9.5739C26.4353 9.57862 26.443 9.73565 26.4722 9.74596C26.706 9.8222 26.9155 9.78829 27.143 9.85089C27.1741 9.85976 27.1828 10.0346 27.2013 10.0416C27.3949 10.1158 27.2762 9.8419 27.3065 9.50512C27.3704 9.93237 27.4745 10.1807 27.6064 10.1567C27.6858 10.1424 27.6348 9.9604 27.6595 9.81988C27.6669 9.77753 27.7486 9.89297 27.7412 9.80405C27.7164 9.51345 27.6009 9.20603 27.7594 9.30552C27.7665 9.31035 27.7796 9.46951 27.8017 9.47482C27.9444 9.50983 27.8993 9.20978 28.033 9.14485C28.1377 9.09395 28.3729 9.23402 28.5066 9.23687C28.6027 9.71239 28.7009 9.57846 28.6815 9.24081C28.768 9.23673 28.8524 9.19972 28.9402 9.22849C28.9705 9.23822 28.9817 9.3794 28.9882 9.39353C29.0897 9.61546 29.0581 9.28955 29.0731 9.27336C29.2383 9.11175 29.4463 9.31971 29.5804 9.04459C29.5851 9.0347 29.5252 8.70293 29.626 8.93297C29.6328 8.94886 29.6038 9.11185 29.6932 9.10483C29.782 9.09797 29.9869 9.23868 30.0704 9.06088C30.0912 9.01794 30.1058 8.73489 30.2095 8.93109C30.2235 8.95776 30.2354 9.05406 30.2581 9.10417C30.3308 9.26373 30.2784 8.9266 30.3827 9.20003C30.4662 9.41899 30.5698 9.5859 30.6482 9.5299C30.6677 9.51597 30.6857 9.48826 30.7013 9.44413C30.704 9.43762 30.675 9.16763 30.714 9.16345C30.7764 9.15699 30.8752 9.19288 30.9388 9.17709C30.9692 9.16943 30.9136 9.01004 30.9182 9.00587C31.1073 8.86804 31.277 8.98353 31.5098 8.99813C31.5524 9.00119 31.6171 8.75254 31.7341 8.91153C31.8626 9.08547 31.9546 9.90825 32.1087 9.67271C32.1713 9.57827 32.0422 8.53717 32.3049 9.03235C32.5477 8.84002 32.8608 9.05262 33.0951 8.8025C33.1056 8.79138 33.0797 8.49835 33.1099 8.49549C33.1548 8.49179 33.2092 8.61901 33.2424 8.62059C33.3811 8.63074 33.4782 8.48871 33.6029 8.47843C33.6511 8.47401 33.6665 8.61498 33.7242 8.60969C33.7818 8.60426 33.777 8.415 33.8732 8.48456C33.946 8.5377 34.0895 8.89343 34.1762 8.91856C34.0942 8.55381 34.1484 8.54906 34.2196 8.43104C34.2332 8.40819 34.1843 8.28601 34.1892 8.26866C34.2086 8.19525 34.2653 8.29272 34.2816 8.21391C34.2856 8.19496 34.2569 8.07057 34.2585 8.04806C34.2713 7.85195 34.429 8.10989 34.4564 8.15482C34.5606 8.32539 34.5511 8.15704 34.615 8.21882C34.6788 8.28059 34.6304 8.38804 34.6954 8.41934C34.8308 8.48384 34.965 8.43093 35.0796 8.40979C35.1248 8.40066 35.0549 8.24209 35.0604 8.23694C35.1432 8.17289 35.2794 8.32685 35.2525 7.98428C35.5206 8.82275 35.289 7.8881 35.4635 8.02711C35.4774 8.03842 35.5872 8.43895 35.5608 8.5079C35.5343 8.5768 35.4428 8.46523 35.4088 8.57097C35.4007 8.59582 35.4147 8.9923 35.4098 9.01769C35.3711 9.21614 35.2164 8.61533 35.2043 8.5832C35.0709 8.23699 35.0754 8.66656 35.0578 8.70048C34.9765 8.85605 34.8655 8.79263 34.7901 8.90772C34.7419 8.98195 34.8289 9.37887 34.7772 9.37826C34.6056 9.37639 34.4201 8.83769 34.3806 9.35168C34.372 9.46132 34.5052 9.88625 34.3096 9.57336C34.2972 9.55364 34.1386 9.26262 34.1348 9.47096C34.1344 9.49722 34.1639 9.62322 34.1582 9.63573C34.119 9.71705 34.0589 9.62516 34.0103 9.68715C33.9616 9.74914 33.9064 9.83751 33.8286 9.81048C33.7826 9.79417 33.6729 9.57205 33.6398 9.51909C33.5447 9.36652 33.5466 9.65224 33.4652 9.45965C33.3834 9.2661 33.3819 8.94391 33.2594 8.83488C33.3313 9.16335 33.4009 9.5015 33.4711 9.83232C33.2652 9.86755 33.0424 9.80699 32.8447 9.86721C32.8203 9.875 32.8859 10.0455 32.8607 10.0584C32.7538 10.1121 32.6292 10.0083 32.5216 10.0852C32.438 10.1455 32.379 10.355 32.2934 10.4237C32.1503 10.0615 32.0369 10.2208 31.9264 10.2094C31.8878 10.2056 31.8678 10.1048 31.8349 10.0778C31.7116 9.97824 31.8307 10.3 31.816 10.3582C31.7523 10.6063 31.5755 9.85721 31.4471 9.90516C31.4403 9.90744 31.4432 10.327 31.4368 10.3545C31.3974 10.5338 31.3939 10.2178 31.3394 10.1988C31.2394 10.1641 31.1574 10.0819 31.0805 10.2218C31.0582 10.2631 31.0411 10.5287 30.9409 10.3482C30.9277 10.3245 30.9029 10.1911 30.8951 10.1847C30.8327 10.1377 30.816 10.1954 30.8136 10.2874C30.8107 10.4006 30.8294 10.5659 30.8114 10.6513C30.7788 10.8061 30.6188 10.5399 30.5811 10.4613C30.4828 10.2582 30.6008 10.3611 30.5991 10.3395C30.5777 10.0821 30.5161 10.1406 30.4575 10.1311C30.3611 9.72458 30.2911 9.7654 30.3971 10.123C30.4088 10.162 30.4426 10.1148 30.4575 10.1311C30.4969 10.542 30.4246 10.6114 30.2525 10.2567C30.1714 10.0905 30.1698 9.87676 30.0531 9.9802C30.0001 10.0269 30.0838 10.3032 30.047 10.3913C29.9629 10.5923 29.7496 10.3635 29.6344 10.4312C29.5926 10.4558 29.6692 10.6005 29.6417 10.6226C29.5688 10.6818 29.4725 10.5814 29.4034 10.6578C29.3972 10.665 29.4493 10.8224 29.4243 10.8298C29.2368 10.889 29.046 10.8211 28.8409 10.8608C28.7422 10.88 28.5853 11.0053 28.4806 11.0082C28.2979 11.0144 28.0395 10.8226 27.8979 10.9107C27.8065 10.9673 27.8609 11.1244 27.8408 11.2431C27.8021 11.4731 27.5811 11.1197 27.55 11.0643C27.549 11.0625 27.6259 11.0074 27.5641 10.9335C27.5032 10.7659 27.5509 11.0634 27.55 11.0643C27.5296 11.0287 27.3539 11.0257 27.3269 11.0632C27.3121 11.0837 27.3528 11.2349 27.3445 11.2426C27.1481 11.4243 26.93 11.5078 26.6846 11.4814C26.68 11.479 26.6526 11.3064 26.6421 11.3031C26.4942 11.2528 26.4503 11.479 26.3651 11.6247C26.2799 11.7704 26.1854 11.7452 26.0648 11.463C25.9909 11.5156 25.8464 11.4081 25.7627 11.3421C25.6792 11.2761 25.733 11.612 25.7282 11.6198C25.6195 11.8009 25.5127 11.7573 25.385 11.7237C25.3386 11.7115 25.2893 11.7005 25.2362 11.7022C25.1409 11.7047 24.9697 11.7865 24.8747 11.8418C24.8003 11.8859 24.738 11.8163 24.6739 11.8798C24.6652 11.8883 24.7024 12.0354 24.7004 12.0417C24.651 12.2348 24.6241 11.8635 24.5954 11.8015C24.4912 11.576 24.4309 11.4569 24.347 11.587C24.3276 11.6168 24.3522 12.154 24.3138 12.1925C24.2639 12.2417 24.2516 12.0498 24.2003 12.106C24.1959 12.1106 24.2177 12.2264 24.18 12.2279C24.0073 12.2358 23.8053 12.2019 23.6292 12.2447C23.605 12.2501 23.6685 12.4288 23.6341 12.4397C23.4723 12.4905 23.2903 12.5149 23.1155 12.4561C23.0724 12.441 23.075 12.3078 23.0599 12.2709C22.9681 12.048 22.9508 12.3976 22.9392 12.4062C22.6699 12.6185 22.3931 12.3513 22.1181 12.5458C22.1034 12.557 22.037 12.939 21.9294 12.6383C21.9221 12.6183 21.8147 12.3101 21.8006 12.535C21.7997 12.5491 21.861 12.7068 21.7975 12.7C21.7342 12.6932 21.654 12.8181 21.542 12.6519C21.5065 12.5996 21.3938 12.2929 21.3557 12.5578C21.3535 12.5762 21.3227 13.1662 21.2173 12.7792C21.2 12.7154 21.1416 12.2975 21.082 12.5259C21.0707 12.5701 21.1177 12.658 21.0798 12.7235C21.0217 12.8243 20.9076 12.7277 20.8473 12.9273C20.8368 12.9626 20.8142 13.2559 20.7279 13.0492C20.7144 13.0169 20.7087 12.8752 20.6783 12.864C20.5335 12.8097 20.4084 12.9241 20.259 12.8481C20.2062 12.8215 20.1966 12.5926 20.1379 12.5398C20.0793 12.4869 19.9703 12.4439 19.9333 12.5546C19.8963 12.6654 20.007 13.0159 19.9327 13.0563C19.9231 13.0614 19.9136 13.0663 19.904 13.0709C19.5872 13.2225 19.2327 13.0703 18.8971 13.0872C18.846 13.0898 18.906 13.2124 18.8319 13.2254C18.5587 13.2738 18.1015 13.4594 17.826 13.2177C17.6061 13.024 17.8236 12.8252 17.6662 12.7555C17.5905 12.7223 17.57 13.1507 17.5548 13.1661C17.4065 13.3218 17.2672 13.1514 17.1253 13.2276C17.096 13.2434 17.1482 13.4091 17.123 13.4207C17.037 13.4617 16.933 13.3981 16.849 13.4228C16.8114 13.4343 16.835 13.563 16.7983 13.5575C16.7107 13.5458 16.6289 13.5008 16.5311 13.3897C16.5222 13.3795 16.5527 13.212 16.4894 13.2138C16.3869 13.2172 16.2464 13.113 16.1454 13.2511C16.1154 13.2926 16.1504 13.5891 16.051 13.3935C16.0302 13.3527 16.0066 12.9944 15.9576 13.3124C15.9494 13.3653 15.854 13.7977 15.7502 13.539C15.7228 13.4709 15.6398 13.1854 15.6037 13.2361C15.599 13.2441 15.6406 13.4006 15.608 13.4203C15.4927 13.4868 15.3628 13.4849 15.2443 13.5494C15.2126 13.5669 15.2816 13.7259 15.2337 13.7468C15.1019 13.8045 14.9262 13.7823 14.7865 13.746C14.7349 13.7323 14.7534 13.5918 14.7481 13.5774C14.6629 13.3422 14.666 13.6724 14.6489 13.6936C14.5427 13.8211 14.434 13.6781 14.3295 13.7309C14.3005 13.7451 14.3393 13.8983 14.3349 13.9128C14.3335 13.917 14.3322 13.9208 14.3309 13.9243C14.2884 14.0389 14.3016 13.7699 14.2599 13.7443C14.1396 13.6694 14.0177 13.6956 13.9077 13.7278C13.8673 13.7398 13.9334 13.9152 13.8969 13.9239C13.6814 13.979 13.4505 13.9864 13.2278 13.9093C13.1857 13.8945 13.1962 13.7528 13.1845 13.7219C13.1035 13.5059 13.051 13.8178 13.0345 13.8487C12.9599 13.9898 12.9125 13.8704 12.8367 13.9015C12.4638 14.0559 11.9891 14.0215 11.6208 14.0069C11.1477 13.988 10.7677 13.8907 10.3255 13.9667C10.2974 13.9713 10.3432 14.1538 10.3192 14.1602C10.0092 14.2341 9.68578 14.1908 9.37647 14.2725C9.35096 14.2789 9.40407 14.4512 9.36363 14.4673C9.28078 14.5017 9.17163 14.5018 9.08002 14.4535C9.03537 14.4302 9.07862 14.2745 9.03396 14.2541C8.92995 14.2064 8.82249 14.2033 8.72274 14.2405C8.72252 14.2406 8.72229 14.2407 8.72207 14.2407C8.68118 14.2585 8.76148 14.4306 8.70538 14.4376C8.32363 14.4891 7.95396 14.5521 7.54294 14.3527C7.51441 14.339 7.46108 13.9757 7.41106 14.0505C7.41543 14.1522 7.42575 14.2714 7.43308 14.3799C6.88583 14.4849 6.31794 14.4044 5.7618 14.4299C5.73812 14.4311 5.79467 14.6213 5.7489 14.6245C5.4817 14.6433 5.23255 14.7174 4.94873 14.5465C4.92053 14.5298 4.907 14.1882 4.83241 14.246C4.81932 14.2565 4.70418 14.3114 4.67924 14.3877C4.67595 14.3992 4.71035 14.5564 4.67234 14.5641C4.45102 14.6061 4.21217 14.5885 3.98642 14.5086C3.94959 14.4954 3.97411 14.3231 3.94776 14.3123C3.76097 14.2366 3.5743 14.3808 3.38829 14.2407C3.26369 14.1463 3.28388 13.8503 3.19936 13.5671C3.18742 13.5272 3.11457 13.5264 3.09771 13.3591C3.05514 12.9384 3.05409 12.4742 3.00457 12.0261C2.99399 11.9296 2.9052 12.0414 2.94431 11.8031C2.94712 11.7871 3.01125 11.704 3.02228 11.6234C3.03001 11.5676 2.99502 11.3988 3.01404 11.3267C3.03305 11.2547 3.07116 11.3954 3.10525 11.3098C3.13921 11.2231 3.10625 11.0306 3.18521 11.0013ZM25.3884 11.0468C25.2953 10.8981 25.3962 11.4878 25.4381 11.3344C25.44 11.3262 25.3931 11.0541 25.3884 11.0468ZM32.9436 9.36666C32.8036 9.12798 32.8345 9.51884 32.937 9.70447C33.0396 9.88984 32.9862 9.43896 32.9436 9.36666ZM33.7469 8.98411C33.6061 8.8032 33.7826 9.63303 33.8446 9.44263C33.8483 9.43184 33.7551 8.99461 33.7469 8.98411ZM3.47956 13.4626C3.47806 13.4548 3.42582 13.4511 3.4252 13.4591C3.41256 13.6506 3.51704 13.6578 3.47956 13.4626ZM34.5344 8.58491C34.4782 8.48025 34.4226 8.62936 34.4923 8.75957C34.5483 8.86431 34.6043 8.7151 34.5344 8.58491ZM21.9945 10.9984C21.9921 10.9898 21.9544 10.9878 21.9633 11.0374C21.9922 11.1972 22.0354 11.1436 21.9945 10.9984ZM35.9531 8.23778C35.7333 8.25768 35.443 7.60662 35.691 7.62853C35.736 7.63246 35.6533 7.86735 35.7211 7.91608C35.845 8.00472 35.8069 7.56141 35.9616 7.7667C35.9897 7.80432 35.966 8.23816 35.9529 8.23882C35.953 8.23847 35.953 8.23812 35.9531 8.23778ZM25.2196 10.3475C25.2169 10.3399 25.1652 10.342 25.1655 10.3499C25.1732 10.5417 25.2774 10.5376 25.2196 10.3475ZM19.8088 10.9684C19.8035 10.9522 19.6836 10.9542 19.682 10.9701C19.6663 11.2865 19.9094 11.2833 19.8088 10.9684ZM28.5113 9.24912C28.5272 9.05066 28.5882 9.01496 28.6812 9.24062C28.6239 9.23959 28.5685 9.24922 28.5113 9.24912ZM21.3796 0.875656C21.3773 1.20385 21.2534 1.61021 21.1265 1.91141C21.0869 2.00586 20.9905 1.93893 20.9585 2.00333C20.8961 2.1293 20.9273 2.2609 20.8576 2.38339C20.8339 2.42445 20.6771 2.34262 20.656 2.38693C20.5412 2.6306 20.5446 2.87804 20.4684 3.12873C20.0954 4.3464 19.8404 5.59387 19.5802 6.85245C19.4938 7.27265 19.2701 7.7622 19.2761 8.20164C19.277 8.25296 19.4272 8.24336 19.4379 8.25459C19.6012 8.43049 19.3132 8.34055 19.2603 8.43472C19.0506 8.81062 18.9776 9.24763 18.984 9.63167C18.9841 9.63399 18.9842 9.63625 18.9843 9.63846C18.9959 9.79164 19.2961 9.67504 19.1144 9.8125C19.102 9.82223 18.9521 9.76114 18.9298 9.80281C18.8794 9.89743 18.8824 10.0893 18.8602 10.1644C18.8161 10.3118 18.8143 10.3376 18.7941 10.48C18.7652 10.6747 18.6585 10.8962 18.6676 11.1084C18.67 11.1538 18.8366 11.1151 18.8548 11.1892C18.8729 11.2633 18.8361 11.4482 18.7909 11.5063C18.7455 11.5645 18.6237 11.5223 18.5936 11.5298C18.3401 11.5916 18.6491 11.848 18.6541 11.8764C18.7336 12.4009 18.4901 12.8203 18.4362 13.2951C18.3957 13.655 18.4156 14.0487 18.3691 14.3961C18.3133 14.8075 18.1901 15.1461 18.1644 15.5441C18.1615 15.586 18.3542 15.5562 18.351 15.6075C18.3167 16.1598 18.2431 16.7024 18.0661 17.2316C18.0482 17.2847 17.8898 17.1995 17.862 17.2517C17.6954 17.5725 17.3222 18.0805 18.0239 18.34C17.9763 18.5641 17.9244 18.8356 17.763 19.0253C17.6741 19.13 17.5372 19.0418 17.5394 19.1185C17.5398 19.1316 17.5441 19.1494 17.5533 19.1737C17.5674 19.2116 17.7288 19.1768 17.7381 19.2327C17.7772 19.4677 17.7063 19.7147 17.7705 19.9475C17.7839 19.9949 17.9261 19.993 17.9505 20.008C18.1481 20.1331 17.7942 20.2895 17.7665 20.3275C17.5598 20.6167 17.6168 20.8405 17.5927 21.1257C17.587 21.1914 17.7821 21.1266 17.7835 21.1903C17.7883 21.5204 17.7499 21.8577 17.6459 22.1718C17.6223 22.2417 17.4647 22.1663 17.4451 22.1992C17.3609 22.3446 17.6644 22.3959 17.5898 22.5357C17.5745 22.5654 17.437 22.5399 17.4215 22.5446C17.1776 22.6178 17.5114 22.7135 17.5176 22.7362C17.6032 23.0252 17.2399 23.1861 17.2753 23.462C17.2799 23.495 17.459 23.4308 17.4613 23.5228C17.4773 24.1326 17.3985 24.7814 17.2336 25.3795C17.2082 25.4726 17.0792 25.4001 17.0627 25.4054C16.8051 25.4917 17.1426 25.5678 17.1542 25.5989C17.2368 25.8429 16.9433 26.0614 17.3425 26.2402C17.2007 27.0599 17.3026 27.8828 17.1529 28.698C17.1161 28.8988 17.0639 29.0989 16.9891 29.2995C16.9847 29.3124 16.8175 29.2866 16.8095 29.3124C16.7108 29.6228 16.9722 29.5668 17.2881 29.7765C17.3674 29.8291 16.9811 29.9824 16.9527 29.9962C16.8483 30.046 16.5996 29.9905 16.5793 30.0074C16.4199 30.1472 17.2445 30.1325 17.243 30.3222C17.2416 30.3282 17.0901 30.3019 17.0749 30.3177C17.0271 30.3669 17.087 30.4165 17.0344 30.4646C16.9126 30.5746 16.5117 30.6118 16.7439 30.7832C16.774 30.8048 17.2418 30.7748 17.2189 30.9441C17.2092 31.0117 17.2162 31.3109 17.1859 31.3947C17.1554 31.4785 17.0048 31.4207 16.9983 31.4266C16.7987 31.6525 16.7163 31.5667 16.4212 31.6802C16.1273 31.7939 16.8283 31.7622 16.9066 31.8083C16.9846 31.8545 16.8204 32.0206 16.7634 32.0616C16.7063 32.1026 16.6104 32.0519 16.5781 32.0883C16.3674 32.3298 16.9264 32.1929 17.0379 32.2717C17.302 32.4571 16.7829 32.6041 16.7331 32.7756C16.7196 32.8219 16.8378 32.7834 16.8491 32.8244C16.8926 32.987 16.7311 33.0864 16.8816 33.2706C16.9061 33.3008 17.2202 33.4473 16.9919 33.5469C16.959 33.561 16.829 33.5234 16.8008 33.5933C16.7584 33.6977 16.7324 33.8856 16.7773 33.9969C16.8105 34.0787 17.0226 33.9815 16.9578 34.0858C16.9288 34.1322 16.8027 34.0488 16.7588 34.1359C16.7148 34.2224 16.7238 34.4424 16.7295 34.5261C16.7354 34.6096 16.8965 34.5611 16.9075 34.5676C16.9707 34.6074 17.0516 34.7663 17.0517 34.7805C17.0847 35.4964 16.828 36.1595 16.939 36.855C16.9475 36.9096 17.1171 36.868 17.1202 36.8763C17.1973 37.0615 16.7391 36.9274 16.5912 37.0633C16.937 37.0337 16.8766 37.113 16.9188 37.2442C16.9394 37.3073 17.0724 37.2683 17.0863 37.2737C17.293 37.3615 17.0321 37.4347 16.9788 37.4535C16.7829 37.5222 17.0191 37.582 16.8882 37.6288C16.7583 37.6756 16.5603 37.5847 16.5671 37.7109C16.6923 37.742 17.013 37.6373 17.0688 37.7312C17.1557 37.8769 17.1679 38.0782 17.1514 38.2857C17.1277 38.5821 17.0456 38.8926 17.0371 39.0641C17.0227 39.3542 17.0496 39.4469 17.0122 39.6177C16.9447 39.9267 17.18 39.8042 17.2985 39.9889C17.4172 40.1743 16.8219 40.109 16.696 40.1422C16.5703 40.175 16.7024 40.1985 16.6341 40.2353C16.5659 40.272 16.4761 40.2035 16.4535 40.2835C16.431 40.3636 16.6672 40.5687 16.8015 40.5903C17.0858 40.6356 17.3765 40.525 17.2828 40.7373C17.2772 40.7495 17.1199 40.7186 17.1064 40.7647C17.0044 41.131 17.0163 41.5076 16.9301 41.8767C16.918 41.9275 16.7427 41.8921 16.7337 41.9218C16.6396 42.2314 16.9252 42.1071 17.2581 42.2556C16.8252 42.2414 16.5667 42.3504 16.577 42.5785C16.5831 42.7158 16.7699 42.6815 16.9076 42.7626C16.9491 42.7869 16.8255 42.8915 16.915 42.904C17.2076 42.9453 17.526 42.835 17.4108 43.0779C17.4053 43.0886 17.2451 43.065 17.2376 43.1013C17.1885 43.3362 17.4926 43.3459 17.5443 43.5942C17.5849 43.7874 17.4225 44.1543 17.4064 44.3747C16.922 44.4007 17.0462 44.6036 17.3855 44.6673C17.3811 44.8125 17.4102 44.9675 17.3733 45.1106C17.3608 45.1599 17.2186 45.1374 17.2038 45.1445C16.9725 45.2536 17.3014 45.2953 17.3162 45.3257C17.4625 45.6561 17.2359 45.9563 17.4985 46.2573C17.508 46.2681 17.8454 46.263 17.606 46.3661C17.5894 46.3729 17.429 46.2774 17.4278 46.4295C17.4266 46.5816 17.2668 46.881 17.4379 47.0817C17.4791 47.1303 17.7613 47.24 17.5558 47.36C17.5279 47.376 17.4304 47.3678 17.3782 47.3918C17.2121 47.4693 17.5544 47.4798 17.2714 47.5775C17.0448 47.6549 16.8689 47.7862 16.9179 47.9325C16.9301 47.9693 16.9563 48.0076 16.9991 48.0467C17.0054 48.0531 17.2783 48.0829 17.2791 48.1498C17.2801 48.2566 17.2355 48.4121 17.2457 48.5235C17.2508 48.5768 17.4153 48.5299 17.419 48.5389C17.5402 48.8908 17.4111 49.159 17.3771 49.5531C17.3707 49.6272 17.6143 49.8075 17.4451 49.9582C17.2599 50.1232 16.4272 50.0352 16.6503 50.3636C16.7397 50.4965 17.7946 50.5875 17.2761 50.8825C17.4499 51.3617 17.2113 51.8303 17.4431 52.2979C17.4534 52.319 17.7496 52.3633 17.75 52.415C17.7501 52.4918 17.618 52.5453 17.6137 52.6006C17.5924 52.8327 17.7266 53.0328 17.7278 53.2566C17.7286 53.3416 17.5858 53.3242 17.5867 53.4257C17.5878 53.5272 17.7781 53.575 17.7006 53.7169C17.6414 53.8238 17.2727 53.9581 17.2406 54.0967C17.6135 54.069 17.6139 54.1621 17.7268 54.3182C17.7487 54.3482 17.8753 54.3028 17.8924 54.3163C17.9646 54.3714 17.8622 54.4375 17.94 54.4891C17.9588 54.5016 18.086 54.491 18.1085 54.5006C18.3045 54.5821 18.0329 54.7697 17.9856 54.8021C17.806 54.926 17.9759 54.9612 17.9088 55.0501C17.8417 55.139 17.7375 55.0245 17.701 55.1245C17.6254 55.3329 17.669 55.5857 17.681 55.7831C17.6866 55.8625 17.8514 55.793 17.8562 55.8041C17.9141 55.964 17.7487 56.1469 18.0952 56.2074C17.2315 56.4016 18.189 56.2988 18.0357 56.5512C18.0232 56.5711 17.6121 56.6328 17.5448 56.5668C17.4776 56.5008 17.5969 56.3806 17.4933 56.2903C17.4689 56.2689 17.0694 56.1702 17.0442 56.1541C16.8478 56.0276 17.4637 55.9514 17.497 55.9407C17.8553 55.8217 17.4233 55.6968 17.3905 55.6566C17.2409 55.4754 17.312 55.2921 17.2028 55.1349C17.1321 55.0311 16.7264 55.0567 16.7311 54.9699C16.7466 54.6816 17.3025 54.5327 16.7893 54.3098C16.6799 54.262 16.2425 54.3576 16.5724 54.1228C16.5931 54.108 16.8981 53.9287 16.6891 53.8593C16.6628 53.8505 16.5339 53.8622 16.5218 53.8487C16.4433 53.758 16.5403 53.6846 16.482 53.5838C16.4234 53.4808 16.3388 53.3575 16.372 53.2312C16.3917 53.1551 16.6238 53.0398 16.6796 52.9996C16.8404 52.8855 16.5535 52.8029 16.7534 52.7239C16.9543 52.6444 17.2779 52.7384 17.3972 52.5649C17.0617 52.5875 16.7166 52.6031 16.3789 52.6223C16.3603 52.2651 16.4394 51.9104 16.395 51.5564C16.3891 51.5119 16.2128 51.5726 16.2018 51.5253C16.1564 51.3254 16.2703 51.1388 16.202 50.9348C16.1485 50.7769 15.9434 50.6162 15.8818 50.4524C16.257 50.319 16.1069 50.0815 16.1277 49.8993C16.1348 49.8354 16.2375 49.8315 16.2674 49.7842C16.3776 49.6049 16.0449 49.7107 15.9879 49.6682C15.7442 49.4838 16.5101 49.4061 16.4726 49.1705C16.4709 49.158 16.05 49.0363 16.0229 49.0171C15.8464 48.8958 16.1635 48.9839 16.1873 48.8977C16.2307 48.7403 16.3203 48.6268 16.1869 48.4571C16.1474 48.4077 15.883 48.3019 16.0726 48.1861C16.0974 48.1709 16.2332 48.1681 16.2403 48.1568C16.293 48.0658 16.2366 48.021 16.1447 47.9902C16.0316 47.9523 15.8644 47.936 15.7805 47.8807C15.6282 47.7787 15.9088 47.5836 15.9907 47.5423C16.2027 47.4341 16.0894 47.606 16.1112 47.6095C16.371 47.6493 16.3177 47.5262 16.3322 47.4284C16.7478 47.3839 16.713 47.2514 16.3456 47.3271C16.3055 47.3355 16.3498 47.4076 16.3322 47.4284C15.9173 47.3737 15.8541 47.2292 16.2244 47.0388C16.398 46.9498 16.6119 47.0066 16.519 46.7812C16.4771 46.679 16.193 46.7398 16.1083 46.653C15.9148 46.4538 16.1636 46.1639 16.1064 45.9478C16.0856 45.8689 15.9338 45.9575 15.9142 45.904C15.8617 45.762 15.9709 45.6264 15.9008 45.4856C15.8943 45.4728 15.732 45.5159 15.7269 45.471C15.6849 45.1305 15.7709 44.8274 15.7514 44.4739C15.742 44.3058 15.6318 43.9989 15.6392 43.8196C15.6509 43.5074 15.8678 43.1139 15.7946 42.855C15.7476 42.686 15.5852 42.733 15.4689 42.666C15.2436 42.5388 15.6188 42.2605 15.6773 42.2241C15.6792 42.2229 15.7262 42.3697 15.8063 42.2856C15.9799 42.2297 15.6781 42.2257 15.6773 42.2241C15.715 42.1994 15.7362 41.9005 15.7017 41.8434C15.6828 41.8124 15.5278 41.8386 15.5209 41.8222C15.3602 41.4324 15.3006 41.041 15.3542 40.6349C15.357 40.6277 15.532 40.63 15.5365 40.613C15.6029 40.3756 15.3825 40.2364 15.247 40.0498C15.1115 39.8633 15.1473 39.709 15.4421 39.5828C15.3981 39.4399 15.5219 39.2274 15.5974 39.1054C15.6729 38.9831 15.3324 38.9794 15.3253 38.9693C15.1579 38.7337 15.214 38.5643 15.2628 38.3561C15.2806 38.2803 15.2974 38.1994 15.3022 38.1083C15.3113 37.9458 15.2509 37.627 15.2081 37.4536C15.1737 37.3166 15.2506 37.2293 15.1957 37.1029C15.1884 37.0857 15.0376 37.1079 15.0316 37.1028C14.8461 36.9651 15.2183 37.0227 15.2834 36.9912C15.5205 36.8769 15.6465 36.8073 15.5283 36.628C15.5012 36.5868 14.9649 36.4789 14.9317 36.4028C14.8895 36.3039 15.0814 36.3365 15.0324 36.2332C15.0284 36.2243 14.9106 36.2293 14.9141 36.1646C14.929 35.8649 14.9899 35.5362 14.9716 35.2237C14.9696 35.1811 14.7838 35.2397 14.7777 35.1781C14.7497 34.889 14.7509 34.5719 14.8341 34.2895C14.8552 34.2199 14.9867 34.2613 15.0254 34.2457C15.2591 34.1501 14.9156 34.0248 14.9088 34.0029C14.7377 33.488 15.0431 33.0903 14.8929 32.5667C14.8841 32.5383 14.5168 32.3196 14.8307 32.2198C14.8516 32.2129 15.1727 32.1149 14.9528 32.0294C14.939 32.0241 14.7736 32.0851 14.7903 31.9792C14.8069 31.8734 14.6963 31.7029 14.8783 31.5576C14.9356 31.5115 15.2563 31.4035 15.0011 31.2659C14.9832 31.2571 14.406 31.0428 14.8051 30.9687C14.8709 30.9567 15.2927 30.9716 15.0772 30.8069C15.0354 30.7754 14.941 30.8317 14.8827 30.7489C14.7929 30.622 14.9071 30.4554 14.7205 30.2983C14.6874 30.271 14.4021 30.1527 14.6204 30.0621C14.6546 30.0479 14.7952 30.0769 14.8114 30.0282C14.8895 29.7966 14.7983 29.552 14.8993 29.3173C14.9348 29.2343 15.1618 29.2804 15.2242 29.1944C15.2865 29.1082 15.3482 28.9345 15.2458 28.8418C15.1433 28.7489 14.7786 28.8418 14.7521 28.7047C14.7487 28.6871 14.7456 28.6695 14.7428 28.6519C14.6504 28.074 14.866 27.5041 14.9135 26.9319C14.9209 26.8441 14.7888 26.913 14.7903 26.7834C14.795 26.3058 14.7041 25.4723 14.9979 25.0712C15.2329 24.7491 15.3831 25.1734 15.4839 24.9242C15.532 24.8041 15.1165 24.653 15.1045 24.6227C14.9829 24.328 15.1793 24.1335 15.1349 23.873C15.1257 23.819 14.9523 23.8628 14.9463 23.8169C14.9246 23.6598 15.0093 23.5001 15.0033 23.3505C15.0003 23.2833 14.8692 23.2886 14.8826 23.2276C14.9131 23.0815 14.9752 22.954 15.1056 22.8172C15.1175 22.8048 15.2747 22.9023 15.2869 22.7936C15.3063 22.6183 15.4398 22.4039 15.3276 22.1965C15.2938 22.1344 14.9959 22.1137 15.2097 21.9977C15.2543 21.9733 15.6099 22.0302 15.3102 21.8609C15.2604 21.8327 14.8595 21.5532 15.1365 21.4463C15.2094 21.4181 15.5076 21.354 15.4664 21.2787C15.4597 21.2684 15.2971 21.297 15.2855 21.236C15.2474 21.0215 15.2799 20.7993 15.2452 20.5795C15.2356 20.521 15.0639 20.595 15.0549 20.5081C15.0299 20.269 15.0939 19.9763 15.1634 19.7481C15.1893 19.664 15.3219 19.7337 15.3373 19.7286C15.5875 19.6472 15.2646 19.5628 15.2481 19.528C15.1499 19.312 15.3162 19.1661 15.291 18.9713C15.2845 18.9176 15.1254 18.9424 15.1123 18.9308C15.1086 18.9273 15.1052 18.9239 15.1021 18.9208C15.001 18.8174 15.2599 18.9129 15.2953 18.8491C15.3984 18.6654 15.4036 18.4514 15.4002 18.2557C15.3987 18.1838 15.211 18.2485 15.2118 18.1841C15.2129 17.8033 15.2658 17.4061 15.3996 17.0459C15.425 16.9786 15.5602 17.0349 15.5934 17.0235C15.825 16.945 15.5352 16.7712 15.5095 16.7348C15.3919 16.5697 15.5207 16.522 15.5107 16.3847C15.4599 15.7093 15.6248 14.9045 15.7425 14.2874C15.8965 13.47 16.0981 12.8773 16.1568 12.0923C16.1607 12.0426 15.9701 12.0704 15.9711 12.0273C15.9926 11.4707 16.1299 10.9533 16.147 10.395C16.1487 10.3494 15.9655 10.3921 15.9624 10.3181C15.9548 10.166 15.9887 9.97835 16.0642 9.83448C16.1006 9.76526 16.2379 9.88183 16.2714 9.81241C16.3497 9.65114 16.386 9.47161 16.3811 9.29364C16.3811 9.29324 16.3811 9.29284 16.381 9.29245C16.3766 9.21876 16.1851 9.3055 16.1958 9.20925C16.2651 8.55303 16.3264 7.88065 16.6501 7.26104C16.6725 7.21781 17.041 7.22958 16.9852 7.123C16.8855 7.10135 16.767 7.08485 16.6599 7.06631C16.7404 6.08801 17.0042 5.17757 17.1731 4.21074C17.1801 4.17001 16.9773 4.21104 16.9901 4.132C17.0635 3.67493 17.0776 3.23771 17.3424 2.80245C17.3683 2.7594 17.7019 2.83683 17.6725 2.69311C17.667 2.66777 17.6548 2.45595 17.5902 2.39104C17.5803 2.38205 17.4168 2.3942 17.4229 2.3273C17.4616 1.93382 17.5614 1.54775 17.72 1.18481C17.7459 1.12632 17.9027 1.21901 17.9226 1.1776C18.0624 0.883841 17.9914 0.524818 18.1936 0.251801C18.3296 0.0691513 18.6066 0.191855 18.9094 0.133703C18.9521 0.125489 18.9794 0.00263623 19.1463 0.0242515C19.5658 0.0783605 20.0121 0.215464 20.4605 0.266025C20.5571 0.277069 20.4821 0.0941603 20.6967 0.231282C20.711 0.240775 20.7675 0.373541 20.841 0.416197C20.8918 0.445852 21.0666 0.437396 21.1289 0.490913C21.1913 0.544386 21.0422 0.566459 21.1121 0.649333C21.1831 0.732278 21.38 0.734256 21.3796 0.875656ZM15.9353 38.552C16.0943 38.4352 15.4959 38.4414 15.6435 38.5559C15.6514 38.5614 15.9276 38.558 15.9353 38.552ZM16.8893 51.8739C17.1402 51.7094 16.7455 51.6446 16.5508 51.7619C16.3564 51.8793 16.8132 51.924 16.8893 51.8739ZM17.2086 53.3479C17.4012 53.1606 16.5538 53.2071 16.7404 53.3738C16.751 53.3836 17.1975 53.3589 17.2086 53.3479ZM18.9081 0.638382C18.9161 0.638196 18.9386 0.551023 18.9312 0.547593C18.7517 0.469085 18.7069 0.643545 18.9081 0.638382ZM17.5473 54.8024C17.6569 54.7396 17.5115 54.6003 17.3752 54.6782C17.2656 54.7408 17.411 54.8806 17.5473 54.8024ZM16.4411 32.7821C16.45 32.7803 16.4576 32.7165 16.4072 32.7181C16.245 32.7234 16.2914 32.812 16.4411 32.7821ZM17.7858 57.3136C17.7829 56.9362 18.46 56.6469 18.4187 57.0599C18.4112 57.1348 18.1815 56.9218 18.1273 57.0213C18.0285 57.2034 18.4771 57.2769 18.2587 57.4745C18.2187 57.5103 17.7844 57.3352 17.7847 57.313C17.7851 57.3132 17.7854 57.3134 17.7858 57.3136ZM16.6509 38.461C16.6587 38.4585 16.6629 38.3697 16.655 38.3679C16.4634 38.3271 16.4549 38.506 16.6509 38.461ZM16.8294 29.0609C16.8463 29.0563 16.8656 28.8521 16.8502 28.8452C16.5416 28.7326 16.5015 29.1464 16.8294 29.0609ZM17.3937 44.3791C17.5904 44.4624 17.6202 44.5751 17.3857 44.6669C17.3923 44.5709 17.388 44.4752 17.3937 44.3791ZM34.4171 20.0082C34.1796 20.8337 33.7356 21.8672 33.3567 22.6322C33.2385 22.8715 33.1883 22.7076 33.1021 22.8709C32.9332 23.1903 32.8579 23.5218 32.6793 23.8354C32.6196 23.9391 32.5187 23.7398 32.4596 23.8498C32.1406 24.4442 31.9369 25.0506 31.6368 25.6696C31.5105 25.9296 31.384 26.1895 31.2571 26.4495C30.0016 29.0198 28.7391 31.543 27.35 34.0722C27.2486 34.2565 27.1469 34.4402 27.044 34.6249C26.498 35.607 25.7097 36.7264 25.1927 37.7607C25.1326 37.8813 25.3004 37.8851 25.2982 37.9134C25.2586 38.355 25.0668 38.0917 24.9003 38.3C24.2404 39.1261 23.6287 40.1127 23.1427 40.9917C22.9365 41.365 23.413 41.1588 23.0429 41.4362C23.0181 41.4552 22.948 41.2888 22.8727 41.3634C22.8706 41.3655 22.8685 41.3678 22.8664 41.3702C22.6909 41.577 22.44 42.0174 22.3169 42.1825C22.0789 42.5011 22.0457 42.5542 21.8357 42.8662C21.5438 43.2968 21.1346 43.758 20.8505 44.2244C20.7898 44.3249 21.0112 44.2888 20.9244 44.4598C20.8368 44.6324 20.5337 45.0333 20.4043 45.1466C20.275 45.2605 20.215 45.1284 20.1742 45.1354C19.8333 45.1908 19.7708 45.8429 19.7276 45.9134C19.162 46.8591 18.4809 47.555 17.8085 48.2878C17.6492 48.4606 17.4752 48.6534 17.3111 48.8426C16.6847 49.5673 16.0094 50.3871 15.3483 51.0263C14.55 51.7961 13.7857 52.3658 12.9418 53.045C12.8509 53.1172 13.0743 53.183 12.9628 53.2717C12.4995 53.6392 11.9972 53.9959 11.4822 54.3067C10.6973 54.7807 9.84525 55.1761 8.94269 55.4123C8.78691 55.4526 8.92704 55.229 8.77006 55.2587C7.81103 55.4752 6.38861 55.302 5.74684 55.9329C5.05103 55.863 4.18499 55.5939 3.71438 55.2141C3.41017 54.9691 3.82433 54.97 3.38901 54.8371C3.29188 54.8044 3.32731 55.0037 3.18615 54.9422C2.98567 54.8533 2.78977 54.7403 2.59856 54.6138C2.21111 54.3569 1.8784 54.0619 1.53269 53.748C1.42723 53.6513 1.34947 53.7777 1.30383 53.7632C0.907124 53.6259 0.858082 52.8879 0.836203 52.7722C0.558607 51.8046 0.378437 51.2207 0.308295 50.3932C0.297523 50.2031 0.121122 50.4411 0.104914 50.2551C0.0288107 49.2823 0.189989 48.2984 0.486517 47.4537C0.554922 47.2607 0.666096 47.4821 0.706869 47.3926C0.885541 47.0112 0.614474 46.8511 0.799642 46.4872C0.838729 46.4115 0.955691 46.5 0.974937 46.4902C1.27542 46.342 1.02714 46.0339 1.04248 45.9703C1.04752 45.9479 1.05342 45.9245 1.05859 45.9042C1.23804 45.2145 1.75444 44.8648 2.00805 44.231C2.04075 44.1501 1.79615 44.2494 1.89852 44.0259C2.58939 42.5241 3.57282 41.0802 4.64161 39.8735C4.80792 39.6858 4.80722 39.9078 4.82971 39.9047C5.18504 39.8526 5.01444 39.5159 5.05468 39.4421C5.27014 39.0611 5.59186 38.8226 5.78577 38.5249C5.88557 38.3715 5.94855 38.2051 5.93926 38.0006C7.7961 36.0081 9.58547 33.9481 11.8997 32.5176C11.9286 32.4994 11.9879 32.6674 12.045 32.6306C12.0651 32.6177 12.0843 32.6051 12.1028 32.5928C12.7203 32.1856 12.4577 32.0716 12.6848 31.5015C12.745 31.3528 13.311 31.4055 13.3568 31.4069C13.5258 31.4098 13.5652 31.6921 13.6129 31.6813C14.0009 31.5887 13.4602 30.9619 13.868 30.6647C13.8815 30.6566 13.9171 30.8182 13.96 30.8057C14.0936 30.7675 14.1638 30.643 14.2985 30.6114C14.6082 30.5405 14.9199 30.8101 15.1539 30.3675C15.1838 30.3111 14.8476 29.9721 15.2339 29.7398C15.3868 29.6462 16.0483 29.2079 16.2539 29.1178C16.4581 29.026 16.4085 29.2346 16.4255 29.2316C17.0363 29.0884 16.8878 29.2777 17.2928 29.3771C17.6955 29.4787 17.2674 28.9182 17.3322 28.7889C17.3975 28.659 17.8573 28.5833 17.9779 28.5815C18.0987 28.5789 18.0304 28.7275 18.1285 28.7092C18.7758 28.5898 18.1993 28.2713 18.3278 28.073C18.5541 27.7282 18.9336 27.788 19.2819 27.7837C19.4073 27.782 19.5292 27.7718 19.6406 27.731C19.7547 27.6892 19.6135 27.6274 19.705 27.5694C20.0677 27.3427 20.3724 27.3759 20.752 27.0381C20.8131 26.983 21.0484 26.5344 21.3752 26.6443C21.4213 26.6605 21.3787 26.8196 21.557 26.7749C21.8209 26.7087 22.2898 26.5479 22.5462 26.4031C22.7365 26.2955 22.4281 26.1851 22.7071 26.1496C22.8309 26.1345 22.6654 26.3303 22.8936 26.2928C23.1213 26.2541 23.6551 26.0588 23.8667 25.985C24.0739 25.9113 23.909 25.7956 23.9223 25.7796C24.0048 25.6854 24.3865 25.4822 24.4228 25.4721C25.4233 25.1513 26.4436 24.9817 27.438 24.8579C28.2338 24.7586 29.0101 24.6866 29.8227 24.5862C29.9664 24.569 29.8584 24.4055 29.8802 24.4011C30.3727 24.2981 30.0105 24.7749 30.3589 24.908C30.2926 24.5648 30.4971 24.615 30.8439 24.5685C31.0123 24.5463 30.9183 24.4141 30.9333 24.4C31.1849 24.1915 31.3634 24.456 31.4062 24.51C31.5683 24.7087 31.7541 24.4784 31.8623 24.6141C31.9673 24.7489 31.7053 24.9351 32.0325 24.9437C32.1331 24.8236 31.9021 24.4899 32.161 24.4479C33.1606 24.2671 34.9205 24.7952 35.6398 25.0288C35.8259 25.082 35.9799 25.1273 36.1131 25.167C36.5127 25.2867 36.7269 25.3463 37.0336 25.4755C37.7701 25.793 37.5485 25.4708 38.0669 25.5275C38.585 25.5899 38.1622 26.0705 38.1913 26.215C38.2172 26.359 38.3311 26.2606 38.3903 26.3562C38.4486 26.4517 38.2456 26.4701 38.4268 26.5638C38.6098 26.6567 39.1884 26.6367 39.3091 26.5427C39.5557 26.3383 39.423 25.9641 39.9031 26.2723C39.9302 26.2902 39.7765 26.3949 39.883 26.4561C40.7065 26.9274 41.6168 27.3705 42.3859 27.9257C42.4931 28.0032 42.3057 28.0962 42.3667 28.1428C42.9875 28.6318 42.8889 28.2382 43.4293 28.1898C43.2858 28.3312 43.2231 28.4823 43.2427 28.6346C43.2661 28.8178 43.408 29.0022 43.6703 29.1841C43.9569 29.3857 44.0151 29.1975 44.2779 29.2239C44.357 29.2313 44.4879 29.4918 44.5772 29.4494C44.8748 29.3156 44.8861 28.9051 45.3001 29.4049C45.3174 29.427 45.1492 29.494 45.2162 29.5616C45.6327 29.996 45.908 29.832 46.4171 30.2758C46.826 30.6314 47.3089 31.4619 47.6343 31.9782C47.2401 32.2567 47.635 32.6262 48.0404 32.6525C48.2384 32.9948 48.4563 33.3522 48.579 33.7156C48.6209 33.8401 48.4571 33.8227 48.4505 33.8442C48.3395 34.1664 48.6997 34.1856 48.7449 34.2606C48.7461 34.2626 48.7472 34.2646 48.7484 34.2666C49.2074 35.0719 49.1635 35.8451 49.5318 36.6615C49.5443 36.6903 49.8877 36.6954 49.6721 36.9615C49.6567 36.9773 49.4716 36.7122 49.5064 37.1184C49.5433 37.535 49.3927 38.289 49.5123 38.8608C49.5434 39.0006 49.7913 39.3668 49.5448 39.6248C49.5116 39.6582 49.4204 39.6068 49.3607 39.6531C49.1699 39.7997 49.4944 39.9416 49.1769 40.099C48.8588 40.2528 48.5845 40.5866 48.6443 41.1708C48.6454 41.1903 48.8759 41.3821 48.8259 41.5482C48.7758 41.7143 48.6908 41.9197 48.6096 42.1188C48.5618 42.2365 48.5155 42.3519 48.4802 42.4564C48.4353 42.5886 48.6228 42.5595 48.6178 42.5834C48.3905 43.4989 47.9816 44.0643 47.4621 44.9362C47.3692 45.0918 47.3212 45.6619 46.9796 45.886C46.6091 46.121 46.1035 45.3767 45.8205 46.2058C45.7092 46.5284 46.3092 47.5201 45.4951 47.7312C45.2598 48.1519 44.9524 48.5439 44.6492 48.896C44.178 49.4438 43.64 49.9933 43.2294 50.6271C43.1984 50.6746 43.2943 51.0038 43.1995 51.1017C43.0588 51.2463 42.883 51.2355 42.7778 51.3353C42.3443 51.7394 42.0561 52.2027 41.6267 52.6032C41.4652 52.7534 41.4175 52.6031 41.2291 52.7762C41.0419 52.9473 41.0475 53.1997 40.7309 53.3758C40.4905 53.5085 40.0383 53.4119 39.7461 53.6185C39.9864 53.905 39.8025 54.0635 39.553 54.4173C39.5045 54.4859 39.6565 54.525 39.638 54.5625C39.5844 54.6751 39.4737 54.7146 39.3921 54.7868C39.3613 54.814 39.3346 54.8459 39.3165 54.8882C39.3002 54.9257 39.3828 55.0231 39.3741 55.0592C39.3034 55.3706 38.789 55.432 38.7004 55.4412C38.3574 55.4826 38.3742 55.6848 38.1629 55.7633C37.9537 55.8394 38.1353 55.5676 37.918 55.6887C37.4691 55.9385 36.9627 56.3721 36.5433 56.6922C36.3818 56.8164 36.5962 56.8652 36.5755 56.886C36.2686 57.1806 35.8141 57.299 35.8271 57.7144C35.0588 57.1937 35.6721 57.9394 35.0615 58.1723C35.013 58.1903 34.7171 57.8929 34.8329 57.7318C34.9485 57.5709 35.2546 57.505 35.4035 57.2737C35.4398 57.2188 35.4813 56.699 35.5035 56.6521C35.6829 56.2828 36.1018 56.7421 36.1385 56.7569C36.537 56.914 36.6139 56.3207 36.6868 56.2255C37.0116 55.7987 37.4028 55.5929 37.6677 55.2506C37.8417 55.0265 37.5969 54.7013 37.7736 54.569C38.1584 54.279 38.528 54.29 38.7934 54.1037C38.9342 54.0047 39.0446 53.8499 39.1044 53.5671C39.1439 53.3903 38.7316 53.166 39.3589 53.0675C39.3982 53.0618 39.9056 53.0294 39.931 52.7278C39.9341 52.6899 39.8449 52.5962 39.8644 52.5629C39.9963 52.342 40.1862 52.3036 40.343 52.0834C40.4921 51.8707 40.6861 51.5765 40.932 51.3909C41.0818 51.2775 41.42 51.2763 41.5241 51.2535C41.8215 51.1913 41.8012 50.8075 42.0557 50.8371C42.3175 50.8601 42.3298 51.3079 42.719 51.0862C42.4831 50.8461 42.2541 50.5854 42.0223 50.3379C42.6411 49.6845 43.2977 49.0887 43.8412 48.3781C43.9023 48.2975 43.7258 48.2706 43.7524 48.1909C43.7545 48.1846 43.7579 48.1779 43.7627 48.1708C44.0443 47.7652 44.4195 47.4793 44.67 47.037C44.8598 46.6994 44.9587 46.2108 45.1326 45.8468C45.5884 45.8505 45.8065 45.2441 46.0494 44.8753C46.135 44.746 46.2199 44.8045 46.3019 44.7239C46.6062 44.4176 46.2126 44.4317 46.2188 44.3055C46.2384 43.7646 46.9492 44.0676 47.1741 43.5287C47.1858 43.5035 46.9608 42.9898 46.9544 42.9351C46.9229 42.5715 47.1076 42.9391 47.2118 42.7608C47.3964 42.4384 47.5698 42.2443 47.5988 41.7965C47.5992 41.7884 47.5996 41.7802 47.5999 41.7719C47.6059 41.637 47.4461 41.2816 47.6965 41.105C47.7295 41.0813 47.8563 41.1325 47.8704 41.1099C48.1157 40.6792 47.6988 40.5687 47.6097 40.29C47.5191 40.0176 47.8679 39.6737 47.9618 39.598C48.2072 39.4104 48.0333 39.7759 48.0512 39.7909C48.2831 39.9691 48.2874 39.659 48.3335 39.4322C48.7537 39.4461 48.7599 39.11 48.3782 39.1967C48.337 39.206 48.3581 39.3878 48.3335 39.4322C47.9491 39.1805 47.9267 38.8669 48.3187 38.4854C48.499 38.3074 48.7155 38.4802 48.6282 37.9184C48.5832 37.6625 48.3006 37.7744 48.2085 37.5616C47.999 37.0894 48.1639 36.4197 47.9899 35.928C47.9277 35.753 47.8218 35.9671 47.774 35.8508C47.6459 35.5474 47.6651 35.232 47.4866 34.9439C47.4704 34.9185 47.3439 35.046 47.3045 34.9532C47.2936 34.9282 47.2829 34.9032 47.2722 34.8784C46.9794 34.2069 46.7437 33.5848 46.2828 32.9387C46.0471 32.6022 45.531 32.1303 45.2428 31.8128C44.7782 31.2785 44.238 30.5051 43.6733 30.1651C43.3197 29.953 43.296 30.1419 43.089 30.1333C42.8687 30.126 42.6844 29.9256 42.5463 29.7289C42.4344 29.5685 42.3668 29.4178 42.3484 29.3748C42.348 29.3713 42.6687 29.525 42.5532 29.3535C42.5518 29.1451 42.3518 29.376 42.3484 29.3748C42.3282 29.3124 41.7202 28.9152 41.5704 28.8741C41.4919 28.8509 41.4566 29.0095 41.4172 28.995C40.5112 28.6635 39.6267 28.3027 38.7346 27.8724C38.7195 27.8631 38.8055 27.7092 38.7696 27.6895C38.2755 27.4133 37.8546 27.4896 37.3586 27.4544C36.87 27.4229 36.5309 27.2733 36.3366 26.9014C36.1409 26.8636 35.9112 26.7659 35.6942 26.6595C35.518 26.5711 35.3532 26.4793 35.2299 26.4111C34.9607 26.2635 34.8389 26.5873 34.8125 26.5878C33.9845 26.6335 33.5857 26.3774 32.7877 26.2711C32.4081 26.2187 31.66 26.2366 31.2472 26.2796C30.9215 26.3115 30.7212 26.2376 30.4181 26.3027C30.3772 26.3116 30.4264 26.4608 30.4141 26.4672C30.0872 26.6664 30.2272 26.2884 30.1528 26.2264C29.8811 26.0037 29.7047 25.8865 29.2689 26.0454C29.1642 26.0822 28.9363 26.6456 28.7617 26.7015C28.5321 26.7736 28.5936 26.5715 28.3523 26.6549C28.3316 26.6621 28.3542 26.7774 28.2011 26.797C28.0707 26.8142 27.9377 26.8315 27.8028 26.8496C27.2035 26.9299 26.5759 27.0268 25.9783 27.1967C25.8787 27.2247 26.055 27.3708 25.9126 27.4142C25.2559 27.6152 24.522 27.8426 23.8539 27.9924C23.6889 28.0289 23.7426 27.87 23.6951 27.846C23.4014 27.7025 23.2219 28.1377 23.1766 28.1627C22.1344 28.739 21.1821 28.8808 20.1659 29.5033C20.105 29.5409 20.044 29.5802 19.9828 29.6216C19.9224 29.6618 19.6211 30.2368 19.2596 30.0794C19.2358 30.0686 18.869 29.9043 18.7929 30.2008C18.7885 30.2192 18.9992 30.2893 18.7659 30.4033C18.5318 30.518 18.2294 30.8241 17.8294 30.8561C17.7034 30.8661 17.3033 30.7354 17.153 31.1343C17.1414 31.1619 17.0202 31.928 16.6469 31.6986C16.5859 31.6608 16.3774 31.2909 16.1606 31.6983C16.12 31.7766 16.289 31.7754 16.1537 31.9387C15.9476 32.1889 15.5429 32.3342 15.3427 32.7114C15.3075 32.7778 15.2489 33.1746 14.938 33.1356C14.8891 33.1296 14.8592 32.9761 14.7533 33.0355C14.2476 33.3194 13.8308 33.7645 13.3191 34.056C13.3137 34.0591 13.3084 34.0618 13.3031 34.0643C13.1338 34.1459 13.0694 33.9191 12.8689 34.0077C12.6616 34.0992 12.2871 34.3386 12.1833 34.5663C12.08 34.7935 12.5036 34.9061 12.269 35.149C11.253 36.2062 10.0641 37.0616 9.04755 38.1119C8.89598 38.2693 9.11339 38.2243 8.89917 38.4622C8.52912 38.8749 8.07281 39.4396 7.60667 40.0129C7.09417 40.6397 6.56052 41.2938 6.13858 41.6346C5.49075 42.1694 5.94519 41.2309 5.50956 41.6952C5.29676 41.9256 5.46702 42.4318 5.43962 42.4978C5.17764 43.1417 4.75105 43.482 4.49683 44.0463C4.4449 44.1629 4.65487 44.1382 4.60961 44.2359C4.45842 44.5669 4.20071 44.8935 4.06148 45.2098C3.999 45.353 4.12918 45.3839 4.05941 45.5069C3.89539 45.8007 3.71609 46.0713 3.4798 46.3285C3.45794 46.3529 3.38449 46.1012 3.28394 46.3341C3.2377 46.4427 3.18154 46.5548 3.12513 46.6704C2.979 46.9737 2.83229 47.305 2.83007 47.6381C2.83037 47.7781 3.11597 47.8554 2.845 48.091C2.7903 48.1386 2.45416 47.9863 2.68527 48.3828C2.71861 48.4602 3.03731 49.0378 2.75047 49.2647C2.67313 49.3229 2.36566 49.4773 2.40625 49.63C2.41293 49.6497 2.57586 49.5783 2.58736 49.6976C2.62696 50.1418 2.64524 50.5449 2.78694 50.9156C2.82456 51.0078 2.9493 50.8279 2.99991 50.9603C3.15548 51.3338 3.2152 51.568 3.40269 51.9074C3.47376 52.0276 3.31928 52.0534 3.31407 52.0711C3.25923 52.3841 3.55987 52.2154 3.61255 52.2407C3.76467 52.3174 3.8915 52.4224 4.0268 52.5322C4.2076 52.6776 4.36791 52.8154 4.56789 52.8884C4.66481 52.9232 4.67684 52.7551 4.70189 52.7517C4.94714 52.7136 4.677 52.9003 4.78195 52.9799C5.08217 53.2019 5.40634 53.2713 5.71768 53.2943C5.83327 53.3017 5.73115 53.1058 5.83123 53.1133C6.45219 53.1585 7.19021 53.0779 7.93451 52.9327C8.07937 52.9041 8.03755 53.0658 8.07701 53.0861C8.35284 53.2293 8.5377 52.8245 8.59037 52.7689C8.8452 52.5126 9.00904 52.5689 9.26266 52.4116C9.49219 52.2667 9.76239 52.0939 10.0011 51.9336C11.0854 51.2169 12.2834 50.2844 13.1966 49.4604C14.2394 48.5191 15.1018 47.6826 15.9491 46.7257C16.2888 46.3409 16.6373 45.9187 16.9775 45.4691C17.0512 45.3717 16.8289 45.3539 16.8905 45.2686C17.7015 44.1581 18.5536 43.1028 19.2864 41.9312C19.347 41.8348 19.1091 41.8713 19.2012 41.7133C19.3907 41.3865 19.66 40.9992 19.9124 40.7159C20.0357 40.5767 20.0273 40.8663 20.149 40.7241C20.3435 40.4971 20.5283 40.2437 20.695 39.9786C20.7725 39.8555 20.8426 39.7354 20.9096 39.6121C20.9994 39.4458 20.6955 39.5908 20.8239 39.3823C21.7013 37.9466 22.5054 36.5142 23.5356 35.1372C23.6063 35.0425 23.9775 35.1289 24.0352 34.8775C23.955 34.8122 23.8496 34.7556 23.7581 34.6963C24.0963 34.0422 24.4454 33.3867 24.7918 32.7392C25.5986 31.2309 26.412 29.7276 27.1512 28.1695C27.1956 28.0756 26.944 28.1565 27.029 27.9746C27.4654 27.0383 27.8341 26.1121 28.3619 25.2011C28.4307 25.0824 28.5022 24.9642 28.5767 24.8464C28.6402 24.7454 28.9312 24.935 29.0194 24.5943C29.0349 24.5343 29.1975 24.0289 29.1806 23.8751C29.1774 23.8538 28.9934 23.8812 29.0539 23.723C29.4055 22.8116 29.8244 21.8588 30.2621 20.9858C30.3336 20.8436 30.4319 21.0623 30.4844 20.9607C30.8587 20.2323 31.0308 19.3891 31.4349 18.708C31.7032 18.258 31.917 18.5345 32.2798 18.3712C32.3312 18.3479 32.4406 18.0498 32.6048 18.0888C33.0185 18.1853 33.4063 18.4818 33.8531 18.5677C33.9496 18.5862 33.9893 18.1448 34.1292 18.4617C34.1385 18.4835 34.1107 18.8053 34.1603 18.9048C34.1947 18.9739 34.3881 18.9375 34.4186 19.065C34.4488 19.1926 34.2736 19.2605 34.2908 19.4616C34.3085 19.6635 34.5195 19.6511 34.4171 20.0082ZM34.0038 25.7988C33.761 25.5964 33.6167 26.1804 33.9302 26.0826C33.9455 26.0773 34.0162 25.8089 34.0038 25.7988ZM43.6299 49.376C44.0722 49.2581 43.9268 48.8189 43.6069 48.8896C43.2881 48.9578 43.4961 49.4109 43.6299 49.376ZM41.1722 52.3141C41.6322 52.1509 41.0781 51.505 40.8699 51.9538C40.8575 51.9797 41.1454 52.3235 41.1722 52.3141ZM31.9314 19.6022C31.9399 19.6024 32.0262 19.3856 32.0205 19.378C31.8835 19.1975 31.7119 19.6292 31.9314 19.6022ZM38.4953 55.0426C38.6757 55.0404 38.8878 54.6827 38.6658 54.6856C38.4885 54.6874 38.2725 55.0448 38.4953 55.0426ZM19.7823 27.9866C19.7743 27.9805 19.6232 28.0478 19.6491 28.0913C19.7325 28.2307 19.9159 28.0872 19.7823 27.9866ZM33.3395 59.0153C34.1505 58.4849 35.0298 58.7108 34.1276 59.2597C33.9636 59.3588 34.3342 58.8387 34.0993 58.9283C33.6712 59.0914 33.679 59.6233 33.1631 59.6931C33.0708 59.7048 33.2938 59.0439 33.3404 59.0135C33.3401 59.0141 33.3398 59.0147 33.3395 59.0153ZM33.9791 25.0679C33.975 25.0589 33.7491 25.0192 33.7423 25.0266C33.5886 25.1966 34.0381 25.2754 33.9791 25.0679ZM11.5273 33.04C11.506 33.0347 11.0875 33.3713 11.0852 33.395C11.077 33.81 11.9165 33.1356 11.5273 33.04ZM47.6294 31.9935C47.9378 32.0929 48.132 32.3444 48.0399 32.6514C47.9119 32.4223 47.7726 32.2121 47.6294 31.9935Z" fill="black"/>
</svg>
