<svg width="47" height="58" viewBox="0 0 47 58" fill="none" xmlns="http://www.w3.org/2000/svg">
<path d="M1.08919 13.9932C1.28157 13.9163 1.54934 13.9385 1.75714 13.9892C1.82223 14.0049 1.80411 14.1141 1.84965 14.1296C1.93869 14.1599 2.01027 14.0984 2.09931 14.1366C2.12888 14.1498 2.11582 14.3207 2.14634 14.3307C2.31348 14.3843 2.45738 14.323 2.62172 14.3381C3.43125 14.413 4.21316 14.3775 5.01979 14.3523C5.28575 14.3439 5.62437 14.4546 5.88743 14.3541C5.91812 14.3422 5.8807 14.1984 5.8852 14.1855C5.95637 13.9891 5.96235 14.2882 6.02906 14.3196C6.29373 14.4434 6.56793 14.4224 6.7966 14.336C6.79798 14.3355 6.79931 14.3349 6.80059 14.3343C6.88998 14.2911 6.75814 14.0233 6.8781 14.1714C6.88651 14.1815 6.88074 14.34 6.91035 14.3531C6.97747 14.3825 7.09233 14.3397 7.14225 14.3459C7.23855 14.3586 7.25377 14.355 7.34215 14.3456C7.46313 14.3341 7.61625 14.3932 7.74108 14.3416C7.76767 14.3301 7.71095 14.1756 7.75153 14.1429C7.79216 14.1103 7.91041 14.109 7.95446 14.1415C7.99852 14.1741 7.99764 14.3013 8.00823 14.3291C8.09613 14.5639 8.18844 14.2116 8.20473 14.2011C8.50308 14.0197 8.79848 14.1763 9.09527 14.1382C9.32053 14.1088 9.55351 14.0152 9.76904 13.9967C10.0259 13.9752 10.2533 14.034 10.4997 13.9877C10.5257 13.983 10.4712 13.7997 10.503 13.7936C10.8401 13.7288 11.1802 13.7064 11.5346 13.7898C11.5702 13.7984 11.5473 13.9682 11.5841 13.9866C11.8088 14.0953 12.1784 14.3781 12.211 13.647C12.3551 13.6571 12.5295 13.6643 12.6736 13.7926C12.7531 13.8632 12.7235 14.0118 12.7696 13.9975C12.7774 13.9951 12.7874 13.988 12.8003 13.9752C12.8207 13.9553 12.7716 13.8022 12.8035 13.7843C12.9381 13.7089 13.0996 13.7402 13.2297 13.6414C13.2561 13.6209 13.2305 13.4815 13.2354 13.4551C13.2774 13.2416 13.4335 13.566 13.4613 13.5874C13.6725 13.7471 13.8005 13.6575 13.9761 13.6398C14.0169 13.6358 13.945 13.4532 13.9833 13.4425C14.1826 13.3898 14.3946 13.3794 14.6037 13.438C14.6503 13.4514 14.6301 13.6173 14.6534 13.632C14.7558 13.6947 14.738 13.3885 14.8355 13.4428C14.856 13.4538 14.8629 13.5928 14.8682 13.6075C14.952 13.8379 14.956 13.4958 14.9689 13.4867C15.1307 13.3631 15.2869 13.6999 15.4494 13.6288C15.4688 13.6199 15.4012 13.4516 15.457 13.4373C15.8291 13.3413 16.235 13.3385 16.627 13.4303C16.6879 13.4443 16.6629 13.5804 16.6686 13.596C16.7602 13.8404 16.7561 13.498 16.7734 13.4828C16.9115 13.3724 17.0872 13.6377 17.138 13.2228C17.6609 13.2702 18.1521 13.0828 18.6742 13.1517C18.8027 13.1687 18.9332 13.2012 19.0664 13.2567C19.075 13.2598 19.0817 13.4279 19.0986 13.4335C19.3025 13.5025 19.2329 13.2488 19.3199 12.9167C19.3418 12.8333 19.4875 13.2024 19.4997 13.2293C19.5442 13.3284 19.543 13.5798 19.556 13.5984C19.6628 13.7441 19.545 12.928 19.6623 12.9129C19.6661 12.9138 19.6698 13.0663 19.6815 13.08C19.7181 13.1231 19.7408 13.0594 19.7773 13.1075C19.8611 13.2187 19.9358 13.613 20.0112 13.3685C20.0206 13.3368 19.9416 12.8754 20.0491 12.884C20.092 12.8879 20.2759 12.8565 20.3315 12.88C20.3871 12.9034 20.3705 13.0575 20.375 13.0635C20.5395 13.2435 20.497 13.3321 20.604 13.616C20.7108 13.8987 20.6032 13.2057 20.6219 13.1245C20.6406 13.0434 20.7635 13.1936 20.7958 13.2471C20.8281 13.3007 20.8088 13.3996 20.8352 13.4289C21.0098 13.6199 20.8564 13.0755 20.8912 12.9589C20.9731 12.683 21.128 13.1874 21.2397 13.2246C21.2699 13.2346 21.2318 13.1201 21.2558 13.1059C21.3509 13.0512 21.4317 13.2045 21.5273 13.0424C21.543 13.016 21.5961 12.6942 21.6847 12.9142C21.6973 12.9459 21.6896 13.0775 21.736 13.1009C21.8055 13.136 21.9243 13.1494 21.9876 13.0978C22.0343 13.0595 21.9493 12.8551 22.0215 12.9128C22.0536 12.9386 22.0167 13.0692 22.0758 13.1073C22.1345 13.1454 22.2695 13.1227 22.3206 13.1119C22.3716 13.101 22.323 12.9439 22.3258 12.9326C22.3431 12.8674 22.4322 12.7774 22.441 12.7765C22.8793 12.701 23.3202 12.9202 23.7381 12.7762C23.7709 12.7651 23.727 12.5986 23.7318 12.5951C23.8381 12.5095 23.8043 12.9715 23.9039 13.112C23.8487 12.7697 23.9042 12.8259 23.9806 12.7779C24.0174 12.7545 23.9792 12.6241 23.9811 12.61C24.0135 12.4005 24.087 12.6565 24.1042 12.7086C24.1675 12.9003 24.1799 12.6628 24.2228 12.7908C24.2654 12.9179 24.2298 13.1188 24.3074 13.1064C24.3136 12.9806 24.215 12.6663 24.2675 12.6067C24.3491 12.5139 24.473 12.4931 24.6034 12.501C24.7899 12.5123 24.9895 12.5822 25.097 12.5843C25.2794 12.5877 25.3344 12.5577 25.4444 12.589C25.643 12.6455 25.5437 12.4156 25.6469 12.2916C25.7505 12.1675 25.7678 12.7618 25.8007 12.8859C25.8332 13.0099 25.8349 12.8778 25.8643 12.9445C25.8936 13.0112 25.86 13.1027 25.9116 13.1226C25.9632 13.1424 26.0669 12.9013 26.0673 12.7672C26.0681 12.483 25.9713 12.1971 26.1123 12.284C26.1204 12.2892 26.1161 12.4466 26.1462 12.4586C26.385 12.5491 26.6183 12.527 26.855 12.6038C26.8876 12.6146 26.8819 12.7898 26.9011 12.798C27.1012 12.8843 26.9979 12.6032 27.0592 12.2686C27.0905 12.6995 27.1802 12.9543 27.3218 12.9389C27.407 12.9298 27.3686 12.7447 27.4069 12.606C27.4183 12.5642 27.4947 12.6849 27.4945 12.5956C27.4939 12.3036 27.3965 11.9891 27.5585 12.0987C27.5656 12.104 27.5652 12.2639 27.5885 12.2706C27.7392 12.3149 27.7182 12.0121 27.8679 11.9562C27.9852 11.9123 28.2236 12.0683 28.3651 12.0807C28.4232 12.5623 28.5394 12.4356 28.5501 12.0971C28.6412 12.0993 28.7354 12.0683 28.8276 12.1032C28.8593 12.1151 28.8574 12.2569 28.8631 12.2715C28.9505 12.5004 28.9484 12.1726 28.9661 12.1575C29.1596 12.008 29.361 12.2311 29.5303 11.9667C29.5363 11.9572 29.5054 11.6214 29.5897 11.8587C29.5953 11.8751 29.5486 12.0356 29.644 12.0354C29.7394 12.0353 29.9391 12.1921 30.0498 12.0207C30.0767 11.9794 30.122 11.6979 30.213 11.9018C30.2251 11.9295 30.228 12.0266 30.247 12.0784C30.3084 12.2433 30.2873 11.9027 30.3705 12.1838C30.4371 12.4089 30.5303 12.5837 30.6193 12.5341C30.6415 12.5218 30.6634 12.4956 30.6846 12.4528C30.6881 12.4465 30.6852 12.1748 30.7271 12.1738C30.794 12.1724 30.8947 12.2163 30.9634 12.2058C30.9963 12.2007 30.9541 12.0371 30.9594 12.0333C31.1695 11.912 31.3462 12.0403 31.592 12.0745C31.6371 12.0811 31.7335 11.8384 31.8406 12.007C31.9581 12.1915 31.9664 13.02 32.1546 12.7985C32.2306 12.7098 32.208 11.6603 32.4303 12.1774C32.7127 12.0065 33.0243 12.246 33.3003 12.0181C33.3127 12.008 33.3187 11.7135 33.3509 11.7134C33.3988 11.7139 33.4418 11.8457 33.4766 11.8503C33.6227 11.8732 33.737 11.7412 33.8751 11.742C33.9275 11.742 33.9272 11.884 33.9897 11.884C34.0522 11.8839 34.0698 11.6947 34.1644 11.773C34.2359 11.8327 34.3465 12.2008 34.4356 12.234C34.3917 11.8627 34.4501 11.8631 34.5396 11.7523C34.5568 11.7308 34.5194 11.6044 34.5267 11.5875C34.556 11.5162 34.6045 11.6188 34.6311 11.5418C34.6376 11.5233 34.622 11.3966 34.6264 11.3743C34.6634 11.1801 34.7993 11.4524 34.8227 11.4998C34.9123 11.6799 34.9221 11.5113 34.9819 11.5791C35.0416 11.6469 34.9782 11.7491 35.0426 11.7867C35.1763 11.8644 35.3302 11.8241 35.4547 11.8142C35.5042 11.8095 35.4491 11.6447 35.4557 11.6401C35.5523 11.5843 35.6784 11.751 35.6923 11.4071C35.8734 12.2689 35.7431 11.3148 35.9111 11.4706C35.9244 11.4833 35.9912 11.8932 35.9548 11.9592C35.9183 12.0252 35.8351 11.905 35.7858 12.007C35.7741 12.0309 35.74 12.4273 35.7316 12.4522C35.666 12.6461 35.5754 12.0323 35.5664 11.9991C35.4669 11.6411 35.4182 12.0697 35.3951 12.1018C35.2895 12.2489 35.1747 12.1755 35.0843 12.2825C35.0251 12.3517 35.0697 12.7556 35.0156 12.7499C34.8358 12.7312 34.7036 12.1767 34.6009 12.6851C34.5788 12.7935 34.6697 13.2296 34.4994 12.8992C34.4887 12.8784 34.3547 12.5734 34.3259 12.7807C34.3223 12.8068 34.3387 12.9352 34.3311 12.9471C34.2798 13.0245 34.2267 12.9273 34.1673 12.9846C34.108 13.0419 34.0384 13.125 33.958 13.0909C33.9096 13.0706 33.8214 12.8387 33.7924 12.7829C33.71 12.6219 33.6797 12.9068 33.616 12.7073C33.5519 12.5068 33.5869 12.1855 33.4701 12.0655C33.5087 12.3996 33.5436 12.743 33.5802 13.0792C33.3598 13.0952 33.1307 13.0147 32.913 13.0573C32.886 13.0629 32.9366 13.2387 32.9083 13.2493C32.7887 13.2934 32.6649 13.1792 32.5437 13.2463C32.4499 13.2989 32.3656 13.5026 32.2682 13.5635C32.1567 13.1898 32.0197 13.3388 31.9039 13.3181C31.8633 13.311 31.853 13.2087 31.821 13.1789C31.7007 13.0692 31.7925 13.4003 31.7705 13.457C31.6761 13.6992 31.5687 12.9371 31.4259 12.9743C31.4183 12.976 31.3758 13.3949 31.3661 13.4219C31.3047 13.5976 31.3345 13.282 31.2792 13.2585C31.1782 13.2154 31.1005 13.1265 31.0052 13.2597C30.9775 13.2991 30.9325 13.5625 30.8451 13.3743C30.8337 13.3496 30.8212 13.2145 30.8136 13.2075C30.7524 13.1554 30.7288 13.2117 30.7168 13.3033C30.7021 13.4161 30.705 13.5825 30.6773 13.6662C30.627 13.818 30.4843 13.5397 30.4521 13.4583C30.3682 13.2479 30.4834 13.3599 30.4838 13.3381C30.4874 13.0795 30.4158 13.133 30.3542 13.119C30.2931 12.7057 30.2139 12.741 30.2905 13.1062C30.299 13.1461 30.34 13.1016 30.3542 13.119C30.354 13.5322 30.2701 13.5958 30.1219 13.2285C30.0525 13.0563 30.0704 12.843 29.9379 12.937C29.8777 12.9795 29.9388 13.2617 29.8917 13.3467C29.7841 13.5407 29.5812 13.296 29.4524 13.3549C29.4057 13.3763 29.4729 13.5265 29.4416 13.5465C29.3587 13.6001 29.2659 13.4928 29.1849 13.564C29.1776 13.5707 29.2179 13.7317 29.1906 13.7373C28.9839 13.7828 28.7886 13.7011 28.57 13.7259C28.4643 13.738 28.2872 13.852 28.1756 13.8478C27.9824 13.8413 27.7193 13.633 27.5649 13.7113C27.4641 13.7617 27.5079 13.9223 27.4769 14.0394C27.417 14.2665 27.2135 13.8992 27.1852 13.8419C27.1843 13.84 27.2702 13.7899 27.2111 13.7121C27.1607 13.5408 27.1861 13.841 27.1852 13.8419C27.1666 13.8049 26.9805 13.7908 26.9485 13.8266C26.9311 13.8462 26.9617 13.9997 26.9522 14.007C26.7273 14.1764 26.4893 14.2466 26.2342 14.2053C26.2295 14.2028 26.214 14.0286 26.2032 14.0247C26.051 13.9657 25.9867 14.1893 25.8852 14.33C25.7838 14.4708 25.6853 14.4404 25.5781 14.1517C25.4942 14.2004 25.3504 14.0849 25.2672 14.0144C25.1839 13.9438 25.2165 14.2825 25.2109 14.29C25.0835 14.4652 24.974 14.416 24.8411 14.3759C24.7927 14.3613 24.7412 14.3479 24.6846 14.3469C24.5837 14.3446 24.3935 14.4184 24.291 14.4689C24.21 14.5093 24.149 14.4367 24.0773 14.4972C24.0676 14.5053 24.0973 14.6542 24.0948 14.6604C24.0305 14.8511 24.0258 14.4786 23.9995 14.4153C23.9041 14.185 23.8477 14.0631 23.7503 14.1894C23.7278 14.2184 23.7199 14.7567 23.6769 14.7936C23.6209 14.8405 23.6199 14.6481 23.5618 14.7021C23.5569 14.7065 23.5728 14.8233 23.5327 14.8231C23.3469 14.8239 23.1389 14.7812 22.9502 14.817C22.9244 14.8215 22.9812 15.0027 22.9443 15.0122C22.771 15.0565 22.5771 15.0741 22.3946 15.009C22.3496 14.9924 22.3596 14.8592 22.3455 14.8218C22.2597 14.5956 22.2228 14.9447 22.2105 14.9529C21.9171 15.1556 21.6378 14.8793 21.3362 15.0659C21.3199 15.0767 21.2318 15.4571 21.1325 15.153C21.1257 15.1328 21.0261 14.8214 21.0014 15.0461C20.9999 15.0601 21.0576 15.2196 20.9911 15.211C20.9246 15.2025 20.8349 15.3253 20.7235 15.1561C20.6883 15.1029 20.5818 14.7932 20.5303 15.0573C20.5271 15.0757 20.4708 15.6654 20.3746 15.2757C20.3589 15.2115 20.3136 14.7919 20.2411 15.0192C20.2273 15.0632 20.2737 15.1522 20.2309 15.2168C20.1654 15.3164 20.0492 15.2173 19.9783 15.4157C19.966 15.4508 19.9318 15.7438 19.8482 15.5353C19.8351 15.5027 19.8341 15.3608 19.8024 15.3489C19.6515 15.2918 19.5152 15.4041 19.3594 15.3256C19.3042 15.2981 19.3016 15.0688 19.2409 15.015C19.1802 14.9612 19.066 14.9165 19.0236 15.0268C18.9812 15.1371 19.0875 15.4895 19.008 15.5289C18.9978 15.5339 18.9876 15.5387 18.9773 15.5431C18.6398 15.6902 18.2669 15.5344 17.9129 15.5488C17.8588 15.551 17.9195 15.6742 17.8409 15.6866C17.5513 15.7331 17.0646 15.9175 16.7776 15.6757C16.5476 15.4821 16.7809 15.2829 16.6151 15.2133C16.5351 15.1802 16.5075 15.609 16.4912 15.6244C16.3323 15.7806 16.1867 15.6106 16.0356 15.6876C16.0044 15.7035 16.058 15.8692 16.0312 15.8808C15.94 15.9223 15.8305 15.8592 15.7415 15.8846C15.7016 15.8964 15.7256 16.025 15.6868 16.0197C15.5943 16.0087 15.5081 15.9643 15.4053 15.8539C15.3959 15.8438 15.4292 15.6758 15.3621 15.6782C15.2536 15.6826 15.1052 15.5797 14.9973 15.7191C14.9654 15.7609 15.0015 16.0573 14.8968 15.8627C14.8748 15.8221 14.8508 15.4638 14.798 15.7827C14.7891 15.8357 14.6874 16.2697 14.5779 16.0122C14.549 15.9444 14.4612 15.6598 14.4229 15.7111C14.4179 15.7192 14.462 15.8752 14.4274 15.8954C14.3053 15.9636 14.1683 15.9638 14.0423 16.0303C14.0088 16.0484 14.0822 16.2064 14.0315 16.2281C13.8921 16.2881 13.7061 16.269 13.558 16.2355C13.5034 16.2228 13.5222 16.0818 13.5165 16.0675C13.4248 15.8338 13.43 16.1642 13.4122 16.1858C13.3006 16.3155 13.1852 16.1746 13.0742 16.2298C13.0435 16.2447 13.0859 16.3971 13.0813 16.4118C13.0798 16.416 13.0785 16.4198 13.0771 16.4233C13.033 16.539 13.0449 16.2696 13.0004 16.2449C12.872 16.1727 12.7428 16.2017 12.6266 16.2366C12.584 16.2497 12.6558 16.4236 12.6173 16.4332C12.3897 16.4936 12.1468 16.5069 11.9082 16.4362C11.8632 16.4226 11.8724 16.2805 11.8595 16.2499C11.7703 16.0361 11.7191 16.3497 11.7021 16.3811C11.6251 16.5245 11.5731 16.4065 11.4932 16.4398C11.1034 16.6051 10.5939 16.5871 10.2059 16.5853C9.70037 16.5838 9.29774 16.5007 8.82784 16.5951C8.79795 16.6009 8.85173 16.7816 8.82627 16.789C8.49645 16.876 8.15705 16.8458 7.82767 16.9417C7.8006 16.9492 7.86253 17.1191 7.81983 17.1371C7.73239 17.1752 7.61616 17.1803 7.51726 17.136C7.46907 17.1148 7.51011 16.9571 7.46199 16.9388C7.34989 16.8958 7.2358 16.8976 7.13154 16.9393C7.13131 16.9394 7.13107 16.9395 7.13085 16.9396C7.0882 16.9593 7.17881 17.1276 7.11975 17.1372C6.71578 17.2065 6.32073 17.2878 5.88086 17.1082C5.8507 17.0959 5.77992 16.7354 5.72892 16.8127C5.7372 16.9142 5.75249 17.0329 5.7642 17.141C5.1802 17.274 4.57891 17.2222 3.98342 17.2779C3.95832 17.2802 4.02595 17.4674 3.97747 17.473C3.69695 17.5057 3.43165 17.5935 3.1208 17.4384C3.08999 17.4233 3.06162 17.0825 2.98433 17.1444C2.97073 17.1556 2.85026 17.2168 2.82696 17.2945C2.82393 17.3062 2.86701 17.4614 2.82693 17.4712C2.59364 17.5252 2.34141 17.5205 2.09324 17.4537C2.05315 17.4426 2.07234 17.269 2.0436 17.2597C1.83989 17.1946 1.64688 17.3492 1.44368 17.2196C1.30758 17.1322 1.31622 16.8352 1.21451 16.5569C1.20013 16.5176 1.12313 16.5208 1.09805 16.3546C1.03477 15.9365 1.01347 15.4726 0.941665 15.0275C0.926261 14.9316 0.837367 15.0483 0.868287 14.808C0.870534 14.7918 0.934725 14.7053 0.942941 14.624C0.948709 14.5678 0.904349 14.4011 0.921378 14.328C0.938413 14.2549 0.984875 14.3935 1.01738 14.306C1.04974 14.2174 1.00642 14.0269 1.08919 13.9932ZM24.8926 13.6994C24.8043 13.5459 24.8696 14.1406 24.9248 13.9894C24.9274 13.9814 24.8971 13.7069 24.8926 13.6994ZM33.0752 12.5669C32.9535 12.3164 32.9417 12.7089 33.0298 12.9032C33.1179 13.0972 33.1123 12.6428 33.0752 12.5669ZM33.9692 12.2594C33.8395 12.0662 33.9299 12.9097 34.0192 12.7256C34.0244 12.7151 33.9767 12.2706 33.9692 12.2594ZM1.50737 16.4368C1.50544 16.429 1.44969 16.4283 1.44937 16.4363C1.4441 16.6285 1.55555 16.6298 1.50737 16.4368ZM34.8539 11.9359C34.8072 11.8261 34.7308 11.9693 34.7889 12.1058C34.8357 12.2156 34.9121 12.0724 34.8539 11.9359ZM21.2793 13.5139C21.2771 13.5052 21.2368 13.5022 21.2439 13.5521C21.267 13.7127 21.3159 13.6604 21.2793 13.5139ZM36.4012 11.7299C36.1684 11.7272 35.9416 11.0497 36.2007 11.0965C36.2476 11.105 36.1315 11.3305 36.1969 11.3859C36.3165 11.4868 36.3309 11.0415 36.4678 11.2618C36.4926 11.3021 36.4147 11.7316 36.401 11.7309C36.4011 11.7306 36.4011 11.7302 36.4012 11.7299ZM24.7632 12.9915C24.7609 12.9838 24.7056 12.9833 24.7053 12.9912C24.6997 13.1834 24.8111 13.1846 24.7632 12.9915ZM18.9416 13.4374C18.9364 13.421 18.8083 13.4214 18.8062 13.4373C18.7794 13.7537 19.0386 13.7539 18.9416 13.4374ZM28.3689 12.0932C28.4042 11.8962 28.4723 11.8649 28.5498 12.0969C28.4892 12.0917 28.4297 12.0974 28.3689 12.0932ZM21.1685 1.47604C21.0787 2.04629 20.831 2.80965 20.6134 3.37074C20.5462 3.54344 20.4657 3.42738 20.4143 3.5474C20.3154 3.77575 20.2987 4.06074 20.1975 4.26683C20.1621 4.34054 20.0228 4.2036 19.9893 4.282C19.8102 4.69986 19.7282 5.21545 19.5889 5.63681C19.4734 5.99133 19.351 6.38835 19.2419 6.74222C18.6603 8.63992 18.1492 10.5613 17.6313 12.5181C17.5799 12.7129 17.5195 12.9121 17.4561 13.1138C17.2642 13.7243 17.0326 14.4089 16.9475 15.0135C16.9342 15.1084 17.0905 15.0853 17.0984 15.1057C17.2171 15.425 16.9476 15.267 16.8681 15.4406C16.5519 16.1347 16.3606 16.9329 16.2628 17.6442C16.2216 17.9468 16.5729 17.7113 16.3468 17.9756C16.3314 17.994 16.195 17.8851 16.1609 17.9631C16.0835 18.1408 16.0349 18.4957 15.9918 18.6364C15.9079 18.9068 15.8996 18.9528 15.8416 19.2133C15.82 19.3088 15.7922 19.4081 15.7621 19.5098C15.6802 19.7867 15.5818 20.0821 15.5477 20.3683C15.5382 20.4518 15.7181 20.3767 15.7172 20.5129C15.7162 20.6491 15.6302 20.9914 15.5689 21.0998C15.5075 21.2083 15.3944 21.1329 15.3618 21.1476C15.0874 21.2671 15.3354 21.7343 15.3331 21.7869C15.2763 22.7632 14.9288 23.5086 14.7527 24.4031C14.6506 24.9237 14.5845 25.4667 14.4974 25.9958C14.4727 26.1463 14.4467 26.2932 14.4181 26.4349C14.2695 27.1684 14.0599 27.8355 13.9495 28.5556C13.9375 28.6322 14.139 28.5751 14.1248 28.6686C13.9686 29.6967 13.7862 30.6881 13.5149 31.6677C13.4879 31.7638 13.3423 31.6138 13.3055 31.7084C13.2275 31.9153 13.1185 32.1816 13.0425 32.4375C12.9011 32.9093 12.8664 33.4132 13.3051 33.7131C13.2297 34.1268 13.1527 34.6115 12.9777 34.9882C12.8664 35.2183 12.7031 34.9765 12.7594 35.2701C12.7722 35.3352 12.9354 35.2631 12.9428 35.359C12.9727 35.7887 12.9034 36.2334 12.9894 36.635C13.0074 36.7198 13.1488 36.6937 13.1746 36.7167C13.3837 36.9151 13.059 37.1778 13.044 37.2715C12.8629 37.8911 13.2556 37.8562 12.7099 37.839C12.7428 37.847 12.645 37.6619 12.6754 37.6557C12.6762 37.6554 12.6769 37.655 12.6777 37.6546C13.2087 37.4202 13.7906 37.1935 14.3897 37.04C14.517 37.0087 14.4679 37.2039 14.532 37.1965C14.816 37.1615 14.7676 36.8507 15.049 36.8077C15.1047 36.7997 15.1284 36.9398 15.1433 36.9502C15.3779 37.113 15.382 36.746 15.4183 36.7233C15.9031 36.4178 16.305 36.6385 16.79 36.3943C16.8465 36.3653 16.6507 36.2535 16.8117 36.1828C17.2761 35.9772 17.8198 35.7668 18.319 35.5994C18.9457 35.3876 19.5334 35.2257 20.1546 35.0866C20.327 35.0488 20.2528 35.2147 20.2686 35.2263C20.5219 35.4063 20.5202 35.0467 20.5707 35.0155C20.9732 34.7778 21.4736 34.9099 21.635 34.4292C22.4698 34.2165 23.2639 33.9562 24.081 33.7148C25.1266 33.406 26.1791 33.1383 27.2787 33.0834C27.3034 33.0818 27.3001 33.255 27.3492 33.251C27.9409 33.2075 27.7709 32.9806 28.0827 32.5835C28.1622 32.4836 28.5366 32.7958 28.5676 32.8182C28.6831 32.8998 28.6379 33.1643 28.6735 33.1773C28.964 33.2774 28.7524 32.4788 29.1073 32.4066C29.1187 32.4057 29.1019 32.5639 29.1347 32.5727C29.2363 32.6006 29.3162 32.5233 29.4166 32.557C29.6471 32.6357 29.7929 33.0153 30.064 32.7291C30.0673 32.7256 30.0689 32.7185 30.0695 32.7084C30.0756 32.6115 29.9846 32.239 30.2759 32.2085C30.4021 32.1949 30.9689 32.0945 31.1309 32.1021C31.2932 32.1085 31.2069 32.2737 31.2192 32.2785C31.6705 32.4141 31.5218 32.5195 31.7711 32.7827C32.0169 33.0463 31.8692 32.3589 31.946 32.27C32.024 32.1808 32.3571 32.3061 32.4392 32.3547C32.5219 32.4029 32.4378 32.5088 32.509 32.5333C32.9778 32.6949 32.6685 32.166 32.8056 32.0397C33.1291 31.7422 33.4597 32.2359 33.781 32.2645C33.8689 32.2723 33.7898 32.159 33.8668 32.1427C34.1743 32.0808 34.3582 32.2331 34.7084 32.0718C34.7642 32.0453 35.0463 31.7246 35.2351 31.9523C35.2614 31.9851 35.1893 32.1154 35.3206 32.1431C35.5173 32.1845 35.863 32.2154 36.0807 32.1786C36.0863 32.1777 36.0915 32.1764 36.0963 32.175C36.2269 32.1362 36.0718 31.9348 36.2614 32.005C36.3482 32.0378 36.1813 32.1566 36.3438 32.208C36.5062 32.2584 36.9154 32.2771 37.0735 32.2867C37.2335 32.2954 37.1598 32.1269 37.1735 32.1171C37.2575 32.0605 37.5744 32.0133 37.6015 32.0172C38.986 32.1529 40.167 32.7039 41.4183 33.1793C41.5163 33.2174 41.5256 33.0334 41.5413 33.0376C41.9053 33.134 41.447 33.4152 41.6001 33.662C41.7175 33.3588 41.8176 33.4452 42.0264 33.5332C42.041 33.5394 42.0561 33.5456 42.0718 33.5517C42.1877 33.5969 42.1971 33.4476 42.2136 33.4412C42.4794 33.3599 42.4533 33.6558 42.4503 33.7176C42.4443 33.9483 42.6833 33.8272 42.6766 33.984C42.6669 34.1379 42.4064 34.1922 42.5994 34.3262C42.7276 34.2659 42.7692 33.8955 42.9527 33.9641C43.6831 34.2125 44.4409 35.4041 44.7058 35.9074C45 36.4039 45.0937 36.5504 45.2059 36.8674C45.3883 37.4465 45.5118 37.1451 45.7576 37.4513C45.9934 37.7623 45.3676 37.7829 45.2658 37.8727C45.1622 37.96 45.3049 37.9705 45.2589 38.0518C45.2126 38.1322 45.0868 38.0312 45.1088 38.1776C45.1194 38.2494 45.2061 38.3622 45.3069 38.4647C45.3069 38.4646 45.3069 38.4646 45.3069 38.4646C45.3145 38.4715 45.3216 38.4764 45.3292 38.4831C45.3368 38.4895 45.3444 38.4961 45.3521 38.5028C45.3599 38.5097 45.3678 38.5167 45.3756 38.5237C45.3837 38.531 45.3918 38.5383 45.3998 38.5456C45.4083 38.5533 45.4166 38.5609 45.4249 38.5685C45.4338 38.5768 45.4425 38.5843 45.4512 38.5924C45.4512 38.5924 45.4512 38.5925 45.4512 38.5925C45.4961 38.6366 45.5393 38.6682 45.5742 38.6779C45.8657 38.7585 46.1418 38.5465 46.0777 38.9471C46.0738 38.97 45.9119 38.9135 45.9046 39.0004C45.8517 39.69 45.8974 40.4037 45.8084 41.0882C45.7958 41.1823 45.6208 41.1027 45.6115 41.1571C45.5087 41.7149 45.7972 41.5152 46.1195 41.8339C45.6878 41.7587 45.4268 41.9245 45.4049 42.3432C45.3894 42.5959 45.5794 42.5633 45.6999 42.7389C45.7364 42.791 45.5911 42.9634 45.6757 43.0045C45.9514 43.1436 46.297 43.0022 46.1128 43.4455C46.1041 43.4645 45.9552 43.3809 45.9367 43.4478C45.876 43.6628 45.9132 43.7957 45.9614 43.9363C46.0095 44.0786 46.0694 44.2296 46.0313 44.4801C45.9767 44.8721 45.5941 45.4885 45.3945 45.8758C44.949 45.6882 44.9004 46.0834 45.1229 46.3821C44.9842 46.6343 44.8539 46.907 44.6684 47.118C44.6048 47.1901 44.5189 47.0625 44.4996 47.0647C44.2039 47.088 44.4118 47.3601 44.3866 47.4198C44.1371 47.9805 43.6644 48.2428 43.3976 48.7326C43.3693 48.7832 43.3423 48.8368 43.317 48.8939C43.3092 48.914 43.5163 49.185 43.2266 49.1244C43.2076 49.1192 43.2444 48.8692 43.0302 49.0612C42.8104 49.2594 42.2869 49.4824 42.0684 49.8533C42.0124 49.9466 41.9867 50.3138 41.6991 50.2609C41.6607 50.2533 41.626 50.1587 41.5637 50.1379C41.3648 50.0718 41.5102 50.3874 41.2228 50.237C40.9255 50.0931 40.591 50.0642 40.3627 50.45C40.3554 50.4616 40.4217 50.7403 40.3094 50.8062C40.1385 50.9061 39.872 51.0027 39.69 51.1117C39.6032 51.1639 39.7439 51.2756 39.7303 51.2871C39.4567 51.4994 39.2297 51.6136 38.9609 51.7249C38.6698 51.8448 38.3675 51.9391 38.0222 52.0747C37.9038 52.1211 37.6465 52.5025 37.342 52.4462C37.0072 52.3848 36.9179 51.5203 36.4251 51.9631C36.2217 52.1418 36.3434 53.2315 35.7027 52.9173C35.1433 53.2568 34.5844 53.3708 33.9996 53.5881C33.7306 53.688 33.5038 53.7899 33.2594 53.9444C33.2246 53.9665 33.2053 54.2847 33.1127 54.3147C32.9753 54.3586 32.8535 54.2581 32.7529 54.2853C32.3218 54.3987 32.0195 54.6296 31.6159 54.7508C31.4645 54.7963 31.4709 54.6451 31.2894 54.6993C31.1102 54.7526 31.0387 54.973 30.7821 54.965C30.583 54.9599 30.2851 54.6599 30.032 54.6968C30.1397 55.0549 29.9734 55.1019 29.7046 55.2928C29.6528 55.3297 29.7548 55.4335 29.7323 55.4573C29.6424 55.557 29.5034 55.4884 29.4225 55.591C29.4033 55.6156 29.4411 55.7375 29.4276 55.7645C29.3813 55.8597 29.2922 55.8858 29.1982 55.881C29.0616 55.8741 28.9151 55.8019 28.877 55.7828C28.6312 55.661 28.5918 55.8473 28.4226 55.8216C28.2536 55.7957 28.4454 55.6383 28.2605 55.6482C27.8718 55.6705 27.425 55.8281 27.0723 55.9275C26.9299 55.9685 27.0756 56.1028 27.0564 56.1125C26.7744 56.242 26.4202 56.1574 26.348 56.5323C25.8955 55.75 26.1789 56.6707 25.7149 56.622C25.678 56.6179 25.5216 56.231 25.6302 56.1363C25.7337 56.043 25.9725 56.1088 26.1265 55.9647C26.1636 55.9307 26.2976 55.4859 26.3235 55.4536C26.5294 55.2007 26.7415 55.7846 26.7651 55.8131C27.0249 56.1195 27.1956 55.6307 27.2624 55.5802C27.5582 55.3523 27.9101 55.3357 28.174 55.1546C28.3498 55.0359 28.2471 54.6422 28.4008 54.6071C28.5455 54.5739 28.6758 54.5892 28.7959 54.6141C29.094 54.6786 29.3459 54.7986 29.5795 54.3523C29.6486 54.2194 29.4109 53.8303 29.8804 54.0434C29.9099 54.057 30.2771 54.2718 30.3641 54.0294C30.375 53.9988 30.3332 53.8763 30.3547 53.8576C30.4993 53.7348 30.6419 53.7954 30.8191 53.6826C30.993 53.571 31.1936 53.4237 31.418 53.3914C31.5533 53.3718 31.7945 53.5421 31.8742 53.5764C32.0993 53.6768 32.1863 53.349 32.3683 53.5019C32.549 53.6564 32.4412 54.0303 32.7759 54.0505C32.6709 53.7309 32.5765 53.3979 32.4767 53.0743C32.8782 52.9348 33.2565 52.8421 33.661 52.7164C33.8917 52.6447 34.1168 52.5675 34.3329 52.4747C34.4061 52.4428 34.2629 52.3057 34.3394 52.2672C34.647 52.1118 35.0189 52.097 35.3394 51.9038C35.5916 51.7515 35.7941 51.4535 36.0605 51.2795C36.3946 51.5509 36.7369 51.2484 37.0489 51.1354C37.1593 51.0953 37.1973 51.191 37.2864 51.1846C37.6197 51.158 37.3373 50.9182 37.3887 50.8329C37.6061 50.4669 37.9656 51.1486 38.3526 50.9217C38.362 50.9163 38.379 50.8031 38.3948 50.6815C38.4127 50.5455 38.4287 50.399 38.4393 50.3778C38.5639 50.1182 38.5429 50.4838 38.6863 50.4385C38.9399 50.3593 39.1745 50.3374 39.3814 50.0721C39.4458 49.9917 39.4865 49.6668 39.7494 49.7334C39.7837 49.7423 39.8455 49.8637 39.8662 49.8599C40.2343 49.7798 40.0044 49.4189 40.0799 49.1938C40.1466 48.9749 40.5693 49.0335 40.6661 49.0669C40.9247 49.149 40.6226 49.2151 40.6272 49.2375C40.6918 49.5063 40.8502 49.3393 40.9969 49.256C41.2671 49.5763 41.4422 49.411 41.1473 49.1682C41.1153 49.1417 41.0357 49.251 40.9969 49.256C40.8686 48.8401 41.0288 48.6523 41.4924 48.7659C41.7082 48.8187 41.7499 49.0617 42.0069 48.7373C42.1263 48.5848 41.8799 48.4195 41.9453 48.2533C42.0266 48.0443 42.2068 47.9208 42.4036 47.7818C42.5618 47.671 42.713 47.5687 42.8096 47.4263C42.885 47.3135 42.6804 47.3118 42.7265 47.2322C42.8455 47.0226 43.0618 46.9356 43.1522 46.703C43.1596 46.6825 42.9955 46.6295 43.0348 46.5696C43.3241 46.1169 43.6443 45.7593 43.865 45.2358C43.9744 44.9836 44.0405 44.4912 44.1238 44.2201C44.1813 44.0411 44.2666 43.8464 44.3469 43.6483C44.4785 43.3228 44.5961 42.9845 44.5829 42.7006C44.5679 42.4069 44.3974 42.4596 44.2928 42.3299C44.09 42.0821 44.4854 41.6712 44.5448 41.6046C44.5473 41.6031 44.5835 41.8615 44.6695 41.7246C44.8466 41.645 44.5455 41.6072 44.5448 41.6046C44.586 41.5639 44.6161 41.0514 44.5788 40.9442C44.5596 40.888 44.4046 40.9253 44.3975 40.8961C44.2327 40.2185 44.1348 39.5269 44.1297 38.7849C44.1315 38.7715 44.3073 38.7727 44.3092 38.7414C44.3099 38.7324 44.3104 38.7234 44.3108 38.7145C44.3108 38.7145 44.3108 38.7145 44.3108 38.7145C44.3119 38.7115 44.3147 38.7228 44.3159 38.7223C44.3174 38.7244 44.3188 38.7262 44.32 38.7279C44.3213 38.7295 44.3224 38.731 44.3234 38.7326C44.3244 38.7342 44.3253 38.7358 44.3261 38.7377C44.3269 38.7395 44.3277 38.7417 44.3284 38.7442C44.3284 38.7441 44.3318 38.7561 44.3309 38.7536C44.3309 38.7535 44.3309 38.7536 44.3309 38.7536C44.2341 38.4532 43.999 38.2925 43.8027 38.0914C43.5708 37.8604 43.5039 37.6348 43.6942 37.355C43.554 37.1708 43.5181 36.8612 43.4753 36.659C43.4363 36.4622 43.1422 36.64 43.1286 36.6322C42.6842 36.4043 42.6386 36.0617 42.2729 35.6962C42.1007 35.52 41.674 35.2674 41.4251 35.1636C41.3271 35.1209 41.2601 35.0673 41.1918 35.0175C41.1244 34.9685 41.0556 34.9233 40.956 34.9006C40.929 34.8944 40.8841 35.0415 40.8741 35.0429C40.5997 35.1078 40.856 34.8227 40.8438 34.7427C40.7973 34.4543 40.7474 34.2879 40.4248 34.279C40.3474 34.2754 39.974 34.7035 39.8529 34.6951C39.6948 34.6828 39.811 34.52 39.64 34.5135C39.6253 34.513 39.5929 34.6259 39.498 34.5915C39.0491 34.4313 38.5571 34.2508 38.0382 34.1812C37.9677 34.1714 38.0287 34.3699 37.9273 34.3592C37.4723 34.3116 36.9345 34.2533 36.4777 34.1429C36.3627 34.115 36.4418 33.9879 36.4184 33.9478C36.304 33.7577 36.1307 33.9214 36.0455 34.0046C36.0218 34.0275 36.0045 34.0443 35.9964 34.0455C35.1255 34.1912 34.4294 33.9079 33.5221 34.1285C33.4681 34.1411 33.1276 34.5398 32.9255 34.2461C32.9124 34.2264 32.7073 33.9249 32.5811 34.1609C32.5735 34.1757 32.6981 34.3276 32.5119 34.3325C32.3248 34.3376 32.0419 34.4853 31.7659 34.3411C31.6787 34.2957 31.44 34.006 31.2372 34.2965C31.2229 34.3163 30.9461 34.9463 30.7494 34.5761C30.7171 34.5153 30.6679 34.0948 30.4179 34.3587C30.3776 34.4022 30.4553 34.4627 30.3975 34.5313C30.3873 34.5434 30.3728 34.5558 30.3528 34.5684C30.1492 34.6972 29.8348 34.6418 29.6 34.8807C29.5586 34.9229 29.4175 35.2437 29.2129 35.0647C29.1807 35.0367 29.1996 34.8888 29.1113 34.8913C28.6905 34.9031 28.287 35.0908 27.854 35.0941C27.7004 35.0957 27.7217 34.8563 27.5548 34.834C27.3878 34.8116 27.0656 34.8315 26.9323 34.9733C26.7991 35.1149 27.063 35.4217 26.8327 35.5112C26.1658 35.7717 25.4699 35.8969 24.7699 36.0386C24.4268 36.1075 24.0715 36.184 23.7299 36.28C23.5773 36.323 23.7412 36.4075 23.5201 36.4799C22.6979 36.7464 21.3271 37.342 20.5297 37.3375C19.8828 37.3352 20.5455 36.9179 20.078 36.9907C19.8523 37.0266 19.7747 37.5045 19.7303 37.535C19.5307 37.6731 19.3298 37.7429 19.1412 37.7943C18.9063 37.8588 18.6936 37.894 18.4533 38.0196C18.3642 38.0664 18.5168 38.1911 18.4405 38.2291C18.18 38.3607 17.8813 38.3947 17.6374 38.5053C17.5224 38.5575 17.5917 38.6706 17.4814 38.7032C17.2173 38.7828 16.9857 38.8158 16.6995 38.7985C16.6722 38.7974 16.7683 38.5839 16.573 38.6556C16.2467 38.7763 15.8783 38.7952 15.5492 39.0642C15.461 39.1408 15.5675 39.4197 15.2778 39.3156C15.2118 39.2961 15.1533 38.9326 14.9954 39.3322C14.9533 39.405 14.7189 39.9531 14.3691 39.805C14.2826 39.7638 14.0275 39.5509 13.9316 39.6392C13.9151 39.6537 14.0501 39.7723 13.9399 39.8334C13.8077 39.905 13.6852 39.9637 13.5768 40.0126C13.1225 40.7201 10.7812 39.5597 10.8764 38.8701C10.7563 38.6088 10.7589 39.0763 10.5936 38.6773C10.2725 37.7616 10.3437 37.1831 10.3747 36.6604C10.3929 36.4656 10.5312 36.5998 10.5461 36.5854C10.7887 36.3509 10.463 36.2651 10.445 36.1898C10.3383 35.7936 10.5138 35.4095 10.4959 35.079C10.4921 34.9781 10.331 35.038 10.3184 35.0171C10.1977 34.7976 10.4666 34.9745 10.5075 34.8441C10.6237 34.4751 10.6528 34.0403 10.6707 33.6876C10.6778 33.5516 10.4808 33.6843 10.4894 33.5619C10.5225 33.0698 10.5836 32.5842 10.6778 32.1199C10.7267 31.878 10.7861 31.6294 10.8542 31.3948C10.8915 31.2712 11.0184 31.3707 11.0538 31.349C11.3009 31.2005 11.0398 30.8859 11.0207 30.8182C10.9329 30.5128 11.0726 30.4188 11.0902 30.1578C11.1684 28.9156 11.5155 27.4148 11.7803 26.2711C11.8404 26.0111 11.9015 25.7599 11.9628 25.5147C12.2476 24.3768 12.5282 23.3983 12.7368 22.2318C12.7532 22.1413 12.5525 22.195 12.5643 22.1165C12.727 21.0963 13.0029 20.1351 13.1657 19.1173C13.1793 19.0342 12.9815 19.1159 12.9976 18.9812C12.9999 18.9607 13.0026 18.9398 13.0055 18.9186C13.0419 18.6546 13.1212 18.3443 13.227 18.1021C13.2824 17.9745 13.3915 18.1854 13.4443 18.0564C13.5674 17.7563 13.6528 17.4237 13.6959 17.0959C13.7138 16.9565 13.4923 17.1242 13.5293 16.9459C13.7767 15.7371 14.0138 14.5378 14.5193 13.3712C14.5541 13.2909 14.9282 13.2988 14.9002 13.1057C14.8041 13.0696 14.6873 13.0437 14.5827 13.0136C14.6177 12.834 14.6544 12.6557 14.6926 12.4787C15.0351 10.8929 15.5 9.36698 15.8948 7.78743C15.913 7.71444 15.694 7.79578 15.7282 7.65435C15.8579 7.11934 15.9774 6.51916 16.1489 5.99536C16.2296 5.75053 16.3383 5.45725 16.4649 5.20155C16.5037 5.12204 16.8254 5.24445 16.8348 4.9874C16.8369 4.93867 16.8789 4.57414 16.8318 4.45443C16.8243 4.4381 16.652 4.47146 16.6782 4.34457C16.8279 3.62943 17.0469 2.89252 17.3066 2.25006C17.3511 2.13726 17.4846 2.30451 17.5184 2.22179C17.7528 1.65166 17.7805 1.00845 18.0657 0.507666C18.2608 0.158761 18.5051 0.390133 18.8348 0.265157C18.8865 0.226666 18.9491 0.00670985 19.1108 0.0527984C19.5266 0.133059 19.9531 0.333973 20.3989 0.409089C20.4893 0.447281 20.4624 0.129972 20.6548 0.324352C20.6485 0.412324 20.6949 0.546064 20.7497 0.653708C20.7923 0.709421 20.9775 0.674425 21.0235 0.779607C21.0628 0.910782 20.9159 0.907466 20.963 1.05853C21.0121 1.20629 21.2172 1.18849 21.1685 1.47604ZM43.2329 35.7744C43.2244 35.5244 42.7755 35.9207 43.0088 35.9616C43.0206 35.9632 43.2333 35.7868 43.2329 35.7744ZM33.8887 53.1518C34.2376 53.299 34.2627 52.8711 34.0136 52.7507C33.7651 52.6299 33.7829 53.1071 33.8887 53.1518ZM31.363 54.2827C31.7286 54.3759 31.4937 53.5593 31.2352 53.8309C31.22 53.8464 31.3417 54.2773 31.363 54.2827ZM18.693 1.16476C18.7017 1.16274 18.748 1.01011 18.7409 1.00587C18.5774 0.877108 18.4851 1.18137 18.693 1.16476ZM28.8136 55.3451C28.8758 55.3845 28.9617 55.3539 29.014 55.3008C29.0683 55.2457 29.0867 55.1664 29.007 55.1155C28.9893 55.1042 28.9697 55.0987 28.9495 55.0977C28.826 55.0918 28.678 55.2592 28.8136 55.3451ZM33.8098 32.5552C33.806 32.5465 33.6866 32.5469 33.6927 32.5971C33.7127 32.7582 33.8734 32.701 33.8098 32.5552ZM24.318 56.6875C25.0024 56.5287 25.5948 57.0877 24.8448 57.2184C24.7083 57.2421 25.0698 56.9226 24.8839 56.9095C24.5445 56.8858 24.4558 57.3676 24.0702 57.23C24.001 57.2045 24.2793 56.695 24.3189 56.6862C24.3186 56.6867 24.3183 56.6871 24.318 56.6875ZM43.6846 35.2044C43.688 35.1956 43.5787 35.0711 43.57 35.0741C43.3745 35.1446 43.5879 35.3881 43.6846 35.2044ZM26.8862 33.348C26.8731 33.3335 26.4967 33.4124 26.4886 33.4309C26.3725 33.7804 27.1292 33.6227 26.8862 33.348ZM45.3799 45.8772C45.4843 46.1267 45.4058 46.3521 45.1235 46.3815C45.2177 46.2183 45.2963 46.049 45.3799 45.8772Z" fill="black"/>
</svg>
