<svg width="52" height="58" viewBox="0 0 52 58" fill="none" xmlns="http://www.w3.org/2000/svg">
<path d="M6.5283 20.2798C7.37066 20.0612 8.45952 19.9064 9.31627 19.8194C9.57833 19.7931 9.46759 19.9224 9.6518 19.9085C9.70682 19.9043 9.76122 19.8981 9.81528 19.8904C10.13 19.845 10.3787 19.7658 10.6902 19.7488C10.81 19.743 10.6961 19.9357 10.8212 19.9258C11.4936 19.8732 12.1341 19.7084 12.7985 19.6198C13.3981 19.5384 13.9566 19.4619 14.5498 19.3768C16.1146 19.154 17.6746 18.9169 19.2434 18.6788C20.4229 18.4998 21.605 18.3206 22.8055 18.1466C23.1571 18.0958 23.5553 18.0512 23.9479 18.0101C24.7859 17.9216 25.6648 17.8381 26.4417 17.674C26.5731 17.646 26.4719 17.5123 26.4953 17.4965C26.8686 17.2519 26.7834 17.5657 27.053 17.5654C27.5728 17.5665 28.1463 17.5268 28.6775 17.4708C29.2492 17.4095 29.7696 17.3322 30.2922 17.243C30.7142 17.1706 30.2447 16.9282 30.7091 17.0426C30.7417 17.0503 30.6442 17.2181 30.7693 17.2216C31.0516 17.2285 31.548 17.1539 31.7747 17.1497C32.1481 17.1469 32.2871 17.1357 32.6662 17.1249C32.9851 17.1202 33.302 17.1365 33.6377 17.2057C35.0993 17.5683 34.2617 18.9413 34.2967 19.0035C34.2332 19.1632 34.4798 19.0141 34.3831 19.2821C34.268 19.5822 34.0238 19.9542 33.8642 20.1299C33.721 20.2808 33.6685 20.1298 33.6247 20.1441C33.3038 20.1932 33.232 20.8822 33.1826 20.9621C32.4856 22.1631 31.574 22.9792 30.7823 23.9412C30.4428 24.3521 30.1506 24.727 29.8282 25.1314C29.5254 25.5113 29.2169 25.8917 28.9334 26.2146C28.1981 27.0514 27.5421 27.6696 26.835 28.4943C26.7601 28.5813 26.9906 28.6052 26.8993 28.7118C26.1361 29.6036 25.3134 30.5094 24.4707 31.3343C24.2862 31.5153 24.0979 31.6958 23.9071 31.8737C23.8014 31.9716 23.8023 31.7233 23.6893 31.8145C23.0044 32.3714 21.8006 33.2115 21.9882 34.0766C21.5645 34.5005 21.046 35.0259 20.5768 35.3237C20.2743 35.516 20.368 35.1461 20.1378 35.512C20.0856 35.5944 20.2865 35.6089 20.1995 35.7245C19.8332 36.2106 19.3454 36.6668 19 37.1639C18.9299 37.2653 19.0567 37.3365 19.0521 37.3793C19.0492 37.4028 19.0438 37.4254 19.0364 37.447C18.9326 37.7497 18.4226 37.8629 18.3389 37.9196C17.6603 38.3845 17.3139 38.8683 16.8037 39.4153C16.6853 39.5421 16.9642 39.5202 16.8552 39.6469C16.2934 40.2967 15.6625 40.9564 15.0293 41.5179C14.8878 41.6429 14.8859 41.4061 14.8122 41.4602C14.4894 41.6991 14.6547 41.9711 14.3445 42.2096C14.2796 42.2599 14.2087 42.1323 14.1875 42.1328C13.8549 42.1405 13.9683 42.5172 13.9336 42.5657C13.7256 42.8635 13.4838 43.0423 13.2392 43.2097C12.98 43.3853 12.7006 43.5659 12.4657 43.8587C12.4115 43.9268 12.6731 43.9021 12.513 44.0861C11.4583 45.3002 10.2685 46.5195 9.07602 47.6124C8.89537 47.7775 8.91574 47.5602 8.89339 47.5605C8.53892 47.5714 8.67828 47.9231 8.62988 47.9949C8.29647 48.4802 7.78112 48.7262 7.68152 49.1804C7.66843 49.2391 7.66352 49.2997 7.66403 49.3676C5.78808 51.1592 3.98155 53.7379 2.41774 54.7939C2.38994 54.7203 2.3285 54.5879 2.26906 54.5701C2.22553 54.5462 2.20585 54.7591 2.17813 54.7344C2.61665 54.593 2.541 54.3355 2.74756 53.8175C2.84029 53.6604 3.34733 53.7763 3.40793 53.7677C3.57841 53.7748 3.6068 54.0597 3.65557 54.0499C4.0726 53.948 3.52403 53.3272 3.92266 53.0375C3.93611 53.0294 3.97246 53.1907 4.01526 53.1782C4.14877 53.1394 4.22089 53.0117 4.36107 52.9731C4.65938 52.9028 4.97424 53.1684 5.20117 52.7067C5.22554 52.6504 4.88876 52.3192 5.24899 52.0748C5.37204 51.9929 5.92056 51.5681 6.15446 51.4164C6.17612 51.4024 6.19534 51.3906 6.21155 51.3814C6.40153 51.274 6.37541 51.4839 6.39157 51.4797C6.98068 51.2788 6.85449 51.4796 7.27366 51.5294C7.69451 51.5761 7.20409 51.069 7.24878 50.9357C7.29375 50.8025 7.73577 50.6686 7.85694 50.6469C7.97712 50.6262 7.92947 50.7842 8.02509 50.7511C8.66136 50.5255 8.03449 50.3036 8.13416 50.0855C8.35464 49.5809 8.9733 49.7584 9.3665 49.517C9.47289 49.4516 9.32019 49.4204 9.40074 49.3437C9.70807 49.0509 10.01 49.0213 10.3074 48.6012C10.3431 48.55 10.4279 48.2501 10.6079 48.1257C10.6661 48.0853 10.7353 48.0616 10.8176 48.0676C10.8664 48.0715 10.8652 48.2367 11.0267 48.1476C11.2675 48.0153 11.6773 47.7321 11.8836 47.5169C12.0339 47.3594 11.7078 47.3425 11.9628 47.2282C12.0763 47.1774 11.9762 47.4135 12.1832 47.3098C12.3889 47.2071 12.8447 46.8462 13.018 46.7063C13.1901 46.5673 12.995 46.5136 13.0026 46.494C13.0488 46.379 13.3346 46.0588 13.3644 46.036C13.9224 45.5945 14.491 45.1989 15.0568 44.8156C15.9932 44.181 16.9238 43.5781 17.8034 42.846C17.9137 42.7545 17.7349 42.6753 17.7507 42.6599C18.1024 42.3064 18.0634 42.9033 18.4319 42.817C18.1839 42.5698 18.3862 42.4965 18.6421 42.2582C18.7652 42.1434 18.612 42.0902 18.616 42.0701C18.6934 41.7583 18.9881 41.8676 19.0555 41.8846C19.3016 41.9488 19.3118 41.6502 19.4807 41.6902C19.6397 41.7267 19.5662 42.0043 19.7815 41.8687C19.7949 41.8603 19.8094 41.8503 19.8251 41.8385C19.8273 41.6829 19.4345 41.5695 19.6086 41.3762C20.2513 40.6532 21.8666 39.8077 22.5093 39.3995C23.1639 38.9792 23.3577 38.8229 23.7457 38.6178C23.9331 38.5178 24.0462 38.4438 24.1186 38.381C24.3329 38.1952 24.1893 38.1022 24.4552 37.8342C24.8307 37.4665 24.9358 38.1006 25.0651 38.1693C25.1943 38.2384 25.1921 38.0857 25.3043 38.0986C25.4156 38.1121 25.2997 38.285 25.4884 38.1998C25.6694 38.1176 26.0348 37.6395 26.0424 37.4838C26.038 37.1632 25.6729 37.0262 26.2005 36.853C26.2302 36.8439 26.2179 37.0277 26.3275 36.9861C27.1448 36.8337 28.3988 35.6415 29.1217 36.9459C29.1208 36.9695 29.1156 36.9873 29.1079 37C29.0619 37.0549 28.9338 36.9834 28.9246 37.0444C28.8072 37.8341 29.1004 37.5527 29.4163 37.9991C28.9869 37.8909 28.7189 38.1302 28.6983 38.7276C28.6849 39.103 28.8756 39.0308 29.0005 39.2728C29.0383 39.342 28.8996 39.6059 28.9867 39.65C29.2705 39.8132 29.6037 39.5774 29.452 40.2014C29.4519 40.2017 29.4519 40.2019 29.4518 40.2022C29.4493 40.212 29.4283 40.2065 29.4017 40.1995C29.3667 40.1904 29.3219 40.1787 29.2961 40.1956C29.2859 40.2023 29.2787 40.2136 29.2763 40.2313C29.1907 40.8314 29.4903 40.9233 29.501 41.5835C29.5085 42.0382 29.3364 42.8046 29.2594 43.3821C29.2492 43.4578 29.2407 43.5305 29.2345 43.599C28.7503 43.5668 28.8392 44.1298 29.1648 44.3661C29.1363 44.7491 29.1396 45.1594 29.0798 45.5277C29.0594 45.6543 28.9221 45.5656 28.9063 45.5811C28.6594 45.8178 28.9787 45.9956 28.9885 46.0783C29.0055 46.2439 29.0102 46.403 29.0079 46.5589C28.9978 47.2447 28.8508 47.8521 29.0283 48.5535C29.0362 48.5842 29.3717 48.6408 29.1198 48.8617C29.1025 48.8758 28.9565 48.589 28.9344 48.9921C28.924 49.1839 28.8745 49.4455 28.8408 49.7375C28.8033 50.0627 28.7861 50.4049 28.8645 50.7038C28.9002 50.8379 29.1698 51.1792 28.9545 51.4521C28.9252 51.4881 28.8288 51.448 28.7747 51.4998C28.6025 51.6673 28.9427 51.7579 28.6533 51.9619C28.4034 52.1349 28.2076 52.4706 28.2946 52.9217C28.3083 52.9896 28.329 53.0643 28.3578 53.1433C28.364 53.1617 28.6365 53.2932 28.6371 53.4652C28.6379 53.753 28.5972 54.139 28.6197 54.4448C28.63 54.5811 28.7912 54.4819 28.7959 54.5054C28.8864 55.0274 28.94 55.6681 29.0053 55.8591C29.2977 55.8904 29.6762 55.9278 30.0485 55.9527C30.2394 55.9649 30.7908 55.7363 31.1315 55.9171C31.5394 56.1149 31.1208 56.9378 32.0366 56.7418C32.2214 56.7027 32.4166 56.4243 32.6663 56.2213C32.9256 56.0166 33.1837 55.8886 33.526 56.1602C34.4873 56.0593 35.4032 56.1914 36.3377 56.181C36.6443 56.1776 36.952 56.1589 37.2722 56.1116C37.3319 56.1032 37.5119 55.8118 37.6472 55.8157C37.8478 55.8222 37.9585 55.9584 38.1027 55.9674C38.7054 56.0084 39.2574 55.8919 39.8377 55.91C39.9303 55.9127 39.9704 55.9392 40.0053 55.9695C40.0534 56.0114 40.0916 56.0607 40.244 56.0653C40.5067 56.073 40.683 55.8876 41.0387 55.9771C41.3061 56.0454 41.5773 56.4244 41.9343 56.4686C41.9491 56.0947 42.1897 56.1024 42.6289 56.0037C42.713 55.9846 42.6228 55.8545 42.6626 55.8387C42.8246 55.7716 42.9738 55.8795 43.126 55.8065C43.163 55.7889 43.1647 55.6613 43.1949 55.6397C43.3296 55.5393 43.5205 55.5744 43.6752 55.6365C43.8109 55.6907 43.9214 55.7656 43.9554 55.7889C44.234 55.9788 44.3639 55.8127 44.583 55.8875C44.7993 55.9623 44.4761 56.0558 44.7284 56.1011C45.2383 56.195 45.9186 56.1744 46.4481 56.1802C46.6595 56.1818 46.5153 56.0114 46.5455 56.0076C46.8227 55.9796 47.1129 56.0461 47.3461 56.0034C47.4711 55.9804 47.578 55.9254 47.66 55.8062C47.967 56.684 47.9321 55.7211 48.5504 55.8968C48.6008 55.911 48.6664 56.3261 48.4702 56.387C48.2832 56.4479 48.0081 56.3182 47.7327 56.4132C47.6835 56.4304 47.4683 56.6681 47.3461 56.785C47.3111 56.8189 47.2846 56.8427 47.2737 56.848C46.8854 57.0321 46.8367 56.4118 46.8166 56.3778C46.5977 56.0101 46.1522 56.4291 46.0396 56.4581C45.5266 56.5907 45.0708 56.5035 44.6389 56.5982C44.351 56.6594 44.3196 57.0657 44.0992 57.0533C43.9395 57.0444 43.801 57.011 43.6752 56.9691C43.2133 56.8168 42.9462 56.5515 42.3874 56.9368C42.2371 57.0417 42.3876 57.4857 41.848 57.1365C41.815 57.1145 41.4101 56.7951 41.1803 56.9971C41.1512 57.0226 41.1522 57.152 41.1139 57.1629C40.857 57.2332 40.6852 57.1301 40.4044 57.1795C40.2803 57.2014 40.1452 57.228 40.0053 57.247C39.8292 57.271 39.6455 57.2831 39.4674 57.2586C39.2747 57.2324 39.0263 56.9912 38.9341 56.9322C38.6727 56.7621 38.3964 57.041 38.2329 56.835C38.0694 56.6281 38.3888 56.3137 37.9605 56.18C37.9447 56.5162 37.9083 56.8614 37.8829 57.1995C37.3707 57.193 36.846 57.1567 36.3377 57.1281C35.9131 57.1052 35.5175 57.0872 35.086 57.0938C34.9694 57.096 35.0885 57.2768 34.9637 57.2838C34.4473 57.3125 33.9749 57.1836 33.4313 57.2349C33.1782 57.2584 32.9401 57.3328 32.6663 57.4004C32.4743 57.4493 32.287 57.4947 32.1092 57.515C31.8252 57.1302 31.1739 57.2608 30.7031 57.2257C30.529 57.2135 30.5417 57.1107 30.424 57.0772C29.9884 56.9532 30.1841 57.2932 30.0628 57.3467C29.5856 57.5589 29.4921 56.91 29.0052 56.8318C28.8287 56.8565 28.4881 56.7553 28.3848 56.6219C28.0818 56.4185 27.5201 55.7018 27.5057 55.7294C27.2617 55.2987 27.6294 55.6208 27.6197 55.3583C27.6146 54.8878 27.6943 54.6003 27.5481 54.1063C27.5058 53.9794 27.236 53.6177 27.4279 53.3534C27.4529 53.3166 27.589 53.3333 27.5962 53.3041C27.6342 53.1373 27.6181 53.0138 27.5735 52.9328C27.4771 52.7468 27.2461 52.6783 27.1458 52.4698C26.999 52.1787 27.294 51.7053 27.3794 51.619C27.5997 51.3813 27.4723 51.7994 27.494 51.8189C27.7499 51.9757 27.706 51.6392 27.7295 51.3892C28.1473 51.3563 28.1255 50.9974 27.7524 51.1238C27.7116 51.1387 27.7489 51.3388 27.7295 51.3892C27.3211 51.1577 27.2723 50.773 27.6624 50.3415C27.8455 50.1424 28.0507 50.3401 27.986 49.7269C27.9858 49.7245 27.9855 49.7222 27.9853 49.7199C27.9525 49.4468 27.6668 49.5476 27.5945 49.3037C27.4284 48.7362 27.7169 48.0196 27.6928 47.4447C27.6841 47.235 27.5203 47.4339 27.5089 47.2903C27.4869 47.0159 27.5477 46.7697 27.566 46.5093C27.5731 46.4081 27.5737 46.3051 27.5605 46.1982C27.5561 46.1636 27.3884 46.2419 27.3904 46.1236C27.4031 45.2269 27.5386 44.4511 27.5785 43.5178C27.5811 43.4563 27.5823 43.3882 27.5824 43.3155C27.5835 42.851 27.5441 42.1957 27.576 41.7924C27.6165 41.2718 27.7464 40.6767 27.8241 40.1408C27.8676 39.83 27.894 39.5703 27.8821 39.3103C27.8599 38.8621 27.6915 38.9611 27.5855 38.7594C27.3799 38.3871 27.785 37.7582 27.8464 37.6622C27.8487 37.6604 27.8793 38.0443 27.9683 37.8445C28.1472 37.7231 27.847 37.6666 27.8464 37.6622C27.8734 37.6273 27.9057 37.2611 27.9095 37C27.9051 36.9233 27.8658 37.0615 27.8854 37.1442C27.9202 37.3025 27.7497 37.2973 27.7962 37.4001C29.4372 38.2209 27.2445 38.2166 26.7073 38.7715C26.6902 38.7777 26.6265 38.6127 26.587 38.6295C26.0417 38.8567 25.8352 39.2383 25.4908 39.6078C25.3736 39.7364 25.2526 39.843 25.1263 39.9234C24.8997 40.0674 24.6481 40.1311 24.3965 40.0675C24.1218 40.2965 23.5836 40.5043 23.2924 40.609C22.9971 40.7161 23.1555 41.0209 23.1376 41.0415C22.5499 41.7169 22.0691 41.8221 21.3199 42.3284C21.1255 42.4592 20.8349 42.6866 20.5538 42.9173C20.3392 43.0933 20.1339 43.2681 19.9886 43.396C19.7198 43.633 19.4981 43.699 19.2612 43.94C19.2291 43.9725 19.3564 44.0663 19.3489 44.0793C19.1588 44.4482 19.0801 44.0445 18.9787 44.038C18.6145 44.0109 18.4012 44.0109 18.09 44.3878C18.018 44.4747 18.0845 45.0929 17.9435 45.2392C17.7618 45.4269 17.7238 45.2158 17.5362 45.4168C17.52 45.4338 17.5953 45.5246 17.459 45.622C17.0906 45.8863 16.6907 46.1561 16.2989 46.4326C16.0183 46.6306 15.7398 46.8337 15.4757 47.0436C15.3888 47.1121 15.6154 47.1734 15.4916 47.275C14.9079 47.7534 14.2596 48.2472 13.6231 48.631C13.4674 48.724 13.4762 48.5513 13.4215 48.5446C13.0875 48.5063 13.0303 48.9837 12.9905 49.0229C12.6502 49.3608 12.3072 49.6269 11.9657 49.8689C11.3198 50.3279 10.6945 50.693 10.0364 51.3256C9.97905 51.3812 9.76493 52.0114 9.36129 51.9268C9.3342 51.9213 8.93296 51.8258 8.89047 52.1365C8.88796 52.1558 9.1139 52.1902 8.88597 52.3453C8.66279 52.4967 8.37629 52.8575 7.95859 52.9492C7.86111 52.9703 7.60206 52.9305 7.42807 53.0799C7.36767 53.1316 7.32317 53.2006 7.28356 53.3125C7.2735 53.3428 7.17145 54.1472 6.77825 53.9443C6.71085 53.9129 6.49221 53.5498 6.27495 53.9844C6.23181 54.0693 6.41213 54.0515 6.26791 54.2334C6.03867 54.5185 5.66047 54.6596 5.40514 55.0787C5.36058 55.1524 5.29776 55.5524 4.95811 55.5271C4.90435 55.5236 4.8869 55.3632 4.76381 55.4312C4.02515 55.7743 4.28125 56.0255 2.22919 56.734C1.64362 56.8988 0.881989 56.4772 0.76273 55.6208C0.676976 55.3941 0.543164 55.1428 0.597075 54.883C0.86733 54.0881 1.4111 53.6748 1.46156 53.3869C1.56901 53.08 1.06666 53.1304 1.34084 52.7386C2.24582 51.425 3.46844 50.3844 4.51448 49.2632C4.67688 49.0897 4.44928 49.1483 4.68184 48.8866C4.9959 48.5326 5.41931 48.0327 5.86826 47.5292C6.50798 46.8107 7.25457 46.0292 7.79873 45.6815C8.55054 45.1897 7.93224 46.1116 8.44967 45.6813C8.70003 45.4722 8.62999 44.9251 8.66711 44.8651C9.06746 44.2308 9.56508 43.9666 9.98708 43.4244C10.0715 43.3153 9.85437 43.2985 9.92769 43.2068C10.1771 42.8926 10.5218 42.6316 10.7764 42.3352C10.8904 42.2019 10.7725 42.137 10.8897 42.025C11.0738 41.8474 11.2557 41.693 11.4514 41.559C11.5541 41.4882 11.6624 41.4211 11.7794 41.3561C11.8106 41.3387 11.775 41.6168 11.9709 41.4136C12.287 41.0849 12.7662 40.7441 13.0342 40.27C13.112 40.1303 12.8966 39.9236 13.2753 39.8173C13.3547 39.7947 13.557 40.1041 13.5948 39.6064C13.6014 39.5234 13.7416 38.7555 14.1604 38.6986C14.2708 38.6834 14.6348 38.7215 14.7274 38.553C14.7393 38.5293 14.5523 38.4955 14.6461 38.3707C14.9789 37.9325 15.3822 37.5202 15.7288 37.0694C15.8212 36.9488 15.5465 37.0022 15.688 36.8261C16.0369 36.3913 16.5194 35.9115 16.9383 35.5207C16.9848 35.4773 17.0305 35.4351 17.0752 35.3941C17.2401 35.2432 17.2373 35.4495 17.2593 35.4477C17.6147 35.4202 17.477 35.0846 17.5215 35.0077C17.8012 34.533 18.1917 34.3349 18.4957 33.9421C18.5798 33.834 18.3989 33.7998 18.407 33.7703C18.4964 33.4703 18.5623 33.8149 18.7055 33.7042C19.1057 33.3964 19.4778 32.97 19.8027 32.5834C19.9222 32.441 19.6474 32.4731 19.7561 32.3467C20.3877 31.6063 21.1078 30.838 21.8164 30.2017C21.9507 30.0814 21.979 30.2588 22.0278 30.2524C22.3686 30.2081 22.4015 29.716 22.4383 29.6316C22.4519 29.6005 22.4657 29.5717 22.4797 29.5449C22.6393 29.2379 22.8207 29.1898 23.0197 28.9358C24.0874 27.5726 25.5517 26.0407 26.65 24.8458C27.0897 24.3678 27.4903 23.9406 27.8993 23.498C28.7762 22.5513 29.6071 21.6399 30.4139 20.5639C30.4914 20.4605 30.2637 20.4508 30.3302 20.358C31.4436 20.0661 30.9876 16.0939 33.2115 19.7624C33.191 19.7609 33.1624 19.7609 33.1282 19.7615C33.0571 19.763 33.1417 19.9414 33.0236 19.951C32.8056 19.9733 32.45 19.9784 32.0736 19.9503C31.8989 19.9364 32.1206 19.7677 31.9425 19.7571C31.5004 19.7354 31.0569 19.7688 30.6124 19.8483C30.4274 19.8822 30.7299 20.0286 30.487 20.059C29.9859 20.1232 29.5539 20.1852 29.056 20.2537C27.8546 20.4196 26.6504 20.5712 25.3889 20.6032C25.2684 20.6062 25.1069 20.2609 24.8638 20.3714C24.8609 20.4749 24.8811 20.5928 24.8901 20.7015C24.7247 20.7322 24.5667 20.761 24.4035 20.7901C22.8575 21.066 21.3012 21.2903 19.7478 21.5283C18.9853 21.6452 18.2166 21.7667 17.4545 21.8989C17.3492 21.9172 17.5661 22.0752 17.3617 22.1118C16.6112 22.2464 15.8764 22.4029 15.1301 22.5063C14.6983 22.5665 14.264 22.6093 13.8203 22.6213C13.696 22.6253 13.6937 22.2782 13.3497 22.3953C13.2864 22.4168 12.7752 22.5594 12.6497 22.6587C12.6328 22.6732 12.7607 22.8113 12.5879 22.8487C11.8954 22.997 11.1672 23.1226 10.4535 23.2157C10.139 23.2576 9.8636 23.2866 9.54873 23.3179C9.38295 23.3336 9.52381 23.1335 9.4058 23.1431C8.58884 23.2091 7.72305 23.5094 6.93358 23.5076C6.38833 23.5091 6.52694 23.1827 6.20686 22.9514C6.12832 22.9254 5.86388 22.9712 5.7814 22.8162C5.64625 22.4121 5.74647 21.9203 5.57975 21.494C5.51532 21.4078 5.14631 21.588 5.34842 21.3085C5.33165 21.2958 5.66133 21.1509 5.70778 21.0607C5.75351 20.9955 5.61745 20.8482 5.72105 20.7559C5.83866 20.6609 5.94599 20.7858 6.12693 20.6658C6.31479 20.5434 6.17139 20.3734 6.5283 20.2798ZM21.9447 41.1183C21.6181 41.151 21.9325 41.6616 22.099 41.3666C22.1066 41.3518 21.9613 41.1163 21.9447 41.1183ZM36.0307 56.6278C35.6512 56.3639 35.3983 56.7519 35.6614 56.9556C35.9258 57.1592 36.1468 56.7077 36.0307 56.6278ZM39.9575 56.4351C39.5152 56.2271 39.4457 57.0754 39.9193 56.9039C39.9469 56.8942 39.9834 56.4472 39.9575 56.4351ZM7.45488 22.6221C7.4465 22.6156 7.23309 22.6495 7.22292 22.6596C7.14732 22.868 7.58431 22.798 7.45488 22.6221ZM43.8544 56.2254C43.8115 56.1898 43.7436 56.178 43.6752 56.1829C43.5232 56.1939 43.3686 56.2874 43.4884 56.3858C43.5331 56.4226 43.6046 56.434 43.6752 56.4278C43.8252 56.4147 43.971 56.3224 43.8544 56.2254ZM9.5556 49.7398C9.54636 49.7357 9.40687 49.8341 9.4406 49.8717C9.54918 49.9929 9.70867 49.8107 9.5556 49.7398ZM50.4697 56.2156C49.5003 56.1837 48.907 55.483 49.971 55.5621C50.1644 55.5764 49.5538 55.7855 49.8018 55.8487C50.2364 55.9638 50.5638 55.5238 51.0042 55.7596C51.0711 55.8027 50.5542 56.219 50.4681 56.2166C50.4687 56.2163 50.4692 56.216 50.4697 56.2156ZM21.3932 40.6293C21.3842 40.626 21.1919 40.7547 21.1918 40.7645C21.201 40.9916 21.588 40.7327 21.3932 40.6293ZM2.48805 54.6679C2.53916 54.6196 2.78426 54.3218 2.80716 54.2697C2.71482 53.8726 2.0603 54.6915 2.48805 54.6679ZM29.2212 43.6077C29.402 43.8697 29.4127 44.173 29.1651 44.365C29.1876 44.1147 29.1994 43.8613 29.2212 43.6077ZM17.4186 0.236281C17.5256 0.224654 17.6179 0.323779 17.6749 0.430586C17.6928 0.463829 17.6381 0.555839 17.6486 0.583189C17.6693 0.636556 17.7235 0.602911 17.7407 0.663367C17.7462 0.683881 17.6663 0.832486 17.6736 0.850451C17.7138 0.947784 17.7955 0.935673 17.8515 0.997861C18.1272 1.30445 18.4407 1.5043 18.7591 1.72079C18.8642 1.79204 18.9447 1.99108 19.089 1.97931C19.1059 1.9778 19.1547 1.83841 19.162 1.82831C19.2752 1.67411 19.1464 1.94277 19.1581 1.99054C19.2047 2.17936 19.3184 2.24177 19.4434 2.23249C19.4441 2.23243 19.4449 2.23231 19.4457 2.23214C19.4987 2.22005 19.5657 1.94215 19.5466 2.10977C19.5453 2.1213 19.4737 2.26099 19.4792 2.28142C19.492 2.32747 19.5545 2.32335 19.5708 2.34364C19.6019 2.38347 19.6093 2.38484 19.6471 2.40263C19.6982 2.4282 19.7307 2.5262 19.8009 2.51716C19.816 2.51481 19.8621 2.36014 19.8919 2.34302C19.9217 2.32595 19.9673 2.35983 19.9698 2.40191C19.9724 2.444 19.9163 2.55724 19.9081 2.58518C19.8388 2.82066 20.0283 2.53371 20.0391 2.52918C20.2323 2.45576 20.2762 2.68295 20.4061 2.7368C20.5048 2.7773 20.6346 2.76281 20.7248 2.81011C20.8321 2.86703 20.893 2.98686 21.0072 3.01852C21.0191 3.02203 21.0787 2.84243 21.0935 2.84637C21.2504 2.88835 21.3898 2.96911 21.4883 3.14853C21.4981 3.16668 21.4149 3.31143 21.4209 3.33869C21.4589 3.50224 21.4758 3.86396 21.8086 3.22144C21.8591 3.27316 21.9224 3.33125 21.9211 3.48835C21.9204 3.57489 21.8441 3.69866 21.8679 3.69953C21.872 3.69968 21.8788 3.69633 21.8894 3.68871C21.9059 3.67701 21.9542 3.52592 21.9743 3.51939C22.0586 3.49202 22.1064 3.56777 22.1993 3.51818C22.2183 3.50774 22.2697 3.37573 22.2831 3.3537C22.3926 3.17571 22.31 3.51124 22.3112 3.53863C22.3217 3.74361 22.4097 3.70161 22.4844 3.73782C22.5017 3.7463 22.5543 3.5621 22.5736 3.56396C22.6726 3.57593 22.758 3.62946 22.812 3.74363C22.8239 3.76945 22.7435 3.91143 22.7459 3.93141C22.7575 4.0177 22.8848 3.73927 22.8982 3.81658C22.9012 3.83252 22.8429 3.95848 22.8385 3.97316C22.7695 4.20351 22.9209 3.89959 22.9298 3.89523C23.0456 3.83296 22.9576 4.17959 23.0507 4.16431C23.0619 4.16215 23.1099 3.99197 23.1375 3.9958C23.3213 4.02035 23.4773 4.13804 23.5864 4.33602C23.6034 4.36658 23.5343 4.48055 23.5296 4.49621C23.4575 4.74132 23.6059 4.43462 23.6192 4.42628C23.7202 4.36863 23.6709 4.65736 23.872 4.30226C24.0505 4.49947 24.3198 4.47771 24.4886 4.69385C24.5301 4.74708 24.5656 4.81474 24.5921 4.90364C24.594 4.90898 24.5229 5.06089 24.5269 5.07088C24.5744 5.19281 24.659 4.94589 24.8376 4.67542C24.8825 4.60752 24.7763 4.97999 24.7692 5.00756C24.7427 5.1091 24.6321 5.33304 24.6289 5.35351C24.6058 5.51512 24.9185 4.75222 24.9698 4.77346C24.9709 4.7754 24.9054 4.91252 24.9039 4.92824C24.8989 4.97752 24.9355 4.92747 24.9284 4.98112C24.9116 5.10514 24.7673 5.47904 24.9031 5.28319C24.9206 5.25771 25.0927 4.82273 25.1299 4.86229C25.1445 4.87842 25.2283 4.90488 25.2392 4.94231C25.2501 4.9797 25.1763 5.11217 25.1754 5.11887C25.1592 5.32817 25.1042 5.39466 25.0206 5.67952C24.9374 5.96336 25.2001 5.31334 25.2428 5.24639C25.2854 5.17966 25.2665 5.35001 25.2553 5.40732C25.2442 5.46465 25.1935 5.54723 25.1907 5.58115C25.1736 5.80322 25.3536 5.27216 25.418 5.17848C25.57 4.95659 25.4081 5.45242 25.4344 5.51867C25.4415 5.53658 25.4771 5.42313 25.4925 5.41756C25.5527 5.39696 25.5164 5.55761 25.6238 5.44138C25.6413 5.42245 25.8025 5.15112 25.7399 5.37361C25.7308 5.40566 25.6702 5.52073 25.6777 5.55533C25.6888 5.6072 25.7282 5.65442 25.7749 5.62707C25.8095 5.60682 25.8666 5.3993 25.8689 5.47215C25.8698 5.50466 25.7986 5.61019 25.8044 5.66165C25.81 5.71305 25.8714 5.73283 25.8956 5.73831C25.9198 5.74368 25.9701 5.58919 25.9762 5.57989C26.0113 5.52687 26.0847 5.47298 26.0885 5.47476C26.2886 5.53725 26.3605 5.8634 26.5829 5.85868C26.6002 5.85852 26.6565 5.69694 26.6598 5.69529C26.7378 5.65043 26.5226 6.05246 26.499 6.20735C26.6279 5.88566 26.6244 5.95223 26.6746 5.93206C26.6988 5.92208 26.7414 5.79444 26.7483 5.78243C26.8524 5.60512 26.7683 5.85527 26.752 5.90683C26.6922 6.09654 26.801 5.88836 26.7612 6.01525C26.7218 6.14123 26.6202 6.30987 26.6552 6.32183C26.7127 6.21144 26.8128 5.90192 26.8589 5.8643C26.9306 5.8057 26.987 5.82385 27.0332 5.86949C27.0993 5.93476 27.1448 6.05626 27.1849 6.08993C27.2528 6.14706 27.2869 6.13655 27.3152 6.197C27.3661 6.30626 27.429 6.07182 27.5226 5.99173C27.6165 5.91172 27.3627 6.44697 27.3209 6.56737C27.2789 6.68767 27.3374 6.57027 27.3194 6.6385C27.3013 6.70671 27.2485 6.77833 27.2594 6.81138C27.2704 6.8444 27.4156 6.65998 27.4745 6.54046C27.5993 6.28722 27.6876 6.00357 27.7033 6.12282C27.7041 6.12985 27.6335 6.26897 27.6397 6.28863C27.6911 6.44005 27.7896 6.48944 27.8462 6.62804C27.8539 6.64733 27.775 6.80193 27.7787 6.81495C27.8172 6.95115 27.901 6.66981 28.0709 6.38949C27.894 6.7832 27.8166 7.03697 27.8773 7.06519C27.9137 7.0823 27.9802 6.90584 28.0556 6.79342C28.0783 6.75951 28.0545 6.88984 28.0935 6.81011C28.2212 6.54953 28.3219 6.2401 28.3356 6.38586C28.336 6.39269 28.2658 6.5352 28.2717 6.5481C28.3097 6.63221 28.4344 6.3559 28.516 6.35031C28.5799 6.34591 28.6024 6.5557 28.6509 6.60863C28.462 7.05546 28.5618 6.97684 28.7142 6.67806C28.7479 6.70705 28.7974 6.70729 28.8172 6.76575C28.8241 6.78573 28.7613 6.91167 28.7571 6.92635C28.6901 7.15642 28.8329 6.86345 28.8463 6.85522C28.9855 6.77915 28.9645 7.03778 29.1449 6.85205C29.1513 6.84534 29.2867 6.53669 29.2148 6.77336C29.2097 6.78963 29.1217 6.91894 29.1581 6.94707C29.1945 6.97522 29.2019 7.17421 29.3192 7.05408C29.3475 7.02519 29.4881 6.78754 29.4335 6.99636C29.426 7.02469 29.3845 7.1121 29.3691 7.16395C29.3202 7.32926 29.4614 7.01915 29.3699 7.29456C29.2967 7.5151 29.2556 7.69861 29.3113 7.68077C29.3251 7.67633 29.345 7.65944 29.3718 7.62757C29.3758 7.62299 29.4938 7.37974 29.5102 7.39124C29.5363 7.40983 29.5555 7.47884 29.5862 7.48984C29.601 7.49501 29.6566 7.33656 29.6603 7.33478C29.7935 7.28878 29.8046 7.4555 29.8833 7.55882C29.8976 7.57807 30.0407 7.3902 30.0076 7.57229C29.9715 7.77169 29.6117 8.51317 29.7805 8.37134C29.8483 8.31474 30.2995 7.37184 30.1577 7.89892C30.3402 7.8301 30.354 8.13607 30.559 8.01452C30.5682 8.00917 30.6995 7.74827 30.7118 7.75774C30.7299 7.77231 30.6885 7.90263 30.6997 7.91706C30.7454 7.9807 30.8467 7.89685 30.899 7.93844C30.919 7.95396 30.8567 8.08052 30.8805 8.09904C30.9044 8.11744 30.994 7.95394 30.9957 8.05178C30.9968 8.12626 30.8777 8.4873 30.8971 8.54333C31.043 8.19915 31.0651 8.21675 31.1478 8.14441C31.1637 8.13034 31.2049 8.0065 31.215 7.99365C31.2574 7.93872 31.231 8.04456 31.2749 7.9838C31.2854 7.96922 31.335 7.85156 31.3464 7.833C31.4456 7.6707 31.3781 7.95382 31.3663 8.00307C31.3215 8.19022 31.3991 8.04271 31.3922 8.1209C31.3853 8.19907 31.3163 8.2715 31.3244 8.3241C31.3413 8.43296 31.4176 8.44261 31.4694 8.47067C31.4903 8.48114 31.5415 8.31781 31.546 8.31566C31.6073 8.29449 31.5823 8.48056 31.7383 8.17787C31.4297 9.00029 31.7981 8.11063 31.7938 8.29938C31.7934 8.3146 31.6392 8.70006 31.5964 8.74818C31.5536 8.79624 31.5745 8.66434 31.5111 8.74073C31.4961 8.75863 31.3094 9.10212 31.2954 9.12177C31.1854 9.27533 31.4198 8.70101 31.4309 8.66873C31.5499 8.31992 31.3435 8.68777 31.3206 8.70958C31.2159 8.80954 31.2043 8.71007 31.1231 8.77868C31.0702 8.82288 30.9102 9.19638 30.8921 9.17529C30.8317 9.10542 31.0243 8.57155 30.7624 8.99465C30.7065 9.08485 30.5501 9.5008 30.6299 9.15563C30.635 9.13388 30.7175 8.8221 30.6157 8.99851C30.6029 9.02076 30.5529 9.14015 30.5448 9.14853C30.4913 9.20237 30.5137 9.09993 30.466 9.13347C30.4182 9.167 30.3554 9.22046 30.3397 9.16627C30.3301 9.13381 30.3981 8.90084 30.4115 8.84244C30.4506 8.67444 30.3143 8.91961 30.3774 8.72278C30.4408 8.52494 30.5949 8.24871 30.603 8.10709C30.4713 8.4165 30.3342 8.73321 30.2008 9.04397C30.1098 8.99297 30.0578 8.85326 29.9561 8.82675C29.9434 8.82377 29.8857 8.99557 29.8702 8.99668C29.8053 9.00061 29.8082 8.86207 29.7326 8.88601C29.6738 8.90518 29.5524 9.06183 29.4886 9.08737C29.6099 8.72098 29.4924 8.81335 29.4573 8.76052C29.445 8.74217 29.4859 8.64788 29.4867 8.61188C29.4889 8.47836 29.3789 8.8009 29.3456 8.84499C29.2035 9.03304 29.4965 8.32139 29.4258 8.31233C29.4221 8.31161 29.2224 8.6727 29.2069 8.69389C29.1065 8.83244 29.2561 8.55972 29.2454 8.52233C29.2257 8.45403 29.2351 8.35172 29.1404 8.44232C29.1126 8.46925 28.98 8.69091 29.0292 8.49708C29.0357 8.4717 29.0901 8.34748 29.0903 8.33895C29.0898 8.27442 29.0561 8.3176 29.0115 8.39576C28.9564 8.492 28.8846 8.6413 28.8373 8.70782C28.7517 8.82833 28.8193 8.53774 28.8426 8.45563C28.9029 8.2431 28.8977 8.3771 28.9074 8.35782C29.022 8.1282 28.9713 8.15475 28.954 8.124C29.1118 7.73719 29.0661 7.74523 28.9353 8.09368C28.9211 8.13177 28.9562 8.10424 28.954 8.124C28.7729 8.49252 28.713 8.52435 28.8175 8.15282C28.8665 7.9787 28.9668 7.79378 28.875 7.83835C28.8335 7.85841 28.7332 8.12824 28.678 8.19013C28.5519 8.33132 28.5819 8.05291 28.507 8.06733C28.4798 8.07257 28.4396 8.22646 28.4189 8.23505C28.3638 8.25829 28.3755 8.13508 28.3134 8.17465C28.3077 8.17842 28.2525 8.33401 28.2397 8.3309C28.141 8.31027 28.1023 8.17958 28.0081 8.13692C27.9626 8.11637 27.8451 8.16568 27.8045 8.12882C27.7337 8.06583 27.7247 7.80215 27.6315 7.82622C27.571 7.84128 27.5174 7.99754 27.4542 8.09285C27.3319 8.27767 27.4153 7.88974 27.4296 7.83024C27.4301 7.82828 27.4848 7.80906 27.4963 7.72215C27.5522 7.55438 27.4303 7.82972 27.4296 7.83024C27.4387 7.79176 27.374 7.72404 27.3461 7.74651C27.3309 7.75881 27.2753 7.90485 27.2685 7.90854C27.1085 7.99304 26.9871 7.98517 26.908 7.87279C26.9073 7.86908 26.9777 7.70916 26.9753 7.70246C26.9432 7.60475 26.8207 7.78516 26.7203 7.88067C26.62 7.97614 26.5958 7.91992 26.6814 7.63059C26.6282 7.6492 26.6239 7.50364 26.6231 7.41605C26.6223 7.32846 26.4863 7.64022 26.4809 7.64525C26.3556 7.76379 26.3354 7.68751 26.3024 7.61232C26.2903 7.58495 26.2766 7.55774 26.2554 7.54011C26.218 7.50816 26.1132 7.51769 26.052 7.53236C26.0034 7.54447 26.0119 7.46163 25.9582 7.49433C25.9509 7.49867 25.897 7.64027 25.8933 7.64506C25.7852 7.79618 25.9467 7.46247 25.9644 7.3982C26.0289 7.16454 26.0608 7.03908 25.9684 7.12295C25.9471 7.14213 25.7083 7.61994 25.6757 7.6401C25.6338 7.66541 25.7177 7.49343 25.672 7.52442C25.6681 7.52691 25.623 7.63581 25.6078 7.6238C25.5367 7.56948 25.4761 7.46971 25.3885 7.44579C25.3767 7.44211 25.319 7.62061 25.3007 7.61813C25.2153 7.60633 25.1337 7.56461 25.0926 7.4525C25.0828 7.42437 25.1449 7.3085 25.156 7.27098C25.2223 7.0438 25.0554 7.3443 25.0471 7.34789C24.8465 7.44181 24.8611 7.11263 24.6644 7.18979C24.6535 7.19457 24.4532 7.50782 24.5486 7.20714C24.5549 7.18712 24.6533 6.87987 24.5455 7.07295C24.5388 7.08503 24.4909 7.24438 24.4693 7.21704C24.4477 7.18973 24.3597 7.27266 24.3914 7.0888C24.4013 7.03085 24.4964 6.72305 24.361 6.94344C24.3518 6.9589 24.0719 7.46822 24.206 7.09208C24.2282 7.03019 24.3948 6.64251 24.2675 6.82375C24.243 6.85894 24.2217 6.95206 24.1771 6.99707C24.1084 7.06651 24.1076 6.94363 23.9937 7.09965C23.9736 7.12732 23.8322 7.37857 23.8917 7.1678C23.901 7.13479 23.9628 7.00796 23.9559 6.98797C23.9234 6.89234 23.8223 6.95213 23.7973 6.83596C23.7883 6.79506 23.8877 6.58982 23.8882 6.52383C23.8886 6.45786 23.8647 6.38419 23.8002 6.47C23.7357 6.55585 23.6218 6.90165 23.5743 6.91321C23.5682 6.91469 23.5622 6.9159 23.5564 6.91685C23.3633 6.94805 23.2895 6.69867 23.1483 6.60667C23.1267 6.59258 23.0958 6.72047 23.0604 6.7083C22.9297 6.66397 22.6634 6.68434 22.66 6.38365C22.6572 6.1428 22.8334 6.0342 22.8007 5.92297C22.7847 5.86975 22.5863 6.2441 22.5733 6.25306C22.4444 6.34531 22.4633 6.15056 22.3721 6.17448C22.3532 6.17947 22.301 6.34305 22.2857 6.34556C22.2328 6.35552 22.2187 6.26684 22.1737 6.26309C22.1533 6.26178 22.1061 6.38361 22.0936 6.36745C22.0632 6.33018 22.0498 6.26502 22.059 6.13612C22.0598 6.12437 22.1461 5.98436 22.1195 5.96664C22.0762 5.93839 22.0648 5.80262 21.9626 5.89502C21.9321 5.9229 21.816 6.19795 21.8613 5.99339C21.8708 5.95066 22.0186 5.62394 21.8588 5.89277C21.8321 5.93741 21.6032 6.29445 21.6743 6.03226C21.693 5.96324 21.7842 5.6834 21.7472 5.71785C21.7417 5.72353 21.6902 5.87579 21.6682 5.88353C21.5917 5.90823 21.5394 5.86775 21.4623 5.88986C21.4416 5.89605 21.4004 6.0587 21.3715 6.06305C21.2921 6.07523 21.2296 6.00318 21.1878 5.92937C21.1726 5.90187 21.2415 5.78172 21.2456 5.76723C21.3131 5.53168 21.1703 5.82792 21.154 5.84187C21.0547 5.92453 21.0724 5.7647 21.0059 5.78108C20.9877 5.78521 20.9371 5.93377 20.9289 5.94548C20.9265 5.94881 20.9243 5.95183 20.9223 5.95455C20.8548 6.0447 20.9774 5.80781 20.9712 5.77262C20.9539 5.67019 20.892 5.65784 20.8324 5.65456C20.8104 5.65357 20.7616 5.82998 20.7427 5.82715C20.6295 5.81361 20.5311 5.75351 20.4712 5.61983C20.46 5.59436 20.5258 5.47033 20.5342 5.43926C20.594 5.22204 20.437 5.48666 20.4168 5.50965C20.3246 5.61472 20.3565 5.49404 20.3115 5.50017C20.0905 5.5321 19.9042 5.36518 19.7571 5.24865C19.5652 5.09755 19.4481 4.90424 19.2277 4.84925C19.2137 4.8456 19.1551 5.02268 19.1421 5.02173C18.9783 5.00165 18.8622 4.87416 18.6947 4.86216C18.6811 4.86087 18.6303 5.03075 18.6061 5.03414C18.5561 5.04225 18.5096 5.01235 18.4913 4.94362C18.4822 4.91041 18.5669 4.78188 18.5566 4.7513C18.5327 4.67977 18.4885 4.64759 18.4304 4.65391C18.4303 4.65393 18.4302 4.65395 18.43 4.65398C18.4052 4.65886 18.366 4.83588 18.3393 4.82693C18.155 4.76905 17.9688 4.72464 17.8798 4.43413C17.8738 4.41419 18.0047 4.07168 17.9514 4.12554C17.9101 4.21852 17.8639 4.3289 17.821 4.4288C17.5402 4.37453 17.3338 4.15019 17.0824 4.02349C17.0718 4.01819 17.0156 4.20518 16.9947 4.19583C16.8734 4.14188 16.7339 4.14168 16.6834 3.91121C16.6783 3.8886 16.8167 3.57622 16.7602 3.60852C16.7501 3.61451 16.6774 3.63342 16.6344 3.69584C16.6282 3.70534 16.5766 3.85661 16.557 3.85345C16.4445 3.83251 16.3504 3.75359 16.2851 3.62055C16.2746 3.59879 16.358 3.44962 16.3512 3.43277C16.302 3.31441 16.1608 3.39515 16.1401 3.21931C16.1265 3.10104 16.2599 2.83869 16.3431 2.56027C16.3549 2.52098 16.3241 2.50107 16.3874 2.34532C16.5465 1.95364 16.7416 1.53354 16.9092 1.11524C16.9453 1.02516 16.8604 1.10287 16.9774 0.897649C16.9854 0.883947 17.0478 0.825711 17.0865 0.755677C17.1133 0.707273 17.1694 0.545424 17.208 0.485227C17.2465 0.425092 17.2035 0.562461 17.2542 0.494025C17.3053 0.424641 17.3723 0.241829 17.4186 0.236281ZM26.6184 7.02411C26.652 6.86109 26.4163 7.41091 26.5036 7.29234C26.5081 7.28596 26.6168 7.03214 26.6184 7.02411ZM30.2328 8.43739C30.2962 8.17786 30.1197 8.52453 30.0682 8.72389C30.0167 8.92303 30.2137 8.51608 30.2328 8.43739ZM30.7082 8.42786C30.7435 8.21707 30.4083 8.99635 30.523 8.8585C30.5296 8.85075 30.7062 8.44011 30.7082 8.42786ZM16.5073 2.53991C16.51 2.53241 16.4891 2.51525 16.4855 2.52227C16.3993 2.69213 16.4411 2.72634 16.5073 2.53991ZM31.1871 8.40129C31.2174 8.28955 31.1255 8.39468 31.0879 8.53361C31.0576 8.64538 31.1495 8.54028 31.1871 8.40129ZM25.3227 5.78847C25.3257 5.78005 25.3116 5.76546 25.2925 5.81207C25.2309 5.96222 25.2725 5.92999 25.3227 5.78847ZM31.867 8.67582C31.7795 8.60448 31.9899 7.9329 32.0681 8.05144C32.0823 8.07289 31.9392 8.23969 31.9399 8.30847C31.9412 8.43384 32.1418 8.04089 32.0975 8.27794C32.0893 8.32128 31.8714 8.68132 31.8665 8.67664C31.8666 8.67637 31.8668 8.67609 31.867 8.67582ZM26.8792 6.35437C26.8817 6.34683 26.8609 6.32996 26.8573 6.33695C26.771 6.50669 26.8129 6.54078 26.8792 6.35437ZM24.4653 5.02786C24.4706 5.01176 24.4216 4.97413 24.4138 4.9877C24.2649 5.26204 24.3636 5.33897 24.4653 5.02786ZM28.6469 6.62096C28.7466 6.45564 28.7863 6.44788 28.7142 6.67778C28.6934 6.65525 28.6682 6.64265 28.6469 6.62096Z" fill="black"/>
</svg>
