<svg width="61" height="55" viewBox="0 0 61 55" fill="none" xmlns="http://www.w3.org/2000/svg">
<path d="M28.8153 26.5933C29.0225 26.7656 29.1949 27.0689 29.2962 27.3192C29.3282 27.3975 29.2196 27.4313 29.2379 27.4883C29.2735 27.5995 29.3773 27.6469 29.4052 27.7617C29.4141 27.8 29.2548 27.8692 29.267 27.9069C29.3348 28.113 29.4866 28.2378 29.5837 28.4212C30.0939 29.3671 30.6155 30.1712 31.1738 31.084C31.3538 31.3792 31.4663 31.8046 31.7178 32.0519C31.7473 32.0807 31.855 31.9772 31.8693 31.9766C32.0912 31.9708 31.8233 32.1065 31.8352 32.1937C31.8889 32.5476 32.0796 32.8543 32.2965 33.0783C32.2978 33.0796 32.2991 33.0809 32.3005 33.0821C32.3941 33.166 32.56 32.9054 32.4966 33.1031C32.4924 33.1169 32.3436 33.1756 32.3494 33.2147C32.3628 33.303 32.4703 33.4155 32.494 33.4745C32.5391 33.5886 32.5512 33.6043 32.6112 33.7001C32.6928 33.8329 32.7237 34.0246 32.8451 34.1493C32.8716 34.176 32.9808 34.0487 33.0354 34.0836C33.09 34.1185 33.1613 34.2567 33.1569 34.3209C33.1525 34.385 33.034 34.4334 33.0144 34.4566C32.8479 34.65 33.2279 34.6205 33.2471 34.6357C33.5872 34.9133 33.6051 35.3138 33.7984 35.6379C33.9473 35.8867 34.167 36.1378 34.2977 36.3845C34.4541 36.681 34.5145 36.9675 34.6792 37.238C34.6965 37.2666 34.8433 37.1419 34.8647 37.1768C35.0975 37.558 35.2925 37.9727 35.376 38.4193C35.3843 38.4643 35.211 38.4887 35.2103 38.5381C35.2103 38.8384 35.0979 39.3524 35.8217 39.195C35.8777 39.3767 35.9475 39.5939 35.884 39.8037C35.8491 39.9193 35.6926 39.9229 35.7258 39.975C35.7314 39.9837 35.7423 39.9939 35.7601 40.0062C35.7878 40.0255 35.9159 39.9254 35.9465 39.9595C36.0756 40.1032 36.1097 40.3058 36.2559 40.4368C36.2859 40.4632 36.4119 40.3979 36.4396 40.3976C36.6663 40.4008 36.4132 40.6767 36.4029 40.7163C36.331 41.0201 36.4667 41.1582 36.5479 41.3723C36.5665 41.4219 36.7198 41.2929 36.7441 41.3383C36.8697 41.5791 36.9459 41.8224 36.963 42.1126C36.9656 42.1752 36.7946 42.1797 36.788 42.2124C36.7602 42.3549 37.0573 42.2767 37.0353 42.4116C37.031 42.4398 36.8956 42.4729 36.8828 42.4824C36.6811 42.6291 37.0209 42.5742 37.0341 42.5893C37.2068 42.7748 36.9179 43.0256 37.0319 43.2144C37.0459 43.2371 37.1949 43.1274 37.2241 43.1947C37.4239 43.656 37.5292 44.2 37.5055 44.693C37.503 44.7734 37.3617 44.7508 37.3471 44.7593C37.1196 44.8978 37.4622 44.8683 37.4807 44.8909C37.6177 45.0693 37.3776 45.3092 37.8014 45.3586C37.8219 46.0111 38.0517 46.7155 37.9589 47.3924C37.9367 47.5661 37.895 47.7369 37.8262 47.9023C37.8222 47.9129 37.6543 47.8972 37.647 47.9181C37.5556 48.1674 37.8151 48.1137 38.1316 48.2901C38.211 48.3395 37.8222 48.4657 37.7934 48.4746C37.6879 48.5133 37.4406 48.4591 37.4199 48.4725C37.257 48.5786 38.082 48.6001 38.0717 48.7661C38.07 48.771 37.92 48.7395 37.904 48.752C37.8539 48.7904 37.911 48.8361 37.8556 48.8725C37.7271 48.9561 37.3261 48.9462 37.5433 49.1038C37.5711 49.1244 38.0398 49.1502 38 49.2892C37.9851 49.343 37.952 49.6121 37.9078 49.6773C37.8647 49.744 37.7257 49.6667 37.7183 49.6709C37.4865 49.8205 37.419 49.7328 37.1121 49.7593C36.8066 49.7796 37.4955 49.9105 37.5631 49.9658C37.6306 50.0219 37.4377 50.1149 37.3741 50.13C37.3105 50.1464 37.2284 50.0829 37.1898 50.1017C36.9349 50.2282 37.5012 50.2796 37.5893 50.3759C37.7928 50.6146 37.2568 50.5752 37.1619 50.6822C37.1357 50.7126 37.2573 50.7259 37.2554 50.7617C37.2442 50.906 37.0663 50.9117 37.1362 51.1148C37.1487 51.1461 37.3699 51.4071 37.1254 51.3781C37.0907 51.373 36.9914 51.2838 36.9384 51.3218C36.8591 51.3789 36.7583 51.4966 36.7457 51.597C36.7361 51.6718 36.9589 51.7197 36.8552 51.7583C36.8092 51.7746 36.7435 51.6469 36.6666 51.6817C36.592 51.7145 36.4897 51.8671 36.4502 51.9235C36.4114 51.9807 36.5618 52.051 36.5671 52.0619C36.5957 52.1279 36.5661 52.2867 36.557 52.2962C36.1528 52.7984 35.5184 52.9406 35.0649 53.282C35.0269 53.3098 35.1336 53.4466 35.1286 53.4524C35.0146 53.5913 34.9224 53.1289 34.7594 53.0404C34.9259 53.3444 34.8406 53.3175 34.7532 53.3987C34.7108 53.438 34.7923 53.5485 34.7934 53.5631C34.8018 53.7823 34.6461 53.5617 34.6139 53.5167C34.4923 53.3526 34.5275 53.5903 34.4465 53.4794C34.3683 53.3686 34.3701 53.1597 34.2794 53.1965C34.2952 53.3229 34.4811 53.5998 34.4236 53.677C34.3329 53.7973 34.1652 53.8584 33.9827 53.8837C33.7277 53.9191 33.4697 53.8751 33.3244 53.8852C33.0811 53.9008 33.002 53.9328 32.8542 53.9059C32.6064 53.8515 32.7194 54.081 32.5731 54.2046C32.4228 54.3265 32.4583 53.7302 32.427 53.605C32.3975 53.4796 32.3835 53.6117 32.353 53.5436C32.3231 53.4754 32.373 53.3857 32.3116 53.3631C32.252 53.3408 32.0941 53.5735 32.0735 53.7068C32.0329 53.9897 32.1231 54.2838 31.9422 54.1835C31.9319 54.1775 31.9624 54.0214 31.9234 54.0063C31.6183 53.8905 31.3388 53.8744 31.0477 53.7492C31.0085 53.7317 31.056 53.5614 31.0335 53.5493C30.8004 53.4211 30.8654 53.7183 30.6977 54.0292C30.7711 53.6025 30.707 53.3325 30.5436 53.3122C30.4418 53.2992 30.438 53.4883 30.3542 53.6121C30.3287 53.6494 30.2701 53.5117 30.2452 53.5978C30.1625 53.879 30.1938 54.2108 30.0209 54.0569C30.0135 54.0496 30.0617 53.8963 30.0345 53.8828C29.8591 53.794 29.7917 54.0904 29.5777 54.0925C29.4059 54.0935 29.1535 53.8584 28.9948 53.7947C29.0949 53.3202 28.9151 53.3963 28.7766 53.7082C28.6666 53.6704 28.5391 53.6608 28.4386 53.5895C28.404 53.5651 28.4615 53.4344 28.4602 53.4185C28.4424 53.1696 28.3167 53.4738 28.2883 53.48C27.9813 53.5322 27.8326 53.2372 27.5286 53.4023C27.5177 53.4083 27.4118 53.7286 27.4129 53.4731C27.4135 53.4556 27.5363 53.3312 27.4243 53.2869C27.3116 53.2424 27.1455 53.0048 26.9359 53.1031C26.8857 53.1269 26.7019 53.3561 26.6848 53.1262C26.6828 53.0951 26.724 53.0068 26.7248 52.9506C26.727 52.7714 26.5946 53.0865 26.6244 52.792C26.6504 52.5567 26.6133 52.3497 26.4979 52.351C26.4679 52.3509 26.4317 52.3632 26.3884 52.3904C26.3817 52.3943 26.2583 52.6375 26.2107 52.6166C26.1351 52.5832 26.0425 52.4914 25.9597 52.4639C25.9201 52.4508 25.8891 52.6177 25.8813 52.6181C25.5826 52.6114 25.4408 52.3999 25.1716 52.2276C25.124 52.1963 24.8806 52.3472 24.8478 52.1398C24.8143 51.9136 25.2265 51.1924 24.9136 51.2781C24.7888 51.3124 24.2661 52.227 24.2914 51.6515C23.8891 51.6289 23.6658 51.2303 23.2296 51.2439C23.2111 51.2449 23.0432 51.4888 23.0088 51.4688C22.958 51.4388 22.9851 51.3014 22.9507 51.2759C22.8082 51.1657 22.6118 51.203 22.4626 51.1128C22.4058 51.0788 22.4867 50.9613 22.4192 50.9207C22.3516 50.8801 22.2243 51.0249 22.1659 50.8976C22.122 50.8008 22.2136 50.4243 22.1361 50.3375C21.9689 50.6719 21.9054 50.6325 21.7416 50.662C21.71 50.6679 21.6775 50.7968 21.6595 50.8056C21.5852 50.8438 21.5915 50.7266 21.5165 50.7709C21.4984 50.7815 21.4412 50.8957 21.4231 50.9108C21.268 51.0438 21.2725 50.725 21.2804 50.673C21.2928 50.4667 21.1842 50.5979 21.1617 50.5028C21.1396 50.4078 21.2653 50.3667 21.2206 50.2932C21.128 50.1411 20.9443 50.0702 20.8079 49.9929C20.7531 49.9627 20.7125 50.1336 20.7029 50.1329C20.5677 50.1115 20.535 49.8897 20.3125 50.1562C20.641 49.3371 20.203 50.1949 20.1175 49.9506C20.1109 49.931 20.2894 49.5558 20.3681 49.5286C20.4468 49.5015 20.4621 49.6564 20.5756 49.6088C20.6026 49.5979 20.8768 49.3025 20.9001 49.2881C21.0843 49.1766 20.8116 49.7339 20.8013 49.7669C20.6917 50.1244 20.9985 49.8113 21.0411 49.8007C21.2379 49.7528 21.3128 49.8889 21.4681 49.8613C21.5692 49.8439 21.759 49.4845 21.8103 49.5242C21.9836 49.657 21.8124 50.2048 22.2181 49.8565C22.305 49.7822 22.4595 49.3636 22.4513 49.748C22.4506 49.7722 22.4195 50.112 22.5691 49.9597C22.5879 49.9405 22.6437 49.8237 22.6586 49.8188C22.7573 49.7882 22.7584 49.9029 22.8536 49.8935C22.9489 49.8841 23.0686 49.8591 23.1334 49.9379C23.1726 49.9852 23.1355 50.2338 23.1349 50.2986C23.132 50.4847 23.3214 50.2648 23.2775 50.4712C23.234 50.6789 23.0195 50.9265 23.0765 51.0995C23.2201 50.7954 23.3726 50.4857 23.5192 50.1808C23.7438 50.2962 23.9744 50.5176 24.2302 50.6115C24.2627 50.6232 24.3019 50.4432 24.3384 50.4513C24.4916 50.4859 24.5647 50.6568 24.7297 50.6699C24.8577 50.6794 25.0521 50.5522 25.1845 50.5537C25.113 50.9398 25.3248 50.8839 25.4464 50.969C25.4887 50.9985 25.4484 51.0931 25.4695 51.1372C25.5504 51.3014 25.6137 50.9613 25.667 50.9245C25.8933 50.7665 25.6329 51.4909 25.8127 51.5377C25.8226 51.5406 26.0748 51.1964 26.0981 51.1776C26.2504 51.0558 26.0649 51.3175 26.1144 51.3678C26.2046 51.4593 26.248 51.5789 26.4144 51.51C26.4634 51.4895 26.6343 51.2782 26.6405 51.4893C26.6414 51.5169 26.5924 51.6435 26.5973 51.6536C26.6392 51.7305 26.6905 51.692 26.745 51.6161C26.8123 51.5226 26.8847 51.3724 26.9515 51.3107C27.0788 51.2011 27.114 51.5217 27.1143 51.6108C27.1152 51.8414 27.0335 51.6832 27.0231 51.7024C26.9004 51.9318 27.0083 51.9206 27.0733 51.964C26.9568 52.3653 27.066 52.3735 27.1411 52.0072C27.1493 51.9672 27.0819 51.9868 27.0733 51.964C27.261 51.5936 27.3816 51.5766 27.3885 51.9792C27.3919 52.1678 27.2787 52.3526 27.4713 52.3303C27.5582 52.32 27.6099 52.0353 27.6986 51.9796C27.8998 51.852 28.0208 52.1645 28.185 52.1644C28.2441 52.1642 28.2309 51.9978 28.2724 51.9923C28.3902 51.9793 28.4571 52.1184 28.5789 52.0862C28.5899 52.0831 28.606 51.9173 28.6395 51.9234C28.8932 51.966 29.0822 52.1171 29.3311 52.1712C29.45 52.1972 29.6804 52.1486 29.814 52.1899C30.0349 52.2598 30.2744 52.5367 30.4679 52.5013C30.5928 52.4787 30.5849 52.3115 30.6475 52.2056C30.7575 51.9993 30.9096 52.405 30.9294 52.4669C30.9303 52.4691 30.817 52.4981 30.8682 52.5876C30.8873 52.7663 30.9283 52.4676 30.9294 52.4669C30.9429 52.5078 31.1563 52.5611 31.1995 52.5315C31.2233 52.5156 31.2197 52.3589 31.2317 52.3536C31.524 52.2297 31.7532 52.1947 32.0473 52.2592C32.0523 52.2622 32.0505 52.437 32.0622 52.4419C32.2278 52.5138 32.3179 52.2937 32.4275 52.1574C32.5394 52.0206 32.622 52.0537 32.7407 52.341C32.8332 52.2913 32.988 52.4011 33.0812 52.4656C33.175 52.5301 33.1193 52.194 33.1242 52.1863C33.2401 52.0018 33.3368 52.0425 33.4765 52.0629C33.5269 52.0703 33.5802 52.0753 33.6355 52.0664C33.736 52.0517 33.8968 51.9404 33.9693 51.868C34.0245 51.8121 34.1061 51.8624 34.1483 51.7852C34.154 51.7749 34.0786 51.6432 34.0786 51.6367C34.0648 51.4412 34.1994 51.7876 34.2442 51.8391C34.4075 52.0252 34.5108 52.116 34.5486 51.963C34.5602 51.9263 34.3387 51.437 34.3491 51.3927C34.3675 51.3334 34.4573 51.5032 34.476 51.4345C34.4775 51.4288 34.41 51.3324 34.4385 51.3186C34.5698 51.2536 34.7355 51.2037 34.8339 51.0873C34.8473 51.072 34.6964 50.9589 34.7124 50.9358C34.7871 50.8272 34.8788 50.7269 35.0273 50.6663C35.0642 50.6517 35.1605 50.7427 35.1967 50.7587C35.4191 50.8504 35.1703 50.605 35.1687 50.5949C35.1553 50.3037 35.5227 50.2483 35.4829 49.9181C35.4814 49.8967 35.1676 49.6776 35.4835 49.7137C35.5043 49.7173 35.8302 49.7467 35.6301 49.6431C35.6174 49.637 35.4492 49.6267 35.4799 49.5753C35.511 49.5222 35.4242 49.4085 35.6189 49.362C35.68 49.3489 36.0088 49.3397 35.7713 49.2103C35.7556 49.1979 35.2035 48.9883 35.6038 48.9988C35.6696 49.0007 36.0876 49.0633 35.8851 48.9358C35.8456 48.912 35.7483 48.9351 35.6955 48.8792C35.6138 48.7953 35.7359 48.7023 35.555 48.5924C35.523 48.5723 35.2415 48.4873 35.4612 48.4413C35.4956 48.4337 35.6355 48.4578 35.6527 48.4272C35.735 48.2748 35.6425 48.1242 35.7378 47.9727C35.7711 47.9181 35.9993 47.942 36.0591 47.882C36.1189 47.8223 36.173 47.6974 36.0656 47.6387C35.9583 47.581 35.5996 47.668 35.5655 47.5783C35.5611 47.5668 35.5569 47.5553 35.5531 47.5437C35.4253 47.1683 35.5829 46.7886 35.5437 46.3669C35.5379 46.3048 35.4185 46.3767 35.4013 46.2917C35.3411 45.9847 35.0948 45.4331 35.2878 45.0855C35.4433 44.8042 35.6804 45.048 35.7219 44.8503C35.7409 44.7533 35.3083 44.7711 35.2901 44.7548C35.1053 44.5921 35.2441 44.4001 35.133 44.2311C35.11 44.1964 34.9578 44.2836 34.9401 44.2537C34.8775 44.1504 34.915 44.0156 34.8697 43.921C34.8489 43.8781 34.7273 43.9268 34.7235 43.8824C34.7126 43.7767 34.7354 43.6715 34.8176 43.5335C34.825 43.5208 34.9997 43.5293 34.9796 43.452C34.9468 43.3274 35.0065 43.1332 34.8371 43.0321C34.7862 43.0021 34.5056 43.1035 34.6654 42.9412C34.6987 42.9071 35.0441 42.807 34.7137 42.8075C34.6568 42.802 34.2038 42.7851 34.4227 42.6051C34.4805 42.5579 34.7319 42.3949 34.6695 42.3622C34.66 42.3582 34.5212 42.4434 34.4907 42.4085C34.3858 42.2847 34.3408 42.1272 34.2327 41.9969C34.2036 41.9623 34.0747 42.0849 34.0362 42.0315C33.9305 41.8857 33.8815 41.6628 33.8592 41.482C33.8524 41.4179 33.9953 41.4017 34.0073 41.3917C34.201 41.2275 33.8829 41.3201 33.8557 41.3061C33.6903 41.2158 33.7838 41.0478 33.6882 40.9365C33.6621 40.9057 33.5312 40.9959 33.5153 40.9947C33.5107 40.9942 33.5065 40.9937 33.5026 40.9932C33.3742 40.9753 33.6386 40.9141 33.6454 40.8567C33.6654 40.6903 33.5856 40.5494 33.5042 40.425C33.474 40.3793 33.3363 40.5123 33.3112 40.4706C33.1567 40.2195 33.0465 39.9566 33.0127 39.6678C33.0066 39.6131 33.1459 39.579 33.1696 39.5549C33.3352 39.3873 33.0135 39.4275 32.9762 39.4185C32.8059 39.377 32.8952 39.2807 32.8275 39.2005C32.4899 38.7999 32.275 38.2362 32.0854 37.8003C31.835 37.2282 31.7031 36.7447 31.3701 36.2658C31.3488 36.235 31.2099 36.3643 31.1896 36.339C30.9365 36.0117 30.7687 35.6084 30.5016 35.293C30.4799 35.2669 30.3579 35.4031 30.3182 35.3646C30.2358 35.2862 30.1673 35.163 30.1525 35.0376C30.145 34.9766 30.3122 34.9558 30.302 34.8959C30.2784 34.7563 30.2117 34.6324 30.1136 34.5357C30.1133 34.5355 30.1131 34.5353 30.1129 34.5351C30.0704 34.4967 29.9689 34.6663 29.9262 34.6058C29.6296 34.1923 29.3186 33.7922 29.2233 33.2488C29.2165 33.2111 29.499 32.9755 29.3984 32.9547C29.312 33.0086 29.2143 33.0776 29.1239 33.1382C28.6527 32.5697 28.3148 31.8896 27.8923 31.2941C27.8742 31.2686 27.7513 31.4284 27.7154 31.3797C27.5073 31.0979 27.2569 30.8581 27.1857 30.4504C27.1784 30.4101 27.4601 30.2159 27.3532 30.1623C27.3345 30.1535 27.2029 30.0584 27.1195 30.0721C27.1073 30.0747 26.999 30.1952 26.9645 30.1584C26.7658 29.9432 26.6035 29.6788 26.4944 29.386C26.477 29.3386 26.6416 29.2725 26.6303 29.2377C26.549 28.9916 26.2817 28.8657 26.2528 28.586C26.2337 28.3981 26.4981 28.2579 26.6685 28.0097C26.6925 27.9746 26.6349 27.8941 26.7617 27.7836C27.0802 27.5054 27.469 27.2495 27.805 26.9487C27.8775 26.884 27.711 26.8458 27.9431 26.7589C27.9588 26.7533 28.0811 26.7798 28.1579 26.7481C28.2112 26.7263 28.3243 26.5946 28.4006 26.5767C28.4769 26.5588 28.3897 26.6787 28.4898 26.6705C28.5906 26.6617 28.7257 26.5195 28.8153 26.5933ZM33.5073 52.742C33.6207 52.8818 33.4785 52.3007 33.4416 52.4577C33.44 52.466 33.5017 52.7351 33.5073 52.742ZM23.7849 50.926C23.7845 51.214 24.0107 50.8892 24.0186 50.6704C24.0272 50.4521 23.7852 50.8388 23.7849 50.926ZM22.6541 50.6226C22.6841 50.8666 23.0616 50.1067 22.864 50.2033C22.8526 50.2087 22.6523 50.6084 22.6541 50.6226ZM26.9794 28.2616C26.9848 28.2557 26.9464 28.1959 26.9392 28.1996C26.768 28.2901 26.8447 28.4092 26.9794 28.2616ZM21.5021 50.2958C21.4872 50.4167 21.6579 50.3537 21.6735 50.2021C21.6852 50.0797 21.5206 50.1454 21.5021 50.2958ZM36.8876 50.5822C36.8964 50.5842 36.9213 50.5406 36.8736 50.5241C36.7202 50.4713 36.7398 50.5492 36.8876 50.5822ZM19.7497 49.3906C19.9982 49.562 19.8281 50.2655 19.5756 50.0397C19.53 49.9988 19.7949 49.9043 19.7582 49.8126C19.6914 49.6457 19.3996 49.9879 19.3868 49.7121C19.3851 49.662 19.7366 49.3797 19.7507 49.39C19.7503 49.3902 19.75 49.3904 19.7497 49.3906ZM33.7269 53.4276C33.73 53.4351 33.798 53.425 33.7989 53.4165C33.7844 53.224 33.6499 53.2437 33.7269 53.4276ZM37.6575 47.7149C37.6746 47.7107 37.6829 47.5425 37.6668 47.5375C37.353 47.4692 37.3349 47.7988 37.6575 47.7149ZM28.9947 53.7814C28.8823 53.9535 28.7857 53.956 28.7769 53.7085C28.8487 53.7372 28.9229 53.7548 28.9947 53.7814ZM24.3694 0.204638C24.537 0.207096 24.7065 0.325306 24.8147 0.444594C24.85 0.482207 24.7928 0.574428 24.816 0.605054C24.8606 0.66455 24.941 0.637928 24.982 0.704666C24.9945 0.726953 24.9155 0.877074 24.9299 0.896826C25.0096 1.00403 25.1296 1.00167 25.2375 1.07864C25.646 1.38155 26.0641 1.60974 26.4997 1.84259C26.5897 1.89079 26.6752 1.93714 26.7658 1.98608C26.9413 2.08048 27.1065 2.30827 27.3163 2.31921C27.3411 2.32046 27.3821 2.17816 27.3907 2.16849C27.5246 2.02133 27.3936 2.28959 27.4221 2.34332C27.5414 2.55824 27.7129 2.64127 27.899 2.65493C27.9776 2.66004 28.0175 2.36043 28.026 2.5411C28.0268 2.55336 27.9505 2.69137 27.9633 2.71455C27.9924 2.76679 28.0854 2.7743 28.1147 2.79959C28.169 2.84832 28.1795 2.85091 28.2387 2.87702C28.319 2.91394 28.3873 3.02608 28.4897 3.03001C28.5118 3.03042 28.5479 2.87172 28.5886 2.85903C28.6294 2.84636 28.705 2.89241 28.7177 2.93871C28.7305 2.985 28.6704 3.09661 28.6642 3.12531C28.6111 3.36747 28.8306 3.09293 28.8462 3.0904C28.9018 3.08179 28.9508 3.08596 28.9953 3.09873C29.1657 3.14761 29.2712 3.32396 29.4309 3.39206C29.5835 3.45668 29.773 3.46957 29.9162 3.54191C30.0873 3.62892 30.1965 3.77246 30.3713 3.83444C30.3896 3.84114 30.446 3.65965 30.4686 3.66752C30.7098 3.75171 30.9295 3.87461 31.1047 4.0965C31.1222 4.11888 31.0229 4.25537 31.0361 4.28669C31.1066 4.44711 31.174 4.75945 31.4339 4.47286C31.4796 4.42252 31.5313 4.35372 31.5901 4.26235C31.6727 4.3329 31.7751 4.41444 31.7958 4.58607C31.8092 4.69656 31.6778 4.83333 31.7777 4.79633C31.8002 4.78819 31.8499 4.63663 31.8785 4.6352C31.9988 4.6295 32.0802 4.72677 32.2102 4.70016C32.2369 4.69443 32.2947 4.56503 32.3114 4.54489C32.4492 4.38274 32.3728 4.72618 32.3779 4.75651C32.4204 4.98478 32.5423 4.96499 32.658 5.02935C32.6846 5.04426 32.7393 4.85857 32.7681 4.86688C32.9163 4.91232 33.049 4.99988 33.1404 5.1437C33.1605 5.17608 33.058 5.30514 33.0636 5.32792C33.0894 5.42658 33.2459 5.16323 33.2748 5.25363C33.281 5.27229 33.2084 5.39079 33.2035 5.40545C33.1261 5.63522 33.3171 5.35326 33.33 5.35168C33.4948 5.32441 33.399 5.67508 33.5324 5.69145C33.5486 5.69315 33.6038 5.52311 33.6443 5.53735C33.7528 5.5751 33.8562 5.6286 33.9542 5.69758C34.0984 5.79919 34.224 5.93111 34.3232 6.08755C34.3499 6.12855 34.2556 6.22581 34.2496 6.24118C34.1584 6.48238 34.3576 6.20513 34.3767 6.20165C34.5223 6.18138 34.4624 6.47912 34.7398 6.17412C35.0697 6.54288 35.602 6.6219 35.7767 7.20098C35.779 7.20788 35.6711 7.33657 35.676 7.34969C35.7316 7.50798 35.8681 7.28513 36.1398 7.09139C36.2092 7.04361 36.0348 7.39477 36.022 7.42063C35.9771 7.51728 35.8046 7.69893 35.7985 7.71969C35.7515 7.88341 36.2519 7.22795 36.3241 7.28496C36.3254 7.28778 36.2216 7.39904 36.218 7.41553C36.2162 7.42404 36.2161 7.43025 36.2173 7.43493C36.2231 7.45866 36.2599 7.44354 36.2472 7.48937C36.2122 7.61659 35.9699 7.93581 36.1785 7.80588C36.2058 7.78932 36.4926 7.41921 36.5434 7.49092C36.5636 7.51957 36.6806 7.6101 36.6906 7.65995C36.7009 7.7096 36.5798 7.80356 36.5777 7.81043C36.524 8.02983 36.4384 8.06421 36.277 8.31613C36.1138 8.56538 36.5792 8.04105 36.6482 7.99829C36.7157 7.95432 36.6634 8.13105 36.6372 8.18531C36.6116 8.24001 36.5279 8.29234 36.5177 8.32747C36.4498 8.55627 36.7962 8.11297 36.9018 8.0606C37.1546 7.94016 36.8345 8.35671 36.8486 8.44616C36.853 8.47095 36.9276 8.37739 36.9487 8.38376C37.0297 8.40878 36.9444 8.55609 37.115 8.526C37.142 8.52008 37.4317 8.37837 37.2853 8.56209C37.2638 8.58809 37.1517 8.65546 37.1499 8.69938C37.1477 8.76575 37.1759 8.84848 37.2432 8.86716C37.294 8.88239 37.4381 8.71751 37.4166 8.80101C37.4064 8.83769 37.279 8.87416 37.2675 8.93588C37.2559 8.99689 37.3197 9.08256 37.3445 9.11494C37.3696 9.1469 37.4981 9.04697 37.5092 9.04404C37.5742 9.0297 37.6868 9.06714 37.6904 9.07448C37.8707 9.36155 37.8088 9.69174 37.8202 9.95424C37.8237 10.0245 37.8341 10.0933 37.857 10.1628C37.8654 10.1895 38.0347 10.1567 38.0377 10.1606C38.1138 10.253 37.6573 10.2122 37.5071 10.2818C37.8531 10.253 37.792 10.2912 37.8288 10.3597C37.8466 10.3924 37.9814 10.3725 37.9951 10.3752C38.1979 10.4275 37.9317 10.4656 37.8772 10.4712C37.6768 10.4974 37.9077 10.5423 37.7729 10.5575C37.6394 10.5683 37.45 10.5118 37.4458 10.5665C37.5673 10.5952 37.8968 10.573 37.9427 10.63C38.1196 10.8794 37.7513 11.2045 37.6645 11.3097C37.5772 11.4357 37.5726 11.4875 37.4906 11.5408C37.361 11.6197 37.5194 11.6876 37.5873 11.8013C37.5975 11.8185 37.6055 11.8368 37.6098 11.8563C37.6402 12.0057 37.1865 11.6212 37.0745 11.5595C36.9642 11.4953 37.063 11.5821 36.9977 11.5529C36.933 11.5229 36.8811 11.4476 36.8408 11.4579C36.8028 11.4661 36.9234 11.678 37.0169 11.7731C37.2162 11.974 37.4756 12.1257 37.3256 12.1417C37.317 12.1423 37.212 12.0259 37.1851 12.0329C36.9757 12.0914 36.8449 12.2091 36.6455 12.2433C36.6182 12.2475 36.5199 12.1035 36.503 12.1043C36.3301 12.1065 36.5566 12.2967 36.6996 12.599C36.4407 12.2531 36.2433 12.0745 36.1652 12.1314C36.117 12.1659 36.2381 12.3105 36.285 12.4411C36.2989 12.4807 36.1874 12.4018 36.2329 12.4782C36.3798 12.7292 36.6049 12.9676 36.4346 12.9294C36.427 12.9273 36.3495 12.788 36.3299 12.7899C36.238 12.798 36.296 12.9353 36.3013 13.0493C36.303 13.0928 36.2986 13.1318 36.2753 13.1587C36.2088 13.2359 35.965 13.1672 35.8585 13.1927C35.6193 12.7708 35.5941 12.9126 35.7183 13.2257C35.6515 13.2467 35.5943 13.2985 35.5138 13.288C35.4865 13.2843 35.4354 13.1526 35.4259 13.1404C35.2797 12.948 35.4019 13.2507 35.3942 13.2689C35.3068 13.4514 35.0841 13.2838 35.0479 13.5645C35.0467 13.5745 35.176 13.8859 35.0383 13.6778C35.0292 13.6633 35.0124 13.5031 34.9428 13.5209C34.886 13.5355 34.7475 13.4636 34.6828 13.5321C34.6677 13.5481 34.6563 13.5716 34.6504 13.6058C34.6434 13.6493 34.6891 13.926 34.5645 13.7456C34.5478 13.721 34.5185 13.6286 34.4901 13.582C34.3997 13.4336 34.5092 13.7565 34.3713 13.4997C34.2332 13.243 34.0926 13.0652 34.0742 13.2851C34.0735 13.2916 34.1464 13.5525 34.1162 13.5591C34.0681 13.5693 33.9844 13.5398 33.9376 13.5582C33.9151 13.5672 33.9856 13.7201 33.9827 13.7244C33.8576 13.868 33.6984 13.7641 33.5124 13.756C33.4785 13.7541 33.4585 14.0003 33.3455 13.8461C33.2225 13.6769 33.0464 12.8704 32.9606 13.1012C32.9468 13.1371 32.9721 13.3129 32.9921 13.4864C33.0241 13.7602 33.0411 14.029 32.8843 13.7294C32.7079 13.9189 32.4478 13.7018 32.2803 13.9413C32.273 13.9518 32.3133 14.2421 32.2897 14.2439C32.2547 14.2459 32.2041 14.1181 32.1785 14.1151C32.0666 14.1001 32.0007 14.2354 31.9009 14.2397C31.8627 14.2417 31.8458 14.1011 31.7987 14.1038C31.7523 14.1063 31.7627 14.294 31.6835 14.2198C31.6337 14.1725 31.5388 13.9143 31.4707 13.8113C31.457 13.7907 31.4445 13.7763 31.4334 13.7711C31.5092 14.1372 31.4648 14.1389 31.4113 14.2508C31.401 14.2725 31.4426 14.3967 31.4391 14.4136C31.4252 14.4849 31.3784 14.3845 31.3675 14.4612C31.3648 14.4796 31.39 14.6048 31.3892 14.627C31.3839 14.8199 31.2542 14.5529 31.2311 14.5065C31.1456 14.3298 31.1554 14.4971 31.1048 14.4307C31.0548 14.3642 31.0906 14.2621 31.0404 14.2255C30.944 14.1485 30.8219 14.1921 30.7391 14.2008C30.7051 14.2053 30.7579 14.369 30.7537 14.3736C30.6861 14.4295 30.5785 14.264 30.5968 14.6051C30.4055 13.7472 30.5653 14.6969 30.4296 14.5409C30.419 14.5282 30.3432 14.12 30.3644 14.0548C30.3838 13.9901 30.4612 14.1088 30.4844 14.0086C30.4903 13.985 30.4821 13.5919 30.486 13.5673C30.5165 13.3752 30.6337 13.9843 30.643 14.0173C30.7478 14.3722 30.7411 13.9477 30.7555 13.9156C30.818 13.7694 30.9107 13.8407 30.9612 13.7346C30.9963 13.6655 30.9232 13.2658 30.9621 13.2708C31.0937 13.2867 31.2434 13.8346 31.2605 13.329C31.2637 13.2212 31.1479 12.7919 31.3075 13.115C31.3099 13.1201 31.3198 13.1425 31.3332 13.1701C31.3733 13.2532 31.4463 13.3828 31.4417 13.2286C31.4409 13.2027 31.413 13.0763 31.4168 13.0643C31.4424 12.9867 31.4921 13.0813 31.5267 13.0229C31.5628 12.9641 31.5965 12.8809 31.6567 12.912C31.6925 12.9306 31.787 13.1561 31.8156 13.21C31.8969 13.3655 31.8772 13.0834 31.9519 13.2772C32.0274 13.4718 32.0497 13.7899 32.1511 13.9029C32.0737 13.5756 31.9972 13.239 31.9205 12.9097C32.067 12.8859 32.2443 12.9525 32.3846 12.8992C32.4022 12.8922 32.3364 12.7228 32.3539 12.7108C32.4273 12.6611 32.5355 12.7647 32.604 12.6918C32.6414 12.6518 32.6613 12.5405 32.6875 12.4543C32.699 12.4167 32.7117 12.3839 32.7278 12.3638C32.8801 12.7199 32.9416 12.5647 33.0241 12.5755C33.0531 12.5792 33.0824 12.6777 33.1107 12.7039C33.2171 12.8001 33.0812 12.4865 33.0834 12.4296C33.0918 12.1869 33.337 12.9165 33.4276 12.8663C33.4329 12.8637 33.3623 12.4545 33.3618 12.4277C33.3601 12.2521 33.4167 12.5598 33.4597 12.5771C33.538 12.6086 33.614 12.6858 33.6438 12.5474C33.6527 12.5063 33.6132 12.2487 33.7207 12.4198C33.7349 12.4421 33.7791 12.5703 33.7861 12.5762C33.9092 12.6716 33.7611 12.2719 33.7513 12.1213C33.7409 11.9709 33.9116 12.2199 33.9566 12.2932C34.0724 12.4832 33.9642 12.391 33.9702 12.4117C34.0409 12.659 34.0739 12.5988 34.1193 12.6039C34.2795 12.9899 34.3246 12.9447 34.1658 12.6076C34.1485 12.5708 34.1339 12.6187 34.1193 12.6039C34.0016 12.2128 34.0323 12.1415 34.2373 12.4612C34.2388 12.4636 34.2403 12.4659 34.2418 12.4683C34.3402 12.6217 34.3931 12.8268 34.4545 12.7175C34.4821 12.6681 34.3527 12.4106 34.3565 12.3235C34.3638 12.1254 34.574 12.3249 34.638 12.2479C34.6606 12.2203 34.565 12.0913 34.5779 12.0676C34.611 12.0046 34.708 12.0888 34.7322 12.0091C34.7342 12.0018 34.6496 11.8598 34.6641 11.8502C34.7707 11.7753 34.9224 11.8144 35.0397 11.751C35.0972 11.7201 35.1492 11.5832 35.2118 11.5651C35.2431 11.5557 35.2843 11.5596 35.3298 11.5664C35.445 11.584 35.5842 11.6226 35.6138 11.5489C35.6408 11.4826 35.5311 11.3585 35.4826 11.2543C35.3856 11.0549 35.6885 11.3113 35.7381 11.3485C35.74 11.3496 35.7256 11.4115 35.8 11.4601C35.9244 11.5861 35.7384 11.3492 35.7381 11.3485C35.7686 11.3744 35.8688 11.338 35.8622 11.3008C35.8586 11.281 35.7496 11.1688 35.7495 11.1609C35.7463 10.9752 35.785 10.8771 35.9024 10.849C35.906 10.8497 36.0396 10.9622 36.0465 10.9621C36.1479 10.9602 36.0014 10.7977 35.9165 10.6967C35.9122 10.6915 35.9082 10.6865 35.9046 10.6818C35.8371 10.596 35.8899 10.6103 36.1496 10.7291C36.1314 10.6846 36.2676 10.7087 36.3531 10.7144C36.4386 10.7197 36.1256 10.5861 36.1199 10.5824C35.9396 10.4538 36.1245 10.5074 36.1632 10.4853C36.1814 10.4767 36.1399 10.4459 36.1066 10.4214C36.0796 10.4039 36.1611 10.3855 36.1114 10.3628C36.1048 10.3598 35.9533 10.3723 35.9475 10.3716C35.768 10.3591 36.1369 10.3441 36.2031 10.3329C36.4431 10.2886 36.5703 10.2516 36.4525 10.2053C36.4339 10.1975 36.176 10.2088 36.0056 10.2135C35.9286 10.2182 35.8697 10.2219 35.8591 10.2191C35.816 10.2086 36.0063 10.1833 35.9551 10.1726C35.9509 10.1718 35.835 10.1932 35.8366 10.1831C35.8414 10.1366 35.8865 10.0901 35.8594 10.0717C35.8562 10.0695 35.6854 10.1436 35.6788 10.1435C35.6473 10.1433 35.6504 10.1378 35.6991 10.0549C35.7114 10.0341 35.8237 9.9661 35.8545 9.94237C36.0376 9.79389 35.7392 9.96467 35.7324 9.96649C35.5372 9.97847 35.6822 9.67237 35.4603 9.6548C35.4464 9.65282 35.1393 9.86306 35.3363 9.61656C35.35 9.60064 35.549 9.34568 35.3741 9.48259C35.3634 9.49134 35.2642 9.6254 35.2493 9.58789C35.2328 9.54902 35.1195 9.59457 35.2037 9.42568C35.231 9.3731 35.4141 9.10655 35.2068 9.2648C35.1912 9.27473 34.7577 9.66374 34.9954 9.34271C35.0344 9.28983 35.311 8.97085 35.1226 9.09524C35.0864 9.11969 35.0429 9.2059 34.981 9.23089C34.8928 9.26935 34.9104 9.15789 34.7731 9.2411C34.7658 9.24556 34.7581 9.2506 34.7499 9.25624C34.721 9.2757 34.5111 9.47474 34.6185 9.28281C34.6352 9.25266 34.7302 9.14811 34.7253 9.12429C34.7028 9.01074 34.5664 9.0256 34.5535 8.89497C34.5481 8.84842 34.6964 8.67482 34.7048 8.60528C34.7132 8.5358 34.6899 8.44648 34.5992 8.50962C34.5088 8.57305 34.3304 8.89155 34.2699 8.88417C34.0017 8.84893 33.9387 8.5506 33.745 8.38938C33.7168 8.36583 33.6724 8.4915 33.6259 8.46482C33.4611 8.37061 33.1074 8.29794 33.0994 7.97385C33.0924 7.71342 33.3279 7.65646 33.2815 7.52503C33.2582 7.46166 32.9979 7.79856 32.9808 7.804C32.8764 7.83814 32.8426 7.77674 32.8039 7.72182C32.7789 7.68619 32.7518 7.65335 32.7026 7.6516C32.6768 7.65075 32.6126 7.81084 32.5917 7.80852C32.5206 7.80265 32.4983 7.70287 32.4367 7.68483C32.409 7.67711 32.3505 7.794 32.3328 7.77277C32.2897 7.72327 32.2681 7.64892 32.2729 7.51225C32.2733 7.49977 32.3839 7.37491 32.3459 7.34742C32.2845 7.30353 32.2576 7.15199 32.1226 7.2215C32.0824 7.24262 31.9419 7.50597 31.99 7.29818C31.9999 7.25477 32.1802 6.94454 31.979 7.18861C31.9451 7.2289 31.6568 7.54943 31.7344 7.28633C31.7548 7.21705 31.858 6.94013 31.809 6.96671C31.8019 6.97131 31.7432 7.12148 31.7132 7.12358C31.609 7.12861 31.5313 7.06963 31.4261 7.0726C31.3979 7.07369 31.3556 7.23827 31.316 7.23522C31.2073 7.22711 31.1135 7.13285 31.0474 7.04212C31.0232 7.00839 31.107 6.8965 31.1113 6.88192C31.1806 6.64473 31.012 6.92774 30.9908 6.93864C30.8607 7.00229 30.8674 6.83384 30.7761 6.83476C30.751 6.83465 30.6969 6.98246 30.6868 6.99305C30.5854 7.09548 30.7394 6.85766 30.7264 6.81689C30.6903 6.70182 30.6014 6.67294 30.5171 6.6548C30.486 6.64835 30.4389 6.82708 30.412 6.81943C30.3843 6.81219 30.3571 6.80359 30.3305 6.79351C30.2024 6.745 30.0877 6.66215 30.0025 6.53109C29.9832 6.50098 30.0594 6.38221 30.0671 6.3506C30.1218 6.12962 29.9356 6.37926 29.9103 6.39955C29.7944 6.49202 29.8228 6.36899 29.7598 6.36546C29.4521 6.35051 29.161 6.1303 28.9336 5.97518C28.632 5.77163 28.4366 5.54286 28.106 5.44055C28.0853 5.43402 28.033 5.61383 28.0143 5.61041C27.9911 5.60537 27.9684 5.59934 27.9461 5.59252C27.7427 5.53068 27.5606 5.39604 27.3428 5.35908C27.323 5.3554 27.2823 5.52925 27.2485 5.52887C27.1786 5.52922 27.1072 5.4897 27.0687 5.41329C27.049 5.37598 27.1464 5.25225 27.125 5.21745C27.0754 5.13604 27.0043 5.09374 26.9218 5.09097C26.8865 5.09016 26.8653 5.27601 26.8248 5.26196C26.554 5.17225 26.2677 5.09228 26.0847 4.77032C26.0719 4.74811 26.1898 4.40068 26.1236 4.45035C26.0836 4.54394 26.0404 4.65553 25.9997 4.75633C25.8069 4.70959 25.637 4.63238 25.4703 4.54536C25.2492 4.43232 25.0704 4.31857 24.8385 4.22087C24.8219 4.21386 24.7835 4.40673 24.751 4.39412C24.5725 4.32479 24.3565 4.30283 24.2374 4.05433C24.2255 4.02995 24.351 3.71206 24.2798 3.74124C24.2659 3.74622 24.1601 3.75647 24.113 3.81834C24.1062 3.82777 24.068 3.98352 24.0384 3.9778C23.8768 3.94539 23.7099 3.84738 23.5923 3.70279C23.5739 3.67932 23.6554 3.52799 23.6428 3.5099C23.5268 3.37364 23.3661 3.45443 23.2807 3.26217C23.2443 3.13999 23.3528 2.8669 23.4031 2.57879C23.4063 2.53685 23.3694 2.51754 23.4177 2.35644C23.5472 1.95398 23.7186 1.52331 23.8535 1.09329C23.8641 0.9944 23.7867 1.07876 23.8852 0.864382C23.8919 0.850051 23.9811 0.797973 24.0122 0.724528C24.0384 0.675359 24.0775 0.50809 24.1182 0.447513C24.1584 0.386869 24.1387 0.531529 24.2 0.465057C24.2538 0.394949 24.3029 0.206146 24.3694 0.204638ZM36.7383 10.7122C36.9044 10.7278 36.3299 10.5607 36.4605 10.6228C36.4675 10.6261 36.7301 10.7112 36.7383 10.7122ZM32.3558 13.3892C32.4833 13.6285 32.4251 13.2424 32.3306 13.0567C32.2372 12.8709 32.3176 13.3165 32.3558 13.3892ZM31.7642 13.7323C31.8825 13.9186 31.7014 13.0898 31.6657 13.274C31.6636 13.2844 31.7573 13.7215 31.7642 13.7323ZM23.642 2.57371C23.6435 2.56582 23.605 2.54434 23.6018 2.55159C23.5182 2.72369 23.5946 2.76628 23.642 2.57371ZM31.1639 14.0748C31.2123 14.1822 31.2485 14.0398 31.1932 13.9054C31.1509 13.7969 31.1059 13.9408 31.1639 14.0748ZM36.6372 8.64754C36.6432 8.64091 36.63 8.61519 36.5938 8.65029C36.4774 8.76335 36.5362 8.75895 36.6372 8.64754ZM30.0612 14.2742C30.2254 14.283 30.4311 14.9599 30.2377 14.9091C30.2013 14.9 30.2789 14.6771 30.2272 14.6209C30.128 14.5192 30.1389 14.9621 30.03 14.7385C30.0052 14.6983 30.0459 14.2731 30.0613 14.2732C30.0612 14.2735 30.0612 14.2738 30.0612 14.2742ZM37.4318 10.9015C37.4397 10.9029 37.4581 10.8667 37.4507 10.8636C37.2728 10.7953 37.2385 10.8591 37.4318 10.9015ZM35.593 7.26943C35.6013 7.25449 35.5341 7.18677 35.5224 7.19763C35.3032 7.42252 35.4349 7.55743 35.593 7.26943ZM35.8507 13.1823C35.9057 13.3709 35.8657 13.4189 35.7186 13.2258C35.7645 13.2152 35.8053 13.1946 35.8507 13.1823ZM50.9324 31.623C51.042 31.6498 51.1032 31.7778 51.1265 31.9002C51.1339 31.9384 51.0521 32.0076 51.0541 32.0375C51.0581 32.096 51.1209 32.082 51.1199 32.1467C51.1192 32.1685 50.9951 32.2829 50.9969 32.3029C51.0076 32.4113 51.0921 32.4289 51.1283 32.5087C51.3025 32.8983 51.5524 33.2061 51.796 33.5298C51.8774 33.6373 51.8907 33.8553 52.0367 33.8983C52.0538 33.9033 52.1462 33.788 52.1566 33.7811C52.3174 33.6761 52.1049 33.885 52.1011 33.9351C52.0867 34.1335 52.1772 34.2352 52.3017 34.2727C52.3024 34.273 52.3032 34.2731 52.304 34.2732C52.3595 34.2814 52.516 34.0417 52.4423 34.1942C52.4373 34.2047 52.3217 34.3111 52.3204 34.3326C52.3181 34.3816 52.3809 34.4016 52.3902 34.4273C52.4078 34.4772 52.4145 34.4813 52.4457 34.5128C52.4873 34.5567 52.4865 34.6624 52.5577 34.6804C52.5732 34.6839 52.6696 34.5543 52.7043 34.5494C52.7389 34.5445 52.772 34.5941 52.7603 34.6351C52.7486 34.676 52.6562 34.7622 52.6389 34.7857C52.4924 34.9828 52.7736 34.7834 52.7857 34.7834C52.9996 34.7892 52.9657 35.0226 53.0726 35.1239C53.155 35.2016 53.2868 35.2402 53.358 35.3211C53.4425 35.4182 53.4585 35.5552 53.5588 35.6326C53.5692 35.6408 53.6903 35.4953 53.7033 35.5051C53.8416 35.6101 53.9462 35.7426 53.9778 35.9544C53.9807 35.9757 53.8479 36.0772 53.8438 36.1054C53.8218 36.2758 53.703 36.6208 54.2601 36.1588C54.2893 36.2286 54.3297 36.3114 54.2696 36.4581C54.2366 36.539 54.1169 36.622 54.1395 36.6331C54.1433 36.635 54.1511 36.6348 54.1641 36.6322C54.1842 36.6283 54.2874 36.5076 54.309 36.5102C54.4003 36.5211 54.4174 36.6127 54.525 36.6068C54.5471 36.6053 54.6465 36.5044 54.6677 36.4897C54.8404 36.3712 54.6338 36.6491 54.6244 36.6752C54.5563 36.8716 54.6563 36.8712 54.7135 36.9384C54.7267 36.954 54.8484 36.8058 54.8661 36.8162C54.9563 36.872 55.0166 36.9603 55.0234 37.0916C55.0245 37.1211 54.8918 37.2163 54.8862 37.236C54.863 37.3213 55.0945 37.121 55.0766 37.199C55.0731 37.2152 54.9676 37.3053 54.9575 37.3169C54.8001 37.4989 55.065 37.2864 55.0753 37.2865C55.2103 37.2823 54.9872 37.5624 55.0808 37.5909C55.0924 37.5942 55.2068 37.4591 55.2313 37.4755C55.3957 37.5843 55.4945 37.7671 55.5134 38.0011C55.5165 38.0373 55.4037 38.1087 55.3927 38.1209C55.2217 38.3109 55.49 38.1008 55.506 38.0996C55.6251 38.0956 55.4556 38.3354 55.7952 38.1085C55.8774 38.3756 56.1376 38.4904 56.1969 38.7721C56.2114 38.8413 56.2135 38.9205 56.1975 39.0141C56.1968 39.0198 56.0626 39.1205 56.0617 39.1315C56.0495 39.2652 56.2393 39.0859 56.527 38.9349C56.5994 38.8971 56.3316 39.1774 56.3122 39.1983C56.2413 39.2758 56.0373 39.4199 56.0249 39.4367C55.9289 39.5692 56.5661 39.046 56.6035 39.092C56.6036 39.0943 56.4805 39.1834 56.4718 39.1967C56.4445 39.2383 56.501 39.2124 56.4697 39.2568C56.3969 39.3593 56.0914 39.6187 56.306 39.5139C56.3338 39.5002 56.6932 39.2007 56.7089 39.256C56.7148 39.2781 56.779 39.3464 56.7714 39.3857C56.7638 39.425 56.6343 39.5041 56.6303 39.5096C56.5169 39.6878 56.4355 39.7179 56.2246 39.9271C56.0143 40.1352 56.5605 39.6957 56.6309 39.6588C56.7012 39.622 56.6029 39.7633 56.5654 39.8082C56.5279 39.8531 56.4428 39.8997 56.424 39.9283C56.3019 40.1156 56.7187 39.7404 56.8215 39.6914C57.0654 39.576 56.6814 39.9294 56.6727 40.0017C56.6704 40.0214 56.7573 39.9401 56.7738 39.9434C56.838 39.9576 56.7273 40.0801 56.8802 40.0354C56.9051 40.028 57.1821 39.876 57.0173 40.0383C56.9934 40.0616 56.8829 40.1302 56.8726 40.1647C56.857 40.2163 56.8687 40.2789 56.9239 40.2803C56.9647 40.2813 57.1181 40.1301 57.0842 40.1954C57.069 40.2245 56.9533 40.2783 56.933 40.3267C56.9126 40.3749 56.9573 40.4257 56.9761 40.4438C56.9949 40.4618 57.1166 40.354 57.1266 40.3492C57.1843 40.322 57.2767 40.3156 57.2791 40.3193C57.4262 40.4852 57.3246 40.8102 57.5218 40.9316C57.5371 40.9412 57.6698 40.8332 57.6736 40.8337C57.7652 40.8392 57.3688 41.0651 57.2678 41.1854C57.5472 40.9803 57.5097 41.0358 57.564 41.0469C57.5904 41.0521 57.694 40.9661 57.7062 40.9596C57.8895 40.8659 57.686 41.0341 57.6449 41.0693C57.4939 41.1989 57.6974 41.0814 57.5965 41.1682C57.4964 41.2542 57.3197 41.3417 57.3439 41.3718C57.4517 41.3096 57.7007 41.1 57.7607 41.0941C57.8541 41.0849 57.8942 41.1336 57.9109 41.2002C57.934 41.2944 57.909 41.4249 57.9258 41.4771C57.9544 41.5657 57.9895 41.5769 57.9817 41.6452C57.9673 41.7688 58.1473 41.6056 58.2717 41.5932C58.3958 41.5805 57.8884 41.8865 57.7874 41.9643C57.6864 42.0418 57.8 41.9763 57.7475 42.0236C57.6951 42.0708 57.6111 42.1009 57.6024 42.1351C57.5937 42.1691 57.8177 42.0973 57.9332 42.0308C58.1777 41.8896 58.4075 41.7011 58.3564 41.8119C58.3532 41.8183 58.217 41.8945 58.2117 41.9148C58.1733 42.0736 58.231 42.175 58.2029 42.3259C58.1987 42.3467 58.0462 42.4298 58.0421 42.4429C57.9989 42.5796 58.2259 42.3932 58.5256 42.2595C58.1572 42.4844 57.9506 42.651 57.9859 42.7105C58.007 42.7464 58.1616 42.6384 58.2881 42.5895C58.3262 42.5748 58.2333 42.6697 58.3108 42.6264C58.5645 42.4853 58.8223 42.2866 58.753 42.4178C58.7495 42.4238 58.6104 42.5006 58.6082 42.515C58.5936 42.609 58.854 42.4538 58.9267 42.5C58.9832 42.5354 58.8838 42.7245 58.8947 42.7985C58.4827 43.0546 58.6107 43.0499 58.9087 42.8956C58.9206 42.9408 58.9622 42.9719 58.9457 43.0331C58.9401 43.0541 58.8155 43.1196 58.8036 43.1292C58.6161 43.2787 58.9032 43.1243 58.9192 43.126C59.0795 43.1498 58.9125 43.3493 59.17 43.3089C59.1792 43.3074 59.4702 43.1374 59.2737 43.2879C59.2601 43.2981 59.112 43.3496 59.1261 43.3957C59.1403 43.442 59.0312 43.6106 59.1986 43.5862C59.2389 43.5802 59.4945 43.4747 59.3273 43.6114C59.3045 43.6299 59.2192 43.6756 59.1762 43.7084C59.0391 43.813 59.337 43.6476 59.1003 43.8156C58.9108 43.9501 58.7691 44.074 58.8252 44.094C58.8391 44.099 58.8653 44.0976 58.906 44.0884C58.9121 44.0871 59.1521 43.9627 59.1588 43.9824C59.1694 44.0141 59.1445 44.0826 59.1633 44.1111C59.1725 44.1247 59.3116 44.0307 59.3157 44.0316C59.4523 44.0785 59.3649 44.225 59.3664 44.3568C59.3665 44.3813 59.5952 44.32 59.4596 44.4466C59.3111 44.585 58.575 44.9559 58.7966 44.9478C58.8852 44.9446 59.818 44.4723 59.3866 44.8077C59.5778 44.8722 59.4015 45.1229 59.6412 45.1587C59.6518 45.1604 59.9163 45.0362 59.9205 45.0519C59.9264 45.0755 59.8138 45.1532 59.8141 45.1722C59.8125 45.2533 59.9456 45.2528 59.9628 45.3212C59.9693 45.3464 59.8419 45.407 59.8495 45.4371C59.8573 45.467 60.0292 45.3948 59.9706 45.4739C59.9258 45.534 59.6087 45.7439 59.5897 45.8009C59.918 45.622 59.9248 45.6504 60.0356 45.6471C60.057 45.6464 60.1661 45.5747 60.1821 45.5711C60.2499 45.5553 60.1637 45.6223 60.2363 45.6028C60.2537 45.5982 60.3658 45.5371 60.3864 45.5299C60.5659 45.4661 60.3378 45.6477 60.298 45.6791C60.1469 45.7988 60.3001 45.7328 60.2465 45.7907C60.1928 45.8485 60.0927 45.8602 60.0669 45.9077C60.014 46.0069 60.0678 46.0629 60.0915 46.1191C60.1016 46.1411 60.2438 46.0456 60.2487 46.0469C60.3105 46.0704 60.1749 46.2009 60.4871 46.0648C59.7305 46.5111 60.5765 46.0511 60.4559 46.1981C60.4461 46.2098 60.0836 46.4122 60.0196 46.4218C59.9557 46.4315 60.0545 46.3411 59.9566 46.3596C59.9335 46.3638 59.5718 46.5125 59.5485 46.5189C59.366 46.5683 59.909 46.2685 59.9379 46.2503C60.2491 46.0527 59.8568 46.2083 59.8253 46.2108C59.6806 46.2221 59.7328 46.1356 59.6253 46.1361C59.5557 46.1362 59.1974 46.3278 59.196 46.2993C59.1912 46.2047 59.6738 45.9059 59.2043 46.0719C59.1042 46.1073 58.7232 46.3361 58.9997 46.1143C59.0172 46.1004 59.275 45.9064 59.0854 45.981C59.0615 45.9904 58.9483 46.0531 58.9367 46.0545C58.8611 46.0632 58.942 45.9964 58.8836 45.9928C58.8251 45.9891 58.7427 45.9924 58.763 45.9385C58.7752 45.9065 58.9721 45.7644 59.0185 45.7264C59.1524 45.6174 58.8933 45.7253 59.0641 45.6087C59.2356 45.4913 59.5279 45.3701 59.6205 45.2617C59.3262 45.4243 59.023 45.5892 58.7265 45.7519C58.6849 45.6533 58.7285 45.5092 58.6636 45.4248C58.6553 45.4145 58.5046 45.5153 58.4916 45.5066C58.4382 45.4705 58.5234 45.3597 58.4481 45.3314C58.3891 45.3096 58.1969 45.3592 58.1303 45.3402C58.4487 45.122 58.2985 45.1228 58.3022 45.059C58.3033 45.0367 58.3928 44.9863 58.4151 44.958C58.4971 44.8522 58.2149 45.0433 58.1617 45.0583C57.9347 45.1221 58.598 44.7318 58.5453 44.6792C58.5427 44.6762 58.1653 44.8436 58.1402 44.8512C57.9762 44.9009 58.26 44.7733 58.2735 44.7363C58.2981 44.6688 58.3663 44.5916 58.2356 44.6065C58.197 44.6111 57.958 44.7093 58.1129 44.5827C58.1332 44.5661 58.2509 44.4988 58.2562 44.492C58.294 44.4395 58.2411 44.4539 58.1585 44.4899C58.0569 44.5343 57.9103 44.6114 57.8326 44.6367C57.692 44.6825 57.9189 44.4887 57.9864 44.4363C58.1608 44.3008 58.0774 44.406 58.0966 44.3962C58.3253 44.2797 58.2685 44.2705 58.2725 44.2351C58.6291 44.0175 58.5865 43.9951 58.2751 44.199C58.2411 44.2213 58.2861 44.2206 58.2725 44.2351C57.908 44.4242 57.8405 44.4136 58.1436 44.1744C58.2856 44.0622 58.476 43.9727 58.3744 43.9525C58.3285 43.9434 58.0886 44.1026 58.0072 44.1195C57.8216 44.1583 58.0086 43.9494 57.9388 43.9163C57.9135 43.9043 57.791 44.0059 57.7691 44.0006C57.7106 43.9869 57.792 43.8936 57.7181 43.889C57.7112 43.8886 57.5758 43.9831 57.567 43.9729C57.4976 43.8967 57.5411 43.7665 57.488 43.676C57.4623 43.6323 57.3374 43.6045 57.3252 43.551C57.3031 43.4585 57.4441 43.2338 57.353 43.1997C57.2942 43.1771 57.1616 43.2756 57.0555 43.3182C56.85 43.4013 57.1379 43.1282 57.183 43.0869C57.1845 43.0855 57.2407 43.1008 57.2992 43.0354C57.4398 42.9282 57.1839 43.0868 57.183 43.0869C57.2122 43.0601 57.1965 42.9673 57.1606 42.97C57.141 42.9715 57.0131 43.0613 57.0053 43.0604C56.8243 43.0388 56.7278 42.9645 56.7239 42.8269C56.7254 42.8234 56.8726 42.7292 56.8742 42.7222C56.9011 42.6225 56.6995 42.7055 56.5631 42.7301C56.4265 42.7542 56.4372 42.6942 56.6667 42.4983C56.6117 42.4844 56.6872 42.3597 56.7338 42.2853C56.7804 42.2109 56.497 42.3991 56.4898 42.4004C56.3202 42.432 56.3447 42.3574 56.3574 42.2764C56.3618 42.2466 56.3647 42.2161 56.3561 42.1896C56.3414 42.1421 56.2472 42.0936 56.1876 42.0736C56.14 42.058 56.1911 41.9923 56.1282 41.9916C56.1197 41.9914 55.9991 42.0831 55.9935 42.0852C55.822 42.1566 56.1353 41.9585 56.1843 41.9133C56.3624 41.7489 56.4554 41.6587 56.3325 41.6812C56.3041 41.686 55.8499 41.9671 55.8117 41.9675C55.7628 41.9671 55.9243 41.8645 55.869 41.8669C55.8645 41.867 55.7691 41.9363 55.7625 41.9182C55.7304 41.8351 55.7306 41.7187 55.6683 41.6537C55.6601 41.6446 55.5186 41.7677 55.5044 41.7564C55.4382 41.7037 55.3895 41.6262 55.4116 41.5095C55.4175 41.4804 55.5298 41.4121 55.5583 41.3853C55.7308 41.2232 55.4345 41.3977 55.4257 41.3968C55.2064 41.3782 55.3844 41.1014 55.1752 41.071C55.1632 41.0696 54.8353 41.2442 55.0665 41.0297C55.0819 41.0155 55.3186 40.7962 55.13 40.9117C55.1182 40.9189 54.9982 41.0342 54.993 41.0001C54.9877 40.9659 54.8711 40.9961 54.9885 40.8512C55.0255 40.8056 55.2579 40.5825 55.0327 40.7097C55.0169 40.7184 54.5265 41.03 54.8255 40.7654C54.8748 40.7219 55.2075 40.4623 55.0087 40.56C54.9703 40.5791 54.9068 40.6504 54.8462 40.6686C54.7529 40.6969 54.8112 40.5889 54.637 40.6722C54.6062 40.6869 54.3628 40.8413 54.5156 40.6845C54.5395 40.6599 54.654 40.5775 54.6575 40.5568C54.6746 40.4577 54.5576 40.4631 54.5904 40.3493C54.6018 40.3091 54.7857 40.1743 54.8169 40.1161C54.8482 40.058 54.8611 39.9814 54.764 40.0273C54.667 40.0734 54.4055 40.3266 54.3583 40.3152C54.3523 40.3137 54.3465 40.3121 54.3409 40.3102C54.1571 40.2506 54.2069 39.997 54.1227 39.852C54.1099 39.8299 54.0247 39.9301 53.9989 39.9037C53.9028 39.8062 53.6578 39.7103 53.7859 39.4388C53.8881 39.2208 54.094 39.1995 54.1127 39.0849C54.1211 39.0297 53.7803 39.2814 53.7648 39.284C53.609 39.312 53.7099 39.1445 53.617 39.1272C53.5979 39.1237 53.481 39.2494 53.4661 39.2452C53.4142 39.232 53.4392 39.1459 53.4 39.1236C53.3821 39.1138 53.288 39.2044 53.2836 39.1846C53.2721 39.1384 53.2876 39.074 53.35 38.9609C53.3556 38.9506 53.4926 38.8595 53.4758 38.8322C53.4484 38.7885 53.4941 38.6599 53.3626 38.7016C53.3232 38.7142 53.104 38.9169 53.2296 38.7492C53.2559 38.7142 53.5251 38.4773 53.2686 38.6564C53.2257 38.6859 52.8709 38.9179 53.0433 38.7081C53.0886 38.6528 53.286 38.4345 53.238 38.4507C53.2307 38.4537 53.1216 38.5718 53.0984 38.5699C53.0186 38.5615 52.9871 38.5033 52.9075 38.4924C52.886 38.4897 52.7829 38.6221 52.7548 38.6145C52.6775 38.5941 52.6485 38.5026 52.6401 38.419C52.6371 38.3878 52.7479 38.3047 52.7575 38.2931C52.9127 38.1035 52.6643 38.319 52.6439 38.3255C52.5202 38.3623 52.5994 38.2225 52.5317 38.2113C52.5133 38.208 52.4086 38.3249 52.3965 38.3325C52.393 38.3346 52.3897 38.3365 52.3868 38.3382C52.2895 38.3948 52.4949 38.2247 52.503 38.1899C52.527 38.0888 52.4742 38.0528 52.4203 38.0265C52.4005 38.0171 52.2871 38.1608 52.2709 38.151C52.1722 38.0953 52.1048 38.0025 52.0996 37.8556C52.0988 37.8277 52.2068 37.7379 52.2264 37.7123C52.3637 37.5337 52.1178 37.7188 52.0903 37.7324C51.9649 37.7945 52.04 37.6948 51.996 37.6836C51.7802 37.631 51.6652 37.4037 51.5709 37.2419C51.4457 37.03 51.4025 36.8046 51.2137 36.6733C51.2017 36.6647 51.0845 36.8098 51.0726 36.8042C50.924 36.7253 50.8586 36.5642 50.7039 36.4934C50.6915 36.4874 50.5852 36.6293 50.5611 36.624C50.511 36.6139 50.477 36.5692 50.4827 36.4977C50.4853 36.4631 50.6095 36.372 50.61 36.3393C50.6115 36.2633 50.5788 36.216 50.5223 36.2023C50.5222 36.2023 50.5221 36.2022 50.5219 36.2022C50.4968 36.1982 50.3996 36.3513 50.3774 36.3336C50.2232 36.2156 50.0582 36.1065 50.0693 35.8009C50.0701 35.78 50.3079 35.5008 50.2392 35.5334C50.1692 35.6072 50.0888 35.6958 50.015 35.7756C49.7634 35.6262 49.638 35.3424 49.435 35.1348C49.4264 35.126 49.3129 35.285 49.2955 35.2688C49.1932 35.1736 49.0625 35.1294 49.0853 34.8917C49.0875 34.8683 49.3195 34.6174 49.2545 34.6289C49.2428 34.6312 49.1663 34.6243 49.1051 34.6692C49.0961 34.6761 48.9989 34.803 48.9809 34.7933C48.8774 34.734 48.8111 34.627 48.7898 34.4785C48.7865 34.4542 48.9135 34.3398 48.9121 34.3214C48.9013 34.1918 48.739 34.221 48.7724 34.0453C48.7951 33.9271 49.0055 33.7212 49.1715 33.4825C49.1949 33.4488 49.1706 33.4189 49.2798 33.2911C49.5545 32.9698 49.8734 32.6337 50.1645 32.2898C50.2273 32.2157 50.1197 32.2605 50.2971 32.1041C50.3091 32.0937 50.3884 32.0597 50.4477 32.0059C50.4888 31.9687 50.5927 31.8325 50.649 31.7882C50.7051 31.7439 50.6215 31.8611 50.6922 31.8131C50.7637 31.7644 50.8848 31.6119 50.9324 31.623ZM56.9407 41.9513C57.0565 41.8316 56.5618 42.1679 56.6993 42.1153C56.7066 42.1123 56.935 41.9573 56.9407 41.9513ZM59.1218 45.2882C59.3303 45.1208 58.9782 45.2863 58.8157 45.4129C58.6532 45.5392 59.0585 45.3388 59.1218 45.2882ZM59.5102 45.5879C59.6674 45.4424 58.922 45.8474 59.0983 45.8116C59.1082 45.8095 59.5011 45.5963 59.5102 45.5879ZM49.3388 33.5198C49.3437 33.5135 49.3284 33.4898 49.3228 33.4953C49.1866 33.6286 49.2172 33.6759 49.3388 33.5198ZM59.9091 45.8779C60.0022 45.8088 59.8638 45.8319 59.7482 45.9178C59.6551 45.9868 59.7934 45.9637 59.9091 45.8779ZM56.4419 40.1806C56.4486 40.1748 56.4432 40.1545 56.4035 40.1855C56.2756 40.2854 56.3283 40.2788 56.4419 40.1806ZM60.28 46.5456C60.2548 46.4303 60.84 46.0388 60.8291 46.1861C60.827 46.2128 60.609 46.2483 60.5668 46.3034C60.4898 46.4038 60.8947 46.228 60.7119 46.3864C60.6783 46.4151 60.2801 46.5528 60.2791 46.5459C60.2794 46.5458 60.2797 46.5457 60.28 46.5456ZM57.5212 41.5275C57.5273 41.5225 57.5183 41.4963 57.5115 41.5002C57.3472 41.5965 57.365 41.6491 57.5212 41.5275ZM56.025 39.0617C56.0371 39.0499 56.0092 38.9913 55.9959 38.9996C55.7359 39.1724 55.7906 39.2904 56.025 39.0617ZM58.8843 42.8063C59.0619 42.73 59.1 42.7486 58.9088 42.8954C58.904 42.8637 58.89 42.8376 58.8843 42.8063ZM3.98709 37.8525C4.06504 37.9817 4.0461 38.1737 3.99643 38.3152C3.98149 38.3614 3.87331 38.3611 3.85843 38.3944C3.82925 38.4586 3.89286 38.511 3.85551 38.5739C3.84263 38.5949 3.67359 38.6063 3.66387 38.6276C3.61177 38.7441 3.67517 38.8406 3.66398 38.9628C3.61975 39.3633 3.63518 39.7619 3.66241 40.1482C3.67573 40.3181 3.68869 40.4749 3.70295 40.641C3.72002 40.8317 3.61992 41.0784 3.72821 41.2508C3.74099 41.2708 3.88158 41.2246 3.89438 41.226C4.09066 41.2492 3.79575 41.2947 3.76718 41.3464C3.65502 41.5534 3.6841 41.7361 3.77862 41.8871C3.81912 41.9506 4.08727 41.8131 3.94412 41.921C3.93449 41.9284 3.77804 41.9473 3.76637 41.9702C3.74025 42.0224 3.78716 42.0977 3.78281 42.1325C3.77403 42.2012 3.7781 42.2113 3.79092 42.2716C3.80713 42.3544 3.75558 42.471 3.81201 42.5516C3.8245 42.5687 3.97407 42.5051 4.00805 42.5288C4.0177 42.5355 4.02515 42.5471 4.03017 42.5611C4.04282 42.5962 4.04025 42.6466 4.01858 42.6716C3.98845 42.7072 3.86327 42.7265 3.83639 42.7381C3.60927 42.8359 3.96005 42.8455 3.97109 42.8551C4.16281 43.0337 4.02467 43.2705 4.0769 43.4693C4.11736 43.6217 4.22214 43.7698 4.25265 43.9176C4.28809 44.0927 4.24398 44.2621 4.30472 44.4263C4.31096 44.4436 4.4871 44.3727 4.49507 44.3937C4.55863 44.5619 4.59924 44.7344 4.59141 44.9214C4.58882 44.983 4.58097 45.0461 4.56693 45.1111C4.5611 45.1375 4.39348 45.1542 4.37816 45.1834C4.28769 45.3608 4.04049 45.6778 4.75613 45.5531C4.75726 45.655 4.7636 45.7761 4.65074 45.9038C4.57803 45.9857 4.38927 45.9859 4.48352 46.0303C4.50458 46.0403 4.64952 45.9741 4.66966 45.9926C4.75425 46.0704 4.73754 46.189 4.84481 46.2572C4.86698 46.2709 5.00031 46.2229 5.0263 46.2205C5.23727 46.2027 4.93557 46.3799 4.91756 46.4049C4.78193 46.5872 4.88115 46.6565 4.91505 46.7731C4.92286 46.8002 5.09289 46.7087 5.10685 46.7325C5.17663 46.856 5.20754 46.9981 5.1733 47.1569C5.16519 47.1922 5.00287 47.2187 4.99119 47.2383C4.96036 47.2918 5.06221 47.2784 5.13354 47.2796C5.17697 47.2803 5.2091 47.2865 5.19324 47.3168C5.18477 47.3335 5.05155 47.3728 5.03797 47.3801C4.82494 47.495 5.15513 47.4123 5.1653 47.4185C5.30134 47.4958 4.99532 47.6896 5.08368 47.7845C5.09452 47.7956 5.24816 47.705 5.26854 47.7396C5.40428 47.9671 5.45835 48.2399 5.42651 48.531C5.42165 48.5758 5.28903 48.6 5.27494 48.6085C5.056 48.7436 5.38046 48.6376 5.39713 48.6442C5.52058 48.7006 5.29926 48.9082 5.69837 48.8093C5.72121 49.0637 5.86705 49.2797 5.9556 49.4966C6.02519 49.6651 6.06604 49.8397 6.02284 50.0686C6.02208 50.0755 5.87302 50.1527 5.87221 50.1663C5.86142 50.3303 6.07161 50.174 6.38261 50.0698C6.45977 50.0422 6.17069 50.3026 6.15103 50.3237C6.07577 50.3981 5.85682 50.5191 5.84387 50.5359C5.74634 50.6739 6.42238 50.2023 6.4641 50.2614C6.46435 50.2641 6.33476 50.3437 6.32609 50.3575C6.29903 50.4013 6.35938 50.382 6.32832 50.428C6.25553 50.5331 5.94767 50.7908 6.17511 50.7034C6.20387 50.6909 6.56523 50.3945 6.58321 50.4519C6.58809 50.4736 6.66651 50.5523 6.66184 50.5904C6.65867 50.6313 6.53623 50.7211 6.5326 50.7267C6.44555 50.9237 6.36512 50.9591 6.19195 51.2029C6.02621 51.4512 6.49718 50.9314 6.56099 50.884C6.62535 50.8377 6.55837 50.9976 6.53653 51.0532C6.51319 51.108 6.43913 51.1712 6.43079 51.2061C6.38879 51.4413 6.66532 50.9478 6.74517 50.8693C6.90576 50.6623 6.66918 51.133 6.7205 51.217C6.72951 51.2369 6.75902 51.1194 6.77308 51.1142C6.82054 51.0923 6.81538 51.2641 6.89567 51.1324C6.91452 51.1112 6.96514 50.8084 6.98074 51.0392C6.98456 51.0724 6.9683 51.2016 6.99176 51.2314C6.99434 51.2346 6.99708 51.2377 7.00001 51.2407C7.04034 51.2793 7.10823 51.2952 7.14316 51.2485C7.16975 51.2115 7.11635 51.0043 7.15631 51.064C7.17524 51.0904 7.15987 51.2208 7.19684 51.2595C7.23408 51.2988 7.31382 51.2715 7.34231 51.2565C7.37118 51.242 7.31082 51.0914 7.31071 51.08C7.30762 51.0151 7.32437 50.924 7.326 50.9232C7.47368 50.8435 7.86981 50.9041 8.02016 50.6446C8.03157 50.6251 7.90614 50.5083 7.90672 50.504C7.91106 50.4029 8.17591 50.7762 8.3203 50.8495C8.07754 50.602 8.14361 50.6264 8.1566 50.5608C8.16255 50.529 8.05828 50.4433 8.05045 50.4318C7.93397 50.2606 8.13815 50.4284 8.18181 50.4608C8.30618 50.5562 8.24224 50.4632 8.26012 50.4579C8.26508 50.4564 8.27627 50.4614 8.29938 50.4784C8.40659 50.5565 8.51787 50.722 8.55413 50.6805C8.47435 50.5843 8.21318 50.3886 8.20173 50.3244C8.1577 50.0843 8.5212 50.0493 8.62299 49.9622C8.71876 49.884 8.72397 49.8389 8.80312 49.8087C8.94641 49.7526 8.72499 49.647 8.6833 49.5178C8.63948 49.3907 9.09741 49.7671 9.20721 49.8324C9.31723 49.8973 9.21842 49.8105 9.2837 49.8393C9.34909 49.868 9.40088 49.9443 9.44245 49.9313C9.48441 49.9178 9.35424 49.7094 9.25153 49.624C9.03449 49.4424 8.76803 49.3079 8.9032 49.2948C8.91118 49.2941 9.03012 49.3958 9.05418 49.3885C9.19177 49.343 9.27793 49.2629 9.38407 49.1911C9.42252 49.1652 9.46341 49.1408 9.51002 49.12C9.53417 49.1096 9.67001 49.2186 9.6857 49.2136C9.84962 49.1611 9.57762 49.0452 9.33941 48.8143C9.69764 49.0553 9.94319 49.1607 9.99891 49.0742C10.0323 49.0225 9.86568 48.9338 9.7722 48.8316C9.74389 48.8011 9.87714 48.8304 9.80489 48.7785C9.56896 48.6085 9.27046 48.4762 9.43238 48.4563C9.43991 48.4556 9.56927 48.5484 9.58533 48.5401C9.68993 48.4862 9.43434 48.3231 9.45557 48.2128C9.47252 48.1259 9.70578 48.0886 9.7788 48.0186C10.2019 48.256 10.1499 48.1205 9.87402 47.9277C9.91612 47.8793 9.93155 47.8111 10.0008 47.7798C10.0245 47.769 10.1418 47.8473 10.1564 47.8522C10.3855 47.9288 10.1114 47.7511 10.1064 47.7334C10.0971 47.6902 10.1043 47.6575 10.1192 47.6298C10.1688 47.5373 10.3053 47.4993 10.1893 47.3186C10.1839 47.3102 9.88753 47.1497 10.1235 47.2285C10.1398 47.234 10.2553 47.345 10.2958 47.2916C10.3362 47.2385 10.5536 47.2086 10.455 47.0561C10.4313 47.0193 10.2109 46.848 10.4224 46.9023C10.4511 46.9097 10.5349 46.9583 10.587 46.9743C10.7532 47.0245 10.4541 46.8609 10.7285 46.9584C11.0029 47.0559 11.2285 47.0878 11.0896 46.9161C11.0857 46.9108 10.8521 46.7737 10.8687 46.7491C10.8953 46.7097 10.9748 46.6738 10.9941 46.6288C11.0033 46.6073 10.8454 46.5491 10.8443 46.5441C10.8257 46.3647 11.0073 46.3248 11.1364 46.2001C11.137 46.1996 11.1376 46.199 11.1381 46.1985C11.1623 46.1752 10.9906 46.001 11.1797 46.0214C11.3873 46.0424 12.1091 46.4439 11.994 46.2218C11.9483 46.132 11.0258 45.6374 11.5638 45.7581C11.5291 45.5045 11.8582 45.441 11.7678 45.164C11.7638 45.1518 11.5072 45.0105 11.5195 44.9917C11.5382 44.9639 11.6706 45.0003 11.688 44.9822C11.7648 44.9053 11.6935 44.7733 11.7463 44.6931C11.7661 44.6624 11.8915 44.7276 11.915 44.6912C11.9241 44.6769 11.9052 44.6545 11.8857 44.6288C11.8545 44.5893 11.8195 44.5473 11.8842 44.534C11.9644 44.5179 12.3326 44.6187 12.3956 44.5806C12.0501 44.4378 12.0713 44.4061 12.0073 44.3006C11.9949 44.2801 11.8683 44.246 11.8562 44.2338C11.8043 44.1832 11.9138 44.1998 11.8555 44.1489C11.8415 44.1366 11.7231 44.089 11.7049 44.0763C11.5463 43.9666 11.8385 44.0087 11.8893 44.0161C12.0823 44.0446 11.9358 43.9634 12.0192 43.9557C12.1023 43.9486 12.1691 44.0342 12.2271 44.0106C12.3484 43.9583 12.3639 43.8615 12.4048 43.7715C12.4192 43.7386 12.2513 43.7003 12.2496 43.6942C12.2365 43.608 12.4276 43.6154 12.1271 43.4503C12.9664 43.7125 12.0646 43.3752 12.2632 43.3461C12.2791 43.3441 12.6713 43.4803 12.7181 43.5293C12.7647 43.5783 12.6268 43.5765 12.6993 43.6532C12.7165 43.6708 13.057 43.8698 13.0772 43.8827C13.2275 44.0056 12.6445 43.7932 12.6116 43.7839C12.2551 43.6869 12.6192 43.9073 12.6386 43.9375C12.7316 44.0649 12.624 44.1008 12.6842 44.2065C12.723 44.2751 13.0985 44.4304 13.0738 44.4591C12.9902 44.5587 12.4472 44.3902 12.8578 44.6866C12.9458 44.7486 13.3671 44.8913 13.0095 44.8442C12.987 44.8413 12.6657 44.7836 12.8379 44.8966C12.8596 44.9108 12.9795 44.9595 12.9871 44.9697C13.028 45.0271 12.9576 45.0278 12.9515 45.0659C12.9505 45.0727 12.9513 45.0811 12.9556 45.0904C12.9838 45.1519 13.0303 45.2322 12.9689 45.2658C12.932 45.286 12.6931 45.2326 12.6325 45.2245C12.4585 45.2001 12.6968 45.3529 12.4961 45.2988C12.2949 45.2433 12.0253 45.0736 11.875 45.086C12.1839 45.2188 12.4996 45.3583 12.8096 45.4936C12.7386 45.6317 12.5729 45.7427 12.5253 45.8895C12.5195 45.9085 12.6933 45.9619 12.6913 45.9842C12.6819 46.0779 12.5316 46.0998 12.5407 46.2063C12.5489 46.2877 12.6917 46.4377 12.7044 46.5272C12.3346 46.4117 12.4064 46.5702 12.3411 46.6287C12.3183 46.6494 12.2256 46.6051 12.1867 46.6094C12.0424 46.6269 12.3663 46.7362 12.4062 46.7775C12.4092 46.7806 12.4119 46.7836 12.4143 46.7864C12.5514 46.9445 11.8732 46.6421 11.8464 46.7442C11.8449 46.7493 12.1872 46.9859 12.2064 47.0051C12.3318 47.1301 12.0729 46.9535 12.0295 46.9746C11.9503 47.013 11.8415 47.0139 11.9154 47.1384C11.9375 47.1748 12.1436 47.3366 11.9452 47.2928C11.9192 47.287 11.7985 47.2253 11.7892 47.2262C11.6317 47.2483 12.0147 47.4348 12.1223 47.5435C12.2299 47.6522 11.9312 47.5936 11.8482 47.5702C11.6331 47.5107 11.778 47.5005 11.7597 47.489C11.5411 47.3529 11.5561 47.4228 11.5176 47.4518C11.1401 47.2729 11.1363 47.3371 11.4793 47.4826C11.5168 47.4984 11.4967 47.4511 11.5176 47.4518C11.8688 47.6666 11.8855 47.7512 11.5099 47.646C11.334 47.5964 11.1613 47.4738 11.1836 47.6001C11.1934 47.6573 11.4584 47.7708 11.5095 47.8435C11.6257 48.0101 11.3299 47.9989 11.322 48.1054C11.3191 48.1443 11.4749 48.186 11.4776 48.2152C11.4823 48.263 11.4345 48.2801 11.4022 48.3059C11.3819 48.3223 11.3677 48.3421 11.3765 48.3755C11.3787 48.3834 11.5312 48.4477 11.5234 48.4669C11.467 48.6137 11.3092 48.6834 11.2276 48.8248C11.1882 48.8933 11.1986 49.0602 11.1411 49.1236C11.0427 49.2341 10.7482 49.2622 10.7356 49.396C10.7262 49.4838 10.8762 49.5542 10.9542 49.6422C11.1049 49.8137 10.7101 49.7104 10.651 49.6909C10.6491 49.6902 10.6522 49.6115 10.561 49.5979C10.4002 49.5227 10.6508 49.6898 10.651 49.6909C10.6122 49.6796 10.5086 49.774 10.5193 49.8155C10.5257 49.8374 10.6618 49.9144 10.6626 49.9244C10.6648 49.9568 10.6654 49.9883 10.6641 50.0187C10.6561 50.2085 10.5834 50.3547 10.4336 50.4599C10.429 50.4609 10.2886 50.3569 10.2797 50.3604C10.1523 50.4073 10.2859 50.5877 10.3326 50.7391C10.3778 50.8923 10.2956 50.9307 10.0233 50.7933C10.0097 50.8736 9.84323 50.8712 9.74333 50.8672C9.64343 50.8632 9.90227 51.0837 9.90399 51.0923C9.96175 51.3616 9.75223 51.308 9.60827 51.4231C9.56119 51.4601 9.50917 51.5454 9.46726 51.6251C9.44734 51.6627 9.4318 51.697 9.41656 51.729C9.38141 51.8064 9.29199 51.782 9.2743 51.8686C9.27175 51.8804 9.38259 51.984 9.38437 51.9903C9.44609 52.1804 9.22443 51.8809 9.16739 51.8436C8.95944 51.7078 8.8553 51.63 8.8497 51.7838C8.85008 51.8176 9.13395 52.275 9.11242 52.332C9.08635 52.4032 8.98748 52.238 8.96365 52.3149C8.96142 52.3213 9.03417 52.4142 8.99736 52.4355C8.81816 52.5408 8.60771 52.6009 8.37697 52.7347C8.34355 52.7531 8.47268 52.8972 8.42322 52.9276C8.19601 53.0704 7.84114 53.1925 7.56198 53.1552C7.49404 53.1458 7.51412 53.0082 7.49435 52.9724C7.38424 52.7543 7.314 53.1075 7.29221 53.1156C7.18518 53.1669 7.08736 53.1807 7.00002 53.1775C6.65271 53.1749 6.29629 52.9655 5.83365 52.8321C5.79537 52.8243 5.38605 53.0029 5.47213 52.6733C5.47432 52.6492 5.58886 52.3342 5.39187 52.4562C5.37874 52.463 5.32282 52.6318 5.25083 52.55C5.17641 52.4658 4.99598 52.4479 5.05536 52.2486C5.0711 52.1829 5.25582 51.9133 5.00605 52.0174C4.99315 52.0308 4.44895 52.2856 4.72636 51.9939C4.77209 51.9459 5.10349 51.6857 4.8759 51.7472C4.83147 51.7586 4.77874 51.8438 4.70171 51.8408C4.58208 51.8349 4.61261 51.687 4.40438 51.7179C4.36908 51.7258 4.0874 51.8227 4.2392 51.6589C4.26286 51.6331 4.38807 51.5669 4.38608 51.5357C4.37804 51.3883 4.22658 51.3252 4.24235 51.1621C4.24804 51.1049 4.45557 51.0083 4.48436 50.9371C4.51346 50.8666 4.52336 50.7662 4.41046 50.7776C4.29745 50.7889 4.00559 51.0107 3.94574 50.963C3.83527 50.875 3.77659 50.747 3.74606 50.6226C3.70526 50.4561 3.70199 50.2717 3.64651 50.1098C3.63258 50.0686 3.52964 50.1555 3.50153 50.1003C3.39846 49.9021 3.12428 49.5695 3.31106 49.2932C3.45803 49.0671 3.6866 49.1837 3.72623 49.0415C3.74525 48.9739 3.33043 49.0724 3.31284 49.0641C3.1362 48.9841 3.27895 48.8346 3.183 48.7435C3.16317 48.7248 3.01179 48.8079 2.99663 48.7912C2.9434 48.7343 2.98833 48.6364 2.95127 48.5763C2.93427 48.5495 2.81367 48.6 2.81321 48.5695C2.81088 48.4975 2.84095 48.4193 2.93469 48.3182C2.94321 48.309 3.10951 48.2912 3.09864 48.2431C3.08278 48.1748 3.14338 48.0637 3.05791 48.0071C3.04612 47.9992 3.03155 47.9924 3.0136 47.9869C2.96922 47.9735 2.68684 48.0705 2.86223 47.947C2.89885 47.9212 3.24282 47.8191 2.92766 47.8553C2.87548 47.862 2.44182 47.8852 2.67906 47.7459C2.74144 47.7091 3.00745 47.58 2.95351 47.5642C2.94514 47.5623 2.79874 47.6301 2.77535 47.6096C2.69555 47.5362 2.6804 47.436 2.60213 47.3582C2.58091 47.3374 2.43536 47.4263 2.40874 47.3936C2.33527 47.3037 2.3338 47.1609 2.35215 47.0468C2.35908 47.0042 2.49816 46.9881 2.51157 46.9809C2.73005 46.8649 2.40894 46.9385 2.38615 46.9299C2.24885 46.8754 2.37501 46.7616 2.31071 46.6917C2.29335 46.6722 2.14867 46.7344 2.13393 46.734C1.98907 46.7271 2.26861 46.6794 2.28912 46.6406C2.34742 46.5315 2.3075 46.4435 2.26329 46.366C2.24682 46.3376 2.08332 46.4243 2.07053 46.3981C1.99151 46.244 1.95782 46.0683 2.00764 45.8807C2.01737 45.8454 2.15712 45.8253 2.18598 45.8102C2.38818 45.7053 2.07734 45.7271 2.04524 45.7205C1.98556 45.7085 1.96876 45.6914 1.96718 45.6719C1.96487 45.6436 1.99462 45.6102 1.97167 45.5794C1.78008 45.3264 1.7615 44.9507 1.73871 44.6701C1.70727 44.3014 1.76633 44.0004 1.64748 43.6737C1.64013 43.653 1.46531 43.7202 1.45665 43.7029C1.38651 43.5497 1.37032 43.3892 1.33248 43.229C1.31423 43.1517 1.29131 43.0758 1.25556 43.003C1.24684 42.9846 1.08242 43.0545 1.06267 43.0262C1.02095 42.9685 1.01062 42.8854 1.04987 42.8081C1.0687 42.7706 1.22587 42.7769 1.24183 42.7398C1.27971 42.655 1.27197 42.569 1.22639 42.4998C1.20654 42.4701 1.04286 42.5611 1.03073 42.5192C0.94551 42.2388 0.848399 41.9592 1.01055 41.6206C1.02172 41.5974 1.37513 41.4988 1.29725 41.4734C1.19737 41.4928 1.08074 41.5196 0.974429 41.5423C0.879185 41.2852 0.85907 41.0405 0.836173 40.7679C0.822533 40.599 0.813266 40.4441 0.783983 40.2709C0.780938 40.2529 0.597638 40.3244 0.590778 40.2898C0.552636 40.0977 0.456995 39.9048 0.60512 39.6686C0.619602 39.6454 0.956092 39.5857 0.893891 39.54C0.883011 39.534 0.818463 39.4466 0.741188 39.4388C0.729569 39.4379 0.576802 39.4867 0.566181 39.458C0.509003 39.2999 0.507127 39.1069 0.570941 38.9282C0.581671 38.9 0.753525 38.8935 0.762631 38.8732C0.820958 38.7042 0.66994 38.6048 0.793498 38.4309C0.881314 38.3377 1.17229 38.2964 1.44768 38.198C1.4858 38.1803 1.48435 38.1378 1.64862 38.1017C2.06311 38.0185 2.52218 37.9551 2.96332 37.8629C3.05475 37.824 2.94602 37.8111 3.17975 37.7851C3.19517 37.7823 3.28262 37.8262 3.36185 37.8169C3.41741 37.8146 3.58265 37.7684 3.65495 37.7717C3.72707 37.7744 3.59104 37.8263 3.67834 37.8423C3.7654 37.8516 3.95388 37.8018 3.98709 37.8525ZM9.29885 50.8412C9.14124 50.7743 9.58906 51.171 9.51881 51.0329C9.51488 51.0258 9.30671 50.8444 9.29885 50.8412ZM12.1602 45.5595C11.8929 45.5133 12.2321 45.7061 12.4368 45.7461C12.6412 45.7862 12.2416 45.5727 12.1602 45.5595ZM12.2392 44.8753C12.0191 44.8632 12.7982 45.1988 12.6701 45.0599C12.6629 45.0519 12.252 44.8759 12.2392 44.8753ZM1.57055 38.4013C1.57812 38.3987 1.57754 38.355 1.5697 38.3559C1.3788 38.3694 1.38008 38.4566 1.57055 38.4013ZM12.2892 44.192C12.1744 44.1704 12.2731 44.2806 12.4162 44.3069C12.5315 44.3276 12.4323 44.2184 12.2892 44.192ZM6.62076 51.4935C6.62295 51.4848 6.59904 51.464 6.58048 51.5111C6.52119 51.6636 6.58386 51.6421 6.62076 51.4935ZM12.6737 43.1545C12.5858 43.3026 11.8971 43.1438 12.0317 43.0075C12.057 42.9801 12.2159 43.1541 12.2904 43.1344C12.4244 43.1034 12.03 42.9006 12.2733 42.92C12.322 42.9119 12.6815 43.143 12.6745 43.1552C12.6742 43.1549 12.6739 43.1547 12.6737 43.1545ZM8.73365 50.3967C8.72702 50.3923 8.6966 50.4161 8.70193 50.4219C8.83164 50.5623 8.89451 50.5127 8.73365 50.3967ZM5.83208 50.0666C5.84565 50.0567 5.81786 49.976 5.80296 49.9809C5.50948 50.0932 5.56881 50.2638 5.83208 50.0666ZM9.79084 48.0236C9.64379 47.8948 9.64736 47.8417 9.87371 47.9278C9.84276 47.9578 9.82114 47.9932 9.79084 48.0236Z" fill="black"/>
</svg>
