<svg width="51" height="60" viewBox="0 0 51 60" fill="none" xmlns="http://www.w3.org/2000/svg">
<path d="M5.89898 0.867504C5.92133 1.26627 5.82211 1.85598 5.71518 2.2741C5.68117 2.41536 5.58069 2.33506 5.55234 2.43404C5.4954 2.65023 5.53876 2.77247 5.47668 2.95194C5.45582 3.00821 5.29344 2.92461 5.27539 2.98403C5.17821 3.30265 5.19472 3.67494 5.13548 4.00918C4.83896 5.71994 4.66583 7.35441 4.47559 9.11373C4.45299 9.31861 4.41148 9.54162 4.36981 9.77312C4.29994 10.1611 4.22961 10.5736 4.24748 10.957C4.25096 11.0285 4.40072 10.9953 4.412 11.0096C4.58429 11.235 4.29192 11.1423 4.24423 11.2721C4.05627 11.7796 4.00654 12.369 4.03185 12.8941C4.04304 13.1177 4.34872 12.9123 4.17119 13.1266C4.15917 13.1415 4.00633 13.0755 3.98599 13.1357C3.93994 13.2758 3.95266 13.5318 3.93424 13.6327C3.89777 13.83 3.89738 13.8631 3.8844 14.0524C3.8653 14.3112 3.76939 14.6175 3.78835 14.9028C3.79287 14.9637 3.9577 14.8929 3.97936 14.9909C4.00098 15.0889 3.97257 15.3447 3.92982 15.4295C3.88704 15.5143 3.76326 15.47 3.73351 15.4838C3.48249 15.5988 3.80316 15.9109 3.80952 15.9464C3.91325 16.6305 3.68818 17.2093 3.65301 17.8628C3.62635 18.3661 3.66281 18.8727 3.62934 19.3416C3.62568 19.392 3.62143 19.4417 3.61672 19.4908C3.56972 19.9807 3.47644 20.4175 3.46503 20.9103C3.46356 20.9667 3.65533 20.9102 3.65392 20.9792C3.63879 21.7119 3.58215 22.4446 3.41965 23.1798C3.40319 23.2535 3.24229 23.1498 3.21595 23.223C3.05833 23.6698 2.69891 24.3637 3.40723 24.6658C3.3652 24.97 3.31954 25.3405 3.16226 25.6086C3.06102 25.7816 2.88826 25.6017 2.95568 25.8226C2.97068 25.8725 3.13134 25.8155 3.1419 25.8897C3.18618 26.2028 3.12058 26.5348 3.18934 26.8437C3.20371 26.9064 3.3459 26.8954 3.37064 26.914C3.57077 27.0702 3.21953 27.302 3.19255 27.3546C2.99096 27.7555 3.05171 28.0572 3.03222 28.438C3.02763 28.5264 3.22178 28.4293 3.2242 28.5146C3.2295 28.7497 3.22247 28.9887 3.19968 29.2254C3.1796 29.4339 3.14728 29.6407 3.10035 29.8415C3.07762 29.9368 2.91894 29.8426 2.89979 29.8878C2.81736 30.0875 3.12155 30.1434 3.04853 30.3349C3.03353 30.3753 2.89574 30.3474 2.88025 30.3543C2.63711 30.4625 2.97214 30.576 2.97856 30.6062C3.06738 30.9895 2.70561 31.219 2.74342 31.5883C2.7483 31.6326 2.927 31.539 2.93 31.6632C2.95107 32.4905 2.87641 33.3586 2.71386 34.1634C2.68878 34.2904 2.55949 34.1957 2.54303 34.2033C2.28559 34.3274 2.62344 34.4212 2.63514 34.4631C2.71854 34.7934 2.42554 35.0915 2.82521 35.323C2.6716 36.5234 2.8087 37.757 2.58388 38.9469C2.55348 39.1085 2.51648 39.2669 2.47117 39.4299C2.46674 39.4475 2.29959 39.4137 2.29148 39.4489C2.19222 39.8721 2.45368 39.7936 2.76915 40.0759C2.84837 40.1468 2.46177 40.3559 2.43343 40.3744C2.32892 40.442 2.08029 40.3686 2.05996 40.3914C1.9003 40.58 2.72493 40.5565 2.72317 40.811C2.72174 40.8189 2.57025 40.7843 2.555 40.8055C2.50712 40.8716 2.56693 40.9377 2.51424 41.0021C2.39237 41.1492 1.99139 41.1998 2.2233 41.4264C2.25343 41.455 2.72124 41.4143 2.6981 41.6385C2.68841 41.7232 2.69507 42.1311 2.66466 42.2461C2.63418 42.3603 2.48362 42.2816 2.47708 42.2897C2.27738 42.5968 2.19496 42.4801 1.89984 42.6338C1.60591 42.7873 2.30695 42.7446 2.38522 42.8068C2.46324 42.8693 2.29912 43.0923 2.24212 43.1469C2.18505 43.2016 2.08914 43.1337 2.05689 43.1824C1.84634 43.5043 2.40524 43.3223 2.51683 43.4275C2.78115 43.6744 2.26228 43.8686 2.21284 44.0937C2.1995 44.1545 2.31756 44.1042 2.32902 44.1581C2.37286 44.3715 2.21183 44.5152 2.36312 44.7647C2.38776 44.806 2.70252 45.0059 2.47482 45.1393C2.44199 45.1583 2.31177 45.1072 2.28394 45.2013C2.24215 45.342 2.21744 45.593 2.26317 45.7404C2.29698 45.8493 2.50837 45.7206 2.44434 45.859C2.41577 45.9205 2.28898 45.8096 2.24573 45.9249C2.20242 46.04 2.21338 46.3291 2.22002 46.4379C2.22669 46.5467 2.38734 46.4837 2.39843 46.4923C2.46194 46.5427 2.54499 46.7658 2.54527 46.7841C2.57412 47.4514 2.47117 48.0662 2.44299 48.6668C2.43058 48.9729 2.43501 49.2743 2.47816 49.5726C2.48849 49.6456 2.65673 49.5886 2.66007 49.5997C2.74364 49.8456 2.28056 49.6712 2.13743 49.853C2.48227 49.8104 2.42464 49.9166 2.47177 50.0873C2.49478 50.1694 2.62634 50.1169 2.64046 50.1238C2.85056 50.2355 2.59252 50.3342 2.54 50.3593C2.3468 50.4512 2.58554 50.5247 2.45659 50.5866C2.32879 50.6507 2.12635 50.5296 2.13929 50.7032C2.26612 50.7453 2.58168 50.5943 2.6423 50.7253C2.87069 51.229 2.68317 52.1149 2.69356 52.5007C2.70475 52.9087 2.74101 53.0293 2.72034 53.2585C2.68418 53.6663 2.90695 53.4932 3.0447 53.719C3.18311 53.9404 2.58194 53.9003 2.45996 53.9504C2.33757 53.9959 2.4736 54.0275 2.41037 54.0829C2.34739 54.1398 2.24795 54.0475 2.23683 54.1635C2.2256 54.2818 2.49224 54.5468 2.62949 54.5621C2.92004 54.5976 3.19276 54.4286 3.13194 54.7119C3.1283 54.7282 2.96669 54.703 2.96056 54.7642C2.90736 55.1971 3.01364 55.7892 3.02264 56.2283C3.02402 56.2911 2.84271 56.283 2.84178 56.3204C2.84556 56.7422 3.09485 56.5447 3.46214 56.6287C3.04273 56.7288 2.83023 56.9528 2.95351 57.2515C3.02385 57.413 3.18554 57.3103 3.35192 57.3443C3.40028 57.3536 3.36889 57.5552 3.449 57.5127C3.6958 57.3588 3.88998 57.0669 3.88389 57.2983C3.88488 57.3097 3.77513 57.423 3.78622 57.4529C3.87764 57.6261 3.98051 57.5111 4.0543 57.4323C4.1092 57.4031 4.16853 57.3784 4.2355 57.3664C4.42943 57.3343 4.68654 57.4377 4.9284 57.3205C5.17772 57.7416 5.36224 57.4751 5.21286 57.1534C5.34651 57.0549 5.46357 56.9038 5.6101 56.7988C5.65908 56.7641 5.7437 56.8823 5.76 56.8864C6.02099 56.9431 5.81496 56.6747 5.8269 56.6372C5.9108 56.4207 6.02484 56.2948 6.1424 56.1319C6.26541 55.9597 6.3585 55.7994 6.34942 55.5458C6.34876 55.5277 6.05865 55.3559 6.32895 55.3639C6.34746 55.3646 6.42372 55.5574 6.5208 55.386C6.61362 55.225 6.94381 54.9296 6.89901 54.6218C6.89009 54.5445 6.69807 54.2879 6.94691 54.2348C6.98066 54.2277 7.06367 54.2813 7.12357 54.2751C7.31449 54.2549 7.01096 54.0943 7.31703 54.1002C7.62257 54.1073 7.90235 53.9717 7.80581 53.6315C7.8033 53.6211 7.57893 53.4784 7.59854 53.3943C7.59899 53.3924 7.59957 53.3905 7.60028 53.3886C7.6514 53.2557 7.76694 53.0774 7.80987 52.9309C7.83023 52.8611 7.65629 52.8567 7.65705 52.8437C7.70455 52.3632 7.94251 52.0694 8.13599 51.5876C8.1723 51.4977 8.01803 51.1783 8.23667 51.0448C8.47644 50.8956 9.2278 51.294 9.14654 50.788C9.13383 50.7082 8.9791 50.5887 8.8308 50.4605C8.59929 50.26 8.38279 50.0415 8.7487 49.9113C8.75652 49.2455 9.14621 48.7048 9.07683 48.025C9.07388 47.9942 8.80406 47.85 8.8202 47.7829C8.84475 47.6833 8.98866 47.652 9.01025 47.5817C9.04099 47.4852 9.05398 47.391 9.06072 47.2929C9.07444 47.092 9.05835 46.8941 9.10237 46.7017C9.12696 46.5925 9.25925 46.6563 9.28888 46.5228C9.3182 46.3897 9.14933 46.2716 9.26577 46.1069C9.35443 45.9816 9.74887 45.9108 9.82084 45.7297C9.45213 45.6672 9.47898 45.5419 9.41315 45.3099C9.40029 45.2654 9.26501 45.2914 9.25228 45.2694C9.19774 45.1786 9.31456 45.1242 9.25382 45.0333C9.23921 45.0116 9.11294 44.9926 9.09385 44.9739C8.9268 44.8141 9.24089 44.6403 9.29538 44.6109C9.50284 44.4962 9.34644 44.4136 9.43596 44.309C9.52491 44.208 9.5954 44.3862 9.65767 44.2627C9.66732 44.2435 9.67638 44.2239 9.68488 44.204C9.78913 43.9633 9.81207 43.6474 9.84764 43.4018C9.86199 43.2975 9.68409 43.3481 9.68222 43.3327C9.6656 43.1131 9.87375 42.895 9.54948 42.7434C10.4378 42.7015 9.48177 42.5894 9.6902 42.3036C9.70691 42.2817 10.123 42.2958 10.1733 42.395C10.2238 42.4926 10.0775 42.6336 10.1565 42.7773C10.1754 42.8085 10.5411 43.0309 10.5614 43.0599C10.721 43.2781 10.1011 43.236 10.0661 43.2418C9.68771 43.3093 10.0769 43.5761 10.098 43.6405C10.1788 43.8926 10.1123 44.0629 10.1259 44.2624C10.1286 44.2993 10.1342 44.3365 10.1442 44.3745C10.1847 44.5328 10.5856 44.5999 10.5579 44.7107C10.4655 45.0801 9.88336 45.1472 10.3186 45.5662C10.4108 45.6586 10.8619 45.646 10.4746 45.8738C10.45 45.8897 10.1031 46.0462 10.2847 46.1927C10.3076 46.2113 10.4356 46.2307 10.4433 46.2519C10.4924 46.3935 10.3767 46.4653 10.4022 46.6177C10.4272 46.7737 10.4727 46.9518 10.4019 47.109C10.3596 47.2031 10.1003 47.2897 10.034 47.327C9.97245 47.3609 9.95686 47.4037 9.95658 47.4479C9.95594 47.541 10.0233 47.6361 9.87618 47.6676C9.65786 47.7136 9.37667 47.4991 9.20698 47.6899C9.53659 47.7569 9.87306 47.836 10.2036 47.9085C10.1055 48.3889 9.91072 48.8322 9.82797 49.3155C9.81809 49.3751 10.0076 49.3505 10.0015 49.4155C9.97472 49.6901 9.79906 49.8987 9.78831 50.1879C9.78294 50.3435 9.8455 50.5252 9.88219 50.7015C9.89838 50.7793 9.9096 50.8558 9.90771 50.9287C9.50087 50.9798 9.54805 51.3438 9.45266 51.5773C9.41954 51.659 9.32135 51.628 9.2734 51.6804C9.09465 51.8777 9.45124 51.8559 9.48677 51.9323C9.63644 52.2611 8.88721 52.0851 8.81988 52.4C8.81627 52.4164 9.15311 52.7329 9.16916 52.7688C9.27727 52.9948 9.02346 52.759 8.96187 52.8623C8.84867 53.0513 8.71465 53.1574 8.7532 53.4362C8.76337 53.5037 8.89908 53.6885 8.80391 53.7895C8.78585 53.8087 8.75948 53.8247 8.7224 53.8362C8.69198 53.8457 8.56649 53.7933 8.55428 53.8049C8.34417 54.0158 8.74238 54.1656 8.82616 54.3634C8.90895 54.5638 8.54776 54.6925 8.45147 54.7068C8.20142 54.7485 8.39809 54.5828 8.38018 54.5683C8.16749 54.4049 8.15057 54.5792 8.08097 54.6997C7.68387 54.5693 7.63979 54.7508 8.01054 54.8239C8.05127 54.8316 8.0534 54.7186 8.08097 54.6997C8.42116 54.9576 8.389 55.1838 7.94749 55.2453C7.73973 55.2743 7.5909 55.095 7.52825 55.4277C7.49895 55.5769 7.7846 55.6436 7.79987 55.7975C7.83787 56.1425 7.40369 56.4029 7.2819 56.6914C7.23312 56.8043 7.42937 56.7818 7.39996 56.8625C7.39745 56.8694 7.3948 56.8761 7.39202 56.8828C7.30495 57.0882 7.11899 57.1758 7.03347 57.3971C7.0254 57.4181 7.19068 57.4706 7.14834 57.533C6.83335 57.9878 6.41429 58.3297 5.81502 58.7215C5.53407 58.9378 4.75542 59.3152 4.35875 59.2817C4.16813 59.2829 3.98398 59.2457 3.81555 59.192C3.06164 59.0599 2.70639 58.3818 2.47394 58.0682C2.23676 57.7205 2.15482 57.9003 1.98916 57.8206C1.66877 57.6589 1.87281 57.0469 1.91927 56.9831C1.91981 56.9818 2.04056 57.2204 2.07542 57.0578C2.2168 56.9239 1.92128 56.9866 1.91927 56.9831C1.93168 56.9037 1.84918 56.4694 1.80421 56.4084C1.77661 56.3691 1.63114 56.4312 1.61956 56.4096C1.34209 55.8676 1.20189 55.2991 1.19252 54.7418C1.19415 54.7313 1.3692 54.7207 1.37091 54.6965C1.4006 54.3652 1.15644 54.1405 1.00248 53.9258C0.845972 53.6883 0.865335 53.4732 1.14723 53.2859C1.08859 53.0913 1.19222 52.7848 1.25698 52.6055C1.32146 52.4241 0.982207 52.4458 0.973947 52.429C0.723029 52.0197 0.897393 51.7486 0.895414 51.2774C0.894941 51.0545 0.817437 50.5948 0.768755 50.3826C0.728744 50.202 0.802502 50.0868 0.742962 49.9184C0.735001 49.8956 0.58494 49.9266 0.578763 49.9198C0.388279 49.7367 0.762617 49.8108 0.826696 49.768C1.0599 49.6121 1.18352 49.5182 1.05953 49.2733C1.03112 49.2171 0.491383 49.0701 0.455931 48.9636C0.412265 48.8299 0.591782 48.8681 0.55612 48.739C0.554953 48.7349 0.553539 48.7301 0.551907 48.726C0.547686 48.7145 0.429978 48.7215 0.432016 48.6372C0.439945 48.2456 0.494521 47.8086 0.471301 47.3857C0.468583 47.3278 0.283687 47.4071 0.276695 47.3235C0.244056 46.9324 0.241195 46.484 0.32221 46.124C0.342676 46.0322 0.474594 46.0872 0.513095 46.0666C0.746018 45.941 0.401538 45.773 0.394584 45.7442C0.219767 45.0676 0.523264 44.495 0.37227 43.8154C0.363378 43.7781 -0.00426579 43.4881 0.309555 43.3559C0.330425 43.3468 0.651448 43.2167 0.431483 43.1023C0.417725 43.0952 0.252396 43.1766 0.269012 43.0351C0.285597 42.8937 0.174958 42.6648 0.356971 42.4683C0.414302 42.406 0.735081 42.2597 0.479996 42.0724C0.462144 42.06 -0.11484 41.7695 0.284349 41.675C0.350069 41.6591 0.771861 41.6781 0.556595 41.4615C0.514871 41.4201 0.42036 41.4945 0.362171 41.3854C0.272493 41.2182 0.386917 40.9972 0.200571 40.7888C0.167567 40.7526 -0.117588 40.5963 0.100886 40.4743C0.135102 40.4552 0.27563 40.4933 0.291982 40.428C0.370409 40.1179 0.279714 39.7892 0.381148 39.4707C0.416806 39.3584 0.643803 39.4171 0.706301 39.3031C0.756383 39.2121 0.806039 39.0462 0.771108 38.9211C0.762462 38.8901 0.748632 38.8617 0.728337 38.8375C0.626006 38.7155 0.261152 38.8419 0.234808 38.6607C0.120473 37.8755 0.34847 37.0758 0.396827 36.2947C0.404053 36.1784 0.272058 36.2721 0.273437 36.1004C0.277545 35.4697 0.18439 34.3569 0.476133 33.8148C0.709589 33.3812 0.862013 33.9396 0.961517 33.606C1.00905 33.4452 0.592463 33.257 0.580352 33.2173C0.456851 32.8296 0.651925 32.568 0.605577 32.2198C0.595959 32.1479 0.422788 32.2127 0.416494 32.1515C0.393486 31.9424 0.476917 31.7259 0.469578 31.5262C0.465893 31.4366 0.334808 31.4484 0.347619 31.367C0.376779 31.1722 0.437554 31.0011 0.566508 30.8146C0.578259 30.7976 0.736591 30.9204 0.747645 30.7759C0.765083 30.542 0.896077 30.2554 0.781227 29.9812C0.746643 29.8998 0.448407 29.8858 0.66075 29.7212C0.705115 29.6866 1.06162 29.7459 0.759519 29.534C0.720869 29.5066 0.471865 29.2913 0.485185 29.1227C0.489159 29.0723 0.516524 29.0262 0.579857 28.9905C0.65234 28.9496 0.949716 28.8495 0.907362 28.7515C0.900516 28.7381 0.738264 28.7843 0.725712 28.7039C0.684281 28.4204 0.712982 28.1263 0.674392 27.8353C0.663774 27.7576 0.493356 27.8659 0.48283 27.7503C0.453637 27.4323 0.51209 27.0393 0.576954 26.7329C0.601181 26.6199 0.735207 26.7043 0.7505 26.6967C0.999181 26.5738 0.674414 26.4814 0.657157 26.4364C0.554274 26.1568 0.717372 25.9551 0.687728 25.6979C0.679957 25.6271 0.521346 25.6701 0.508008 25.6555C0.378066 25.5045 0.65427 25.6248 0.689261 25.5344C0.788227 25.2812 0.78839 24.9945 0.7801 24.7345C0.776827 24.639 0.590616 24.7378 0.589777 24.6521C0.581429 24.1443 0.622934 23.6248 0.746393 23.1352C0.769994 23.0426 0.906848 23.1081 0.939671 23.0901C1.16921 22.9663 0.874252 22.7552 0.847438 22.7086C0.724945 22.4967 0.852303 22.423 0.838065 22.2409C0.766203 21.3529 0.902931 20.2746 0.997679 19.4365C1.00082 19.4087 1.00399 19.3811 1.0072 19.3536C1.12814 18.3252 1.2992 17.4902 1.32181 16.485C1.32346 16.4196 1.13407 16.475 1.13311 16.4185C1.1282 15.7062 1.24384 14.9602 1.2329 14.2302C1.23234 14.17 1.05126 14.246 1.04445 14.1492C1.02926 13.9505 1.05349 13.7032 1.12137 13.5102C1.15415 13.4161 1.29753 13.5535 1.32744 13.4586C1.39693 13.2459 1.42514 12.9851 1.41122 12.7467C1.40497 12.6443 1.2157 12.7868 1.22161 12.6546C1.25869 11.7454 1.27804 10.9297 1.57019 10.0106C1.59009 9.95013 1.95928 9.91929 1.89739 9.78506C1.7965 9.76884 1.67706 9.76177 1.56884 9.75061C1.56977 9.69845 1.57101 9.64648 1.57252 9.5947C1.60953 8.35236 1.80453 7.17957 1.91026 5.89775C1.9147 5.8439 1.71464 5.92385 1.72224 5.81965C1.76298 5.26125 1.75571 4.58332 1.9896 4.00598C2.01258 3.94802 2.3513 4.00128 2.31187 3.82494C2.30402 3.80197 2.27828 3.51865 2.21004 3.4324C2.1996 3.42141 2.03679 3.46324 2.03878 3.36914C2.05454 2.80354 2.12161 2.37641 2.26153 1.79573C2.28353 1.71434 2.4465 1.81444 2.46362 1.7568C2.5786 1.41834 2.49314 0.822921 2.67092 0.51532C2.79842 0.204589 3.08196 0.348544 3.38056 0.231726C3.42326 0.20771 3.43734 0.107878 3.61032 0.0509208C4.0345 0.0480022 4.48631 0.210132 4.93963 0.191628C5.04284 0.114743 4.94335 0.0459356 5.17416 0.103026C5.19308 0.0611297 5.24926 0.346875 5.33019 0.332387C5.38335 0.358756 5.5569 0.33135 5.62361 0.382677C5.69014 0.435655 5.54302 0.480315 5.61771 0.590025C5.69409 0.691071 5.88814 0.704043 5.89898 0.867504ZM1.55579 51.8651C1.70739 51.706 1.10923 51.7288 1.26417 51.8779C1.27237 51.8851 1.54839 51.8733 1.55579 51.8651ZM9.46601 48.7451C9.16991 48.8856 9.52402 49.0927 9.75091 48.9963C9.97761 48.8991 9.55586 48.7017 9.46601 48.7451ZM9.63039 46.727C9.38873 46.9142 10.2195 47.0894 10.0898 46.822C10.0825 46.8065 9.64443 46.716 9.63039 46.727ZM3.41325 0.894838C3.42139 0.89253 3.43746 0.781075 3.42973 0.778837C3.24473 0.704893 3.21278 0.927031 3.41325 0.894838ZM9.72079 44.7213C9.5977 44.7742 9.70025 44.9958 9.85388 44.9281C9.97767 44.8727 9.87417 44.6542 9.72079 44.7213ZM1.9209 44.1017C1.92979 44.0994 1.93727 44.0155 1.8869 44.0175C1.72464 44.0242 1.77123 44.1407 1.9209 44.1017ZM10.1082 41.3564C10.0285 41.8498 9.29783 42.0891 9.43271 41.5503C9.45667 41.4549 9.63408 41.7812 9.70941 41.6635C9.84523 41.4624 9.42265 41.2648 9.67803 41.0525C9.72693 40.9929 10.1122 41.3538 10.1091 41.3574C10.1088 41.357 10.1085 41.3567 10.1082 41.3564ZM2.26573 51.726C2.27337 51.7226 2.27206 51.6048 2.26405 51.6024C2.06987 51.5528 2.07246 51.791 2.26573 51.726ZM2.31175 39.1139C2.32136 39.1103 2.3318 39.0214 2.33626 38.9434C2.33965 38.884 2.33956 38.8309 2.33291 38.8269C2.18823 38.7581 2.10241 38.8427 2.08597 38.9398C2.06736 39.0498 2.13768 39.1754 2.31175 39.1139ZM4.93843 57.3294C4.91856 57.1149 4.98358 57.0353 5.2123 57.1536C5.11754 57.2199 5.02914 57.2847 4.93843 57.3294ZM18.3693 14.9097C18.5399 14.8343 18.7799 14.8585 18.9668 14.9107C19.0253 14.9268 19.0113 15.0357 19.0524 15.0515C19.1326 15.0824 19.1954 15.0215 19.2759 15.0603C19.3026 15.0737 19.2943 15.2442 19.3218 15.2544C19.4724 15.3092 19.5999 15.249 19.7473 15.2654C20.473 15.3462 21.1718 15.3165 21.893 15.2974C22.1308 15.291 22.4359 15.404 22.6693 15.3056C22.6965 15.294 22.6601 15.1501 22.6639 15.1373C22.7236 14.9417 22.735 15.2404 22.7953 15.2723C23.0346 15.3978 23.2794 15.3788 23.4823 15.2943C23.4835 15.2938 23.4847 15.2933 23.4858 15.2926C23.5649 15.2502 23.4416 14.9819 23.5519 15.1306C23.5597 15.1408 23.5577 15.299 23.5844 15.3122C23.645 15.342 23.747 15.3002 23.7917 15.3067C23.8781 15.3201 23.8917 15.3167 23.9706 15.308C24.0786 15.2974 24.2167 15.3574 24.3274 15.3069C24.351 15.2956 24.2971 15.1409 24.3328 15.1086C24.3685 15.0764 24.4742 15.076 24.5143 15.1088C24.5544 15.1416 24.5561 15.2686 24.5662 15.2964C24.6495 15.5315 24.725 15.1805 24.7394 15.1701C25.0027 14.9913 25.2701 15.1498 25.5349 15.1139C25.7358 15.0863 25.9424 14.9946 26.1348 14.9777C26.3642 14.9581 26.5689 15.0185 26.7883 14.9742C26.8115 14.9697 26.7591 14.7863 26.7874 14.7804C27.0877 14.7182 27.3915 14.6984 27.7103 14.7843C27.7423 14.7931 27.7252 14.9625 27.7585 14.9811C27.9617 15.0913 28.298 15.3763 28.3125 14.6468C28.4417 14.6579 28.5979 14.6665 28.7293 14.7956C28.8019 14.8667 28.7783 15.0148 28.8194 15.0008C28.8263 14.9984 28.835 14.9914 28.8464 14.9787C28.8642 14.959 28.8172 14.8059 28.8454 14.7882C28.9643 14.714 29.1094 14.7464 29.2239 14.6488C29.2471 14.6285 29.2214 14.4891 29.2252 14.4629C29.2586 14.2501 29.4047 14.575 29.43 14.5966C29.6221 14.7576 29.7349 14.6691 29.8916 14.6527C29.928 14.649 29.86 14.4662 29.8941 14.4558C30.0713 14.4047 30.2608 14.3959 30.4491 14.4559C30.491 14.4697 30.4762 14.6351 30.4973 14.6499C30.5903 14.7133 30.5682 14.4075 30.6565 14.4624C30.6751 14.4736 30.684 14.6124 30.6891 14.627C30.7686 14.8577 30.7654 14.5163 30.7767 14.5072C30.9191 14.3851 31.0655 14.7224 31.2094 14.6527C31.2266 14.644 31.1628 14.4754 31.2125 14.4616C31.5434 14.3686 31.9065 14.3687 32.259 14.4633C32.3138 14.4777 32.2942 14.6134 32.2996 14.629C32.3864 14.8736 32.3759 14.5318 32.3911 14.5168C32.5124 14.4076 32.6749 14.6737 32.712 14.2599C33.1808 14.3112 33.6165 14.1277 34.085 14.2004C34.2004 14.2183 34.3177 14.2518 34.438 14.3081C34.4457 14.3113 34.4551 14.4791 34.4704 14.4848C34.6541 14.5552 34.5868 14.3014 34.658 13.9706C34.6759 13.8875 34.8137 14.2571 34.8251 14.284C34.8669 14.3832 34.8708 14.6342 34.8828 14.6529C34.9813 14.7991 34.8596 13.9836 34.9642 13.9694C34.9677 13.9703 34.974 14.1225 34.9848 14.1363C35.0184 14.1796 35.0375 14.1162 35.0711 14.1645C35.1482 14.2761 35.223 14.6703 35.2855 14.4267C35.2933 14.3951 35.2134 13.934 35.3098 13.9434C35.3482 13.9476 35.5121 13.9176 35.5623 13.9415C35.6125 13.9653 35.6007 14.1189 35.6049 14.125C35.7556 14.3059 35.7194 14.394 35.8208 14.6782C35.922 14.9612 35.8119 14.2686 35.827 14.1877C35.8421 14.1069 35.9551 14.2577 35.985 14.3114C36.015 14.3651 35.9997 14.4637 36.0239 14.4932C36.184 14.6851 36.0358 14.1405 36.0646 14.0244C36.1324 13.7496 36.2811 14.2542 36.3817 14.2922C36.409 14.3024 36.3726 14.1878 36.3937 14.1738C36.4778 14.12 36.5531 14.2736 36.6354 14.1125C36.6489 14.0863 36.6899 13.7654 36.7737 13.9857C36.7856 14.0175 36.7813 14.1487 36.8233 14.1724C36.8861 14.208 36.9927 14.2223 37.0483 14.1712C37.0893 14.1334 37.0092 13.9287 37.075 13.9868C37.1042 14.0128 37.0738 14.1429 37.1274 14.1813C37.1807 14.2198 37.301 14.1982 37.3465 14.1878C37.3919 14.1773 37.3453 14.0201 37.3476 14.0088C37.3618 13.9439 37.4397 13.8547 37.4475 13.8539C37.8382 13.7818 38.237 14.0039 38.608 13.8632C38.6371 13.8524 38.5945 13.6858 38.5987 13.6824C38.6921 13.5978 38.6711 14.0586 38.763 14.1997C38.7068 13.8576 38.7575 13.9141 38.825 13.8668C38.8574 13.8437 38.8207 13.7132 38.822 13.6992C38.8468 13.4903 38.9177 13.7463 38.9342 13.7985C38.9947 13.9902 39.001 13.7533 39.0419 13.8814C39.0826 14.0085 39.0547 14.2088 39.1239 14.1971C39.1269 14.0715 39.0324 13.7571 39.0783 13.698C39.1494 13.606 39.2598 13.5861 39.3766 13.595C39.5437 13.6076 39.7236 13.6789 39.8199 13.6817C39.9832 13.6865 40.0317 13.657 40.1308 13.689C40.3096 13.7469 40.2162 13.5167 40.306 13.3937C40.3962 13.2706 40.4236 13.8639 40.4555 13.988C40.4871 14.1121 40.4859 13.9802 40.5135 14.047C40.5411 14.1138 40.5129 14.2048 40.5594 14.2251C40.606 14.2453 40.6939 14.0054 40.6916 13.8715C40.6866 13.5879 40.5944 13.3018 40.7222 13.3896C40.7296 13.3948 40.7289 13.5519 40.7561 13.5641C40.9715 13.6562 41.1797 13.6359 41.3931 13.7143C41.4224 13.7253 41.4208 13.9002 41.4382 13.9085C41.6189 13.9961 41.5209 13.7147 41.5691 13.3812C41.6057 13.8116 41.691 14.0665 41.8174 14.0522C41.8934 14.0438 41.8554 13.8587 41.8869 13.7205C41.8963 13.6789 41.967 13.8 41.965 13.7109C41.9587 13.4194 41.8653 13.1047 42.0124 13.2154C42.0189 13.2207 42.0217 13.3803 42.0427 13.3872C42.1784 13.4325 42.1535 13.1301 42.2863 13.0753C42.3904 13.0324 42.6068 13.1899 42.7337 13.2033C42.7953 13.6845 42.8966 13.5589 42.8995 13.2211C42.981 13.224 43.0647 13.1938 43.1479 13.2293C43.1765 13.2414 43.1776 13.3829 43.183 13.3975C43.2658 13.6266 43.2574 13.2995 43.2729 13.2845C43.4431 13.1367 43.6277 13.3609 43.7738 13.0982C43.779 13.0887 43.7446 12.7534 43.8248 12.9909C43.8301 13.0073 43.7916 13.1671 43.8769 13.1677C43.9623 13.1683 44.1441 13.3262 44.2397 13.1559C44.2629 13.1149 44.2979 12.8343 44.3833 13.0385C44.3947 13.0663 44.3992 13.1632 44.4173 13.215C44.4755 13.3801 44.4498 13.0399 44.5298 13.3212C44.5939 13.5464 44.6808 13.7215 44.7595 13.6727C44.7791 13.6606 44.7981 13.6346 44.8162 13.592C44.8192 13.5858 44.8112 13.3145 44.8487 13.3138C44.9085 13.3129 44.9995 13.3575 45.0608 13.3476C45.0901 13.3427 45.0491 13.1791 45.0538 13.1753C45.2392 13.0558 45.3999 13.1851 45.6205 13.2211C45.661 13.228 45.7424 12.9866 45.8416 13.1556C45.9504 13.3407 45.9744 14.1677 46.1383 13.948C46.2045 13.8601 46.1633 12.8123 46.3726 13.3301C46.6218 13.1616 46.9053 13.403 47.1477 13.1776C47.1586 13.1676 47.1581 12.8737 47.1869 12.8738C47.2298 12.8746 47.2709 13.0065 47.3021 13.0114C47.4332 13.0353 47.5328 12.9044 47.6564 12.9062C47.7033 12.9066 47.7059 13.0483 47.7618 13.0488C47.8177 13.0491 47.8297 12.8605 47.9159 12.9393C47.9811 12.9995 48.0873 13.3677 48.1677 13.4015C48.1211 13.0306 48.1733 13.0314 48.2512 12.9214C48.2661 12.9001 48.2302 12.7736 48.2363 12.7569C48.2611 12.6859 48.3065 12.7886 48.3288 12.712C48.3343 12.6936 48.3178 12.567 48.3213 12.5448C48.3504 12.3512 48.4775 12.624 48.4994 12.6715C48.5832 12.8519 48.5886 12.6837 48.6434 12.7518C48.6982 12.8199 48.6435 12.9215 48.7019 12.9595C48.823 13.038 48.9599 12.9989 49.0711 12.99C49.1153 12.9857 49.0627 12.8208 49.0685 12.8162C49.1539 12.7612 49.2699 12.9286 49.2755 12.5854C49.4548 13.447 49.3192 12.4937 49.4726 12.6505C49.4847 12.6632 49.5527 13.0729 49.5214 13.1385C49.4901 13.2041 49.4132 13.0835 49.3712 13.1849C49.3612 13.2088 49.3386 13.6042 49.3316 13.6289C49.2767 13.822 49.1834 13.2086 49.1748 13.1754C49.0786 12.8174 49.0435 13.2448 49.0235 13.2767C48.932 13.4227 48.8278 13.3486 48.7491 13.4547C48.6975 13.5233 48.7454 13.9268 48.6969 13.9208C48.5357 13.9008 48.4064 13.3462 48.3246 13.853C48.307 13.9611 48.3971 14.3971 48.2381 14.066C48.2281 14.0451 48.1021 13.7397 48.0805 13.9464C48.0778 13.9725 48.0951 14.1007 48.0885 14.1126C48.0441 14.1894 47.9947 14.092 47.9427 14.1488C47.8908 14.2055 47.8302 14.2879 47.7576 14.2533C47.7139 14.2327 47.6303 14.0005 47.6032 13.9446C47.5263 13.7833 47.5049 14.0675 47.444 13.8678C47.3826 13.6672 47.4074 13.3468 47.3006 13.2261C47.3418 13.5599 47.3799 13.903 47.4193 14.2389C47.2225 14.2532 47.0159 14.1711 46.8219 14.212C46.7979 14.2174 46.8467 14.3932 46.8216 14.4036C46.7155 14.4468 46.6025 14.3318 46.4953 14.3979C46.4125 14.4498 46.3411 14.6524 46.2552 14.7125C46.148 14.3386 46.0284 14.4864 45.9244 14.4648C45.8879 14.4574 45.8766 14.3552 45.8474 14.3253C45.7376 14.2149 45.8264 14.5461 45.8078 14.6025C45.7282 14.8435 45.6169 14.082 45.4899 14.1181C45.4831 14.1198 45.4535 14.5376 45.4453 14.5645C45.3939 14.7394 45.4142 14.4246 45.3643 14.4006C45.273 14.3569 45.2018 14.2676 45.1192 14.3999C45.0952 14.439 45.0602 14.7016 44.9783 14.513C44.9675 14.4883 44.9536 14.3534 44.9467 14.3463C44.891 14.2939 44.871 14.3499 44.8621 14.4412C44.8512 14.5537 44.8571 14.7198 44.8339 14.8032C44.792 14.9544 44.6587 14.6754 44.6283 14.594C44.5491 14.3833 44.6544 14.4959 44.6543 14.4743C44.6523 14.2161 44.5894 14.269 44.5339 14.2546C44.4711 13.8415 44.4009 13.8762 44.4767 14.2413C44.4851 14.2812 44.5209 14.2371 44.5339 14.2546C44.542 14.667 44.4682 14.7298 44.3283 14.3621C44.2628 14.1897 44.2746 13.977 44.1578 14.0698C44.1048 14.1118 44.1652 14.3939 44.1247 14.4784C44.0323 14.6713 43.846 14.4255 43.7319 14.4834C43.6905 14.5044 43.7536 14.6548 43.726 14.6745C43.6529 14.7274 43.5678 14.6196 43.4967 14.6901C43.4903 14.6967 43.5296 14.8577 43.5053 14.8631C43.3213 14.907 43.1449 14.824 42.9498 14.8471C42.8555 14.8584 42.6993 14.9709 42.5995 14.9658C42.4265 14.9579 42.1869 14.7481 42.0503 14.8251C41.9611 14.8746 42.0036 15.0352 41.9781 15.152C41.9291 15.3782 41.7397 15.01 41.7132 14.9526C41.7124 14.9507 41.7882 14.9014 41.7338 14.8233C41.6853 14.6518 41.714 14.9517 41.7132 14.9526C41.6959 14.9156 41.5291 14.9001 41.5011 14.9356C41.486 14.955 41.5164 15.1085 41.5081 15.1157C41.3102 15.2831 41.0988 15.3514 40.8697 15.3083C40.8654 15.3057 40.8481 15.1318 40.8383 15.1278C40.701 15.0677 40.6479 15.2904 40.56 15.4302C40.472 15.5699 40.3833 15.5389 40.2816 15.2499C40.2075 15.2979 40.0766 15.1816 40.0007 15.1105C39.9248 15.0395 39.9607 15.3778 39.9558 15.3852C39.8454 15.5592 39.7465 15.5093 39.6267 15.4682C39.5831 15.4533 39.5368 15.4395 39.4862 15.4381C39.3958 15.435 39.2272 15.5073 39.1364 15.5569C39.0648 15.5967 39.0087 15.5238 38.9458 15.5836C38.9373 15.5916 38.9669 15.7405 38.9648 15.7466C38.911 15.9366 38.8994 15.5647 38.8746 15.5013C38.7846 15.2707 38.7317 15.1486 38.6471 15.274C38.6276 15.3027 38.6313 15.84 38.5935 15.8765C38.5444 15.9229 38.5396 15.7308 38.4888 15.7843C38.4844 15.7887 38.501 15.9054 38.4651 15.9049C38.2989 15.9044 38.1119 15.8601 37.9438 15.8945C37.9208 15.8987 37.9753 16.0801 37.9424 16.0893C37.7883 16.1322 37.6152 16.1483 37.4506 16.082C37.41 16.0651 37.4163 15.9322 37.403 15.8948C37.3216 15.6684 37.2957 16.0166 37.2848 16.0246C37.0263 16.2248 36.771 15.9469 36.5049 16.1309C36.4905 16.1416 36.4193 16.5206 36.3243 16.2164C36.3179 16.1961 36.2225 15.8846 36.2049 16.1087C36.2038 16.1227 36.2586 16.2823 36.199 16.2732C36.1393 16.2642 36.0615 16.3861 35.9585 16.2164C35.9259 16.163 35.8244 15.8531 35.7837 16.1164C35.7812 16.1347 35.7426 16.7229 35.6487 16.3332C35.6334 16.269 35.5845 15.8498 35.5241 16.0761C35.5127 16.12 35.556 16.2092 35.519 16.2734C35.4624 16.3723 35.3565 16.2724 35.297 16.47C35.2867 16.505 35.2619 16.7972 35.1829 16.5884C35.1706 16.5557 35.1669 16.4141 35.1382 16.402C35.0021 16.3439 34.8825 16.455 34.7415 16.3755C34.6916 16.3476 34.6846 16.1188 34.6292 16.0646C34.5739 16.0104 34.4708 15.965 34.4351 16.0747C34.3994 16.1845 34.5015 16.5371 34.4311 16.5758C34.4221 16.5807 34.4131 16.5854 34.404 16.5898C34.1049 16.734 33.7682 16.5758 33.4518 16.5875C33.4034 16.5893 33.4602 16.7127 33.3902 16.7246C33.132 16.7688 32.7002 16.9493 32.4386 16.7058C32.229 16.5108 32.4337 16.3137 32.284 16.2429C32.2118 16.2093 32.1957 16.6371 32.1814 16.6525C32.0424 16.8071 31.9087 16.6364 31.7751 16.7121C31.7475 16.7278 31.7987 16.8935 31.775 16.905C31.6942 16.9457 31.595 16.8819 31.5159 16.9066C31.4804 16.918 31.5044 17.0466 31.4696 17.0411C31.3867 17.0293 31.3087 16.9844 31.2145 16.8734C31.2059 16.8633 31.2323 16.6958 31.1723 16.6978C31.0753 16.7013 30.9405 16.5975 30.8468 16.7358C30.819 16.7774 30.8573 17.0734 30.7597 16.8785C30.7392 16.8377 30.7106 16.4799 30.6697 16.7979C30.6628 16.8507 30.5805 17.2832 30.4774 17.0253C30.4502 16.9574 30.366 16.6727 30.3327 16.7236C30.3284 16.7316 30.371 16.8877 30.3404 16.9076C30.2325 16.9748 30.1099 16.9739 29.9986 17.0394C29.9689 17.0572 30.0378 17.2154 29.9929 17.2367C29.8693 17.2956 29.7025 17.2752 29.5694 17.2406C29.5203 17.2275 29.5343 17.087 29.5289 17.0726C29.4422 16.8387 29.4535 17.1685 29.4379 17.1899C29.3407 17.3186 29.2347 17.1771 29.1364 17.2314C29.1093 17.2459 29.1503 17.3984 29.1464 17.413C29.1452 17.4172 29.1441 17.4211 29.1429 17.4245C29.1058 17.5397 29.111 17.2708 29.0707 17.2458C28.9544 17.1728 28.8394 17.2008 28.7361 17.2348C28.6982 17.2475 28.766 17.4217 28.7317 17.431C28.5293 17.4896 28.3122 17.501 28.0974 17.4287C28.0569 17.4148 28.0623 17.273 28.0501 17.2424C27.966 17.0282 27.9265 17.341 27.9119 17.3722C27.8458 17.5147 27.797 17.3965 27.7262 17.4292C27.3807 17.5913 26.9245 17.5696 26.5774 17.5649C26.1251 17.5596 25.7632 17.4737 25.3447 17.5644C25.3181 17.57 25.3698 17.7508 25.3472 17.7579C25.0538 17.8423 24.7496 17.8096 24.4568 17.9029C24.4327 17.9102 24.4916 18.0803 24.4537 18.0979C24.3762 18.1353 24.2724 18.1395 24.183 18.0946C24.1394 18.0731 24.173 17.916 24.1296 17.8973C24.0285 17.8536 23.9264 17.8546 23.834 17.8954C23.8338 17.8955 23.8336 17.8956 23.8334 17.8957C23.7956 17.915 23.88 18.0837 23.8274 18.0929C23.4673 18.159 23.1155 18.2373 22.7184 18.0547C22.6912 18.0422 22.6207 17.6818 22.5766 17.7586C22.586 17.86 22.6021 17.9785 22.6147 18.0865C22.0949 18.215 21.5559 18.1588 21.0242 18.2099C21.0018 18.2121 21.0661 18.3995 21.0228 18.4047C20.7725 18.4352 20.5369 18.521 20.2557 18.3638C20.2278 18.3484 20.1957 18.0081 20.1277 18.0693C20.1158 18.0804 20.0092 18.1406 19.9899 18.218C19.9875 18.2296 20.0291 18.3849 19.9934 18.3943C19.7858 18.4465 19.5601 18.4399 19.3367 18.3714C19.3006 18.3601 19.3143 18.1869 19.2884 18.1774C19.1049 18.1109 18.9353 18.2638 18.7509 18.1329C18.6274 18.0446 18.6292 17.7483 18.5326 17.4697C18.519 17.4304 18.4501 17.433 18.4244 17.2669C18.3594 16.8491 18.3311 16.3859 18.258 15.9411C18.2423 15.8452 18.1651 15.961 18.1879 15.7213C18.1896 15.7053 18.2453 15.6193 18.251 15.5383C18.2551 15.4822 18.2121 15.3155 18.2258 15.2426C18.2396 15.1698 18.2839 15.3085 18.3113 15.2214C18.3385 15.1332 18.2959 14.9427 18.3693 14.9097ZM39.6593 14.7933C39.5773 14.6395 39.6475 15.2336 39.6939 15.083C39.6961 15.075 39.6635 14.8008 39.6593 14.7933ZM46.9573 13.7237C46.8434 13.4727 46.8407 13.8645 46.9234 14.059C47.006 14.2533 46.992 13.7997 46.9573 13.7237ZM47.7509 13.4234C47.6311 13.2295 47.7288 14.0723 47.805 13.8891C47.8095 13.8787 47.7579 13.4347 47.7509 13.4234ZM18.7922 17.352C18.7903 17.3442 18.7405 17.3431 18.7403 17.351C18.7395 17.5428 18.8392 17.545 18.7922 17.352ZM48.536 13.107C48.492 12.9971 48.4266 13.1395 48.4813 13.2761C48.5253 13.3861 48.5908 13.2437 48.536 13.107ZM36.4229 14.5813C36.4208 14.5726 36.3847 14.5693 36.3921 14.6191C36.4159 14.7797 36.4586 14.7278 36.4229 14.5813ZM49.9162 12.9129C49.7079 12.9085 49.4914 12.2305 49.7242 12.2792C49.7663 12.288 49.667 12.5122 49.7266 12.568C49.8355 12.6696 49.8396 12.2252 49.9664 12.4461C49.9895 12.4866 49.9283 12.9147 49.916 12.9139C49.9161 12.9136 49.9162 12.9132 49.9162 12.9129ZM39.5294 14.0858C39.5272 14.0781 39.4777 14.0771 39.4776 14.0851C39.4764 14.2768 39.5761 14.2788 39.5294 14.0858ZM34.3299 14.4875C34.325 14.4712 34.2104 14.4706 34.2088 14.4865C34.1912 14.8021 34.423 14.8043 34.3299 14.4875ZM42.7373 13.2159C42.765 13.0194 42.8253 12.9887 42.8992 13.2209C42.8449 13.2153 42.7917 13.2205 42.7373 13.2159ZM40.1033 1.06361C40.1554 1.71252 40.0996 2.54998 40.0232 3.14963C39.9995 3.35085 39.8934 3.24864 39.8723 3.38984C39.8311 3.69074 39.8831 3.89179 39.834 4.16387C39.8172 4.25107 39.6492 4.14241 39.6355 4.23403C39.5613 4.76376 39.604 5.20379 39.5683 5.72319C39.5162 6.48109 39.474 7.19735 39.4385 7.94445C39.3537 9.70434 39.3065 11.4399 39.2527 13.234C39.2281 14.0525 39.0812 15.0484 39.1381 15.8995C39.1393 15.917 39.1405 15.9344 39.1418 15.9518C39.1498 16.0533 39.2972 15.9928 39.3093 16.0121C39.4953 16.3157 39.1977 16.2148 39.1582 16.4136C39.0021 17.1838 38.9885 18.0605 39.0454 18.809C39.07 19.1268 39.3628 18.8079 39.1985 19.1283C39.1874 19.1506 39.0308 19.0698 39.0141 19.1571C38.9766 19.355 39.0046 19.7321 38.9922 19.8867C38.9675 20.1842 38.9691 20.2345 38.9673 20.5157C38.9635 20.8971 38.8857 21.3524 38.9211 21.7645C38.9292 21.8525 39.0896 21.736 39.1169 21.8763C39.1442 22.0166 39.1306 22.3889 39.0928 22.5143C39.0549 22.639 38.9288 22.5859 38.8999 22.608C38.6559 22.7896 38.9938 23.2182 39.0022 23.2734C39.0304 23.473 39.0455 23.6672 39.0515 23.8575C39.0758 24.6265 38.9522 25.3316 38.9526 26.0884C38.9534 26.8038 39.017 27.5758 39.0083 28.2553C38.9973 29.0666 38.9103 29.763 38.9253 30.546C38.9267 30.6287 39.1153 30.5318 39.1174 30.6328C39.1254 31.0298 39.1278 31.4248 39.1214 31.8162C39.1102 32.4923 39.0724 33.1894 38.9914 33.8709C38.9785 33.9785 38.8129 33.8399 38.79 33.9473C38.6539 34.5902 38.3269 35.666 39.0481 36.0449C39.0199 36.4754 38.9908 37.0463 38.8454 37.4398C38.7519 37.6968 38.5714 37.4478 38.6484 37.7623C38.6656 37.833 38.8236 37.7411 38.8374 37.8471C38.8952 38.278 38.8439 38.8047 38.9255 39.2426C38.9425 39.333 39.0841 39.3083 39.1096 39.3339C39.23 39.4592 39.1642 39.6319 39.0834 39.7683C39.0257 39.8666 38.9603 39.9439 38.9499 39.979C38.765 40.594 38.8378 41.029 38.8332 41.5695C38.8321 41.7034 39.0223 41.5452 39.0281 41.6739C39.0553 42.3557 39.039 42.9557 38.9546 43.6301C38.9353 43.7716 38.7733 43.6415 38.7558 43.709C38.6807 44.0049 38.9868 44.0692 38.9206 44.3431C38.9071 44.4004 38.7684 44.3681 38.7532 44.3786C38.514 44.5464 38.8529 44.7086 38.8603 44.7514C38.9625 45.3323 38.6088 45.6262 38.6589 46.206C38.6653 46.2704 38.8408 46.1254 38.8479 46.306C38.8668 46.7266 38.871 47.294 38.8607 47.7166C38.8492 48.5101 38.65 49.3648 38.3024 50.0984C38.2143 50.2833 38.1385 50.1022 38.1187 50.1096C37.8124 50.2124 38.0817 50.45 38.0678 50.5177C37.9532 51.0346 37.4797 51.3034 37.6461 51.8069C37.4974 52.0184 37.3488 52.2194 37.1937 52.4196C36.1777 53.727 34.9632 54.874 33.4962 55.5514C33.2745 55.6533 33.0495 55.7426 32.819 55.8194C32.794 55.8281 32.7554 55.6586 32.7062 55.6764C32.1109 55.8818 32.3385 56.0544 32.09 56.525C32.0243 56.6446 31.5727 56.4223 31.5377 56.4055C31.403 56.3497 31.4036 56.0788 31.3643 56.0736C31.0485 56.0333 31.4024 56.7816 31.0337 56.9227C31.0219 56.9257 31.0164 56.7657 30.9806 56.763C30.8697 56.754 30.7964 56.8448 30.6859 56.8283C30.4306 56.7889 30.2344 56.4339 29.9829 56.7556C29.9501 56.7964 30.1514 57.2271 29.8088 57.3022C29.7053 57.3251 29.3375 57.4255 29.0885 57.4686C29.0085 57.483 28.9408 57.4923 28.8984 57.4938C28.7229 57.4994 28.8089 57.3276 28.7954 57.3238C28.3053 57.2176 28.4614 57.1017 28.1915 56.8501C27.929 56.5951 28.0976 57.2774 28.0169 57.3689C27.9377 57.4608 27.5778 57.3406 27.493 57.2908C27.4062 57.2424 27.4968 57.1366 27.4221 57.1118C26.9349 56.9442 27.2444 57.4773 27.0937 57.6012C26.7219 57.891 26.3984 57.3784 26.0681 57.3217C25.975 57.3059 26.0487 57.4261 25.9645 57.435C25.6269 57.4655 25.4497 57.2923 25.0582 57.3972C24.9973 57.4154 24.6378 57.682 24.4797 57.4179C24.4585 57.3802 24.5589 57.2675 24.4275 57.2129C24.3905 57.1973 24.3461 57.1805 24.2988 57.1635C24.0946 57.0916 23.8266 57.0094 23.6434 56.9895C23.4737 56.9703 23.5951 57.2327 23.4093 57.1034C23.3284 57.0451 23.5338 56.9824 23.381 56.883C23.2277 56.7866 22.8221 56.6269 22.6659 56.5522C22.512 56.4822 22.5229 56.6675 22.5061 56.6715C22.4021 56.6929 22.0673 56.5986 22.0419 56.5808C21.252 56.1338 20.6616 55.4591 20.2265 54.7351C19.9277 54.2388 19.6948 53.728 19.4597 53.1788C19.4169 53.0776 19.2796 53.2021 19.2715 53.1873C19.0813 52.8405 19.6071 52.9902 19.6766 52.7015C19.355 52.8328 19.3672 52.6682 19.2647 52.4073C19.2156 52.2805 19.101 52.3784 19.0847 52.3695C18.839 52.21 19.0755 52.0362 19.1223 51.9949C19.2953 51.8435 19.0415 51.7392 19.1605 51.6366C19.2792 51.5381 19.5 51.709 19.463 51.4613C19.3301 51.4007 19.0319 51.6247 18.9543 51.4307C18.8185 51.0853 18.7915 50.6287 18.8274 50.1327C18.8675 49.5556 18.9835 49.0851 19.0392 48.7425C19.1429 48.1538 19.1646 47.9767 19.2954 47.6324C19.5469 47.055 19.2491 47.2147 19.2909 46.7801C19.3514 46.3515 19.8136 46.783 19.952 46.781C20.0888 46.7874 19.9937 46.6818 20.0845 46.6559C20.1743 46.6327 20.1933 46.7875 20.28 46.6738C20.3638 46.5542 20.3843 46.0977 20.3145 45.9747C20.1589 45.7138 19.7843 45.7063 20.1563 45.404C20.1777 45.3882 20.2433 45.552 20.3187 45.4868C20.7398 45.1217 21.2119 44.7897 21.7164 44.5878C21.914 44.5075 22.1126 44.4471 22.3116 44.4076C22.4105 44.3886 22.3837 44.5813 22.4406 44.5728C23.0391 44.5057 22.7422 44.2935 23.011 43.8983C23.0249 44.3387 23.2541 44.5479 23.6768 44.5006C23.9313 44.4762 23.8712 44.2938 24.0386 44.1492C24.0899 44.1053 24.2913 44.2268 24.3243 44.138C24.4323 43.8478 24.2401 43.5201 24.7258 43.6522C24.7468 43.6587 24.6767 43.816 24.7494 43.827C25.2233 43.9058 25.2906 43.6067 25.8092 43.622C26.2371 43.6372 26.8809 43.9317 27.3234 44.06C27.2145 44.5319 27.6319 44.5102 27.8816 44.2284C27.9271 44.2418 27.9734 44.2547 28.0204 44.2674C28.273 44.3359 28.5045 44.3914 28.7224 44.4938C28.8103 44.5353 28.7109 44.653 28.7184 44.6709C28.8287 44.9503 29.0412 44.6747 29.1062 44.681C29.7801 44.7565 30.237 45.1739 30.9072 45.1636C30.9312 45.1633 31.0832 44.8599 31.1588 45.151C31.163 45.1708 30.9106 45.2396 31.1895 45.3573C31.4791 45.479 31.9234 45.8484 32.3718 45.8662C32.478 45.8694 32.8291 45.7198 32.9313 45.9964C32.9446 46.0337 32.8795 46.1109 32.8939 46.1756C32.9411 46.3824 33.1398 46.0973 33.1603 46.422C33.1782 46.7052 33.3262 46.9853 33.6736 47.0485C33.7245 47.0577 33.7811 47.0629 33.8395 47.0615C33.8537 47.0616 34.0546 46.8565 34.1713 46.9151C34.3572 47.0086 34.6029 47.186 34.8031 47.2795C34.899 47.3242 34.91 47.1438 34.9279 47.1489C35.6105 47.3717 35.9907 47.7265 36.6394 48.1302C36.7556 48.2031 37.214 48.1823 37.3699 48.4683C37.5392 48.781 36.8914 49.3686 37.5756 49.5099C37.848 49.5664 38.6488 48.8112 38.824 49.5242C38.9913 49.588 39.1439 49.6599 39.2934 49.7401C39.9608 50.0984 40.5206 50.5964 41.2707 50.8513C41.312 50.8655 41.5764 50.6822 41.6623 50.7369C41.7892 50.8185 41.7928 50.9785 41.8793 51.0397C42.2428 51.3009 42.6552 51.4103 43.0187 51.6495C43.1565 51.7399 43.0359 51.8317 43.1984 51.9387C43.361 52.0458 43.5684 51.9545 43.7484 52.1686C43.8841 52.3311 43.8574 52.7587 44.0607 52.9353C44.2625 52.6247 44.4153 52.723 44.735 52.8079C44.7381 52.8087 44.7411 52.8095 44.7442 52.8104C44.8072 52.8268 44.8189 52.681 44.8522 52.6831C44.9895 52.6891 45.0271 52.8393 45.1624 52.8374C45.1953 52.8372 45.2637 52.7294 45.2944 52.7231C45.5578 52.6653 45.6762 53.0779 45.6959 53.1493C45.7726 53.4214 45.9446 53.3333 46.04 53.4817C46.1354 53.6302 45.8835 53.582 46.0172 53.7198C46.2943 54.0052 46.7254 54.2545 47.0542 54.4718C47.1858 54.5579 47.1873 54.3565 47.2082 54.3655C47.5052 54.5042 47.6828 54.8341 48.0182 54.6467C47.7311 55.5062 48.2291 54.6812 48.5236 55.0819C48.5466 55.1138 48.3593 55.487 48.2085 55.4618C48.0578 55.4365 47.9499 55.2119 47.735 55.1862C47.6841 55.1798 47.2519 55.364 47.2091 55.3645C46.8732 55.3674 47.1746 54.824 47.1804 54.7872C47.2367 54.3864 46.738 54.5651 46.6512 54.5442C46.2524 54.4474 46.0208 54.1976 45.6963 54.1051C45.4848 54.0443 45.2503 54.3769 45.1161 54.2781C44.7209 53.9877 44.7806 53.4979 44.3145 53.4884C44.2537 53.4873 44.1839 53.4943 44.1031 53.5112C43.9532 53.542 43.8156 53.9784 43.6568 53.4712C43.647 53.4393 43.5598 53.0113 43.3081 53.0947C43.2765 53.1053 43.2097 53.2162 43.1799 53.2107C42.981 53.1721 42.9263 53.0184 42.7242 52.9539C42.5235 52.8904 42.2698 52.8239 42.0895 52.665C41.9806 52.5694 41.9468 52.2687 41.9181 52.1831C41.8391 51.9384 41.5199 52.0738 41.5221 51.8362C41.5235 51.597 41.8855 51.4451 41.6813 51.17C41.501 51.4541 41.3031 51.7382 41.1159 52.0204C40.5195 51.6575 39.9971 51.2316 39.379 50.9006C39.303 50.8604 39.291 51.061 39.2074 51.022C39.0345 50.9411 38.8909 50.8337 38.7453 50.7278C38.5944 50.618 38.4411 50.51 38.2467 50.4333C37.9526 50.3183 37.5623 50.3246 37.2566 50.216C37.27 49.7867 36.7718 49.6706 36.4805 49.4803C36.3776 49.4133 36.4321 49.3258 36.3703 49.2562C36.1363 48.9963 36.1174 49.369 36.0136 49.3759C35.5715 49.4069 35.883 48.7016 35.465 48.5143C35.4424 48.5037 34.9969 48.7412 34.9502 48.747C34.648 48.7845 34.975 48.6 34.8448 48.5028C34.6089 48.3265 34.4573 48.1448 34.0948 48.1068C33.988 48.0957 33.6632 48.2261 33.5716 47.9665C33.5594 47.9324 33.6287 47.815 33.6135 47.7993C33.5298 47.7169 33.4507 47.6929 33.3771 47.7021C33.2073 47.7235 33.0639 47.9199 32.8869 47.9512C32.6337 47.9959 32.4545 47.5971 32.427 47.4931C32.355 47.2233 32.586 47.4596 32.6034 47.444C32.8075 47.2536 32.5701 47.1979 32.4122 47.1071C32.556 46.714 32.2994 46.6325 32.2436 47.0128C32.2373 47.0542 32.3883 47.076 32.4122 47.1071C32.103 47.4206 31.8209 47.3581 31.679 46.8866C31.6122 46.666 31.8169 46.5217 31.3794 46.4297C31.183 46.3895 31.1466 46.6842 30.952 46.6927C30.5016 46.7099 30.1263 46.2862 29.7066 46.1876C29.5582 46.1531 29.647 46.3497 29.5443 46.3316C29.2722 46.2847 29.088 46.1008 28.8122 46.0789C28.7866 46.077 28.7963 46.2524 28.714 46.2294C28.3144 46.1201 27.9885 45.9892 27.619 45.8648C27.4073 45.7938 27.1931 45.7285 26.9671 45.6793C26.6547 45.6091 26.0984 45.6037 25.7903 45.5486C25.2594 45.4453 24.5993 45.175 24.1535 45.261C23.8636 45.3164 23.9441 45.4785 23.8393 45.6008C23.6524 45.8341 23.2124 45.5253 23.1435 45.4834C23.1392 45.4809 23.3577 45.3939 23.2185 45.3374C23.1074 45.1813 23.1449 45.4824 23.1435 45.4834C23.1044 45.4454 22.6448 45.5459 22.5858 45.6132C22.5492 45.6467 22.6326 45.7814 22.6135 45.7958C22.546 45.8466 22.478 45.8987 22.4152 45.9494C22.0585 46.24 21.786 46.5047 21.4783 46.8368C21.4704 46.8426 21.3347 46.7316 21.3175 46.7475C21.0667 46.9841 21.1615 47.2856 21.18 47.5841C21.1979 47.8953 21.1151 48.0471 20.7774 48.1663C20.7598 48.3985 20.5769 48.6865 20.4708 48.9022C20.3654 49.1113 20.7042 49.1659 20.709 49.1806C20.8143 49.5292 20.7766 49.8031 20.7294 50.1327C20.7024 50.3215 20.6739 50.5168 20.6765 50.7369C20.6731 51.0083 20.7956 51.5733 20.89 51.8115C20.9619 52.0066 20.9188 52.1588 21.0209 52.3248C21.0348 52.3471 21.173 52.2809 21.1808 52.2866C21.4134 52.4239 21.032 52.443 20.982 52.5042C20.8016 52.7201 20.7248 52.8962 20.947 53.1193C21.0011 53.1782 21.5578 53.1055 21.6362 53.1818C21.7395 53.2855 21.5473 53.3352 21.6645 53.4397C21.6745 53.4483 21.7729 53.3848 21.8162 53.4613C21.838 53.499 21.86 53.5367 21.8824 53.5744C22.0742 53.898 22.3098 54.2264 22.6241 54.4582C22.6713 54.4933 22.727 54.3003 22.7952 54.3465C23.1147 54.5619 23.4859 54.7713 23.8368 54.9987C23.9233 55.0551 23.8185 55.1554 23.8256 55.1996C23.8789 55.4715 24.1863 55.2094 24.2136 55.2099C24.3835 55.2234 24.542 55.2492 24.6977 55.2816C25.2506 55.394 25.7826 55.6098 26.4642 55.4827C26.5143 55.4746 26.8547 55.0942 27.0346 55.3924C27.0452 55.4126 27.2394 55.719 27.3623 55.4837C27.3693 55.469 27.2508 55.3162 27.4279 55.3126C27.61 55.3081 27.865 55.1592 28.1405 55.2922C28.2189 55.3315 28.442 55.5723 28.6138 55.3686C28.6276 55.3521 28.6411 55.3327 28.6541 55.31C28.6706 55.2891 28.873 54.6449 29.0983 54.9946C29.1352 55.0519 29.2286 55.4663 29.4426 55.1779C29.4823 55.1221 29.3619 55.0604 29.4801 54.963C29.6584 54.8138 29.9705 54.8283 30.1524 54.559C30.1856 54.5113 30.2602 54.1763 30.485 54.3185C30.5207 54.3406 30.5308 54.4889 30.6141 54.4715C31.0124 54.3878 31.3488 54.1252 31.7504 54.0217C31.893 53.9839 31.9363 54.2196 32.0998 54.1994C32.2262 54.1838 32.4342 54.1173 32.5598 54.0057C32.5964 53.9733 32.6258 53.9374 32.6442 53.8983C32.7235 53.7258 32.3866 53.5096 32.5652 53.3613C33.3276 52.7192 34.2095 52.2576 34.8668 51.5443C34.9619 51.4394 34.7887 51.4448 34.9168 51.2856C34.995 51.1869 35.0802 51.0695 35.1638 50.9448C35.5945 50.3361 35.941 49.4537 36.2623 49.1027C36.5969 48.7044 36.6112 49.3175 36.7916 48.9738C36.8792 48.7928 36.4937 48.537 36.4865 48.4956C36.4428 48.2133 36.5066 47.9783 36.5362 47.7166C36.5524 47.567 36.5633 47.4084 36.5427 47.2261C36.5308 47.1206 36.3598 47.2243 36.3516 47.134C36.3219 46.796 36.3982 46.5218 36.3843 46.2255C36.3776 46.0947 36.247 46.1189 36.2571 45.9964C36.2797 45.6814 36.3346 45.4638 36.457 45.183C36.4682 45.1579 36.6307 45.3273 36.6367 45.1179C36.646 44.7782 36.7668 44.3273 36.6421 43.9567C36.6046 43.8409 36.306 43.8377 36.5122 43.5847C36.5553 43.5309 36.9137 43.6009 36.604 43.3011C36.5525 43.2387 36.1348 42.7642 36.404 42.5257C36.4749 42.4629 36.7683 42.3017 36.7222 42.16C36.7148 42.1408 36.5545 42.2178 36.5388 42.1004C36.4865 41.6735 36.5036 41.2598 36.4534 40.8407C36.4396 40.7285 36.2737 40.8958 36.2585 40.7283C36.232 40.4401 36.2392 40.0824 36.2612 39.7683C36.274 39.5854 36.2917 39.4055 36.3108 39.2409C36.3302 39.0754 36.4677 39.1898 36.4827 39.1778C36.726 38.9839 36.3976 38.8678 36.3784 38.8028C36.2637 38.3945 36.418 38.0874 36.3772 37.7252C36.3663 37.6241 36.2098 37.6958 36.1958 37.6756C36.0594 37.4664 36.3406 37.6223 36.3716 37.4897C36.4593 37.1194 36.4468 36.6921 36.4268 36.3149C36.4192 36.1783 36.2376 36.3319 36.2329 36.2092C36.2016 35.4891 36.219 34.6922 36.3191 33.9897C36.3383 33.855 36.4781 33.9398 36.51 33.9117C36.7334 33.7183 36.4287 33.4327 36.3997 33.3668C36.2671 33.0673 36.3907 32.9503 36.3677 32.6838C36.3428 32.406 36.3271 32.1164 36.3184 31.8162C36.2868 30.7211 36.3456 29.555 36.3852 28.5944C36.4504 27.0159 36.5834 25.784 36.5488 24.2749C36.5468 24.1789 36.3608 24.2757 36.3567 24.1929C36.352 24.0809 36.3486 23.9691 36.3462 23.8575C36.3257 22.9058 36.3789 21.9601 36.3308 21.0038C36.3267 20.9162 36.1504 21.0424 36.1379 20.9019C36.1111 20.6151 36.1207 20.2476 36.177 19.9537C36.2041 19.8107 36.3554 20.0025 36.3796 19.8586C36.4364 19.5235 36.4489 19.1656 36.4206 18.8244C36.4082 18.6792 36.2279 18.8982 36.2258 18.7096C36.2128 17.7618 36.1928 16.8468 36.2727 15.8995C36.3027 15.5454 36.3467 15.1924 36.4104 14.84C36.4264 14.7506 36.7929 14.6761 36.7226 14.4838C36.6209 14.4692 36.5013 14.47 36.3926 14.4636C36.334 12.5887 36.4611 10.7081 36.4807 8.82464C36.4815 8.74386 36.2873 8.88337 36.2878 8.72716C36.2887 8.46021 36.2846 8.19988 36.2834 7.94445C36.2805 7.32868 36.294 6.68812 36.4299 6.06499C36.4488 5.97144 36.7904 6.01787 36.7388 5.74512C36.7293 5.6956 36.6838 5.29319 36.6096 5.19359C36.5984 5.17986 36.439 5.25128 36.4343 5.12508C36.4101 4.35476 36.4465 3.60756 36.5439 2.83096C36.56 2.71468 36.7298 2.83831 36.7427 2.75577C36.8328 2.13028 36.7037 1.46419 36.8579 0.895754C36.9617 0.476125 37.2552 0.635975 37.5442 0.448047C37.5849 0.405383 37.5914 0.142908 37.7595 0.151564C38.1822 0.124348 38.6451 0.222909 39.0957 0.182148C39.1927 0.191849 39.0882 -0.118903 39.3227 0.0334492C39.3384 0.115061 39.4163 0.248239 39.4958 0.35026C39.5508 0.399187 39.7218 0.309813 39.7922 0.41185C39.8626 0.496144 39.7193 0.56115 39.802 0.702716C39.8857 0.837096 40.0802 0.804341 40.1033 1.06361ZM20.0445 49.8625C19.8775 50.0781 20.4756 50.111 20.3359 49.8798C20.3285 49.8687 20.0527 49.8516 20.0445 49.8625ZM40.2177 50.8403C40.1058 50.4727 39.7443 50.7141 39.8172 50.9896C39.8902 51.2651 40.2508 50.9514 40.2177 50.8403ZM42.8252 52.1458C42.649 51.7975 42.1696 52.4993 42.5595 52.533C42.582 52.5352 42.8355 52.1661 42.8252 52.1458ZM37.6265 1.39417C37.6344 1.38962 37.6421 1.21494 37.6343 1.21241C37.4443 1.1192 37.4289 1.46715 37.6265 1.39417ZM45.4004 53.4793C45.374 53.3274 45.0528 53.2833 45.0857 53.472C45.112 53.6235 45.4332 53.6682 45.4004 53.4793ZM26.0646 57.0296C26.0686 57.0388 26.1916 57.0484 26.1894 56.9978C26.1829 56.8359 26.0124 56.8787 26.0646 57.0296ZM49.5473 56.1324C48.9579 55.7066 48.9699 54.8781 49.5914 55.3794C49.7038 55.4701 49.2098 55.3963 49.3282 55.5495C49.5446 55.829 49.9722 55.5838 50.1273 55.9687C50.155 56.0386 49.58 56.1579 49.5457 56.1325C49.5462 56.1325 49.5467 56.1325 49.5473 56.1324ZM19.3239 49.9824C19.3181 49.9855 19.3119 50.0773 19.3121 50.1327C19.3122 50.1549 19.3132 50.171 19.3155 50.1723C19.3882 50.2093 19.435 50.1794 19.4544 50.1327C19.4858 50.056 19.4466 49.9363 19.3239 49.9824ZM33.1525 55.4445C33.1616 55.4497 33.2703 55.3964 33.3687 55.341C33.4538 55.2933 33.5312 55.2443 33.5326 55.235C33.54 55.0506 33.3728 55.0557 33.2385 55.1261C33.0988 55.1996 32.9889 55.3468 33.1525 55.4445ZM27.3274 44.0741C27.5519 43.9265 27.7872 43.9579 27.8808 44.228C27.6962 44.1698 27.5096 44.1251 27.3274 44.0741Z" fill="black"/>
</svg>
