<svg width="58" height="33" viewBox="0 0 58 33" fill="none" xmlns="http://www.w3.org/2000/svg">
<path d="M0.883578 18.2215C1.09649 17.8673 1.46988 17.4785 1.78126 17.2002C1.87841 17.1131 1.92266 17.2293 1.99354 17.172C2.13212 17.0598 2.18955 16.8997 2.33317 16.793C2.38119 16.758 2.47129 16.9165 2.51861 16.8774C2.77682 16.6624 2.93068 16.39 3.16048 16.1465C3.29096 16.0083 3.41971 15.8696 3.5474 15.7299C4.52204 14.6635 5.42493 13.5512 6.36712 12.4203C6.37224 12.4141 6.37736 12.408 6.38248 12.4018C6.73694 11.976 7.26455 11.536 7.56087 11.0436C7.59521 10.9861 7.45436 10.9274 7.45247 10.9099C7.4265 10.6395 7.622 10.8731 7.73302 10.7944C8.17305 10.4815 8.5376 10.0388 8.80268 9.61494C8.91488 9.43479 8.55369 9.41794 8.81552 9.35352C8.83351 9.34881 8.92192 9.48886 8.9715 9.45362C9.06689 9.38546 9.17896 9.22142 9.25574 9.13014C9.26924 9.11407 9.28165 9.10024 9.29269 9.08955C9.43567 8.95229 9.45401 8.92726 9.57345 8.78379C9.73898 8.5872 9.99184 8.40316 10.1384 8.17277C10.1698 8.12275 9.99673 8.07947 10.0363 7.98973C10.076 7.89967 10.2468 7.71841 10.3296 7.67962C10.4124 7.64061 10.4855 7.74944 10.517 7.75695C10.7811 7.82278 10.7076 7.39003 10.7277 7.3542C11.061 6.75161 11.5925 6.44695 12.0243 5.98513C12.0733 5.93271 12.1218 5.8791 12.1699 5.82484C12.4414 5.51787 12.7216 5.16845 13.0044 4.9027C13.4083 4.52417 13.8124 4.26845 14.2073 3.90767C14.2503 3.86892 14.0757 3.7701 14.1283 3.72226C14.5339 3.35376 14.9742 3.01381 15.4631 2.73836C15.6396 2.6389 15.8135 2.55348 16.0064 2.4704C16.078 2.44029 16.0837 2.63276 16.1599 2.61155C16.6264 2.47101 17.3817 2.44548 17.3555 1.67667C17.6649 1.56932 18.0571 1.45699 18.39 1.51438C18.6029 1.55262 18.4666 1.77565 18.6734 1.6425C18.7209 1.61324 18.6182 1.47546 18.6942 1.44305C19.0239 1.30499 19.3999 1.30202 19.7236 1.205C19.7894 1.18487 19.7678 1.04425 19.7862 1.01795C19.8467 0.935586 19.9257 0.93616 20.0001 0.970384C20.1245 1.02373 20.2396 1.16838 20.2759 1.18782C20.8004 1.44673 21.0143 1.46078 21.4635 1.63346C21.5625 1.67465 21.5067 1.44671 21.6066 1.48115C22.0251 1.62111 22.5346 1.89718 22.8349 2.15965C22.9076 2.22153 22.7542 2.32208 22.7848 2.35885C22.9198 2.51959 23.1096 2.27546 23.2486 2.43195C23.2781 2.46474 23.1879 2.57279 23.1869 2.5898C23.1688 2.85583 23.4314 2.61784 23.463 2.62795C23.8392 2.73398 23.8382 3.15013 24.1743 3.30524C24.2148 3.32362 24.2259 3.12221 24.334 3.18321C25.0348 3.57587 25.7335 4.11772 26.2722 4.67705C26.3586 4.76558 26.211 4.82197 26.2078 4.83966C26.1607 5.11846 26.4256 4.89017 26.4658 4.90344C26.7749 5.01305 26.8597 5.42961 27.2665 5.22667C27.2985 5.25612 27.3307 5.28534 27.3632 5.31434C28.332 6.17551 29.4626 6.80045 30.2459 7.87431C30.2562 7.88796 30.1284 8.00036 30.1495 8.02701C30.4031 8.35016 30.5058 8.09902 30.9141 8.01846C31.017 7.9985 30.9362 8.42747 30.9327 8.46089C30.9192 8.58355 30.7088 8.73406 30.7135 8.76372C30.7576 9.00248 31.2526 8.34243 31.4481 8.50067C31.4533 8.5067 31.332 8.60368 31.3389 8.6287C31.3598 8.70668 31.4451 8.69833 31.4604 8.77814C31.494 8.96136 31.2797 9.30337 31.5953 9.26025C31.6359 9.25433 31.8991 8.86533 32.0544 9.02115C32.1159 9.08326 32.4211 9.32375 32.4865 9.41711C32.5516 9.51005 32.3978 9.57851 32.3997 9.58851C32.5001 9.92984 32.3613 9.9224 32.2871 10.2439C32.2136 10.5646 32.6292 9.99866 32.7258 9.97707C32.8248 9.95774 32.8801 10.2174 32.8841 10.2952C32.8875 10.3724 32.7764 10.4045 32.7913 10.459C32.8917 10.8177 33.1175 10.2778 33.2666 10.2572C33.4658 10.2296 33.4922 10.3834 33.5018 10.5549C33.5092 10.687 33.5067 10.8296 33.566 10.9083C33.6029 10.9573 33.6417 10.8352 33.6896 10.861C33.8785 10.9643 33.8713 11.1703 34.1519 11.2123C34.1971 11.2187 34.5507 11.1081 34.4962 11.3625C34.4883 11.3991 34.3665 11.4658 34.4155 11.5453C34.4887 11.6642 34.6531 11.8408 34.7905 11.9008C34.892 11.945 34.9377 11.7036 34.9964 11.8406C35.0224 11.9016 34.8578 11.9255 34.9133 12.0321C34.9684 12.1383 35.1882 12.3185 35.2735 12.3857C35.3586 12.4526 35.4188 12.291 35.4325 12.2884C35.5133 12.2752 35.7223 12.3513 35.7362 12.3634C36.4531 12.9514 36.914 13.7107 37.6545 14.2359C37.712 14.2769 37.7889 14.1174 37.7988 14.1223C38.0274 14.2267 37.5859 14.4441 37.6128 14.6692C37.8222 14.3921 37.8558 14.5046 38.0087 14.5878C38.0826 14.6276 38.1373 14.4973 38.152 14.4918C38.3776 14.4183 38.268 14.6722 38.2489 14.7271C38.179 14.9291 38.399 14.8107 38.353 14.9464C38.3075 15.0813 38.0845 15.1448 38.2087 15.2504C38.3248 15.1873 38.4475 14.8637 38.5752 14.9058C38.9405 15.0259 39.3097 15.4962 39.5806 15.8335C39.6677 15.9419 39.7448 16.0366 39.8089 16.1019C40.0722 16.3702 40.1779 16.4334 40.3114 16.6119C40.5522 16.9343 40.604 16.6586 40.8601 16.739C41.1166 16.8201 40.6341 17.1827 40.5758 17.3012C40.5172 17.4192 40.6326 17.3467 40.6183 17.4277C40.604 17.5085 40.4768 17.511 40.535 17.598C40.5932 17.685 40.9504 17.7006 41.0657 17.6253C41.3101 17.4657 41.414 17.1619 41.5447 17.4181C41.5521 17.433 41.4111 17.5156 41.4446 17.5667C41.7145 17.9687 42.0691 18.2966 42.3461 18.6884C42.3843 18.7426 42.2256 18.8327 42.2465 18.8657C42.4634 19.2099 42.5546 18.8993 42.9309 18.802C42.6063 19.0903 42.5177 19.3658 42.7354 19.5657C42.866 19.6859 42.9696 19.5256 43.1438 19.504C43.1962 19.4973 43.2025 19.6774 43.2788 19.6269C43.5286 19.4623 43.6587 19.1427 43.7972 19.4421C43.8029 19.4556 43.6651 19.5447 43.6927 19.5827C43.8709 19.8289 44.0988 19.6265 44.366 19.8194C44.5747 19.9699 44.7849 20.4108 44.9769 20.6264C44.6459 20.981 44.9209 21.0814 45.2272 20.9081C45.3281 21.0147 45.4478 21.1113 45.5448 21.2242C45.5716 21.2554 45.5966 21.2876 45.6189 21.3213C45.6548 21.3755 45.5294 21.4512 45.5251 21.4678C45.4543 21.7256 45.7344 21.5409 45.7731 21.559C46.1826 21.7656 46.2785 22.1883 46.746 22.2905C46.7627 22.294 47.0083 22.0621 46.9229 22.3178C46.9167 22.3351 46.7127 22.3559 46.8474 22.4958C46.9789 22.6328 47.1392 23.0259 47.4451 23.0956C47.5194 23.113 47.8282 23.0257 47.7815 23.2735C47.7749 23.3069 47.695 23.3647 47.6775 23.4217C47.6222 23.6039 47.8866 23.3845 47.7617 23.663C47.6368 23.9415 47.6379 24.2375 47.9711 24.274C47.9817 24.2759 48.2103 24.1197 48.2736 24.1841C48.3725 24.2853 48.4804 24.4619 48.5882 24.5596C48.6399 24.6063 48.7212 24.453 48.7322 24.459C49.1394 24.7087 49.2759 25.0397 49.5892 25.42C49.6497 25.493 50.0017 25.5086 50.0086 25.7623C50.0161 26.0399 49.3096 26.506 49.7682 26.6661C49.9519 26.7304 50.8296 26.1216 50.6881 26.7301C50.8464 26.8267 50.9796 26.9444 51.1005 27.0685C51.4136 27.3892 51.6326 27.7381 52.062 27.9534C52.0891 27.9673 52.3559 27.8183 52.4026 27.8677C52.4715 27.9415 52.418 28.0782 52.4636 28.1334C52.6518 28.3673 52.9243 28.4643 53.1092 28.6639C53.1807 28.7405 53.0597 28.82 53.151 28.9171C53.2431 29.0148 53.4351 28.9412 53.5018 29.1277C53.5515 29.2688 53.3863 29.6343 53.4793 29.7833C53.741 29.5163 53.8214 29.6031 54.0354 29.6701C54.0765 29.6828 54.1361 29.5599 54.1602 29.5611C54.2657 29.5688 54.2489 29.7015 54.3557 29.7023C54.3816 29.7027 54.4702 29.6107 54.4963 29.6058C54.7222 29.5611 54.677 29.9144 54.668 29.9748C54.6361 30.2066 54.7956 30.1292 54.8174 30.2532C54.8386 30.3766 54.6655 30.3408 54.719 30.4544C54.8195 30.6797 55.1109 30.9291 55.2798 31.0986C55.3507 31.1685 55.4193 30.9983 55.4322 31.0055C55.601 31.1069 55.6418 31.3968 55.9689 31.24C55.4707 31.9783 56.1291 31.2755 56.213 31.5994C56.2188 31.6246 55.9518 31.9437 55.8488 31.9293C55.7456 31.9147 55.738 31.7277 55.5762 31.7043C55.5391 31.6997 55.1358 31.852 55.0996 31.8501C54.8334 31.8502 55.2544 31.3946 55.2685 31.361C55.4483 31.0242 55.008 31.1831 54.9466 31.1645C54.6733 31.0872 54.543 30.8424 54.3462 30.7858C54.2069 30.7377 53.9169 31.0226 53.8474 30.9393C53.6172 30.6636 53.8931 30.1439 53.3125 30.2705C53.1889 30.2978 52.9356 30.6696 52.9899 30.2398C52.9935 30.2129 53.0734 29.8485 52.8513 29.9165C52.8234 29.9251 52.7347 30.0194 52.7135 30.0143C52.573 29.9782 52.5817 29.8444 52.4447 29.7828C52.3057 29.7192 52.133 29.6573 52.0566 29.5248C52.0085 29.4433 52.088 29.1867 52.0962 29.1133C52.1219 28.9037 51.8313 29.0129 51.9149 28.8086C51.9984 28.603 52.3285 28.4821 52.2666 28.24C52.0303 28.4794 51.7805 28.7182 51.5394 28.9556C51.1931 28.6131 50.967 28.2512 50.6175 27.9436C50.5744 27.9061 50.4933 28.0779 50.4438 28.0411C50.3927 28.0028 50.3494 27.9588 50.3096 27.9119C50.1879 27.7686 50.0952 27.5942 49.9214 27.4845C49.7477 27.3773 49.4548 27.3654 49.2652 27.2543C49.4325 26.884 49.1087 26.7603 48.959 26.5727C48.9065 26.5072 48.9806 26.4358 48.9601 26.3709C48.8806 26.1273 48.7256 26.4476 48.6441 26.4448C48.3014 26.4378 48.8127 25.8623 48.5798 25.6717C48.5678 25.6615 48.1458 25.8293 48.1086 25.8296C47.8697 25.835 48.185 25.7057 48.1269 25.6104C48.0207 25.4361 47.9866 25.2709 47.7335 25.2001C47.6594 25.1798 47.3653 25.2559 47.4016 25.02C47.4063 24.9891 47.5054 24.896 47.5007 24.8808C47.4108 24.6172 47.1164 24.9253 46.915 24.9356C46.7136 24.9459 46.7521 24.581 46.7766 24.4883C46.8393 24.2477 46.9062 24.4804 46.9253 24.4688C47.1537 24.3311 47.0063 24.2549 46.9306 24.1556C47.201 23.8366 47.0572 23.7381 46.8509 24.0538C46.8286 24.0885 46.9254 24.1248 46.9306 24.1556C46.5733 24.3835 46.3987 24.2939 46.5032 23.8693C46.5521 23.6703 46.7631 23.58 46.4895 23.4321C46.3652 23.3647 46.2094 23.6122 46.0671 23.5879C45.7495 23.5388 45.6736 23.1047 45.4388 22.9466C45.3536 22.8893 45.32 23.0722 45.2581 23.037C45.0934 22.944 45.0529 22.7467 44.8744 22.6653C44.8581 22.6581 44.7773 22.8076 44.7331 22.7699C44.6162 22.672 44.5141 22.5673 44.4163 22.4592C44.236 22.259 44.0732 22.0485 43.8547 21.8468C43.6935 21.6981 43.3407 21.5 43.1829 21.3321C42.9051 21.0383 42.7129 20.5408 42.4225 20.3569C42.2344 20.2371 42.1596 20.3918 42.0144 20.4119C41.7336 20.4517 41.7548 19.9458 41.7627 19.8717C41.7631 19.8693 41.9304 19.9677 41.9117 19.837C41.9859 19.6665 41.7649 19.8726 41.7627 19.8717C41.7677 19.8236 41.5099 19.5412 41.4324 19.514C41.3904 19.4993 41.3031 19.6309 41.2832 19.6211C40.8156 19.3887 40.4124 19.0807 40.0778 18.684C40.0731 18.6756 40.1996 18.5544 40.1873 18.5363C40.0172 18.2803 39.7316 18.3121 39.4649 18.2446C39.198 18.1769 39.0814 18.0165 39.1721 17.696C39.0089 17.6017 38.8985 17.3267 38.8374 17.1653C38.7764 17.0039 38.5352 17.2447 38.5207 17.2408C38.4685 17.2275 38.4216 17.2118 38.379 17.1939C38.0494 17.0551 37.977 16.7837 37.7056 16.5094C37.5603 16.3616 37.2199 16.1287 37.0274 16.0099C36.8749 15.9163 36.8474 15.7864 36.6916 15.7181C36.6706 15.7088 36.5877 15.8375 36.5788 15.8375C36.3234 15.855 36.6322 15.6332 36.6475 15.5588C36.7031 15.2884 36.7247 15.1373 36.4737 15.0689C36.416 15.053 35.9481 15.3526 35.8538 15.3121C35.7317 15.2585 35.8932 15.1457 35.7622 15.0934C35.7511 15.0888 35.6757 15.1794 35.617 15.1217C35.3437 14.8551 35.0748 14.5324 34.769 14.2852C34.7275 14.2511 34.6578 14.4377 34.5959 14.3908C34.3023 14.1678 33.9999 13.9 33.7856 13.6025C33.7332 13.5288 33.8599 13.4648 33.8707 13.4228C33.934 13.1679 33.5865 13.321 33.5616 13.3084C32.9681 13.0191 32.7729 12.4528 32.1751 12.1403C32.1734 12.1394 32.1716 12.1385 32.1698 12.1375C32.1363 12.1208 31.689 12.2243 31.7957 11.9044C31.8027 11.883 31.9146 11.5579 31.6915 11.6582C31.6776 11.6645 31.6299 11.84 31.5393 11.7427C31.4509 11.6474 31.2088 11.5902 31.1828 11.3329C31.1741 11.2514 31.271 10.9156 30.9741 11.0022C30.9537 11.0084 30.3801 11.285 30.5597 10.9167C30.5894 10.8562 30.8692 10.5398 30.5729 10.5769C30.5159 10.5845 30.5115 10.7024 30.3943 10.6826C30.2143 10.6524 30.1252 10.434 29.8559 10.4575C29.8078 10.4612 29.5126 10.5905 29.5577 10.3474C29.5647 10.3093 29.6806 10.2219 29.642 10.1704C29.4588 9.92499 29.1602 9.80589 28.991 9.54598C28.9308 9.45416 29.1145 9.3094 29.0676 9.19394C29.0207 9.07844 28.8866 8.89702 28.7341 8.90905C28.5781 8.91837 28.453 9.28209 28.2973 9.19606C27.6118 8.81576 27.2018 8.22785 26.6038 7.7353C26.5182 7.66467 26.5129 7.82346 26.3817 7.72743C26.2303 7.61696 26.04 7.49165 25.8448 7.35837C25.4118 7.06152 24.9129 6.69825 24.7485 6.34962C24.55 5.93827 25.0578 6.09144 24.8601 5.84149C24.7676 5.72365 24.3763 5.9652 24.3408 5.95677C23.9626 5.85845 23.865 5.56614 23.5758 5.44211C23.5164 5.41689 23.4734 5.59366 23.4241 5.57081C23.2679 5.5025 23.1151 5.31139 22.9578 5.22726C22.8848 5.18844 22.8273 5.30671 22.7697 5.25814C22.6314 5.14364 22.5312 5.01653 22.4548 4.82641C22.4477 4.809 22.6191 4.72326 22.5152 4.65283C22.354 4.54343 22.1562 4.28615 21.8934 4.28187C21.8137 4.2803 21.6661 4.53934 21.6392 4.28946C21.6344 4.23798 21.8357 3.93878 21.5457 4.13483C21.5082 4.17231 21.0477 4.40346 21.0658 4.1143C21.0676 4.03626 21.1112 3.73183 21.0296 3.74505C21.0188 3.74814 20.9889 3.91093 20.9336 3.90267C20.7677 3.88288 20.5482 3.77303 20.401 3.77516C20.3603 3.77521 20.3791 3.95746 20.3232 3.95342C20.2139 3.94774 20.0723 3.88187 20 3.85109C19.9302 3.83999 19.8649 3.82954 19.8058 3.81965C19.7251 3.80626 19.7748 3.66461 19.7687 3.65007C19.66 3.41454 19.6233 3.75017 19.5989 3.77277C19.4383 3.91085 19.3043 3.78337 19.1707 3.85943C19.1344 3.88026 19.1992 4.02508 19.1948 4.04068C19.1528 4.19361 19.14 3.90543 19.0801 3.89007C18.9078 3.8473 18.7078 3.9294 18.5389 4.02151C18.4784 4.05493 18.6191 4.19287 18.5652 4.22065C18.2436 4.39041 17.8856 4.56364 17.4982 4.68891C17.4243 4.71278 17.3895 4.56945 17.3591 4.55087C17.1437 4.42242 17.1723 4.76959 17.1609 4.81267C17.1292 4.91324 17.0834 4.94865 17.0311 4.97184C16.9777 4.99557 16.9178 5.00646 16.8616 5.06164C16.3279 5.58628 15.5657 6.14397 14.9899 6.63112C14.6168 6.94516 14.2728 7.22548 13.9491 7.51266C13.6182 7.80773 13.313 8.10443 13.0038 8.47888C12.9652 8.52545 13.1448 8.60322 13.1134 8.64487C12.6986 9.18135 12.2095 9.6456 11.8152 10.2082C11.7825 10.2543 11.9702 10.3037 11.9224 10.3814C11.8248 10.5421 11.669 10.7178 11.5081 10.8272C11.4295 10.8811 11.3891 10.6906 11.3123 10.7469C11.3025 10.7541 11.2929 10.7613 11.2833 10.7687C11.1168 10.8965 10.9703 11.0636 10.8618 11.2426C10.8131 11.3237 11.0423 11.3254 10.968 11.422C10.4616 12.0874 9.98394 12.7537 9.2805 13.2882C9.23192 13.3252 8.91021 13.1425 8.89067 13.2839C8.96583 13.353 9.06123 13.4253 9.14515 13.4945C8.98951 13.7198 8.82593 13.9411 8.65832 14.1584C8.07729 14.9117 7.44256 15.6235 6.85046 16.3846C6.81836 16.4259 7.02788 16.4705 6.96652 16.5511C6.68128 16.926 6.4306 17.3155 6.07447 17.6425C5.98742 17.7225 5.89406 17.7987 5.79237 17.87C5.74117 17.9063 5.48767 17.6753 5.42227 17.8468C5.41101 17.8773 5.28663 18.1161 5.30398 18.2157C5.30722 18.2299 5.46345 18.2879 5.41526 18.3588C5.13363 18.7684 4.78543 19.1627 4.40407 19.496C4.34205 19.5499 4.26034 19.3781 4.21502 19.4155C3.89441 19.6822 3.72613 20.1073 3.36275 20.3187C3.12006 20.4584 2.94953 20.2008 2.63779 20.129C2.5938 20.1189 2.48935 20.2399 2.35271 20.1416C2.00891 19.8947 1.69448 19.5465 1.3223 19.2906C1.24224 19.2354 1.1928 19.4651 1.08707 19.2215C1.08024 19.2049 1.1143 19.0371 1.07533 18.9582C1.0485 18.9036 0.885356 18.8341 0.863312 18.7486C0.841272 18.6632 0.989969 18.7063 0.979982 18.5856C0.969111 18.4643 0.792407 18.3743 0.883578 18.2215ZM38.5602 16.4407C38.5621 16.2246 38.151 16.6597 38.3603 16.6534C38.3709 16.6525 38.5604 16.4515 38.5602 16.4407ZM51.2701 27.9171C51.3185 27.6005 50.9607 27.7967 50.9156 28.034C50.8704 28.2707 51.2555 28.0132 51.2701 27.9171ZM52.79 29.0848C52.781 28.7901 52.1757 29.3852 52.4542 29.4124C52.4701 29.4142 52.7915 29.1029 52.79 29.0848ZM2.96809 19.5775C2.96062 19.5742 2.8833 19.6601 2.88778 19.6671C2.99913 19.8329 3.15388 19.6608 2.96809 19.5775ZM54.3312 30.257C54.3618 30.1277 54.1259 30.0862 54.0899 30.2489C54.0616 30.3803 54.294 30.4185 54.3312 30.257ZM33.3829 11.1359C33.3869 11.1276 33.3291 11.0686 33.298 11.1083C33.198 11.2363 33.315 11.2746 33.3829 11.1359ZM56.6807 32.4914C56.3365 32.1154 56.6576 31.4525 56.9384 31.8321C56.9868 31.8986 56.6575 31.8719 56.6885 31.9895C56.7723 32.2298 57.1837 32.0152 57.1671 32.3272C57.205 32.4238 56.6716 32.4873 56.6795 32.4916C56.6799 32.4915 56.6803 32.4915 56.6807 32.4914ZM38.9742 15.8478C38.9773 15.84 38.8968 15.7591 38.8896 15.7632C38.7178 15.865 38.8798 16.0279 38.9742 15.8478ZM29.9085 7.81476C29.9138 7.79733 29.7216 7.62476 29.704 7.63077C29.4071 7.79165 29.795 8.14103 29.9085 7.81476ZM44.9715 20.639C45.1917 20.5812 45.3161 20.6641 45.227 20.9076C45.1451 20.8156 45.0551 20.731 44.9715 20.639Z" fill="black"/>
</svg>
