<svg width="56" height="52" viewBox="0 0 56 52" fill="none" xmlns="http://www.w3.org/2000/svg">
<path d="M1.93496 4.31427C2.58731 4.09162 3.43886 3.88173 4.18199 3.72939C4.42895 3.67767 4.64244 3.63767 4.85461 3.5994C5.13481 3.5487 5.0232 3.68844 5.22012 3.65755C5.60789 3.5964 5.92241 3.4589 6.31174 3.40677C6.4397 3.39033 6.32894 3.59327 6.46156 3.57248C6.99451 3.49054 7.52198 3.34054 8.04075 3.21407C8.20298 3.17447 8.36824 3.13609 8.53815 3.10113C9.63604 2.87623 10.7326 2.64691 11.8255 2.42056C13.0835 2.16033 14.3528 1.89929 15.6288 1.65683C16.8023 1.43546 17.9413 1.23102 19.1806 1.06906C19.2891 1.05509 19.3979 1.04263 19.5062 1.03164C19.7472 1.39882 24.4487 -0.592702 22.3635 3.75597C22.2381 3.86488 22.4045 3.92137 22.3869 3.95066C22.3292 4.04153 22.2766 4.10218 22.2302 4.14171C22.1288 4.24251 22.0402 4.05914 21.8733 4.15775C21.0443 4.67354 20.2501 5.6242 19.6786 6.4597C19.4201 6.83994 19.9262 6.65678 19.5256 6.9152C19.4989 6.93235 19.4382 6.75222 19.355 6.83564C19.1672 7.0228 18.8799 7.46622 18.7401 7.64284C18.4639 7.99044 18.4457 8.01998 18.2197 8.34507C17.9157 8.78093 17.4799 9.29744 17.2084 9.78658C17.1486 9.89468 17.3717 9.84387 17.2886 10.0242C17.2065 10.2021 16.9094 10.6488 16.7853 10.7783C16.6629 10.9042 16.594 10.776 16.5534 10.7866C16.3668 10.8334 16.275 11.0627 16.2251 11.2728C16.1841 11.445 16.1712 11.6038 16.1564 11.636C15.5518 12.9235 14.7819 13.9037 14.163 15.0702C13.6839 15.9749 13.2615 16.955 12.8349 17.8259C12.4736 18.5618 12.1194 19.2203 11.7948 19.9075C11.6692 20.1736 11.5471 20.4465 11.4298 20.7337C11.3852 20.8425 11.6126 20.7893 11.5587 20.9221C10.9879 22.332 10.4311 23.7304 9.83084 25.1209C9.77067 25.2602 9.67529 25.0228 9.60576 25.1591C9.17582 25.9996 8.44801 27.3259 9.00674 28.0543C8.90906 28.3649 8.80626 28.7097 8.69527 29.04C8.59291 29.3431 8.48036 29.6469 8.3553 29.8969C8.1889 30.2326 8.08381 29.8507 8.06951 30.3036C8.06662 30.4054 8.24705 30.3088 8.23131 30.4584C8.16643 31.0815 7.99977 31.7575 7.99707 32.3856C7.99699 32.5127 8.14206 32.4972 8.16264 32.5357C8.32711 32.8574 7.93571 33.2972 7.90045 33.4107C7.63557 34.2343 7.67633 34.8243 7.66346 35.6032C7.66151 35.7827 7.85246 35.5719 7.85778 35.7435C7.88383 36.6194 7.92719 37.533 7.96952 38.3811C7.97056 38.4038 7.96883 38.4216 7.96493 38.4356C7.93667 38.5378 7.79198 38.4343 7.78895 38.5151C7.77986 38.9271 8.09861 38.9657 8.11278 39.3514C8.11695 39.4332 7.97178 39.4189 7.96009 39.4366C7.77798 39.7196 8.1581 39.8359 8.17967 39.8886C8.46915 40.5717 8.29568 41.1516 8.63411 41.8006C8.67563 41.8771 8.75514 41.6277 8.86209 41.8455C9.57471 43.2921 10.5877 44.6321 11.7996 45.7083C11.9841 45.8722 11.7651 45.8739 11.7674 45.8959C11.8262 46.2549 12.1652 46.0725 12.2382 46.1061C12.296 46.134 12.3519 46.1642 12.4063 46.1961C12.9201 46.4969 13.2849 46.9087 13.8042 46.7527C16.1043 47.9988 18.8645 48.2445 21.5505 48.6406C21.5504 48.6406 21.5507 48.6406 21.5506 48.6406C21.6722 48.6753 21.7932 48.7092 21.9132 48.7424C21.9491 48.7519 21.8684 48.9097 21.9402 48.9278C22.798 49.13 22.655 48.8444 23.2153 48.5625C23.3495 48.4915 23.7804 48.8827 23.8185 48.9088C23.9583 49.0119 23.8112 49.2621 23.8583 49.2819C24.2559 49.4329 24.1851 48.6138 24.6731 48.5811C24.6887 48.5813 24.6326 48.7378 24.675 48.7497C24.8089 48.7869 24.9276 48.7152 25.0663 48.7523C25.372 48.837 25.545 49.2217 25.9651 48.9075C26.0152 48.8653 25.8497 48.4275 26.2784 48.3546C26.4518 48.3329 27.2123 48.1045 27.4247 48.0509C27.642 48.0043 27.5521 48.1973 27.5686 48.1983C28.2052 48.1683 28.0228 48.3248 28.4295 48.4741C28.8444 48.6108 28.4705 48.0088 28.5497 47.8857C28.6288 47.7648 29.1011 47.7065 29.2276 47.6989C29.3535 47.6945 29.2773 47.8465 29.3809 47.8258C30.0659 47.6734 29.4554 47.3799 29.5811 47.1754C29.597 47.1485 29.6137 47.1238 29.6312 47.1011C29.9212 46.7173 30.4957 46.8824 30.8777 46.6481C30.9858 46.5811 30.8318 46.5514 30.9128 46.4735C31.2296 46.1654 31.5458 46.1088 31.8178 45.6519C31.8637 45.5768 31.9317 45.077 32.2771 45.0471C32.327 45.0428 32.3458 45.2107 32.4992 45.0923C32.7299 44.916 33.0997 44.5443 33.2591 44.2838C33.379 44.0897 33.05 44.1525 33.281 43.9763C33.3838 43.897 33.3324 44.1584 33.518 44.0012C33.7024 43.8491 34.0791 43.3447 34.2026 43.1617C34.3331 42.9725 34.1278 42.9806 34.1298 42.9591C34.145 42.8329 34.3299 42.4275 34.351 42.3945C34.6927 41.8772 35.0174 41.3944 35.3412 40.8956C36.0523 39.7987 36.7201 38.6846 37.1874 37.4411C37.2412 37.2982 37.0442 37.3245 37.0508 37.302C37.1877 36.7949 37.447 37.3488 37.7277 37.0709C37.3875 36.9862 37.5278 36.8148 37.6281 36.4618C37.6759 36.2915 37.5157 36.331 37.5089 36.311C37.415 35.995 37.7251 35.9213 37.7924 35.8963C38.0398 35.8049 37.8878 35.5444 38.0531 35.4797C38.2178 35.4137 38.3049 35.7395 38.4262 35.4043C38.3439 35.2686 37.9496 35.402 37.9919 35.1342C38.0853 34.535 38.4249 33.6823 38.7237 32.929C38.9246 32.4255 39.1113 31.9622 39.2121 31.6526C39.4611 30.8836 39.5051 30.6253 39.6702 30.1814C39.9639 29.3775 39.652 29.619 39.6741 29.0812C39.6936 28.5419 40.2069 28.9313 40.3487 28.8876C40.4901 28.8445 40.3822 28.7338 40.472 28.6592C40.5617 28.5847 40.5987 28.8016 40.6754 28.5939C40.7528 28.3852 40.6669 27.7502 40.5538 27.6445C40.3147 27.4222 39.9681 27.6203 40.1945 27.079C40.2077 27.0479 40.3365 27.1867 40.3792 27.0657C40.664 26.2443 40.8616 25.3696 41.0908 24.5239C41.1296 24.3809 41.1693 24.2389 41.2105 24.0982C41.2497 23.9648 41.398 24.1174 41.4228 24.04C41.6811 23.2229 41.3402 23.4697 41.0992 22.9596C41.5066 23.135 41.8121 22.9247 41.9169 22.2951C41.9792 21.9181 41.7833 21.9486 41.6908 21.6811C41.663 21.6004 41.8325 21.349 41.7522 21.2868C41.4898 21.0827 41.1323 21.286 41.3559 20.6569C41.3661 20.6294 41.5098 20.7428 41.5336 20.646C41.6862 20.0286 41.3994 19.8928 41.4552 19.1999C41.4977 18.6672 41.8019 17.7084 41.8995 17.0999C42.3807 17.1646 42.3335 16.583 42.0269 16.2959C42.0483 16.1424 42.0651 15.985 42.082 15.8284C42.1101 15.5698 42.1386 15.3139 42.1895 15.0809C42.2176 14.951 42.3493 15.0505 42.366 15.0357C42.6282 14.7896 42.32 14.5824 42.3151 14.4935C42.2735 13.5622 42.5818 12.7728 42.3995 11.8778C42.393 11.8444 42.0605 11.7675 42.3214 11.5394C42.3393 11.5248 42.4735 11.835 42.5121 11.4082C42.5488 11.0171 42.7762 10.1649 42.6425 9.61427C42.6118 9.45666 42.3534 9.07242 42.5758 8.80777C42.606 8.77213 42.7013 8.81492 42.7568 8.76389C42.9329 8.61712 42.5967 8.46907 42.8913 8.26635C43.1697 8.08386 43.3899 7.64479 43.2424 7.13327C43.234 7.09721 43.2251 7.06184 43.2154 7.02734C43.2106 7.00887 42.9429 6.84337 42.9747 6.68126C42.9215 6.23627 43.604 6.18622 43.7534 6.48891C43.8817 6.59957 43.9122 6.40385 43.9365 6.42094C44.7307 7.08386 45.0058 7.83192 45.526 8.75932C45.5355 8.77696 45.5494 8.7966 45.5666 8.8182C45.7086 8.9921 46.1293 9.36579 46.1502 9.72191C46.1896 10.1823 45.2685 10.2294 45.9128 10.9587C46.1667 11.2466 47.3287 11.1834 47.1864 12.0521C47.346 12.2876 47.4836 12.5209 47.6106 12.7566C48.1127 13.6889 48.4521 14.6526 49.0807 15.5473C49.1164 15.5986 49.464 15.6386 49.5255 15.7683C49.6165 15.9614 49.5481 16.1277 49.609 16.2679C49.6622 16.3923 49.7206 16.5115 49.782 16.6275C50.0112 17.0607 50.2823 17.4475 50.4857 17.889C50.5842 18.1022 50.4217 18.0914 50.5388 18.3456C50.6557 18.5993 50.9045 18.6843 50.99 19.0614C51.0554 19.3491 50.8416 19.7743 50.967 20.1321C51.3103 19.9833 51.4132 20.2113 51.7077 20.5923C51.7165 20.6036 51.7258 20.6096 51.7354 20.6119C51.7635 20.6184 51.7937 20.5918 51.8198 20.5709C51.8377 20.5566 51.8536 20.545 51.8655 20.5487C51.8678 20.5494 51.8699 20.5507 51.8718 20.5525C52.0073 20.6782 51.9792 20.8677 52.1152 20.9813C52.1481 21.009 52.2638 20.9552 52.2972 20.9747C52.5821 21.1321 52.5269 21.6799 52.5138 21.7682C52.4718 22.1196 52.6803 22.1706 52.7102 22.4064C52.7435 22.6494 52.5087 22.3748 52.5852 22.6402C52.7413 23.1843 53.0637 23.8153 53.2969 24.3228C53.3886 24.5208 53.4792 24.3135 53.4959 24.3401C53.5454 24.4224 53.5927 24.5263 53.6325 24.6211C53.7743 24.9585 53.8583 25.2561 54.1844 25.3307C53.5306 26.0044 54.383 25.5536 54.5023 26.2251C54.5122 26.28 54.1655 26.5188 54.0216 26.3542C53.8819 26.1986 53.8782 25.884 53.6691 25.6616C53.6154 25.5993 53.1106 25.4391 53.0669 25.4016C52.7939 25.1727 53.0952 24.9152 53.2299 24.8108C53.2607 24.7866 53.2826 24.7704 53.2866 24.764C53.5107 24.3768 52.9449 24.1605 52.8638 24.0569C52.4974 23.5934 52.3885 23.1616 52.0951 22.7674C51.909 22.5201 51.5317 22.673 51.4403 22.4536C51.1744 21.8181 51.4315 21.3699 51.0132 20.9621C50.9464 20.897 50.8624 20.8329 50.7564 20.7693C50.5914 20.6698 50.2619 21.007 50.3268 20.3432C50.3311 20.3018 50.4317 19.7799 50.141 19.6465C50.1045 19.6299 49.9887 19.6878 49.9609 19.6558C49.7781 19.4432 49.7911 19.2361 49.6154 18.992C49.4398 18.7481 49.2147 18.46 49.1037 18.1389C49.0364 17.945 49.1349 17.6032 49.1439 17.4894C49.1608 17.2975 49.0327 17.1708 48.9482 17.0476C48.8906 16.9637 48.8534 16.8817 48.8967 16.7822C49.0036 16.5348 49.4365 16.6942 49.3513 16.2297C49.0438 16.3668 48.7186 16.4885 48.4049 16.6176C47.9684 15.7312 47.6184 14.815 47.1454 13.951C47.0867 13.8447 46.9856 14.0402 46.9172 13.9259C46.7911 13.7145 46.6986 13.5035 46.6083 13.294C46.4936 13.027 46.3775 12.7527 46.1957 12.4802C45.9497 12.1143 45.5446 11.7786 45.2762 11.4034C45.4842 10.9888 45.0094 10.4257 44.796 10.0048C44.7144 9.84587 44.8086 9.80329 44.7725 9.67955C44.6999 9.43461 44.6178 9.42665 44.5387 9.4572C44.469 9.48477 44.4023 9.54438 44.3508 9.50929C43.8682 9.17351 44.4995 8.72548 44.1199 8.20439C44.0938 8.16601 43.5426 8.1021 43.4887 8.07611C43.1481 7.90632 43.5653 7.93964 43.4607 7.75782C43.3693 7.49059 42.9218 7.06342 43.1909 7.31735C43.8526 7.708 44.5768 6.34516 44.1615 6.89196C44.1326 6.91379 43.9986 6.89318 43.9884 6.91402C43.9579 6.98331 43.9495 7.06147 43.9563 7.13335C43.9874 7.41692 44.2966 7.48121 44.4113 7.76955C44.5516 8.0595 44.2436 8.56712 44.155 8.67667C43.928 8.92054 44.0676 8.47354 44.0464 8.4457C43.7954 8.25392 43.8285 8.6731 43.7987 8.90135C43.3802 8.92298 43.3914 9.2997 43.7681 9.17684C43.8094 9.16169 43.778 8.95191 43.7987 8.90135C44.2015 9.12358 44.2354 9.61755 43.833 10.016C43.6432 10.2213 43.4457 9.99769 43.4875 10.6687C43.5051 10.9809 43.7995 10.8672 43.8631 11.1285C44.0083 11.7247 43.6877 12.4958 43.6834 13.1025C43.6814 13.3297 43.8553 13.1213 43.8593 13.2775C43.8683 13.7113 43.7243 14.0182 43.7485 14.4371C43.7509 14.4744 43.9231 14.3987 43.914 14.5255C43.8775 15.054 43.808 15.5143 43.7329 15.9955C43.668 16.4098 43.5966 16.8582 43.5452 17.3019C43.4921 17.7694 43.4745 18.6728 43.3936 19.1476C43.2518 20.0109 42.8639 21.0277 42.8064 21.7727C42.768 22.2601 42.9464 22.1835 43.0251 22.4036C43.1777 22.8306 42.6736 23.4682 42.5972 23.5518C42.595 23.5541 42.6272 23.136 42.5062 23.3413C42.3106 23.4389 42.5973 23.547 42.5972 23.5518C42.549 23.6076 42.3651 24.4254 42.3656 24.5895C42.3662 24.6806 42.5289 24.6599 42.5263 24.7069C42.5247 24.7351 42.5229 24.7632 42.5211 24.7913C42.4496 25.8878 42.2657 26.9639 41.9504 28.0322C41.9429 28.051 41.7792 27.9829 41.7637 28.0277C41.5423 28.6484 41.652 29.1057 41.6437 29.6648C41.6348 30.2235 41.4827 30.6333 41.1096 30.8655C41.0399 31.2717 40.7534 31.8008 40.581 32.1028C40.409 32.4048 40.7208 32.5467 40.7188 32.5775C40.6958 32.9399 40.6297 33.2311 40.5391 33.5016C40.3915 33.9413 40.1768 34.3364 39.9633 34.898C39.8012 35.328 39.5345 36.2037 39.3841 36.6873C39.2679 37.0681 39.1051 37.2592 39.0138 37.614C39.0013 37.662 39.1602 37.6741 39.1598 37.6902C39.1683 38.1402 38.9029 37.8144 38.8093 37.8669C38.4673 38.0565 38.2774 38.1772 38.1675 38.6968C38.1427 38.8155 38.4802 39.3571 38.4128 39.5707C38.3226 39.8513 38.1982 39.6697 38.1062 39.9639C38.098 39.9889 38.2065 40.0362 38.1179 40.2028C37.8176 40.7683 37.4721 41.3318 37.1142 41.9191C36.9826 42.1349 36.852 42.3491 36.726 42.5611C36.6621 42.6674 36.9049 42.6296 36.8145 42.7853C36.382 43.5277 35.8446 44.297 35.2531 44.9133C35.1071 45.0643 35.0848 44.8802 35.0263 44.8919C34.6735 44.962 34.6912 45.475 34.6526 45.5298C33.7589 46.8227 32.6773 47.4478 31.4556 48.508C31.4063 48.5517 31.188 48.9582 30.8876 49.108C30.7898 49.1572 30.6851 49.1787 30.5798 49.151C30.5482 49.1459 30.1331 49.0193 30.0028 49.3386C29.9939 49.3586 30.2425 49.4136 29.939 49.5566C29.6382 49.6978 29.1909 50.0346 28.6916 50.0375C28.5312 50.0401 28.1137 49.8615 27.7877 50.2347C27.7779 50.2612 27.2769 51.013 26.9323 50.68C26.8771 50.6237 26.8256 50.2102 26.3714 50.526C26.282 50.5862 26.4779 50.6445 26.2297 50.7517C25.8486 50.9159 25.2822 50.8792 24.8166 51.1003C24.7372 51.1404 24.3803 51.4499 24.0849 51.2373C24.0395 51.204 24.1237 51.0618 23.9722 51.0485C23.2269 50.9817 22.5516 51.0303 21.863 50.8463C21.6225 50.7802 21.7682 50.5702 21.5215 50.4726C21.4776 50.4551 21.4256 50.4362 21.368 50.4171C21.0983 50.3607 20.7196 50.3148 20.4967 50.3849C20.2253 50.4698 20.4679 50.8526 20.0756 50.8512C18.4701 50.8482 16.7027 50.363 14.9882 49.7912C14.7337 49.7049 14.9058 49.8985 14.5292 49.7757C13.6159 49.4831 12.1867 48.9281 11.1297 48.1744C10.6021 47.8065 10.1985 47.4356 9.9116 47.0759C9.26074 46.2111 10.3617 46.9612 9.82981 46.3657C9.58449 46.0843 9.00142 46.0841 8.92594 46.0217C8.19794 45.4311 7.95841 44.7927 7.4781 44.1337C7.37902 43.9945 7.3202 44.2268 7.23722 44.1056C6.952 43.6891 6.77786 43.186 6.57077 42.7585C6.47893 42.5683 6.37481 42.6561 6.30771 42.4716C6.14873 42.0307 6.05977 41.6204 6.04207 41.1528C6.04082 41.1111 6.27718 41.3244 6.18286 40.9991C6.03317 40.4765 5.99586 39.8138 5.76475 39.2245C5.70492 39.0729 5.47061 39.0808 5.50784 38.8107C5.51339 38.7711 5.52484 38.7255 5.54375 38.6726C5.57559 38.5847 5.94189 38.6409 5.57807 38.2346C5.51504 38.1731 5.01918 37.4371 5.27066 37.0367C5.33546 36.9347 5.61583 36.6763 5.56331 36.4669C5.55509 36.4381 5.39833 36.5595 5.37734 36.3826C5.30686 35.7634 5.3346 35.0765 5.31761 34.4546C5.31316 34.2837 5.13337 34.5288 5.13259 34.2731C5.12997 33.5665 5.2626 32.6863 5.40668 32.0295C5.46038 31.7839 5.57268 31.9747 5.58999 31.9585C5.87125 31.7045 5.57334 31.4859 5.56959 31.3854C5.55308 30.7575 5.78452 30.353 5.85407 29.8004C5.87393 29.6487 5.6989 29.7233 5.6913 29.6907C5.62203 29.3527 5.84925 29.641 5.92072 29.4517C6.04177 29.1348 6.13797 28.7839 6.21895 28.4477C6.27355 28.2208 6.32293 27.9934 6.37073 27.7745C6.41469 27.5732 6.18102 27.7522 6.22286 27.5716C6.47127 26.4901 6.80974 25.4224 7.24139 24.4386C7.32232 24.256 7.41548 24.419 7.45884 24.3898C7.76011 24.1912 7.60794 23.6987 7.61294 23.5974C7.6332 23.1395 7.80783 23.0202 7.91952 22.6488C8.28235 21.4383 8.84009 20.0879 9.41501 18.8606C9.69863 18.2538 9.99195 17.6619 10.257 17.1391C11.3081 15.0757 12.2541 13.5613 13.3139 11.6333C13.3813 11.512 13.1503 11.5406 13.2064 11.4348C13.4656 10.9515 13.7681 10.4377 14.0607 9.961C14.5586 9.14939 15.1227 8.28939 15.6384 7.45584C15.7083 7.34382 15.4559 7.40395 15.5635 7.22098C15.7866 6.83994 16.0836 6.42506 16.3864 6.09522C16.5349 5.93277 16.489 6.25874 16.6356 6.09431C16.9842 5.70314 17.273 5.33071 17.5819 4.88067C17.7089 4.69504 17.3593 4.85355 17.5358 4.62119C18.2876 3.65146 19.2106 2.44537 20.4032 1.61902C20.9155 -0.595634 20.7763 5.28407 21.4834 3.71878C21.4367 3.7001 21.3848 3.32702 21.1496 3.40361C21.1377 3.50577 21.1427 3.62532 21.1402 3.73419C20.7661 3.75856 20.3357 3.81087 19.896 3.87128C18.7052 4.03845 17.4691 4.25329 16.2322 4.48675C15.3431 4.65581 14.4555 4.83749 13.561 5.04107C13.4521 5.06594 13.6846 5.21063 13.4739 5.25978C13.1703 5.33078 12.8676 5.40607 12.5652 5.48082C11.6559 5.70573 10.7504 5.92538 9.77199 6.02502C9.64357 6.03832 9.6218 5.69113 9.27098 5.83434C9.22966 5.85142 8.97038 5.94119 8.76887 6.03085C8.6687 6.07536 8.58228 6.11992 8.54147 6.15591C8.52509 6.17172 8.6649 6.30016 8.48979 6.35042C7.45733 6.64359 6.38145 6.89147 5.32122 7.07701C5.1455 7.10791 5.28363 6.89466 5.15841 6.91517C5.12212 6.92115 5.08597 6.92749 5.04997 6.93414C4.22738 7.0843 3.37162 7.43624 2.57241 7.50554C2.004 7.55646 2.11949 7.21952 1.77216 7.01684C1.68791 6.99812 1.40742 7.07053 1.31349 6.92247C1.143 6.53139 1.21667 6.02951 1.01128 5.61935C0.936717 5.53939 0.55695 5.75623 0.752626 5.45667C0.735685 5.44505 1.07201 5.26896 1.11742 5.17362C1.1619 5.10396 1.00728 4.96987 1.11168 4.86734C1.22417 4.76263 1.3516 4.87569 1.53565 4.73831C1.7255 4.59835 1.55784 4.44309 1.93496 4.31427ZM39.7949 33.4493C39.5449 33.6941 40.0996 33.9228 40.0666 33.5575C40.0643 33.5396 39.8074 33.4365 39.7949 33.4493ZM48.0201 14.6162C48.0676 14.1358 47.5973 14.0752 47.5475 14.4191C47.4976 14.7629 48.0058 14.7623 48.0201 14.6162ZM50.0721 18.2367C50.0495 17.7237 49.2576 18.0366 49.6341 18.4087C49.6558 18.4306 50.0735 18.2667 50.0721 18.2367ZM3.06439 6.57145C3.0566 6.56533 2.82501 6.62138 2.82349 6.63C2.75187 6.84694 3.2131 6.73522 3.06439 6.57145ZM52.0736 21.86C52.1136 21.6782 51.8076 21.3483 51.7595 21.5773C51.7214 21.7623 52.0244 22.087 52.0736 21.86ZM31.067 46.8708C31.0578 46.8671 30.912 46.9688 30.9451 47.0066C31.0529 47.1293 31.2236 46.9392 31.067 46.8708ZM55.0739 28.2203C54.6572 27.2373 55.0435 26.4065 55.4419 27.4564C55.5186 27.6565 55.0463 27.1324 55.0998 27.399C55.2065 27.9049 55.7299 27.9898 55.7185 28.5329C55.713 28.6244 55.0919 28.267 55.0723 28.2189C55.0728 28.2194 55.0734 28.2198 55.0739 28.2203ZM39.0565 33.3991C39.0473 33.4021 38.964 33.6346 38.9693 33.643C39.1083 33.8296 39.2772 33.3594 39.0565 33.3991ZM21.2209 48.8347C21.2064 48.8187 20.6213 48.77 20.6028 48.7827C20.2601 49.0747 21.4461 49.1765 21.2209 48.8347ZM41.9135 17.0917C41.7531 16.8086 41.7648 16.4925 42.0265 16.2971C41.9849 16.5704 41.9547 16.8304 41.9135 17.0917Z" fill="black"/>
</svg>
