<svg width="53" height="42" viewBox="0 0 53 42" fill="none" xmlns="http://www.w3.org/2000/svg">
<path d="M3.98674 1.49943C4.0442 1.80344 3.99933 2.20527 3.93398 2.51426C3.91372 2.61099 3.80602 2.5662 3.78732 2.63304C3.75096 2.76372 3.80777 2.88198 3.76425 3.01185C3.74933 3.05497 3.57925 3.00948 3.56745 3.05462C3.50408 3.30228 3.55831 3.53188 3.5364 3.78201C3.4285 5.01357 3.46639 6.22546 3.52535 7.47324C3.52913 7.55244 3.52871 7.63543 3.52644 7.72082C3.51681 8.0787 3.47533 8.47971 3.57215 8.81396C3.58629 8.86224 3.72877 8.81422 3.74202 8.82205C3.94527 8.94506 3.64388 8.93416 3.61711 9.03527C3.51178 9.43659 3.55707 9.86376 3.66673 10.2218C3.71385 10.3741 3.98068 10.1755 3.84108 10.356C3.8317 10.3685 3.67102 10.3518 3.6608 10.3969C3.63791 10.4994 3.69317 10.679 3.69242 10.7561C3.69014 10.9049 3.69542 10.9286 3.71498 11.066C3.74043 11.2539 3.69919 11.489 3.76711 11.684C3.78206 11.7255 3.93111 11.6429 3.96925 11.7067C4.0073 11.7705 4.02389 11.9529 3.99688 12.0199C3.9698 12.087 3.84109 12.0821 3.8144 12.0977C3.58875 12.2273 3.95774 12.3794 3.9707 12.4049C4.19597 12.871 4.08281 13.324 4.17025 13.7822C4.21274 14.0032 4.2835 14.2316 4.34415 14.4525C4.37875 14.5786 4.41015 14.7028 4.43135 14.8233C4.50043 15.219 4.4848 15.5682 4.58238 15.9494C4.59247 15.9895 4.76664 15.9023 4.77934 15.9511C4.91445 16.4709 5.00941 16.9842 5.00865 17.5368C5.00834 17.5919 4.83127 17.5627 4.82134 17.62C4.76357 17.9699 4.56915 18.5531 5.31588 18.5664C5.34205 18.789 5.37986 19.0575 5.28832 19.2857C5.22952 19.4329 5.02378 19.3575 5.1376 19.4907C5.16308 19.5207 5.30456 19.4366 5.33119 19.4845C5.44311 19.6862 5.45525 19.9345 5.59075 20.1256C5.61885 20.165 5.75246 20.1164 5.7804 20.1222C6.0076 20.1727 5.72456 20.4339 5.71093 20.4782C5.63177 20.7417 5.69405 20.9154 5.75808 21.1065C5.7755 21.1585 5.79308 21.2118 5.80802 21.2686C5.82417 21.3302 5.98692 21.2063 6.00901 21.2637C6.12011 21.558 6.19746 21.8865 6.20416 22.2093C6.2053 22.2815 6.03182 22.2657 6.02442 22.3026C5.99382 22.4647 6.2965 22.4091 6.27297 22.5621C6.26841 22.5942 6.13073 22.6179 6.11767 22.6274C5.91264 22.7767 6.25831 22.7499 6.27166 22.7683C6.44763 22.9988 6.16122 23.2725 6.28827 23.5143C6.30379 23.543 6.45015 23.4223 6.48351 23.506C6.70654 24.0627 6.851 24.6699 6.90623 25.2791C6.91477 25.3729 6.76901 25.3526 6.75541 25.3632C6.54444 25.5331 6.88647 25.4827 6.90807 25.5067C7.07063 25.7008 6.8699 25.9956 7.30714 26.0204C7.41686 26.5764 7.62769 27.065 7.80766 27.595C7.95328 28.0235 8.06164 28.4339 8.07666 28.9201C8.07737 28.9335 7.91297 28.9732 7.91507 28.9996C7.93884 29.3183 8.16005 29.1687 8.52945 29.2362C8.62214 29.2529 8.32149 29.5366 8.30045 29.5598C8.22235 29.644 7.97207 29.6898 7.95953 29.7125C7.86429 29.8988 8.6193 29.567 8.68937 29.7387C8.69032 29.7447 8.54046 29.779 8.53244 29.7993C8.50708 29.8627 8.58127 29.8848 8.55106 29.9488C8.48065 30.0956 8.12536 30.2852 8.40463 30.3498C8.44063 30.3575 8.86022 30.1489 8.90321 30.3091C8.92 30.3736 9.03945 30.6358 9.04306 30.7208C9.04665 30.8063 8.88652 30.8151 8.88275 30.8228C8.7844 31.0992 8.67748 31.0593 8.45074 31.2785C8.22606 31.4993 8.85667 31.1914 8.94657 31.2019C9.03626 31.2127 8.95084 31.4275 8.91469 31.4871C8.87845 31.5466 8.77074 31.5397 8.75546 31.5852C8.65731 31.886 9.1153 31.5386 9.24814 31.5636C9.56182 31.6205 9.14449 31.9598 9.16596 32.1299C9.17174 32.1757 9.26439 32.0935 9.29136 32.1259C9.39719 32.2557 9.29068 32.4121 9.50231 32.5139C9.53698 32.5309 9.88149 32.5294 9.71408 32.7116C9.68988 32.7377 9.55664 32.7592 9.5592 32.8322C9.56289 32.9417 9.61475 33.1151 9.70027 33.192C9.76506 33.252 9.91585 33.074 9.90137 33.1957C9.89484 33.2498 9.74534 33.2283 9.74253 33.3255C9.73958 33.4227 9.8408 33.6149 9.88121 33.6857C9.92166 33.7566 10.0464 33.6441 10.0591 33.6451C10.1328 33.6529 10.272 33.7552 10.2779 33.7671C10.3007 33.8089 10.3221 33.851 10.3423 33.8931C10.6229 34.4759 10.6957 35.0936 11.0919 35.6051C11.1242 35.6466 11.2539 35.5302 11.2603 35.5357C11.4115 35.6512 10.9497 35.7621 10.8825 35.9467C11.1722 35.7558 11.1516 35.8445 11.2533 35.9394C11.3021 35.9839 11.3989 35.8848 11.4136 35.8826C11.6359 35.8561 11.4447 36.0473 11.4077 36.09C11.2714 36.2464 11.5051 36.1789 11.4145 36.2836C11.3251 36.3884 11.1094 36.4113 11.1773 36.5145C11.3003 36.4771 11.5265 36.2281 11.6198 36.2775C11.9609 36.4509 12.1223 37.1395 12.267 37.3731C12.4158 37.6172 12.4873 37.6689 12.5494 37.8183C12.6734 38.0976 12.793 37.8638 12.9908 37.9258C13.1874 37.9828 12.6905 38.3134 12.6123 38.4172C12.535 38.5215 12.6513 38.4549 12.621 38.5255C12.5911 38.5964 12.48 38.603 12.5122 38.677C12.5371 38.7445 12.8676 38.7606 12.9751 38.6783C13.2104 38.5143 13.3547 38.243 13.4105 38.4411C13.4139 38.4528 13.285 38.5451 13.3035 38.5842C13.463 38.8961 13.7193 39.1175 13.9877 39.365C14.0223 39.3975 13.9148 39.5384 13.9349 39.5593C13.9446 39.5693 13.9539 39.578 13.9629 39.5856C14.1757 39.749 14.2016 39.4564 14.4362 39.2068C14.2629 39.6027 14.248 39.8861 14.5076 39.9397C14.6584 39.9659 14.6662 39.7748 14.7687 39.6516C14.7968 39.6144 14.883 39.7478 14.9046 39.659C14.9638 39.3685 14.8968 39.0489 15.0598 39.1696C15.0684 39.175 15.0546 39.3352 15.0837 39.3425C15.2837 39.3832 15.2547 39.0792 15.4067 38.9962C15.5228 38.9339 15.8477 38.9818 16.0247 38.8953C16.1807 39.1364 16.2838 39.162 16.3134 39.074C16.3324 39.0146 16.3119 38.9048 16.2508 38.779C16.3579 38.7119 16.4526 38.602 16.5721 38.5497C16.6142 38.5305 16.6923 38.6506 16.7068 38.6576C16.9385 38.7635 16.7492 38.4902 16.7586 38.4616C16.8752 38.1563 17.231 38.103 17.2139 37.7109C17.2136 37.6961 16.9466 37.4906 17.193 37.5664C17.2102 37.5712 17.2804 37.7402 17.37 37.6301C17.4587 37.5219 17.7622 37.3804 17.7278 37.1272C17.7263 37.1154 17.7187 37.097 17.709 37.075C17.6678 36.9824 17.5886 36.8266 17.7765 36.8432C17.8082 36.8458 17.8861 36.9048 17.9423 36.914C18.1227 36.9413 17.8385 36.7507 18.1283 36.822C18.4173 36.8945 18.6883 36.8442 18.6006 36.5683C18.5984 36.5595 18.3773 36.3971 18.4092 36.3402C18.4605 36.2492 18.575 36.1354 18.6172 36.0364C18.6377 35.9884 18.4709 35.9507 18.4718 35.9412C18.5272 35.5836 18.7577 35.4166 18.9544 35.0849C18.9721 35.0553 18.9459 34.9756 18.9404 34.8952C18.9347 34.8128 18.9506 34.7298 19.0596 34.6968C19.2951 34.6239 20.0212 35.0432 19.95 34.6484C19.9222 34.4862 18.9847 33.998 19.5729 33.9303C19.5869 33.4363 19.9734 33.0849 19.9066 32.5702C19.9057 32.5634 19.8816 32.5465 19.8486 32.5249C19.7705 32.4737 19.6422 32.3969 19.6534 32.3634C19.6775 32.2926 19.8195 32.2849 19.8407 32.235C19.9331 32.0262 19.8645 31.8023 19.9276 31.5949C19.9511 31.5164 20.083 31.5736 20.1107 31.4796C20.1382 31.3855 19.9695 31.2857 20.0831 31.1724C20.1694 31.0876 20.5607 31.0596 20.6285 30.9351C20.2616 30.863 20.2861 30.7741 20.2167 30.5961C20.2032 30.5621 20.0693 30.5729 20.0562 30.5557C20.0002 30.4857 20.1157 30.4493 20.0529 30.3819C20.0378 30.3655 19.9119 30.3442 19.8924 30.3298C19.7219 30.2089 20.0298 30.0974 20.0832 30.0775C20.1471 30.0541 20.1754 30.0307 20.1868 30.0077C20.2117 29.9574 20.156 29.9092 20.2144 29.8627C20.2994 29.7949 20.3755 29.9251 20.4333 29.8396C20.5532 29.6596 20.564 29.4056 20.5905 29.2112C20.6005 29.1313 20.4252 29.1681 20.4227 29.1562C20.3971 28.9883 20.5919 28.8437 20.2608 28.7264C21.1446 28.682 20.1848 28.6184 20.3745 28.4058C20.3897 28.3893 20.8056 28.3899 20.8621 28.4644C20.9184 28.5394 20.7815 28.6387 20.868 28.7474C20.8883 28.7748 21.2645 28.9402 21.2861 28.9622C21.4559 29.126 20.836 29.0867 20.8015 29.0904C20.4275 29.1387 20.826 29.348 20.8498 29.3931C20.9592 29.6024 20.8497 29.7676 20.921 29.9412C20.9603 30.0408 21.2634 30.1061 21.33 30.1767C21.3406 30.188 21.3452 30.1994 21.3418 30.211C21.2563 30.4997 20.6828 30.4933 21.1202 30.8465C21.2133 30.9216 21.6606 30.9455 21.2795 31.0883C21.2555 31.0978 20.9134 31.1894 21.0945 31.3155C21.1174 31.3314 21.2444 31.3559 21.2522 31.3727C21.302 31.4844 21.1873 31.532 21.2141 31.6466C21.2406 31.7624 21.2853 31.9065 21.2154 32.0194C21.1735 32.0879 20.9171 32.1288 20.8517 32.1496C20.6639 32.2084 20.9108 32.3765 20.696 32.3895C20.4802 32.4015 20.2026 32.2118 20.035 32.3364C20.3604 32.4215 20.6924 32.5165 21.0186 32.6063C21 32.6732 20.9778 32.7388 20.9536 32.8032C20.8501 33.079 20.7079 33.3421 20.6381 33.6284C20.6277 33.6725 20.8143 33.6779 20.8075 33.7267C20.7776 33.9328 20.6024 34.068 20.5874 34.2864C20.5767 34.4552 20.7017 34.6893 20.6909 34.8713C20.2926 34.8486 20.332 35.1328 20.2334 35.2984C20.2119 35.3348 20.166 35.3323 20.1231 35.3335C20.0982 35.3343 20.0744 35.3363 20.0569 35.348C19.8795 35.4678 20.2262 35.5113 20.2592 35.5756C20.3969 35.8542 19.673 35.593 19.6013 35.8211C19.5977 35.8325 19.917 36.134 19.9313 36.1654C20.0296 36.3608 19.7907 36.1316 19.7284 36.2006C19.6143 36.3263 19.4812 36.386 19.5136 36.6041C19.5234 36.6685 19.698 36.8994 19.4727 36.9111C19.4432 36.9126 19.3245 36.8467 19.3124 36.8534C19.1049 36.9775 19.4851 37.1682 19.5582 37.3434C19.6308 37.5193 19.2821 37.5479 19.1904 37.5386C18.9515 37.519 19.1433 37.4289 19.1268 37.4137C18.9295 37.2393 18.907 37.376 18.84 37.4522C18.4679 37.2623 18.423 37.3936 18.7714 37.5327C18.81 37.5471 18.814 37.46 18.84 37.4522C19.0441 37.626 19.1007 37.7624 19.0056 37.8243C18.9523 37.8591 18.8509 37.8709 18.7011 37.8533C18.5053 37.8297 18.3676 37.6561 18.306 37.8998C18.2759 38.0117 18.5413 38.1306 18.552 38.258C18.5769 38.5482 18.1753 38.6506 18.0631 38.8589C18.0209 38.9366 18.1977 38.9675 18.1715 39.0258C18.0982 39.1849 17.9131 39.2194 17.8462 39.3816C17.8399 39.3968 17.987 39.4805 17.9519 39.5215C17.719 39.7941 17.4287 39.9627 17.1133 40.1654C17.0564 40.202 16.9985 40.2393 16.9395 40.278C16.7598 40.4032 16.4106 40.6943 16.1498 40.7651C15.6898 40.9092 15.1088 40.7486 14.6843 40.7651C14.4111 40.7756 14.4451 40.9412 14.3028 41.0329C13.9979 41.2037 13.7803 40.7187 13.7772 40.6506C13.7761 40.6494 13.9684 40.6724 13.9018 40.561C13.9092 40.3774 13.7802 40.6509 13.7772 40.6506C13.7697 40.625 13.6628 40.5629 13.5625 40.509C13.4865 40.4685 13.4071 40.4299 13.3722 40.4276C13.3291 40.425 13.2801 40.5755 13.2583 40.571C12.7318 40.4589 12.2323 40.0887 11.9422 39.6929C11.9381 39.6843 12.0701 39.5693 12.0592 39.5509C11.9017 39.2801 11.6651 39.3343 11.4188 39.2455C11.1796 39.1628 11.0968 38.992 11.2626 38.7186C11.1387 38.6238 11.1091 38.3657 11.0976 38.214C11.0862 38.0627 10.7995 38.2459 10.7885 38.2423C10.419 38.0966 10.4624 37.8159 10.2893 37.4972C10.2139 37.3554 9.9972 37.1054 9.86929 36.9669C9.7689 36.8604 9.78683 36.7356 9.68104 36.6576C9.6664 36.6463 9.54514 36.7386 9.53744 36.7371C9.30859 36.7063 9.66232 36.577 9.7043 36.5181C9.85728 36.304 9.93552 36.1847 9.74567 36.0813C9.70234 36.058 9.17679 36.2123 9.10985 36.1568C9.02409 36.0849 9.21012 36.0261 9.11624 35.9528C9.10837 35.9464 9.00601 36.0049 8.97967 35.9467C8.85561 35.6761 8.75965 35.3523 8.6001 35.0711C8.57867 35.0324 8.43899 35.169 8.4052 35.1143C8.36906 35.0557 8.33573 34.9989 8.30299 34.938C8.19531 34.7379 8.10561 34.5152 8.0684 34.2875C8.057 34.2143 8.19407 34.1963 8.22217 34.1654C8.39205 33.978 8.02599 34.0066 8.01077 33.99C7.64418 33.6094 7.75011 33.1054 7.4032 32.695C7.38397 32.6737 6.96021 32.624 7.20755 32.4065C7.22385 32.3917 7.47877 32.1736 7.24313 32.1836C7.22838 32.1842 7.10136 32.3065 7.07415 32.2026C7.047 32.0989 6.87689 31.985 6.98546 31.7772C7.02 31.7126 7.27343 31.4902 6.98573 31.4666C6.96612 31.4663 6.35207 31.4981 6.6906 31.2739C6.74641 31.2372 7.14051 31.0864 6.87847 31.02C6.8278 31.0074 6.76262 31.0958 6.67684 31.0425C6.5448 30.9607 6.58548 30.7628 6.35222 30.6883C6.31056 30.6742 6.00257 30.677 6.17022 30.5115C6.19649 30.4856 6.33721 30.4579 6.33396 30.4077C6.31926 30.1687 6.14304 29.9801 6.14819 29.7256C6.14982 29.6356 6.37742 29.5925 6.40288 29.4897C6.42839 29.3871 6.4198 29.2019 6.29052 29.1552C6.16166 29.1098 5.85732 29.3301 5.78259 29.2159C5.6307 28.9831 5.54885 28.7217 5.4874 28.451C5.41638 28.14 5.37552 27.827 5.2876 27.5302C5.26304 27.4471 5.16464 27.5582 5.11965 27.4385C4.95104 26.9938 4.57308 26.2621 4.70761 25.7867C4.81473 25.4057 5.10373 25.7452 5.11086 25.4792C5.11402 25.3514 4.67218 25.3572 4.65041 25.3331C4.43327 25.1011 4.55283 24.8611 4.42099 24.6341C4.39378 24.5874 4.24624 24.6882 4.22486 24.6478C4.15036 24.51 4.17495 24.3325 4.11797 24.1954C4.09203 24.134 3.97082 24.1842 3.96244 24.1227C3.94122 23.9769 3.95493 23.8336 4.03193 23.6654C4.03892 23.65 4.21935 23.6853 4.19437 23.5818C4.15346 23.4144 4.20792 23.175 4.03192 23.0192C3.97922 22.9731 3.69209 23.055 3.854 22.8745C3.88779 22.8366 4.24143 22.7689 3.90249 22.713C3.84614 22.7039 3.37482 22.5785 3.59966 22.3851C3.65877 22.3341 3.91803 22.1737 3.85457 22.1191C3.84488 22.1119 3.70113 22.1926 3.67008 22.1406C3.59686 22.0141 3.554 21.8737 3.50032 21.7358C3.47574 21.6727 3.44889 21.6101 3.41579 21.5495C3.38734 21.4981 3.25007 21.6244 3.21276 21.5461C3.10988 21.331 3.07355 21.0356 3.06418 20.7988C3.06136 20.7127 3.20914 20.7334 3.22201 20.7236C3.43192 20.5664 3.09971 20.5946 3.07283 20.5679C2.9101 20.4008 3.02019 20.2116 2.93372 20.04C2.91026 19.9924 2.76782 20.0671 2.75172 20.0606C2.59283 19.9906 2.8851 19.998 2.89823 19.9246C2.93598 19.7186 2.8717 19.516 2.80548 19.3334C2.78094 19.2663 2.6241 19.3877 2.6041 19.327C2.48316 18.971 2.40838 18.5889 2.42143 18.2086C2.42423 18.137 2.57029 18.1472 2.59806 18.1259C2.79281 17.9785 2.46313 17.9066 2.42724 17.8803C2.26372 17.7621 2.37058 17.6751 2.31845 17.5509C2.06097 16.9427 1.96809 16.1255 1.89515 15.5141C1.87122 15.3175 1.85405 15.1304 1.83917 14.9489C1.79319 14.3888 1.76964 13.8912 1.64161 13.3251C1.63102 13.2774 1.45661 13.3587 1.44513 13.3179C1.30502 12.7881 1.28784 12.2502 1.14899 11.7196C1.13792 11.676 0.97393 11.7675 0.950319 11.6983C0.900667 11.5565 0.881306 11.3698 0.914436 11.2134C0.930272 11.1373 1.09456 11.2111 1.10747 11.135C1.13794 10.9581 1.12357 10.7763 1.07043 10.6073C1.04745 10.5354 0.885137 10.6726 0.869166 10.577C0.756963 9.92657 0.640396 9.28427 0.792868 8.59421C0.803356 8.54683 1.16253 8.46387 1.08144 8.37608C0.979569 8.3807 0.860783 8.39503 0.752435 8.40452C0.730611 8.28296 0.712126 8.16113 0.696368 8.0391C0.589225 7.20882 0.608045 6.37298 0.559367 5.5332C0.556978 5.49254 0.368859 5.57791 0.363254 5.49915C0.330775 5.04324 0.246895 4.60444 0.412437 4.12583C0.428629 4.07841 0.770967 4.0825 0.711766 3.9496C0.700933 3.92617 0.644415 3.72397 0.56773 3.67474C0.556191 3.66809 0.398857 3.71377 0.390832 3.64779C0.347025 3.26374 0.366507 2.86027 0.451276 2.47185C0.465273 2.40921 0.637142 2.4698 0.648594 2.42523C0.728551 2.10986 0.591222 1.77287 0.740405 1.4721C0.841007 1.27131 1.13572 1.34059 1.42315 1.23185C1.46368 1.21651 1.4687 1.09463 1.63677 1.08662C2.05929 1.06622 2.52277 1.11924 2.97306 1.09044C3.07 1.08436 2.96396 0.926869 3.19938 1.01843C3.21511 1.02485 3.29418 1.13867 3.37412 1.16583C3.42937 1.18473 3.59988 1.14735 3.67079 1.18633C3.74164 1.22519 3.59893 1.271 3.68267 1.33591C3.76748 1.40065 3.96139 1.3685 3.98674 1.49943ZM11.0722 37.5584C11.1439 37.3742 10.6395 37.6962 10.8276 37.7177C10.8373 37.7183 11.0689 37.5677 11.0722 37.5584ZM20.287 33.1535C19.995 33.2217 20.3417 33.421 20.5655 33.3773C20.7895 33.3317 20.3758 33.1317 20.287 33.1535ZM20.4505 31.6609C20.2123 31.7795 21.0349 31.9882 20.9059 31.7729C20.8987 31.7604 20.4644 31.6538 20.4505 31.6609ZM1.51373 1.71559C1.52162 1.71392 1.52758 1.62614 1.51968 1.6242C1.32878 1.58111 1.317 1.75724 1.51373 1.71559ZM20.5091 30.1808C20.3878 30.2156 20.4952 30.3829 20.6462 30.3421C20.7679 30.3087 20.6601 30.1372 20.5091 30.1808ZM8.90208 32.255C8.9095 32.2498 8.8915 32.1908 8.84613 32.2128C8.70009 32.2837 8.77715 32.3424 8.90208 32.255ZM20.7171 27.6966C20.6817 28.0798 19.9701 28.2474 20.0614 27.8787C20.0773 27.8105 20.2813 28.0308 20.3465 27.9456C20.4656 27.7808 20.0264 27.6659 20.2597 27.5072C20.3027 27.4743 20.7212 27.6715 20.7181 27.6972C20.7178 27.697 20.7174 27.6968 20.7171 27.6966ZM11.6288 37.0997C11.6342 37.0936 11.5914 37.0173 11.5837 37.0198C11.3995 37.0867 11.4868 37.2423 11.6288 37.0997ZM7.84012 28.7628C7.85427 28.7529 7.79548 28.5561 7.77975 28.5583C7.45151 28.57 7.56796 28.9642 7.84012 28.7628ZM16.0344 38.9044C16.0163 38.807 16.0191 38.7406 16.049 38.7133C16.0809 38.6839 16.1448 38.7025 16.2503 38.7791C16.2138 38.7999 16.1796 38.8214 16.1441 38.8431C16.1079 38.8653 16.0717 38.8864 16.0344 38.9044ZM41.7453 0.0341285C41.8722 0.120195 41.9372 0.304923 41.9582 0.464448C41.965 0.514307 41.8659 0.558204 41.8667 0.595385C41.8682 0.667861 41.943 0.682703 41.9387 0.760674C41.9368 0.786691 41.7861 0.864785 41.7872 0.889805C41.794 1.02615 41.8918 1.0887 41.9299 1.20294C42.1164 1.76419 42.3875 2.25312 42.657 2.76854C42.7453 2.93729 42.7513 3.21127 42.919 3.33495C42.9386 3.34916 43.0516 3.25359 43.0641 3.2502C43.2557 3.19976 42.9987 3.35145 42.9917 3.41054C42.965 3.64523 43.0632 3.81033 43.2078 3.91945C43.2086 3.9201 43.2095 3.92069 43.2105 3.92123C43.2749 3.95882 43.4675 3.741 43.3752 3.89241C43.3689 3.90289 43.2297 3.97671 43.2272 4.00256C43.222 4.06099 43.2934 4.11535 43.3029 4.15104C43.3206 4.22027 43.3282 4.2285 43.3626 4.28165C43.4085 4.35516 43.402 4.48337 43.4836 4.53986C43.5015 4.55184 43.619 4.43941 43.6596 4.45036C43.7002 4.46138 43.7365 4.53881 43.7213 4.58358C43.706 4.62838 43.595 4.6894 43.5739 4.70983C43.3955 4.88131 43.7295 4.77138 43.7434 4.77708C43.9895 4.8859 43.9378 5.15329 44.0586 5.33211C44.1499 5.46669 44.299 5.57542 44.3768 5.70819C44.4698 5.86799 44.4838 6.0467 44.5942 6.18744C44.6057 6.20242 44.7512 6.08031 44.7656 6.09842C44.9175 6.28946 45.0353 6.50774 45.0603 6.78103C45.0627 6.80857 44.9065 6.87208 44.9006 6.90494C44.8672 7.10394 44.719 7.4785 45.3746 7.16512C45.4056 7.2659 45.4472 7.38549 45.3729 7.53975C45.332 7.62475 45.1923 7.67274 45.2175 7.69684C45.2218 7.7009 45.2308 7.70429 45.2457 7.70705C45.2688 7.7115 45.3911 7.60925 45.4157 7.62234C45.519 7.67742 45.5355 7.79992 45.6584 7.84214C45.6837 7.85057 45.8007 7.77054 45.8254 7.76194C46.0265 7.69393 45.7806 7.94453 45.769 7.97267C45.6839 8.18556 45.7975 8.23048 45.8602 8.34019C45.8747 8.3657 46.0181 8.2361 46.0379 8.25709C46.1382 8.36736 46.2039 8.5053 46.2066 8.67148C46.2068 8.70868 46.0533 8.76824 46.0463 8.79032C46.0171 8.88655 46.2861 8.73981 46.2631 8.82919C46.2586 8.84781 46.1362 8.91343 46.1244 8.92346C45.9402 9.08073 46.2472 8.93334 46.2587 8.93801C46.4116 8.99282 46.1506 9.24478 46.2561 9.32272C46.269 9.3319 46.4024 9.21326 46.4296 9.24464C46.6118 9.4533 46.7179 9.72601 46.7335 10.0295C46.7362 10.0766 46.6074 10.1176 46.5947 10.1281C46.3975 10.2937 46.7049 10.1453 46.7229 10.1506C46.8572 10.1973 46.6611 10.4274 47.0481 10.2867C47.1348 10.66 47.4241 10.9151 47.4862 11.2982C47.5015 11.3924 47.5033 11.4951 47.484 11.6074C47.4832 11.6145 47.3319 11.6874 47.3308 11.7011C47.3157 11.8668 47.5301 11.7166 47.8529 11.6416C47.934 11.6229 47.6319 11.871 47.6102 11.89C47.5303 11.9601 47.301 12.0606 47.2871 12.077C47.1791 12.2079 47.8952 11.7994 47.9365 11.8735C47.9366 11.8764 47.7984 11.9401 47.7887 11.9536C47.7579 11.9958 47.8212 11.9858 47.7859 12.03C47.704 12.1317 47.3614 12.3401 47.602 12.2937C47.6331 12.2875 48.036 12.0495 48.0528 12.1261C48.0591 12.1567 48.1299 12.2693 48.1211 12.3166C48.1123 12.3638 47.9678 12.4135 47.9633 12.4189C47.8362 12.6021 47.7455 12.6083 47.5101 12.7931C47.2757 12.9771 47.8851 12.6305 47.9636 12.6111C48.042 12.592 47.9325 12.735 47.8908 12.778C47.8491 12.8211 47.7541 12.8469 47.7333 12.8763C47.5978 13.0702 48.0616 12.752 48.1763 12.7301C48.4479 12.6787 48.0202 12.9812 48.0108 13.0713C48.0082 13.0957 48.1048 13.0252 48.1231 13.0359C48.1943 13.0793 48.0716 13.1938 48.2413 13.196C48.269 13.1964 48.5762 13.1082 48.3938 13.254C48.3675 13.2748 48.245 13.3204 48.2338 13.3611C48.2168 13.4221 48.2306 13.5085 48.292 13.5321C48.3374 13.5495 48.5066 13.4127 48.4695 13.4845C48.4529 13.5164 48.3247 13.5411 48.3027 13.5963C48.2805 13.651 48.3302 13.7337 48.3511 13.7643C48.3721 13.7948 48.5062 13.7018 48.5172 13.6993C48.5809 13.6862 48.6829 13.7127 48.6857 13.7184C48.8503 13.9903 48.7421 14.3753 48.9619 14.6069C48.979 14.6253 49.1238 14.5332 49.1279 14.5352C49.2294 14.5766 48.7953 14.7248 48.6862 14.8453C48.9911 14.6805 48.9507 14.7394 49.0111 14.7742C49.0405 14.7909 49.1531 14.7164 49.1665 14.7125C49.3672 14.6575 49.1458 14.8028 49.1012 14.8339C48.9371 14.9483 49.1595 14.8693 49.05 14.9461C48.9412 15.0221 48.7481 15.0721 48.7752 15.1202C48.8929 15.078 49.1635 14.8949 49.2294 14.9087C49.3319 14.93 49.3765 15.0072 49.3959 15.0996C49.4236 15.2317 49.3996 15.3948 49.4197 15.4699C49.4538 15.5974 49.4929 15.6248 49.4855 15.7108C49.4725 15.867 49.6661 15.7161 49.8019 15.7424C49.9379 15.769 49.3891 15.9943 49.2804 16.0614C49.1716 16.1283 49.2947 16.0819 49.2385 16.126C49.1823 16.17 49.0907 16.1799 49.0824 16.2223C49.0741 16.2647 49.3187 16.2495 49.4435 16.202C49.7079 16.1011 49.9545 15.9322 49.9018 16.0608C49.8986 16.0683 49.7514 16.1214 49.7462 16.1465C49.7102 16.3452 49.7755 16.496 49.7497 16.6856C49.7459 16.7117 49.5816 16.7697 49.5776 16.7857C49.5359 16.9534 49.7778 16.7835 50.1016 16.7082C49.706 16.8812 49.4858 17.0323 49.5275 17.1245C49.5524 17.1801 49.7176 17.0889 49.8544 17.0669C49.8957 17.0603 49.7978 17.1554 49.8811 17.1241C50.1534 17.022 50.4281 16.8448 50.3573 16.9957C50.3537 17.0024 50.2045 17.058 50.2026 17.0763C50.1896 17.1947 50.4682 17.0748 50.5488 17.1585C50.612 17.224 50.5115 17.4428 50.5268 17.5453C50.0876 17.7512 50.2279 17.788 50.5466 17.6796C50.5617 17.7435 50.6092 17.8001 50.593 17.8742C50.5878 17.9 50.4548 17.9473 50.4422 17.9562C50.2441 18.0944 50.5503 17.9808 50.5677 17.9878C50.7432 18.0697 50.5714 18.2845 50.8505 18.3125C50.8605 18.3135 51.1694 18.1786 50.9627 18.3174C50.9483 18.3268 50.7893 18.3485 50.8072 18.4149C50.8247 18.4807 50.7158 18.6748 50.8957 18.6919C50.9392 18.6963 51.2113 18.6328 51.0364 18.7639C51.0126 18.7816 50.9221 18.8161 50.877 18.8466C50.7333 18.9442 51.049 18.8154 50.8002 18.9669C50.601 19.0883 50.4537 19.2109 50.5162 19.2557C50.5317 19.2669 50.5603 19.2733 50.6042 19.2737C50.6107 19.2739 50.8653 19.1813 50.8738 19.2101C50.8871 19.256 50.8641 19.3406 50.8864 19.385C50.8971 19.4062 51.0432 19.3226 51.0477 19.325C51.2005 19.4332 51.1102 19.5951 51.1212 19.7759C51.1229 19.8091 51.368 19.7958 51.2283 19.9255C51.0755 20.0675 50.2979 20.3453 50.5392 20.4028C50.6358 20.4261 51.6195 20.0677 51.1724 20.3919C51.3822 20.5313 51.2093 20.822 51.4718 20.9405C51.4835 20.9459 51.762 20.855 51.7677 20.8775C51.7756 20.9111 51.6588 20.9835 51.6605 21.0093C51.6641 21.118 51.8096 21.1584 51.8314 21.2522C51.8401 21.2882 51.7063 21.3337 51.7167 21.3766C51.7272 21.4195 51.9085 21.3709 51.8506 21.4613C51.8063 21.5298 51.4778 21.724 51.4614 21.7962C51.8043 21.6472 51.8137 21.6876 51.9335 21.7145C51.9567 21.7197 52.0697 21.6533 52.0868 21.6531C52.159 21.6507 52.0705 21.7172 52.1477 21.7113C52.1662 21.7099 52.2832 21.6587 52.305 21.6547C52.4946 21.6188 52.2608 21.8004 52.22 21.8319C52.0653 21.9518 52.2262 21.9052 52.1724 21.9687C52.1186 22.0321 52.0111 22.0199 51.9867 22.0771C51.9366 22.1965 51.9989 22.287 52.0289 22.3702C52.0415 22.4029 52.188 22.3127 52.1935 22.3158C52.2621 22.3648 52.1254 22.5047 52.4527 22.4058C51.6685 22.8034 52.5482 22.4119 52.429 22.578C52.4193 22.5913 52.0429 22.7667 51.9745 22.7621C51.9061 22.7576 52.0059 22.6619 51.9014 22.6599C51.8768 22.6594 51.4967 22.761 51.4719 22.7631C51.278 22.7793 51.8428 22.5226 51.8726 22.5059C52.1943 22.3238 51.7817 22.4261 51.7476 22.4205C51.5913 22.3944 51.6425 22.2939 51.5255 22.2632C51.4501 22.2437 51.0763 22.4029 51.0725 22.3634C51.0597 22.2323 51.5607 21.9636 51.0637 22.0547C50.9577 22.0741 50.5615 22.2763 50.8447 22.0532C50.8625 22.0391 51.1278 21.849 50.9275 21.8957C50.9022 21.9016 50.7839 21.9542 50.7714 21.9528C50.6899 21.9424 50.7727 21.8747 50.7089 21.8526C50.645 21.8304 50.5553 21.8097 50.5741 21.744C50.5852 21.7043 50.7884 21.5678 50.8361 21.5298C50.9736 21.4205 50.6998 21.491 50.8769 21.3825C51.0548 21.2732 51.3637 21.1942 51.4566 21.0741C51.1484 21.2086 50.8307 21.3436 50.5201 21.4775C50.4672 21.3298 50.504 21.1458 50.427 21.0107C50.4172 20.9941 50.2603 21.086 50.2455 21.0701C50.1836 21.0023 50.2711 20.8828 50.1862 20.8193C50.1202 20.7712 49.9138 20.7793 49.8396 20.7322C50.1716 20.5326 50.0075 20.4869 50.0069 20.4007C50.0066 20.3705 50.1009 20.3297 50.1233 20.2979C50.2055 20.1792 49.9104 20.3516 49.8533 20.3553C49.6095 20.371 50.3068 20.0452 50.2471 19.9601C50.2441 19.9553 49.8436 20.066 49.8165 20.0681C49.6405 20.0836 49.9423 19.9998 49.9545 19.9536C49.9768 19.8692 50.0463 19.7857 49.9043 19.7642C49.8623 19.7581 49.607 19.8149 49.7682 19.6919C49.7893 19.6758 49.9138 19.6221 49.9191 19.6145C49.957 19.555 49.9 19.5576 49.812 19.58C49.7035 19.6076 49.548 19.6654 49.4645 19.6745C49.3133 19.691 49.5491 19.5002 49.6197 19.4508C49.8021 19.3228 49.7175 19.4391 49.7379 19.4321C49.981 19.3477 49.9182 19.3167 49.9204 19.2699C50.297 19.0891 50.2498 19.0468 49.9211 19.2221C49.8853 19.2413 49.9342 19.2543 49.9204 19.2699C49.533 19.4088 49.4588 19.3734 49.7768 19.1486C49.9258 19.0432 50.1288 18.9835 50.0163 18.9231C49.9654 18.8956 49.7122 19.0331 49.6239 19.0292C49.4224 19.0204 49.6147 18.7979 49.5361 18.7297C49.5076 18.7049 49.3792 18.8021 49.3548 18.7875C49.2896 18.7491 49.3733 18.6492 49.2919 18.6184C49.2844 18.6157 49.1411 18.6983 49.1309 18.6817C49.0519 18.5584 49.0912 18.3944 49.0275 18.253C48.9965 18.1846 48.8571 18.1031 48.8405 18.0258C48.8106 17.8917 48.9572 17.6429 48.8538 17.5622C48.7876 17.5105 48.6462 17.597 48.5311 17.6168C48.3081 17.6556 48.6118 17.3877 48.6597 17.3481C48.6613 17.3468 48.7243 17.3878 48.7855 17.3201C48.9356 17.2253 48.6607 17.3484 48.6597 17.3481C48.6906 17.3224 48.6684 17.1907 48.629 17.1818C48.6075 17.1769 48.4703 17.252 48.4618 17.2482C48.2622 17.1572 48.1507 17.0193 48.1394 16.8308C48.1409 16.8266 48.2997 16.7537 48.3012 16.7449C48.3264 16.6201 48.1062 16.6568 47.9559 16.6391C47.8057 16.6214 47.815 16.5445 48.062 16.3675C48.0008 16.3293 48.0787 16.1882 48.1275 16.106C48.1763 16.0235 47.8688 16.1691 47.8608 16.168C47.6731 16.1454 47.697 16.0535 47.7077 15.949C47.7116 15.911 47.7138 15.8714 47.7034 15.8329C47.6854 15.7639 47.5798 15.6644 47.5117 15.6126C47.4578 15.5726 47.5124 15.5043 47.442 15.4783C47.4325 15.4747 47.301 15.5502 47.2948 15.5509C47.1056 15.5786 47.4487 15.4365 47.5018 15.3951C47.695 15.2448 47.7959 15.1609 47.6593 15.1424C47.6279 15.138 47.1297 15.3345 47.087 15.3197C47.0323 15.2999 47.2096 15.2268 47.148 15.2082C47.1429 15.2066 47.0385 15.2613 47.0305 15.2344C46.9925 15.1116 46.9877 14.9531 46.9156 14.8404C46.9062 14.8247 46.7512 14.9319 46.7348 14.9107C46.658 14.8114 46.6017 14.689 46.6234 14.5425C46.6293 14.5062 46.7537 14.4615 46.7851 14.4377C46.9748 14.2933 46.6461 14.4025 46.6361 14.3975C46.3876 14.2789 46.5813 13.9848 46.3457 13.8575C46.3325 13.8512 45.9653 13.9417 46.2218 13.7556C46.2388 13.7432 46.5018 13.5537 46.2909 13.6258C46.2777 13.6303 46.1445 13.7319 46.1379 13.6841C46.1311 13.6363 45.9994 13.6253 46.1295 13.484C46.1705 13.4395 46.4297 13.2451 46.1773 13.3162C46.1597 13.3212 45.6097 13.5198 45.9439 13.3001C45.999 13.264 46.3716 13.0659 46.1484 13.1088C46.1052 13.1173 46.0344 13.184 45.9659 13.1813C45.8605 13.1776 45.9249 13.0602 45.7283 13.0931C45.6935 13.099 45.4192 13.1948 45.5903 13.0551C45.6171 13.0332 45.746 12.9752 45.7497 12.9493C45.7677 12.826 45.6351 12.7815 45.6712 12.6465C45.6838 12.5988 45.8914 12.5034 45.9265 12.4412C45.9616 12.3791 45.9757 12.2843 45.8658 12.3013C45.7559 12.3184 45.4606 12.5335 45.4067 12.4971C45.3998 12.4924 45.3931 12.4876 45.3867 12.4826C45.1761 12.3197 45.232 12.0111 45.1351 11.7824C45.1204 11.7476 45.0234 11.8394 44.9937 11.7929C44.8837 11.6213 44.6025 11.3812 44.7502 11.0889C44.8685 10.8545 45.1042 10.9227 45.1264 10.7834C45.1366 10.7163 44.7447 10.8826 44.7269 10.8786C44.5481 10.8417 44.6649 10.6727 44.5587 10.6068C44.5367 10.5933 44.4015 10.7004 44.3844 10.6879C44.3249 10.6462 44.3544 10.5471 44.3097 10.4999C44.2893 10.4789 44.1801 10.5508 44.1752 10.5232C44.1623 10.4579 44.1806 10.3821 44.2536 10.2663C44.2603 10.2558 44.4188 10.2038 44.3998 10.1609C44.3687 10.0916 44.4232 9.94881 44.2716 9.93982C44.2262 9.9374 43.971 10.0923 44.1181 9.93766C44.1488 9.90534 44.4622 9.73072 44.1644 9.83759C44.1148 9.85508 43.7025 9.98197 43.9041 9.79583C43.9571 9.7468 44.1881 9.56241 44.1325 9.5602C44.1241 9.5605 43.9964 9.65901 43.9697 9.64542C43.8777 9.59609 43.8423 9.50656 43.7509 9.45464C43.7262 9.44093 43.6047 9.55978 43.5724 9.53659C43.4835 9.47301 43.4524 9.34366 43.4437 9.23209C43.4407 9.19079 43.5706 9.13908 43.5818 9.12888C43.765 8.96312 43.4735 9.11641 43.4497 9.11463C43.3057 9.10098 43.4001 8.96165 43.3223 8.91499C43.3011 8.90187 43.1773 8.99908 43.1631 9.00278C43.159 9.00378 43.1553 9.00464 43.1519 9.00538C43.038 9.02977 43.2795 8.91413 43.2897 8.87402C43.3198 8.75772 43.26 8.68705 43.1983 8.62765C43.1755 8.60595 43.0409 8.7326 43.0222 8.71203C42.9086 8.59218 42.8319 8.44074 42.8305 8.25412C42.8304 8.21871 42.958 8.15854 42.9815 8.13599C43.1458 7.97864 42.8557 8.09139 42.8235 8.09512C42.6766 8.11211 42.7664 8.0234 42.7153 7.9872C42.4635 7.81066 42.3418 7.47658 42.2342 7.22317C42.0963 6.89799 42.0537 6.5957 41.8385 6.33927C41.825 6.32288 41.6829 6.44479 41.6693 6.43203C41.5009 6.26322 41.4278 6.02694 41.2507 5.86376C41.2364 5.85013 41.1068 5.97282 41.079 5.95432C41.0209 5.9171 40.9831 5.8452 40.9928 5.76004C40.9973 5.71869 41.1459 5.66772 41.1478 5.62782C41.1525 5.53469 41.1176 5.46199 41.0509 5.41515C41.0507 5.41505 41.0506 5.41494 41.0504 5.41485C41.0209 5.39696 40.9016 5.53821 40.876 5.5048C40.6983 5.27942 40.5141 5.06922 40.537 4.69513C40.5385 4.66926 40.8289 4.44505 40.7472 4.45093C40.6621 4.50677 40.5642 4.57564 40.4745 4.63697C40.1887 4.33174 40.0507 3.91694 39.8241 3.56555C39.8145 3.55064 39.6742 3.6884 39.6547 3.66011C39.5405 3.49514 39.3858 3.37156 39.4247 3.0948C39.4283 3.06746 39.7118 2.87655 39.6352 2.85844C39.6214 2.85546 39.5321 2.80927 39.4583 2.83373C39.4474 2.83771 39.3275 2.94414 39.3069 2.92339C39.1889 2.80104 39.1144 2.63557 39.0968 2.44503C39.094 2.41387 39.2484 2.33751 39.2476 2.31444C39.241 2.1515 39.0492 2.10686 39.0966 1.90985C39.1288 1.77754 39.3855 1.63138 39.5915 1.42348C39.6206 1.39413 39.5935 1.34592 39.7278 1.24473C40.0653 0.990153 40.4554 0.739496 40.8134 0.46561C40.8905 0.406664 40.7623 0.408199 40.9778 0.305726C40.9923 0.298978 41.0869 0.296653 41.159 0.26056C41.2089 0.235664 41.3374 0.121695 41.4054 0.0954995C41.4734 0.0693479 41.3696 0.17031 41.4548 0.146849C41.5409 0.122774 41.6902 -0.00257802 41.7453 0.0341285ZM48.3444 15.7358C48.4688 15.6195 47.9311 15.8819 48.0823 15.8639C48.0902 15.8627 48.3384 15.7416 48.3444 15.7358ZM50.9162 20.9625C51.1313 20.7972 50.7597 20.9168 50.5919 21.0405C50.4242 21.1641 50.8511 21.0126 50.9162 20.9625ZM51.3594 21.4834C51.52 21.3323 50.7402 21.6663 50.9284 21.6678C50.9391 21.668 51.3501 21.4922 51.3594 21.4834ZM39.786 1.55119C39.792 1.54599 39.7753 1.50971 39.7683 1.51357C39.6023 1.60828 39.6359 1.6807 39.786 1.55119ZM51.8136 21.9921C51.9092 21.9245 51.761 21.9168 51.6421 22.0007C51.5464 22.0682 51.6946 22.0761 51.8136 21.9921ZM47.7544 13.2111C47.7619 13.2062 47.7558 13.1778 47.7116 13.2021C47.5695 13.2805 47.6282 13.293 47.7544 13.2111ZM52.2659 23.0023C52.2294 22.8381 52.8319 22.4669 52.8312 22.6633C52.8311 22.6989 52.5983 22.688 52.5569 22.7512C52.4815 22.8666 52.9052 22.7376 52.72 22.903C52.686 22.933 52.2665 23.0122 52.2649 23.0024C52.2652 23.0023 52.2655 23.0023 52.2659 23.0023ZM48.9741 15.3886C48.9807 15.3842 48.97 15.3461 48.9625 15.3488C48.7835 15.4154 48.8049 15.4919 48.9741 15.3886ZM47.2904 11.5965C47.304 11.5863 47.2733 11.4995 47.2583 11.5046C46.9646 11.6159 47.0255 11.7911 47.2904 11.5965ZM50.5158 17.5523C50.7067 17.5091 50.749 17.5459 50.5467 17.6793C50.54 17.6354 50.5234 17.5959 50.5158 17.5523Z" fill="black"/>
</svg>
