<svg width="59" height="54" viewBox="0 0 59 54" fill="none" xmlns="http://www.w3.org/2000/svg">
<path d="M23.7228 2.08738C23.682 2.3716 23.5119 2.70183 23.3508 2.93976C23.3005 3.01443 23.2142 2.93886 23.175 2.98882C23.0984 3.08653 23.1129 3.20622 23.0295 3.29951C23.0014 3.33025 22.8575 3.23149 22.8316 3.26495C22.6927 3.44418 22.6625 3.66665 22.5566 3.86794C22.0348 4.8587 21.6217 5.87557 21.1887 6.90147C21.0461 7.23977 20.7525 7.62465 20.6919 8.00476C20.6848 8.04939 20.8328 8.07241 20.8416 8.08437C20.9741 8.27046 20.7072 8.13167 20.6416 8.20049C20.3818 8.47449 20.2467 8.82326 20.1891 9.1628C20.1887 9.16482 20.1885 9.1668 20.1883 9.16875C20.1748 9.30406 20.4862 9.26777 20.2869 9.34779C20.2731 9.35352 20.1371 9.26815 20.1086 9.29943C20.0441 9.37051 20.0157 9.53732 19.9817 9.59744C19.9153 9.71307 19.9097 9.73401 19.8673 9.85007C19.8082 10.0082 19.6689 10.1713 19.6432 10.3524C19.6381 10.3912 19.8063 10.3963 19.8119 10.463C19.8183 10.5275 19.7497 10.6823 19.6958 10.7218C19.6416 10.762 19.5304 10.6979 19.4999 10.6976C19.2427 10.6937 19.4985 10.9856 19.4983 11.0114C19.4846 11.4805 19.177 11.7744 19.0403 12.1629C18.9341 12.4661 18.8801 12.8086 18.771 13.0893C18.6397 13.4256 18.4592 13.6728 18.3535 14.0126C18.3422 14.048 18.5345 14.0706 18.5212 14.1141C18.3791 14.5758 18.1995 15.014 17.9195 15.4135C17.8909 15.4545 17.7563 15.3396 17.7184 15.3772C17.4897 15.6093 17.0244 15.9319 17.6428 16.3411C17.5487 16.517 17.4394 16.731 17.2428 16.8451C17.1343 16.9084 17.0223 16.7965 17.0072 16.8621C17.0047 16.8732 17.0048 16.8894 17.0082 16.9125C17.0133 16.9483 17.176 16.9638 17.1724 17.0135C17.1573 17.2227 17.0333 17.4107 17.0415 17.6243C17.0435 17.6679 17.1802 17.7067 17.2002 17.7262C17.3607 17.8876 16.9854 17.9183 16.9501 17.942C16.6848 18.1259 16.6884 18.3255 16.5966 18.5589C16.5754 18.6125 16.7775 18.6151 16.7635 18.6691C16.6886 18.9481 16.5695 19.2198 16.3927 19.4506C16.3529 19.5017 16.2212 19.3915 16.1945 19.413C16.0784 19.5084 16.3546 19.6431 16.2489 19.7364C16.2269 19.7562 16.1023 19.6934 16.0864 19.6925C15.8362 19.6783 16.1305 19.8583 16.1305 19.8794C16.1383 20.1479 15.7516 20.1704 15.714 20.4104C15.7098 20.4393 15.8967 20.4416 15.8749 20.5189C15.7317 21.0323 15.4856 21.5397 15.1638 21.9825C15.1142 22.051 15.0123 21.949 14.9953 21.9479C14.7282 21.9345 15.026 22.1078 15.0283 22.1372C15.0383 22.3666 14.7018 22.4445 15.0277 22.7244C14.6593 23.3587 14.5182 24.0546 14.1267 24.673C14.0311 24.8234 13.9209 24.9673 13.7895 25.1019C13.7814 25.1107 13.6334 25.0296 13.618 25.0474C13.4305 25.2611 13.6914 25.3103 13.9193 25.5965C13.9764 25.6686 13.5683 25.6519 13.5377 25.6525C13.4248 25.6545 13.211 25.5183 13.1867 25.5245C12.9944 25.5786 13.7658 25.8701 13.7037 26.0235C13.7005 26.0278 13.5681 25.9505 13.5489 25.9577C13.4888 25.9797 13.5286 26.042 13.4643 26.0613C13.316 26.105 12.9322 25.9853 13.0926 26.2092C13.1135 26.2378 13.5572 26.3885 13.4811 26.5162C13.4503 26.5671 13.3597 26.809 13.3033 26.8663C13.2474 26.9225 13.1272 26.8186 13.1192 26.821C12.8599 26.9271 12.812 26.8266 12.5018 26.805C12.1926 26.7835 12.8509 27.0261 12.9079 27.093C12.9646 27.16 12.7577 27.2301 12.6914 27.2408C12.625 27.2514 12.5534 27.1741 12.5115 27.1907C12.2366 27.3015 12.7979 27.4084 12.8744 27.5143C13.0556 27.7648 12.5273 27.6809 12.4236 27.797C12.3955 27.8285 12.5173 27.8441 12.5138 27.8811C12.4983 28.0277 12.3156 28.044 12.3904 28.25C12.4025 28.2836 12.6401 28.5251 12.396 28.5136C12.3608 28.5117 12.2546 28.4302 12.2045 28.4744C12.1294 28.5404 12.0403 28.6784 12.0425 28.7841C12.0442 28.8621 12.2726 28.8703 12.1765 28.927C12.1337 28.9521 12.0476 28.8354 11.9768 28.8866C11.9061 28.9375 11.8368 29.1142 11.8123 29.1826C11.7878 29.2512 11.9524 29.2782 11.9601 29.2878C12.0036 29.3451 12.0206 29.5041 12.0156 29.5153C11.7888 30.0955 11.3126 30.5083 11.1525 31.0988C11.1397 31.145 11.3088 31.1846 11.3085 31.1924C11.3088 31.3697 10.9444 31.0702 10.7598 31.1127C11.0836 31.2371 10.9994 31.273 10.9882 31.3927C10.983 31.4506 11.1179 31.4772 11.1284 31.4874C11.282 31.6442 11.0182 31.59 10.9631 31.5816C10.7601 31.551 10.9504 31.6993 10.8145 31.6793C10.6795 31.6597 10.5354 31.5038 10.4935 31.6046C10.5945 31.6829 10.9239 31.7397 10.9382 31.8371C10.9606 31.9885 10.894 32.1511 10.7989 32.3049C10.6629 32.525 10.4687 32.7272 10.3936 32.8561C10.2663 33.0747 10.2535 33.1584 10.1522 33.2736C9.96905 33.4815 10.2282 33.4923 10.2603 33.6879C10.292 33.8839 9.78671 33.5656 9.6611 33.5345C9.53575 33.5029 9.64435 33.5803 9.56875 33.5776C9.49322 33.5748 9.44037 33.4822 9.3884 33.533C9.3365 33.5837 9.46522 33.8462 9.5761 33.9235C9.81113 34.0871 10.115 34.134 9.94547 34.2544C9.93556 34.2613 9.80811 34.1659 9.77731 34.1953C9.53737 34.4312 9.39394 34.7242 9.16559 34.9643C9.13397 34.9973 8.99324 34.8893 8.97307 34.9076C8.76246 35.098 9.06651 35.1363 9.29968 35.4035C8.92228 35.1918 8.64949 35.1524 8.56333 35.3306C8.51141 35.4375 8.69073 35.4989 8.77829 35.625C8.80473 35.663 8.65178 35.6843 8.7255 35.7358C8.96624 35.9046 9.29365 35.9705 9.08954 36.101C9.08017 36.1065 8.94888 36.0131 8.92697 36.0371C8.78457 36.1918 9.04838 36.3428 8.98849 36.5552C8.94157 36.7217 8.64428 36.9167 8.53411 37.0776C8.09808 36.865 8.1198 37.0772 8.38937 37.2886C8.32277 37.396 8.28103 37.5266 8.18663 37.6162C8.15427 37.6471 8.03965 37.5614 8.02368 37.5596C7.77412 37.5292 8.04354 37.7196 8.0432 37.7497C8.02629 38.0702 7.701 38.1759 7.79497 38.5336C7.79843 38.5463 8.09432 38.7084 7.84026 38.6681C7.82289 38.665 7.72566 38.5146 7.65719 38.628C7.58867 38.7414 7.31708 38.8857 7.37621 39.1195C7.39048 39.1757 7.58588 39.3984 7.35469 39.3841C7.32338 39.382 7.24244 39.3276 7.18658 39.3193C7.00827 39.2935 7.30034 39.4714 7.01186 39.4022C6.78083 39.3467 6.57167 39.3523 6.54746 39.4869C6.54144 39.5204 6.54685 39.5619 6.56619 39.6124C6.56879 39.6202 6.79132 39.7791 6.76169 39.8293C6.71422 39.9092 6.60526 40.0022 6.56361 40.0898C6.54376 40.1318 6.70707 40.1799 6.70622 40.1884C6.65022 40.5117 6.41854 40.6409 6.21108 40.9096C6.17281 40.9586 6.29803 41.2184 6.08319 41.2431C5.84785 41.2703 5.17352 40.7801 5.21371 41.1354C5.22945 41.278 6.09089 41.888 5.51143 41.8343C5.44157 42.2676 5.01815 42.4878 4.99461 42.9523C4.99358 42.9728 5.22552 43.1589 5.20173 43.1965C5.16592 43.252 5.02831 43.2217 4.99883 43.2593C4.87223 43.4155 4.89281 43.6295 4.78884 43.7908C4.74962 43.8522 4.63628 43.7649 4.58944 43.8381C4.54274 43.9114 4.6807 44.0481 4.54697 44.1112C4.44556 44.1583 4.06768 44.0635 3.97489 44.146C4.30439 44.3226 4.26075 44.3898 4.28241 44.5616C4.28672 44.5947 4.41565 44.6289 4.42364 44.6477C4.45869 44.7254 4.34051 44.7188 4.38199 44.797C4.39187 44.8159 4.50476 44.8756 4.51922 44.8944C4.64654 45.0567 4.32707 45.0478 4.27161 45.0458C4.06058 45.0394 4.1876 45.1548 4.08843 45.1828C3.98931 45.2108 3.95574 45.0736 3.87713 45.1258C3.7145 45.2337 3.62944 45.4396 3.54307 45.5909C3.5097 45.6508 3.68228 45.6889 3.681 45.6993C3.653 45.8451 3.42544 45.8877 3.68854 46.1164C2.86635 45.7935 3.72365 46.2322 3.4725 46.3309C3.45238 46.3385 3.07605 46.1622 3.05115 46.079C3.0263 45.9959 3.18478 45.9739 3.14078 45.8539C3.13058 45.8255 2.8408 45.5414 2.8273 45.5165C2.72212 45.3214 3.27878 45.5955 3.31199 45.6056C3.67165 45.7119 3.36703 45.3911 3.35932 45.3436C3.32245 45.1289 3.46771 45.04 3.45062 44.8688C3.44007 44.7572 3.08446 44.5604 3.1296 44.5011C3.27921 44.3041 3.82105 44.491 3.49128 44.0607C3.421 43.9687 3.00479 43.8065 3.39542 43.8125C3.41959 43.8138 3.76449 43.8431 3.62034 43.6823C3.60216 43.662 3.48719 43.6026 3.48337 43.5864C3.46001 43.4788 3.5775 43.4763 3.57605 43.3719C3.57458 43.2675 3.55997 43.1357 3.64702 43.0629C3.69929 43.019 3.9506 43.058 4.01689 43.0583C4.20708 43.0606 4.00106 42.8518 4.20819 42.8994C4.41649 42.9471 4.6483 43.1834 4.83101 43.1208C4.53445 42.9622 4.23305 42.7937 3.9362 42.6315C4.08523 42.368 4.32204 42.1445 4.44797 41.8652C4.46334 41.8303 4.28465 41.7828 4.29695 41.7433C4.34954 41.5771 4.53238 41.502 4.56703 41.3205C4.59295 41.1802 4.49086 40.9583 4.51334 40.807C4.89669 40.9016 4.87707 40.6507 4.97839 40.5275C5.01375 40.4843 5.10392 40.5337 5.15129 40.5141C5.32776 40.4392 4.99316 40.3477 4.96332 40.2879C4.83616 40.0322 5.53069 40.3641 5.60426 40.1747C5.60847 40.1646 5.29982 39.8646 5.28516 39.8367C5.18773 39.6589 5.42146 39.8834 5.48088 39.8322C5.58938 39.7388 5.71801 39.7003 5.67918 39.5084C5.66738 39.4522 5.48631 39.2419 5.70223 39.2516C5.73053 39.2528 5.84921 39.3187 5.86043 39.314C5.94688 39.2731 5.91827 39.2118 5.85253 39.1431C5.77157 39.0586 5.63431 38.963 5.5862 38.8806C5.49904 38.7313 5.82774 38.7297 5.91702 38.7402C6.14833 38.7669 5.97459 38.8355 5.992 38.8488C6.19965 39.0068 6.20761 38.8909 6.26321 38.8269C6.64314 39.001 6.67178 38.8859 6.3195 38.7595C6.28088 38.746 6.28757 38.8207 6.26321 38.8269C5.92715 38.5815 5.93618 38.4442 6.34172 38.4871C6.53177 38.5072 6.69251 38.655 6.71141 38.4421C6.72009 38.3457 6.44632 38.2508 6.41081 38.1448C6.32982 37.9029 6.67425 37.8083 6.71776 37.6216C6.73353 37.5539 6.56303 37.5447 6.56891 37.4961C6.58374 37.3675 6.738 37.3198 6.73736 37.1819C6.73713 37.1693 6.57675 37.1224 6.59162 37.0868C6.70134 36.8152 6.90643 36.6319 7.04012 36.3587C7.10454 36.227 7.13551 35.9503 7.21745 35.82C7.3585 35.5942 7.71395 35.4023 7.75707 35.1732C7.78579 35.0242 7.62277 34.9834 7.54774 34.8788C7.40192 34.6769 7.84653 34.6463 7.91353 34.6454C7.91573 34.6454 7.89734 34.7768 8.00265 34.7512C8.17911 34.79 7.91362 34.647 7.91353 34.6454C7.95698 34.6446 8.09776 34.4306 8.09029 34.3717C8.08616 34.3397 7.93804 34.2879 7.93856 34.2724C7.95413 33.9066 8.05929 33.5835 8.26848 33.3018C8.27386 33.2976 8.42894 33.3786 8.43962 33.3678C8.59293 33.2194 8.45126 33.0148 8.40345 32.8134C8.35567 32.612 8.44774 32.5116 8.76099 32.5468C8.77753 32.4186 8.97121 32.3116 9.08644 32.2514C9.20168 32.1913 8.89725 32.039 8.89478 32.0281C8.83481 31.7764 8.94961 31.6728 9.07273 31.5355C9.11752 31.4856 9.16339 31.4312 9.20228 31.3636C9.27216 31.2434 9.33802 30.9728 9.36406 30.8215C9.38423 30.7015 9.48582 30.6685 9.48292 30.5484C9.48261 30.5322 9.33799 30.485 9.33446 30.4785C9.21732 30.2946 9.53286 30.4968 9.60349 30.5004C9.86018 30.5137 10.0001 30.5134 9.95896 30.3252C9.94966 30.2818 9.50301 29.9727 9.50051 29.9003C9.49822 29.8065 9.66058 29.9122 9.65371 29.812C9.65328 29.8035 9.54456 29.758 9.57124 29.7096C9.69318 29.4856 9.86616 29.2583 9.95995 29.0101C9.97317 28.9764 9.7831 28.9452 9.79935 28.8953C9.87557 28.6618 9.98845 28.4152 10.1617 28.2313C10.205 28.1861 10.3111 28.2711 10.3518 28.2746C10.5989 28.2945 10.3277 28.0588 10.3288 28.0394C10.3475 27.5743 10.7639 27.3817 10.799 26.9153C10.8004 26.8896 10.5337 26.577 10.8557 26.6207C10.8772 26.6235 11.2057 26.6705 11.0307 26.5189C11.0197 26.5094 10.8472 26.4935 10.8971 26.4171C10.947 26.3407 10.9 26.165 11.1153 26.1199C11.1831 26.1056 11.515 26.1419 11.3231 25.9363C11.3098 25.9218 10.8428 25.5377 11.236 25.6297C11.3006 25.645 11.687 25.815 11.5393 25.6047C11.5105 25.5643 11.4052 25.5732 11.3772 25.4864C11.3338 25.3532 11.492 25.2645 11.3676 25.0715C11.3454 25.0377 11.1169 24.8393 11.3478 24.8483C11.384 24.8496 11.5058 24.9243 11.536 24.8917C11.6801 24.7375 11.6714 24.5076 11.8354 24.361C11.8935 24.3083 12.0913 24.4268 12.1754 24.3812C12.2595 24.3356 12.3694 24.2194 12.3016 24.1088C12.2337 23.9983 11.8653 23.9418 11.8814 23.8235C11.8834 23.8084 11.8858 23.7933 11.8884 23.7783C11.9745 23.2842 12.3392 22.9105 12.5457 22.4674C12.5773 22.3995 12.4338 22.4097 12.4717 22.3063C12.6131 21.9202 12.7501 21.2315 13.1348 21.0005C13.4428 20.816 13.4717 21.209 13.6335 21.0393C13.7111 20.9571 13.358 20.6997 13.3547 20.6714C13.3183 20.3897 13.5516 20.3031 13.5769 20.076C13.582 20.0293 13.4063 20.0099 13.4124 19.9709C13.4318 19.837 13.5526 19.7341 13.5846 19.6105C13.5986 19.555 13.4728 19.5184 13.5008 19.473C13.5665 19.3637 13.6572 19.2792 13.8152 19.2075C13.8296 19.201 13.9548 19.3292 13.9935 19.244C14.0564 19.1039 14.2337 18.976 14.1776 18.7711C14.1604 18.7102 13.8817 18.6033 14.1132 18.5733C14.1616 18.5669 14.4868 18.7205 14.2418 18.4919C14.2012 18.4536 13.8854 18.1058 14.1747 18.1009C14.2509 18.0996 14.5507 18.1353 14.5291 18.0612C14.5252 18.0508 14.3632 18.0262 14.3665 17.9727C14.3803 17.7861 14.4641 17.6098 14.48 17.4229C14.4841 17.3723 14.3032 17.3828 14.3144 17.3092C14.3447 17.107 14.4715 16.886 14.5888 16.7184C14.6323 16.6567 14.7438 16.7515 14.7596 16.7517C15.0175 16.7558 14.7269 16.5946 14.7187 16.5614C14.6722 16.356 14.8636 16.2825 14.8817 16.1144C14.8872 16.0682 14.7291 16.0444 14.7191 16.0311C14.7163 16.0272 14.7138 16.0235 14.7115 16.02C14.637 15.9059 14.8649 16.0568 14.9125 16.0142C15.0507 15.8923 15.1012 15.7176 15.139 15.5556C15.1527 15.496 14.9588 15.4978 14.973 15.445C15.0541 15.1316 15.1857 14.8203 15.3886 14.554C15.4271 14.5039 15.5457 14.5871 15.58 14.5862C15.8194 14.5811 15.5746 14.3621 15.5571 14.3251C15.4765 14.158 15.6099 14.1525 15.6272 14.0364C15.7089 13.4714 16.0268 12.8264 16.2495 12.3511C16.5433 11.7197 16.852 11.2455 17.037 10.6156C17.0491 10.5752 16.8595 10.5536 16.8677 10.518C16.9799 10.0637 17.2069 9.63532 17.3071 9.18491C17.3159 9.14737 17.1312 9.14148 17.1397 9.07927C17.156 8.95127 17.2178 8.80293 17.3132 8.70004C17.3594 8.64974 17.4747 8.7789 17.5183 8.72723C17.6202 8.60699 17.684 8.46165 17.7072 8.3086C17.7073 8.30826 17.7073 8.30791 17.7073 8.30757C17.7146 8.24369 17.5145 8.27611 17.54 8.19631C17.7123 7.6451 17.8597 7.12356 18.2699 6.64919C18.298 6.6169 18.6559 6.70325 18.617 6.60038C18.5229 6.56127 18.4096 6.52268 18.3077 6.48469C18.5224 5.68033 18.9053 4.95394 19.1945 4.16553C19.2064 4.13304 19.0033 4.12703 19.0254 4.0638C19.1531 3.69762 19.2244 3.32069 19.537 3.00006C19.5677 2.96813 19.8846 3.0974 19.8737 2.96867C19.8715 2.94593 19.8856 2.76208 19.8303 2.69436C19.8217 2.68482 19.6602 2.66461 19.6743 2.60847C19.7594 2.28155 19.9014 1.97548 20.0998 1.69236C20.132 1.64708 20.2747 1.75508 20.2991 1.72329C20.4705 1.49733 20.4422 1.17705 20.6714 0.979526C20.8255 0.847396 21.0831 1.00222 21.3865 1.00638C21.4293 1.00696 21.47 0.906262 21.6312 0.954523C22.0364 1.07566 22.4584 1.27311 22.8923 1.39634C22.9857 1.42301 22.9331 1.25163 23.1279 1.40814C23.1408 1.41887 23.181 1.54369 23.2481 1.59365C23.2945 1.62832 23.4669 1.65198 23.5219 1.70939C23.5768 1.76677 23.428 1.75943 23.487 1.84363C23.5469 1.9281 23.7398 1.96483 23.7228 2.08738ZM9.60279 31.9787C9.79057 31.9588 9.25 31.7022 9.33897 31.854C9.34392 31.8616 9.59348 31.9799 9.60279 31.9787ZM4.72197 42.3531C5.01357 42.3625 4.7068 42.1102 4.48552 42.0954C4.26447 42.0806 4.6335 42.3503 4.72197 42.3531ZM4.30443 43.5842C4.55599 43.5508 3.81307 43.1408 3.89399 43.3575C3.89844 43.3699 4.2898 43.5862 4.30443 43.5842ZM21.3274 1.43975C21.3353 1.44105 21.3674 1.37018 21.3605 1.3659C21.1936 1.26621 21.1297 1.40794 21.3274 1.43975ZM3.90035 44.8139C4.02304 44.8269 3.96602 44.6502 3.81355 44.6338C3.69093 44.6206 3.74775 44.7976 3.90035 44.8139ZM12.1526 27.6881C12.1614 27.6901 12.19 27.6426 12.1431 27.6242C11.9919 27.5651 12.0047 27.6531 12.1526 27.6881ZM2.89351 46.7412C3.0735 46.471 3.78392 46.627 3.5491 46.9005C3.50656 46.95 3.41628 46.6743 3.32242 46.7163C3.1512 46.7932 3.49314 47.0871 3.21347 47.1106C3.16248 47.1146 2.88193 46.7558 2.89291 46.7403C2.89312 46.7406 2.89331 46.7409 2.89351 46.7412ZM10.2811 32.2219C10.2891 32.2233 10.3271 32.1567 10.3206 32.1518C10.164 32.0368 10.0875 32.1708 10.2811 32.2219ZM13.7136 24.8519C13.7308 24.8543 13.8113 24.6959 13.799 24.6847C13.545 24.4837 13.3817 24.8032 13.7136 24.8519ZM8.52112 37.0748C8.65766 37.2322 8.63484 37.3321 8.38976 37.2884C8.43702 37.2192 8.47467 37.1448 8.52112 37.0748ZM1.54228 17.9673C1.97172 17.8791 2.51969 17.8901 2.96515 17.9311C3.09946 17.9441 3.03961 18.0553 3.13006 18.0692C3.3057 18.0965 3.46955 18.0313 3.65877 18.0656C3.7217 18.0775 3.65816 18.2509 3.72398 18.2595C4.04787 18.3084 4.38496 18.2392 4.7211 18.2491C4.9378 18.2555 5.16072 18.2596 5.38946 18.2617C6.8395 18.2812 8.30797 18.2319 9.78146 18.1991C9.82496 18.1982 9.8693 18.1979 9.9144 18.1982C10.4547 18.2014 11.0789 18.2858 11.6137 18.1903C11.6814 18.1781 11.6314 18.0336 11.6436 18.0206C11.8361 17.8221 11.7858 18.1235 11.92 18.1547C12.4499 18.2779 13.0385 18.2558 13.5364 18.1698C13.7496 18.1327 13.5174 17.853 13.7431 18.0045C13.7588 18.0147 13.7133 18.1741 13.7732 18.1874C13.9087 18.2171 14.1612 18.1747 14.2648 18.1813C14.3456 18.1868 14.3992 18.1895 14.4468 18.1902C14.5172 18.1912 14.5742 18.1879 14.6868 18.1828C14.9449 18.1724 15.2547 18.2336 15.5302 18.1837C15.5889 18.1726 15.5022 18.0164 15.5951 17.9842C15.6882 17.952 15.9385 17.9528 16.0243 17.9864C16.1103 18.0199 16.0809 18.1477 16.0972 18.1758C16.2319 18.4133 16.5018 18.0616 16.5393 18.0515C17.213 17.8761 17.7988 18.0424 18.4369 18.0158C18.6121 18.0083 18.7847 17.993 18.968 17.9756C19.2866 17.9452 19.602 17.9101 19.892 17.9061C20.4528 17.8987 20.8994 17.9729 21.4451 17.9455C21.5016 17.9428 21.4311 17.7557 21.5002 17.7521C22.1589 17.7174 22.8395 17.7231 23.5126 17.823C23.573 17.8319 23.6331 17.8416 23.6927 17.8522C23.7652 17.8652 23.6717 18.0307 23.744 18.0536C24.1944 18.1892 24.8789 18.5262 25.1769 17.8138C25.4869 17.85 25.8469 17.8928 26.1261 18.0536C26.296 18.1568 26.1175 18.3272 26.3326 18.2629C26.3808 18.2487 26.3294 18.0871 26.4011 18.0779C26.7441 18.0426 27.0464 18.1187 27.4139 18.0825C27.483 18.0743 27.4868 17.9321 27.5098 17.9094C27.693 17.724 27.9176 18.1092 27.9655 18.1458C28.0452 18.1993 28.1158 18.2426 28.1804 18.2784C28.587 18.4515 28.9239 18.6785 29.1932 19.0735C29.2688 19.1893 29.3339 18.9416 29.4062 19.042C29.7851 19.6118 29.897 20.0827 29.9463 20.5888C29.9512 20.6875 29.7724 20.6404 29.7665 20.6891C29.7406 20.9016 30.0493 20.8806 30.0263 21.0978C30.0216 21.1435 29.8807 21.1462 29.8673 21.157C29.6564 21.3226 30.0086 21.3686 30.0219 21.4013C30.1886 21.769 29.8703 22.0529 29.9643 22.4327C29.9757 22.4784 30.1387 22.3543 30.16 22.4841C30.2836 23.2166 30.2918 24.0173 30.1974 24.7854C30.1881 24.8587 30.1777 24.9291 30.1664 25.001C30.147 25.1247 30.0136 25.0388 29.9975 25.047C29.7458 25.1769 30.0869 25.2544 30.1001 25.2954C30.196 25.6159 29.9098 25.9275 30.3131 26.1515C30.1602 27.5188 30.3176 28.897 29.8506 30.2178C29.8451 30.2348 29.6805 30.1907 29.6701 30.2246C29.5433 30.6302 29.8094 30.5675 30.1035 30.8673C30.1552 30.9201 29.9733 31.0219 29.8496 31.0831C29.7969 31.1093 29.7547 31.1281 29.7459 31.1328C29.6363 31.1905 29.3944 31.0983 29.3723 31.1189C29.1979 31.2896 30.0219 31.3353 29.9978 31.5891C29.9957 31.5968 29.8479 31.549 29.8308 31.5688C29.7773 31.6302 29.8309 31.7015 29.7725 31.7611C29.6374 31.8981 29.2338 31.9088 29.4427 32.1535C29.4698 32.1848 29.9397 32.1902 29.8939 32.4113C29.8755 32.4992 29.8396 32.8957 29.7963 33.0037C29.7534 33.1114 29.6125 33.0178 29.6051 33.025C29.3724 33.3006 29.3035 33.1777 28.9928 33.292C28.6832 33.4057 29.384 33.449 29.4543 33.5189C29.5245 33.5888 29.3344 33.7853 29.2709 33.8312C29.2075 33.8772 29.1209 33.799 29.0828 33.8421C28.8332 34.1282 29.4104 34.0238 29.5074 34.1417C29.7368 34.4211 29.1958 34.5442 29.1146 34.7606C29.0926 34.8194 29.2168 34.7861 29.2202 34.8417C29.2322 35.0626 29.0536 35.1668 29.1656 35.4302C29.1839 35.473 29.4642 35.7153 29.2182 35.8085C29.1827 35.8215 29.0623 35.7512 29.0199 35.8376C28.9565 35.9666 28.8909 36.2062 28.9105 36.3586C28.9252 36.4712 29.1556 36.3812 29.0685 36.5064C29.0297 36.562 28.9242 36.4308 28.8615 36.5367C28.799 36.6421 28.7575 36.9294 28.7434 37.0392C28.7296 37.1488 28.8993 37.116 28.9086 37.1265C28.9374 37.1614 28.963 37.2439 28.9796 37.3145C28.9933 37.3728 29.0009 37.423 28.9993 37.4313C28.8588 38.3678 28.4276 39.1787 28.3292 40.0951C28.321 40.1676 28.4981 40.1552 28.4985 40.1666C28.5174 40.4251 28.1135 40.1398 27.929 40.2775C28.2732 40.3249 28.1907 40.412 28.1911 40.5904C28.1915 40.6765 28.3323 40.6602 28.3441 40.6706C28.5168 40.836 28.2409 40.8647 28.1836 40.8747C27.9725 40.9123 28.1816 41.0502 28.0401 41.0759C27.8997 41.1015 27.7376 40.9342 27.7038 41.0961C27.8146 41.1687 28.158 41.1196 28.1815 41.2543C28.2709 41.7686 27.8112 42.5876 27.6906 42.9454C27.6133 43.1801 27.5804 43.3162 27.5414 43.4369C27.5186 43.5073 27.4937 43.5723 27.4562 43.6478C27.2721 44.0163 27.5429 43.9367 27.582 44.2077C27.6201 44.4789 27.0836 44.2004 26.9515 44.2003C26.8196 44.1993 26.9354 44.2709 26.856 44.2943C26.7765 44.3179 26.7199 44.2016 26.6659 44.2949C26.6122 44.3881 26.7495 44.7239 26.8663 44.7972C27.1141 44.9521 27.4346 44.9134 27.2555 45.1489C27.245 45.1623 27.1109 45.0681 27.0783 45.1216C26.8261 45.5424 26.6666 46.0178 26.4106 46.4407C26.3754 46.498 26.2305 46.3866 26.2082 46.4192C25.975 46.7556 26.2968 46.7171 26.5303 47.0298C26.1386 46.8428 25.8555 46.8546 25.7458 47.1458C25.6807 47.3168 25.8682 47.3528 25.9506 47.5107C25.9754 47.5584 25.8086 47.6325 25.8829 47.6858C26.1253 47.8616 26.4722 47.8663 26.2372 48.1115C26.2264 48.122 26.095 48.0232 26.0687 48.0635C25.8978 48.3212 26.1666 48.4659 26.0649 48.8013C26.0059 48.9958 25.7895 49.2444 25.6208 49.456C25.5639 49.5277 25.5131 49.5946 25.4711 49.6645C25.036 49.4508 25.0129 49.7529 25.2585 50.0068C25.1577 50.176 25.0772 50.3692 24.9488 50.5068C24.9048 50.554 24.8017 50.4501 24.7845 50.4497C24.5183 50.4396 24.7562 50.6788 24.746 50.7223C24.6091 51.2045 24.2342 51.3368 24.1524 51.8624C24.1505 51.8796 24.4056 52.1026 24.1358 52.0518C24.118 52.047 24.0831 51.8394 23.9487 51.9968C23.8197 52.148 23.4272 52.3387 23.3351 52.6498C23.3144 52.7249 23.3747 53.0485 23.1181 52.9887C23.0834 52.9806 23.0369 52.8929 22.9797 52.8714C22.8008 52.7995 22.9731 53.0993 22.7123 52.9361C22.4452 52.7751 22.2141 52.6851 22.0823 52.988C22.0792 52.9964 22.1294 53.2772 22.042 53.3136C21.9053 53.3713 21.7106 53.384 21.5681 53.4219C21.4993 53.4403 21.5694 53.5957 21.5579 53.6018C21.361 53.6881 21.177 53.7034 21 53.6829C20.7458 53.6525 20.5139 53.5788 20.2134 53.5189C20.1207 53.5006 19.8338 53.7042 19.6698 53.4997C19.4977 53.2752 19.7935 52.4911 19.3668 52.6185C19.336 52.6272 19.2974 52.6658 19.2519 52.7195C19.0505 52.967 18.7022 53.5311 18.551 53.0297C18.1285 53.0059 17.7793 52.7834 17.4243 52.6031C17.2454 52.5123 17.0526 52.4268 16.8391 52.38C16.8108 52.3738 16.5842 52.5794 16.5255 52.5392C16.44 52.4799 16.4658 52.3348 16.4112 52.2888C16.1912 52.0994 15.9202 52.0274 15.7073 51.8454C15.6962 51.8358 15.6853 51.826 15.6747 51.8159C15.5941 51.739 15.7141 51.6568 15.6213 51.5649C15.5297 51.4726 15.3406 51.5512 15.2726 51.3588C15.2226 51.2129 15.4081 50.8596 15.3295 50.7059C15.0468 50.95 14.973 50.8593 14.7578 50.7526C14.7164 50.7321 14.6441 50.8494 14.6192 50.8438C14.5146 50.8215 14.5524 50.6952 14.4479 50.6787C14.4225 50.6744 14.3202 50.7508 14.2933 50.7511C14.2125 50.7526 14.1709 50.7101 14.1531 50.6526C14.1188 50.5435 14.1719 50.3849 14.1844 50.3454C14.2599 50.1193 14.0863 50.1565 14.0908 50.0244C14.0964 49.8928 14.2617 49.9805 14.2332 49.8493C14.1768 49.5822 14.0025 49.3096 13.893 49.0715C13.8497 48.9791 13.7268 49.116 13.717 49.1045C13.6407 49.0039 13.6312 48.8659 13.5744 48.7786C13.5298 48.7088 13.4567 48.6632 13.3023 48.6702C14.0621 48.2061 13.1705 48.5784 13.2259 48.2173C13.2307 48.1881 13.6123 48.0226 13.7006 48.0887C13.7876 48.1511 13.7151 48.3266 13.8507 48.4076C13.8823 48.4274 14.3055 48.43 14.3359 48.4396C14.3386 48.4405 14.3412 48.4414 14.3437 48.4424C14.5583 48.5225 14.0201 48.8007 13.9935 48.8241C13.7082 49.084 14.1785 49.0876 14.2293 49.121C14.4594 49.2755 14.4876 49.4976 14.6778 49.6228C14.8003 49.7018 15.147 49.4889 15.1907 49.5768C15.2393 49.6721 15.2301 49.7738 15.2194 49.8756C15.1959 50.0917 15.1525 50.2932 15.5481 50.2438C15.6721 50.2268 15.9624 49.8869 15.8515 50.2874C15.8427 50.3112 15.7303 50.6602 15.9466 50.5904C15.9736 50.5814 16.0651 50.4898 16.0842 50.4936C16.2102 50.5198 16.191 50.6442 16.3109 50.6866C16.3953 50.7161 16.4989 50.7438 16.5757 50.7957C16.6077 50.8174 16.636 50.8439 16.6581 50.8778C16.7021 50.9467 16.6422 51.2034 16.6392 51.2742C16.6312 51.4796 16.8909 51.3196 16.8353 51.5294C16.7846 51.7435 16.4851 51.9241 16.5843 52.1473C16.771 51.8675 16.9691 51.5844 17.1574 51.3033C17.377 51.4502 17.5795 51.6184 17.8112 51.7556C17.9197 51.8203 18.0411 51.88 18.1608 51.9208C18.2074 51.9363 18.2252 51.7497 18.2759 51.7614C18.4904 51.8108 18.6321 51.9917 18.8731 52.0036C19.0404 52.0108 19.2396 51.8948 19.4173 51.8608C19.4372 51.8569 19.4579 51.8541 19.476 51.8524C19.5107 52.2512 19.8097 52.1666 20.0019 52.2215C20.0706 52.2411 20.0579 52.343 20.107 52.3815C20.2974 52.5229 20.2253 52.1749 20.2818 52.126C20.5248 51.9139 20.5093 52.685 20.8113 52.6737C20.8231 52.6735 20.9326 52.4533 21 52.3255C21.0183 52.2795 21.0316 52.2452 21.0366 52.2383C21.1516 52.0632 21.0604 52.3808 21.1388 52.4034C21.2761 52.4405 21.3965 52.5096 21.501 52.3388C21.5375 52.2865 21.5267 52.0073 21.6546 52.1586C21.6726 52.178 21.7196 52.3066 21.7301 52.3098C21.9307 52.3456 21.731 51.9643 21.7079 51.804C21.6758 51.6497 21.9481 51.8074 22.035 51.8442C22.2431 51.9549 22.0427 51.9609 22.0545 51.9779C22.1681 52.2151 22.2353 52.106 22.3298 52.0501C22.6163 52.3554 22.7143 52.2301 22.4191 51.9966C22.3869 51.9714 22.3572 52.0515 22.3298 52.0501C22.1214 51.6865 22.1716 51.5692 22.5764 51.697C22.7675 51.7531 22.865 51.9627 22.9976 51.6928C23.0517 51.5745 22.7983 51.4293 22.8023 51.3001C22.8032 51.0157 23.2196 50.8951 23.3249 50.6538C23.3621 50.5682 23.1812 50.5579 23.2017 50.4968C23.2545 50.3353 23.4343 50.2676 23.4721 50.0829C23.4752 50.0662 23.3132 50.0169 23.3388 49.9686C23.5304 49.5973 23.7773 49.353 23.9796 48.9404C24.0094 48.8792 24.034 48.8088 24.0591 48.7295C24.1179 48.5442 24.1748 48.3158 24.2486 48.1771C24.436 47.8227 24.8271 47.4894 24.8935 47.1496C24.9362 46.9312 24.7646 46.9181 24.6921 46.7911C24.5529 46.5413 25.0227 46.3841 25.0941 46.3621C25.0965 46.3617 25.0715 46.5485 25.1842 46.484C25.3696 46.4886 25.0942 46.3642 25.0941 46.3621C25.1403 46.3499 25.2976 46.009 25.2914 45.9268C25.2881 45.8827 25.1328 45.8545 25.1338 45.8325C25.1652 45.2988 25.2705 44.8302 25.4872 44.3554C25.4928 44.3476 25.6565 44.4102 25.6676 44.3912C25.8268 44.1257 25.6747 43.879 25.6165 43.6157C25.5592 43.3492 25.6501 43.1752 25.9774 43.1119C25.9791 43.0841 25.9848 43.0555 25.9936 43.0265C26.0448 42.8592 26.2018 42.6776 26.3009 42.5665C26.4163 42.4393 26.0916 42.3354 26.0884 42.321C25.9805 41.8661 26.2263 41.6782 26.3558 41.2573C26.419 41.0534 26.4596 40.6495 26.4712 40.4212C26.4798 40.242 26.5802 40.1542 26.5644 39.9832C26.5624 39.9601 26.4096 39.9506 26.4053 39.9428C26.2657 39.7269 26.6098 39.8889 26.6823 39.8655C26.9457 39.781 27.0891 39.7212 27.025 39.4693C27.0105 39.411 26.5189 39.1522 26.5073 39.0506C26.4932 38.9183 26.6713 39.0024 26.6517 38.8626C26.6501 38.8506 26.534 38.8303 26.5549 38.7506C26.6499 38.3808 26.7944 37.9794 26.8522 37.5873C26.8605 37.5337 26.6643 37.5694 26.6733 37.4915C26.6941 37.3111 26.7228 37.1232 26.7638 36.9384C26.8057 36.7488 26.8606 36.5623 26.9335 36.39C26.9694 36.3064 27.0898 36.3819 27.1312 36.3692C27.3823 36.2898 27.0711 36.0703 27.0689 36.0423C27.0086 35.3667 27.3865 34.9193 27.3311 34.2295C27.3275 34.1916 27.0011 33.8664 27.3284 33.7831C27.3502 33.7775 27.6848 33.6951 27.4804 33.5591C27.4676 33.5507 27.2938 33.6063 27.3272 33.4754C27.3605 33.3451 27.277 33.1168 27.4793 32.9528C27.5431 32.9013 27.8779 32.799 27.6436 32.5957C27.6274 32.5816 27.0827 32.2509 27.4892 32.1992C27.556 32.1909 27.9741 32.2519 27.7808 32.0221C27.7433 31.9783 27.6422 32.0399 27.5946 31.9301C27.5208 31.7644 27.6551 31.5598 27.4871 31.344C27.4573 31.3061 27.1862 31.1331 27.4134 31.0365C27.449 31.0213 27.586 31.0691 27.6074 31.0087C27.622 30.9677 27.6331 30.9262 27.6419 30.8843C27.6944 30.631 27.6589 30.37 27.7626 30.1187C27.8052 30.0141 28.028 30.0867 28.0975 29.9794C28.167 29.8719 28.242 29.6511 28.1462 29.5279C28.0504 29.405 27.6797 29.5059 27.6624 29.3318C27.5863 28.5874 27.8371 27.8411 27.8896 27.1006C27.8974 26.9886 27.7652 27.0775 27.767 26.9132C27.7749 26.3472 27.6648 25.3504 27.8857 24.8412C27.8947 24.8189 27.9042 24.7973 27.9143 24.7764C28.1229 24.3456 28.307 24.8753 28.387 24.5472C28.4249 24.3878 27.9963 24.2402 27.9814 24.2054C27.8309 23.8638 28.0027 23.6097 27.9201 23.2884C27.903 23.2241 27.7377 23.3017 27.725 23.2473C27.6799 23.0611 27.7383 22.8704 27.705 22.6972C27.6892 22.6154 27.5611 22.6455 27.5624 22.5702C27.5637 22.3911 27.5979 22.2358 27.6947 22.0594C27.7035 22.0429 27.8792 22.1166 27.8665 21.9945C27.8479 21.8118 27.914 21.5008 27.7451 21.3252C27.694 21.2713 27.4039 21.3386 27.5732 21.167C27.6074 21.1289 27.9636 21.0683 27.6208 20.992C27.5622 20.9691 27.0939 20.8725 27.3194 20.7169C27.3777 20.6705 27.6229 20.4951 27.565 20.4782C27.557 20.4781 27.4195 20.564 27.3966 20.5497C27.3166 20.4999 27.3808 20.5715 27.4819 20.6307C27.5131 20.6469 27.3728 20.7884 27.4318 20.8105C27.4766 20.8264 27.5234 20.8214 27.5435 20.8259C27.3924 20.7892 27.1699 20.7245 27.0206 20.6686C26.9352 20.6389 27.0159 20.51 27.012 20.4945C26.9397 20.241 26.817 20.5589 26.7904 20.5755C26.5788 20.67 26.3921 20.5012 26.1693 20.5284C26.1073 20.5355 26.1415 20.6944 26.1284 20.7076C25.9934 20.8364 26.1047 20.5612 26.0245 20.5256C25.7952 20.425 25.5187 20.4264 25.2851 20.4393C25.1959 20.4442 25.2904 20.6287 25.2104 20.631C24.7245 20.6482 24.2418 20.6255 23.7686 20.5246C23.6812 20.5053 23.7363 20.3656 23.7181 20.3336C23.6579 20.2269 23.5834 20.2407 23.5173 20.2874C23.4449 20.3386 23.3825 20.4293 23.3597 20.4445C23.1611 20.5779 23.0804 20.4549 22.9129 20.4795C22.0599 20.6017 21.0155 20.5448 20.2067 20.5203C19.7963 20.5081 19.431 20.4857 19.0631 20.4678C18.4928 20.4391 17.9386 20.4208 17.3272 20.4702C17.2635 20.4751 17.3365 20.6579 17.2817 20.6646C16.5693 20.7426 15.8705 20.7052 15.1582 20.7975C15.1 20.8047 15.1938 20.9762 15.1006 20.9937C14.9518 21.0227 14.7706 21.0315 14.6042 21.0125C14.5571 21.0071 14.5112 20.9996 14.4676 20.9896C14.3712 20.9678 14.49 20.8096 14.3931 20.7908C14.1673 20.7467 13.9268 20.7479 13.6998 20.7895C13.6032 20.8076 13.7606 20.979 13.6342 20.9885C12.7727 21.0569 11.9311 21.1403 11.0427 20.9641C10.9823 20.9519 10.9063 20.5896 10.785 20.668C10.7822 20.7701 10.7904 20.8895 10.7933 20.9982C10.5626 21.0241 10.3336 21.0438 10.1065 21.0592C9.08101 21.1286 8.0572 21.1125 7.024 21.1722C6.97103 21.1753 7.07661 21.3622 6.97425 21.3692C6.54169 21.3988 6.06801 21.4648 5.62984 21.4279C5.47979 21.4172 5.33049 21.3964 5.18125 21.3613C5.11996 21.3471 5.12359 21.0042 4.95279 21.0692C4.92402 21.0808 4.66419 21.1466 4.59377 21.2265C4.58502 21.2384 4.64742 21.3935 4.55938 21.405C4.06788 21.4676 3.52779 21.4739 3.01985 21.4172C2.93686 21.4078 3.01004 21.2315 2.951 21.2234C2.54831 21.1655 2.10961 21.3311 1.70713 21.2102C1.42129 21.13 1.49674 20.8291 1.34355 20.5521C1.34268 20.5113 1.13291 20.5227 1.13122 20.3541C1.07578 19.9346 1.10607 19.4674 1.03873 19.021C1.03274 18.924 0.835586 19.046 0.92192 18.8031C0.963061 18.7838 1.06072 18.6973 1.1254 18.612C1.15265 18.5545 1.08656 18.3885 1.13444 18.3138C1.1754 18.2397 1.24176 18.3779 1.33367 18.2871C1.42746 18.1952 1.37545 18.0043 1.54228 17.9673ZM26.8161 41.9855C27.0086 41.8847 26.4319 41.7245 26.5348 41.9075C26.5405 41.9165 26.8066 41.9907 26.8161 41.9855ZM17.5957 52.1882C17.5972 52.1982 17.5989 52.2076 17.6008 52.2164C17.6651 52.4824 17.9096 52.182 17.8795 51.9556C17.866 51.8361 17.7911 51.877 17.7196 51.9563C17.6521 52.0316 17.5888 52.1422 17.5957 52.1882ZM15.969 51.3771C15.9738 51.4322 15.9971 51.4543 16.0307 51.4545C16.1524 51.4553 16.3922 51.1631 16.3531 51.0649C16.3447 51.0439 16.3238 51.0315 16.2859 51.0312C16.2707 51.0311 15.9676 51.36 15.969 51.3771ZM1.98206 20.416C1.97814 20.4084 1.85393 20.4109 1.85284 20.4189C1.8027 20.6137 2.04995 20.6086 1.98206 20.416ZM14.5722 50.1388C14.5383 50.2105 14.6044 50.2692 14.677 50.2708C14.7257 50.2721 14.7769 50.2477 14.8038 50.1873C14.8056 50.1832 14.8072 50.1791 14.8084 50.1751C14.8431 50.0629 14.641 49.9963 14.5722 50.1388ZM28.8245 34.7268C28.8337 34.7258 28.8531 34.6436 28.8029 34.6384C28.6414 34.6221 28.6708 34.7439 28.8245 34.7268ZM13.2629 47.2138C13.3388 47.6687 12.7723 48.1853 12.6895 47.6177C12.6765 47.5154 12.9634 47.7731 12.9899 47.6306C13.0425 47.3843 12.5759 47.3342 12.7627 47.0384C12.7974 46.999 13.259 47.1917 13.264 47.2145C13.2636 47.2143 13.2633 47.214 13.2629 47.2138ZM27.534 42.0741C27.5423 42.0732 27.5768 41.9619 27.5698 41.9573C27.3998 41.8521 27.3304 42.0755 27.534 42.0741ZM29.7114 29.8909C29.7288 29.8855 29.7639 29.6158 29.7489 29.6062C29.4492 29.4441 29.3776 29.9863 29.7114 29.8909ZM25.4573 49.6633C25.5718 49.8666 25.52 50.022 25.2589 50.0064C25.3288 49.8965 25.3889 49.7787 25.4573 49.6633ZM46.0842 12.7936C46.2089 12.8494 46.2814 13.0071 46.3108 13.1496C46.3203 13.1941 46.2297 13.2526 46.2327 13.2866C46.2387 13.353 46.3099 13.3526 46.3094 13.4238C46.3089 13.4477 46.1722 13.5475 46.1745 13.5699C46.1864 13.6907 46.2842 13.7321 46.3273 13.8301C46.5386 14.3115 46.8252 14.71 47.1081 15.1269C47.199 15.2616 47.2285 15.5177 47.3922 15.5966C47.4115 15.6058 47.5117 15.4971 47.5232 15.4916C47.7001 15.4091 47.4681 15.5965 47.4653 15.6517C47.4556 15.8712 47.557 16.0015 47.7015 16.0748C47.7024 16.0752 47.7033 16.0756 47.7042 16.0759C47.7676 16.0981 47.9342 15.8622 47.8575 16.0183C47.8524 16.0291 47.7261 16.1231 47.7256 16.1472C47.7247 16.2017 47.7958 16.2379 47.8072 16.2687C47.8286 16.3286 47.8363 16.3347 47.8723 16.3767C47.9205 16.435 47.9234 16.5535 48.0037 16.5889C48.0212 16.5962 48.1244 16.4713 48.163 16.4731C48.2017 16.4751 48.24 16.5373 48.2289 16.5813C48.2177 16.6253 48.1173 16.7023 48.0989 16.725C47.9429 16.9161 48.2504 16.752 48.264 16.7545C48.5042 16.8071 48.4757 17.0625 48.5995 17.199C48.6932 17.3017 48.8449 17.3753 48.928 17.4811C49.0272 17.6083 49.0522 17.7668 49.1658 17.8719C49.1779 17.8835 49.3059 17.7434 49.321 17.7573C49.4814 17.9046 49.6072 18.0777 49.6509 18.32C49.6552 18.3444 49.5129 18.4335 49.5097 18.4644C49.4926 18.6509 49.3846 19.0238 49.978 18.607C50.0152 18.6923 50.0637 18.7922 50.0054 18.9468C49.9733 19.0319 49.8454 19.1038 49.871 19.1204C49.8754 19.1232 49.8841 19.1245 49.8983 19.1239C49.9204 19.1232 50.0278 19.0059 50.052 19.0127C50.1532 19.0411 50.18 19.1505 50.2995 19.1639C50.3241 19.1665 50.4281 19.0702 50.4508 19.0574C50.6353 18.9551 50.4234 19.2322 50.4147 19.2601C50.3516 19.4703 50.4625 19.4878 50.5299 19.5736C50.5455 19.5935 50.6706 19.4472 50.6908 19.4619C50.795 19.5418 50.8694 19.6544 50.8858 19.8042C50.8891 19.8379 50.749 19.9232 50.7443 19.9446C50.7247 20.0377 50.9666 19.8498 50.9523 19.9352C50.9496 19.953 50.8394 20.0375 50.8291 20.0489C50.6681 20.2289 50.9457 20.0325 50.957 20.0343C51.105 20.0512 50.8806 20.3339 50.9874 20.3832C51.0004 20.3889 51.1164 20.2541 51.1449 20.2771C51.3367 20.4304 51.4565 20.65 51.5006 20.9244C51.5073 20.9665 51.3889 21.0301 51.3778 21.0422C51.2056 21.2325 51.4837 21.0351 51.5012 21.0362C51.6324 21.0506 51.4669 21.2988 51.8209 21.0917C51.9365 21.4117 52.2329 21.5813 52.3268 21.9147C52.35 21.9968 52.3605 22.0885 52.3525 22.1941C52.3523 22.2006 52.2153 22.2975 52.2155 22.31C52.2159 22.4625 52.406 22.283 52.7057 22.1487C52.781 22.1151 52.5162 22.4006 52.4974 22.4224C52.4279 22.5021 52.219 22.6397 52.2073 22.6574C52.1166 22.7978 52.7603 22.2825 52.8064 22.341C52.8067 22.3437 52.6811 22.4294 52.6731 22.4436C52.6476 22.488 52.7069 22.466 52.6774 22.513C52.6087 22.6215 52.3018 22.8795 52.5261 22.7881C52.5551 22.7761 52.9166 22.4791 52.9396 22.5449C52.9485 22.5713 53.026 22.6583 53.0218 22.7026C53.0176 22.7467 52.8846 22.8211 52.8809 22.8269C52.7761 23.0174 52.6907 23.0419 52.4834 23.2564C52.277 23.4701 52.8256 23.0335 52.8986 23.0001C52.9715 22.967 52.8802 23.1181 52.8443 23.1653C52.8085 23.2126 52.7205 23.2552 52.7033 23.286C52.5915 23.4879 53.0046 23.1071 53.1116 23.064C53.3652 22.962 52.9856 23.3218 52.9846 23.4047C52.9844 23.4272 53.07 23.3441 53.0884 23.3501C53.1602 23.3748 53.0532 23.5022 53.2152 23.4701C53.2416 23.4649 53.5266 23.3237 53.3659 23.4917C53.3426 23.5158 53.23 23.5815 53.2229 23.6205C53.2123 23.6788 53.2329 23.7536 53.2934 23.7622C53.3381 23.7685 53.4873 23.6116 53.4582 23.6834C53.4451 23.7154 53.3252 23.7636 53.309 23.8174C53.2926 23.8711 53.3476 23.9358 53.3702 23.9591C53.3929 23.9824 53.5125 23.8718 53.5228 23.8674C53.5824 23.8428 53.6821 23.8462 53.6852 23.8507C53.8672 24.0638 53.7959 24.4292 54.0268 24.5954C54.0447 24.6086 54.1751 24.4975 54.1793 24.4985C54.2798 24.5157 53.8777 24.7342 53.7837 24.8638C54.0609 24.6558 54.0274 24.7166 54.0879 24.7359C54.1173 24.7451 54.2187 24.6561 54.2312 24.65C54.4182 24.5611 54.2188 24.7349 54.1788 24.7715C54.0315 24.9061 54.2373 24.7916 54.139 24.8818C54.0414 24.9713 53.8609 25.0537 53.8911 25.0918C54.0001 25.0311 54.2432 24.8136 54.3076 24.8134C54.4076 24.8129 54.4572 24.8741 54.4837 24.9537C54.5216 25.0675 54.512 25.2183 54.5371 25.2815C54.5798 25.3888 54.6192 25.4055 54.6198 25.4849C54.6205 25.6283 54.7935 25.4558 54.9261 25.4539C55.0587 25.4524 54.551 25.7585 54.4522 25.8394C54.3533 25.92 54.4676 25.855 54.4173 25.9053C54.3669 25.9554 54.28 25.9816 54.2754 26.0212C54.2708 26.0608 54.5038 26.0006 54.6197 25.9344C54.865 25.794 55.088 25.5961 55.0476 25.7212C55.0452 25.7285 54.9082 25.8039 54.9052 25.8274C54.8854 26.0108 54.9609 26.1354 54.9511 26.3106C54.9495 26.3348 54.7963 26.4172 54.7937 26.4323C54.7666 26.5904 54.9857 26.3932 55.2908 26.266C54.9242 26.4942 54.7245 26.6703 54.7711 26.7447C54.799 26.7896 54.9509 26.6776 55.0804 26.6326C55.1195 26.619 55.0324 26.7218 55.11 26.6785C55.3638 26.537 55.6144 26.3281 55.5574 26.4758C55.5545 26.4826 55.4152 26.5595 55.4149 26.5763C55.4118 26.6856 55.6706 26.5276 55.7548 26.5888C55.8208 26.6368 55.7407 26.8518 55.7626 26.9405C55.3552 27.2038 55.4923 27.2109 55.791 27.0567C55.81 27.1112 55.8588 27.1518 55.8494 27.2225C55.8462 27.2467 55.7216 27.3125 55.7101 27.3227C55.5295 27.482 55.8162 27.3262 55.8335 27.3295C56.009 27.3732 55.8589 27.5962 56.1291 27.5719C56.1388 27.5709 56.427 27.3963 56.2374 27.5565C56.2242 27.5674 56.0726 27.6148 56.0942 27.6708C56.1157 27.7269 56.0223 27.917 56.198 27.9031C56.2403 27.8997 56.4987 27.7968 56.3392 27.9447C56.3175 27.9647 56.2325 28.0111 56.191 28.0462C56.0592 28.1585 56.3549 27.989 56.1252 28.1674C55.9412 28.3101 55.8072 28.4449 55.8702 28.4742C55.8859 28.4815 55.9138 28.4822 55.9561 28.475C55.9624 28.4742 56.2018 28.3479 56.2118 28.3721C56.2276 28.4109 56.2107 28.4902 56.2349 28.526C56.2466 28.543 56.3821 28.4435 56.3866 28.445C56.5398 28.5141 56.4648 28.6771 56.4865 28.8368C56.4902 28.8662 56.7261 28.8139 56.5993 28.9531C56.4604 29.1054 55.7267 29.4827 55.9628 29.4936C56.0571 29.4979 56.9862 29.0165 56.5727 29.3781C56.7834 29.4679 56.6346 29.7581 56.8952 29.8219C56.9068 29.8248 57.171 29.699 57.1776 29.7178C57.187 29.7463 57.0781 29.8296 57.081 29.8521C57.0904 29.9483 57.2316 29.9581 57.2591 30.0405C57.2698 30.0717 57.1428 30.1335 57.1555 30.1706C57.1683 30.2076 57.3412 30.1358 57.2905 30.2263C57.2516 30.2949 56.9447 30.5208 56.9329 30.5881C57.2565 30.4009 57.2678 30.4354 57.3849 30.4402C57.4076 30.441 57.5134 30.3642 57.5299 30.3612C57.5996 30.3476 57.5174 30.4208 57.5917 30.4033C57.6096 30.3991 57.7201 30.335 57.7409 30.328C57.9224 30.2661 57.7057 30.4646 57.6678 30.4989C57.5242 30.6299 57.6774 30.563 57.6286 30.6279C57.5798 30.6927 57.4753 30.6988 57.4545 30.7534C57.4115 30.8663 57.4785 30.941 57.5123 31.0113C57.5261 31.0385 57.6634 30.9353 57.6688 30.9372C57.7378 30.9704 57.6126 31.1162 57.9244 30.9776C57.1853 31.4531 58.0173 30.9683 57.9103 31.1349C57.9015 31.1482 57.5459 31.3625 57.4794 31.369C57.413 31.3755 57.5048 31.2749 57.4035 31.2893C57.3797 31.2925 57.017 31.442 56.9931 31.4477C56.8063 31.4923 57.3399 31.176 57.368 31.1564C57.6702 30.9446 57.2755 31.0989 57.242 31.0989C57.0888 31.0989 57.1318 30.9991 57.018 30.9916C56.9441 30.9863 56.5908 31.1868 56.5852 31.1525C56.5667 31.0389 57.0372 30.7206 56.5617 30.881C56.4603 30.9151 56.0879 31.158 56.3501 30.9147C56.3667 30.8994 56.6127 30.6873 56.4213 30.7605C56.3972 30.7697 56.2856 30.8353 56.2734 30.836C56.1939 30.8395 56.2702 30.7658 56.2071 30.7559C56.1439 30.7459 56.0558 30.7414 56.0702 30.6795C56.0787 30.6422 56.2682 30.4889 56.3122 30.4473C56.4394 30.3283 56.179 30.4358 56.3443 30.3109C56.5103 30.1851 56.8042 30.0644 56.8877 29.9429C56.5973 30.1126 56.2979 30.2842 56.0053 30.4537C55.9469 30.3323 55.9713 30.161 55.8891 30.0528C55.8786 30.0395 55.7324 30.1472 55.7172 30.1355C55.6536 30.0854 55.73 29.9624 55.6457 29.9221C55.5801 29.8915 55.3812 29.9326 55.3071 29.9035C55.6159 29.6706 55.455 29.6575 55.4494 29.5809C55.4473 29.5541 55.5358 29.5019 55.5555 29.4699C55.6277 29.3502 55.3534 29.5534 55.2986 29.5663C55.0646 29.6215 55.7173 29.2136 55.6542 29.1474C55.6512 29.1439 55.2712 29.3092 55.2454 29.316C55.0769 29.3602 55.3625 29.2339 55.3716 29.1909C55.3882 29.1124 55.4502 29.0264 55.3122 29.0319C55.2715 29.0337 55.0293 29.1284 55.177 28.9914C55.1963 28.9735 55.3129 28.9042 55.3175 28.8965C55.3504 28.8371 55.2957 28.8493 55.2124 28.8845C55.1097 28.9278 54.9636 29.0061 54.8838 29.0288C54.7394 29.0698 54.9546 28.8593 55.0193 28.803C55.1866 28.657 55.1128 28.7757 55.1319 28.7657C55.3606 28.6484 55.2983 28.6319 55.297 28.5893C55.6481 28.3627 55.5995 28.3325 55.2945 28.5462C55.2612 28.5696 55.3093 28.5729 55.297 28.5893C54.9328 28.78 54.859 28.7612 55.1501 28.5047C55.2865 28.3844 55.4781 28.2958 55.3663 28.2622C55.3157 28.247 55.0809 28.4138 54.9959 28.4262C54.802 28.4545 54.9728 28.223 54.8928 28.1763C54.8636 28.1593 54.7467 28.2687 54.7223 28.26C54.657 28.2373 54.7306 28.1331 54.6502 28.12C54.6427 28.1189 54.5106 28.2181 54.4997 28.205C54.4143 28.1077 54.4424 27.9568 54.372 27.8433C54.3379 27.7885 54.1984 27.7412 54.177 27.6754C54.1392 27.5617 54.2603 27.3103 54.1568 27.2599C54.0899 27.2266 53.9605 27.3298 53.8517 27.3691C53.6411 27.4457 53.9129 27.1506 53.9559 27.1062C53.9573 27.1048 54.0206 27.1294 54.0744 27.0576C54.2112 26.9451 53.9568 27.1063 53.9559 27.1062C53.9836 27.0775 53.9526 26.9643 53.9141 26.9636C53.8931 26.9632 53.7673 27.0561 53.7589 27.0543C53.5601 27.0094 53.4443 26.9097 53.4198 26.7446C53.4209 26.7406 53.5673 26.6452 53.5681 26.6371C53.5828 26.5212 53.375 26.5961 53.2299 26.6093C53.0849 26.6225 53.0877 26.552 53.3098 26.346C53.248 26.3231 53.3124 26.1837 53.3526 26.1008C53.3929 26.0179 53.1106 26.2078 53.1029 26.2084C52.9222 26.2254 52.9378 26.139 52.9397 26.0435C52.9403 26.0088 52.9392 25.9729 52.9262 25.9404C52.9034 25.8823 52.7939 25.8135 52.7256 25.7819C52.6712 25.7573 52.7179 25.6856 52.6487 25.6766C52.6394 25.6753 52.5202 25.7689 52.5143 25.7707C52.3362 25.8333 52.6517 25.638 52.699 25.5905C52.871 25.4178 52.9603 25.3227 52.8284 25.3332C52.7981 25.3355 52.3392 25.6104 52.2974 25.6059C52.2437 25.5992 52.4065 25.4983 52.3463 25.4941C52.3413 25.4937 52.2463 25.5635 52.2365 25.5411C52.1896 25.4382 52.1734 25.2997 52.0952 25.2133C52.0848 25.2012 51.9463 25.3283 51.9289 25.3128C51.8473 25.2392 51.7839 25.142 51.7919 25.0062C51.7944 24.9724 51.909 24.9071 51.9368 24.8795C52.1049 24.7114 51.8019 24.8767 51.7919 24.8743C51.5462 24.8198 51.7047 24.5163 51.4699 24.4506C51.4565 24.4473 51.116 24.6047 51.3436 24.3852C51.3587 24.3706 51.5921 24.1466 51.3981 24.2547C51.386 24.2615 51.2683 24.3799 51.2578 24.3385C51.2472 24.297 51.1212 24.3142 51.2322 24.1604C51.2673 24.1122 51.4967 23.8845 51.2633 24.0004C51.247 24.0085 50.7423 24.3005 51.0404 24.0343C51.0895 23.9905 51.4259 23.7357 51.2176 23.8202C51.1773 23.8367 51.1159 23.9111 51.0508 23.923C50.9506 23.9417 51.0015 23.8231 50.8177 23.8932C50.7853 23.9057 50.5334 24.0485 50.6834 23.8875C50.7069 23.8622 50.8241 23.7835 50.8253 23.7594C50.8312 23.6443 50.7023 23.6329 50.7246 23.5039C50.7323 23.4584 50.9208 23.3296 50.9485 23.2663C50.9763 23.2031 50.9815 23.1152 50.8788 23.1532C50.7761 23.1912 50.515 23.446 50.4607 23.4244C50.4537 23.4216 50.447 23.4186 50.4404 23.4155C50.225 23.3109 50.2529 23.0239 50.1404 22.8369C50.1233 22.8085 50.0395 22.9114 50.0072 22.8754C49.8869 22.7422 49.6017 22.5862 49.7149 22.2901C49.8059 22.0531 50.0357 22.0672 50.0442 21.9362C50.0476 21.873 49.6909 22.1038 49.6739 22.1041C49.502 22.1082 49.5982 21.9315 49.492 21.8938C49.47 21.8861 49.3513 22.0107 49.3341 22.0029C49.2741 21.9774 49.2934 21.8815 49.2468 21.8476C49.2256 21.8327 49.1285 21.9202 49.1214 21.896C49.1034 21.8394 49.1133 21.7659 49.1729 21.6467C49.1784 21.6358 49.3237 21.5561 49.3023 21.5213C49.2674 21.4655 49.3071 21.3253 49.163 21.3481C49.1198 21.3552 48.8916 21.5476 49.0176 21.3774C49.0439 21.3419 49.3256 21.1198 49.0529 21.2772C49.0075 21.3032 48.6279 21.5017 48.8027 21.2916C48.8486 21.2363 49.0514 21.0219 48.9985 21.031C48.9905 21.033 48.8782 21.1484 48.8516 21.1413C48.7594 21.1139 48.7203 21.0419 48.6293 21.013C48.6048 21.0056 48.4998 21.138 48.4674 21.1235C48.3782 21.084 48.338 20.9726 48.3203 20.8726C48.314 20.8355 48.4325 20.7625 48.4423 20.7509C48.6018 20.5633 48.3386 20.7611 48.316 20.7642C48.1784 20.7804 48.2553 20.6337 48.1788 20.6077C48.1578 20.6001 48.0487 20.7133 48.0356 20.7195C48.0318 20.7212 48.0283 20.7228 48.0251 20.7241C47.9196 20.7693 48.1383 20.6156 48.1448 20.5772C48.1642 20.4657 48.1021 20.4136 48.039 20.3718C48.0157 20.3566 47.8987 20.4987 47.8794 20.4837C47.7628 20.3977 47.676 20.2725 47.6604 20.1033C47.6577 20.0712 47.7734 19.991 47.7938 19.9658C47.9368 19.7902 47.672 19.9506 47.6419 19.9604C47.5046 20.0051 47.5825 19.9066 47.5316 19.8837C47.2805 19.7731 47.1366 19.4884 47.0187 19.2809C46.8612 19.0075 46.8014 18.7426 46.5795 18.5491C46.5655 18.5366 46.4403 18.6754 46.4265 18.6663C46.2536 18.5423 46.1686 18.341 45.9909 18.2262C45.9765 18.2164 45.8628 18.3534 45.8353 18.3417C45.7778 18.3186 45.737 18.2598 45.7402 18.1799C45.7414 18.1411 45.8781 18.0664 45.8771 18.0294C45.875 17.9431 45.8368 17.8829 45.7704 17.8524C45.7702 17.8523 45.7701 17.8523 45.7699 17.8522C45.7407 17.8413 45.6382 17.9934 45.6116 17.9675C45.4281 17.7942 45.2416 17.6379 45.2382 17.2905C45.238 17.2667 45.4964 17.0063 45.4193 17.0265C45.3428 17.0936 45.2551 17.175 45.1746 17.248C44.8841 17.0208 44.7298 16.6689 44.4917 16.3858C44.4818 16.3741 44.3581 16.5262 44.3382 16.5042C44.223 16.3769 44.0688 16.2912 44.0867 16.0286C44.0883 16.0027 44.3434 15.7753 44.2698 15.7725C44.2566 15.7722 44.1691 15.7457 44.101 15.7816C44.0909 15.7873 43.9848 15.9071 43.9639 15.8917C43.8447 15.8005 43.7688 15.667 43.7388 15.4934C43.7342 15.4653 43.8749 15.3669 43.8727 15.3458C43.8563 15.1973 43.6728 15.1912 43.7053 15.0013C43.7274 14.8738 43.9601 14.6926 44.1414 14.4639C44.1669 14.4316 44.1385 14.3922 44.2587 14.2746C44.5609 13.979 44.9129 13.6775 45.2331 13.3604C45.3022 13.2921 45.1816 13.3169 45.3782 13.1834C45.3915 13.1745 45.4803 13.1551 45.546 13.1088C45.5915 13.0768 45.7055 12.9486 45.768 12.9121C45.8304 12.8756 45.7388 12.9874 45.8176 12.9503C45.8971 12.9124 46.0301 12.7699 46.0842 12.7936ZM53.5308 25.7284C53.6402 25.6001 53.1477 25.9397 53.2906 25.8941C53.2981 25.8915 53.5254 25.7348 53.5308 25.7284ZM56.3592 29.9306C56.5573 29.7479 56.2052 29.915 56.0502 30.0528C55.8953 30.1904 56.2991 29.986 56.3592 29.9306ZM56.8156 30.3223C56.962 30.1611 56.2264 30.5836 56.4089 30.5555C56.4193 30.554 56.8071 30.3316 56.8156 30.3223ZM44.3324 14.5458C44.3378 14.5399 44.3198 14.5096 44.3135 14.5145C44.163 14.6318 44.1991 14.6923 44.3324 14.5458ZM57.283 30.7056C57.3721 30.6305 57.2285 30.6472 57.1177 30.7405C57.0286 30.8156 57.1722 30.7989 57.283 30.7056ZM52.753 23.5826C52.7597 23.5767 52.7514 23.5524 52.7115 23.5832C52.5833 23.6826 52.6402 23.6819 52.753 23.5826ZM57.7734 31.5379C57.7301 31.3975 58.295 30.9739 58.3041 31.1493C58.3058 31.181 58.0798 31.207 58.0428 31.2697C57.9756 31.384 58.3796 31.2043 58.2083 31.38C58.1768 31.4119 57.7745 31.5466 57.7724 31.5381C57.7727 31.538 57.7731 31.538 57.7734 31.5379ZM54.1043 25.295C54.1103 25.2897 54.0969 25.2576 54.09 25.2615C53.9242 25.356 53.9511 25.4205 54.1043 25.295ZM52.1676 22.224C52.1797 22.2121 52.1428 22.1403 52.129 22.1479C51.8603 22.3088 51.9337 22.4541 52.1676 22.224ZM55.7525 26.9487C55.9329 26.8756 55.9762 26.901 55.7911 27.0564C55.7816 27.0185 55.7629 26.9862 55.7525 26.9487Z" fill="black"/>
</svg>
