<svg width="52" height="56" viewBox="0 0 52 56" fill="none" xmlns="http://www.w3.org/2000/svg">
<path d="M5.71655 4.27855C5.73234 4.61476 5.63037 5.0432 5.51938 5.36626C5.48483 5.46753 5.38495 5.40386 5.35637 5.47331C5.30064 5.60893 5.33879 5.74384 5.27557 5.87673C5.25411 5.9207 5.09301 5.8464 5.07433 5.89292C4.97317 6.14803 4.99009 6.40137 4.9274 6.66458C4.6184 7.96097 4.43105 9.24841 4.2343 10.5733C4.2172 10.6888 4.1907 10.8101 4.16148 10.9346C4.0801 11.2813 3.97766 11.653 3.99772 11.9913C4.00106 12.0449 4.15064 12.026 4.16187 12.0371C4.33358 12.2111 4.04162 12.133 3.99339 12.2329C3.8028 12.6291 3.75113 13.0843 3.77558 13.4842C3.78643 13.6542 4.09195 13.5095 3.91442 13.6652C3.9024 13.6761 3.74984 13.6208 3.72946 13.6655C3.68354 13.767 3.69549 13.9673 3.67668 14.0472C3.63962 14.2012 3.63915 14.2271 3.62572 14.3743C3.60605 14.5753 3.50978 14.8091 3.52846 15.0291C3.53291 15.076 3.6976 15.027 3.71917 15.1029C3.74067 15.1789 3.71225 15.3731 3.66958 15.4361C3.62687 15.4991 3.50323 15.4616 3.47352 15.471C3.22295 15.5487 3.54309 15.7997 3.5493 15.8293C3.65213 16.3678 3.42754 16.8084 3.39347 17.307C3.37273 17.6157 3.39313 17.944 3.38385 18.2482C3.38175 18.3166 3.37822 18.3829 3.37228 18.4493C3.33321 18.8786 3.22346 19.2365 3.21299 19.6524C3.21171 19.6963 3.40315 19.6565 3.40197 19.7101C3.38961 20.2739 3.33581 20.8483 3.17797 21.4049C3.16196 21.4609 3.00054 21.3788 2.97466 21.4343C2.81983 21.7717 2.46469 22.3094 3.17479 22.5532C3.13485 22.7882 3.09202 23.0726 2.93701 23.2758C2.83723 23.4069 2.66307 23.267 2.7323 23.437C2.74771 23.4752 2.90781 23.4338 2.919 23.4906C2.96605 23.7272 2.90302 23.9896 2.97456 24.2289C2.98948 24.2777 3.13151 24.2705 3.15641 24.2852C3.35786 24.4082 3.00896 24.5837 2.9825 24.6242C2.78487 24.9315 2.84873 25.1636 2.83344 25.4541C2.82983 25.5216 3.02285 25.4485 3.02618 25.5142C3.02722 25.5386 3.02804 25.5629 3.02864 25.5873C3.03648 25.9082 3.00574 26.2342 2.91762 26.54C2.89608 26.6132 2.73627 26.5403 2.71769 26.575C2.63778 26.7282 2.9426 26.7719 2.87209 26.9183C2.85762 26.9492 2.7195 26.9275 2.70411 26.9328C2.46245 27.0151 2.79891 27.1025 2.80573 27.1255C2.89959 27.4219 2.54097 27.6031 2.58406 27.8881C2.58959 27.9221 2.76689 27.8499 2.77169 27.9454C2.80489 28.5761 2.74409 29.2495 2.59591 29.8752C2.57312 29.9721 2.44215 29.9011 2.42583 29.907C2.17068 30.0038 2.51019 30.0722 2.52265 30.1038C2.61212 30.352 2.32486 30.5852 2.72895 30.7615C2.62836 31.4913 2.70378 32.1997 2.65374 32.9266C2.63029 33.2633 2.57906 33.5906 2.46956 33.9385C2.46561 33.9521 2.29762 33.9309 2.29045 33.9581C2.20268 34.2844 2.46194 34.217 2.78509 34.4218C2.86623 34.4731 2.48576 34.6439 2.45798 34.659C2.35546 34.7137 2.10487 34.666 2.0852 34.684C1.93106 34.8327 2.75453 34.7876 2.76021 34.9796C2.75901 34.9857 2.6066 34.9648 2.59198 34.9814C2.54612 35.0347 2.60793 35.085 2.55726 35.1374C2.44002 35.2575 2.04087 35.3125 2.27984 35.482C2.31087 35.5032 2.777 35.4538 2.7611 35.6299C2.75426 35.7005 2.77399 36.0072 2.74737 36.0932C2.72064 36.1796 2.56765 36.1274 2.56138 36.1337C2.37197 36.3718 2.28578 36.2876 1.99611 36.4166C1.70791 36.5504 2.40673 36.485 2.48712 36.5301C2.56725 36.5752 2.41135 36.7565 2.35643 36.8019C2.30144 36.8472 2.20315 36.799 2.17272 36.8384C1.97432 37.0997 2.52582 36.9303 2.64117 37.0064C2.91436 37.1842 2.40362 37.3607 2.36311 37.5377C2.35219 37.5854 2.46809 37.5401 2.48165 37.581C2.53354 37.7377 2.37877 37.8612 2.54003 38.0428C2.56634 38.0733 2.8888 38.2068 2.66723 38.3226C2.63527 38.3391 2.50313 38.3082 2.47938 38.3819C2.44366 38.492 2.42997 38.6852 2.4822 38.7942C2.52081 38.8747 2.72593 38.7626 2.66826 38.872C2.64252 38.9206 2.51104 38.8451 2.4731 38.9357C2.43506 39.0263 2.46082 39.2613 2.47302 39.3469C2.4853 39.4336 2.64224 39.3712 2.65374 39.3773C2.71978 39.4144 2.81295 39.5718 2.8142 39.586C2.84177 39.8108 2.8416 40.0181 2.83603 40.2414C2.82516 40.7599 2.76849 41.2079 2.90853 41.7172C2.92375 41.7718 3.08693 41.709 3.091 41.7171C3.19076 41.8945 2.71904 41.8153 2.5897 41.9715C2.92898 41.8982 2.87912 41.9862 2.93812 42.1101C2.96684 42.1695 3.09353 42.1133 3.10803 42.1168C3.32418 42.174 3.07589 42.2825 3.02624 42.3114C2.84251 42.4111 3.08557 42.4408 2.96319 42.5079C2.84193 42.5754 2.63167 42.5086 2.65825 42.6399C2.78694 42.6537 3.08798 42.499 3.15774 42.5872C3.41487 42.9023 3.31788 43.6385 3.36847 43.9178C3.41837 44.2071 3.47177 44.3021 3.478 44.4747C3.49411 44.7895 3.68528 44.5989 3.85226 44.7453C4.02067 44.887 3.43449 45.0055 3.32477 45.0762C3.21576 45.1477 3.34929 45.1308 3.29666 45.1886C3.24433 45.247 3.13566 45.206 3.14173 45.2941C3.14825 45.3856 3.44329 45.5015 3.57508 45.4682C3.85675 45.4064 4.08587 45.1996 4.07816 45.4278C4.07778 45.4412 3.92074 45.4738 3.92648 45.5218C3.97401 45.8914 4.15266 46.2069 4.32209 46.53C4.34747 46.5763 4.20479 46.6787 4.21999 46.7084C4.39592 47.0131 4.48633 46.6964 4.75917 46.4977C4.52797 46.8495 4.47955 47.1509 4.71451 47.2555C4.71874 47.2573 4.7229 47.259 4.7272 47.2606C4.87908 47.3151 4.91514 47.1266 5.04132 47.0217C5.07693 46.9897 5.14205 47.1328 5.17873 47.0475C5.28723 46.7663 5.28555 46.4483 5.4138 46.574C5.42074 46.5798 5.38743 46.7397 5.41285 46.7481C5.59326 46.7947 5.55832 46.4882 5.66124 46.4098C5.74828 46.3506 6.06955 46.3539 6.23661 46.2222C6.5734 46.5741 6.65373 46.3268 6.4441 46.0506C6.51662 45.9794 6.57682 45.8835 6.65509 45.8012C6.67635 45.7789 6.69951 45.7568 6.7238 45.7379C6.76161 45.709 6.8631 45.8103 6.87887 45.814C7.12914 45.866 6.88736 45.6371 6.89134 45.606C6.95741 45.2548 7.29779 45.1223 7.21315 44.7232C7.21004 44.7087 6.90889 44.5573 7.16824 44.5776C7.18621 44.5787 7.28408 44.739 7.35577 44.6025C7.42971 44.4611 7.70271 44.2638 7.63157 44.0014C7.61508 43.9372 7.40104 43.7236 7.63617 43.6966C7.66814 43.6929 7.75457 43.7388 7.81202 43.737C7.95376 43.7316 7.80049 43.6445 7.86097 43.614C7.87881 43.6049 7.91525 43.6006 7.9834 43.6043C8.28204 43.6228 8.5434 43.5209 8.41624 43.2525C8.4128 43.2439 8.16965 43.1157 8.19343 43.0506C8.23163 42.9472 8.33041 42.8072 8.35929 42.6966C8.37314 42.6432 8.20216 42.6324 8.20177 42.6224C8.20899 42.2424 8.4195 42.0227 8.57531 41.6493C8.60452 41.5797 8.42922 41.3243 8.63604 41.2265C8.68595 41.2026 8.76204 41.2 8.84922 41.2064C9.15823 41.2288 9.60737 41.365 9.518 41.0528C9.47256 40.8894 8.48711 40.5016 9.06773 40.3536C9.03371 39.8328 9.38878 39.4202 9.28246 38.8889C9.27773 38.8654 9.00183 38.7473 9.01431 38.6948C9.02278 38.6604 9.05527 38.637 9.09038 38.6168C9.13443 38.5915 9.18261 38.5713 9.19248 38.5409C9.27009 38.3127 9.18708 38.0829 9.23841 37.8569C9.2574 37.7721 9.39246 37.8221 9.41491 37.7212C9.43719 37.6199 9.26274 37.5295 9.37118 37.399C9.45341 37.3024 9.84338 37.2473 9.90554 37.1143C9.53575 37.0586 9.55536 36.9704 9.48009 36.7812C9.46533 36.7456 9.33172 36.7646 9.31807 36.747C9.25966 36.6749 9.37401 36.63 9.30898 36.5616C9.29339 36.5449 9.16677 36.5285 9.14686 36.5141C8.97268 36.3916 9.27734 36.2644 9.33084 36.2379C9.48579 36.1692 9.4283 36.1115 9.43109 36.0546C9.43194 36.0373 9.43833 36.0201 9.45787 36.0027C9.54176 35.9282 9.62026 36.0632 9.67654 35.9713C9.79257 35.785 9.8026 35.5054 9.82911 35.3079C9.8397 35.2217 9.66403 35.2629 9.66161 35.2502C9.63745 35.0654 9.83342 34.9264 9.50548 34.7916C10.3909 34.7542 9.43167 34.6729 9.6283 34.4557C9.64443 34.4355 10.06 34.4498 10.1137 34.5309C10.1679 34.6058 10.0284 34.7035 10.1125 34.8202C10.132 34.8502 10.5053 35.0285 10.527 35.0477C10.6955 35.2132 10.0758 35.1739 10.0412 35.1777C9.6661 35.2321 10.0645 35.4493 10.0888 35.4936C10.1993 35.707 10.0909 35.8909 10.1663 36.0629C10.1803 36.0974 10.2242 36.1269 10.2789 36.1536C10.4122 36.2187 10.6096 36.2664 10.5933 36.3295C10.516 36.629 9.94244 36.6477 10.3932 36.9962C10.4893 37.0702 10.9373 37.07 10.5633 37.2357C10.5397 37.2462 10.202 37.3614 10.3894 37.4815C10.4131 37.4966 10.5414 37.5138 10.55 37.5307C10.6055 37.6436 10.4934 37.7008 10.5269 37.816C10.5602 37.933 10.6136 38.0777 10.5511 38.1999C10.5137 38.2734 10.26 38.3383 10.1963 38.3641C10.0127 38.4401 10.2711 38.5931 10.0576 38.6252C9.843 38.6571 9.55229 38.4833 9.39369 38.6297C9.72476 38.6888 10.0633 38.7575 10.3956 38.8211C10.3953 38.8226 10.395 38.824 10.3947 38.8255C10.3228 39.1951 10.1544 39.5416 10.1014 39.9144C10.0951 39.961 10.2815 39.9463 10.2793 39.9972C10.2689 40.2122 10.1073 40.3724 10.1148 40.5988C10.1211 40.7746 10.2708 40.998 10.2802 41.1857C10.0352 41.2033 9.9676 41.318 9.93362 41.4465C9.91223 41.5274 9.90424 41.6137 9.87426 41.6838C9.84722 41.7474 9.74813 41.7197 9.70449 41.7595C9.54212 41.9095 9.89256 41.9038 9.93308 41.9653C10.1045 42.2303 9.3524 42.0672 9.3102 42.313C9.30809 42.3249 9.66402 42.5881 9.68266 42.6172C9.80669 42.8007 9.53847 42.6043 9.48599 42.6843C9.38961 42.8307 9.26615 42.9111 9.32832 43.1317C9.34704 43.196 9.55382 43.4012 9.33226 43.4511C9.30326 43.4576 9.17572 43.4109 9.16476 43.4198C8.97709 43.5824 9.38304 43.7101 9.48255 43.8742C9.54617 43.9793 9.42893 44.0562 9.31238 44.0983C9.24707 44.1221 9.18197 44.1353 9.1487 44.1386C8.90879 44.1631 9.08465 44.0358 9.06587 44.0235C9.05648 44.0175 9.04748 44.012 9.03885 44.007C8.98188 43.9741 8.94114 43.9624 8.91079 43.9643C8.8368 43.969 8.82443 44.0548 8.78761 44.1163C8.38788 43.9945 8.36534 44.1343 8.73292 44.2101C8.77325 44.218 8.76288 44.1296 8.78761 44.1163C9.14674 44.3322 9.13802 44.5155 8.71562 44.5504C8.51782 44.5651 8.35093 44.4187 8.33224 44.6765C8.32286 44.7931 8.6063 44.8594 8.6387 44.9874C8.70923 45.2866 8.34262 45.4495 8.26347 45.7004C8.23578 45.7893 8.41679 45.7804 8.40222 45.8442C8.36317 46.0141 8.18862 46.0884 8.14959 46.2741C8.14617 46.291 8.30857 46.3403 8.28154 46.39C8.20955 46.5233 8.13293 46.6285 8.03359 46.749C7.85117 46.966 7.6494 47.154 7.40678 47.3967C7.23768 47.5739 6.91328 47.9552 6.58703 48.0904C6.07108 48.3664 5.10161 48.1797 4.77391 48.1076C4.51549 48.077 4.52018 48.2448 4.37582 48.3154C4.3534 48.3261 4.33126 48.3325 4.30971 48.3353C4.0474 48.3712 3.85586 47.8735 3.85294 47.7935C3.85385 47.7952 4.08263 47.8905 4.0125 47.7474C4.0391 47.5547 3.85723 47.7951 3.85294 47.7935C3.8386 47.7503 3.49499 47.4127 3.40781 47.3487C3.35803 47.3207 3.27002 47.4557 3.2452 47.4378C2.6689 47.0044 2.38508 46.5271 2.24042 46.0298C2.23997 46.0209 2.40486 45.9619 2.40194 45.9422C2.36692 45.6663 2.10588 45.5807 1.90516 45.3947C1.70997 45.2213 1.69895 45.0429 1.94765 44.8298C1.86416 44.6866 1.92178 44.398 1.97103 44.2666C2.0168 44.1233 1.68295 44.1886 1.6735 44.179C1.37868 43.8868 1.5132 43.5941 1.47442 43.2508C1.45442 43.0789 1.34103 42.7395 1.27151 42.5501C1.21761 42.4124 1.28201 42.3125 1.21033 42.1863C1.20073 42.1691 1.05407 42.2112 1.04743 42.2066C0.844645 42.0829 1.22189 42.0988 1.28236 42.0575C1.5026 41.9075 1.61874 41.8208 1.47865 41.6406C1.44679 41.6012 0.89938 41.5351 0.858066 41.4614C0.805002 41.3632 0.999575 41.3772 0.939454 41.2746C0.934497 41.2657 0.817836 41.283 0.814292 41.2147C0.801034 40.9799 0.812536 40.7222 0.800249 40.4653C0.795646 40.3725 0.789171 40.2897 0.777385 40.2063C0.771654 40.1624 0.591567 40.2382 0.580226 40.1749C0.527172 39.8775 0.502591 39.5398 0.564018 39.2274C0.57973 39.1505 0.714144 39.1866 0.751501 39.1671C0.977537 39.049 0.626442 38.9456 0.618106 38.9226C0.412794 38.4086 0.691374 37.9392 0.51424 37.4188C0.503882 37.3903 0.125445 37.1799 0.433923 37.0597C0.454417 37.0514 0.770162 36.9333 0.54623 36.8534C0.532225 36.8484 0.37009 36.9207 0.381461 36.8079C0.392891 36.6971 0.273771 36.5133 0.449176 36.3597C0.504355 36.3099 0.819947 36.1856 0.558969 36.0543C0.540735 36.0464 -0.0452452 35.8478 0.350429 35.7537C0.415583 35.7384 0.837628 35.7371 0.615488 35.5734C0.572454 35.542 0.480417 35.6049 0.418748 35.5203C0.323737 35.3905 0.431102 35.2099 0.238494 35.05C0.204431 35.0235 -0.0851905 34.913 0.129611 34.8117C0.163253 34.7959 0.304807 34.8206 0.319257 34.7699C0.388647 34.529 0.28878 34.2784 0.381545 34.0291C0.414149 33.9408 0.642655 33.9814 0.702028 33.8891C0.761371 33.7972 0.817043 33.6097 0.711682 33.5178C0.606266 33.4263 0.244771 33.5333 0.213817 33.3937C0.181339 33.2467 0.168973 33.099 0.16934 32.9505C0.170479 32.4883 0.296683 32.0051 0.320817 31.5518C0.325591 31.4611 0.195587 31.5362 0.193373 31.4022C0.18409 30.9062 0.0700178 30.044 0.352488 29.623C0.578471 29.2821 0.740413 29.7175 0.834206 29.456C0.878998 29.33 0.459391 29.1852 0.446637 29.1541C0.316889 28.8477 0.507767 28.6469 0.456077 28.379C0.445363 28.3236 0.273216 28.374 0.265992 28.3269C0.23981 28.1656 0.320031 27.9979 0.309835 27.843C0.304874 27.7735 0.173979 27.7831 0.185647 27.7194C0.212086 27.5669 0.270531 27.4326 0.397003 27.286C0.408528 27.2727 0.568439 27.3691 0.577591 27.2556C0.592005 27.0702 0.719094 26.8539 0.600873 26.6407C0.565283 26.5777 0.266944 26.566 0.477218 26.4391C0.521156 26.4124 0.878265 26.4597 0.573706 26.2943C0.523063 26.2668 0.114173 25.9907 0.387828 25.8706C0.459834 25.8389 0.756009 25.7624 0.712608 25.6855C0.70562 25.6751 0.543915 25.7103 0.5305 25.6473C0.520463 25.5973 0.514001 25.5467 0.509535 25.4959C0.494216 25.3213 0.502174 25.1488 0.470034 24.974C0.458631 24.9138 0.28937 24.9962 0.277679 24.9067C0.245282 24.6606 0.300036 24.3555 0.362232 24.1166C0.385475 24.0286 0.520177 24.0959 0.535398 24.0901C0.78292 23.9966 0.457516 23.9209 0.439895 23.8854C0.334821 23.6636 0.496141 23.5105 0.464381 23.3127C0.456039 23.2581 0.297852 23.2892 0.284401 23.2778C0.153305 23.1598 0.430346 23.256 0.464598 23.1868C0.561501 22.9929 0.559537 22.771 0.549476 22.5687C0.545554 22.4943 0.360106 22.5686 0.35869 22.5019C0.346919 22.1063 0.385587 21.6971 0.506124 21.323C0.529171 21.2521 0.66632 21.3049 0.699018 21.2917C0.927687 21.2008 0.631767 21.0328 0.604733 20.9962C0.481215 20.8302 0.608137 20.7754 0.593062 20.6337C0.517466 19.9361 0.650219 19.1069 0.74301 18.4597C0.761826 18.3277 0.782149 18.1998 0.802942 18.0776C0.914637 17.4197 1.04393 16.8544 1.06376 16.1776C1.06543 16.1267 0.876216 16.1644 0.875276 16.1204C0.871637 15.552 0.986247 14.9988 0.977062 14.4264C0.976627 14.3796 0.795606 14.4328 0.789006 14.3573C0.774237 14.2021 0.79913 14.0088 0.867625 13.8583C0.900701 13.785 1.04342 13.8983 1.07363 13.8242C1.14433 13.6517 1.17218 13.463 1.15887 13.2787C1.15283 13.2002 0.963545 13.3024 0.969707 13.2015C1.00815 12.5127 1.03423 11.8388 1.32782 11.1662C1.34797 11.1202 1.71672 11.1108 1.65563 11.0038C1.55498 10.9872 1.43577 10.9771 1.32777 10.9641C1.33059 10.87 1.33507 10.776 1.34097 10.6824C1.3979 9.77831 1.58686 8.89424 1.69256 7.99051C1.69744 7.94848 1.49708 8.00247 1.50554 7.92098C1.55437 7.44912 1.54619 6.98708 1.78726 6.5225C1.8109 6.4765 2.14828 6.53552 2.11121 6.3893C2.10435 6.36346 2.08071 6.14653 2.01259 6.08409C2.00223 6.07549 1.83962 6.09796 1.84203 6.02905C1.85886 5.62822 1.93824 5.21863 2.07752 4.82963C2.10027 4.76716 2.26187 4.85342 2.27954 4.80909C2.40359 4.4947 2.31314 4.12914 2.50004 3.83759C2.62576 3.64263 2.90922 3.7509 3.20841 3.67304C3.25062 3.66202 3.27104 3.53542 3.43887 3.54727C3.8609 3.57671 4.31423 3.68887 4.76488 3.71295C4.86192 3.71823 4.77674 3.53718 4.99877 3.6633C5.0136 3.67203 5.07742 3.8035 5.15319 3.84248C5.20555 3.86957 5.37967 3.85026 5.44494 3.90094C5.51015 3.95159 5.36251 3.98322 5.43695 4.06356C5.51242 4.14396 5.70917 4.1337 5.71655 4.27855ZM2.18226 43.615C2.31502 43.4608 1.72679 43.5711 1.89593 43.6715C1.90481 43.6762 2.17584 43.6229 2.18226 43.615ZM9.70916 39.4596C9.42308 39.564 9.78693 39.732 10.0062 39.6633C10.2256 39.5924 9.79593 39.4275 9.70916 39.4596ZM9.7649 37.8857C9.53374 38.029 10.3687 38.1814 10.2266 37.9681C10.2186 37.9557 9.77833 37.8772 9.7649 37.8857ZM3.23489 4.18933C3.24295 4.18862 3.2606 4.09773 3.25301 4.09469C3.06943 4.02532 3.03427 4.20717 3.23489 4.18933ZM9.75937 36.3306C9.63847 36.3753 9.75173 36.5398 9.90129 36.4924C10.0214 36.4563 9.9095 36.2777 9.75937 36.3306ZM2.07192 37.5598C2.08071 37.5575 2.08487 37.4921 2.03465 37.4964C1.87289 37.5103 1.92401 37.5982 2.07192 37.5598ZM10.0107 33.7216C9.94929 34.0964 9.22849 34.2878 9.34331 33.87C9.36347 33.7996 9.55327 34.0427 9.6238 33.9562C9.75266 33.7934 9.32353 33.6408 9.57083 33.4842C9.6176 33.4373 10.0154 33.708 10.0116 33.7223C10.0113 33.7221 10.011 33.7219 10.0107 33.7216ZM2.86815 43.3902C2.87532 43.3863 2.86221 43.2917 2.85409 43.291C2.65731 43.2804 2.68405 43.4731 2.86815 43.3902ZM2.30173 33.6942C2.31844 33.689 2.33092 33.4726 2.31539 33.4687C2.00314 33.3606 1.97691 33.7942 2.30173 33.6942ZM6.24793 46.2291C6.17079 46.0358 6.21096 45.9562 6.44367 46.0508C6.3755 46.1137 6.31491 46.1782 6.24793 46.2291ZM40.2905 0.537689C40.3426 0.90728 40.2868 1.28592 40.2104 1.63046C40.1867 1.72815 40.0806 1.67853 40.0595 1.74706C40.0183 1.88222 40.0703 2.01449 40.0212 2.1611C40.0044 2.20986 39.8364 2.14909 39.8227 2.20034C39.7485 2.45548 39.7912 2.68619 39.7555 2.96335C39.5846 4.23545 39.5202 5.46267 39.4466 6.74837C39.4444 6.78572 39.4421 6.82321 39.4399 6.86085C39.4148 7.27858 39.2624 7.82487 39.329 8.26952C39.337 8.32074 39.4844 8.2902 39.4965 8.29995C39.6825 8.45318 39.3849 8.40225 39.3454 8.50276C39.1893 8.89872 39.1757 9.36681 39.2326 9.75002C39.2572 9.91298 39.55 9.74942 39.3857 9.91384C39.3746 9.92528 39.218 9.88378 39.2013 9.92864C39.1638 10.0302 39.1918 10.2246 39.1794 10.3045C39.1547 10.4584 39.1563 10.484 39.1545 10.6306C39.1507 10.8286 39.0729 11.0788 39.1083 11.2833C39.1164 11.3282 39.2768 11.2688 39.3041 11.3404C39.3314 11.412 39.3178 11.6026 39.28 11.6672C39.2421 11.7318 39.116 11.7043 39.0871 11.7157C38.8431 11.8095 39.181 12.0323 39.1894 12.0611C39.3292 12.5811 39.1462 13.016 39.14 13.4941C39.1399 13.5031 39.1398 13.512 39.1398 13.521C39.1406 13.8905 39.2042 14.3006 39.1955 14.6475C39.1845 15.066 39.0975 15.4237 39.1125 15.836C39.1139 15.8795 39.3025 15.8285 39.3046 15.8817C39.3266 16.4436 39.306 16.9956 39.1786 17.5578C39.1657 17.6141 39.0001 17.5415 38.9772 17.5978C38.8411 17.9425 38.5141 18.4807 39.2353 18.6851C39.2071 18.9171 39.178 19.1993 39.0326 19.4075C38.9391 19.5417 38.7586 19.4113 38.8356 19.5762C38.8528 19.6132 39.0108 19.565 39.0246 19.6206C39.0749 19.8238 39.0426 20.0436 39.087 20.2497C39.0936 20.2807 39.102 20.3114 39.1127 20.3417C39.1297 20.3888 39.2713 20.376 39.2968 20.3893C39.5033 20.5015 39.1619 20.6883 39.1371 20.729C38.9522 21.0392 39.025 21.2651 39.0204 21.5547C39.0193 21.6218 39.2095 21.5424 39.2153 21.607C39.2425 21.942 39.2262 22.2887 39.1418 22.6157C39.1225 22.6885 38.9605 22.6216 38.943 22.6564C38.8679 22.8096 39.174 22.8436 39.1078 22.9904C39.0943 23.0213 38.9556 23.0039 38.9404 23.0095C38.7012 23.0974 39.0401 23.1755 39.0475 23.1982C39.1497 23.4877 38.796 23.6725 38.8461 23.9511C38.8525 23.9844 39.028 23.9092 39.0351 24.0029C39.0835 24.623 39.0353 25.2885 38.8949 25.9051C38.8734 26.0009 38.7415 25.9325 38.7253 25.9385C38.4713 26.0367 38.8116 26.1002 38.8244 26.1313C38.9166 26.3772 38.6313 26.6047 39.0365 26.7762C39.0264 26.8523 39.0182 26.9283 39.0115 27.0041C38.9257 27.9684 39.0973 28.9506 38.7604 29.8987C38.7562 29.9121 38.5887 29.888 38.581 29.9148C38.4869 30.237 38.7473 30.1749 39.0658 30.3865C39.1458 30.4398 38.7613 30.601 38.7331 30.6151C38.6292 30.667 38.3799 30.6132 38.3598 30.6306C38.2018 30.774 39.0263 30.7508 39.0265 30.9432C39.0252 30.9492 38.8734 30.924 38.8583 30.9401C38.811 30.9902 38.8713 31.0397 38.819 31.0886C38.6981 31.2002 38.2975 31.24 38.5307 31.4092C38.561 31.4309 39.0286 31.3965 39.0065 31.5733C38.9973 31.644 39.0053 31.9531 38.975 32.0386C38.9448 32.1243 38.7941 32.0655 38.7875 32.0716C38.5882 32.3021 38.5057 32.2146 38.2106 32.3296C37.9167 32.4442 38.6177 32.4124 38.696 32.459C38.774 32.5058 38.6096 32.6721 38.5524 32.7126C38.4952 32.7533 38.3995 32.7026 38.3671 32.7387C38.1557 32.9777 38.7151 32.8436 38.8263 32.9222C39.0898 33.1167 38.5699 33.2679 38.519 33.4431C38.5052 33.4905 38.6236 33.4518 38.6347 33.494C38.6607 33.5964 38.6095 33.6733 38.6006 33.7608C38.595 33.8157 38.6061 33.8748 38.6635 33.9467C38.6877 33.9772 39.0003 34.1273 38.7709 34.2232C38.7379 34.2368 38.6083 34.1982 38.5793 34.2669C38.5357 34.3659 38.5074 34.5691 38.5507 34.6826C38.5828 34.7678 38.7962 34.6702 38.7299 34.7773C38.7003 34.8247 38.5754 34.7368 38.5302 34.8259C38.485 34.9149 38.4905 35.1387 38.4948 35.2225C38.4992 35.3065 38.6611 35.2605 38.672 35.2673C38.7345 35.3086 38.8126 35.4683 38.8124 35.4821C38.8322 36.2337 38.5592 36.8558 38.6496 37.5961C38.6564 37.6509 38.8272 37.6144 38.83 37.6228C38.9016 37.8089 38.4475 37.6625 38.2956 37.7916C38.6421 37.7729 38.5794 37.8495 38.6174 37.9764C38.636 38.0401 38.7701 38.006 38.7839 38.0114C38.9877 38.1134 38.7244 38.1827 38.6706 38.2006C38.4725 38.2667 38.7066 38.3375 38.5742 38.3813C38.4427 38.425 38.2479 38.3246 38.2504 38.4546C38.3745 38.4908 38.6986 38.3949 38.7511 38.493C38.9499 38.8261 38.6955 39.5766 38.6691 39.8295C38.6427 40.1519 38.6656 40.239 38.6208 40.4012C38.6092 40.4421 38.6042 40.4741 38.6044 40.5C38.6042 40.6786 38.7956 40.6179 38.8842 40.7939C38.9843 41.0034 38.3972 40.8813 38.2687 40.9057C38.1399 40.9278 38.2687 40.9629 38.1963 40.9935C38.1239 41.0233 38.043 40.9476 38.0107 41.0237C37.9792 41.0991 38.1818 41.3231 38.3096 41.367C38.5819 41.4557 38.8914 41.3817 38.7561 41.5968C38.7481 41.6088 38.5998 41.5486 38.5769 41.5954C38.4006 41.9624 38.3038 42.3514 38.0997 42.6777C38.0713 42.7228 37.9177 42.6309 37.8993 42.6562C37.7058 42.9165 38.0161 42.8965 38.2713 43.1624C37.8727 42.992 37.5953 42.9971 37.5173 43.2086C37.4854 43.2939 37.5563 43.3415 37.635 43.4027C37.6743 43.4334 37.7155 43.4675 37.7461 43.5118C37.7739 43.552 37.617 43.5991 37.6929 43.6477C37.9403 43.8093 38.2783 43.84 38.0647 44.0229C38.0549 44.0306 37.9214 43.9384 37.8983 43.9693C37.7475 44.1667 38.0139 44.3146 37.9371 44.5733C37.8779 44.7741 37.548 45.0282 37.414 45.2178C36.9858 44.9904 36.9858 45.2288 37.2362 45.4676C37.1521 45.5937 37.088 45.7465 36.976 45.8483C36.9374 45.8836 36.8322 45.7849 36.8159 45.7828C36.5624 45.7456 36.8106 45.9651 36.8049 46C36.7813 46.1202 36.7254 46.214 36.6624 46.2997C36.5349 46.4727 36.3792 46.6108 36.3915 46.8875C36.3923 46.902 36.6632 47.1037 36.408 47.0436C36.3908 47.0389 36.3236 46.8626 36.2271 46.9869C36.1302 47.1119 35.816 47.2526 35.8184 47.5197C35.8192 47.5838 35.9642 47.8523 35.7277 47.8148C35.6958 47.8094 35.6265 47.7403 35.5709 47.7255C35.3935 47.6784 35.6477 47.9081 35.3681 47.8003C35.0884 47.6925 34.8216 47.6898 34.8512 47.9815C34.8518 47.9904 35.0361 48.1943 34.991 48.2463C34.9192 48.3289 34.7802 48.4168 34.7116 48.507C34.6788 48.5504 34.8322 48.6265 34.8288 48.6358C34.8183 48.6594 34.8073 48.6819 34.7957 48.7035C34.6348 49.0009 34.3735 49.1107 34.0913 49.3548C34.0361 49.402 34.0769 49.7084 33.8491 49.6965C33.5989 49.684 33.0768 49.0302 32.9992 49.4189C32.9677 49.5742 33.6343 50.3976 33.0577 50.2303C32.9408 50.4612 32.7582 50.607 32.5716 50.7656C32.3887 50.9206 32.2167 51.0723 32.1116 51.3192C32.1023 51.341 32.2632 51.5941 32.2238 51.629C32.1651 51.6804 32.038 51.6157 31.9934 51.6486C31.8015 51.7866 31.7315 52.0229 31.5631 52.1651C31.4988 52.2199 31.4196 52.1001 31.3412 52.1667C31.2629 52.2333 31.3442 52.4135 31.184 52.4449C31.0629 52.4678 30.7263 52.2665 30.5948 52.3319C30.8505 52.6045 30.7758 52.6661 30.724 52.8518C30.7142 52.8876 30.8286 52.9583 30.8286 52.9801C30.8296 53.0718 30.7174 53.0296 30.7214 53.1263C30.7226 53.1492 30.8098 53.2425 30.8158 53.2665C30.8167 53.2701 30.8175 53.2736 30.8183 53.2771C30.8582 53.4715 30.5509 53.3781 30.4977 53.3605C30.2894 53.2951 30.3696 53.4472 30.2534 53.4527C30.1401 53.4555 30.1701 53.3007 30.0665 53.3345C29.8543 53.4026 29.6806 53.5885 29.5233 53.7215C29.4632 53.7733 29.6172 53.8641 29.6112 53.8745C29.5203 54.0139 29.2612 54.001 29.421 54.3123C28.7636 53.7213 29.3955 54.4483 29.1017 54.4704C29.0785 54.4716 28.7898 54.1725 28.8028 54.0808C28.814 53.9906 28.9909 54.0087 29.0002 53.8741C29.0022 53.8428 28.8449 53.463 28.8435 53.4327C28.8304 53.1984 29.2613 53.645 29.289 53.666C29.5951 53.8858 29.4391 53.4627 29.4527 53.4113C29.5205 53.1713 29.6906 53.1339 29.7552 52.9455C29.797 52.8235 29.5268 52.5199 29.5958 52.4726C29.7137 52.3916 29.8939 52.4409 30.0228 52.4346C30.1485 52.4257 30.2163 52.3776 30.1452 52.1143C30.1141 51.9989 29.7649 51.7188 30.1551 51.8279C30.1791 51.8354 30.5144 51.9555 30.4332 51.7524C30.4232 51.7266 30.3326 51.6342 30.3352 51.6164C30.3545 51.4993 30.4727 51.5278 30.5138 51.4178C30.5556 51.3071 30.5942 51.165 30.7082 51.1128C30.7773 51.0808 31.0142 51.1843 31.081 51.2007C31.2716 51.2499 31.1487 50.977 31.3384 51.0775C31.5292 51.1783 31.67 51.4841 31.8787 51.4616C31.6419 51.2228 31.404 50.9724 31.168 50.73C31.3917 50.5149 31.6684 50.3498 31.8867 50.1285C31.9148 50.1 31.9421 50.0705 31.9682 50.0397C31.9966 50.0058 31.8332 49.9163 31.8601 49.8768C31.9724 49.7128 32.182 49.6739 32.2815 49.4861C32.3592 49.3389 32.3276 49.0859 32.3993 48.9304C32.7546 49.1088 32.8196 48.8339 32.9589 48.7235C33.0082 48.684 33.084 48.7535 33.1383 48.7412C33.3411 48.6926 33.0299 48.5343 33.0182 48.465C32.9671 48.1694 33.572 48.6458 33.705 48.4529C33.7126 48.4425 33.4881 48.0677 33.4806 48.0361C33.4323 47.83 33.6056 48.1086 33.6805 48.0634C33.7429 48.0257 33.8062 48.0007 33.8581 47.9643C33.9203 47.9207 33.9657 47.8616 33.9727 47.7458C33.9763 47.6831 33.8478 47.431 34.0649 47.4722C34.0934 47.4775 34.197 47.5653 34.2097 47.5617C34.4309 47.4888 34.0932 47.2284 34.0413 47.0565C33.9892 46.8851 34.3236 46.9255 34.4125 46.9471C34.6424 47.0035 34.4483 47.0575 34.4628 47.074C34.636 47.271 34.6731 47.1456 34.7456 47.0818C35.0927 47.3149 35.1503 47.1911 34.8194 47.0145C34.7832 46.9953 34.7722 47.0775 34.7456 47.0818C34.4616 46.7748 34.4989 46.6322 34.9041 46.7205C35.094 46.7616 35.2263 46.9393 35.2928 46.7069C35.3226 46.6016 35.0621 46.4732 35.0474 46.3548C35.0124 46.0867 35.3832 46.0092 35.46 45.8068C35.4876 45.7338 35.3147 45.7133 35.3287 45.6608C35.3427 45.6074 35.3753 45.5686 35.4113 45.5324C35.4695 45.4737 35.5368 45.4215 35.5484 45.3292C35.5499 45.3155 35.3928 45.2573 35.4128 45.2196C35.5594 44.9345 35.7895 44.7407 35.9465 44.4464C36.0223 44.3054 36.0696 44.0052 36.1539 43.8661C36.3019 43.6244 36.6605 43.3912 36.6926 43.1413C36.6978 43.1031 36.6923 43.0726 36.68 43.0469C36.6396 42.9636 36.5273 42.9311 36.4637 42.8545C36.3019 42.6637 36.7388 42.5837 36.8067 42.5674C36.8092 42.5671 36.8045 42.7072 36.9072 42.6651C37.0882 42.6785 36.8071 42.5688 36.8067 42.5674C36.8511 42.5601 36.9641 42.3136 36.9463 42.255C36.9372 42.223 36.7823 42.1971 36.7804 42.1814C36.7368 41.8049 36.7538 41.5284 36.8702 41.2087C36.8741 41.2032 37.0471 41.228 37.054 41.2147C37.1554 41.028 36.9526 40.881 36.8333 40.7151C36.7767 40.6354 36.7559 40.5645 36.7811 40.5C36.8091 40.4272 36.8956 40.3607 37.0536 40.3029C37.0159 40.1648 37.1485 39.9447 37.2289 39.8098C37.3094 39.6991 36.9693 39.682 36.9626 39.6722C36.7474 39.3652 36.9421 39.1322 36.9723 38.8054C36.9873 38.6511 36.938 38.3265 36.9008 38.1389C36.8709 37.9845 36.9506 37.9149 36.8996 37.7882C36.8928 37.7713 36.7414 37.7883 36.7355 37.7832C36.5544 37.6436 36.9245 37.7106 36.9907 37.6817C37.2311 37.5761 37.3591 37.5112 37.246 37.3251C37.2201 37.2822 36.6871 37.1558 36.6559 37.0753C36.6164 36.9705 36.8074 37.0103 36.7612 36.8996C36.7574 36.8899 36.6395 36.8925 36.6447 36.83C36.6673 36.5407 36.7359 36.2135 36.7241 35.8903C36.7229 35.8462 36.5359 35.9028 36.5312 35.8389C36.509 35.5375 36.5159 35.2419 36.6035 34.9531C36.6256 34.8831 36.7565 34.927 36.7953 34.9118C37.0305 34.8185 36.6888 34.6845 36.6823 34.6623C36.5782 34.3131 36.6644 34.0597 36.7039 33.7608C36.7267 33.5911 36.734 33.4145 36.6801 33.2177C36.6715 33.19 36.3052 32.9587 36.6193 32.8638C36.6402 32.8572 36.9616 32.7618 36.7419 32.6768C36.7281 32.6716 36.5627 32.7315 36.5795 32.6269C36.5964 32.5224 36.4859 32.3531 36.6677 32.207C36.7249 32.1608 37.0456 32.0515 36.79 31.9123C36.7721 31.9034 36.1942 31.6879 36.593 31.6102C36.6586 31.5976 37.0805 31.611 36.8642 31.4426C36.8223 31.411 36.7281 31.4672 36.6694 31.386C36.5788 31.2617 36.6918 31.0961 36.5038 30.9412C36.4706 30.9142 36.1842 30.7991 36.4015 30.7063C36.4356 30.6918 36.5765 30.7194 36.5922 30.6703C36.6678 30.4371 36.5736 30.1906 36.6711 29.9494C36.7053 29.8644 36.933 29.9064 36.9941 29.8199C37.0551 29.7339 37.1138 29.5599 37.0097 29.4691C36.9056 29.3782 36.5427 29.4775 36.5136 29.3413C36.3875 28.7503 36.6004 28.1431 36.6315 27.5584C36.6362 27.4703 36.5063 27.5434 36.5038 27.4134C36.5015 27.2948 36.4922 27.1547 36.4838 27.0041C36.4583 26.5384 36.4406 26.004 36.6484 25.6877C36.8694 25.3538 37.0377 25.7741 37.1276 25.5188C37.1705 25.3956 36.7486 25.2619 36.7353 25.2321C36.6003 24.9399 36.7873 24.7376 36.7299 24.4784C36.718 24.4247 36.547 24.4774 36.5388 24.4316C36.5091 24.2754 36.5854 24.1109 36.5715 23.9611C36.5648 23.8939 36.4342 23.9063 36.4443 23.8444C36.4669 23.6963 36.5218 23.5652 36.6442 23.4205C36.6554 23.4073 36.8179 23.4963 36.8239 23.3864C36.8332 23.2083 36.954 22.988 36.8293 22.7851C36.7918 22.7247 36.4932 22.7223 36.6994 22.5925C36.7425 22.5653 37.1009 22.6001 36.7912 22.4488C36.7397 22.4233 36.3219 22.169 36.5912 22.0441C36.6621 22.0112 36.9555 21.9271 36.9094 21.8543C36.902 21.8444 36.7416 21.8839 36.726 21.8236C36.6737 21.6111 36.6908 21.3877 36.6406 21.1697C36.6268 21.1115 36.4609 21.1982 36.4457 21.1114C36.4038 20.8726 36.446 20.5743 36.498 20.3408C36.5174 20.2547 36.6549 20.3143 36.6699 20.308C36.7211 20.2868 36.747 20.2674 36.7557 20.2497C36.7886 20.1833 36.5807 20.1407 36.5656 20.1143C36.451 19.9064 36.6052 19.7482 36.5644 19.5567C36.5535 19.5037 36.397 19.5413 36.383 19.5307C36.2466 19.4212 36.5278 19.5028 36.5588 19.4335C36.6465 19.2393 36.634 19.023 36.6139 18.8271C36.6064 18.7551 36.4248 18.836 36.4201 18.7714C36.3888 18.3884 36.4062 17.9947 36.5063 17.62C36.5255 17.5494 36.6653 17.5938 36.6972 17.5791C36.9206 17.4777 36.6159 17.3295 36.5868 17.2954C36.4543 17.1403 36.5779 17.0802 36.5549 16.9436C36.44 16.282 36.5219 15.4486 36.5724 14.8229C36.6108 14.3491 36.6728 13.9145 36.7101 13.4941C36.7361 13.198 36.7502 12.9085 36.736 12.585C36.734 12.5346 36.548 12.5855 36.5439 12.542C36.499 11.978 36.5717 11.4454 36.518 10.8878C36.5139 10.8416 36.3376 10.9082 36.3251 10.8341C36.2983 10.682 36.3079 10.4907 36.3642 10.3391C36.3913 10.2652 36.5426 10.3643 36.5668 10.29C36.6236 10.1169 36.6361 9.93279 36.6078 9.75792C36.5954 9.68355 36.4151 9.79574 36.413 9.69911C36.3951 9.0142 36.3641 8.37709 36.5976 7.68743C36.6136 7.64035 36.9801 7.59898 36.9098 7.49961C36.8081 7.49213 36.6885 7.49254 36.5798 7.48927C36.5647 7.2372 36.5619 6.99027 36.5664 6.74837C36.5794 5.99837 36.6533 5.31321 36.6679 4.56903C36.6687 4.52867 36.4745 4.59838 36.475 4.52032C36.4779 4.07831 36.4241 3.58533 36.6171 3.14502C36.636 3.09527 36.9776 3.11988 36.926 2.97499C36.9165 2.94861 36.871 2.73531 36.7968 2.68274C36.7856 2.67548 36.6262 2.71324 36.6215 2.64652C36.5973 2.30067 36.6337 1.81279 36.7311 1.47561C36.7472 1.40618 36.917 1.48036 36.9299 1.43061C37.02 1.07867 36.8909 0.768575 37.0451 0.456334C37.1489 0.267669 37.4424 0.315134 37.7314 0.210921C37.7721 0.185849 37.7786 0.102057 37.9467 0.0762362C38.3694 0.0576164 38.8323 0.130007 39.2829 0.103019C39.3799 0.0418428 39.2754 -0.0320831 39.5099 0.0102752C39.5256 0.00494949 39.6035 0.16338 39.683 0.170484C39.738 0.189451 39.909 0.154892 39.9794 0.194287C40.0498 0.235299 39.9065 0.283374 39.9892 0.374854C40.0729 0.440687 40.2674 0.405627 40.2905 0.537689ZM37.5886 39.2826C37.7519 39.1672 37.1537 39.1499 37.2968 39.2751C37.3044 39.2811 37.5805 39.2885 37.5886 39.2826ZM32.0649 50.6193C32.3558 50.6951 32.1397 50.3577 31.9215 50.2929C31.7044 50.2272 31.977 50.596 32.0649 50.6193ZM31.1603 51.8251C31.4258 51.8542 30.8434 51.237 30.8401 51.4825C30.8397 51.4966 31.1446 51.8238 31.1603 51.8251ZM37.8137 0.718278C37.8216 0.715708 37.8293 0.620033 37.8215 0.618724C37.6315 0.56766 37.6161 0.758183 37.8137 0.718278ZM30.228 53.0151C30.3446 53.0633 30.3666 52.8608 30.2203 52.8025C30.1025 52.7557 30.0829 52.9553 30.228 53.0151ZM38.227 33.4478C38.2359 33.4461 38.2439 33.3806 38.1935 33.3819C38.0312 33.3864 38.077 33.4774 38.227 33.4478ZM28.3285 54.7071C28.6354 54.4939 29.2718 54.8708 28.8976 55.0838C28.8306 55.1214 28.8788 54.8077 28.7639 54.8218C28.5663 54.8374 28.754 55.254 28.4613 55.1875C28.4016 55.1807 28.3254 54.7058 28.3283 54.706C28.3284 54.7064 28.3284 54.7067 28.3285 54.7071ZM38.3071 39.2162C38.315 39.2141 38.3225 39.12 38.3146 39.1175C38.1247 39.0666 38.1095 39.2563 38.3071 39.2162ZM38.5969 29.6609C38.6137 29.6562 38.6295 29.4502 38.6139 29.4434C38.3034 29.336 38.2706 29.7524 38.5969 29.6609ZM37.4009 45.2151C37.5242 45.392 37.4857 45.5117 37.2367 45.4673C37.2955 45.3857 37.3443 45.2982 37.4009 45.2151ZM21.4977 15.0085C21.6632 14.9481 21.8863 14.9927 22.0576 15.0607C22.1113 15.0818 22.09 15.189 22.1273 15.2083C22.2002 15.2459 22.2637 15.1907 22.3361 15.2362C22.3602 15.2518 22.3397 15.421 22.3647 15.4335C22.5018 15.501 22.6258 15.452 22.7626 15.4809C23.4368 15.6235 24.094 15.6537 24.7714 15.6965C24.9947 15.7104 25.2723 15.8491 25.4984 15.7711C25.5248 15.7619 25.5014 15.6154 25.5059 15.603C25.5765 15.4133 25.5648 15.7118 25.619 15.7487C25.8339 15.8943 26.0648 15.8963 26.2613 15.8295C26.2624 15.8291 26.2636 15.8287 26.2647 15.8281C26.342 15.7926 26.2465 15.5148 26.3388 15.6724C26.3452 15.6832 26.3315 15.8406 26.3556 15.8561C26.4102 15.891 26.5089 15.858 26.5504 15.8684C26.6303 15.8891 26.6433 15.8869 26.7179 15.8849C26.8199 15.8836 26.9449 15.9553 27.0524 15.9144C27.0753 15.9052 27.0364 15.7465 27.0723 15.7174C27.1081 15.6883 27.2073 15.6969 27.2424 15.733C27.2775 15.7692 27.2697 15.8958 27.277 15.9244C27.3375 16.1657 27.4346 15.8225 27.4488 15.8134C27.7089 15.6578 27.9477 15.8386 28.1986 15.8255C28.389 15.8152 28.5894 15.7415 28.7711 15.7412C28.9875 15.7414 29.1748 15.8191 29.3838 15.7937C29.4059 15.7912 29.3705 15.604 29.3975 15.6006C29.6836 15.5643 29.9698 15.5706 30.2622 15.6835C30.2915 15.695 30.2628 15.8623 30.2926 15.8836C30.4748 16.0108 30.7688 16.3236 30.8369 15.5981C30.9572 15.6202 31.1029 15.6421 31.2165 15.782C31.2791 15.859 31.246 16.0045 31.2855 15.9941C31.2922 15.9923 31.3009 15.9861 31.3125 15.9744C31.3306 15.9563 31.298 15.7997 31.3258 15.7846C31.4428 15.7208 31.5764 15.7655 31.6909 15.6781C31.7142 15.6599 31.7006 15.5188 31.7061 15.493C31.7533 15.2839 31.866 15.62 31.8881 15.6438C32.0561 15.8206 32.1684 15.7421 32.3165 15.7392C32.3509 15.7386 32.3008 15.5507 32.3336 15.5433C32.5035 15.5075 32.6818 15.5149 32.8537 15.5908C32.892 15.6082 32.8658 15.7717 32.8845 15.7883C32.9668 15.8594 32.969 15.5528 33.0477 15.6151C33.0642 15.6278 33.0622 15.7668 33.0659 15.7819C33.1232 16.0184 33.1457 15.6781 33.157 15.67C33.2995 15.5606 33.4116 15.9091 33.5517 15.852C33.5684 15.8448 33.5212 15.6714 33.5688 15.6619C33.8859 15.5975 34.2263 15.6288 34.5496 15.7532C34.5998 15.7723 34.5713 15.9057 34.5752 15.9218C34.6383 16.1729 34.654 15.8314 34.6694 15.8178C34.7913 15.7194 34.9237 15.9985 34.9894 15.5894C35.4249 15.6806 35.847 15.5351 36.2807 15.6477C36.3875 15.6754 36.495 15.7188 36.6035 15.7852C36.6105 15.789 36.6068 15.957 36.6206 15.964C36.7876 16.0498 36.7434 15.7913 36.8349 15.4678C36.858 15.3866 36.9594 15.7665 36.9681 15.7943C36.9999 15.8967 36.9848 16.1471 36.9947 16.1667C37.0761 16.3208 37.0229 15.498 37.1221 15.4928C37.1252 15.494 37.1198 15.6462 37.1288 15.6609C37.1571 15.7069 37.1797 15.6454 37.2076 15.6963C37.2715 15.8141 37.3122 16.2132 37.389 15.9759C37.3987 15.9451 37.3582 15.4789 37.4478 15.4965C37.4836 15.504 37.6394 15.4882 37.6847 15.5162C37.7299 15.5443 37.7074 15.6963 37.7109 15.7027C37.8387 15.8958 37.7981 15.9805 37.8719 16.2722C37.9456 16.5628 37.8942 15.8635 37.9144 15.7842C37.9346 15.705 38.0292 15.8649 38.0532 15.9209C38.0773 15.977 38.0556 16.074 38.0761 16.1053C38.2118 16.3102 38.1137 15.7551 38.1493 15.6419C38.2333 15.3739 38.335 15.8893 38.4265 15.9358C38.4513 15.9483 38.4257 15.831 38.4466 15.8189C38.5294 15.7724 38.5885 15.9319 38.6777 15.7785C38.6923 15.7535 38.7548 15.4374 38.8168 15.664C38.8256 15.6967 38.8117 15.8271 38.8493 15.8543C38.9056 15.895 39.0044 15.9185 39.0603 15.8723C39.1016 15.8382 39.0418 15.6274 39.0991 15.6909C39.1245 15.7193 39.0863 15.8463 39.1336 15.8892C39.1808 15.9321 39.2951 15.9209 39.3386 15.9144C39.3819 15.9078 39.35 15.7473 39.3529 15.7362C39.3711 15.6727 39.4508 15.5905 39.4582 15.5904C39.8298 15.552 40.1869 15.8074 40.5452 15.6991C40.5733 15.6908 40.5458 15.5212 40.55 15.5182C40.6439 15.4418 40.5897 15.8991 40.6654 16.0475C40.6382 15.7019 40.6815 15.7626 40.7483 15.7212C40.7804 15.7009 40.7557 15.5678 40.7581 15.554C40.7969 15.348 40.8442 15.6092 40.8557 15.6625C40.8981 15.8587 40.9218 15.6232 40.9505 15.7543C40.9792 15.8845 40.938 16.0816 41.0037 16.0758C41.016 15.951 40.951 15.6297 40.9983 15.5747C41.0718 15.4892 41.1769 15.4788 41.2857 15.4977C41.4413 15.5245 41.6046 15.611 41.6947 15.622C41.8473 15.6408 41.895 15.6155 41.9855 15.6559C42.1488 15.7289 42.0784 15.4916 42.1718 15.3767C42.2655 15.2618 42.2468 15.8552 42.2675 15.9816C42.2878 16.1079 42.2966 15.9764 42.3175 16.0453C42.3383 16.1142 42.305 16.2025 42.3472 16.2267C42.3893 16.2508 42.4897 16.0193 42.4975 15.8857C42.514 15.6028 42.449 15.3099 42.5622 15.4083C42.5687 15.4141 42.5563 15.5705 42.5809 15.5851C42.7759 15.6952 42.9726 15.6928 43.1667 15.7892C43.1934 15.8027 43.1788 15.9767 43.1945 15.9866C43.3573 16.0893 43.2865 15.8006 43.3566 15.4724C43.3588 15.9043 43.4196 16.1656 43.5392 16.1622C43.611 16.1603 43.5893 15.9727 43.6291 15.8377C43.641 15.797 43.6983 15.9237 43.703 15.8347C43.7189 15.5439 43.6549 15.2224 43.7845 15.3452C43.7902 15.3511 43.7809 15.5103 43.8 15.519C43.9238 15.5757 43.9231 15.2724 44.0517 15.2292C44.1525 15.1953 44.3435 15.3708 44.4614 15.395C44.4832 15.8796 44.5876 15.7631 44.6155 15.4269C44.6917 15.4368 44.7724 15.4138 44.8477 15.4563C44.8736 15.4708 44.8641 15.6119 44.868 15.6269C44.9285 15.8622 44.9451 15.5356 44.9608 15.522C45.1313 15.3893 45.2876 15.6285 45.4442 15.3793C45.4498 15.3703 45.4426 15.0333 45.5 15.2768C45.5038 15.2936 45.4557 15.4495 45.5356 15.4574C45.6156 15.4653 45.7742 15.6382 45.8765 15.4767C45.9013 15.4379 45.9551 15.1613 46.0199 15.372C46.0285 15.4007 46.0255 15.4976 46.0386 15.5508C46.0808 15.7202 46.0821 15.3792 46.1361 15.6662C46.1794 15.896 46.2477 16.0779 46.3251 16.036C46.3444 16.0256 46.3642 16.0013 46.3843 15.9605C46.3876 15.9546 46.4004 15.6836 46.4355 15.6861C46.4916 15.6904 46.5736 15.7426 46.6318 15.7379C46.6596 15.7356 46.6334 15.5691 46.6381 15.5658C46.8209 15.4626 46.9618 15.6052 47.1658 15.6599C47.2033 15.6703 47.2976 15.4367 47.3779 15.6136C47.4661 15.8073 47.4268 16.6332 47.5968 16.4284C47.6655 16.3464 47.7052 15.2991 47.8626 15.8328C48.1088 15.6863 48.3565 15.9511 48.6005 15.7473C48.6115 15.7383 48.633 15.4454 48.66 15.4481C48.7001 15.4525 48.7288 15.5874 48.7576 15.595C48.8788 15.63 48.9819 15.5082 49.0976 15.5205C49.1416 15.5249 49.1333 15.6663 49.1857 15.6716C49.2381 15.6767 49.2635 15.4898 49.3383 15.5757C49.3949 15.6412 49.467 16.0171 49.5398 16.0577C49.5238 15.6842 49.5727 15.6895 49.6539 15.5866C49.6695 15.5666 49.6453 15.4376 49.6523 15.4214C49.6809 15.3528 49.7157 15.4591 49.7424 15.3846C49.7489 15.3668 49.7428 15.2392 49.7478 15.2174C49.7896 15.0271 49.8883 15.3097 49.9053 15.3589C49.9703 15.5458 49.9879 15.3786 50.0342 15.4512C50.0805 15.5238 50.0216 15.6203 50.0735 15.6631C50.1812 15.7517 50.3124 15.7245 50.4172 15.7251C50.459 15.7246 50.4221 15.5558 50.4279 15.5518C50.512 15.5043 50.6082 15.681 50.6391 15.3396C50.7428 16.2132 50.6869 15.2519 50.819 15.4213C50.8294 15.435 50.8625 15.8489 50.8282 15.9116C50.794 15.9743 50.731 15.8476 50.684 15.945C50.6728 15.9679 50.6221 16.3599 50.6137 16.3839C50.5479 16.5715 50.5063 15.9526 50.5006 15.9187C50.4372 15.5538 50.3724 15.9766 50.3512 16.0066C50.2545 16.1443 50.1624 16.0616 50.0807 16.1605C50.0273 16.2244 50.042 16.6305 49.997 16.6203C49.8474 16.5866 49.7676 16.0231 49.6531 16.5209C49.6286 16.6271 49.6804 17.0691 49.5561 16.7257C49.5483 16.704 49.453 16.389 49.4173 16.5931C49.4128 16.6188 49.4195 16.748 49.4124 16.7593C49.3651 16.8321 49.326 16.7308 49.2731 16.7829C49.2201 16.835 49.1572 16.9118 49.0917 16.8711C49.0523 16.8468 48.9914 16.6084 48.9702 16.5504C48.9101 16.3831 48.8688 16.6644 48.8266 16.4603C48.7841 16.2552 48.8313 15.9381 48.7402 15.8088C48.7539 16.1447 48.7639 16.4898 48.7758 16.8278C48.5902 16.8252 48.4028 16.7257 48.2179 16.7498C48.195 16.7532 48.2275 16.9325 48.2032 16.9407C48.1006 16.9746 48.0032 16.8505 47.8979 16.9071C47.8163 16.9517 47.7343 17.1474 47.6493 17.1999C47.5767 16.8183 47.4536 16.9552 47.3577 16.9248C47.3241 16.9144 47.3212 16.8116 47.296 16.7793C47.2013 16.6599 47.2598 16.9974 47.2382 17.0521C47.1455 17.2853 47.0981 16.5172 46.9764 16.5423C46.9699 16.5434 46.9109 16.957 46.9012 16.9831C46.84 17.153 46.8826 16.8411 46.8375 16.813C46.7553 16.7616 46.6952 16.6665 46.6079 16.7912C46.5825 16.8281 46.53 17.0868 46.4674 16.8919C46.4591 16.8663 46.4562 16.7307 46.4502 16.7231C46.4019 16.6661 46.379 16.7201 46.3638 16.8104C46.3452 16.9215 46.3383 17.0875 46.3104 17.1686C46.2597 17.3156 46.1557 17.0263 46.1333 16.9425C46.0748 16.7259 46.1651 16.8471 46.1666 16.8255C46.184 16.5682 46.1211 16.6155 46.0702 16.5964C46.0421 16.1795 45.9738 16.208 46.0175 16.5782C46.0224 16.6187 46.0592 16.5778 46.0702 16.5964C46.047 17.0079 45.9731 17.0642 45.8694 16.6859C45.8209 16.5086 45.8478 16.2976 45.7315 16.3801C45.6787 16.4174 45.7141 16.7036 45.6699 16.7843C45.5689 16.9685 45.4126 16.7077 45.3013 16.7556C45.261 16.773 45.3089 16.9282 45.2816 16.9455C45.2091 16.9919 45.1374 16.8772 45.0655 16.9414C45.059 16.9474 45.0838 17.1112 45.0606 17.1145C44.8849 17.1424 44.7257 17.0447 44.5411 17.051C44.4519 17.0541 44.2971 17.1529 44.2039 17.1392C44.0423 17.1166 43.8335 16.887 43.6997 16.952C43.6124 16.9937 43.6402 17.1574 43.6076 17.2715C43.5448 17.4926 43.3948 17.1096 43.3742 17.0502C43.3736 17.0482 43.4483 17.0056 43.4032 16.9231C43.3706 16.7482 43.375 17.0494 43.3742 17.0502C43.3607 17.0118 43.2056 16.9821 43.1767 17.0151C43.161 17.0331 43.1781 17.1887 43.1698 17.1951C42.9718 17.345 42.7685 17.3949 42.557 17.3323C42.5532 17.3293 42.55 17.1546 42.5411 17.1498C42.4169 17.0782 42.3505 17.2955 42.2576 17.4272C42.1647 17.5589 42.0839 17.5204 42.0102 17.2237C41.9372 17.2652 41.8231 17.1381 41.7573 17.0609C41.6915 16.9836 41.6998 17.3237 41.6947 17.3307C41.5782 17.4945 41.4892 17.4363 41.38 17.3852C41.3403 17.3665 41.2979 17.3489 41.2506 17.3431C41.1661 17.3323 41.0026 17.3899 40.9139 17.4316C40.8438 17.4651 40.7967 17.3876 40.7333 17.4418C40.7247 17.4491 40.7412 17.5999 40.7388 17.6058C40.6742 17.7905 40.6911 17.419 40.6726 17.3537C40.6055 17.1163 40.5651 16.9901 40.4764 17.1078C40.456 17.1348 40.4192 17.6703 40.3812 17.7034C40.3316 17.7455 40.3415 17.5537 40.2898 17.6026C40.2854 17.6066 40.2923 17.7243 40.2587 17.7208C40.103 17.706 39.931 17.6459 39.7709 17.6657C39.749 17.668 39.7865 17.8533 39.755 17.8596C39.6073 17.8892 39.4439 17.8904 39.2945 17.8103C39.2577 17.79 39.2736 17.6581 39.2639 17.6197C39.2046 17.3872 39.1542 17.7318 39.1434 17.7389C38.8862 17.9162 38.6676 17.6175 38.4045 17.778C38.3902 17.7874 38.2951 18.1589 38.2289 17.8477C38.2244 17.827 38.1583 17.5085 38.125 17.7302C38.1229 17.744 38.1624 17.9077 38.1071 17.8936C38.0519 17.8795 37.9698 17.9943 37.886 17.8164C37.8594 17.7604 37.7875 17.443 37.7296 17.7018C37.7259 17.7198 37.6457 18.3025 37.5869 17.9062C37.5773 17.8409 37.5628 17.4192 37.4894 17.6395C37.4753 17.6822 37.5093 17.7747 37.4698 17.8355C37.4093 17.9292 37.3175 17.8207 37.247 18.0124C37.2347 18.0463 37.1897 18.3353 37.1313 18.1206C37.1221 18.087 37.1292 17.9456 37.1033 17.9311C36.98 17.8615 36.8596 17.9619 36.7334 17.8706C36.6887 17.8386 36.6993 17.61 36.6515 17.5513C36.6036 17.4926 36.5104 17.4385 36.4687 17.5448C36.427 17.6511 36.4964 18.0111 36.4276 18.0436C36.4187 18.0478 36.4099 18.0516 36.4011 18.0552C36.11 18.1733 35.8063 17.9869 35.5088 17.9715C35.4633 17.9691 35.5073 18.0969 35.4408 18.1027C35.1955 18.1246 34.7773 18.2675 34.5503 18.0025C34.3684 17.7903 34.575 17.6115 34.44 17.5282C34.3748 17.4885 34.3277 17.9133 34.3132 17.9274C34.1714 18.0696 34.0588 17.888 33.9279 17.952C33.9009 17.9653 33.9365 18.1347 33.9134 18.1441C33.8346 18.1778 33.7464 18.1057 33.6704 18.1235C33.6363 18.1319 33.6492 18.262 33.617 18.2535C33.5401 18.2347 33.4704 18.1832 33.3904 18.0647C33.3831 18.0539 33.4204 17.8893 33.364 17.8861C33.2729 17.8813 33.1542 17.7663 33.056 17.8961C33.0269 17.9351 33.0406 18.2333 32.9638 18.0308C32.9477 17.9884 32.9476 17.6295 32.8855 17.9428C32.875 17.9948 32.7656 18.4186 32.6882 18.1528C32.6678 18.0829 32.6101 17.7921 32.5752 17.84C32.5705 17.8476 32.5987 18.0067 32.5686 18.0239C32.4625 18.0816 32.3476 18.0702 32.2384 18.1259C32.2092 18.1411 32.262 18.3046 32.2183 18.322C32.0981 18.37 31.9432 18.3355 31.8211 18.2896C31.776 18.2723 31.7996 18.1335 31.7957 18.1187C31.7319 17.8783 31.7178 18.2078 31.7016 18.2278C31.6009 18.3477 31.5121 18.1976 31.4159 18.2433C31.3894 18.2555 31.4164 18.4109 31.4117 18.4252C31.4103 18.4292 31.4089 18.4329 31.4076 18.4363C31.3642 18.5479 31.3892 18.2804 31.3533 18.2521C31.2497 18.1694 31.1398 18.1875 31.0405 18.2125C31.004 18.2219 31.0545 18.4012 31.0217 18.4075C30.8276 18.4485 30.6233 18.4414 30.4273 18.3509C30.3904 18.3336 30.4061 18.1928 30.397 18.1613C30.3342 17.9407 30.2737 18.2489 30.2577 18.2787C30.1851 18.4151 30.1482 18.2931 30.0794 18.3197C29.7435 18.4515 29.3175 18.3908 28.9925 18.3564C28.569 18.3124 28.2362 18.1959 27.8372 18.2504C27.8118 18.2537 27.8468 18.4382 27.825 18.4434C27.5438 18.5024 27.261 18.4437 26.9797 18.5116C26.9566 18.5168 26.999 18.6912 26.9622 18.7056C26.8868 18.7362 26.7891 18.7315 26.7087 18.6791C26.6695 18.6539 26.7127 18.5003 26.6734 18.478C26.5818 18.4258 26.4861 18.418 26.3964 18.4508C26.3962 18.4509 26.396 18.4509 26.3958 18.451C26.359 18.467 26.4255 18.6423 26.3755 18.6469C26.0331 18.6819 25.6975 18.7298 25.3389 18.5139C25.3144 18.4991 25.2752 18.1341 25.2281 18.2068C25.2294 18.3086 25.2356 18.4281 25.2394 18.5368C24.7425 18.6202 24.2416 18.5181 23.7394 18.5235C23.7183 18.5238 23.7645 18.7159 23.7236 18.7174C23.4866 18.7264 23.2594 18.7916 23.0076 18.6109C22.9826 18.5933 22.9779 18.2515 22.9097 18.3066C22.8977 18.3167 22.7933 18.3675 22.7694 18.4429C22.7662 18.4543 22.7936 18.6126 22.7595 18.6189C22.561 18.6531 22.3499 18.6272 22.1457 18.5399C22.1127 18.5255 22.1385 18.3542 22.1149 18.3424C21.9478 18.2605 21.7775 18.3983 21.6144 18.2521C21.5053 18.1536 21.5291 17.8585 21.4594 17.5727C21.4496 17.5324 21.3849 17.5292 21.3731 17.3614C21.3435 16.9397 21.3516 16.4758 21.3163 16.0264C21.3087 15.9296 21.2277 16.0383 21.267 15.8015C21.2698 15.7857 21.3284 15.7048 21.3399 15.6246C21.3478 15.5691 21.32 15.3993 21.3383 15.3279C21.3567 15.2566 21.3879 15.3985 21.42 15.314C21.4521 15.2286 21.4264 15.0351 21.4977 15.0085ZM41.461 16.7156C41.3956 16.5554 41.4171 17.1532 41.4718 17.0072C41.4744 16.9994 41.4644 16.7235 41.461 16.7156ZM48.3813 16.275C48.2933 16.0152 48.2614 16.4053 48.3244 16.6061C48.3873 16.8068 48.408 16.3538 48.3813 16.275ZM49.1475 16.0438C49.0497 15.8404 49.0783 16.6883 49.1634 16.5124C49.1684 16.5024 49.1533 16.0556 49.1475 16.0438ZM21.7115 17.4777C21.7104 17.4698 21.6637 17.4644 21.663 17.4723C21.6478 17.6633 21.7411 17.674 21.7115 17.4777ZM49.907 15.7959C49.874 15.6826 49.802 15.8189 49.8431 15.9597C49.8761 16.073 49.9482 15.9367 49.907 15.7959ZM38.4435 16.2273C38.4421 16.2184 38.4086 16.2121 38.4117 16.2624C38.4221 16.4243 38.466 16.3763 38.4435 16.2273ZM51.2152 15.7207C51.0202 15.6985 50.868 15.0045 51.0825 15.0729C51.1214 15.0853 51.0115 15.3002 51.0632 15.3609C51.1577 15.4714 51.1947 15.029 51.2971 15.26C51.3157 15.3023 51.2264 15.7235 51.2149 15.7217C51.215 15.7214 51.2151 15.721 51.2152 15.7207ZM41.3922 15.9997C41.3906 15.9918 41.3443 15.9866 41.3436 15.9945C41.3282 16.1854 41.4215 16.196 41.3922 15.9997ZM36.4888 15.9547C36.4854 15.938 36.378 15.9276 36.3753 15.9432C36.3352 16.2562 36.5524 16.2782 36.4888 15.9547ZM44.4639 15.4078C44.5045 15.2145 44.5633 15.189 44.6152 15.4266C44.5648 15.4164 44.5146 15.417 44.4639 15.4078Z" fill="black"/>
</svg>
