<svg width="39" height="59" viewBox="0 0 39 59" fill="none" xmlns="http://www.w3.org/2000/svg">
<path d="M1.01695 12.9926C1.20208 12.9104 1.46427 12.925 1.66891 12.9698C1.733 12.9836 1.71913 13.0932 1.76412 13.1074C1.85211 13.1351 1.91984 13.0717 2.0081 13.1073C2.03744 13.1196 2.03065 13.2908 2.0608 13.2999C2.22584 13.3487 2.36419 13.2834 2.52516 13.2939C3.31808 13.3458 4.08018 13.2881 4.86679 13.2402C5.12614 13.2243 5.46059 13.3253 5.7139 13.2174C5.74344 13.2047 5.70188 13.062 5.70582 13.0491C5.76844 12.8508 5.78473 13.1495 5.85096 13.179C6.11367 13.2952 6.38062 13.2664 6.60084 13.1737C6.60217 13.1731 6.60345 13.1725 6.60469 13.1718C6.69044 13.1261 6.55238 12.8623 6.67466 13.0069C6.68323 13.0168 6.68313 13.1753 6.7125 13.1875C6.77905 13.2149 6.88969 13.169 6.93864 13.1737C7.0331 13.1837 7.04783 13.1797 7.13378 13.1678C7.25149 13.1529 7.40304 13.2075 7.5231 13.1525C7.54866 13.1403 7.48789 12.9875 7.52636 12.9537C7.56488 12.9199 7.68029 12.9153 7.72442 12.9466C7.76857 12.9779 7.77217 13.105 7.78348 13.1325C7.87749 13.3646 7.9553 13.01 7.97084 12.999C8.25576 12.8094 8.54962 12.9575 8.83803 12.911C9.05692 12.8752 9.2811 12.7751 9.49086 12.7505C9.74087 12.7218 9.96498 12.7741 10.2038 12.7209C10.2291 12.7155 10.1695 12.5339 10.2003 12.5269C10.5271 12.4526 10.8584 12.4206 11.2073 12.4939C11.2423 12.5015 11.2259 12.6718 11.2624 12.6891C11.4856 12.7914 11.8563 13.0634 11.8626 12.3321C12.0037 12.3381 12.1742 12.3404 12.3193 12.4645C12.3994 12.5328 12.3757 12.6821 12.4203 12.6664C12.4278 12.6638 12.4372 12.6565 12.4495 12.6433C12.4686 12.6228 12.4153 12.4713 12.4459 12.4525C12.5747 12.3734 12.7334 12.4001 12.857 12.2977C12.8821 12.2765 12.8522 12.1379 12.856 12.1114C12.8896 11.897 13.0533 12.2166 13.0812 12.2372C13.2929 12.3908 13.4148 12.2976 13.5856 12.275C13.6253 12.2698 13.5487 12.0894 13.5857 12.0777C13.7784 12.0194 13.9851 12.003 14.1912 12.0556C14.2372 12.0677 14.2232 12.234 14.2465 12.248C14.3487 12.3078 14.3206 12.0024 14.4177 12.0538C14.4381 12.0643 14.4496 12.2029 14.4554 12.2174C14.5452 12.4452 14.5372 12.1034 14.5494 12.0939C14.7031 11.9659 14.8674 12.2979 15.0235 12.2223C15.0421 12.2129 14.9702 12.0466 15.0243 12.0308C15.3841 11.9244 15.7803 11.91 16.1662 11.9907C16.2261 12.003 16.2065 12.1396 16.2126 12.1551C16.3106 12.3966 16.2946 12.0546 16.311 12.039C16.442 11.9248 16.6228 12.1849 16.6578 11.7689C17.17 11.8015 17.6429 11.6003 18.1551 11.6545C18.2812 11.6678 18.4097 11.6966 18.5417 11.7482C18.5501 11.7511 18.5626 11.9188 18.5793 11.9239C18.7807 11.9871 18.7039 11.7356 18.7772 11.4014C18.7957 11.3174 18.9509 11.6821 18.9637 11.7086C19.0106 11.8063 19.0182 12.0575 19.0316 12.0758C19.141 12.2183 18.9974 11.4063 19.1114 11.3879C19.1152 11.3887 19.1241 11.5409 19.136 11.5543C19.1732 11.5963 19.1932 11.5321 19.2305 11.579C19.3161 11.6878 19.4029 12.0796 19.4679 11.8332C19.476 11.8012 19.3827 11.3425 19.488 11.3481C19.5301 11.3507 19.7084 11.3142 19.7636 11.3361C19.8186 11.358 19.8078 11.5123 19.8124 11.5182C19.9793 11.6934 19.9409 11.7831 20.0553 12.0636C20.1694 12.3431 20.0402 11.6538 20.0556 11.5721C20.071 11.4906 20.1962 11.6372 20.2297 11.6897C20.2631 11.7423 20.2477 11.8417 20.2745 11.8702C20.4516 12.0561 20.2829 11.5165 20.3127 11.3991C20.383 11.1211 20.5519 11.6206 20.6623 11.6546C20.6921 11.6638 20.6509 11.5505 20.6738 11.5356C20.7648 11.4783 20.849 11.6291 20.9367 11.4645C20.951 11.4377 20.9916 11.1147 21.0858 11.332C21.0993 11.3633 21.0963 11.495 21.1425 11.517C21.2115 11.5501 21.3279 11.5602 21.3879 11.5068C21.4322 11.4673 21.3421 11.2655 21.4146 11.3211C21.4469 11.3459 21.4154 11.4774 21.4743 11.5138C21.533 11.5502 21.664 11.5238 21.7135 11.5115C21.7629 11.4992 21.71 11.3436 21.7123 11.3322C21.727 11.2666 21.8108 11.1742 21.8193 11.173C22.2447 11.0852 22.6827 11.2917 23.0856 11.136C23.1173 11.124 23.0686 10.9589 23.0732 10.9553C23.174 10.8668 23.1571 11.3292 23.2593 11.4668C23.1934 11.1264 23.2495 11.181 23.3225 11.1309C23.3576 11.1065 23.3157 10.9773 23.3171 10.9632C23.3414 10.7529 23.4221 11.0066 23.4407 11.0582C23.5092 11.2478 23.5131 11.0102 23.5593 11.1369C23.6054 11.2626 23.5776 11.4643 23.6529 11.4498C23.6546 11.3239 23.5474 11.0128 23.5966 10.9517C23.673 10.8567 23.7933 10.8324 23.9208 10.8366C24.1032 10.8426 24.3005 10.9068 24.4056 10.9058C24.5838 10.9041 24.6364 10.8726 24.7449 10.9007C24.9408 10.9515 24.8358 10.7247 24.9322 10.5979C25.029 10.471 25.0667 11.0642 25.1031 11.1872C25.1392 11.3102 25.1362 11.1782 25.1672 11.244C25.1982 11.3098 25.1686 11.4021 25.2197 11.4206C25.2707 11.439 25.3635 11.1951 25.3592 11.0611C25.3501 10.7772 25.2456 10.4944 25.3863 10.5772C25.3944 10.5821 25.3957 10.7395 25.4255 10.7506C25.6618 10.8343 25.8887 10.8056 26.1225 10.8756C26.1547 10.8855 26.1553 11.0607 26.1743 11.0684C26.3727 11.1488 26.262 10.8709 26.3102 10.5349C26.3558 10.9646 26.4522 11.2165 26.59 11.1972C26.6728 11.1857 26.6289 11.0018 26.6614 10.8622C26.6711 10.8201 26.7499 10.9385 26.7465 10.8493C26.7358 10.5577 26.6297 10.2462 26.7917 10.3511C26.7988 10.3562 26.804 10.516 26.827 10.522C26.9756 10.562 26.9445 10.2601 27.0887 10.1999C27.2018 10.1528 27.4399 10.3019 27.5785 10.3102C27.6521 10.7897 27.761 10.6599 27.7597 10.3214C27.8487 10.3211 27.9395 10.2875 28.0308 10.3197C28.0622 10.3307 28.0653 10.4724 28.0713 10.4868C28.1647 10.713 28.1512 10.3856 28.168 10.3701C28.3517 10.2152 28.5561 10.4323 28.7121 10.1634C28.7176 10.1537 28.6757 9.8192 28.7663 10.0539C28.7723 10.0701 28.7324 10.2317 28.8255 10.2289C28.9186 10.2261 29.1191 10.377 29.2212 10.2026C29.2459 10.1606 29.2804 9.87814 29.3762 10.0793C29.3891 10.1066 29.3952 10.2035 29.4157 10.2547C29.4814 10.4178 29.4489 10.078 29.5399 10.3565C29.6128 10.5796 29.7098 10.7515 29.7951 10.6995C29.8163 10.6865 29.8368 10.6597 29.8559 10.6164C29.8591 10.61 29.8468 10.3386 29.8877 10.3364C29.9529 10.3332 30.0528 10.3742 30.1195 10.3618C30.1514 10.3557 30.1045 10.1935 30.1096 10.1896C30.3104 10.0624 30.4874 10.1855 30.7286 10.2128C30.7728 10.2181 30.8585 9.97296 30.9689 10.1384C31.0901 10.3194 31.1271 11.1468 31.3031 10.9202C31.3742 10.8295 31.3155 9.78159 31.5506 10.2919C31.8203 10.1131 32.1328 10.3436 32.3943 10.1082C32.4061 10.0977 32.4017 9.80333 32.4332 9.80233C32.48 9.80141 32.5265 9.93189 32.5606 9.93554C32.704 9.95422 32.811 9.81918 32.9459 9.81603C32.997 9.81454 33.0017 9.95639 33.0627 9.95463C33.1237 9.95275 33.1343 9.76328 33.2294 9.83881C33.3013 9.89648 33.4221 10.261 33.5102 10.2917C33.4545 9.92202 33.5114 9.92073 33.595 9.80748C33.611 9.78553 33.5701 9.66029 33.5766 9.64328C33.6027 9.57121 33.6536 9.6723 33.677 9.59465C33.6827 9.57598 33.663 9.44984 33.6665 9.42747C33.6958 9.2324 33.838 9.50054 33.8625 9.54727C33.9563 9.72463 33.96 9.55589 34.0207 9.62193C34.0814 9.68797 34.023 9.79194 34.0873 9.82764C34.2204 9.90145 34.3693 9.85684 34.4904 9.84346C34.5387 9.83735 34.4791 9.67427 34.4854 9.66948C34.5778 9.61098 34.7066 9.77401 34.7082 9.43C34.9152 10.2858 34.7546 9.33639 34.9241 9.48731C34.9375 9.49956 35.017 9.9072 34.9838 9.97422C34.9505 10.0412 34.865 9.92341 34.8205 10.0267C34.8099 10.051 34.7904 10.4479 34.7831 10.473C34.7258 10.6686 34.616 10.058 34.606 10.025C34.4964 9.67021 34.4637 10.0997 34.4423 10.1325C34.3444 10.2824 34.2297 10.2124 34.1452 10.3217C34.0899 10.3925 34.1475 10.7948 34.0945 10.7907C33.9184 10.7771 33.7699 10.2268 33.6874 10.7376C33.6696 10.8466 33.7736 11.2797 33.5958 10.9545C33.5846 10.934 33.4431 10.633 33.4222 10.841C33.4196 10.8672 33.4402 10.995 33.4332 11.0071C33.3858 11.0859 33.3305 10.9903 33.2746 11.0492C33.2186 11.1081 33.1536 11.193 33.074 11.1613C33.026 11.1423 32.9318 10.9132 32.9015 10.8582C32.8155 10.6997 32.7958 10.9852 32.7267 10.7877C32.6571 10.5892 32.68 10.2673 32.5618 10.1507C32.6112 10.4833 32.6573 10.8254 32.7047 11.1603C32.4901 11.1825 32.2637 11.1085 32.0525 11.1572C32.0264 11.1636 32.0819 11.3378 32.0547 11.3492C31.9395 11.3967 31.8147 11.2861 31.6986 11.3565C31.6089 11.4118 31.5337 11.6176 31.4408 11.6812C31.3189 11.311 31.1903 11.4638 31.0765 11.4463C31.0366 11.4404 31.023 11.3385 30.9907 11.3097C30.8694 11.2035 30.9707 11.5316 30.9512 11.5889C30.8674 11.8335 30.736 11.0752 30.5979 11.1164C30.5905 11.1184 30.5637 11.5381 30.5551 11.5653C30.5013 11.7425 30.5194 11.4264 30.4646 11.4044C30.3644 11.3643 30.2855 11.2777 30.1972 11.4135C30.1715 11.4536 30.1367 11.718 30.0449 11.5324C30.0328 11.5081 30.0159 11.3735 30.0082 11.3667C29.9467 11.3164 29.9256 11.3733 29.9171 11.4651C29.9067 11.5782 29.9154 11.7444 29.8912 11.8289C29.8474 11.9819 29.6983 11.7079 29.6641 11.6275C29.5749 11.4197 29.6912 11.5283 29.6908 11.5065C29.6853 11.2481 29.6173 11.3036 29.5567 11.2913C29.4826 10.8801 29.4065 10.9176 29.494 11.2803C29.5037 11.3199 29.5422 11.2743 29.5567 11.2913C29.5709 11.7041 29.4912 11.77 29.3337 11.4072C29.2599 11.2372 29.27 11.0236 29.1439 11.1213C29.0866 11.1654 29.1561 11.4456 29.1131 11.5319C29.0148 11.7287 28.8082 11.49 28.6845 11.5525C28.6396 11.5752 28.7105 11.7233 28.6807 11.7442C28.6016 11.8001 28.5073 11.6955 28.4306 11.769C28.4237 11.7758 28.4688 11.9356 28.4423 11.9419C28.2421 11.9932 28.0486 11.9172 27.836 11.9481C27.7333 11.9631 27.5643 12.0821 27.4553 12.081C27.2664 12.08 27.0023 11.8794 26.8543 11.962C26.7576 12.0151 26.806 12.1743 26.7798 12.2922C26.7293 12.5208 26.5178 12.1596 26.4881 12.1031C26.4872 12.1013 26.5693 12.0488 26.5089 11.9728C26.4538 11.803 26.489 12.1022 26.4881 12.1031C26.4687 12.0667 26.2866 12.0579 26.2565 12.0946C26.2402 12.1146 26.2754 12.2672 26.2665 12.2747C26.0528 12.4503 25.823 12.5271 25.5724 12.4931C25.5677 12.4907 25.5466 12.3171 25.5358 12.3135C25.3852 12.2589 25.3303 12.4841 25.2361 12.6276C25.142 12.771 25.0448 12.7435 24.93 12.4581C24.8498 12.5091 24.7054 12.3979 24.6217 12.3297C24.5379 12.2616 24.5816 12.599 24.5764 12.6067C24.4582 12.7853 24.3495 12.7393 24.2183 12.7029C24.1706 12.6897 24.1199 12.6778 24.0646 12.6784C23.966 12.6789 23.7829 12.7581 23.6846 12.8114C23.607 12.8541 23.5448 12.7833 23.477 12.8457C23.4678 12.8541 23.502 13.002 23.4998 13.0082C23.4436 13.2006 23.426 12.8286 23.3981 12.7661C23.2969 12.5388 23.2376 12.4186 23.147 12.5475C23.126 12.5771 23.1371 13.1151 23.0964 13.1531C23.0434 13.2016 23.0357 13.0094 22.9809 13.065C22.9762 13.0696 22.9958 13.1858 22.9567 13.1868C22.7753 13.1928 22.5707 13.156 22.3878 13.1971C22.3627 13.2023 22.4245 13.3818 22.3888 13.3923C22.2212 13.4414 22.0325 13.4645 21.852 13.4047C21.8075 13.3894 21.8126 13.256 21.7976 13.219C21.7059 12.9955 21.6821 13.3453 21.6704 13.3538C21.391 13.5646 21.1087 13.2965 20.8208 13.4914C20.8052 13.5027 20.7325 13.8852 20.6249 13.5842C20.6177 13.5642 20.5095 13.256 20.4932 13.4811C20.4922 13.4952 20.5541 13.6529 20.4889 13.6462C20.4237 13.6396 20.3404 13.7647 20.2258 13.5989C20.1895 13.5467 20.0747 13.2403 20.0337 13.5057C20.0312 13.5241 19.9968 14.1148 19.8893 13.7282C19.8717 13.6645 19.8129 13.2466 19.75 13.4757C19.7381 13.5201 19.7865 13.6077 19.747 13.6735C19.6865 13.7749 19.5697 13.6791 19.5073 13.8793C19.4965 13.9147 19.4734 14.2084 19.3845 14.0025C19.3705 13.9702 19.3646 13.8285 19.3333 13.8176C19.1839 13.7648 19.0549 13.8808 18.9 13.8068C18.8451 13.7809 18.8346 13.5519 18.7734 13.4999C18.7123 13.4479 18.5993 13.4065 18.5617 13.5178C18.5242 13.6292 18.6402 13.9783 18.564 14.0198C18.5542 14.0251 18.5444 14.0302 18.5346 14.0349C18.2102 14.1914 17.8407 14.0463 17.4956 14.0707C17.4429 14.0744 17.5064 14.1958 17.4302 14.2105C17.1491 14.2651 16.6803 14.4631 16.3917 14.2297C16.1604 14.0427 16.3812 13.8371 16.2169 13.7722C16.1377 13.7414 16.1257 14.1706 16.1103 14.1865C15.9607 14.347 15.8125 14.1813 15.6678 14.2625C15.6379 14.2793 15.696 14.4432 15.6702 14.4557C15.5826 14.4997 15.4735 14.4398 15.3875 14.4676C15.349 14.4805 15.3768 14.6083 15.3388 14.6042C15.2481 14.5957 15.1625 14.5538 15.0582 14.4464C15.0487 14.4367 15.0754 14.2679 15.0099 14.2722C14.9041 14.2796 14.7556 14.181 14.6552 14.3233C14.6255 14.366 14.6711 14.6611 14.5621 14.4697C14.5392 14.4297 14.5033 14.0724 14.4629 14.3925C14.456 14.4458 14.3719 14.8822 14.256 14.628C14.2254 14.5611 14.1298 14.2793 14.0942 14.3317C14.0895 14.3398 14.1381 14.4945 14.105 14.5156C13.9882 14.5872 13.8544 14.5912 13.7338 14.6613C13.7016 14.6803 13.7789 14.836 13.7301 14.8592C13.5961 14.923 13.4138 14.9093 13.2681 14.8799C13.2143 14.8688 13.2277 14.7275 13.2217 14.7133C13.1241 14.4825 13.1407 14.8124 13.124 14.8344C13.0196 14.9672 12.902 14.8297 12.7956 14.888C12.7661 14.9037 12.8129 15.0548 12.8089 15.0696C12.8076 15.0738 12.8064 15.0777 12.8052 15.0812C12.7662 15.1981 12.7683 14.9285 12.7241 14.9051C12.5962 14.8366 12.471 14.8693 12.3589 14.9074C12.3177 14.9217 12.3939 15.0934 12.3566 15.1041C12.1365 15.1709 11.8998 15.191 11.6645 15.1272C11.6201 15.1148 11.6241 14.9726 11.6105 14.9424C11.5159 14.7313 11.4768 15.0461 11.4614 15.078C11.3911 15.2234 11.3363 15.1069 11.2595 15.1425C10.8847 15.3186 10.3866 15.3151 10.0078 15.3243C9.51422 15.337 9.11825 15.2655 8.6628 15.3731C8.63382 15.3797 8.69264 15.5587 8.66804 15.5668C8.34909 15.663 8.01669 15.6424 7.69849 15.7476C7.67232 15.7559 7.73872 15.9238 7.69766 15.943C7.61363 15.9835 7.50033 15.9919 7.40224 15.9505C7.35444 15.9307 7.389 15.772 7.34138 15.755C7.23045 15.7153 7.11913 15.7203 7.0188 15.7649C7.01858 15.765 7.01835 15.7651 7.01813 15.7653C6.97719 15.7861 7.07152 15.9517 7.0142 15.9629C6.62224 16.0436 6.23941 16.136 5.80371 15.969C5.77383 15.9575 5.69214 15.5994 5.64505 15.6781C5.65669 15.7793 5.67576 15.8974 5.69096 16.005C5.12548 16.1545 4.53665 16.1197 3.95724 16.1922C3.93282 16.1953 4.00539 16.3804 3.95826 16.3873C3.68553 16.4279 3.42961 16.5232 3.12071 16.377C3.09011 16.3627 3.0505 16.0231 2.9772 16.0871C2.96432 16.0987 2.84885 16.1633 2.82881 16.2415C2.82627 16.2533 2.87375 16.4072 2.83496 16.4181C2.6091 16.4786 2.36269 16.481 2.11808 16.4214C2.07855 16.4114 2.09122 16.2375 2.06284 16.2289C1.8617 16.1697 1.67867 16.3296 1.47576 16.2058C1.33984 16.1224 1.3379 15.8254 1.22887 15.5502C1.21347 15.5114 1.1384 15.5168 1.10811 15.3514C1.03173 14.9356 0.994722 14.4727 0.90907 14.0301C0.890682 13.9348 0.807974 14.0538 0.829763 13.8129C0.831394 13.7967 0.891035 13.7084 0.896217 13.627C0.899886 13.5707 0.850754 13.4054 0.864823 13.3319C0.8789 13.2584 0.929101 13.3955 0.957779 13.3071C0.986278 13.2178 0.93733 13.0286 1.01695 12.9926ZM24.245 12.0256C24.1535 11.8748 24.2379 12.4671 24.2866 12.3144C24.2888 12.3064 24.2497 12.033 24.245 12.0256ZM32.1938 10.6628C32.0662 10.4159 32.0684 10.8084 32.1612 11C32.2539 11.1913 32.2326 10.7376 32.1938 10.6628ZM33.0558 10.3303C32.9225 10.1409 33.0402 10.9811 33.1209 10.7946C33.1256 10.784 33.0636 10.3413 33.0558 10.3303ZM1.51059 15.422C1.50843 15.4143 1.45398 15.4152 1.45395 15.4231C1.45552 15.6153 1.56436 15.6135 1.51059 15.422ZM33.9082 9.98202C33.8588 9.87371 33.7892 10.0189 33.8507 10.1536C33.9002 10.262 33.9698 10.1167 33.9082 9.98202ZM20.711 11.9425C20.7085 11.9339 20.6691 11.9321 20.6778 11.9817C20.706 12.1415 20.7519 12.0878 20.711 11.9425ZM35.4116 9.73246C35.1842 9.73637 34.9391 9.0659 35.1937 9.10538C35.2398 9.11252 35.1344 9.34111 35.2001 9.3946C35.3204 9.49197 35.3189 9.04669 35.4602 9.26289C35.4859 9.3025 35.4248 9.73377 35.4114 9.73349C35.4115 9.73314 35.4115 9.7328 35.4116 9.73246ZM24.094 11.3221C24.0914 11.3145 24.0374 11.3155 24.0374 11.3235C24.0387 11.5156 24.1475 11.5137 24.094 11.3221ZM18.4261 11.9323C18.4205 11.9161 18.2955 11.92 18.2939 11.936C18.2788 12.2529 18.5318 12.2458 18.4261 11.9323ZM27.5827 10.3227C27.6102 10.1248 27.6756 10.0916 27.7594 10.3212C27.7001 10.3178 27.6421 10.3251 27.5827 10.3227ZM5.96019 26.9951C6.1358 26.9102 6.38817 26.921 6.58607 26.9627C6.64805 26.9756 6.63778 27.0852 6.68142 27.0987C6.76674 27.1251 6.83006 27.0608 6.91587 27.0951C6.94441 27.1069 6.94267 27.2779 6.9719 27.2866C7.13186 27.333 7.26298 27.2656 7.41796 27.2738C8.1814 27.314 8.91215 27.2452 9.66672 27.1857C9.9155 27.166 10.2397 27.262 10.4801 27.1505C10.5082 27.1373 10.4642 26.9955 10.4677 26.9825C10.5223 26.7836 10.5463 27.0817 10.6108 27.1101C10.8665 27.2223 11.1222 27.1896 11.3312 27.0938C11.3325 27.0932 11.3337 27.0926 11.3349 27.0919C11.416 27.045 11.276 26.7836 11.3975 26.9261C11.406 26.9359 11.4104 27.0942 11.4389 27.106C11.5036 27.1323 11.6087 27.0848 11.6559 27.0888C11.7469 27.0974 11.761 27.0932 11.8432 27.0801C11.9559 27.0635 12.1031 27.1158 12.2169 27.059C12.2411 27.0465 12.1785 26.8948 12.2145 26.8605C12.2506 26.8262 12.3613 26.8199 12.4046 26.8505C12.4479 26.8811 12.4549 27.008 12.4666 27.0352C12.5634 27.2656 12.6283 26.9104 12.6429 26.8992C12.9114 26.7057 13.1979 26.8492 13.4738 26.7985C13.6831 26.7596 13.8958 26.6564 14.0967 26.6287C14.3361 26.5963 14.5529 26.6453 14.781 26.5886C14.8051 26.5828 14.7428 26.4024 14.7721 26.3949C15.0842 26.3159 15.4016 26.2791 15.7389 26.3472C15.7728 26.3542 15.7618 26.5246 15.7974 26.5413C16.0147 26.6401 16.3786 26.9064 16.3642 26.176C16.4999 26.1799 16.6638 26.1797 16.8068 26.3014C16.8856 26.3685 16.867 26.5179 16.9094 26.5016C16.9165 26.4989 16.9254 26.4914 16.9368 26.4781C16.9546 26.4574 16.8992 26.3068 16.9281 26.2876C17.0496 26.2067 17.2029 26.231 17.3188 26.127C17.3423 26.1054 17.3097 25.9674 17.3127 25.941C17.3389 25.7263 17.5052 26.043 17.5326 26.0633C17.7403 26.2135 17.8548 26.1187 18.0183 26.0936C18.0563 26.0878 17.9776 25.9088 18.0129 25.8965C18.1965 25.8355 18.3946 25.816 18.5942 25.8655C18.6387 25.877 18.6299 26.0433 18.6527 26.0569C18.7526 26.1151 18.717 25.8105 18.8118 25.8605C18.8317 25.8706 18.8466 26.0089 18.8525 26.0233C18.9452 26.2495 18.928 25.9082 18.9395 25.8985C19.0836 25.7685 19.2507 26.0976 19.3986 26.0198C19.4163 26.0101 19.3425 25.8451 19.394 25.8286C19.7369 25.717 20.1172 25.6968 20.4903 25.7717C20.5482 25.7831 20.5332 25.9198 20.5395 25.9352C20.6404 26.1749 20.6154 25.8337 20.6308 25.8178C20.7534 25.7018 20.9345 25.9589 20.9565 25.543C21.4496 25.568 21.8985 25.3601 22.3921 25.4067C22.5137 25.4181 22.638 25.445 22.7663 25.4946C22.7745 25.4974 22.7911 25.6647 22.8073 25.6695C23.0027 25.7296 22.9218 25.4796 22.9829 25.1448C22.9984 25.0607 23.1577 25.4226 23.1707 25.4488C23.2185 25.5457 23.2328 25.7965 23.2462 25.8145C23.3553 25.9552 23.1946 25.1465 23.3037 25.1264C23.3073 25.1271 23.3201 25.279 23.332 25.2922C23.3689 25.3337 23.3863 25.2692 23.4235 25.3155C23.5088 25.4229 23.6032 25.8129 23.6587 25.5658C23.6656 25.5338 23.5632 25.0771 23.6645 25.0811C23.705 25.0831 23.8754 25.044 23.929 25.0651C23.9825 25.0861 23.9764 25.2404 23.981 25.2462C24.1463 25.4187 24.1119 25.5089 24.2296 25.7873C24.3471 26.0647 24.2037 25.3783 24.2162 25.2965C24.2287 25.2149 24.3532 25.3594 24.3867 25.4114C24.4203 25.4634 24.4083 25.5629 24.4349 25.591C24.6103 25.7739 24.433 25.2376 24.4585 25.1199C24.5182 24.8413 24.6945 25.3376 24.8015 25.37C24.8304 25.3787 24.7876 25.2661 24.8092 25.2509C24.8951 25.1923 24.9802 25.3417 25.0599 25.1761C25.0729 25.1491 25.1029 24.8259 25.1995 25.0415C25.2133 25.0726 25.2141 25.2041 25.2591 25.2255C25.3264 25.2575 25.4386 25.2659 25.4947 25.2117C25.5362 25.1716 25.4439 24.9714 25.5152 25.0258C25.5468 25.0501 25.5203 25.1819 25.5779 25.2174C25.6354 25.2529 25.7605 25.2245 25.8077 25.2116C25.8548 25.1985 25.7997 25.044 25.8016 25.0325C25.8138 24.9668 25.8918 24.8733 25.9 24.872C26.3062 24.778 26.733 24.9778 27.1158 24.8164C27.1459 24.804 27.0945 24.6398 27.0988 24.6361C27.1932 24.5463 27.1899 25.0083 27.2919 25.1442C27.2191 24.8052 27.2745 24.8589 27.3433 24.8078C27.3763 24.7829 27.3325 24.6545 27.3334 24.6404C27.3509 24.4301 27.4355 24.6822 27.4548 24.7334C27.526 24.9218 27.523 24.6845 27.571 24.8103C27.6188 24.9352 27.5978 25.137 27.6697 25.1214C27.6678 24.9957 27.5561 24.6865 27.6017 24.6248C27.6724 24.5289 27.7873 24.5028 27.91 24.5051C28.0855 24.5084 28.2769 24.5697 28.3778 24.5671C28.549 24.5628 28.5987 24.5305 28.7037 24.557C28.8934 24.6049 28.7862 24.3799 28.8753 24.2518C28.9647 24.1237 29.0175 24.7155 29.056 24.8379C29.0941 24.9602 29.0875 24.8283 29.1192 24.8936C29.1508 24.9589 29.1249 25.0515 29.1745 25.0692C29.2241 25.0868 29.3065 24.8419 29.2986 24.7081C29.2818 24.4248 29.1736 24.1438 29.311 24.2245C29.319 24.2293 29.3246 24.3864 29.3536 24.3971C29.583 24.4772 29.8003 24.4452 30.0269 24.5117C30.0581 24.5211 30.0635 24.696 30.082 24.7034C30.2749 24.7809 30.1609 24.505 30.1977 24.1687C30.2536 24.5971 30.3533 24.8473 30.4851 24.8259C30.5644 24.8132 30.5171 24.6303 30.5444 24.4903C30.5525 24.4481 30.6316 24.5653 30.6258 24.4762C30.6074 24.1852 30.4967 23.8757 30.6553 23.9781C30.6623 23.983 30.6718 24.1425 30.694 24.1482C30.838 24.1859 30.7996 23.8849 30.9365 23.8227C31.0438 23.7739 31.2769 23.9194 31.4103 23.9257C31.4944 24.4034 31.5954 24.2722 31.5847 23.9342C31.6702 23.9325 31.7566 23.8976 31.8452 23.9285C31.8756 23.939 31.8826 24.0805 31.8888 24.0948C31.9848 24.3193 31.9627 23.9925 31.9784 23.9767C32.1506 23.8194 32.3531 24.0332 32.4955 23.7624C32.5005 23.7526 32.4509 23.4191 32.5445 23.6522C32.5508 23.6683 32.5169 23.8303 32.6063 23.8261C32.6957 23.8219 32.8926 23.9697 32.9858 23.7941C33.0084 23.7517 33.0336 23.4691 33.1314 23.6686C33.1445 23.6957 33.1531 23.7923 33.1742 23.8432C33.2419 24.005 33.2011 23.6663 33.2964 23.943C33.3727 24.1647 33.4708 24.335 33.5512 24.2818C33.5712 24.2685 33.5902 24.2415 33.6074 24.1979C33.6102 24.1915 33.5909 23.9206 33.6301 23.9179C33.6927 23.9136 33.7898 23.9531 33.8536 23.9398C33.8841 23.9333 33.8345 23.7719 33.8392 23.7679C34.0287 23.638 34.2022 23.7583 34.4347 23.782C34.4774 23.7866 34.5529 23.5406 34.6636 23.7041C34.7851 23.8831 34.8438 24.7089 35.0066 24.48C35.0724 24.3883 34.9867 23.3428 35.2269 23.8489C35.481 23.6664 35.7878 23.892 36.0325 23.653C36.0435 23.6424 36.0311 23.3485 36.0613 23.347C36.1062 23.3454 36.1546 23.475 36.1875 23.4782C36.3258 23.4947 36.4248 23.3583 36.5544 23.3532C36.6035 23.3509 36.6119 23.4925 36.6705 23.4899C36.7291 23.4871 36.734 23.2977 36.8275 23.3718C36.8982 23.4283 37.0245 23.7905 37.11 23.8199C37.0461 23.4515 37.1008 23.4494 37.1779 23.3351C37.1927 23.3129 37.1499 23.1885 37.1557 23.1714C37.1788 23.099 37.2305 23.1992 37.2508 23.1213C37.2557 23.1026 37.2333 22.9769 37.236 22.9545C37.2587 22.7593 37.4029 23.025 37.4278 23.0713C37.5228 23.247 37.5216 23.0785 37.5819 23.1435C37.642 23.2086 37.5888 23.3133 37.6515 23.348C37.7816 23.4197 37.9234 23.373 38.0394 23.3578C38.0856 23.351 38.0238 23.189 38.0297 23.1842C38.1169 23.1244 38.2453 23.2853 38.2372 22.9417C38.46 23.7934 38.2791 22.8476 38.4462 22.9958C38.4594 23.0078 38.5473 23.4138 38.5172 23.4812C38.487 23.5485 38.4016 23.4322 38.3617 23.536C38.3522 23.5604 38.3446 23.9571 38.3383 23.9822C38.2887 24.1784 38.166 23.5702 38.1556 23.5375C38.0403 23.1847 38.0209 23.6142 38.0013 23.6472C37.9114 23.7984 37.7992 23.7301 37.7211 23.8406C37.6699 23.9121 37.7365 24.3129 37.6854 24.3096C37.5158 24.2986 37.3577 23.7513 37.2927 24.2626C37.2787 24.3717 37.3907 24.8027 37.2107 24.4805C37.1994 24.4602 37.055 24.1617 37.0408 24.3697C37.039 24.3959 37.0624 24.5232 37.056 24.5354C37.0126 24.6148 36.9568 24.5201 36.9047 24.5798C36.8526 24.6395 36.7925 24.7252 36.7151 24.6947C36.6684 24.6765 36.5715 24.449 36.5408 24.3946C36.4537 24.2376 36.4429 24.523 36.3709 24.3267C36.2985 24.1295 36.3115 23.8077 36.1947 23.693C36.2514 24.0245 36.3052 24.3655 36.3602 24.6992C36.1546 24.7245 35.9349 24.6539 35.7334 24.7057C35.7085 24.7124 35.7667 24.8856 35.7408 24.8974C35.6314 24.9465 35.5084 24.8379 35.3988 24.9099C35.3142 24.9664 35.2476 25.173 35.1602 25.2379C35.0326 24.8701 34.9134 25.0245 34.8035 25.0087C34.765 25.0034 34.7491 24.9018 34.7173 24.8736C34.5977 24.7693 34.7042 25.0955 34.6871 25.153C34.6134 25.3985 34.4659 24.6431 34.3343 24.6864C34.3273 24.6884 34.3133 25.1079 34.3058 25.1352C34.2591 25.313 34.2676 24.997 34.2143 24.9759C34.1169 24.9373 34.0387 24.852 33.9576 24.9888C33.934 25.0293 33.908 25.2939 33.8146 25.1099C33.8023 25.0858 33.7822 24.9516 33.7747 24.9449C33.7142 24.8956 33.6955 24.9527 33.6899 25.0446C33.683 25.1577 33.696 25.3235 33.6752 25.4082C33.6373 25.5617 33.4864 25.2902 33.4513 25.2104C33.3597 25.0042 33.4746 25.1109 33.4736 25.0893C33.4611 24.8312 33.3973 24.8877 33.3386 24.8763C33.256 24.4667 33.1839 24.5053 33.2782 24.8662C33.2886 24.9056 33.3242 24.8595 33.3386 24.8763C33.3639 25.2883 33.2891 25.3553 33.1276 24.9953C33.052 24.8266 33.0557 24.6132 32.9372 24.7126C32.8834 24.7575 32.958 25.0363 32.9191 25.1231C32.8302 25.3211 32.625 25.0857 32.5078 25.15C32.4653 25.1733 32.5376 25.3202 32.5095 25.3415C32.4351 25.3984 32.3415 25.2954 32.2699 25.3699C32.2635 25.3768 32.3112 25.5357 32.2859 25.5424C32.095 25.5966 31.9069 25.5235 31.7035 25.5575C31.6052 25.574 31.4462 25.6953 31.3413 25.6958C31.1598 25.6976 30.9004 25.5012 30.7605 25.5858C30.669 25.6403 30.7201 25.7986 30.6981 25.9167C30.656 26.1457 30.4427 25.7881 30.4125 25.7322C30.4116 25.7303 30.489 25.6767 30.4289 25.6017C30.3711 25.4329 30.4133 25.7312 30.4125 25.7322C30.3929 25.6961 30.2176 25.6899 30.1897 25.727C30.1746 25.7473 30.2127 25.8991 30.2043 25.9067C30.0039 26.0853 29.7852 26.1654 29.5435 26.1351C29.5389 26.1327 29.5137 25.9597 29.5033 25.9563C29.357 25.9039 29.3105 26.1296 29.224 26.2743C29.1376 26.419 29.0434 26.3929 28.9251 26.1095C28.8495 26.1617 28.7077 26.0527 28.6253 25.9859C28.5429 25.9191 28.5942 26.2554 28.5895 26.2631C28.4809 26.4432 28.3752 26.3989 28.2481 26.3645C28.2018 26.352 28.1528 26.3408 28.0996 26.3423C28.0049 26.3443 27.8312 26.426 27.7382 26.4807C27.6648 26.5245 27.6031 26.4547 27.5396 26.518C27.531 26.5265 27.568 26.6737 27.5661 26.68C27.5175 26.873 27.4902 26.5017 27.4617 26.4397C27.358 26.2141 27.2977 26.095 27.2142 26.2251C27.1949 26.2549 27.2206 26.792 27.1825 26.8306C27.1329 26.8798 27.1201 26.688 27.069 26.7443C27.0646 26.7489 27.0868 26.8647 27.0492 26.8663C26.8751 26.875 26.6774 26.8412 26.5028 26.885C26.4788 26.8905 26.5432 27.0688 26.5092 27.0798C26.3495 27.1314 26.1689 27.1572 25.9937 27.1001C25.9505 27.0855 25.9517 26.9522 25.9363 26.9155C25.8419 26.6937 25.8288 27.0433 25.8177 27.052C25.5552 27.2666 25.2764 27.003 25.0052 27.2019C24.9905 27.2134 24.9314 27.5964 24.8195 27.2975C24.812 27.2776 24.6995 26.9714 24.6901 27.1964C24.6895 27.2105 24.7534 27.3671 24.6906 27.3614C24.6277 27.3557 24.5512 27.4819 24.4364 27.318C24.4001 27.2664 24.2812 26.9621 24.2492 27.2277C24.2473 27.2462 24.2308 27.8366 24.1167 27.4521C24.098 27.3888 24.0298 26.9723 23.9757 27.202C23.9655 27.2465 24.0145 27.3332 23.9784 27.3995C23.9231 27.5017 23.8081 27.4077 23.7538 27.6086C23.7444 27.6441 23.7304 27.9378 23.6392 27.7334C23.6249 27.7014 23.6153 27.56 23.5848 27.5495C23.4398 27.499 23.319 27.6167 23.1681 27.5451C23.1147 27.52 23.0981 27.2916 23.0379 27.2405C22.9777 27.1894 22.8679 27.1498 22.835 27.2615C22.802 27.3733 22.9233 27.7202 22.8512 27.7628C22.842 27.7683 22.8327 27.7734 22.8233 27.7783C22.516 27.9393 22.1569 27.7999 21.8259 27.8293C21.7754 27.8338 21.8398 27.9541 21.767 27.9699C21.4984 28.0285 21.0534 28.2332 20.7695 28.0043C20.542 27.821 20.7485 27.6125 20.5887 27.5501C20.5118 27.5205 20.5123 27.9492 20.4979 27.9653C20.3586 28.1278 20.2116 27.9646 20.0748 28.0477C20.0465 28.065 20.1069 28.2278 20.0825 28.2406C19.9995 28.2859 19.8931 28.2276 19.8112 28.2567C19.7745 28.2701 19.8049 28.3974 19.7682 28.3938C19.6808 28.3867 19.5973 28.3461 19.4942 28.2404C19.4848 28.2308 19.5056 28.0618 19.4429 28.0671C19.3414 28.0761 19.1959 27.9798 19.1034 28.1234C19.0761 28.1665 19.1281 28.4604 19.018 28.2709C18.995 28.2313 18.9504 27.8751 18.9205 28.1953C18.9154 28.2486 18.8468 28.6857 18.7283 28.4335C18.6971 28.3671 18.5973 28.0871 18.5645 28.1399C18.5603 28.1482 18.6112 28.3019 18.5801 28.3235C18.4698 28.3967 18.3413 28.4027 18.2274 28.4744C18.197 28.4939 18.2756 28.6483 18.2294 28.6721C18.1024 28.7378 17.9269 28.7268 17.786 28.6996C17.734 28.6893 17.743 28.548 17.7368 28.5339C17.6365 28.3048 17.6617 28.634 17.6463 28.6563C17.5496 28.7904 17.4328 28.6548 17.3321 28.7146C17.3043 28.7307 17.3534 28.881 17.35 28.8958C17.3489 28.9 17.3478 28.9039 17.3468 28.9075C17.3126 29.0247 17.3071 28.7555 17.2639 28.7328C17.1391 28.6662 17.0198 28.7007 16.913 28.7405C16.8738 28.7553 16.9519 28.9257 16.9163 28.9369C16.7067 29.0068 16.4798 29.0304 16.2519 28.9701C16.2089 28.9584 16.2088 28.8164 16.1948 28.7864C16.098 28.577 16.0693 28.8919 16.0553 28.924C15.9919 29.0702 15.9359 28.9547 15.8631 28.9914C15.5078 29.1728 15.0291 29.1766 14.6653 29.1913C14.1914 29.2113 13.8089 29.1457 13.3742 29.2598C13.3465 29.2669 13.4081 29.4448 13.3846 29.4532C13.0808 29.554 12.7608 29.5383 12.458 29.648C12.4331 29.6567 12.5016 29.8234 12.4626 29.8432C12.383 29.8849 12.2744 29.8949 12.179 29.8551C12.1325 29.8359 12.1613 29.6769 12.115 29.6607C12.0073 29.6227 11.9005 29.6293 11.8053 29.6754C11.8051 29.6755 11.8049 29.6756 11.8047 29.6757C11.7659 29.6971 11.8612 29.8611 11.8064 29.8732C11.432 29.9594 11.0667 30.0574 10.6433 29.897C10.6143 29.886 10.5258 29.5296 10.4827 29.6089C10.4967 29.7097 10.5184 29.8274 10.536 29.9347C9.99675 30.0922 9.42993 30.0662 8.87516 30.1471C8.85177 30.1505 8.92668 30.3343 8.88159 30.3419C8.62064 30.3865 8.37736 30.4854 8.07644 30.3439C8.04663 30.3301 7.99908 29.9916 7.93043 30.0565C7.91837 30.0683 7.80921 30.1345 7.79214 30.213C7.79003 30.2247 7.83995 30.3777 7.80298 30.3892C7.58763 30.4529 7.3509 30.459 7.11417 30.403C7.07591 30.3936 7.08322 30.2197 7.05571 30.2116C6.86076 30.1554 6.68934 30.3178 6.49089 30.1972C6.35794 30.1158 6.34778 29.8194 6.23532 29.5461C6.21943 29.5076 6.14745 29.5141 6.11371 29.3494C6.02869 28.9352 5.98019 28.4735 5.88552 28.0328C5.86518 27.9378 5.78903 28.0579 5.80323 27.817C5.80435 27.8008 5.85919 27.7117 5.8619 27.6304C5.86385 27.5741 5.81202 27.4098 5.82348 27.3361C5.83496 27.2625 5.88703 27.3987 5.91212 27.3101C5.93701 27.2204 5.88469 27.0323 5.96019 26.9951ZM28.2548 25.6878C28.1626 25.5385 28.2603 26.1287 28.3028 25.9755C28.3047 25.9674 28.2595 25.695 28.2548 25.6878ZM35.8553 24.2098C35.7258 23.9652 35.7389 24.3571 35.8334 24.547C35.9279 24.7368 35.8947 24.2839 35.8553 24.2098ZM36.6744 23.8651C36.541 23.6779 36.6776 24.5152 36.7499 24.3278C36.7542 24.3172 36.6822 23.876 36.6744 23.8651ZM6.50246 29.4139C6.50016 29.4063 6.44787 29.4079 6.44806 29.4159C6.45494 29.6077 6.55948 29.6043 6.50246 29.4139ZM37.4838 23.5048C37.4333 23.3973 37.3705 23.5434 37.4333 23.677C37.4839 23.7845 37.5467 23.6384 37.4838 23.5048ZM24.8564 25.6568C24.8538 25.6482 24.8158 25.6469 24.8256 25.6963C24.8571 25.8556 24.8997 25.8013 24.8564 25.6568ZM38.9216 23.2334C38.7032 23.2407 38.4489 22.5747 38.6946 22.6104C38.7391 22.6169 38.6442 22.8467 38.7089 22.8992C38.8271 22.9946 38.8133 22.55 38.9552 22.7638C38.9809 22.803 38.9343 23.2346 38.9214 23.2345C38.9214 23.2341 38.9215 23.2338 38.9216 23.2334ZM28.09 24.9874C28.0873 24.9799 28.0355 24.9817 28.0356 24.9896C28.0423 25.1814 28.1468 25.1779 28.09 24.9874ZM22.6603 25.6801C22.6545 25.664 22.5345 25.6698 22.5334 25.6858C22.5278 26.0025 22.7707 25.9916 22.6603 25.6801ZM31.4146 23.938C31.4356 23.74 31.4975 23.7059 31.5844 23.934C31.5273 23.9314 31.4718 23.9396 31.4146 23.938ZM16.9826 0.500088C17.1522 0.701982 17.3211 1.12807 17.3868 1.40852C17.4131 1.5063 17.296 1.51311 17.3106 1.58395C17.3413 1.72648 17.4485 1.8146 17.4587 1.93593C17.4629 1.97879 17.2918 2.01571 17.2996 2.05889C17.3441 2.2957 17.4928 2.47941 17.5881 2.72923C18.0039 3.86169 18.527 4.95665 19.0311 6.04653C19.1261 6.24938 19.1934 6.4751 19.2737 6.69306C19.3468 6.8908 19.4328 7.08626 19.5553 7.24624C19.5857 7.28561 19.7014 7.18968 19.7165 7.1921C19.95 7.23264 19.6651 7.33145 19.6762 7.435C19.7299 7.86198 19.8992 8.20318 20.1247 8.50036C20.2195 8.62393 20.4035 8.34882 20.3329 8.56354C20.3282 8.57832 20.1719 8.61834 20.1774 8.66353C20.19 8.76575 20.3019 8.91391 20.327 8.98624C20.3744 9.12592 20.3873 9.14645 20.4517 9.26924C20.5352 9.43182 20.5683 9.6567 20.6931 9.81307C20.7201 9.84612 20.8349 9.72101 20.8907 9.76688C20.9465 9.81273 21.0191 9.97583 21.0146 10.0469C21.0099 10.118 20.8867 10.1553 20.8664 10.1785C20.6933 10.3715 21.0896 10.3941 21.1098 10.4139C21.4737 10.7882 21.4907 11.2251 21.7088 11.6284C21.8726 11.9306 22.1073 12.2321 22.2557 12.5259C22.3359 12.6857 22.3962 12.8427 22.4571 12.9979C22.5276 13.1778 22.5988 13.3552 22.7028 13.5317C22.7231 13.5665 22.8669 13.4356 22.8921 13.4779C23.1614 13.9322 23.3853 14.3923 23.518 14.9085C23.5311 14.9604 23.3535 14.9798 23.358 15.0363C23.3882 15.3804 23.3392 15.9807 24.0649 15.8079C24.1413 16.0099 24.2386 16.253 24.2013 16.4913C24.1774 16.6448 23.9615 16.6238 24.1013 16.7217C24.1327 16.7439 24.2508 16.6299 24.2873 16.6689C24.4409 16.8329 24.5078 17.0667 24.6815 17.2183C24.7172 17.2489 24.8364 17.1715 24.8647 17.1705C25.0961 17.1651 24.8772 17.4796 24.8732 17.5248C24.846 17.8661 25.0088 18.0161 25.1311 18.2547C25.1594 18.31 25.2926 18.1556 25.3258 18.2056C25.4961 18.4665 25.6333 18.758 25.702 19.0661C25.7169 19.1349 25.5447 19.1563 25.5445 19.193C25.5448 19.2641 25.6004 19.2812 25.663 19.2912C25.7423 19.3038 25.8328 19.3049 25.8362 19.3898C25.8378 19.4216 25.7078 19.4725 25.6968 19.4843C25.5246 19.6695 25.8572 19.5732 25.8738 19.5884C26.09 19.7767 25.8583 20.0941 26.0241 20.2988C26.0442 20.3231 26.1663 20.179 26.2135 20.2524C26.5285 20.7409 26.7725 21.3026 26.9188 21.8774C26.9415 21.9664 26.7952 21.9719 26.7835 21.9845C26.6021 22.1844 26.9304 22.0771 26.9553 22.0968C27.1443 22.2562 26.9923 22.5786 27.423 22.5259C27.7548 23.4523 28.4051 24.1957 28.5349 25.2216C28.5369 25.2344 28.3783 25.293 28.383 25.3183C28.4374 25.6236 28.6413 25.452 29.014 25.4762C29.0288 25.4772 29.0345 25.4858 29.0334 25.4998C29.0279 25.5738 28.8334 25.797 28.8176 25.8178C28.7479 25.9085 28.5041 25.9805 28.4937 26.004C28.4155 26.1948 29.1354 25.7923 29.2186 25.9501C29.2199 25.9557 29.0747 26.0055 29.0683 26.0257C29.0479 26.0889 29.1227 26.1016 29.0975 26.166C29.0389 26.3144 28.7006 26.5318 28.9814 26.5653C29.0178 26.5695 29.4174 26.3245 29.4735 26.4792C29.4957 26.5412 29.6356 26.7912 29.6457 26.8758C29.6559 26.9605 29.4969 26.9819 29.4938 26.9899C29.4167 27.2724 29.3058 27.2386 29.094 27.4703C28.8831 27.7012 29.4906 27.3501 29.5801 27.3524C29.6695 27.355 29.5959 27.5693 29.5629 27.6295C29.5299 27.6898 29.423 27.692 29.41 27.737C29.3265 28.0339 29.7641 27.6633 29.8969 27.6774C30.2117 27.711 29.8108 28.0666 29.8419 28.2366C29.8503 28.2824 29.9385 28.1955 29.9666 28.2255C30.0766 28.3452 29.9761 28.5035 30.1896 28.5916C30.2245 28.6061 30.5676 28.5885 30.4063 28.7756C30.383 28.8024 30.251 28.8294 30.2555 28.901C30.2621 29.0082 30.3179 29.1771 30.4042 29.2495C30.468 29.303 30.617 29.1266 30.6026 29.2429C30.5961 29.2946 30.4486 29.2815 30.4456 29.3739C30.4424 29.4659 30.5408 29.6442 30.5799 29.7104C30.6208 29.7797 30.7444 29.6664 30.7571 29.667C30.8309 29.6737 30.9716 29.7758 30.9776 29.788C31.3176 30.403 31.3343 31.0325 31.7299 31.6083C31.7598 31.6516 31.896 31.543 31.9022 31.5488C32.0469 31.675 31.5787 31.7564 31.4997 31.9359C31.8002 31.7624 31.7776 31.8563 31.8676 31.9492C31.8867 31.9687 31.9173 31.9626 31.9471 31.9494C31.9564 31.9453 31.9656 31.9405 31.9743 31.9355C32.0017 31.92 32.0245 31.9033 32.0308 31.9027C32.0338 31.9025 32.0368 31.9023 32.0397 31.9022C32.2467 31.8937 32.0449 32.0631 32.0045 32.1009C31.8542 32.2423 32.0912 32.1921 31.9909 32.2869C31.8914 32.3812 31.6771 32.3895 31.7318 32.4917C31.8571 32.4646 32.1073 32.2412 32.1939 32.2958C32.524 32.5066 32.5967 33.2158 32.6889 33.4594C32.7841 33.7086 32.842 33.7735 32.8783 33.9468C32.9386 34.2503 33.1052 34.0452 33.2849 34.1599C33.4638 34.2733 32.8942 34.4564 32.7917 34.5361C32.6889 34.615 32.8184 34.5817 32.7695 34.6406C32.7206 34.6993 32.6133 34.6774 32.622 34.7544C32.6309 34.8317 32.92 34.907 33.0503 34.8706C33.3265 34.7939 33.5541 34.5863 33.5425 34.7989C33.5418 34.8114 33.3863 34.8476 33.3909 34.8929C33.445 35.2764 33.5942 35.6024 33.6357 35.9363C33.6411 35.9822 33.468 36.0212 33.4693 36.0487C33.4974 36.3664 33.7162 36.1467 34.0791 36.1566C33.6726 36.306 33.4737 36.5029 33.5602 36.6956C33.6113 36.8103 33.7732 36.7114 33.9271 36.7284C33.9735 36.7336 33.891 36.8644 33.9778 36.8413C34.2635 36.7702 34.5202 36.5498 34.5044 36.8297C34.5032 36.8419 34.3446 36.8757 34.3508 36.9132C34.3876 37.1508 34.6759 37.0534 34.7986 37.2471C34.9028 37.4218 34.8752 37.828 34.9336 38.1366C34.434 38.2615 34.6479 38.1996 34.9286 38.7175C34.9119 38.8591 34.6366 38.9374 34.5002 38.9025C34.3843 38.8981 34.2684 38.9004 34.1545 38.8596C34.1114 38.8427 34.1437 38.7031 34.1386 38.6877C34.0615 38.4474 33.9832 38.7705 33.9535 38.7823C33.6269 38.8959 33.3775 38.6399 33.0632 38.8692C33.0532 38.8776 33.0163 39.2134 32.9489 38.9646C32.9444 38.9474 33.0481 38.798 32.909 38.7808C32.8148 38.7689 32.6414 38.6716 32.4935 38.665C32.4266 38.662 32.359 38.6757 32.2958 38.7204C32.2433 38.7559 32.1119 39.0245 32.0239 38.807C32.0121 38.7775 32.0302 38.6815 32.0136 38.627C31.9599 38.4533 31.9128 38.7923 31.8519 38.5003C31.787 38.208 31.6546 37.9858 31.4432 38.1769C31.4365 38.1824 31.3775 38.4502 31.3133 38.4433C31.2118 38.432 31.0742 38.37 30.9676 38.3674C30.9168 38.3662 30.9423 38.535 30.9334 38.5377C30.767 38.5753 30.6336 38.5596 30.4938 38.5239C30.3382 38.4842 30.183 38.4199 29.9937 38.3777C29.9284 38.3627 29.7237 38.5828 29.6045 38.3968C29.4715 38.1931 29.6526 37.3772 29.3181 37.5591C29.1828 37.6318 28.9729 38.6678 28.7596 38.1171C28.6729 38.1384 28.5882 38.1455 28.5046 38.144C28.1409 38.1374 27.7974 37.9682 27.4171 38.1074C27.3961 38.1149 27.3179 38.4032 27.2697 38.3971C27.1981 38.3875 27.1647 38.2497 27.114 38.2385C26.9007 38.1883 26.6993 38.2944 26.495 38.269C26.4937 38.2689 26.4923 38.2687 26.491 38.2685C26.4115 38.2584 26.4455 38.119 26.3512 38.1069C26.2573 38.095 26.1864 38.2775 26.0647 38.1825C25.9717 38.1101 25.8894 37.727 25.7644 37.6773C25.7424 38.0505 25.6574 38.039 25.4967 38.1307C25.4654 38.1485 25.4923 38.2799 25.4772 38.295C25.4154 38.3594 25.3663 38.2493 25.3082 38.3198C25.2941 38.3367 25.2878 38.4642 25.276 38.4852C25.174 38.6689 25.0409 38.3755 25.0126 38.3242C24.9185 38.1299 24.8641 38.2937 24.7909 38.2156C24.7182 38.1375 24.836 38.0492 24.7494 37.9999C24.6785 37.9584 24.5913 37.9352 24.5037 37.9216C24.3742 37.9016 24.2586 37.9023 24.1373 37.8934C24.0606 37.8884 24.1053 38.061 24.0942 38.0642C23.9364 38.1004 23.7894 37.9123 23.6839 38.2474C23.6115 37.3655 23.5984 38.3288 23.3703 38.1426C23.3535 38.1277 23.3494 37.712 23.4202 37.6542C23.4946 37.5966 23.5895 37.7307 23.6849 37.6399C23.7071 37.6186 23.8545 37.2359 23.8746 37.2132C24.0164 37.0352 24.0067 37.6557 24.0125 37.6901C24.0743 38.0609 24.2582 37.6496 24.2962 37.6224C24.3748 37.5701 24.4485 37.5565 24.5202 37.5517C24.6205 37.5453 24.7124 37.5557 24.8029 37.5047C24.907 37.4481 24.9354 37.0427 25.0161 37.0587C25.2836 37.1118 25.3464 37.6819 25.6242 37.2023C25.6822 37.1 25.648 36.6539 25.8248 37.0113C25.8358 37.0338 25.9656 37.3594 26.0592 37.1612C26.0709 37.1363 26.0765 37.007 26.0906 36.9967C26.1843 36.9304 26.2405 37.0361 26.3429 36.9912C26.4073 36.963 26.4806 36.9255 26.5547 36.9138C26.5994 36.907 26.6408 36.9089 26.6826 36.927C26.7497 36.9563 26.8275 37.2011 26.858 37.2615C26.9437 37.4355 27.0571 37.1614 27.106 37.3697C27.1548 37.579 27.0279 37.888 27.1738 38.0283C27.1941 37.6926 27.2222 37.3484 27.246 37.0109C27.5807 37.0375 27.9042 37.1604 28.2415 37.1602C28.2832 37.1598 28.2485 36.9774 28.2934 36.9724C28.3846 36.9625 28.4687 36.9888 28.5535 37.0141C28.6448 37.0412 28.7368 37.0671 28.8394 37.0449C28.9926 37.011 29.1658 36.8269 29.3261 36.7855C29.4067 37.1741 29.6467 37.0536 29.8147 37.096C29.8743 37.1107 29.8659 37.2132 29.9072 37.2485C30.0625 37.3792 30.0016 37.0363 30.0479 36.9847C30.2466 36.7646 30.2258 37.534 30.4522 37.5245C30.458 37.5244 30.5005 37.4256 30.5444 37.3228C30.5892 37.2176 30.6354 37.1082 30.6459 37.0957C30.7779 36.9345 30.6607 37.2393 30.7375 37.2728C30.8766 37.3341 30.9773 37.4363 31.1492 37.3232C31.2008 37.2897 31.3236 37.0389 31.4151 37.2406C31.4268 37.267 31.4142 37.4022 31.4241 37.4106C31.6032 37.5504 31.6246 37.1249 31.7338 36.9849C31.8409 36.8449 31.9968 37.1456 32.0246 37.2316C32.1017 37.4541 31.9551 37.3225 31.9491 37.3438C31.8834 37.5975 32.0047 37.5583 32.0927 37.5835C32.0891 38.0014 32.2134 37.9813 32.1836 37.6079C32.1803 37.5671 32.1099 37.6032 32.0927 37.5835C32.1852 37.177 32.328 37.1302 32.4666 37.519C32.5059 37.6309 32.4926 37.7519 32.527 37.8129C32.549 37.8513 32.5876 37.8658 32.6724 37.8396C32.7754 37.809 32.7475 37.52 32.8386 37.4451C33.036 37.2737 33.2949 37.552 33.4967 37.5169C33.5731 37.5043 33.5051 37.3443 33.5571 37.3302C33.6885 37.2922 33.8086 37.4146 33.942 37.3583C33.9538 37.353 33.9309 37.1874 33.9705 37.1866C34.1699 37.1808 34.3452 37.2232 34.4995 37.2543C32.118 38.228 33.6342 38.1819 33.2488 38.3006C33.2548 38.3599 33.1207 38.24 33.066 38.0679C33.0154 37.8646 33.0692 37.3955 32.9222 37.2156C32.8266 37.0964 32.69 37.1941 32.5609 37.1824C32.3116 37.1615 32.5635 36.7802 32.6032 36.723C32.6048 36.7216 32.7004 36.8338 32.7448 36.7292C32.8855 36.6141 32.6046 36.7241 32.6032 36.723C32.6292 36.6861 32.5384 36.4072 32.4927 36.3849C32.4651 36.3671 32.3309 36.4485 32.3191 36.4379C32.0474 36.1929 31.8333 35.8427 31.7407 35.4883C31.7408 35.4813 31.9018 35.4129 31.9 35.3973C31.8781 35.1765 31.6256 35.1477 31.4322 35.0431C31.2387 34.9381 31.2114 34.7879 31.4304 34.5549C31.3312 34.4405 31.3724 34.2265 31.394 34.0899C31.4171 33.9566 31.1061 34.0951 31.0958 34.0896C30.7681 33.9166 30.8618 33.6698 30.7405 33.363C30.6799 33.2099 30.5108 32.9857 30.4027 32.8553C30.3766 32.8244 30.362 32.793 30.3513 32.7619C30.3274 32.6924 30.3233 32.6245 30.2545 32.5671C30.2411 32.5558 30.1137 32.6392 30.1062 32.6374C29.8843 32.601 30.2431 32.4898 30.2895 32.4352C30.458 32.2365 30.5438 32.123 30.3638 32.0194C30.3224 31.9954 29.7944 32.1337 29.733 32.0821C29.6535 32.0138 29.8407 31.9602 29.756 31.8965C29.749 31.891 29.6449 31.9463 29.6228 31.8919C29.5189 31.64 29.442 31.3405 29.2975 31.086C29.2781 31.051 29.1354 31.1822 29.1047 31.1331C28.9626 30.9058 28.8233 30.6213 28.7877 30.3624C28.7782 30.296 28.9127 30.271 28.9409 30.2409C29.1109 30.0578 28.7521 30.1081 28.7372 30.0935C28.3735 29.749 28.4738 29.2717 28.1161 28.904C28.0964 28.8849 27.6784 28.8757 27.915 28.65C27.9307 28.6349 28.1742 28.4068 27.9426 28.4381C27.9281 28.4401 27.8074 28.5663 27.7771 28.4719C27.7467 28.3774 27.5757 28.2887 27.6739 28.0843C27.7048 28.0197 27.9417 27.7811 27.6556 27.7855C27.6359 27.7864 27.0316 27.8782 27.3516 27.6298C27.4043 27.589 27.7838 27.404 27.5202 27.3672C27.4693 27.3604 27.4109 27.4518 27.3226 27.4099C27.1883 27.3488 27.2172 27.1608 26.9842 27.1212C26.9431 27.1146 26.6401 27.1536 26.7927 26.9767C26.8166 26.949 26.9532 26.9061 26.9461 26.8587C26.9344 26.779 26.9033 26.708 26.8672 26.6388C26.8011 26.5121 26.7184 26.3916 26.7077 26.236C26.7016 26.1508 26.9217 26.0801 26.9377 25.9795C26.9537 25.8789 26.9287 25.7056 26.7966 25.6781C26.6644 25.6507 26.3871 25.9029 26.3014 25.8026C25.9352 25.3785 25.8683 24.7959 25.636 24.2903C25.6016 24.2153 25.5187 24.3365 25.4597 24.2303C25.2431 23.8415 24.778 23.2245 24.8397 22.7523C24.8894 22.3748 25.2211 22.6405 25.1894 22.389C25.1736 22.2678 24.7428 22.3563 24.7181 22.3382C24.4724 22.1635 24.5505 21.9121 24.3862 21.7254C24.3522 21.6869 24.2242 21.8105 24.197 21.7769C24.1027 21.6627 24.0983 21.4921 24.0208 21.3762C23.9856 21.3243 23.8757 21.3959 23.8577 21.3406C23.8132 21.2089 23.8046 21.076 23.8497 20.9004C23.8538 20.8843 24.0359 20.8805 23.9934 20.788C23.9271 20.6446 23.9341 20.4203 23.7586 20.3071C23.7513 20.3024 23.7438 20.2979 23.7359 20.2936C23.6764 20.2618 23.4119 20.4003 23.5371 20.1969C23.5632 20.1544 23.8946 20.014 23.5552 20.036C23.4987 20.0394 23.0191 20.0281 23.2021 19.7992C23.2503 19.7389 23.4723 19.5319 23.3999 19.4942C23.3891 19.4896 23.2649 19.5974 23.2248 19.5555C23.0859 19.4066 23.0038 19.2167 22.8643 19.0623C22.8268 19.0213 22.7183 19.1703 22.6671 19.1066C22.5264 18.9324 22.4323 18.6671 22.3758 18.4514C22.3552 18.3717 22.5025 18.3556 22.5129 18.3434C22.6833 18.146 22.3676 18.2522 22.3361 18.2339C22.1439 18.1178 22.2106 17.9156 22.0908 17.7784C22.0581 17.7404 21.9365 17.845 21.9195 17.843C21.7516 17.8183 22.035 17.7519 22.0321 17.6808C22.0248 17.4815 21.9196 17.3117 21.8166 17.1621C21.7786 17.1073 21.6538 17.2587 21.6216 17.2085C21.4261 16.9101 21.2658 16.5747 21.1907 16.2233C21.1768 16.1569 21.3194 16.1268 21.3411 16.0998C21.4937 15.9118 21.1606 15.9355 21.1201 15.9216C20.9358 15.8585 21.0185 15.7512 20.9387 15.6514C20.6228 15.26 20.3656 14.7061 20.1612 14.2338C20.1127 14.1218 20.0667 14.0137 20.023 13.9121C19.7196 13.2115 19.5506 12.6177 19.1832 12.0097C19.1597 11.9704 19.0182 12.0998 18.9954 12.0662C18.7067 11.6258 18.5298 11.1452 18.2427 10.727C18.2194 10.6926 18.0926 10.8288 18.0501 10.7764C17.9643 10.674 17.8841 10.5056 17.8662 10.3541C17.8569 10.2799 18.0345 10.2902 18.0224 10.2169C17.9946 10.0462 17.923 9.88749 17.8197 9.75593C17.7754 9.70017 17.6671 9.879 17.6219 9.79988C17.3199 9.2792 16.9883 8.73211 16.899 8.07739C16.8953 8.04982 17.0085 7.96113 17.0724 7.88623C17.1127 7.83907 17.1333 7.79738 17.093 7.77996C17.0004 7.82251 16.8954 7.87985 16.7984 7.92908C16.3065 7.1445 16.0069 6.32625 15.5826 5.50429C15.5656 5.47136 15.4255 5.62029 15.3918 5.5571C15.2009 5.19986 14.9284 4.81142 14.9059 4.36624C14.9022 4.31991 15.2151 4.18018 15.1081 4.09169C15.0877 4.0738 14.9493 3.91496 14.86 3.90602C14.8469 3.90523 14.7242 4.01339 14.6894 3.95921C14.4922 3.64756 14.3554 3.32031 14.2575 2.9371C14.2445 2.87979 14.4223 2.85129 14.4145 2.80989C14.3848 2.56702 14.0661 2.25243 14.0918 1.97778C14.0793 1.73816 14.3766 1.67011 14.5848 1.44851C14.6152 1.41913 14.5766 1.33494 14.7057 1.2207C15.0653 0.997278 15.5122 0.849796 15.8907 0.602707C15.9488 0.506736 15.8369 0.519901 16.0556 0.43109C16.0522 0.392073 16.2215 0.539604 16.282 0.48445C16.3377 0.47158 16.4743 0.365075 16.5514 0.359291C16.6289 0.35453 16.5215 0.456852 16.6282 0.479566C16.7349 0.50034 16.8972 0.391725 16.9826 0.500088ZM31.4915 33.4831C31.5903 33.3162 31.0492 33.5717 31.2279 33.6082C31.2371 33.6097 31.4868 33.4915 31.4915 33.4831ZM27.8832 37.6111C28.0071 37.8806 28.117 37.4971 28.0301 37.2893C27.9433 37.0818 27.8455 37.5294 27.8832 37.6111ZM26.4708 37.742C26.4872 37.7653 26.5025 37.7762 26.5167 37.7771C26.6224 37.7842 26.658 37.2285 26.5397 37.254C26.5294 37.2562 26.5179 37.2627 26.5053 37.2743C26.4949 37.2835 26.462 37.7295 26.4708 37.742ZM14.8783 1.8145C14.8843 1.80896 14.8543 1.73777 14.8468 1.74053C14.6604 1.79553 14.7203 1.93732 14.8783 1.8145ZM25.0692 37.8898C25.1141 38.0066 25.2588 37.8805 25.205 37.7353C25.1627 37.6185 25.0134 37.7444 25.0692 37.8898ZM29.585 28.3754C29.5921 28.3698 29.5708 28.3116 29.5267 28.336C29.3847 28.4147 29.4648 28.4693 29.585 28.3754ZM22.6954 37.793C23.0558 37.8413 23.2215 38.5501 22.8472 38.4541C22.7757 38.4365 23.0132 38.2379 22.9234 38.1706C22.769 38.0484 22.6436 38.4832 22.4894 38.2402C22.4568 38.1955 22.6859 37.7892 22.696 37.792C22.6958 37.7924 22.6956 37.7927 22.6954 37.793ZM32.106 33.1059C32.1121 33.1005 32.0807 33.0216 32.0728 33.0232C31.8826 33.0679 31.9457 33.2269 32.106 33.1059ZM28.2855 25.0991C28.2983 25.0872 28.2212 24.9071 28.2045 24.9086C27.8823 24.9633 28.0373 25.3279 28.2855 25.0991ZM34.922 38.1434C35.1546 38.3043 35.2529 38.4681 34.9297 38.7155C35.0094 38.341 34.9434 38.3349 34.922 38.1434ZM8.97665 46.7671C9.02841 46.8977 8.97595 47.0631 8.90491 47.1921C8.88294 47.234 8.77613 47.2178 8.75629 47.2473C8.71769 47.3052 8.77242 47.3539 8.72682 47.4111C8.71121 47.4303 8.54218 47.4183 8.52967 47.4384C8.46249 47.5492 8.51316 47.645 8.48782 47.7523C8.36457 48.2952 8.3977 48.8189 8.48012 49.3471C8.50597 49.5179 8.43465 49.7745 8.5656 49.9198C8.58088 49.9365 8.71276 49.8694 8.72552 49.8685C8.92073 49.8546 8.63773 49.9487 8.61714 50.002C8.53533 50.2111 8.60551 50.3932 8.72871 50.5069C8.72946 50.5076 8.73025 50.5082 8.73107 50.5088C8.78807 50.5497 9.00834 50.362 8.89538 50.4952C8.88778 50.5046 8.74147 50.5628 8.73541 50.587C8.72202 50.6421 8.78507 50.6988 8.79063 50.7336C8.80045 50.8011 8.8072 50.8095 8.83615 50.8623C8.87439 50.9346 8.86029 51.0596 8.93875 51.1151C8.95575 51.1265 9.07674 51.0183 9.11565 51.0279C9.15439 51.0375 9.18595 51.1089 9.16981 51.152C9.15352 51.1951 9.04348 51.2576 9.02236 51.2779C8.84481 51.4506 9.17575 51.3325 9.18853 51.3356C9.42797 51.4227 9.38985 51.6823 9.52635 51.8376C9.62939 51.9539 9.78997 52.0311 9.88674 52.1391C10.0019 52.2685 10.0565 52.4371 10.1961 52.5381C10.2108 52.5489 10.318 52.3922 10.3357 52.4048C10.5239 52.5374 10.6945 52.6965 10.8098 52.9352C10.8217 52.9596 10.7005 53.0766 10.7069 53.1092C10.7439 53.3039 10.7821 53.7208 11.2393 53.1556C11.3068 53.2319 11.3936 53.3188 11.3985 53.4902C11.4015 53.5848 11.2991 53.6913 11.3335 53.7016C11.3393 53.7034 11.349 53.7024 11.3638 53.6981C11.3868 53.6915 11.4473 53.544 11.4755 53.5443C11.5958 53.5469 11.6644 53.6436 11.7924 53.6196C11.8184 53.6143 11.8802 53.4867 11.8972 53.4669C12.0355 53.3067 11.9473 53.6457 11.9527 53.6763C11.9882 53.9026 12.1167 53.8848 12.2267 53.9423C12.2525 53.9558 12.3031 53.7693 12.3307 53.776C12.4719 53.8128 12.6013 53.8891 12.7017 54.0242C12.724 54.0547 12.6326 54.1918 12.64 54.214C12.6747 54.3104 12.8084 54.0347 12.8428 54.1207C12.8501 54.1383 12.7899 54.2636 12.7864 54.2786C12.7313 54.5146 12.8918 54.2142 12.9035 54.2109C13.0579 54.1632 13.0044 54.5222 13.1414 54.5209C13.1577 54.5203 13.1884 54.3442 13.2302 54.3525C13.5162 54.4087 13.7628 54.5448 13.9925 54.765C14.0279 54.7989 13.9583 54.9151 13.9559 54.9315C13.9232 55.1874 14.0537 54.8717 14.071 54.8637C14.2082 54.8097 14.2227 55.1118 14.4106 54.7446C14.742 54.9594 15.1434 54.9355 15.4791 55.1514C15.5633 55.2049 15.645 55.2733 15.7233 55.364C15.7285 55.3695 15.6816 55.5307 15.6921 55.5409C15.8142 55.6638 15.8421 55.4033 16.0003 55.1113C16.0396 55.0379 16.0323 55.4291 16.0334 55.4581C16.0357 55.5646 15.9612 55.8038 15.965 55.8251C15.9988 55.9933 16.1531 55.1834 16.239 55.2004C16.2415 55.2023 16.2003 55.3488 16.2046 55.3651C16.2181 55.4161 16.2524 55.3614 16.2646 55.4171C16.2921 55.5457 16.2346 55.9427 16.3584 55.729C16.3741 55.7012 16.4468 55.2391 16.5209 55.2756C16.5499 55.2905 16.6927 55.3087 16.7228 55.3448C16.7553 55.3814 16.7027 55.5251 16.7042 55.532C16.772 55.7465 16.7186 55.8209 16.7199 56.1207C16.7223 56.4195 16.828 55.7263 16.8625 55.6529C16.8969 55.5797 16.9454 55.7548 16.955 55.8143C16.9644 55.8739 16.9248 55.9644 16.9363 55.9991C17.014 56.2265 17.0428 55.6641 17.0977 55.5605C17.2262 55.3147 17.2102 55.8387 17.2836 55.9018C17.3032 55.9188 17.3038 55.7991 17.3249 55.7912C17.4078 55.7613 17.4308 55.929 17.5399 55.7949C17.5576 55.7731 17.6713 55.474 17.6825 55.7074C17.684 55.741 17.6474 55.8666 17.6753 55.9C17.7168 55.9501 17.7998 55.9904 17.8578 55.9548C17.9006 55.9283 17.8859 55.7108 17.925 55.7831C17.9424 55.8154 17.8856 55.9337 17.9198 55.984C17.9539 56.0343 18.0582 56.0428 18.0984 56.0437C18.1384 56.0445 18.1378 55.8811 18.1424 55.8707C18.1698 55.8113 18.2551 55.7436 18.2617 55.7446C18.6042 55.7683 18.8689 56.0729 19.2121 56.017C19.2387 56.0128 19.2386 55.8412 19.2428 55.8388C19.3384 55.7765 19.2232 56.2212 19.2707 56.3787C19.2958 56.0329 19.3264 56.099 19.393 56.0673C19.4252 56.0517 19.4215 55.9166 19.4256 55.9032C19.4896 55.7046 19.4965 55.9696 19.4988 56.0239C19.5091 56.2239 19.5623 55.9937 19.5698 56.1274C19.5775 56.2601 19.514 56.4499 19.5734 56.4528C19.6011 56.3308 19.5871 56.004 19.6363 55.9557C19.7127 55.8806 19.8068 55.8839 19.9013 55.9162C20.0362 55.9624 20.1727 56.068 20.2531 56.0897C20.3894 56.1265 20.4361 56.1069 20.5141 56.1574C20.6513 56.2483 20.6154 56.0047 20.711 55.9008C20.8066 55.7969 20.7247 56.3845 20.7291 56.5122C20.7334 56.6399 20.7558 56.5102 20.767 56.581C20.7782 56.6518 20.7385 56.7359 20.7739 56.7645C20.8094 56.7931 20.9255 56.5737 20.9467 56.4417C20.9917 56.1621 20.9643 55.8642 21.0554 55.9738C21.0606 55.9803 21.0331 56.1345 21.0537 56.1515C21.2179 56.2813 21.3975 56.2986 21.567 56.413C21.5903 56.429 21.5603 56.6008 21.5738 56.6121C21.7113 56.7296 21.6741 56.4356 21.7665 56.1154C21.7292 56.5455 21.7598 56.8113 21.8685 56.8186C21.9338 56.8232 21.9307 56.6344 21.9784 56.5035C21.9927 56.464 22.0335 56.5952 22.0455 56.507C22.0849 56.2187 22.0547 55.8929 22.1608 56.0264C22.1654 56.0327 22.1436 56.1905 22.1602 56.2008C22.2675 56.2678 22.2919 55.9655 22.4117 55.9331C22.5052 55.9076 22.6669 56.0976 22.7721 56.1307C22.7558 56.6155 22.8583 56.5073 22.9071 56.174C22.9746 56.1895 23.0484 56.1724 23.1133 56.2201C23.1356 56.2364 23.1175 56.3765 23.12 56.3917C23.1586 56.6307 23.1959 56.3061 23.2108 56.2936C23.3735 56.1731 23.5007 56.4221 23.6594 56.1834C23.6651 56.1748 23.6789 55.838 23.7166 56.0846C23.7191 56.1016 23.6657 56.2542 23.7385 56.2671C23.8113 56.28 23.9481 56.4623 24.0471 56.307C24.0715 56.2697 24.1343 55.9967 24.1813 56.2108C24.1876 56.2398 24.1798 56.3364 24.1888 56.3903C24.218 56.5618 24.2369 56.2214 24.2709 56.5109C24.2981 56.7428 24.3511 56.9283 24.4239 56.8906C24.4421 56.8812 24.4614 56.858 24.4818 56.8183C24.4851 56.8125 24.51 56.5427 24.5419 56.547C24.5928 56.5542 24.6653 56.6105 24.7189 56.6088C24.7446 56.6078 24.7281 56.4402 24.7326 56.4371C24.9036 56.3432 25.0307 56.4922 25.2123 56.556C25.2456 56.568 25.3393 56.3388 25.4053 56.5189C25.478 56.7161 25.412 57.5397 25.5752 57.342C25.6416 57.2629 25.7124 56.218 25.8389 56.7572C26.0672 56.62 26.2945 56.8929 26.5187 56.6966C26.5289 56.6879 26.5551 56.3959 26.5794 56.3993C26.6154 56.405 26.6383 56.5407 26.6643 56.5491C26.7732 56.5876 26.8694 56.4686 26.9746 56.484C27.0145 56.4895 27.0044 56.6306 27.0522 56.6372C27.1 56.6436 27.1265 56.4574 27.1936 56.5451C27.2443 56.6119 27.3045 56.9893 27.3712 57.0315C27.3623 56.6577 27.4073 56.6641 27.4838 56.5629C27.4985 56.5433 27.4779 56.4138 27.4847 56.3978C27.5119 56.3298 27.5427 56.4367 27.5683 56.3628C27.5745 56.3451 27.5707 56.2175 27.5755 56.1958C27.617 56.0063 27.703 56.2907 27.7175 56.3403C27.774 56.5283 27.7917 56.3616 27.8327 56.435C27.8738 56.5083 27.8196 56.6038 27.8661 56.6475C27.9626 56.738 28.0822 56.713 28.1777 56.7152C28.2159 56.7153 28.1833 56.546 28.1886 56.542C28.2654 56.4958 28.3525 56.6737 28.3825 56.3328C28.4729 57.2076 28.4266 56.2458 28.5467 56.4166C28.5562 56.4305 28.5851 56.8447 28.5532 56.907C28.5214 56.9693 28.4641 56.8418 28.4204 56.9387C28.4101 56.9614 28.3612 57.3526 28.3533 57.3765C28.2914 57.5633 28.2575 56.9438 28.2525 56.9099C28.1971 56.5442 28.1351 56.9659 28.1154 56.9956C28.026 57.1317 27.9429 57.0474 27.8677 57.1449C27.8186 57.2078 27.8276 57.6141 27.7867 57.603C27.6515 57.5665 27.5822 57.0017 27.4692 57.4969C27.4447 57.6026 27.486 58.0456 27.3756 57.6996C27.3686 57.6778 27.2855 57.3607 27.2489 57.5639C27.2443 57.5895 27.2483 57.7189 27.2415 57.73C27.1963 57.8016 27.1619 57.6995 27.1119 57.7502C27.0619 57.801 27.0022 57.8763 26.9426 57.8339C26.9066 57.8086 26.8555 57.5686 26.8373 57.51C26.7859 57.3412 26.7419 57.6211 26.7078 57.416C26.6736 57.2097 26.7235 56.8942 26.6437 56.7622C26.6486 57.0985 26.6499 57.4436 26.653 57.7818C26.484 57.7738 26.3135 57.6685 26.1392 57.6863C26.1177 57.6889 26.1428 57.8692 26.1198 57.8766C26.0228 57.907 25.9361 57.7794 25.8365 57.8321C25.7595 57.8736 25.6768 58.066 25.5962 58.1151C25.5427 57.7309 25.4247 57.8626 25.3378 57.8281C25.3074 57.8162 25.3087 57.7134 25.287 57.68C25.2052 57.5566 25.2453 57.8963 25.2234 57.95C25.1295 58.1789 25.1167 57.4094 25.002 57.4289C24.996 57.4296 24.9227 57.8401 24.9124 57.8656C24.8474 58.0324 24.9013 57.7229 24.8604 57.6926C24.7859 57.6374 24.7345 57.5394 24.6477 57.6595C24.6224 57.6951 24.561 57.9507 24.5125 57.7528C24.5061 57.7268 24.5101 57.5912 24.5049 57.5833C24.4631 57.5238 24.4393 57.5766 24.4208 57.6659C24.398 57.7758 24.3832 57.9412 24.3532 58.0207C24.2986 58.1647 24.2177 57.87 24.2017 57.7852C24.1594 57.5656 24.2358 57.6917 24.2384 57.6702C24.2679 57.4143 24.2077 57.458 24.1622 57.436C24.1588 57.0182 24.0953 57.0428 24.1151 57.4149C24.1174 57.4555 24.1532 57.4168 24.1622 57.436C24.1192 57.8455 24.0476 57.8974 23.9743 57.5137C23.9397 57.3338 23.9773 57.1249 23.8653 57.2002C23.8138 57.2341 23.83 57.522 23.7838 57.5998C23.6778 57.7774 23.5478 57.5071 23.4418 57.5475C23.4032 57.5621 23.4377 57.7202 23.4112 57.7357C23.3407 57.7771 23.2819 57.6578 23.2111 57.7168C23.2047 57.7224 23.2166 57.8875 23.1949 57.8891C23.0301 57.9047 22.8906 57.7956 22.7216 57.7878C22.6387 57.7842 22.4841 57.8703 22.3981 57.849C22.2481 57.8132 22.0739 57.5667 21.9453 57.6195C21.8612 57.6533 21.8722 57.8187 21.8319 57.9294C21.7536 58.144 21.6505 57.7488 21.6376 57.6877C21.6372 57.6857 21.7095 57.6502 21.6758 57.5639C21.6623 57.3867 21.6384 57.687 21.6376 57.6877C21.6292 57.6483 21.4895 57.6041 21.4579 57.634C21.4414 57.6504 21.4422 57.8068 21.4337 57.8124C21.2322 57.9421 21.0355 57.9709 20.8457 57.886C20.8425 57.8826 20.8584 57.7085 20.8508 57.7028C20.7437 57.6183 20.6589 57.827 20.5581 57.9474C20.4571 58.0677 20.3883 58.0203 20.3524 57.717C20.2783 57.7495 20.1863 57.6097 20.1344 57.525C20.0825 57.4403 20.048 57.7787 20.0423 57.785C19.9124 57.9331 19.8362 57.864 19.7415 57.7993C19.707 57.7757 19.67 57.7527 19.627 57.7408C19.5501 57.7191 19.3926 57.7543 19.3044 57.7832C19.2329 57.8065 19.1994 57.7232 19.1316 57.7677C19.1224 57.7736 19.1161 57.9252 19.1129 57.9307C19.0245 58.104 19.0951 57.739 19.0873 57.6718C19.0589 57.4273 19.0403 57.2967 18.9402 57.4C18.9173 57.4237 18.8016 57.9474 18.7604 57.9743C18.7073 58.0084 18.7463 57.8205 18.6904 57.8609C18.6857 57.8642 18.6737 57.9815 18.6429 57.9728C18.4986 57.9342 18.3514 57.8481 18.1971 57.8411C18.1758 57.8397 18.1803 58.0286 18.149 58.0295C18.0023 58.0339 17.846 58.0067 17.7199 57.9013C17.6889 57.8748 17.7278 57.748 17.7256 57.7084C17.7126 57.4694 17.6027 57.7991 17.5911 57.804C17.3177 57.9316 17.1719 57.5972 16.8885 57.701C16.8734 57.7073 16.705 58.0511 16.7081 57.733C16.708 57.7118 16.7139 57.387 16.6356 57.5966C16.6307 57.6097 16.6327 57.7779 16.5838 57.7524C16.5351 57.7271 16.4328 57.8215 16.3942 57.63C16.3816 57.5696 16.3865 57.2448 16.2753 57.4843C16.2689 57.5014 16.0566 58.0499 16.092 57.6508C16.098 57.5851 16.1824 57.1717 16.0616 57.369C16.0383 57.4072 16.0488 57.505 15.9969 57.555C15.917 57.6319 15.8563 57.5049 15.7431 57.6739C15.7235 57.7039 15.6093 57.9731 15.607 57.7507C15.6067 57.7159 15.6484 57.5807 15.6276 57.5603C15.5295 57.463 15.392 57.5302 15.2988 57.41C15.2644 57.3673 15.3346 57.1496 15.3048 57.0805C15.275 57.0115 15.2024 56.9349 15.1347 57.0261C15.0667 57.1173 15.0344 57.4824 14.96 57.495C14.9505 57.4966 14.941 57.4979 14.9316 57.4989C14.618 57.5318 14.3984 57.269 14.1148 57.1603C14.0725 57.1439 14.0742 57.2791 14.0092 57.2637C13.7698 57.2086 13.3313 57.2039 13.2056 56.872C13.112 56.6089 13.3673 56.5153 13.2728 56.3898C13.2283 56.33 13.0308 56.7087 13.0118 56.7163C12.8271 56.7962 12.795 56.5869 12.6479 56.5948C12.6172 56.5964 12.5851 56.7666 12.5595 56.7661C12.4713 56.7656 12.4164 56.6638 12.3383 56.6491C12.3031 56.6428 12.2625 56.7671 12.2357 56.746C12.1711 56.697 12.1269 56.6207 12.1029 56.4793C12.1008 56.4665 12.2032 56.3324 12.1534 56.306C12.0712 56.2631 12.0189 56.1111 11.8695 56.1833C11.8258 56.2055 11.707 56.4795 11.7249 56.2628C11.7286 56.2174 11.8881 55.896 11.692 56.1484C11.6603 56.1908 11.3657 56.5174 11.416 56.2442C11.4291 56.1724 11.5116 55.8876 11.4585 55.9138C11.4508 55.9183 11.4022 56.0725 11.367 56.0735C11.2433 56.0737 11.1499 56.0102 11.0196 56.0018C10.9852 56.0001 10.9539 56.1698 10.9047 56.1623C10.7688 56.1418 10.643 56.0293 10.5568 55.924C10.5251 55.8849 10.6186 55.779 10.6226 55.7642C10.6913 55.5249 10.5073 55.7985 10.482 55.8065C10.3296 55.8537 10.3287 55.676 10.2174 55.6587C10.1867 55.6535 10.1259 55.7993 10.1139 55.8084C10.1103 55.811 10.107 55.8133 10.104 55.8153C10.0029 55.8828 10.1729 55.6742 10.1562 55.6295C10.1089 55.5001 10.0027 55.4506 9.90177 55.4111C9.86454 55.3967 9.80567 55.5741 9.77308 55.5592C9.58152 55.4761 9.39702 55.3323 9.28603 55.1307C9.26516 55.0924 9.36634 54.9928 9.37821 54.9621C9.46342 54.7486 9.22041 54.9486 9.18734 54.9603C9.03954 55.0161 9.08644 54.8967 9.0125 54.8695C8.6381 54.7305 8.33564 54.3625 8.11172 54.0723C7.82262 53.6983 7.67954 53.3386 7.38011 53.0124C7.36108 52.9912 7.23178 53.128 7.21328 53.1108C6.97952 52.8816 6.85846 52.5788 6.6438 52.332C6.62633 52.3113 6.4963 52.4366 6.46293 52.406C6.39333 52.3435 6.34347 52.2398 6.34805 52.1334C6.35011 52.0819 6.51059 52.0584 6.51028 52.0086C6.51021 51.8927 6.4713 51.7942 6.39898 51.7159C6.39882 51.7157 6.39865 51.7155 6.39848 51.7154C6.36643 51.684 6.23794 51.8242 6.20979 51.774C6.01348 51.4303 5.82814 51.08 5.91375 50.6315C5.91959 50.6004 6.25684 50.4554 6.17251 50.4273C6.07513 50.457 5.96225 50.4967 5.859 50.5308C5.61973 50.0228 5.60791 49.4588 5.5335 48.923C5.53038 48.9007 5.34587 48.9729 5.33881 48.9294C5.29824 48.6789 5.20972 48.4333 5.37382 48.151C5.38999 48.124 5.73095 48.1012 5.67237 48.0348C5.66161 48.0232 5.6061 47.9189 5.5299 47.8965C5.51842 47.8936 5.36129 47.9277 5.35359 47.892C5.31173 47.6859 5.33482 47.4557 5.42529 47.2467C5.44021 47.2134 5.61108 47.2425 5.6232 47.219C5.70789 47.0542 5.57648 46.8762 5.73142 46.7179C5.83589 46.6131 6.12921 46.6546 6.4187 46.604C6.45952 46.597 6.46698 46.5345 6.63515 46.5345C7.05794 46.5347 7.52023 46.5713 7.97095 46.5677C8.06797 46.5671 7.96501 46.491 8.19858 46.5396C8.21418 46.543 8.29104 46.5973 8.37045 46.6111C8.42532 46.6207 8.59649 46.6074 8.66665 46.6262C8.73675 46.6447 8.59321 46.6625 8.6757 46.6925C8.75927 46.7221 8.95375 46.7108 8.97665 46.7671ZM19.9031 57.1458C19.8638 56.9787 19.8061 57.5741 19.8756 57.4363C19.8791 57.4289 19.9052 57.154 19.9031 57.1458ZM26.3051 57.2172C26.2304 56.9547 26.1898 57.3434 26.2428 57.5463C26.296 57.7489 26.328 57.2967 26.3051 57.2172ZM27.0102 57.0083C26.9247 56.8025 26.9339 57.6508 27.0158 57.4771C27.0206 57.4673 27.0153 57.0203 27.0102 57.0083ZM6.50005 46.8508C6.50797 46.85 6.51554 46.8058 6.50768 46.8048C6.31761 46.7813 6.30259 46.871 6.50005 46.8508ZM27.7143 56.7771C27.6866 56.6633 27.6176 56.7981 27.6539 56.9397C27.6839 57.0535 27.7497 56.9188 27.7143 56.7771ZM17.2404 56.1906C17.2409 56.1817 17.2118 56.169 17.2046 56.2188C17.1812 56.3795 17.2309 56.3409 17.2404 56.1906ZM28.9112 56.7199C28.7303 56.6961 28.593 56.0006 28.7897 56.0711C28.8254 56.0839 28.7239 56.2977 28.7713 56.3588C28.8584 56.4702 28.8929 56.0283 28.9874 56.2599C29.0046 56.3023 28.9217 56.7228 28.9109 56.7209C28.911 56.7206 28.9111 56.7202 28.9112 56.7199ZM19.9322 56.4273C19.9318 56.4193 19.8907 56.4083 19.889 56.4161C19.8504 56.6034 19.9336 56.6256 19.9322 56.4273ZM15.578 55.4993C15.5793 55.4823 15.488 55.4454 15.4815 55.4598C15.3617 55.751 15.549 55.8273 15.578 55.4993ZM22.7734 56.1436C22.8236 55.954 22.8775 55.9329 22.9069 56.1737C22.8626 56.1598 22.8178 56.1567 22.7734 56.1436Z" fill="black"/>
</svg>
