<svg width="38" height="46" viewBox="0 0 38 46" fill="none" xmlns="http://www.w3.org/2000/svg">
<path d="M2.77344 0.34349C3.0311 0.270206 3.38585 0.299257 3.65335 0.35717C3.73636 0.375111 3.70257 0.48376 3.76017 0.50094C3.87278 0.534443 3.97185 0.475632 4.0842 0.517443C4.12144 0.531824 4.08749 0.702346 4.12624 0.713596C4.33838 0.774086 4.53275 0.71915 4.74701 0.742296C5.77813 0.85635 6.78619 0.876705 7.82146 0.921465C7.83238 0.921941 7.8433 0.922419 7.85422 0.922901C8.1978 0.93784 8.6227 1.07985 8.97496 1.00631C9.01612 0.997563 8.9886 0.850677 8.99622 0.838376C9.1162 0.650038 9.08083 0.94835 9.16214 0.986383C9.48481 1.13657 9.84126 1.14511 10.1495 1.08508C10.2801 1.05913 10.146 0.767664 10.2795 0.930718C10.2887 0.941735 10.257 1.09857 10.293 1.11493C10.3747 1.1517 10.5289 1.1225 10.5921 1.13449C10.7139 1.15837 10.734 1.15669 10.8492 1.15788C11.0066 1.1609 11.1941 1.23814 11.363 1.20252C11.3991 1.19446 11.3512 1.03404 11.4088 1.00669C11.4665 0.979365 11.6186 0.993038 11.6699 1.03096C11.7211 1.06888 11.6991 1.19497 11.7081 1.22389C11.7822 1.46797 11.9587 1.13058 11.9816 1.12233C12.3954 0.981534 12.7485 1.177 13.1359 1.18117C13.1679 1.18147 13.2001 1.18105 13.2325 1.18007C13.4982 1.17205 13.776 1.12687 14.0251 1.13934C14.3586 1.15667 14.64 1.24994 14.9637 1.24326C14.9978 1.24275 14.9627 1.05311 15.0045 1.05211C15.4466 1.04162 15.8912 1.07589 16.327 1.21887C16.3708 1.23338 16.3079 1.39689 16.3512 1.42128C16.6157 1.56679 17.0298 1.91061 17.2214 1.19702C17.4041 1.2329 17.6255 1.2719 17.782 1.42475C17.8829 1.52314 17.7723 1.69858 17.905 1.62777C17.9349 1.61202 17.9046 1.45236 17.9489 1.44068C18.1348 1.39164 18.3376 1.45321 18.5246 1.38122C18.5628 1.36621 18.56 1.22427 18.5719 1.19936C18.5942 1.15434 18.618 1.13677 18.6419 1.13695C18.7249 1.13755 18.8082 1.35258 18.832 1.37317C19.067 1.57129 19.246 1.50863 19.4754 1.5268C19.5286 1.53112 19.4769 1.33748 19.5286 1.33482C19.7966 1.32358 20.07 1.35727 20.3218 1.45862C20.3777 1.48162 20.3143 1.63977 20.3405 1.65903C20.4557 1.74202 20.503 1.43852 20.6137 1.51241C20.6371 1.52759 20.6138 1.66502 20.6172 1.68052C20.671 1.92393 20.7559 1.59025 20.7746 1.58406C21.0115 1.49833 21.1316 1.86176 21.3541 1.82827C21.3808 1.82392 21.3349 1.64445 21.4091 1.64293C21.8943 1.63104 22.4297 1.7236 22.8947 1.90639C22.9675 1.93463 22.9023 2.06113 22.9056 2.07774C22.9593 2.33754 23.0389 2.00316 23.0651 1.99269C23.2713 1.91894 23.4267 2.22032 23.5979 1.82975C23.7338 1.86652 23.8697 1.89325 24.0052 1.9144C24.6931 2.02116 25.374 1.9896 26.0263 2.37653C26.0361 2.382 25.9967 2.54593 26.0162 2.55612C26.2501 2.68073 26.2354 2.41639 26.4388 2.12172C26.4907 2.04784 26.57 2.44635 26.577 2.47576C26.6044 2.58425 26.5284 2.82558 26.5395 2.84737C26.6317 3.01923 26.7242 2.1997 26.878 2.22059C26.8825 2.22261 26.8417 2.37016 26.8525 2.38688C26.8858 2.4393 26.9335 2.38506 26.965 2.44222C27.0369 2.57439 27.0116 2.97535 27.1778 2.76369C27.1989 2.7362 27.2401 2.26952 27.3706 2.31088C27.4176 2.32691 27.6675 2.35609 27.73 2.39647C27.7935 2.43681 27.7239 2.57861 27.7278 2.58581C27.8793 2.8108 27.7976 2.8818 27.8418 3.18731C27.8852 3.49169 27.9699 2.79538 28.0188 2.72392C28.068 2.65268 28.1723 2.83604 28.1946 2.89763C28.2171 2.95924 28.1621 3.0473 28.1851 3.08383C28.3361 3.32295 28.3233 2.75394 28.4029 2.65434C28.5975 2.41969 28.6307 2.95285 28.7567 3.02666C28.7911 3.04668 28.7816 2.92478 28.8163 2.91965C28.9534 2.90098 29.0014 3.07443 29.1722 2.95471C29.1918 2.94097 29.2838 2.79515 29.3477 2.79402C29.3761 2.79382 29.3999 2.81917 29.4106 2.89024C29.4156 2.92488 29.3595 3.04604 29.4106 3.08537C29.487 3.14431 29.631 3.20145 29.7273 3.17676C29.7986 3.15848 29.7665 2.93416 29.8351 3.01577C29.8654 3.05216 29.7735 3.16086 29.8322 3.219C29.8908 3.277 30.0609 3.30709 30.1248 3.31656C30.1936 3.32686 30.1908 3.16061 30.1985 3.15111C30.2454 3.09723 30.3932 3.04978 30.4045 3.05258C30.9727 3.15949 31.4306 3.55575 32.001 3.63888C32.0456 3.6457 32.0685 3.47393 32.0758 3.47329C32.2434 3.45154 31.9915 3.84763 32.0423 4.02374C32.1356 3.68977 32.1742 3.76796 32.2841 3.76514C32.3426 3.76548 32.3576 3.62883 32.3668 3.61746C32.5128 3.4521 32.4792 3.71982 32.4739 3.7751C32.4561 3.97916 32.5893 3.77892 32.5759 3.91535C32.5612 4.05031 32.4205 4.20526 32.5141 4.23816C32.5852 4.13263 32.6301 3.80258 32.7223 3.78178C33.0816 3.70037 33.5266 4.19395 33.7102 4.36786C33.9366 4.56292 34.0096 4.60724 34.1043 4.79012C34.2164 5.11427 34.3743 4.89549 34.5616 5.13771C34.7021 5.3921 34.092 5.28462 33.9697 5.32392C33.9127 5.33487 33.9084 5.34335 33.914 5.35298C33.9208 5.36461 33.9425 5.37778 33.9035 5.39035C33.8322 5.4113 33.749 5.3613 33.719 5.41134C33.6923 5.45264 33.8801 5.62841 34.0002 5.68591C34.257 5.80355 34.5833 5.77823 34.4004 5.97407C34.3898 5.98393 34.2579 5.89493 34.2247 5.9346C33.9693 6.22649 33.779 6.46227 33.5078 6.62707C33.4704 6.6487 33.3609 6.50983 33.338 6.52074C33.0961 6.6318 33.3722 6.75764 33.5196 7.07773C33.222 6.76349 32.9832 6.63583 32.8565 6.76133C32.7777 6.8383 32.9245 6.95769 32.9678 7.10145C32.9807 7.14495 32.8355 7.10518 32.8865 7.17888C33.0416 7.40632 33.2973 7.5811 33.1342 7.63756C33.1234 7.64125 33.1108 7.64442 33.0963 7.64703C33.0857 7.64846 32.9985 7.51313 32.9698 7.52656C32.7826 7.61248 32.9749 7.84707 32.8382 8.0147C32.7253 8.1509 32.395 8.18463 32.2289 8.27808C31.928 7.89781 31.8661 8.0887 32.0174 8.39447C31.9167 8.45557 31.8263 8.54853 31.7059 8.58129C31.6646 8.59266 31.6011 8.46464 31.588 8.45554C31.3848 8.31043 31.5404 8.60014 31.5274 8.62575C31.4336 8.79564 31.2592 8.82849 31.1312 8.92365C31.0629 8.97449 31.0067 9.04442 30.9799 9.16638C30.9773 9.17876 31.1581 9.46361 30.9592 9.30241C30.9459 9.29103 30.9293 9.11568 30.8211 9.17667C30.71 9.23963 30.4222 9.21803 30.3671 9.44322C30.3542 9.49727 30.4185 9.78361 30.2298 9.65243C30.2044 9.63442 30.161 9.54723 30.1179 9.5113C29.9803 9.39704 30.1447 9.69666 29.9344 9.48877C29.7241 9.28091 29.5017 9.16797 29.4677 9.42794C29.4664 9.43569 29.5789 9.68443 29.5315 9.70993C29.4558 9.75042 29.3232 9.76862 29.2488 9.81806C29.2131 9.84184 29.3262 9.96858 29.3216 9.97516C29.2657 10.0428 29.2046 10.0896 29.1388 10.1243C28.977 10.2099 28.7878 10.2231 28.577 10.2986C28.5231 10.3175 28.5024 10.5983 28.3147 10.5008C28.1094 10.3938 27.7877 9.62691 27.6562 9.93519C27.6038 10.0582 28.0158 11.0285 27.5676 10.6653C27.4102 10.8531 27.1749 10.9098 26.9692 11.0003C26.836 11.0589 26.7049 11.1376 26.6108 11.2781C26.6 11.2941 26.6966 11.5744 26.6592 11.5912C26.6029 11.6158 26.5084 11.5129 26.4645 11.5275C26.2823 11.5837 26.1949 11.7667 26.0341 11.8359C25.9711 11.8635 25.9232 11.729 25.8488 11.7615C25.7747 11.7939 25.8179 11.982 25.6809 11.9555C25.5776 11.9347 25.3246 11.6415 25.206 11.6562C25.3826 11.9858 25.3122 12.0157 25.2449 12.165C25.2321 12.1938 25.3181 12.2951 25.3152 12.3147C25.3048 12.3968 25.2146 12.3231 25.2095 12.409C25.2076 12.43 25.2681 12.5424 25.27 12.5659C25.2743 12.6146 25.2632 12.6409 25.2432 12.6523C25.1791 12.6889 25.0256 12.5721 24.9927 12.5466C24.8278 12.4199 24.8726 12.5844 24.7815 12.5485C24.6876 12.5141 24.732 12.3841 24.6408 12.3816C24.4473 12.3791 24.2965 12.4829 24.141 12.5586C24.0831 12.5875 24.2019 12.7175 24.1954 12.7251C24.0986 12.8253 23.9011 12.7243 23.9882 13.062C23.4971 12.3283 23.9615 13.1722 23.7082 13.1059C23.6878 13.1005 23.4787 12.7414 23.5039 12.6596C23.5327 12.576 23.6577 12.6571 23.6865 12.5349C23.6923 12.5067 23.6099 12.1106 23.6132 12.0822C23.6242 11.8683 23.9282 12.4092 23.9493 12.4366C24.1802 12.7305 24.1037 12.2967 24.1225 12.2539C24.1946 12.0653 24.3534 12.0793 24.4302 11.9305C24.4751 11.8368 24.2891 11.4755 24.3535 11.4549C24.4357 11.4284 24.5375 11.4792 24.6291 11.5217C24.7801 11.5879 24.8903 11.6407 24.86 11.312C24.8496 11.1981 24.5956 10.831 24.9073 11.0582C24.9264 11.0728 25.1902 11.2922 25.1502 11.0835C25.1453 11.057 25.0825 10.9439 25.0871 10.9289C25.1195 10.8306 25.2142 10.896 25.264 10.8117C25.3128 10.7281 25.3703 10.6116 25.4713 10.6053C25.5337 10.6004 25.7161 10.7744 25.7693 10.8122C25.921 10.922 25.8575 10.6375 26.0018 10.7924C26.1472 10.9479 26.2174 11.2695 26.3974 11.3211C26.2353 11.0264 26.0741 10.7211 25.9135 10.4234C26.0964 10.3296 26.3113 10.2791 26.5035 10.1966C26.5677 10.1691 26.6302 10.1374 26.6892 10.0987C26.7182 10.0792 26.5964 9.94107 26.625 9.91622C26.7469 9.8118 26.9307 9.85316 27.0438 9.72649C27.1313 9.62766 27.1525 9.39208 27.2399 9.28329C27.5064 9.57208 27.6061 9.35924 27.7454 9.31532C27.7942 9.29976 27.845 9.38916 27.8927 9.39923C28.0716 9.43499 27.8401 9.17806 27.8432 9.11339C27.8558 8.83742 28.2718 9.4851 28.4198 9.37052C28.428 9.36458 28.3119 8.95329 28.312 8.92304C28.3117 8.7626 28.3723 8.9386 28.4335 9.00364C28.4472 9.01825 28.461 9.02725 28.4741 9.02555C28.6047 9.0087 28.7279 9.04664 28.7812 8.86994C28.7966 8.81782 28.7401 8.55032 28.9135 8.67366C28.9363 8.68974 29.0051 8.80673 29.0165 8.80882C29.2168 8.83676 28.9877 8.47734 28.9806 8.30963C28.9732 8.14207 29.2451 8.31488 29.3147 8.37038C29.495 8.51396 29.3214 8.47847 29.33 8.4985C29.4334 8.7371 29.4906 8.64651 29.5645 8.62328C29.8051 8.96503 29.8799 8.88488 29.641 8.59718C29.6148 8.56581 29.5877 8.6308 29.5645 8.62328C29.3926 8.2453 29.4569 8.13922 29.7762 8.38544C29.9259 8.50072 29.9976 8.70538 30.1035 8.54024C30.1515 8.46539 29.9619 8.24666 29.9769 8.14105C30.0072 7.92795 30.2661 7.98024 30.4026 7.9038C30.4205 7.89376 30.4359 7.8819 30.4492 7.86629C30.4905 7.81773 30.3497 7.725 30.3746 7.68752C30.4397 7.58797 30.5878 7.62614 30.64 7.51235C30.6446 7.50193 30.5273 7.38366 30.5531 7.36193C30.7465 7.19474 30.99 7.14168 31.1981 6.97952C31.303 6.89788 31.4136 6.68929 31.5259 6.61701C31.6605 6.52998 31.8618 6.5113 32.0192 6.43889C32.0891 6.40774 32.1452 6.36961 32.1734 6.31666C32.2304 6.20867 32.0975 6.10768 32.053 5.99335C31.9657 5.77312 32.3535 5.92809 32.4141 5.95043C32.4167 5.95082 32.3808 6.04738 32.4777 6.067C32.6284 6.16346 32.4142 5.95147 32.4141 5.95043C32.4542 5.96587 32.6106 5.8419 32.6049 5.79659C32.6034 5.77099 32.4749 5.68153 32.4761 5.67039C32.5293 5.3854 32.521 5.26203 32.5846 5.36079C32.588 5.36169 32.759 5.39855 32.7652 5.39895C32.824 5.40083 32.7701 5.37054 32.6808 5.35302C32.6302 5.36893 32.5603 5.40759 32.5129 5.47279C32.3788 5.66923 32.539 5.8386 32.7977 5.68155C32.8074 5.75885 32.8969 5.65368 32.8875 5.54999C32.8889 5.45414 32.6973 5.73621 32.6916 5.74041C32.45 5.84649 32.4649 5.63612 32.2676 5.51678C32.1738 5.45967 31.9715 5.43439 31.8368 5.42684C31.7312 5.42144 31.7047 5.32854 31.6069 5.35008C31.5936 5.35291 31.5579 5.50056 31.5527 5.505C31.4059 5.64792 31.5626 5.3096 31.5635 5.24041C31.5648 4.98866 31.5554 4.85123 31.3901 4.91997C31.353 4.9359 31.1079 5.41969 31.0546 5.43711C30.9778 5.45657 31.0545 5.27962 30.9712 5.30456C30.964 5.30653 30.9342 5.42051 30.8915 5.4035C30.6964 5.32675 30.4579 5.19612 30.245 5.15839C30.2145 5.15241 30.2105 5.34351 30.1658 5.33792C29.9607 5.31253 29.7093 5.25045 29.5364 5.12531C29.491 5.09328 29.5488 4.97159 29.5458 4.93128C29.5261 4.68699 29.3607 5.00217 29.3437 5.00543C29.1929 5.03627 29.0635 5.00795 28.938 4.96287C28.7346 4.88732 28.5419 4.76038 28.2707 4.80866C28.2486 4.81354 28.0138 5.14529 27.9967 4.82414C27.9954 4.80273 27.9757 4.4737 27.8762 4.68018C27.8701 4.69311 27.8885 4.86373 27.8127 4.83436C27.7367 4.80499 27.5922 4.89388 27.5095 4.69708C27.4835 4.63508 27.4485 4.30521 27.3036 4.54182C27.2946 4.55844 27.0419 5.10497 27.0479 4.70293C27.0483 4.63668 27.1193 4.22054 26.965 4.41675C26.9355 4.45486 26.9647 4.55416 26.8944 4.6034C26.7868 4.67941 26.6757 4.54954 26.531 4.71931C26.5056 4.74939 26.3789 5.02103 26.3369 4.79602C26.3303 4.76077 26.3704 4.62405 26.3348 4.60333C26.1602 4.50348 25.9704 4.57374 25.8025 4.45422C25.7432 4.4122 25.8043 4.19038 25.7452 4.12145C25.6862 4.05253 25.5576 3.97752 25.4741 4.07224C25.3908 4.16702 25.4244 4.53665 25.3152 4.55273C24.841 4.62284 24.4254 4.36242 23.9611 4.28308C23.8948 4.27157 23.9369 4.40644 23.8382 4.39881C23.8117 4.39681 23.7837 4.39527 23.7544 4.39401C23.3857 4.37793 22.7915 4.40888 22.5275 4.12918C22.2906 3.88657 22.628 3.74714 22.4395 3.64041C22.3481 3.58939 22.2091 4.00105 22.1851 4.01236C21.9502 4.12793 21.8056 3.92861 21.6004 3.96984C21.5582 3.97844 21.5852 4.15213 21.5495 4.15757C21.4275 4.1777 21.307 4.09184 21.1906 4.09705C21.1383 4.09978 21.1381 4.23075 21.0912 4.21713C20.9788 4.18606 20.8817 4.12388 20.7784 3.99371C20.7689 3.98185 20.8496 3.82474 20.7648 3.81259C20.628 3.79343 20.4623 3.6608 20.2989 3.77477C20.2498 3.80906 20.2281 4.10679 20.1418 3.89442C20.1237 3.85007 20.1741 3.49412 20.0368 3.79551C20.0136 3.84553 19.7906 4.24975 19.7109 3.97497C19.6898 3.90263 19.6427 3.60577 19.5832 3.64829C19.575 3.65517 19.5959 3.8171 19.5481 3.82983C19.3799 3.87194 19.2054 3.84444 19.0362 3.88506C18.9905 3.8962 19.0478 4.06568 18.9802 4.077C18.8278 4.10272 18.6474 4.07063 18.4889 4.02453C18.4539 4.01434 18.42 4.00346 18.3876 3.99237C18.3218 3.96945 18.3752 3.83459 18.3711 3.8194C18.3053 3.57235 18.242 3.89796 18.215 3.91576C18.0475 4.02208 17.9312 3.86194 17.7821 3.89573C17.7408 3.90463 17.7624 4.06241 17.7536 4.07597C17.663 4.20828 17.7389 3.93034 17.687 3.89687C17.5416 3.80221 17.3738 3.80727 17.2209 3.82072C17.1648 3.82589 17.2197 4.00998 17.1694 4.01253C16.8716 4.0311 16.5635 4.00161 16.2797 3.89125C16.2261 3.87013 16.2653 3.73164 16.2551 3.69932C16.1848 3.47324 16.0593 3.77382 16.032 3.80194C15.9076 3.93034 15.8652 3.80524 15.7583 3.82488C15.2351 3.92282 14.6026 3.82467 14.1127 3.76456C13.7823 3.72415 13.4906 3.66725 13.2007 3.62598C12.9333 3.58794 12.6675 3.56323 12.3757 3.5778C12.3371 3.57956 12.3748 3.76581 12.3415 3.76971C11.9115 3.81175 11.4904 3.73836 11.0591 3.7935C11.0238 3.7977 11.0753 3.97384 11.0187 3.98652C10.9028 4.01375 10.7559 4.00492 10.6383 3.94942C10.5809 3.92268 10.6566 3.77086 10.5988 3.74705C10.4642 3.69126 10.3202 3.67994 10.1829 3.70962C10.1245 3.72264 10.2147 3.90204 10.1387 3.90492C9.61699 3.92841 9.1125 3.96799 8.58121 3.74694C8.54481 3.73176 8.50424 3.36611 8.42907 3.43828C8.42582 3.54011 8.42912 3.65971 8.42931 3.76845C8.25444 3.78637 8.08022 3.79473 7.90648 3.79717C7.33035 3.80524 6.74677 3.74839 6.16815 3.75983C6.13602 3.76052 6.20036 3.95195 6.13828 3.95428C5.77898 3.96806 5.43682 4.03956 5.06491 3.86754C5.02817 3.85075 5.02669 3.5086 4.92186 3.56648C4.9033 3.57698 4.74382 3.63214 4.7067 3.70876C4.70173 3.72027 4.74086 3.87763 4.68921 3.88546C4.38847 3.92819 4.07469 3.91262 3.76967 3.83695C3.7196 3.8245 3.75947 3.65136 3.72365 3.64103C3.46918 3.56906 3.2124 3.71838 2.96761 3.58377C2.80351 3.49314 2.83685 3.19588 2.72961 2.91491C2.7144 2.87526 2.61717 2.87705 2.5978 2.71001C2.54865 2.28995 2.55649 1.82471 2.49863 1.37743C2.48617 1.28107 2.36321 1.39662 2.42115 1.15621C2.42522 1.14009 2.51456 1.0543 2.53164 0.973028C2.54354 0.916817 2.49926 0.748988 2.52715 0.675963C2.55513 0.603004 2.60429 0.742686 2.65368 0.655579C2.70309 0.567469 2.66224 0.375637 2.77344 0.34349ZM32.7999 5.08471C32.8083 4.9062 32.5383 5.44014 32.664 5.3429C32.6703 5.33755 32.7995 5.09345 32.7999 5.08471ZM26.6797 10.6432C26.7331 10.6833 26.7673 10.6936 26.7861 10.6843C26.848 10.6533 26.742 10.4088 26.6107 10.3042C26.5817 10.2811 26.5625 10.2741 26.551 10.2787C26.4951 10.301 26.6218 10.5999 26.6797 10.6432ZM25.7455 11.3956C25.9648 11.5112 25.5672 10.7617 25.5271 10.9806C25.5244 10.9932 25.7326 11.3889 25.7455 11.3956ZM3.11029 2.80123C3.10845 2.7934 3.03754 2.79129 3.0365 2.79928C3.01436 2.99163 3.15575 2.99575 3.11029 2.80123ZM24.812 12.1481C24.9032 12.2293 24.948 12.0542 24.8334 11.9541C24.741 11.8736 24.6984 12.0473 24.812 12.1481ZM28.7099 3.3149C28.7101 3.30587 28.661 3.28913 28.6533 3.33895C28.6289 3.49942 28.7067 3.46655 28.7099 3.3149ZM23.0445 13.0889C23.3162 12.9863 23.8031 13.5231 23.4808 13.6C23.426 13.612 23.4831 13.3477 23.3923 13.3233C23.2177 13.2834 23.3363 13.7169 23.1077 13.5679C23.0558 13.5458 23.0295 13.0929 23.0445 13.0878C23.0445 13.0881 23.0445 13.0885 23.0445 13.0889ZM33.0827 4.42273C33.085 4.4149 33.027 4.37835 33.0219 4.38474C32.9083 4.54067 33.0201 4.61183 33.0827 4.42273ZM25.8183 2.51539C25.8166 2.49816 25.6546 2.46243 25.6472 2.47723C25.5247 2.7751 25.8508 2.84802 25.8183 2.51539ZM32.2186 8.26979C32.2734 8.47048 32.2146 8.54535 32.0178 8.39445C32.0869 8.35678 32.1472 8.3117 32.2186 8.26979ZM2.85559 31.5629C3.02309 31.7162 3.13999 31.9823 3.20182 32.2021C3.22138 32.2709 3.11512 32.3043 3.12483 32.3545C3.14428 32.4532 3.23836 32.4956 3.25211 32.5988C3.25636 32.6335 3.09773 32.7005 3.10537 32.7347C3.14843 32.9216 3.28089 33.0307 3.35694 33.1936C3.7344 34 4.2197 34.7151 4.73702 35.4298C4.90853 35.6667 5.0341 36.0359 5.28595 36.2094C5.31543 36.2295 5.4094 36.1141 5.4228 36.1106C5.62911 36.0594 5.38793 36.237 5.40529 36.3135C5.47773 36.6194 5.68198 36.8498 5.90566 36.9928C5.90702 36.9936 5.90838 36.9944 5.90975 36.9951C6.00484 37.0453 6.12898 36.7706 6.092 36.9623C6.08967 36.9756 5.95961 37.0671 5.96935 37.1002C5.99155 37.1752 6.10443 37.2465 6.13521 37.2935C6.19293 37.3837 6.20651 37.3945 6.27637 37.4636C6.3708 37.5588 6.43414 37.7246 6.5637 37.7952C6.59158 37.8099 6.67033 37.6644 6.72437 37.6768C6.77835 37.6894 6.86345 37.7847 6.87022 37.8414C6.87707 37.8983 6.77951 37.9802 6.76594 38.0069C6.65172 38.2322 6.98921 38.0792 7.00862 38.0849C7.36616 38.208 7.46675 38.5423 7.72666 38.749C7.92296 38.9044 8.17219 39.0151 8.35574 39.1611C8.57563 39.3367 8.72135 39.5459 8.95641 39.6871C8.98106 39.7021 9.05877 39.5269 9.08889 39.5447C9.40865 39.7337 9.70746 39.947 9.9619 40.2454C9.98747 40.2756 9.86169 40.3937 9.88242 40.4324C10.0082 40.6659 10.1801 41.1358 10.6424 40.5645C10.7647 40.6625 10.9172 40.7747 10.9753 40.9668C11.0078 41.0728 10.8961 41.1775 10.947 41.1936C10.9556 41.1963 10.9688 41.1965 10.9882 41.1937C11.0182 41.1895 11.0596 41.0336 11.0991 41.0378C11.265 41.0556 11.3976 41.1763 11.5732 41.1678C11.609 41.1657 11.6607 41.0336 11.6795 41.0142C11.833 40.8578 11.8038 41.2193 11.8189 41.2531C11.9321 41.5064 12.1024 41.5003 12.2796 41.5789C12.3208 41.5971 12.3444 41.4011 12.3864 41.4122C12.6038 41.4724 12.811 41.5711 12.9856 41.7263C13.0245 41.7613 12.926 41.8975 12.9418 41.922C13.0133 42.0285 13.1397 41.7489 13.2099 41.8445C13.2249 41.8643 13.1671 41.9909 13.1656 42.0065C13.142 42.252 13.3048 41.9501 13.3214 41.9481C13.5378 41.9155 13.5436 42.2906 13.7382 42.3013C13.7614 42.3021 13.7676 42.1197 13.8295 42.1322C14.2415 42.2144 14.6587 42.3851 15.0249 42.6249C15.0827 42.6621 15.0047 42.7781 15.0045 42.7949C15.0068 43.0577 15.1338 42.7388 15.1573 42.7316C15.3421 42.6831 15.4323 42.9981 15.6362 42.6294C16.1564 42.8666 16.7519 42.8569 17.2806 43.0798C17.4137 43.1352 17.5455 43.2052 17.6758 43.2973C17.6843 43.3028 17.6431 43.4661 17.6602 43.4764C17.8644 43.6016 17.8586 43.3374 18.0432 43.0417C18.0889 42.9673 18.1449 43.363 18.1513 43.3922C18.1728 43.4999 18.1033 43.7421 18.1125 43.7636C18.1907 43.9333 18.2816 43.1138 18.4119 43.1301C18.4158 43.132 18.3795 43.2804 18.3887 43.2967C18.4171 43.3481 18.4587 43.2925 18.486 43.3485C18.5483 43.4778 18.5292 43.8791 18.6764 43.6616C18.695 43.6332 18.7258 43.1661 18.8417 43.2015C18.8898 43.2163 19.0956 43.2304 19.1494 43.2662C19.2037 43.3022 19.1491 43.4481 19.1524 43.455C19.2883 43.669 19.2211 43.7452 19.2717 44.0466C19.3235 44.3469 19.368 43.6469 19.4074 43.572C19.4466 43.4974 19.5471 43.6717 19.5709 43.7312C19.5944 43.7907 19.5502 43.8829 19.5728 43.9174C19.7245 44.1429 19.6773 43.5772 19.7423 43.4712C19.8943 43.2196 19.9542 43.7459 20.073 43.806C20.105 43.8222 20.0869 43.7021 20.1171 43.6932C20.235 43.6595 20.2896 43.826 20.4287 43.6862C20.4517 43.6635 20.5749 43.3583 20.6281 43.5913C20.6357 43.6249 20.6004 43.7525 20.6473 43.7844C20.7171 43.8323 20.8472 43.8681 20.9284 43.829C20.9883 43.8001 20.9329 43.5834 21.0024 43.6534C21.0334 43.6847 20.9666 43.8063 21.0256 43.8546C21.0842 43.9029 21.2414 43.9049 21.3016 43.9031C21.3617 43.9014 21.3359 43.7381 21.3412 43.7275C21.3734 43.6664 21.4903 43.593 21.4989 43.5935C21.9879 43.5932 22.4561 43.8769 22.9469 43.7907C22.9849 43.7841 22.961 43.6132 22.9668 43.6104C23.0969 43.5398 22.9913 43.9931 23.0818 44.1456C23.0705 43.799 23.1239 43.8621 23.2162 43.8244C23.2607 43.8059 23.2369 43.6717 23.2409 43.658C23.307 43.4543 23.3525 43.7176 23.3644 43.7714C23.4083 43.9695 23.4559 43.7354 23.4861 43.8677C23.5164 43.999 23.4476 44.194 23.5374 44.1913C23.562 44.0672 23.4947 43.7432 23.5622 43.6905C23.6669 43.6083 23.8095 43.6024 23.9569 43.6249C24.1731 43.6572 24.3775 43.748 24.4996 43.761C24.7029 43.7831 24.7685 43.7584 24.8888 43.8C25.1072 43.875 25.0211 43.6368 25.1518 43.5227C25.283 43.4083 25.237 44.0018 25.2606 44.1283C25.2841 44.2548 25.3008 44.1233 25.3271 44.1923C25.3534 44.2613 25.3045 44.3496 25.3618 44.3738C25.4193 44.3982 25.5659 44.1664 25.5808 44.0327C25.6116 43.7495 25.5338 43.4566 25.6807 43.5548C25.6892 43.5606 25.6686 43.7172 25.7008 43.7316C25.957 43.8412 26.2215 43.8365 26.4838 43.9291C26.5199 43.942 26.4972 44.1165 26.5183 44.126C26.7394 44.2253 26.6473 43.9378 26.7471 43.6077C26.7444 44.0399 26.8242 44.3 26.9899 44.293C27.0895 44.2889 27.0614 44.1017 27.1175 43.9653C27.1336 43.9242 27.2091 44.0493 27.216 43.9601C27.2387 43.6684 27.1549 43.3487 27.3265 43.4674C27.3341 43.473 27.3212 43.6327 27.3466 43.6407C27.5118 43.6932 27.5114 43.3895 27.6834 43.3412C27.8182 43.3032 28.0767 43.4701 28.2379 43.4881C28.2705 43.9721 28.4133 43.85 28.4487 43.5117C28.5527 43.5175 28.666 43.4895 28.7642 43.528C28.7988 43.541 28.7882 43.6828 28.7936 43.6975C28.8776 43.9296 28.895 43.6016 28.9156 43.5872C29.1406 43.4441 29.3556 43.6731 29.5625 43.4126C29.5699 43.4033 29.5527 43.0665 29.6358 43.306C29.6414 43.3225 29.5796 43.4821 29.6883 43.4841C29.7968 43.4863 30.018 43.6472 30.1547 43.4772C30.187 43.4363 30.2563 43.1549 30.3464 43.3608C30.3588 43.3887 30.3577 43.486 30.3767 43.5381C30.4381 43.7043 30.4292 43.363 30.5102 43.6457C30.5751 43.8721 30.6726 44.0485 30.7754 43.9999C30.801 43.9878 30.8269 43.9618 30.8526 43.9192C30.8568 43.913 30.8647 43.6408 30.9121 43.6403C30.9878 43.6396 31.1005 43.6844 31.1792 43.6744C31.2168 43.6694 31.1751 43.5053 31.1813 43.5015C31.425 43.3813 31.6225 43.5103 31.906 43.544C31.9601 43.5502 32.0743 43.3074 32.1894 43.4761C32.3161 43.6607 32.302 44.4908 32.5214 44.2681C32.6105 44.1788 32.6114 43.1275 32.8509 43.6438C33.1753 43.4701 33.5322 43.7051 33.853 43.4715C33.8671 43.4612 33.8782 43.166 33.9142 43.1654C33.9678 43.1651 34.0141 43.2965 34.0531 43.3005C34.2168 43.3208 34.3476 43.1863 34.5041 43.184C34.5635 43.1829 34.5614 43.3252 34.6325 43.3237C34.7036 43.3221 34.7258 43.1321 34.8329 43.2082C34.9138 43.2662 35.0365 43.6322 35.1387 43.6629C35.0923 43.2919 35.1592 43.2907 35.2635 43.1769C35.2835 43.1548 35.2417 43.0292 35.2503 43.0121C35.2847 42.9397 35.3396 43.041 35.3711 42.963C35.3788 42.9443 35.3619 42.8177 35.3672 42.7953C35.4111 42.5994 35.567 42.8678 35.5922 42.9148C35.6917 43.0927 35.7031 42.9234 35.7699 42.9896C35.8366 43.0558 35.7652 43.1602 35.8374 43.1959C35.9871 43.2697 36.1608 43.2244 36.3018 43.2102C36.358 43.2037 36.2957 43.0404 36.3032 43.0356C36.4126 42.9763 36.556 43.1388 36.5719 42.7935C36.7782 43.6506 36.6298 42.6992 36.8216 42.8488C36.8368 42.861 36.9135 43.2693 36.8717 43.3369C36.8298 43.4046 36.7346 43.2873 36.6783 43.3914C36.665 43.4159 36.6257 43.8145 36.616 43.8397C36.5408 44.0365 36.4386 43.4245 36.4284 43.3916C36.3159 43.0363 36.2602 43.4675 36.2339 43.5005C36.1141 43.6515 35.9847 43.5816 35.8828 43.6914C35.8161 43.7626 35.8648 44.166 35.804 44.1619C35.5986 44.1489 35.4481 43.5974 35.3247 44.1102C35.298 44.2196 35.3981 44.6542 35.2049 44.328C35.1926 44.3075 35.0417 44.0055 35.0062 44.2141C35.0018 44.2404 35.0192 44.3686 35.0103 44.3808C34.9502 44.4598 34.8904 44.3637 34.8216 44.4227C34.7529 44.4816 34.6721 44.5665 34.5808 44.5342C34.5258 44.5149 34.4287 44.2844 34.3966 44.229C34.3054 44.0694 34.267 44.3555 34.1979 44.1567C34.1285 43.957 34.1723 43.6344 34.0428 43.5162C34.0814 43.8503 34.1156 44.1938 34.1518 44.5301C33.9091 44.5492 33.6335 44.4742 33.3832 44.5198C33.3519 44.5258 33.4062 44.7013 33.3731 44.7124C33.2336 44.7584 33.0938 44.6454 32.953 44.7139C32.8441 44.7676 32.742 44.9723 32.6292 45.0339C32.5125 44.6602 32.353 44.81 32.2228 44.7893C32.1772 44.7823 32.1686 44.6798 32.1335 44.65C31.997 44.5406 32.0922 44.872 32.0645 44.929C31.9448 45.1721 31.8477 44.4085 31.6809 44.4459C31.6721 44.4476 31.6069 44.8673 31.5944 44.8943C31.5165 45.0702 31.5633 44.7541 31.5003 44.7303C31.3852 44.6869 31.2995 44.5975 31.1848 44.7303C31.1515 44.7695 31.0888 45.0331 30.9968 44.8437C30.9847 44.8189 30.9761 44.6835 30.9677 44.6764C30.9002 44.6236 30.871 44.6797 30.8534 44.7713C30.8318 44.8841 30.8279 45.0507 30.7926 45.1343C30.7284 45.2858 30.5787 45.005 30.5461 44.923C30.4608 44.711 30.586 44.8249 30.5874 44.8031C30.6029 44.5443 30.5196 44.5968 30.4509 44.5818C30.4012 44.1669 30.3092 44.201 30.3793 44.5679C30.388 44.6078 30.4354 44.5641 30.4509 44.5818C30.4342 44.9952 30.3286 45.0582 30.176 44.6879C30.1044 44.5143 30.1363 44.3011 29.9778 44.3928C29.9059 44.4342 29.9614 44.718 29.9022 44.8022C29.7665 44.9943 29.5463 44.7446 29.3958 44.8C29.3411 44.8202 29.4092 44.9723 29.3722 44.9915C29.274 45.0428 29.1746 44.9327 29.0781 45.0014C29.0693 45.0078 29.1055 45.1702 29.074 45.175C28.8397 45.2135 28.6134 45.1255 28.3571 45.1418C28.2331 45.1497 28.0193 45.2563 27.8911 45.2467C27.6684 45.2314 27.3853 45.0094 27.2046 45.0785C27.0834 45.1231 27.1195 45.2861 27.0726 45.4014C26.9811 45.6249 26.7765 45.2456 26.7492 45.1866C26.7483 45.1846 26.853 45.14 26.7914 45.0586C26.7487 44.8843 26.7504 45.1857 26.7492 45.1866C26.7308 45.1486 26.5163 45.1224 26.476 45.1559C26.454 45.1743 26.4746 45.3296 26.463 45.3362C26.1856 45.4901 25.9066 45.5422 25.6178 45.4801C25.6125 45.4771 25.6137 45.3022 25.6013 45.2974C25.4289 45.2262 25.3286 45.4434 25.1932 45.5746C25.058 45.7057 24.9463 45.6663 24.8571 45.3686C24.7541 45.4091 24.6028 45.2799 24.5166 45.2011C24.4304 45.1224 24.4251 45.4626 24.4177 45.4695C24.2505 45.6303 24.1301 45.5695 23.9777 45.5147C23.9228 45.4947 23.8642 45.4755 23.7981 45.4679C23.6801 45.454 23.4482 45.5042 23.3222 45.5412C23.2225 45.571 23.1629 45.4911 23.0714 45.5416C23.0591 45.5483 23.0707 45.6998 23.0669 45.7056C22.9635 45.8861 23.0151 45.5163 22.9946 45.45C22.9203 45.209 22.8757 45.0807 22.7453 45.1922C22.7145 45.2178 22.6172 45.7496 22.5598 45.7798C22.4857 45.8182 22.5165 45.6276 22.4391 45.6726C22.4325 45.6762 22.4317 45.7941 22.3845 45.788C22.165 45.7613 21.9297 45.6866 21.7054 45.6908C21.6747 45.691 21.7077 45.8792 21.6632 45.8824C21.4564 45.8975 21.2241 45.8811 21.02 45.7835C20.9702 45.7589 21.0085 45.6297 20.9994 45.5903C20.9438 45.3521 20.831 45.6884 20.8146 45.694C20.4254 45.8372 20.1724 45.5108 19.7717 45.627C19.7505 45.6341 19.5571 45.9859 19.5116 45.6665C19.5082 45.6452 19.4655 45.3189 19.3836 45.5322C19.3784 45.5455 19.408 45.7144 19.3322 45.6906C19.2567 45.6668 19.1217 45.7651 19.0344 45.5737C19.0064 45.5134 18.9612 45.1867 18.8366 45.4305C18.8296 45.4478 18.6132 46.0059 18.5991 45.603C18.5972 45.5367 18.6537 45.1186 18.5092 45.3198C18.4814 45.3588 18.5125 45.4572 18.445 45.5085C18.341 45.5876 18.2319 45.4607 18.0947 45.6328C18.071 45.6634 17.9491 45.9366 17.9093 45.7121C17.9032 45.6769 17.9416 45.5399 17.9081 45.5196C17.7485 45.4222 17.5619 45.4912 17.4029 45.369C17.3461 45.3259 17.4113 45.1054 17.3567 45.0355C17.302 44.9655 17.184 44.8877 17.1016 44.9798C17.0187 45.0719 17.0337 45.442 16.9286 45.4544C16.9151 45.4559 16.9017 45.4572 16.8883 45.4582C16.4486 45.4904 16.0677 45.2146 15.6524 45.0962C15.5893 45.0781 15.6155 45.2165 15.5203 45.1987C15.1767 45.1369 14.5313 45.1064 14.3043 44.7583C14.1238 44.481 14.4656 44.3988 14.309 44.2634C14.2346 44.1987 14.0282 44.5792 14.0031 44.5859C13.7576 44.657 13.663 44.4342 13.4609 44.4325C13.4189 44.4321 13.4066 44.6072 13.3712 44.605C13.2496 44.5986 13.1546 44.4886 13.044 44.4674C12.9942 44.4583 12.9625 44.5853 12.9215 44.5613C12.8233 44.5053 12.7471 44.4218 12.6831 44.2704C12.6775 44.2567 12.793 44.1246 12.7173 44.0922C12.5943 44.04 12.481 43.8718 12.296 43.9368C12.241 43.9565 12.1353 44.2359 12.1158 44.0086C12.1117 43.961 12.2622 43.6348 12.0477 43.8848C12.0126 43.9268 11.6834 44.248 11.6932 43.962C11.6956 43.8868 11.7455 43.591 11.6782 43.6136C11.6685 43.6176 11.6363 43.7775 11.5883 43.775C11.4201 43.7636 11.2718 43.6833 11.1011 43.6645C11.0553 43.6597 11.05 43.8382 10.9834 43.826C10.7998 43.7924 10.6109 43.6614 10.4706 43.5387C10.4193 43.4933 10.5186 43.3879 10.5205 43.3723C10.5548 43.1199 10.3748 43.3979 10.3433 43.4042C10.1509 43.4397 10.1099 43.2481 9.96228 43.2201C9.92158 43.2119 9.87696 43.3646 9.86357 43.3736C9.8596 43.376 9.8559 43.3782 9.85246 43.3802C9.73823 43.4451 9.90848 43.2331 9.87655 43.1834C9.78535 43.0391 9.63539 42.9756 9.49471 42.9234C9.44297 42.9044 9.41184 43.0936 9.36615 43.0746C9.09375 42.9646 8.83591 42.7998 8.64227 42.5696C8.60602 42.526 8.70601 42.4227 8.71268 42.3895C8.76137 42.159 8.51035 42.3637 8.47275 42.3748C8.30365 42.4274 8.32892 42.2978 8.22895 42.263C7.73521 42.0933 7.26161 41.6738 6.90679 41.3512C6.44718 40.9345 6.1511 40.5303 5.68736 40.1844C5.65776 40.162 5.5661 40.3281 5.5389 40.3105C5.1912 40.0741 4.93476 39.7472 4.59704 39.5041C4.56935 39.4837 4.48465 39.646 4.43596 39.6174C4.33521 39.5595 4.23759 39.4531 4.19434 39.3328C4.1731 39.2745 4.33208 39.2179 4.30873 39.1615C4.25365 39.029 4.16747 38.9265 4.054 38.8531C4.05375 38.8529 4.05349 38.8527 4.05323 38.8526C4.00488 38.8242 3.93767 39.0093 3.88479 38.9593C3.51995 38.6189 3.15395 38.2766 2.99524 37.7513C2.9841 37.715 3.2369 37.448 3.13646 37.4411C3.05694 37.5047 2.96785 37.5846 2.88512 37.6552C2.36196 37.1566 2.00113 36.5238 1.58137 35.9576C1.56344 35.9335 1.44281 36.0943 1.40722 36.0481C1.203 35.783 0.951786 35.5423 0.907368 35.1592C0.902347 35.1208 1.18684 34.931 1.08645 34.8822C1.06847 34.8739 0.943089 34.7805 0.860263 34.7928C0.8481 34.7951 0.73572 34.9115 0.703227 34.875C0.518256 34.6632 0.367181 34.3896 0.291162 34.1117C0.278535 34.0658 0.444918 34.0073 0.437178 33.9738C0.381655 33.7378 0.134797 33.6074 0.139061 33.3395C0.142693 33.1602 0.416068 33.0402 0.612193 32.8145C0.63987 32.7827 0.595026 32.7046 0.731954 32.6069C1.07618 32.3613 1.48408 32.1383 1.84807 31.8722C1.92653 31.815 1.77469 31.7764 2.00792 31.703C2.02365 31.6983 2.13526 31.7248 2.21273 31.6973C2.26635 31.6784 2.39363 31.5614 2.46831 31.5462C2.54288 31.5309 2.44212 31.6377 2.53765 31.6312C2.63395 31.6239 2.78297 31.4972 2.85559 31.5629ZM24.1303 44.8481C24.048 44.6859 24.0435 45.2841 24.129 45.1399C24.1332 45.1322 24.1346 44.856 24.1303 44.8481ZM33.5826 44.0256C33.4473 43.7766 33.4247 44.1702 33.5222 44.3635C33.6199 44.5565 33.6239 44.1011 33.5826 44.0256ZM34.6045 43.7005C34.4597 43.5097 34.5512 44.3532 34.6555 44.1666C34.6616 44.156 34.613 43.7116 34.6045 43.7005ZM0.880088 33.0618C0.886017 33.0564 0.856315 32.9993 0.848956 33.0025C0.672853 33.0816 0.732666 33.1961 0.880088 33.0618ZM35.6255 43.3509C35.5722 43.2424 35.4824 43.3885 35.5484 43.5234C35.6017 43.632 35.6917 43.4858 35.6255 43.3509ZM20.0544 44.0974C20.0538 44.0884 20.0087 44.077 20.0058 44.1273C19.9965 44.2893 20.064 44.2485 20.0544 44.0974ZM37.3859 43.088C37.1163 43.0958 36.856 42.4257 37.1535 42.4618C37.2075 42.4683 37.0743 42.6994 37.1496 42.7521C37.2875 42.8481 37.3034 42.4009 37.4622 42.6156C37.4911 42.6549 37.4016 43.0892 37.3856 43.0891C37.3857 43.0887 37.3858 43.0884 37.3859 43.088ZM24.0747 44.1303C24.073 44.1224 24.0094 44.1157 24.008 44.1235C23.9757 44.3139 24.1043 44.3275 24.0747 44.1303ZM17.4861 43.4338C17.4851 43.4166 17.345 43.3785 17.338 43.393C17.2132 43.6877 17.4999 43.7663 17.4861 43.4338ZM28.2414 43.5008C28.2954 43.3052 28.3752 43.2766 28.4484 43.5115C28.3792 43.5041 28.3105 43.5074 28.2414 43.5008Z" fill="black"/>
</svg>
