<svg width="29" height="55" viewBox="0 0 29 55" fill="none" xmlns="http://www.w3.org/2000/svg">
<path d="M28.8217 2.70605C28.5631 3.18946 28.1219 3.65408 27.8003 3.92506C27.6926 4.01846 27.6562 3.89595 27.5776 3.95768C27.425 4.07699 27.3368 4.26159 27.1931 4.35372C27.1423 4.38715 27.0622 4.22262 27.0119 4.2601C26.7431 4.45935 26.5306 4.7655 26.2887 4.98228C25.6892 5.5286 25.13 6.04669 24.55 6.59486C23.8982 7.2091 23.2619 7.81637 22.5932 8.44374C22.197 8.81423 21.5877 9.21659 21.2439 9.65856C21.2024 9.71175 21.3352 9.78706 21.3349 9.80466C21.3261 10.0779 21.1615 9.8212 21.0411 9.88654C20.6331 10.1097 20.2696 10.4325 19.9802 10.7629C19.9285 10.8219 19.8789 10.8813 19.8316 10.9407C19.6979 11.1091 20.0564 11.1648 19.7879 11.2007C19.7694 11.2034 19.6973 11.0543 19.6439 11.0839C19.5235 11.1511 19.3626 11.3509 19.2816 11.4141C19.1254 11.5348 19.1034 11.5588 18.9702 11.6887C18.7871 11.8654 18.5163 12.0244 18.3454 12.2436C18.3093 12.2907 18.4776 12.3499 18.43 12.4354C18.3822 12.5211 18.196 12.6862 18.1111 12.7169C18.0256 12.7483 17.962 12.6338 17.9313 12.6235C17.674 12.5348 17.7086 12.9755 17.6882 13.0073C17.3105 13.5801 16.7645 13.8471 16.3167 14.2874C16.0663 14.534 15.8261 14.8179 15.5852 15.0744C15.4986 15.1665 15.4119 15.2552 15.3245 15.3374C14.9296 15.7084 14.542 15.9654 14.1746 16.3448C14.1358 16.3846 14.3141 16.4742 14.267 16.5231C13.7685 17.0401 13.2391 17.5271 12.6378 17.9347C12.5775 17.9754 12.528 17.7923 12.4609 17.8258C12.0571 18.0289 11.32 18.2898 11.6392 18.9855C11.4941 19.1021 11.3317 19.2351 11.1602 19.3373C11.0551 19.4005 10.9456 19.4538 10.8353 19.4849C10.6459 19.5386 10.6405 19.2921 10.542 19.4954C10.5197 19.541 10.6745 19.6109 10.6327 19.6708C10.4569 19.9226 10.1873 20.1132 10.0351 20.3754C10.0043 20.4291 10.1142 20.5198 10.1197 20.55C10.1585 20.8004 9.74689 20.7248 9.69201 20.7436C9.27577 20.8909 9.12211 21.1424 8.85714 21.3946C8.79343 21.4551 9.00061 21.5187 8.94413 21.5819C8.64955 21.9074 8.32101 22.2056 7.97022 22.4308C7.88911 22.4833 7.83827 22.3064 7.79338 22.3259C7.5964 22.4136 7.77882 22.6633 7.59627 22.7497C7.55814 22.7681 7.47717 22.6532 7.46128 22.6475C7.21205 22.557 7.37907 22.8678 7.36356 22.8935C7.17357 23.2211 6.78139 23.1271 6.5469 23.4114C6.54356 23.4155 6.54026 23.4197 6.537 23.4239C6.51062 23.4588 6.70333 23.5153 6.62172 23.6057C6.10005 24.1882 5.45412 24.7611 4.79654 25.2247C4.6949 25.2966 4.66283 25.1417 4.64586 25.1357C4.37693 25.0463 4.56328 25.3419 4.5452 25.3784C4.40993 25.6465 3.96493 25.6933 4.11841 26.1173C3.44012 26.3643 3.04425 28.0964 2.38227 26.9537C2.82955 27.3405 3.16903 27.7454 3.4271 28.163C3.4373 28.1781 3.30038 28.2798 3.32125 28.3095C3.57521 28.6717 3.67005 28.405 4.08834 28.3582C4.1916 28.3449 4.08728 28.7728 4.08298 28.8073C4.06405 28.9316 3.84056 29.0642 3.84422 29.095C3.8833 29.3471 4.40896 28.7101 4.58882 28.8773C4.59343 28.8835 4.46666 28.9728 4.47124 28.9977C4.48515 29.0754 4.57277 29.0747 4.58359 29.1562C4.60819 29.3446 4.37212 29.6722 4.70184 29.6615C4.7416 29.6572 5.03847 29.2945 5.17561 29.4532C5.2297 29.5164 5.51783 29.7758 5.58045 29.8763C5.64148 29.9752 5.48211 30.0323 5.48346 30.0425C5.5683 30.3958 5.43041 30.3795 5.33706 30.6968C5.2388 31.008 5.69096 30.4709 5.78705 30.4539C5.88282 30.4369 5.92491 30.7026 5.92454 30.7808C5.92381 30.8588 5.81005 30.8831 5.82209 30.939C5.90562 31.3085 6.16144 30.7808 6.31364 30.7715C6.67407 30.7495 6.46474 31.2672 6.58214 31.4485C6.61555 31.4991 6.66197 31.38 6.70782 31.4082C6.79612 31.4634 6.83697 31.5409 6.88805 31.6125C6.94159 31.6876 7.00632 31.7563 7.14979 31.7876C7.19542 31.7975 7.55545 31.7084 7.49263 31.9652C7.48288 32.0015 7.35694 32.0606 7.40256 32.144C7.46755 32.2659 7.62157 32.4515 7.75646 32.5203C7.85604 32.5709 7.91438 32.3316 7.96637 32.4727C7.98947 32.5357 7.82261 32.5492 7.87324 32.6599C7.92317 32.7699 8.13748 32.9668 8.22172 33.0413C8.3056 33.1153 8.37322 32.956 8.38727 32.9543C8.47358 32.9503 8.67248 33.0324 8.68642 33.046C9.37162 33.6739 9.80197 34.4657 10.5253 35.0381C10.5822 35.0835 10.666 34.9271 10.6759 34.9328C10.9019 35.0515 10.448 35.2443 10.4639 35.471C10.6872 35.2048 10.7149 35.3188 10.8641 35.4101C10.9362 35.4539 10.9972 35.3263 11.0121 35.3217C11.2416 35.2601 11.1201 35.5088 11.0984 35.5627C11.0191 35.7616 11.2455 35.6551 11.1934 35.7888C11.1418 35.9218 10.9145 35.9729 11.0351 36.0862C11.1547 36.0294 11.2919 35.711 11.4188 35.7608C11.4942 35.7903 11.5692 35.8351 11.6432 35.8908C12.0408 36.1904 12.39 36.7871 12.6072 37.03C12.8624 37.3157 12.9666 37.3856 13.0918 37.5706C13.3194 37.9065 13.3834 37.6327 13.6374 37.7273C13.8922 37.8228 13.3916 38.1608 13.3281 38.2767C13.2642 38.3921 13.3832 38.3254 13.3655 38.4059C13.3477 38.4863 13.2198 38.4821 13.2745 38.5725C13.3293 38.6629 13.6882 38.6983 13.8075 38.629C14.0598 38.4818 14.1774 38.1828 14.2977 38.4467C14.3045 38.4619 14.1595 38.5376 14.1908 38.5905C14.4433 39.0066 14.7887 39.3576 15.0516 39.7666C15.0875 39.823 14.9243 39.9051 14.9439 39.9393C15.1462 40.2953 15.2512 39.9885 15.633 39.9104C15.2948 40.1827 15.1938 40.4541 15.4041 40.6665C15.5304 40.7943 15.6413 40.6389 15.8174 40.6267C15.8425 40.6249 15.8555 40.6646 15.8706 40.702C15.8874 40.7436 15.9067 40.7823 15.9483 40.7578C16.2065 40.6061 16.3502 40.2916 16.478 40.601C16.4833 40.6149 16.3408 40.6968 16.3672 40.7367C16.537 40.9946 16.777 40.806 17.0346 41.0115C17.2367 41.1727 17.4282 41.6261 17.6122 41.8536C17.2643 42.1916 17.5361 42.3074 17.8532 42.1521C17.9776 42.2967 18.1355 42.4291 18.2316 42.5918C18.2647 42.6477 18.1358 42.7171 18.1306 42.7334C18.0471 42.9874 18.3362 42.817 18.374 42.8371C18.7728 43.0641 18.8497 43.4937 19.3201 43.6288C19.3368 43.6335 19.5945 43.415 19.4981 43.6681C19.4911 43.6852 19.2838 43.6927 19.4147 43.8432C19.5458 43.9939 19.6778 44.3873 19.9801 44.4739C20.054 44.4959 20.3696 44.428 20.3116 44.675C20.3034 44.7083 20.2202 44.7613 20.2 44.8177C20.1362 44.9979 20.4128 44.794 20.2744 45.0668C20.2142 45.1854 20.1779 45.3089 20.1835 45.4155C20.1909 45.5542 20.2693 45.6644 20.459 45.6983C20.4692 45.7006 20.7089 45.5602 20.766 45.6256C20.8563 45.7294 20.9532 45.9112 21.0575 46.0174C21.1071 46.0677 21.1968 45.9191 21.2075 45.9258C21.6041 46.2036 21.726 46.5478 22.0203 46.9524C22.0763 47.0292 22.4277 47.068 22.4192 47.3226C22.4097 47.6013 21.6736 48.0194 22.1222 48.2109C22.3044 48.2906 23.2129 47.7334 23.0484 48.3511C23.5882 48.7358 23.758 49.3303 24.3389 49.6884C24.3642 49.7038 24.6411 49.5758 24.6827 49.6281C24.744 49.706 24.6785 49.837 24.7183 49.8949C24.72 49.8975 24.7218 49.9002 24.7236 49.9027C24.8793 50.1328 25.164 50.2823 25.3347 50.5043C25.4017 50.5908 25.2708 50.655 25.3497 50.7573C25.428 50.8589 25.6241 50.8018 25.6675 50.9891C25.7022 51.1338 25.5078 51.4892 25.5885 51.6523C25.8774 51.415 25.9523 51.5145 26.1648 51.6139C26.2057 51.6329 26.2772 51.5157 26.3017 51.5203C26.4038 51.5377 26.3674 51.6622 26.4704 51.6719C26.4953 51.6744 26.594 51.5934 26.6199 51.5909C26.8376 51.5584 26.7677 51.9257 26.7491 51.9823C26.6925 52.2134 26.8624 52.1595 26.8712 52.2897C26.879 52.4189 26.7075 52.3544 26.7489 52.4787C26.8262 52.7249 27.055 52.9839 27.2078 53.1972C27.2684 53.2804 27.3626 53.1221 27.3744 53.1316C27.5394 53.2794 27.5039 53.5397 27.8631 53.4601C27.2323 54.0902 28.0152 53.5258 28.0379 53.8768C28.039 53.9044 27.7067 54.1544 27.6091 54.117C27.5116 54.0798 27.5426 53.8943 27.3886 53.8404C27.3533 53.8284 26.9288 53.9032 26.8987 53.9024C26.6522 53.8763 27.1344 53.4861 27.1564 53.4584C27.3883 53.1532 26.9231 53.233 26.8654 53.2058C26.59 53.0649 26.5428 52.8651 26.334 52.7558C26.1993 52.6859 25.8747 52.9308 25.815 52.8376C25.6045 52.515 25.9738 52.0732 25.3759 52.1257C25.248 52.1369 24.9578 52.4809 25.0521 52.0526C25.0585 52.026 25.1709 51.6657 24.9399 51.7073C24.9111 51.7129 24.8126 51.7969 24.7927 51.7904C24.661 51.7453 24.6859 51.6166 24.5606 51.5478C24.4352 51.4789 24.2722 51.4044 24.2006 51.2568C24.1575 51.1681 24.2559 50.9155 24.2691 50.8413C24.3061 50.6267 24.011 50.7147 24.113 50.5197C24.1975 50.3575 24.4422 50.2643 24.5032 50.0997C24.516 50.0653 24.5206 50.0276 24.5139 49.9854C24.2583 50.204 23.9895 50.4212 23.7295 50.6378C23.4431 50.3004 23.1929 49.8634 22.8863 49.5516C22.8465 49.5115 22.7525 49.6763 22.7063 49.6365C22.5121 49.4676 22.4527 49.2135 22.2291 49.0482C22.0503 48.9152 21.7655 48.8905 21.5814 48.7645C21.7727 48.4058 21.4568 48.2604 21.3193 48.0637C21.2711 47.995 21.3496 47.9284 21.3332 47.8623C21.2691 47.6141 21.0944 47.9242 21.0133 47.9164C20.6709 47.8872 21.2152 47.3427 20.9912 47.1351C20.9795 47.1239 20.5463 47.2641 20.5089 47.2621C20.2686 47.2517 20.5924 47.1427 20.5391 47.0431C20.4416 46.8611 20.4161 46.6929 20.1658 46.6059C20.0919 46.5803 19.7978 46.6435 19.8492 46.4119C19.8559 46.3816 19.9601 46.2943 19.9562 46.2788C19.8773 46.0064 19.566 46.2975 19.3624 46.2946C19.3356 46.2941 19.3132 46.2875 19.2948 46.276C19.1731 46.2002 19.2181 45.9143 19.2433 45.8346C19.3174 45.5962 19.3743 45.8349 19.3941 45.8245C19.6307 45.7006 19.4855 45.6142 19.4136 45.5092C19.7007 45.2051 19.5601 45.0966 19.3379 45.4015C19.3138 45.435 19.4098 45.4779 19.4136 45.5092C19.0439 45.7169 18.8688 45.6121 18.9989 45.1969C19.0589 45.0014 19.2738 44.9218 19.0101 44.7614C18.8904 44.6885 18.7215 44.9271 18.5816 44.8963C18.2622 44.8257 18.2029 44.3823 17.9722 44.2083C17.8888 44.1455 17.847 44.3273 17.7865 44.2887C17.6263 44.1868 17.5954 43.9874 17.4211 43.8971C17.4052 43.889 17.317 44.0343 17.2747 43.9945C16.9521 43.6954 16.754 43.3457 16.4317 43.0178C16.2761 42.8595 15.9309 42.6422 15.7806 42.4661C15.5329 42.1771 15.3585 41.6964 15.0993 41.4776C15.0853 41.4659 15.0711 41.4549 15.0567 41.4447C14.8724 41.314 14.7909 41.4655 14.644 41.4779C14.36 41.5027 14.4034 40.9966 14.4146 40.9228C14.4151 40.9204 14.5785 41.0276 14.5655 40.8955C14.6474 40.7284 14.4167 40.9237 14.4146 40.9228C14.4218 40.8749 14.1758 40.5787 14.0991 40.5473C14.0575 40.5305 13.9642 40.6579 13.9446 40.647C13.4809 40.3852 13.0897 40.0556 12.7701 39.6393C12.7658 39.6307 12.8981 39.5157 12.8863 39.4968C12.725 39.2295 12.4375 39.247 12.1717 39.1644C11.906 39.0817 11.796 38.9148 11.9013 38.5983C11.7433 38.4968 11.6396 38.2103 11.5852 38.045C11.5302 37.8791 11.2775 38.1077 11.2631 38.103C10.808 37.9602 10.7721 37.6539 10.4769 37.3251C10.4465 37.2911 10.4071 37.2526 10.3622 37.2118C10.1982 37.0628 9.96116 36.8843 9.81371 36.7823C9.66483 36.6799 9.64339 36.5484 9.49088 36.4719C9.47032 36.4615 9.38112 36.5859 9.37224 36.5854C9.11596 36.5898 9.4358 36.3841 9.45479 36.3105C9.52129 36.0405 9.54741 35.8878 9.29773 35.8042C9.2402 35.7847 8.75576 36.0581 8.6629 36.012C8.5428 35.9513 8.7102 35.8472 8.58137 35.7875C8.57049 35.7823 8.49044 35.8688 8.43453 35.8078C8.1806 35.5323 7.9126 35.1799 7.61579 34.912C7.57544 34.875 7.4968 35.0585 7.43643 35.0073C7.15422 34.7677 6.87079 34.4873 6.66128 34.1665C6.61156 34.0885 6.74264 34.0326 6.75536 33.9911C6.83097 33.7382 6.47376 33.8698 6.44941 33.8556C6.06193 33.6389 5.84801 33.293 5.58071 32.9911C5.44952 32.8431 5.30693 32.7068 5.11596 32.5927C5.08165 32.5721 4.61797 32.6378 4.74178 32.3227C4.74977 32.3015 4.87876 31.9812 4.6484 32.066C4.63407 32.0714 4.57648 32.2445 4.49036 32.1401C4.4012 32.0329 4.18258 31.9787 4.16151 31.7093C4.15601 31.6255 4.26986 31.2924 3.96588 31.3576C3.94453 31.362 3.35246 31.5988 3.55782 31.2449C3.59158 31.1866 3.89179 30.8896 3.59626 30.9092C3.53647 30.9107 3.52852 31.0322 3.40659 30.9986C3.21968 30.9477 3.13637 30.7152 2.86666 30.7207C2.81879 30.7216 2.52015 30.8347 2.5867 30.5998C2.59523 30.5612 2.71897 30.4839 2.68038 30.4265C2.49111 30.1472 2.22765 30.0315 2.06082 29.7452C2.00153 29.644 2.19733 29.5147 2.15499 29.3928C2.10681 29.2656 2.0109 29.0981 1.84099 29.084C1.68198 29.08 1.53159 29.4338 1.38735 29.342C1.23365 29.2556 0.934755 29.01 0.987524 29.0142C0.0104606 23.9643 1.62803 26.2449 1.68541 25.1839C1.76456 25.106 1.60565 25.0856 1.71851 24.9618C2.16235 24.4741 2.82439 23.629 3.40435 23.4386C3.87976 23.2748 3.5974 23.7962 3.90442 23.6158C4.04128 23.5394 3.86229 23.1219 3.87982 23.0856C4.04236 22.7329 4.38077 22.6603 4.56934 22.393C4.60913 22.3368 4.44155 22.2621 4.47683 22.2156C4.59642 22.0555 4.80088 21.9609 4.93075 21.8132C4.93816 21.8047 4.94295 21.796 4.94579 21.7871C4.96521 21.7263 4.89386 21.6587 4.95073 21.615C5.10988 21.49 5.26273 21.4166 5.47882 21.3759C5.4985 21.3722 5.5324 21.5667 5.63544 21.474C5.80206 21.3233 6.0889 21.2111 6.19313 20.9345C6.22316 20.8525 6.01857 20.635 6.28254 20.6651C6.33719 20.6719 6.55636 20.959 6.4761 20.6042C6.4627 20.5452 6.40157 20.0207 6.70528 20.1005C6.78512 20.1216 7.06765 20.2556 7.10303 20.1567C7.10706 20.1425 6.9583 20.0636 7.0034 19.9977C7.16734 19.7645 7.38193 19.5791 7.54467 19.3503C7.58827 19.2886 7.39319 19.247 7.46194 19.1588C7.6505 18.9165 7.95767 18.6762 8.21185 18.5012C8.30336 18.4393 8.34538 18.5902 8.36148 18.5954C8.62242 18.681 8.44761 18.3928 8.46469 18.3495C8.57419 18.0829 8.82731 18.0518 8.97606 17.8501C9.01745 17.7947 8.87353 17.7162 8.87354 17.6967C8.87958 17.5005 9.00029 17.7754 9.08601 17.7353C9.19967 17.6825 9.30324 17.6084 9.39757 17.5256C9.5009 17.4352 9.59423 17.3325 9.68132 17.2331C9.74182 17.1636 9.54126 17.1054 9.59704 17.0446C9.92288 16.6839 10.3104 16.3312 10.7171 16.0749C10.7947 16.0262 10.8518 16.1657 10.8875 16.1755C11.1356 16.2458 11.0587 15.8954 11.0697 15.8441C11.1193 15.6108 11.2609 15.6455 11.3707 15.5063C11.903 14.8275 12.7178 14.1471 13.3286 13.6205C13.4851 13.4853 13.637 13.3583 13.7853 13.2359C14.3923 12.7346 14.9366 12.3131 15.4912 11.7281C15.5353 11.6819 15.3589 11.5945 15.3952 11.553C15.8704 11.022 16.4126 10.5884 16.8818 10.0471C16.9202 10.0032 16.7365 9.9371 16.7939 9.86254C16.9108 9.70872 17.0887 9.54544 17.2642 9.45011C17.3496 9.40337 17.3675 9.59906 17.4513 9.54982C17.6493 9.43271 17.8281 9.27211 17.969 9.09132C18.0287 9.01407 17.7979 8.98978 17.8855 8.89937C17.9232 8.86009 17.9607 8.82085 17.9982 8.78172C18.5413 8.21393 19.1025 7.63005 19.8178 7.21498C19.8714 7.18344 20.1697 7.40278 20.2087 7.2628C20.1429 7.1847 20.0572 7.10123 19.9825 7.02207C20.7461 6.1667 21.6177 5.4202 22.4354 4.59918C22.496 4.53842 22.5535 4.48015 22.6147 4.41703C22.6523 4.37815 22.4469 4.31323 22.5188 4.23743C22.9382 3.79435 23.2525 3.37548 23.8084 3.04713C23.8611 3.01679 24.0959 3.26675 24.1705 3.10605C24.186 3.07481 24.3108 2.86629 24.3095 2.7554C24.3074 2.74091 24.1553 2.67224 24.2094 2.60393C24.5193 2.21583 24.8674 1.86545 25.2348 1.56555C25.292 1.52007 25.3766 1.68574 25.4186 1.65416C25.7457 1.38969 25.8575 1.03069 26.1701 0.831546C26.3539 0.733181 26.57 0.941924 26.8824 0.977494C26.93 0.977861 26.9904 0.871598 27.1438 0.937577C27.5394 1.08927 27.9234 1.36139 28.3463 1.52065C28.4412 1.55719 28.4615 1.22421 28.6093 1.48641C28.6209 1.50602 28.5934 1.75226 28.6335 1.84175C28.6623 1.90488 28.8502 1.91561 28.8703 2.02762C28.8935 2.1336 28.7027 2.17754 28.724 2.30024C28.7367 2.43779 28.9299 2.49944 28.8217 2.70605ZM11.3373 37.3018C11.349 37.0854 10.9171 37.4998 11.1272 37.5044C11.1379 37.5041 11.337 37.3127 11.3373 37.3018ZM23.5395 49.5751C23.6075 49.2581 23.2395 49.4308 23.1752 49.6624C23.1087 49.8912 23.5206 49.6732 23.5395 49.5751ZM24.9787 50.8949C24.9909 50.5932 24.3315 51.128 24.6137 51.1896C24.6299 51.1933 24.978 50.9124 24.9787 50.8949ZM26.6334 1.51733C26.6418 1.51963 26.716 1.42682 26.7104 1.42075C26.5891 1.26263 26.4448 1.44281 26.6334 1.51733ZM26.3783 52.2185C26.4229 52.0916 26.1886 52.0159 26.1355 52.1757C26.093 52.3043 26.3232 52.3765 26.3783 52.2185ZM6.38563 31.6646C6.39012 31.6565 6.33677 31.595 6.30335 31.6327C6.19568 31.7543 6.30919 31.7987 6.38563 31.6646ZM28.2274 54.8544C28.0651 54.4347 28.4942 53.8139 28.6975 54.3272C28.7288 54.4154 28.4048 54.2554 28.4062 54.3906C28.3944 54.608 28.897 54.6349 28.7412 54.9265C28.7115 54.9657 28.2372 54.8736 28.2262 54.854C28.2266 54.8542 28.227 54.8543 28.2274 54.8544ZM11.7793 36.7294C11.7828 36.7217 11.706 36.6367 11.6986 36.6405C11.5219 36.7336 11.6763 36.9048 11.7793 36.7294ZM3.09065 28.076C3.10073 28.0623 2.91956 27.8753 2.89252 27.8718C2.58328 28.0098 2.96073 28.3992 3.09065 28.076ZM17.6062 41.866C17.83 41.8199 17.952 41.9107 17.853 42.1515C17.7733 42.0532 17.6863 41.963 17.6062 41.866Z" fill="black"/>
</svg>
