<svg width="41" height="59" viewBox="0 0 41 59" fill="none" xmlns="http://www.w3.org/2000/svg">
<path d="M1.22825 12.1911C1.43381 12.1215 1.71368 12.1539 1.92924 12.2125C1.99678 12.2306 1.97248 12.339 2.0195 12.3563C2.11146 12.3899 2.18954 12.3311 2.28111 12.3727C2.3115 12.387 2.28951 12.5574 2.32105 12.5685C2.49381 12.6285 2.64776 12.5726 2.81945 12.594C3.66517 12.6995 4.48726 12.6935 5.33478 12.699C5.61422 12.7006 5.96415 12.8241 6.24501 12.7336C6.27779 12.7229 6.24549 12.5777 6.25083 12.565C6.33501 12.3713 6.3268 12.6706 6.39527 12.7045C6.66697 12.8383 6.95567 12.8276 7.19976 12.75C7.20124 12.7495 7.20266 12.749 7.20404 12.7484C7.29992 12.7086 7.17456 12.4359 7.29325 12.5885C7.30159 12.5989 7.28785 12.7572 7.31829 12.7713C7.38729 12.8032 7.50987 12.7648 7.56194 12.7729C7.66237 12.7892 7.67851 12.7863 7.77169 12.7802C7.89918 12.7733 8.05697 12.8381 8.19044 12.7913C8.21889 12.7808 8.16687 12.6242 8.21103 12.593C8.25523 12.562 8.37936 12.5652 8.42399 12.5994C8.46864 12.6336 8.46156 12.7607 8.47133 12.7889C8.55218 13.027 8.6661 12.6783 8.68369 12.6684C9.00549 12.4984 9.30784 12.6661 9.62108 12.6392C9.85884 12.6184 10.1078 12.5336 10.3348 12.5233C10.6054 12.5115 10.8412 12.5789 11.1018 12.542C11.1293 12.5383 11.0811 12.353 11.1147 12.3481C11.4715 12.296 11.8295 12.2865 12.1973 12.3834C12.2342 12.3932 12.2019 12.5622 12.2396 12.5819C12.4701 12.6991 12.8442 12.9958 12.9138 12.2662C13.0646 12.2818 13.2472 12.2956 13.3921 12.4293C13.4721 12.5029 13.4339 12.6503 13.483 12.6377C13.4913 12.6356 13.502 12.6289 13.5163 12.6165C13.5386 12.5974 13.4945 12.4426 13.5289 12.4258C13.6738 12.3556 13.8417 12.393 13.9829 12.2992C14.0116 12.2797 13.9915 12.1393 13.9979 12.1132C14.0524 11.9014 14.2004 12.2315 14.2286 12.254C14.4424 12.4216 14.581 12.3369 14.7661 12.3258C14.8091 12.3234 14.7425 12.1381 14.7832 12.1289C14.9949 12.0837 15.2178 12.0813 15.4344 12.1478C15.4826 12.1631 15.4533 12.3281 15.4771 12.3437C15.5815 12.4102 15.5776 12.1035 15.6773 12.1614C15.6983 12.1732 15.6987 12.3124 15.7037 12.3273C15.7804 12.5608 15.8012 12.219 15.8151 12.2103C15.9909 12.093 16.1385 12.4355 16.3124 12.3706C16.3331 12.3625 16.2704 12.1916 16.3297 12.1795C16.7246 12.0976 17.1507 12.1101 17.5575 12.2168C17.6207 12.2331 17.5879 12.3682 17.5932 12.384C17.6774 12.6318 17.6897 12.2893 17.7086 12.2748C17.8588 12.1696 18.0303 12.4415 18.1037 12.0287C18.65 12.0959 19.1744 11.9271 19.7189 12.0158C19.8529 12.0377 19.9882 12.0751 20.1254 12.1356C20.1341 12.139 20.1331 12.3073 20.1506 12.3135C20.3611 12.3902 20.3003 12.134 20.4077 11.8053C20.4348 11.7227 20.5698 12.0973 20.5813 12.1246C20.6231 12.2253 20.6097 12.4767 20.6224 12.4958C20.7275 12.6454 20.6434 11.8252 20.7672 11.8145C20.7711 11.8155 20.7676 11.9681 20.7793 11.9823C20.8155 12.0267 20.8425 11.964 20.8785 12.0134C20.9609 12.1277 21.0203 12.5247 21.1112 12.2831C21.1226 12.2518 21.062 11.7876 21.1744 11.8003C21.2193 11.8057 21.4137 11.7813 21.4709 11.8069C21.528 11.8325 21.5032 11.9858 21.5076 11.992C21.6715 12.1782 21.6226 12.2652 21.7211 12.553C21.8195 12.8396 21.7402 12.1428 21.7637 12.0623C21.7873 11.982 21.9089 12.1368 21.9402 12.1915C21.9715 12.2463 21.9465 12.3445 21.9728 12.3747C22.1467 12.5722 22.0122 12.0222 22.0543 11.907C22.1536 11.6343 22.2917 12.1444 22.4071 12.1858C22.4383 12.1969 22.4038 12.081 22.4297 12.0677C22.5321 12.0167 22.6095 12.1729 22.7177 12.0146C22.7354 11.9888 22.8066 11.6691 22.889 11.8923C22.9007 11.9246 22.8862 12.0558 22.9338 12.0809C23.005 12.1186 23.129 12.1366 23.1979 12.0873C23.2488 12.0509 23.1694 11.8433 23.2424 11.9038C23.2749 11.9307 23.2298 12.0599 23.2899 12.1002C23.3497 12.1405 23.4924 12.123 23.5466 12.1141C23.6006 12.1051 23.5572 11.9463 23.5607 11.935C23.5821 11.8705 23.6799 11.7839 23.6891 11.7833C24.1527 11.7245 24.6046 11.9603 25.05 11.8322C25.085 11.8223 25.047 11.6542 25.0522 11.6509C25.1679 11.5694 25.11 12.0299 25.2078 12.1741C25.1664 11.8299 25.2219 11.8882 25.3044 11.8431C25.3442 11.8211 25.3104 11.6893 25.313 11.6753C25.3572 11.467 25.4219 11.7258 25.4374 11.7785C25.4946 11.9725 25.5191 11.7355 25.5578 11.8651C25.5965 11.9937 25.5493 12.1932 25.6313 12.1838C25.644 12.0583 25.5557 11.7404 25.6137 11.6828C25.7038 11.5931 25.8348 11.577 25.9713 11.5898C26.1663 11.6082 26.3724 11.6856 26.4851 11.6917C26.6763 11.7021 26.7354 11.6742 26.8493 11.7096C27.055 11.7736 26.9619 11.5401 27.0762 11.42C27.1909 11.2999 27.1803 11.8946 27.2088 12.0199C27.2369 12.1451 27.245 12.0131 27.2726 12.0809C27.3002 12.1487 27.2605 12.2389 27.3137 12.2607C27.3669 12.2825 27.4873 12.0454 27.4942 11.9113C27.5088 11.6273 27.4212 11.3379 27.5648 11.4301C27.5731 11.4356 27.561 11.5927 27.592 11.6059C27.8381 11.7054 28.0839 11.6921 28.3286 11.7779C28.3622 11.7899 28.3478 11.9648 28.3675 11.9738C28.5733 12.0676 28.4786 11.7826 28.5591 11.4505C28.5711 11.8825 28.6528 12.1405 28.8021 12.1305C28.8919 12.1246 28.8607 11.9381 28.9075 11.8009C28.9216 11.7596 28.9959 11.8831 28.9999 11.7939C29.0135 11.502 28.9266 11.1839 29.0911 11.2996C29.0984 11.3052 29.0902 11.465 29.1143 11.4726C29.2703 11.5225 29.2629 11.2191 29.4227 11.1688C29.5479 11.1294 29.7905 11.2944 29.9383 11.3121C29.976 11.7957 30.104 11.6735 30.1316 11.3355C30.2271 11.3412 30.3274 11.3138 30.4224 11.3522C30.4551 11.3652 30.4463 11.5069 30.4515 11.5217C30.5322 11.7538 30.5459 11.4261 30.5652 11.4117C30.7755 11.2695 30.976 11.5002 31.1663 11.2423C31.1731 11.233 31.1569 10.8962 31.2339 11.1366C31.2389 11.1532 31.1822 11.3118 31.2823 11.3153C31.3824 11.3188 31.5844 11.4831 31.7088 11.3159C31.739 11.2756 31.8002 10.996 31.8857 11.2032C31.8972 11.2314 31.8954 11.3285 31.9129 11.381C31.9693 11.5483 31.9637 11.2069 32.0373 11.4911C32.0963 11.7187 32.1856 11.8969 32.2815 11.8507C32.3053 11.8392 32.3296 11.8139 32.3539 11.7719C32.3578 11.7658 32.368 11.494 32.412 11.4946C32.4822 11.4958 32.5858 11.5435 32.6584 11.5356C32.6931 11.5317 32.6568 11.3666 32.6626 11.363C32.8888 11.2497 33.068 11.3846 33.3242 11.4281C33.3712 11.4364 33.4841 11.1975 33.5883 11.3701C33.7026 11.559 33.6713 12.3875 33.8795 12.1732C33.9635 12.0874 33.9906 11.0374 34.1988 11.5627C34.5034 11.4025 34.8186 11.6538 35.1192 11.4365C35.1328 11.4268 35.1534 11.1327 35.1872 11.1338C35.2374 11.136 35.2761 11.2694 35.3124 11.2754C35.4645 11.3038 35.5908 11.1762 35.7357 11.1822C35.7907 11.1842 35.7835 11.3261 35.8491 11.3285C35.9146 11.3307 35.9423 11.1423 36.0378 11.2241C36.1099 11.2866 36.2081 11.6586 36.2999 11.6952C36.2719 11.3224 36.3331 11.325 36.4324 11.2176C36.4515 11.1968 36.4184 11.069 36.4269 11.0524C36.4611 10.9823 36.507 11.0866 36.5386 11.0107C36.5464 10.9924 36.5361 10.8652 36.5418 10.8431C36.59 10.6503 36.7194 10.9277 36.7417 10.976C36.8269 11.1594 36.8454 10.9912 36.9049 11.0612C36.9642 11.1312 36.8927 11.2311 36.9585 11.2711C37.095 11.3538 37.2584 11.3193 37.3895 11.3142C37.4417 11.3113 37.3919 11.1445 37.399 11.1401C37.5031 11.088 37.6272 11.2595 37.6585 10.9162C37.8068 11.7845 37.7163 10.8259 37.885 10.988C37.8984 11.0011 37.9486 11.4134 37.9072 11.4781C37.8657 11.5427 37.7842 11.4193 37.7276 11.5194C37.7141 11.5429 37.6591 11.9379 37.6491 11.9624C37.5709 12.1538 37.5056 11.5368 37.4978 11.5032C37.4107 11.1416 37.3388 11.5682 37.313 11.5994C37.1951 11.7425 37.0782 11.6648 36.9782 11.7682C36.9128 11.8352 36.94 12.2406 36.8835 12.2329C36.6958 12.2074 36.5839 11.6481 36.4515 12.1524C36.4231 12.26 36.4974 12.6994 36.3347 12.3626C36.3245 12.3414 36.1986 12.0314 36.1583 12.2376C36.1533 12.2636 36.1644 12.3925 36.1558 12.4042C36.0982 12.4796 36.0472 12.3804 35.9821 12.4354C35.9171 12.4905 35.8401 12.5708 35.7574 12.5337C35.7076 12.5116 35.6263 12.2765 35.5985 12.2196C35.5199 12.0555 35.4743 12.3392 35.4172 12.1373C35.3596 11.9345 35.4118 11.6146 35.2952 11.4902C35.3195 11.8256 35.3395 12.1703 35.3616 12.5078C35.1296 12.5154 34.8931 12.4262 34.6626 12.4605C34.634 12.4651 34.6786 12.6428 34.6483 12.6524C34.5208 12.6919 34.3964 12.5731 34.266 12.6356C34.165 12.6846 34.0667 12.885 33.9616 12.9422C33.8627 12.5644 33.7118 12.7082 33.5912 12.6831C33.549 12.6744 33.5431 12.5718 33.511 12.5408C33.3901 12.4266 33.4704 12.761 33.4446 12.8169C33.3337 13.0554 33.258 12.2895 33.1064 12.3213C33.0983 12.3228 33.0335 12.7399 33.0219 12.7665C32.9491 12.9398 32.9956 12.6254 32.9387 12.5998C32.8348 12.553 32.7576 12.4612 32.6512 12.5907C32.6202 12.629 32.5602 12.8907 32.4777 12.6991C32.4668 12.6741 32.4603 12.5385 32.4526 12.5312C32.391 12.4769 32.3635 12.5322 32.3465 12.6233C32.3256 12.7355 32.3206 12.902 32.2874 12.9847C32.2273 13.1345 32.0911 12.8508 32.0612 12.7683C31.9834 12.5547 32.0989 12.671 32.1003 12.6493C32.1166 12.391 32.0389 12.4417 31.9749 12.4254C31.9309 12.0099 31.8461 12.0422 31.9087 12.4102C31.9157 12.4503 31.9609 12.4074 31.9749 12.4254C31.9548 12.8384 31.8636 12.8988 31.7259 12.526C31.6615 12.3513 31.6906 12.1388 31.547 12.2277C31.4817 12.2679 31.5322 12.5523 31.4787 12.6355C31.3564 12.8254 31.1554 12.573 31.0174 12.6271C30.9673 12.6467 31.0306 12.7994 30.9968 12.8182C30.9072 12.8686 30.8151 12.7578 30.7266 12.826C30.7186 12.8324 30.7531 12.9949 30.7242 12.9994C30.5052 13.0371 30.3042 12.948 30.0736 12.9645C29.9622 12.9725 29.7708 13.0799 29.654 13.0714C29.4515 13.0576 29.1856 12.8395 29.0198 12.9119C28.9116 12.9584 28.9498 13.1206 28.9115 13.2365C28.8377 13.4613 28.6421 13.0863 28.615 13.028C28.6142 13.0261 28.7068 12.9793 28.6485 12.8993C28.604 12.7261 28.6161 13.0272 28.615 13.028C28.5974 12.9904 28.4028 12.9692 28.3675 13.0038C28.3483 13.0227 28.3729 13.1774 28.3626 13.1843C28.1185 13.3451 27.8654 13.4062 27.5997 13.3553C27.5949 13.3526 27.5871 13.1779 27.5759 13.1736C27.4191 13.1088 27.3408 13.3299 27.2275 13.4668C27.1143 13.6036 27.0124 13.5695 26.9139 13.2768C26.8236 13.3223 26.6783 13.2015 26.5944 13.1278C26.5104 13.0542 26.5282 13.394 26.522 13.4012C26.3799 13.5715 26.2674 13.5182 26.1298 13.4731C26.0798 13.4566 26.0264 13.4413 25.9671 13.4381C25.8613 13.432 25.6582 13.4986 25.5482 13.5452C25.4613 13.5826 25.4007 13.5077 25.3226 13.5654C25.312 13.5731 25.336 13.7231 25.3331 13.7292C25.2564 13.9174 25.2695 13.5448 25.245 13.4806C25.156 13.2468 25.1027 13.1228 24.9944 13.2454C24.9695 13.2735 24.9351 13.8113 24.8882 13.8465C24.8271 13.8913 24.8354 13.6989 24.7719 13.7507C24.7664 13.755 24.7775 13.8723 24.7355 13.8706C24.5405 13.8644 24.3242 13.8138 24.1246 13.8424C24.0973 13.8459 24.1481 14.0292 24.1089 14.0373C23.9249 14.075 23.7207 14.0853 23.5323 14.0133C23.4859 13.995 23.5028 13.8622 23.4899 13.8243C23.4108 13.595 23.3553 13.9426 23.3419 13.9502C23.0242 14.1418 22.7446 13.855 22.4192 14.0301C22.4015 14.0403 22.2907 14.4172 22.2012 14.1095C22.1951 14.089 22.1056 13.774 22.0688 13.9976C22.0666 14.0116 22.1194 14.1732 22.05 14.1621C21.9807 14.1511 21.8806 14.2704 21.7719 14.0971C21.7376 14.0425 21.6408 13.7289 21.574 13.991C21.5698 14.0093 21.4821 14.5966 21.4001 14.2034C21.3867 14.1386 21.3595 13.7175 21.2724 13.9419C21.2558 13.9854 21.3002 14.0761 21.2522 14.1391C21.1786 14.2362 21.0615 14.1327 20.9775 14.3284C20.9629 14.363 20.9128 14.6546 20.8352 14.443C20.823 14.4099 20.8289 14.268 20.7962 14.255C20.6406 14.1922 20.4922 14.2992 20.3325 14.2149C20.276 14.1853 20.2843 13.956 20.2232 13.8999C20.1622 13.8438 20.0445 13.7949 19.9947 13.9035C19.9449 14.0122 20.0393 14.3684 19.954 14.4048C19.9431 14.4094 19.9321 14.4138 19.9211 14.4179C19.5598 14.5521 19.1762 14.3822 18.8041 14.3832C18.7472 14.3834 18.8049 14.5088 18.7219 14.5183C18.4158 14.5538 17.8962 14.7197 17.6068 14.4671C17.3749 14.2648 17.6292 14.0746 17.4587 13.9987C17.3764 13.9625 17.3267 14.3902 17.3088 14.405C17.1346 14.5551 16.9899 14.3797 16.8278 14.4509C16.7943 14.4657 16.8424 14.6332 16.8138 14.6439C16.716 14.6819 16.6043 14.6147 16.5096 14.6367C16.4672 14.6469 16.4861 14.7764 16.4457 14.7697C16.3492 14.7551 16.2609 14.7075 16.1584 14.5932C16.149 14.5828 16.1921 14.4161 16.1216 14.416C16.0075 14.4163 15.8567 14.3078 15.7368 14.443C15.7013 14.4837 15.7248 14.7813 15.6244 14.5828C15.6034 14.5414 15.5955 14.1823 15.5247 14.4991C15.5127 14.5518 15.3851 14.9818 15.2826 14.7201C15.2556 14.6513 15.1773 14.3635 15.1346 14.4134C15.1289 14.4212 15.1676 14.5789 15.1304 14.5977C14.999 14.6613 14.8552 14.6562 14.7198 14.718C14.6837 14.7349 14.7532 14.8955 14.6989 14.9153C14.5497 14.97 14.3554 14.9439 14.2017 14.9047C14.145 14.89 14.1716 14.7498 14.1663 14.7352C14.0815 14.4982 14.0709 14.8287 14.0511 14.8495C13.9278 14.975 13.8136 14.8298 13.6944 14.8808C13.6615 14.8945 13.6986 15.0485 13.693 15.063C13.6913 15.0671 13.6897 15.0709 13.6881 15.0743C13.6362 15.1883 13.6617 14.9194 13.6163 14.893C13.4851 14.816 13.348 14.8402 13.2245 14.8706C13.1791 14.8821 13.246 15.0586 13.2052 15.0668C12.9634 15.1185 12.7079 15.1226 12.4611 15.043C12.4146 15.0276 12.4311 14.8859 12.419 14.8549C12.3358 14.6377 12.2668 14.9493 12.2475 14.9801C12.1597 15.1205 12.1109 15.0005 12.0255 15.0309C11.6085 15.1813 11.0748 15.144 10.6678 15.1275C10.1375 15.1068 9.71909 15.0086 9.22151 15.0852C9.18987 15.0898 9.23755 15.2725 9.21047 15.2789C8.86021 15.3534 8.50559 15.3103 8.15537 15.3937C8.1266 15.4002 8.18335 15.5724 8.13768 15.5887C8.0441 15.6235 7.92189 15.6242 7.82028 15.5763C7.77074 15.5532 7.82144 15.3971 7.77184 15.377C7.65631 15.3298 7.53652 15.3273 7.42512 15.365C7.42486 15.3651 7.42461 15.3652 7.42437 15.3653C7.37867 15.3833 7.46558 15.5551 7.40316 15.5624C6.97596 15.6163 6.55754 15.6827 6.10474 15.4865C6.07369 15.473 6.01688 15.11 5.95963 15.1853C5.96341 15.2871 5.97371 15.4063 5.98075 15.5148C5.36159 15.6257 4.73323 15.5511 4.10576 15.5842C4.07931 15.5857 4.1412 15.7753 4.09007 15.7791C3.79416 15.8011 3.51157 15.8789 3.19294 15.712C3.16135 15.6957 3.14808 15.354 3.06399 15.413C3.04918 15.4237 2.91982 15.4803 2.89161 15.5571C2.88787 15.5686 2.92555 15.7255 2.88302 15.7337C2.63565 15.7788 2.37124 15.7646 2.11409 15.6884C2.07257 15.6759 2.10111 15.503 2.07141 15.4926C1.86084 15.4199 1.65085 15.5671 1.44393 15.4298C1.30537 15.3373 1.32882 15.0407 1.23558 14.7586C1.2224 14.7188 1.14145 14.7192 1.12319 14.552C1.07705 14.1317 1.07716 13.6671 1.02338 13.2195C1.01186 13.1231 0.912945 13.2363 0.957025 12.9972C0.960163 12.9812 1.0317 12.8971 1.04426 12.8162C1.05303 12.7602 1.01456 12.5919 1.03597 12.5194C1.05738 12.447 1.09942 12.5873 1.13776 12.5011C1.176 12.4138 1.13978 12.2217 1.22825 12.1911ZM26.2166 12.7987C26.1314 12.642 26.1711 13.239 26.2364 13.0899C26.2395 13.0819 26.221 12.8064 26.2166 12.7987ZM34.8566 11.9765C34.741 11.7215 34.7096 12.1134 34.7926 12.3109C34.8756 12.5082 34.8917 12.0538 34.8566 11.9765ZM35.8094 11.703C35.6827 11.5049 35.7367 12.3516 35.8393 12.1709C35.8452 12.1606 35.8168 11.7145 35.8094 11.703ZM1.54866 14.6497C1.547 14.6419 1.48856 14.639 1.48784 14.647C1.473 14.8389 1.58986 14.8445 1.54866 14.6497ZM36.7533 11.413C36.7096 11.3016 36.6225 11.4418 36.6769 11.5805C36.7206 11.692 36.8077 11.5517 36.7533 11.413ZM22.4346 12.4765C22.4327 12.4677 22.3906 12.4632 22.3957 12.5133C22.4121 12.6748 22.4659 12.6243 22.4346 12.4765ZM38.3867 11.2657C38.1426 11.2542 37.9374 10.5683 38.207 10.625C38.2558 10.6352 38.1231 10.8563 38.189 10.9141C38.3095 11.0195 38.3463 10.5749 38.4792 10.8003C38.5033 10.8415 38.4007 11.2679 38.3863 11.2667C38.3865 11.2664 38.3866 11.2661 38.3867 11.2657ZM26.1152 12.0862C26.1131 12.0785 26.0551 12.0758 26.0544 12.0838C26.0393 12.2756 26.1561 12.281 26.1152 12.0862ZM19.9856 12.3115C19.981 12.295 19.8466 12.2905 19.8435 12.3063C19.8001 12.6216 20.072 12.6316 19.9856 12.3115ZM29.9417 11.3248C29.9883 11.1291 30.0613 11.1004 30.1313 11.3353C30.068 11.3278 30.0052 11.3312 29.9417 11.3248ZM25.4812 1.19341C25.5249 1.90637 25.459 2.81236 25.3748 3.51149C25.3486 3.73892 25.2438 3.63098 25.221 3.77679C25.1768 4.05511 25.2259 4.32732 25.1736 4.62656C25.1557 4.72604 24.9891 4.60006 24.9742 4.70465C24.894 5.26863 24.9317 5.76312 24.89 6.35526C24.8458 6.92613 24.8064 7.5666 24.7718 8.15225C24.6473 10.2953 24.5767 12.4524 24.4999 14.6407C24.4819 15.1587 24.4245 15.7192 24.3871 16.2988C24.3572 16.7665 24.3404 17.2148 24.3671 17.6393C24.3743 17.7506 24.5222 17.6853 24.5342 17.7065C24.7179 18.0401 24.4211 17.9276 24.3801 18.145C24.2182 19.0179 24.1988 19.9571 24.2509 20.7972C24.2736 21.1508 24.5683 20.7989 24.402 21.1519C24.3908 21.1764 24.2347 21.0864 24.2175 21.1826C24.1787 21.4008 24.2045 21.8166 24.1912 21.9867C24.1648 22.3145 24.1661 22.3689 24.1628 22.6798C24.1568 23.106 24.0767 23.6062 24.1102 24.0618C24.1178 24.1589 24.2788 24.0311 24.3054 24.186C24.3157 24.2459 24.3197 24.3437 24.3186 24.4493C24.3167 24.6172 24.3019 24.8045 24.2783 24.8893C24.2399 25.0275 24.114 24.9681 24.085 24.9925C23.8402 25.193 24.1764 25.6684 24.1845 25.7294C24.323 26.8405 24.1277 27.7973 24.1262 28.839C24.1254 29.6292 24.1878 30.4844 24.1788 31.2312C24.1726 31.7143 24.1449 32.1602 24.1229 32.5994C24.1039 32.9821 24.0892 33.352 24.0967 33.7661C24.0982 33.8588 24.2867 33.7499 24.2889 33.8632C24.3126 35.0515 24.2955 36.2547 24.1738 37.431C24.1615 37.5523 23.995 37.3969 23.9728 37.5181C23.8402 38.2655 23.5208 39.3916 24.2458 39.8394C24.2319 40.1249 24.2182 40.4415 24.1822 40.7385C24.1557 40.9577 24.1172 41.1879 24.0575 41.3763C23.967 41.6647 23.7835 41.3885 23.8644 41.7387C23.8825 41.8173 24.0393 41.7131 24.0545 41.8309C24.1179 42.3139 24.0739 42.8737 24.1631 43.3665C24.1816 43.466 24.3227 43.4365 24.3487 43.4643C24.5588 43.702 24.2238 44.0785 24.2008 44.1795C24.0283 44.879 24.1096 45.2939 24.1209 45.9459C24.1234 46.0899 24.3093 45.9151 24.3185 46.0529C24.3626 46.7238 24.3699 47.5041 24.3145 48.1864C24.3021 48.3455 24.134 48.2078 24.1198 48.284C24.0676 48.5706 24.2907 48.6459 24.3199 48.8474C24.3249 48.8856 24.3248 48.9275 24.3174 48.9746C24.3061 49.047 24.1662 49.0119 24.1514 49.0256C23.9182 49.2333 24.2511 49.4005 24.2567 49.4562C24.3258 50.1386 23.8923 50.5509 23.7492 51.1782C23.7302 51.2564 23.9554 51.1345 23.8899 51.3541C23.5843 52.3599 22.9883 53.2762 22.2695 53.9958C21.9598 54.3073 21.6175 54.5945 21.2745 54.8376C21.0981 54.9619 21.1282 54.7615 21.1071 54.7583C20.7794 54.7056 20.8876 55.0543 20.839 55.1098C20.4607 55.5304 19.8794 55.5789 19.7823 56.1183C19.1559 56.462 18.5319 56.7814 17.8895 57.0696C16.4202 57.7276 14.8552 58.2157 13.2492 58.2193C13.2202 58.2197 13.2442 58.0461 13.1867 58.0476C12.9774 58.052 12.8476 58.0738 12.755 58.115C12.5418 58.2084 12.5361 58.4057 12.2368 58.661C12.1259 58.754 11.7399 58.4008 11.7079 58.374C11.5875 58.2787 11.6861 58.0215 11.647 58.0042C11.3312 57.8667 11.4314 58.6887 10.9992 58.7062C10.9859 58.7053 11.0367 58.5517 11.0005 58.5379C10.888 58.4943 10.7813 58.5571 10.6701 58.5065C10.4169 58.3879 10.336 57.9892 9.96073 58.2131C9.9118 58.2411 9.97391 58.7141 9.58816 58.6742C9.43265 58.6614 8.75493 58.6135 8.56955 58.5559C8.38253 58.5024 8.53247 58.369 8.51935 58.3609C8.04249 58.0956 8.24581 58.0387 8.04959 57.7096C7.86263 57.3792 7.8055 58.0801 7.68998 58.1385C7.65982 58.1539 7.61241 58.1485 7.55956 58.1309C7.41197 58.0825 7.2213 57.9371 7.16725 57.8808C7.09326 57.8043 7.2239 57.7371 7.15455 57.6872C6.70453 57.3549 6.84451 57.9671 6.64464 58.0292C6.15241 58.1643 5.99846 57.5633 5.67182 57.3805C5.5811 57.3296 5.61547 57.4709 5.52543 57.4465C5.16569 57.3425 5.04614 57.1108 4.60479 57.0454C4.53632 57.0378 4.07404 57.1365 4.00775 56.8198C3.99948 56.7751 4.14297 56.7138 4.02712 56.6042C3.85264 56.4411 3.53663 56.1738 3.3196 56.045C3.15744 55.9491 3.18123 56.2514 3.04495 56.0451C2.98642 55.9531 3.21303 55.9885 3.09871 55.8249C3.07049 55.7838 3.02657 55.7319 2.97532 55.6746C2.8219 55.5055 2.61117 55.281 2.5192 55.176C2.39602 55.0365 2.33674 55.2173 2.3188 55.2132C2.20965 55.1846 1.92061 54.9329 1.90285 54.9031C1.04191 53.7319 0.825332 52.2979 0.718227 51.0203C0.699074 50.8048 0.681485 50.5943 0.664045 50.3873C0.654577 50.2676 0.485623 50.355 0.482414 50.3369C0.407974 49.9277 0.862414 50.234 1.01756 49.9567C0.67078 50.0058 0.732673 49.821 0.71723 49.5212C0.710503 49.3768 0.570034 49.4477 0.557309 49.4341C0.373004 49.2017 0.657867 49.0737 0.716215 49.0461C0.932399 48.9329 0.731266 48.7351 0.882291 48.6622C1.03155 48.5958 1.17602 48.8401 1.23399 48.5749C1.13224 48.4688 0.764658 48.6068 0.767251 48.3772C0.710283 47.4413 1.91741 46.1266 2.5236 45.8391C3.103 45.4647 3.28534 45.3789 3.67028 45.2581C4.33825 45.0962 4.02554 44.9569 4.43095 44.7245C4.47965 44.6976 4.522 44.6843 4.55834 44.6816C4.81328 44.6646 4.76411 45.1555 4.84076 45.252C4.92356 45.3638 4.95731 45.2229 5.0421 45.2774C5.12516 45.3325 4.99169 45.4463 5.15934 45.4409C5.33084 45.4317 5.73936 45.1491 5.78924 45.0124C5.88907 44.7199 5.63901 44.4432 6.12429 44.5062C6.152 44.5103 6.07519 44.672 6.18056 44.68C6.99017 44.7427 7.81293 44.7748 8.60693 44.9507C8.71062 44.9748 8.60133 45.1388 8.66119 45.1549C9.28798 45.3286 9.08946 45.0163 9.49341 44.7377C9.35244 45.1557 9.53976 45.4413 10.0078 45.5143C10.2963 45.5606 10.2765 45.3672 10.4895 45.2678C10.5538 45.2377 10.7429 45.402 10.7971 45.3219C10.9724 45.0598 10.8417 44.7041 11.3219 44.9265C11.3427 44.9367 11.2428 45.0789 11.3166 45.103C11.7471 45.2457 11.8889 45.0311 12.3197 45.0485C12.3677 45.0506 12.42 45.0558 12.4757 45.0647C12.8877 45.1268 13.605 45.4943 14.064 45.6501C13.9291 46.1157 14.3925 46.1261 14.6652 45.8561C14.9647 45.9543 15.3163 46.0371 15.583 46.1655C15.678 46.2105 15.5721 46.3253 15.5803 46.3436C15.7032 46.6292 15.9285 46.3581 15.9978 46.3661C16.7563 46.4708 17.2308 46.8857 17.9834 46.8872C18.0101 46.8872 18.1581 46.5814 18.2596 46.8766C18.2657 46.8967 17.9921 46.9645 18.307 47.0857C18.5889 47.1946 19.049 47.5193 19.503 47.5835C19.5439 47.5892 19.5846 47.5928 19.6251 47.5938C19.7421 47.5965 20.1107 47.4406 20.241 47.7175C20.2587 47.7551 20.1944 47.8343 20.2158 47.8997C20.2855 48.1087 20.4767 47.8167 20.528 48.1454C20.5795 48.4743 20.8191 48.7968 21.3273 48.7805C21.3425 48.7802 21.5469 48.57 21.677 48.6257C21.8877 48.7158 22.1713 48.8888 22.397 48.9775C22.5052 49.0198 22.4987 48.8366 22.5185 48.8413C23.29 49.0505 23.7332 49.3947 24.4834 49.7811C24.6186 49.8513 25.1247 49.818 25.3184 50.0983C25.5375 50.4084 24.9054 51.0308 25.6654 51.1473C25.8121 51.1704 26.0641 50.9995 26.3194 50.8932C26.5988 50.777 26.8819 50.7383 27.0218 51.1101C28.0332 51.4146 28.8074 52.0734 29.8409 52.3455C29.8875 52.3579 30.1478 52.1581 30.2481 52.2096C30.396 52.2862 30.4231 52.4496 30.5242 52.5073C30.951 52.7543 31.4098 52.8441 31.8346 53.0686C31.9961 53.1537 31.8774 53.2528 32.0701 53.3545C32.2642 53.457 32.4721 53.3516 32.6955 53.56C32.8462 53.7015 32.8873 54.0672 33.0694 54.2632C33.0906 54.286 33.1136 54.3065 33.139 54.3241C33.3139 53.9935 33.4914 54.0891 33.8582 54.1603C33.9288 54.1739 33.9198 54.0243 33.9562 54.0247C34.1055 54.0237 34.169 54.1756 34.3145 54.1663C34.3496 54.1642 34.4077 54.0505 34.4396 54.0423C34.7132 53.9682 34.8986 54.3818 34.93 54.4535C35.0513 54.7266 35.2222 54.6267 35.3472 54.7732C35.4719 54.9197 35.1932 54.8841 35.3577 55.0177C35.6989 55.2945 36.2015 55.5264 36.5829 55.728C36.7363 55.8081 36.7088 55.6026 36.7325 55.6106C37.0713 55.7352 37.3115 56.0627 37.6446 55.8525C37.4634 56.7469 37.878 55.877 38.2528 56.2693C38.282 56.3005 38.136 56.6923 37.971 56.6753C37.8066 56.6586 37.6551 56.434 37.4202 56.4197C37.3644 56.416 36.9267 56.628 36.8807 56.6309C36.5197 56.6524 36.7636 56.0806 36.7644 56.0427C36.7655 55.63 36.258 55.8415 36.162 55.8251C35.7225 55.7503 35.4311 55.5051 35.0686 55.4286C34.8312 55.3777 34.6285 55.7306 34.4699 55.6372C33.943 55.3276 34.007 54.7265 33.2677 54.9094C33.1102 54.9486 33.0242 55.401 32.781 54.8924C32.7794 54.889 32.7763 54.8812 32.7716 54.87C32.7322 54.7752 32.584 54.4393 32.3528 54.5277C32.3203 54.5402 32.2642 54.6568 32.2313 54.6529C32.0117 54.6241 31.9331 54.4713 31.7043 54.4153C31.4746 54.359 31.1932 54.3051 30.976 54.1523C30.845 54.0603 30.7664 53.7556 30.7237 53.6699C30.6045 53.4246 30.2793 53.5791 30.2489 53.3369C30.2174 53.0931 30.5867 52.9199 30.3285 52.65C30.1732 52.9486 29.9988 53.2479 29.8357 53.5449C29.1401 53.2041 28.5128 52.7933 27.8047 52.487C27.7166 52.4493 27.7308 52.6544 27.6346 52.6183C27.2292 52.4656 26.9399 52.194 26.5151 52.0609C26.3187 52 26.0832 51.9823 25.8514 51.9563C25.6986 51.9393 25.5477 51.9187 25.4086 51.8789C25.3602 51.4376 24.8188 51.3453 24.4799 51.1626C24.3579 51.0974 24.4067 51.0065 24.3297 50.9373C24.0386 50.6791 24.0652 51.0598 23.9516 51.0698C23.4666 51.1134 23.73 50.3891 23.2565 50.2134C23.2308 50.2034 22.7761 50.4599 22.724 50.4663C22.3923 50.5107 22.7334 50.3158 22.5767 50.2192C22.291 50.0432 22.1148 49.8664 21.7145 49.8364C21.5974 49.8281 21.2562 49.9681 21.1293 49.7062C21.1125 49.6718 21.1766 49.5513 21.1577 49.5354C20.8109 49.2581 20.6473 49.6522 20.373 49.7013C20.099 49.7506 19.8627 49.3472 19.8229 49.2419C19.7185 48.9686 19.9949 49.2063 20.0126 49.1901C20.219 48.9943 19.9532 48.9409 19.771 48.85C19.8896 48.4483 19.6138 48.3728 19.5816 48.7576C19.5785 48.7997 19.7394 48.8179 19.771 48.85C19.5138 49.1225 19.2451 49.1206 19.05 48.828C19.0133 48.773 18.979 48.7078 18.9477 48.6321C18.8552 48.4081 19.0703 48.2622 18.5784 48.168C18.3562 48.1259 18.3416 48.4259 18.1312 48.4351C17.651 48.4559 17.1681 48.0083 16.7202 47.9065C16.557 47.8693 16.6623 48.0693 16.5494 48.0492C16.2558 47.9986 16.0192 47.7991 15.7104 47.7666C15.6821 47.7638 15.6981 47.9413 15.6065 47.9151C14.9268 47.7251 14.3336 47.4419 13.6235 47.2485C13.281 47.1542 12.6145 47.0802 12.2688 46.9824C12.1544 46.9499 12.0425 46.911 11.9151 46.8653C11.3656 46.6668 10.8388 46.4114 10.3636 46.3788C10.0035 46.3564 10.0562 46.5331 9.8907 46.6206C9.58988 46.7925 9.11227 46.3386 9.05244 46.2724C9.04961 46.2695 9.35975 46.2685 9.207 46.1644C9.13279 45.9778 9.05569 46.272 9.05244 46.2724C9.00532 46.2254 8.42935 46.1299 8.29642 46.1541C8.22891 46.1663 8.25431 46.3249 8.2197 46.3283C7.42016 46.4108 6.6551 46.4447 5.90135 46.4567C5.88806 46.455 5.88772 46.2792 5.8563 46.2776C5.49741 46.2547 5.24271 46.4439 5.02766 46.6205C4.98308 46.6559 4.94336 46.6899 4.89365 46.725C4.59973 46.9376 4.40457 46.9712 4.10079 46.7787C3.89882 46.9088 3.56182 46.9567 3.3576 47.0138C3.15396 47.0695 3.36176 47.346 3.3549 47.3594C3.17084 47.8269 2.88938 47.8846 2.64519 48.3506C2.52216 48.5924 2.45971 49.0421 2.46223 49.3383C2.46368 49.5575 2.37198 49.7031 2.41452 49.9473C2.42047 49.9772 2.57289 49.9449 2.57846 49.954C2.75472 50.1963 2.38731 50.0893 2.32038 50.1438C2.08144 50.3517 1.95308 50.491 2.09561 50.8694C2.09892 50.8781 2.10734 50.8881 2.11991 50.8992C2.23321 50.9998 2.69037 51.1682 2.73806 51.2897C2.80646 51.4671 2.60514 51.4248 2.68583 51.6042C2.6928 51.619 2.8083 51.5994 2.82639 51.7084C2.92095 52.2426 3.01925 52.7055 3.25698 53.1316C3.29028 53.1911 3.41385 53.0267 3.46405 53.1089C3.70128 53.496 3.98881 53.8837 4.24996 54.2618C4.27148 54.2935 4.27003 54.3196 4.25804 54.3421C4.24436 54.3678 4.21687 54.3888 4.195 54.4076C4.18416 54.4169 4.17472 54.4257 4.16911 54.4345C4.16661 54.4383 4.16488 54.4422 4.16413 54.4461C4.11594 54.7277 4.51513 54.6189 4.54354 54.6328C5.29453 55.0284 5.75862 55.6223 6.71875 55.8066C6.77361 55.8184 7.25241 55.5858 7.34034 55.9313C7.34435 55.9542 7.44074 56.3121 7.64927 56.134C7.66165 56.1226 7.59044 55.937 7.7761 55.9961C7.83248 56.0137 7.90234 56.0219 7.97881 56.0304C8.15571 56.0504 8.35931 56.07 8.53001 56.2231C8.60335 56.2918 8.77764 56.6404 9.0655 56.4123C9.08952 56.3983 9.52685 55.8562 9.64399 56.2601C9.66253 56.3262 9.61797 56.7491 9.945 56.5453C10.0065 56.5052 9.90095 56.408 10.0602 56.3538C10.3008 56.27 10.6286 56.3831 10.919 56.1848C10.9711 56.15 11.1732 55.8555 11.361 56.0609C11.3909 56.0931 11.3469 56.2372 11.4421 56.2467C11.79 56.281 12.1393 56.2039 12.4934 56.1772C12.6024 56.169 12.7109 56.1656 12.821 56.1717C12.9871 56.18 12.9407 56.4184 13.1212 56.45C13.3016 56.4821 13.6591 56.4733 13.8148 56.3325C13.969 56.1923 13.7013 55.8801 13.9526 55.7938C14.9338 55.4506 15.9531 55.2866 16.9171 54.9135C17.0172 54.8747 17.1144 54.8346 17.2141 54.7901C17.3679 54.7207 17.1867 54.6654 17.4053 54.554C18.2346 54.1524 19.3884 53.2092 20.081 52.885C20.6615 52.6201 20.2432 53.2771 20.6366 53.0081C20.7372 52.9367 20.7424 52.7735 20.7264 52.6289C20.7124 52.4989 20.6796 52.3863 20.6906 52.3636C20.9019 51.8988 21.2447 51.7221 21.4011 51.3143C21.4315 51.2307 21.2404 51.2274 21.2666 51.1589C21.3524 50.9283 21.52 50.7197 21.5696 50.5252C21.5916 50.4365 21.4606 50.4172 21.4933 50.3443C21.5683 50.1679 21.6613 50.014 21.8158 49.8004C21.8299 49.7794 21.9725 49.9339 22.0026 49.7585C22.0369 49.5446 22.125 49.2679 22.0889 48.9652C22.0773 48.8658 22.0563 48.7636 22.021 48.661C21.9776 48.5343 21.679 48.5477 21.8725 48.2473C21.9132 48.1854 22.2738 48.2414 21.9513 47.9206C21.8978 47.8762 21.461 47.3583 21.7216 47.06C21.7901 46.9835 22.0774 46.7778 22.0274 46.6374C22.0194 46.6171 21.8615 46.7043 21.8423 46.5793C21.7779 46.1503 21.7821 45.6084 21.7229 45.1759C21.7066 45.0537 21.5445 45.2399 21.5256 45.0571C21.4731 44.5515 21.5039 43.8863 21.5486 43.4043C21.5653 43.2197 21.7046 43.3451 21.7194 43.3315C21.9594 43.112 21.6293 42.9866 21.6091 42.9138C21.4879 42.4435 21.6385 42.1402 21.5929 41.723C21.5808 41.6098 21.4251 41.6919 21.4109 41.6695C21.2719 41.4362 21.555 41.6082 21.5844 41.4588C21.6286 41.2383 21.6444 40.9906 21.6461 40.7627C21.6477 40.5617 21.6381 40.3589 21.6271 40.1637C21.6182 40.0105 21.4381 40.1844 21.4322 40.0468C21.394 39.2093 21.4061 38.3914 21.5021 37.5783C21.5206 37.426 21.6608 37.5211 21.6926 37.4892C21.9149 37.2623 21.6089 36.962 21.5795 36.8875C21.4456 36.5609 21.5688 36.4323 21.5447 36.1402C21.4524 35.0359 21.4781 33.7491 21.5183 32.6005C21.5304 32.2555 21.5438 31.9213 21.5556 31.6082C21.6213 29.8599 21.757 28.4987 21.7275 26.8277C21.7258 26.7217 21.5395 26.828 21.5356 26.7366C21.5088 25.9666 21.5324 25.2041 21.5386 24.4376C21.542 24.0291 21.5404 23.6201 21.5237 23.2093C21.5201 23.1124 21.3431 23.2512 21.3314 23.0957C21.3061 22.776 21.3177 22.3687 21.3757 22.0459C21.4036 21.8883 21.5538 22.1007 21.5789 21.9421C21.6375 21.5724 21.6522 21.179 21.6261 20.7996C21.6146 20.6369 21.4329 20.8812 21.432 20.6699C21.4224 19.2387 21.4005 17.8295 21.6444 16.3897C21.6505 16.3533 21.7031 16.319 21.7642 16.2797C21.8708 16.2112 22.0033 16.1278 21.9596 15.9932C21.858 15.9766 21.7383 15.9766 21.6297 15.9688C21.5864 13.885 21.7306 11.828 21.7694 9.74241C21.771 9.65608 21.5755 9.80341 21.5775 9.63643C21.5836 9.13457 21.575 8.61021 21.5926 8.12159C21.6091 7.66965 21.6498 7.15032 21.7481 6.68003C21.768 6.58265 22.1091 6.63463 22.0603 6.34946C22.0513 6.30274 22.0105 5.83609 21.9375 5.72337C21.9265 5.70758 21.7662 5.78748 21.7631 5.64334C21.7471 4.84733 21.7931 3.94286 21.8998 3.10831C21.9173 2.9754 22.0856 3.11879 22.0995 3.02447C22.197 2.36069 22.0765 1.60978 22.2381 0.983233C22.3476 0.511309 22.639 0.692223 22.9305 0.482144C22.9714 0.470516 22.9818 0.142044 23.1497 0.16147C23.5728 0.135476 24.0343 0.254229 24.4854 0.213018C24.5823 0.219368 24.482 -0.118719 24.7144 0.0550411C24.7292 0.130962 24.805 0.295302 24.8831 0.412015C24.9375 0.466652 25.1096 0.375521 25.1787 0.478724C25.2481 0.555299 25.1038 0.641136 25.1846 0.801384C25.2665 0.954984 25.4613 0.930519 25.4812 1.19341ZM2.47761 47.3958C2.22812 47.4658 2.71776 47.8112 2.70589 47.5779C2.70484 47.5663 2.48988 47.3926 2.47761 47.3958ZM28.7013 52.3852C28.5313 52.0164 28.1789 52.282 28.2907 52.5573C28.4023 52.8324 28.7531 52.4972 28.7013 52.3852ZM31.696 53.5847C31.4572 53.2389 31.039 53.9791 31.4642 53.9933C31.4888 53.9944 31.71 53.6048 31.696 53.5847ZM23.0002 1.54361C23.0082 1.53842 23.0182 1.33784 23.0104 1.3349C22.8217 1.22558 22.8017 1.62511 23.0002 1.54361ZM34.6603 54.8067C34.6103 54.6533 34.2601 54.6269 34.3221 54.8172C34.3718 54.9701 34.7225 54.9974 34.6603 54.8067ZM5.76969 57.1052C5.76967 57.1151 5.896 57.1726 5.91133 57.1242C5.95967 56.9696 5.76789 56.9435 5.76969 57.1052ZM39.5064 57.2845C38.8085 56.8815 38.7001 56.0351 39.4411 56.5119C39.5752 56.5984 39.0338 56.5507 39.1837 56.7006C39.4578 56.9742 39.8807 56.6996 40.1062 57.0853C40.1465 57.1553 39.5453 57.3087 39.5047 57.2847C39.5053 57.2847 39.5058 57.2846 39.5064 57.2845ZM1.81995 47.0814C1.80991 47.0798 1.69955 47.2367 1.70477 47.2456C1.81338 47.427 2.02384 47.1275 1.81995 47.0814ZM13.735 57.9678C13.7488 57.9839 14.1947 57.9092 14.2055 57.8894C14.366 57.5402 13.4818 57.6878 13.735 57.9678ZM14.0679 45.6645C14.3171 45.5334 14.5672 45.579 14.6643 45.8556C14.4659 45.7866 14.2647 45.7294 14.0679 45.6645ZM4.19532 27.9696C4.36534 27.9059 4.59661 27.946 4.77468 28.0106C4.83047 28.0306 4.81022 28.1382 4.84905 28.1567C4.925 28.1929 4.98963 28.1364 5.06525 28.1805C5.09035 28.1956 5.0719 28.3652 5.09795 28.3772C5.24064 28.4419 5.36798 28.3904 5.50986 28.4165C6.2087 28.5456 6.88819 28.5627 7.58869 28.5918C7.81965 28.6012 8.10867 28.7344 8.34096 28.6518C8.36807 28.642 8.3416 28.4961 8.34604 28.4836C8.41593 28.2924 8.40866 28.5912 8.4652 28.627C8.68955 28.7682 8.92819 28.7656 9.13007 28.6949C9.13129 28.6944 9.13247 28.694 9.13361 28.6934C9.21291 28.6563 9.10975 28.3805 9.2076 28.5362C9.21447 28.5469 9.20287 28.7045 9.228 28.7196C9.28498 28.7533 9.38636 28.7184 9.42938 28.7279C9.51236 28.747 9.52571 28.7445 9.60273 28.7411C9.70812 28.7377 9.83843 28.8069 9.94882 28.7638C9.97236 28.7542 9.92961 28.5963 9.96616 28.5664C10.0027 28.5366 10.1053 28.5433 10.1422 28.5787C10.179 28.6141 10.173 28.7409 10.181 28.7694C10.2474 29.0094 10.3422 28.6643 10.3567 28.6549C10.623 28.4941 10.8726 28.6701 11.1315 28.652C11.3281 28.6378 11.534 28.5601 11.7217 28.5561C11.9453 28.552 12.1401 28.6259 12.3556 28.5963C12.3783 28.5933 12.3388 28.4069 12.3665 28.4029C12.6616 28.3609 12.9574 28.3614 13.2613 28.4685C13.2917 28.4794 13.2648 28.6472 13.2959 28.668C13.4863 28.7915 13.795 29.0983 13.8537 28.3715C13.9783 28.3912 14.1292 28.4102 14.2488 28.5477C14.3147 28.6235 14.2829 28.7697 14.3235 28.7585C14.3304 28.7566 14.3393 28.7502 14.3511 28.7383C14.3695 28.7198 14.3333 28.5639 14.3618 28.5481C14.4817 28.482 14.6204 28.5241 14.7373 28.4343C14.7611 28.4157 14.7447 28.2749 14.75 28.2489C14.7953 28.0389 14.9172 28.3728 14.9404 28.3961C15.1168 28.5695 15.2316 28.4887 15.3846 28.4829C15.4201 28.4816 15.3653 28.2947 15.399 28.2866C15.574 28.2474 15.7583 28.2513 15.9372 28.3237C15.977 28.3403 15.9526 28.5043 15.9722 28.5205C16.0584 28.59 16.0557 28.2834 16.138 28.3441C16.1553 28.3565 16.1555 28.4955 16.1595 28.5105C16.2225 28.7459 16.2403 28.4051 16.2518 28.3968C16.3973 28.2845 16.5187 28.6308 16.6625 28.5708C16.6797 28.5633 16.6281 28.3909 16.6771 28.3804C17.0037 28.3097 17.3559 28.3341 17.6919 28.452C17.7441 28.4701 17.7168 28.6041 17.7211 28.6201C17.7904 28.8699 17.801 28.5281 17.8167 28.5142C17.9411 28.4133 18.0824 28.6897 18.1437 28.2794C18.5951 28.3618 19.0288 28.2079 19.4787 28.3117C19.5895 28.3373 19.7012 28.3785 19.8145 28.4427C19.8217 28.4464 19.8206 28.6145 19.835 28.6212C20.0089 28.7037 19.9591 28.446 20.0484 28.1207C20.0709 28.039 20.1819 28.4169 20.1913 28.4445C20.2257 28.5463 20.2142 28.7969 20.2247 28.8164C20.3113 28.9688 20.2431 28.1471 20.3454 28.1399C20.3487 28.1411 20.3456 28.2934 20.3552 28.3079C20.3851 28.3533 20.4075 28.2913 20.4371 28.3417C20.5051 28.4582 20.5535 28.8565 20.629 28.6177C20.6385 28.5867 20.5892 28.1213 20.6821 28.1371C20.7191 28.1438 20.8799 28.1249 20.9271 28.1521C20.9743 28.1792 20.9535 28.3317 20.9572 28.3379C21.0923 28.5285 21.0518 28.614 21.1327 28.9043C21.2136 29.1934 21.1492 28.4951 21.1687 28.4153C21.1883 28.3358 21.2886 28.4938 21.3144 28.5493C21.3402 28.6049 21.3194 28.7023 21.341 28.7333C21.4845 28.9354 21.3742 28.3822 21.4092 28.2683C21.4916 27.9987 21.605 28.5121 21.7003 28.5567C21.7261 28.5687 21.6978 28.4519 21.7192 28.4394C21.8039 28.3913 21.8676 28.5495 21.9573 28.3944C21.972 28.3691 22.0314 28.0517 22.0991 28.2771C22.1087 28.3096 22.0965 28.4402 22.1358 28.4667C22.1946 28.5063 22.297 28.5277 22.3541 28.4805C22.3962 28.4455 22.331 28.236 22.3912 28.2983C22.418 28.3262 22.3805 28.4539 22.4301 28.4959C22.4795 28.5378 22.5975 28.5243 22.6422 28.5169C22.6869 28.5095 22.6513 28.3496 22.6542 28.3385C22.672 28.2746 22.753 28.1909 22.7606 28.1905C23.1439 28.1447 23.517 28.3929 23.8854 28.2774C23.9143 28.2686 23.8831 28.0995 23.8874 28.0964C23.9832 28.0182 23.9346 28.4765 24.0152 28.6234C23.9816 28.2784 24.0273 28.3381 24.0956 28.2954C24.1285 28.2745 24.1008 28.1419 24.103 28.128C24.1398 27.9213 24.1929 28.1815 24.2056 28.2346C24.2526 28.4299 24.2732 28.194 24.305 28.3245C24.3367 28.4541 24.2974 28.652 24.3652 28.6449C24.3759 28.5198 24.3035 28.1999 24.3515 28.1439C24.4261 28.0569 24.5344 28.0445 24.6472 28.0611C24.8084 28.0849 24.9785 28.168 25.0717 28.1773C25.2297 28.193 25.2786 28.1667 25.3727 28.2053C25.5426 28.275 25.4661 28.0391 25.5607 27.9224C25.6557 27.8056 25.646 28.3994 25.6693 28.5253C25.6924 28.6511 25.6993 28.5195 25.722 28.588C25.7446 28.6565 25.7117 28.7454 25.7556 28.7688C25.7996 28.7921 25.8995 28.5585 25.9054 28.4248C25.9179 28.1415 25.846 27.85 25.9646 27.9461C25.9714 27.9518 25.9611 28.1085 25.9867 28.1225C26.19 28.2287 26.3932 28.2224 26.5953 28.3148C26.6231 28.3278 26.6108 28.5021 26.6271 28.5116C26.7971 28.6111 26.7192 28.3238 26.7863 27.9943C26.7955 28.4261 26.8627 28.6861 26.9861 28.6803C27.0603 28.677 27.0348 28.4898 27.0737 28.3541C27.0854 28.3131 27.1466 28.4387 27.1501 28.3496C27.1618 28.0584 27.0905 27.7382 27.2263 27.8585C27.2323 27.8642 27.2253 28.0236 27.2452 28.0319C27.374 28.0861 27.3684 27.7828 27.5005 27.7371C27.6041 27.7012 27.8043 27.8728 27.9265 27.8946C27.9569 28.3788 28.0628 28.2602 28.0862 27.9234C28.1651 27.9318 28.2481 27.9072 28.3266 27.9482C28.3536 27.9622 28.3461 28.1034 28.3504 28.1184C28.4166 28.3525 28.4285 28.0255 28.4445 28.0116C28.6185 27.8755 28.7838 28.1115 28.9416 27.8592C28.9472 27.8501 28.9344 27.5133 28.9976 27.7556C29.0018 27.7723 28.9547 27.9291 29.0374 27.9354C29.1201 27.9417 29.2867 28.1114 29.3899 27.9479C29.4149 27.9086 29.4659 27.6309 29.5363 27.8404C29.5457 27.8688 29.5441 27.9658 29.5585 28.0187C29.6048 28.1873 29.6007 27.8462 29.6611 28.1321C29.7095 28.3611 29.783 28.5416 29.8623 28.4982C29.8821 28.4874 29.9021 28.4627 29.9223 28.4215C29.9256 28.4155 29.9344 28.1443 29.9708 28.1461C30.0288 28.1492 30.1144 28.1998 30.1744 28.1939C30.2031 28.1911 30.1733 28.0251 30.1781 28.0217C30.3653 27.9148 30.5131 28.0545 30.7249 28.1052C30.7637 28.1148 30.8574 27.8793 30.9433 28.0546C31.0374 28.2465 31.0102 29.0732 31.1826 28.865C31.2522 28.7817 31.2763 27.7336 31.4475 28.2641C31.6995 28.1127 31.9597 28.3725 32.2085 28.1637C32.2197 28.1545 32.2372 27.8612 32.2651 27.8633C32.3067 27.867 32.3384 28.0013 32.3684 28.0083C32.4941 28.0408 32.5987 27.917 32.7184 27.927C32.7639 27.9305 32.7577 28.0721 32.8119 28.0763C32.8661 28.0804 32.8893 27.8929 32.968 27.9773C33.0275 28.0417 33.1081 28.4161 33.184 28.4553C33.1614 28.0821 33.212 28.0864 33.2942 27.9819C33.31 27.9616 33.2829 27.833 33.2899 27.8167C33.3183 27.7476 33.3561 27.8531 33.3824 27.7782C33.3888 27.7602 33.3805 27.6327 33.3853 27.6108C33.4254 27.4197 33.5319 27.7003 33.5502 27.7491C33.6204 27.9347 33.636 27.7672 33.685 27.8389C33.7339 27.9105 33.6746 28.0082 33.729 28.05C33.8416 28.1364 33.9768 28.1066 34.0851 28.1051C34.1283 28.1037 34.0874 27.9357 34.0933 27.9315C34.1794 27.8824 34.2817 28.0571 34.3081 27.7151C34.4293 28.5866 34.356 27.6265 34.4952 27.7931C34.5062 27.8066 34.5471 28.2199 34.5127 28.2833C34.4784 28.3467 34.4112 28.2212 34.3642 28.3196C34.3531 28.3427 34.307 28.7357 34.2987 28.7598C34.2337 28.9488 34.1807 28.3307 34.1743 28.297C34.103 27.9333 34.0428 28.3574 34.0215 28.3879C33.9238 28.5275 33.8273 28.4466 33.7445 28.5471C33.6903 28.6122 33.7121 29.0179 33.6654 29.0086C33.5103 28.978 33.4188 28.4161 33.3085 28.9161C33.2849 29.0228 33.3455 29.4638 33.2116 29.1229C33.2032 29.1014 33.0997 28.7882 33.0661 28.9931C33.0619 29.0189 33.0708 29.148 33.0637 29.1594C33.016 29.2331 32.974 29.1326 32.9201 29.1858C32.8663 29.2389 32.8025 29.317 32.7342 29.2777C32.6931 29.2541 32.6262 29.017 32.6034 28.9594C32.5387 28.7933 32.5005 29.0754 32.4536 28.8722C32.4064 28.6679 32.45 28.3499 32.3538 28.2224C32.3734 28.5581 32.3894 28.9029 32.4071 29.2407C32.2153 29.2418 32.02 29.1461 31.8294 29.1739C31.8058 29.1777 31.8423 29.3564 31.8173 29.3651C31.7118 29.4011 31.6093 29.2789 31.5013 29.3376C31.4178 29.3838 31.3362 29.5812 31.2493 29.6354C31.1681 29.2553 31.0431 29.3947 30.9435 29.3662C30.9086 29.3564 30.904 29.2537 30.8775 29.2219C30.7777 29.1044 30.8436 29.4407 30.8221 29.4958C30.7301 29.731 30.6688 28.9638 30.5434 28.9913C30.5367 28.9925 30.4825 29.4074 30.4729 29.4336C30.4124 29.6047 30.4513 29.292 30.4043 29.2648C30.3185 29.2151 30.2549 29.1212 30.1667 29.2477C30.1411 29.2851 30.0911 29.5447 30.0232 29.3511C30.0142 29.3258 30.009 29.1902 30.0027 29.1827C29.9519 29.1267 29.929 29.1812 29.9149 29.2717C29.8974 29.3832 29.893 29.5493 29.8654 29.631C29.8155 29.779 29.7033 29.4918 29.6788 29.4085C29.6149 29.1931 29.7101 29.3125 29.7113 29.2908C29.7252 29.0332 29.6609 29.0817 29.6081 29.0636C29.5723 28.6474 29.5021 28.6773 29.5534 29.0466C29.5591 29.0869 29.5964 29.0453 29.6081 29.0636C29.5907 29.4756 29.5153 29.5334 29.4021 29.1572C29.3491 28.9808 29.3735 28.7694 29.2546 28.8542C29.2007 28.8925 29.2419 29.178 29.1975 29.2596C29.0961 29.4459 28.9305 29.1882 28.8163 29.2383C28.7748 29.2565 28.8269 29.4108 28.7989 29.4286C28.7248 29.4765 28.6489 29.3632 28.5756 29.4289C28.569 29.435 28.5973 29.5983 28.5733 29.602C28.3922 29.6335 28.2263 29.5389 28.0356 29.549C27.9435 29.5539 27.7852 29.6557 27.6886 29.644C27.5214 29.6246 27.3019 29.3992 27.1647 29.4669C27.0752 29.5103 27.1066 29.6734 27.0747 29.7882C27.0134 30.0106 26.8522 29.6306 26.83 29.5716C26.8293 29.5696 26.9059 29.5255 26.8579 29.4439C26.8214 29.2697 26.8309 29.5708 26.83 29.5716C26.8155 29.5335 26.6547 29.5069 26.6254 29.5405C26.6095 29.5588 26.6297 29.714 26.6212 29.7206C26.4191 29.8744 26.2098 29.9284 25.9903 29.8701C25.9863 29.8672 25.9801 29.6926 25.9709 29.6879C25.8414 29.6189 25.7764 29.8375 25.6825 29.9711C25.5886 30.1046 25.5045 30.0677 25.4236 29.7726C25.3488 29.8155 25.229 29.6907 25.1597 29.6148C25.0904 29.5388 25.1046 29.8788 25.0994 29.8858C24.9817 30.052 24.8888 29.9956 24.7752 29.9466C24.7338 29.9288 24.6897 29.912 24.6407 29.9072C24.5533 29.8981 24.3853 29.959 24.2943 30.0024C24.2224 30.0373 24.1725 29.9608 24.1079 30.0163C24.0991 30.0237 24.1187 30.1742 24.1163 30.1802C24.0525 30.3661 24.064 29.9943 24.0438 29.9294C23.9706 29.6934 23.9268 29.568 23.8371 29.6875C23.8164 29.7148 23.7871 30.251 23.7483 30.2849C23.6978 30.328 23.7049 30.136 23.6524 30.186C23.6478 30.1901 23.6568 30.3076 23.6221 30.3048C23.4609 30.2931 23.2823 30.2365 23.1172 30.2595C23.0946 30.2622 23.1363 30.4468 23.1039 30.4537C22.9518 30.4863 22.783 30.4908 22.6274 30.4136C22.5891 30.3941 22.6033 30.2619 22.5927 30.2237C22.5276 29.9924 22.4812 30.338 22.4701 30.3453C22.2073 30.5277 21.9766 30.2334 21.7073 30.3993C21.6927 30.4089 21.6005 30.7823 21.527 30.4725C21.522 30.4518 21.4486 30.1347 21.4178 30.357C21.4159 30.3709 21.4593 30.5338 21.402 30.5208C21.3447 30.5079 21.2618 30.6242 21.1723 30.4481C21.1439 30.3926 21.0645 30.0766 21.0089 30.3366C21.0053 30.3547 20.9319 30.9389 20.8647 30.5438C20.8538 30.4788 20.832 30.0574 20.7596 30.2791C20.7458 30.3221 20.7824 30.4139 20.7426 30.4755C20.6816 30.5705 20.585 30.4638 20.5153 30.6569C20.5031 30.6911 20.4613 30.981 20.3974 30.7674C20.3874 30.734 20.3925 30.5924 20.3655 30.5785C20.237 30.5114 20.1142 30.6142 19.9823 30.5255C19.9357 30.4943 19.9429 30.2656 19.8925 30.2078C19.8421 30.1501 19.745 30.0979 19.7036 30.205C19.6623 30.3121 19.7397 30.6707 19.6692 30.7045C19.6601 30.7089 19.6511 30.7129 19.642 30.7167C19.3432 30.8407 19.0263 30.6603 18.7188 30.6509C18.6718 30.6494 18.7193 30.7764 18.6506 30.7835C18.3976 30.8104 17.9678 30.9616 17.729 30.7012C17.5377 30.4927 17.7482 30.3097 17.6074 30.2291C17.5394 30.1907 17.4976 30.6165 17.4828 30.6308C17.3386 30.7759 17.2193 30.5966 17.0852 30.6632C17.0575 30.677 17.097 30.8457 17.0733 30.8556C16.9924 30.8908 16.9002 30.8206 16.8219 30.8399C16.7869 30.8489 16.8023 30.9788 16.7689 30.971C16.6891 30.9537 16.6162 30.9036 16.5317 30.7867C16.524 30.776 16.5598 30.6107 16.5016 30.6086C16.4073 30.6057 16.2828 30.4931 16.1835 30.6248C16.1541 30.6644 16.1731 30.9624 16.0904 30.7613C16.073 30.7193 16.0671 30.3604 16.0081 30.6749C15.9981 30.7272 15.8919 31.1531 15.8076 30.8889C15.7854 30.8194 15.7211 30.5297 15.6858 30.5784C15.6811 30.586 15.7128 30.7446 15.682 30.7624C15.5733 30.8222 15.4544 30.8131 15.3425 30.8711C15.3126 30.8869 15.3697 31.0493 15.3248 31.0675C15.2014 31.118 15.0409 31.0865 14.914 31.0431C14.8671 31.0268 14.8893 30.8875 14.8849 30.8728C14.8152 30.6337 14.806 30.9634 14.7896 30.9837C14.6874 31.1056 14.5932 30.9574 14.4947 31.005C14.4674 31.0177 14.4979 31.1726 14.4932 31.1869C14.4918 31.191 14.4905 31.1947 14.4892 31.1981C14.4461 31.3105 14.4676 31.0426 14.4301 31.015C14.3217 30.9344 14.2085 30.9547 14.1063 30.9817C14.0688 30.9918 14.1238 31.1701 14.09 31.1771C13.8901 31.222 13.6789 31.2189 13.475 31.1325C13.4366 31.1158 13.4505 30.9748 13.4406 30.9434C13.3721 30.7242 13.3146 31.0335 13.2986 31.0637C13.2258 31.2015 13.1857 31.0803 13.115 31.1082C12.7701 31.2468 12.3291 31.1947 11.9927 31.1668C11.5544 31.1313 11.2087 31.0215 10.7974 31.084C10.7712 31.0878 10.8103 31.2716 10.7879 31.2772C10.4983 31.3418 10.2053 31.2889 9.91566 31.3624C9.89187 31.3681 9.9385 31.5416 9.90072 31.5567C9.82332 31.5889 9.72231 31.5861 9.6384 31.5354C9.59749 31.511 9.63965 31.3565 9.59868 31.335C9.50327 31.2846 9.40427 31.2787 9.31213 31.3133C9.31192 31.3134 9.31171 31.3135 9.31151 31.3136C9.27371 31.3303 9.34527 31.5043 9.29366 31.5098C8.94048 31.5517 8.59454 31.6064 8.2206 31.3977C8.19496 31.3834 8.14859 31.0192 8.10115 31.0928C8.10411 31.1946 8.11243 31.3139 8.11807 31.4225C7.60614 31.516 7.0869 31.4239 6.56822 31.4394C6.54636 31.4401 6.59721 31.6313 6.55494 31.6336C6.31033 31.6474 6.07663 31.7172 5.81354 31.5416C5.78746 31.5244 5.77704 31.1827 5.70744 31.2392C5.69519 31.2495 5.58817 31.3024 5.56473 31.3783C5.56162 31.3898 5.59251 31.5475 5.55735 31.5545C5.35282 31.5927 5.1343 31.5711 4.92188 31.4878C4.88758 31.4741 4.91145 31.3023 4.88692 31.291C4.71299 31.2125 4.53919 31.3537 4.36838 31.2107C4.25401 31.1144 4.27386 30.8189 4.19725 30.5345C4.18642 30.4944 4.11952 30.4924 4.10469 30.3249C4.06723 29.9038 4.06807 29.4398 4.02434 28.9911C4.01497 28.8945 3.93303 29.0048 3.96985 28.7673C3.97247 28.7514 4.03174 28.6693 4.04224 28.5889C4.04958 28.5332 4.01806 28.364 4.03587 28.2922C4.05368 28.2205 4.0882 28.3618 4.12004 28.2767C4.15178 28.1906 4.12215 27.9977 4.19532 27.9696ZM24.848 29.2755C24.7779 29.1166 24.8097 29.714 24.8639 29.5668C24.8665 29.559 24.8516 29.2833 24.848 29.2755ZM31.9905 28.6958C31.8954 28.4379 31.8688 28.8285 31.9371 29.0281C32.0054 29.2275 32.0195 28.774 31.9905 28.6958ZM32.7785 28.4493C32.6741 28.2479 32.7174 29.0951 32.8024 28.9175C32.8074 28.9074 32.7846 28.461 32.7785 28.4493ZM4.4562 30.4344C4.45485 30.4266 4.40654 30.4221 4.40593 30.43C4.39336 30.6213 4.48994 30.6301 4.4562 30.4344ZM33.5591 28.1861C33.5232 28.0735 33.451 28.2112 33.4957 28.3511C33.5316 28.4638 33.6039 28.3261 33.5591 28.1861ZM21.7226 28.8478C21.721 28.839 21.6862 28.8333 21.6903 28.8835C21.7036 29.0453 21.7482 28.9963 21.7226 28.8478ZM34.9094 28.0846C34.7077 28.0663 34.5392 27.3754 34.7619 27.4396C34.8022 27.4512 34.6922 27.6682 34.7466 27.7279C34.8461 27.8365 34.8771 27.3934 34.9866 27.6223C35.0065 27.6642 34.921 28.0872 34.9091 28.0856C34.9092 28.0853 34.9093 28.0849 34.9094 28.0846ZM24.7653 28.561C24.7636 28.5531 24.7157 28.5489 24.7151 28.5568C24.7023 28.748 24.7988 28.7567 24.7653 28.561ZM19.6987 28.6145C19.6949 28.5979 19.5838 28.5896 19.5812 28.6054C19.5449 28.9191 19.7696 28.9367 19.6987 28.6145ZM27.9293 27.9074C27.9681 27.7133 28.0285 27.6866 28.086 27.9232C28.0337 27.914 27.9818 27.9156 27.9293 27.9074Z" fill="black"/>
</svg>
