<svg width="59" height="55" viewBox="0 0 59 55" fill="none" xmlns="http://www.w3.org/2000/svg">
<path d="M11.5791 7.84083C11.7002 8.0643 11.7398 8.3902 11.7369 8.64597C11.7362 8.72607 11.6235 8.71951 11.6185 8.77615C11.6089 8.88749 11.6856 8.96187 11.6692 9.07739C11.663 9.11527 11.4899 9.12264 11.4871 9.16125C11.4733 9.37247 11.5683 9.53875 11.5918 9.73938C11.7049 10.72 11.9281 11.6636 12.1501 12.6332C12.224 12.9548 12.1939 13.3685 12.3613 13.6772C12.3807 13.7126 12.5142 13.6457 12.5281 13.6492C12.7409 13.7058 12.4454 13.758 12.4309 13.8433C12.3742 14.1818 12.4633 14.5069 12.6062 14.7666C12.6071 14.7682 12.608 14.7697 12.6089 14.7712C12.6747 14.8729 12.9067 14.6719 12.7905 14.8401C12.7826 14.8518 12.6238 14.8693 12.6184 14.9072C12.6065 14.9931 12.6784 15.1253 12.685 15.1864C12.6971 15.3045 12.7045 15.3223 12.7365 15.4271C12.7789 15.5708 12.7596 15.7637 12.8427 15.9044C12.8609 15.9343 12.9995 15.8418 13.0423 15.885C13.0849 15.928 13.1166 16.0689 13.0961 16.1281C13.0754 16.1866 12.949 16.2059 12.9243 16.2231C12.7146 16.3671 13.0882 16.422 13.1029 16.4398C13.3613 16.7704 13.2828 17.1459 13.4005 17.4967C13.4905 17.7636 13.6462 18.027 13.723 18.2808C13.8131 18.5809 13.8193 18.8678 13.9335 19.1539C13.9454 19.1842 14.1114 19.0867 14.1263 19.1236C14.2843 19.5147 14.4017 19.9142 14.422 20.3543C14.4238 20.3984 14.2495 20.4023 14.242 20.4496C14.1994 20.7383 14.028 21.2309 14.759 21.1326C14.7916 21.3069 14.8362 21.516 14.7528 21.7123C14.7069 21.8206 14.5517 21.814 14.5797 21.8663C14.5844 21.8751 14.5943 21.8855 14.6109 21.8985C14.6365 21.9189 14.7726 21.8308 14.7999 21.8653C14.9144 22.011 14.9318 22.2076 15.0688 22.3435C15.097 22.371 15.2265 22.3129 15.2539 22.3135C15.4769 22.3213 15.2054 22.5712 15.1928 22.6086C15.1005 22.8917 15.2283 23.0259 15.3002 23.2303C15.3168 23.2778 15.4739 23.1553 15.4963 23.1985C15.6097 23.4227 15.6872 23.6733 15.6961 23.9329C15.6977 23.9909 15.5283 24.0017 15.5214 24.0324C15.4925 24.1672 15.7874 24.0815 15.7653 24.2083C15.761 24.2349 15.6269 24.2724 15.6142 24.2819C15.4149 24.43 15.7519 24.3622 15.765 24.3754C15.9382 24.54 15.6587 24.7973 15.7817 24.9747C15.7968 24.9957 15.9396 24.8792 15.9719 24.9422C16.188 25.3616 16.3257 25.8386 16.3698 26.3223C16.3768 26.3973 16.2353 26.399 16.2219 26.4093C16.0143 26.5733 16.3478 26.4901 16.3685 26.5071C16.5237 26.6444 16.3254 26.9134 16.7483 26.8765C16.883 27.5023 17.2413 28.0359 17.3639 28.663C17.3943 28.8179 17.4106 28.9789 17.4062 29.1493C17.4062 29.1601 17.2454 29.2102 17.2462 29.2315C17.2551 29.4886 17.4759 29.3431 17.8306 29.3598C17.9196 29.364 17.6156 29.6284 17.5941 29.6496C17.5146 29.727 17.27 29.79 17.2568 29.81C17.1556 29.9726 17.9035 29.6253 17.9622 29.7582C17.9628 29.7629 17.8162 29.8065 17.8073 29.8238C17.7792 29.8776 17.8496 29.8878 17.8168 29.9428C17.7406 30.0694 17.3866 30.2595 17.6526 30.2843C17.687 30.2871 18.1042 30.0745 18.1369 30.2024C18.1495 30.2535 18.2507 30.4606 18.249 30.5307C18.2475 30.6015 18.0921 30.6231 18.088 30.6299C17.9769 30.8691 17.8748 30.8432 17.6414 31.0435C17.4092 31.2436 18.0383 30.9335 18.1242 30.9335C18.2098 30.9336 18.1123 31.117 18.0732 31.1692C18.034 31.2212 17.9307 31.2253 17.9127 31.264C17.7965 31.5195 18.263 31.1938 18.3894 31.203C18.6883 31.2239 18.2616 31.541 18.2703 31.682C18.2726 31.7201 18.3681 31.6444 18.3914 31.6686C18.4821 31.7648 18.3657 31.9 18.5603 31.9665C18.5921 31.9774 18.9237 31.9499 18.7469 32.1136C18.7213 32.1371 18.5912 32.1645 18.5873 32.225C18.5812 32.3154 18.6162 32.4576 18.6918 32.5169C18.7476 32.5606 18.9102 32.4045 18.8839 32.5047C18.8721 32.5493 18.7312 32.5428 18.7185 32.6223C18.7056 32.7014 18.7827 32.8526 18.8143 32.9093C18.8458 32.9658 18.9772 32.8647 18.9892 32.8648C19.0591 32.8665 19.1819 32.9435 19.1863 32.9533C19.4362 33.4349 19.4137 34.0176 19.7267 34.4528C19.7512 34.4874 19.8924 34.3874 19.8977 34.3919C20.0248 34.4889 19.5674 34.587 19.475 34.7438C19.7798 34.5785 19.7494 34.6591 19.8281 34.7332C19.8663 34.7687 19.975 34.6857 19.9893 34.6837C20.204 34.6586 19.9901 34.8199 19.9475 34.8554C19.791 34.986 20.0241 34.9293 19.9198 35.0172C19.8165 35.1048 19.6084 35.1234 19.6539 35.2099C19.7772 35.1794 20.0358 34.9709 20.1156 35.0139C20.2399 35.0808 20.3134 35.2176 20.3616 35.3685C20.4309 35.5852 20.4511 35.8361 20.4965 35.9606C20.5734 36.1719 20.6267 36.2262 20.6458 36.3631C20.6805 36.6103 20.8552 36.4232 21.0191 36.5023C21.1829 36.5812 20.624 36.7877 20.5201 36.8642C20.4163 36.9403 20.543 36.9007 20.4924 36.9553C20.4419 37.0099 20.3397 37 20.3437 37.0655C20.3477 37.131 20.6241 37.1742 20.7522 37.1324C21.0235 37.0436 21.2526 36.8425 21.2329 37.0314C21.2316 37.0424 21.0797 37.0872 21.0817 37.1256C21.1021 37.4266 21.2326 37.6943 21.2648 37.9849C21.2693 38.0254 21.1001 38.0755 21.101 38.1C21.11 38.356 21.3304 38.1476 21.6762 38.1091C21.281 38.2844 21.0796 38.469 21.1597 38.6266C21.2077 38.7214 21.3659 38.6174 21.5154 38.6162C21.5605 38.6157 21.4812 38.7427 21.5659 38.7134C21.8431 38.6177 22.0966 38.4034 22.0677 38.6249C22.066 38.6349 21.914 38.6866 21.9185 38.7155C21.9469 38.9033 22.2249 38.7807 22.3463 38.9305C22.4416 39.0483 22.4043 39.3702 22.4592 39.5356C22.0302 39.7621 22.2051 39.8527 22.5308 39.752C22.5718 39.8569 22.646 39.9543 22.6571 40.0718C22.661 40.1122 22.5258 40.1575 22.5147 40.1689C22.3403 40.3466 22.6488 40.2328 22.6714 40.2477C22.9032 40.4146 22.788 40.7182 23.1189 40.8204C23.1307 40.824 23.433 40.6744 23.2493 40.851C23.2365 40.863 23.0625 40.8647 23.1085 40.9731C23.1544 41.0814 23.1033 41.363 23.3195 41.4313C23.3722 41.449 23.6583 41.401 23.5098 41.5739C23.4895 41.5971 23.3994 41.6339 23.3597 41.6733C23.2337 41.7994 23.5446 41.6576 23.3197 41.8486C23.1396 42.0016 23.0199 42.1674 23.11 42.251C23.1324 42.2718 23.1678 42.2875 23.2184 42.2967C23.226 42.2984 23.4806 42.2008 23.502 42.2478C23.536 42.3231 23.5441 42.4527 23.5878 42.5272C23.6089 42.5629 23.7422 42.4578 23.7483 42.4626C23.9662 42.659 23.9343 42.907 24.0212 43.1926C24.0371 43.2456 24.3124 43.2678 24.207 43.4482C24.0919 43.6462 23.3174 43.9491 23.6197 44.0841C23.7413 44.1392 24.7155 43.74 24.3422 44.177C24.6458 44.4378 24.5733 44.867 24.9277 45.0977C24.9434 45.108 25.2224 45.0083 25.2388 45.0446C25.2627 45.0988 25.1611 45.1951 25.1745 45.2361C25.2274 45.4092 25.4108 45.4929 25.4801 45.6479C25.5064 45.7061 25.3735 45.7577 25.4049 45.8272C25.4364 45.8967 25.6221 45.8469 25.5967 45.9811C25.5771 46.0827 25.2893 46.3415 25.3038 46.4536C25.6284 46.2681 25.6578 46.3336 25.8073 46.3934C25.8362 46.4048 25.9352 46.3163 25.9546 46.3183C26.0363 46.325 25.9654 46.4172 26.051 46.4189C26.0716 46.4194 26.182 46.3551 26.2051 46.3519C26.4055 46.3219 26.2214 46.5753 26.1893 46.6193C26.0675 46.7868 26.2302 46.7358 26.198 46.8285C26.1659 46.9211 26.0371 46.8868 26.0357 46.9738C26.0349 47.1571 26.1482 47.3082 26.2218 47.444C26.2516 47.4974 26.377 47.3746 26.3847 47.3803C26.4862 47.4668 26.3958 47.6696 26.7236 47.5568C26.0141 48.0809 26.8358 47.579 26.7779 47.8253C26.7731 47.8449 26.4258 48.073 26.3452 48.0567C26.2646 48.0404 26.3334 47.9023 26.2128 47.8852C26.1844 47.8811 25.7971 47.9907 25.7697 47.9906C25.5549 47.9895 26.0805 47.6598 26.1068 47.6374C26.3894 47.3931 25.965 47.4987 25.9232 47.485C25.7323 47.4229 25.7421 47.2679 25.5942 47.2036C25.4986 47.1619 25.1443 47.3611 25.1214 47.2976C25.0449 47.0867 25.4951 46.734 24.967 46.8051C24.8543 46.82 24.4932 47.0823 24.7147 46.7695C24.7286 46.7497 24.9453 46.4874 24.7368 46.5313C24.7106 46.5368 24.599 46.6023 24.5839 46.5982C24.4854 46.569 24.5493 46.4739 24.4657 46.4286C24.3819 46.3829 24.27 46.3372 24.2601 46.2328C24.254 46.17 24.4256 45.9855 24.4629 45.9322C24.5713 45.7801 24.2887 45.8487 24.443 45.7042C24.598 45.559 24.9168 45.4823 24.9697 45.3067C24.6764 45.4712 24.3724 45.635 24.076 45.798C23.948 45.5534 23.9077 45.2658 23.759 45.0369C23.7403 45.0086 23.6008 45.1287 23.5766 45.1007C23.476 44.9831 23.5208 44.8021 23.3955 44.6864C23.2984 44.5978 23.0643 44.5737 22.958 44.4844C23.253 44.225 23.0444 44.1223 23.0064 43.9839C22.9929 43.9355 23.084 43.8877 23.0961 43.841C23.1397 43.6665 22.8739 43.8871 22.8097 43.8823C22.5354 43.861 23.1992 43.4714 23.0943 43.324C23.0889 43.3159 22.6729 43.4132 22.6426 43.4114C22.4462 43.4021 22.7585 43.3264 22.753 43.2547C22.7431 43.1238 22.7882 43.0041 22.6156 42.9417C22.5648 42.9238 22.2942 42.9638 22.4287 42.7989C22.4463 42.7773 22.5675 42.7162 22.5704 42.7051C22.5894 42.6175 22.5249 42.6102 22.4327 42.6284C22.3192 42.6507 22.1638 42.7117 22.0712 42.7091C21.9035 42.7044 22.0966 42.4463 22.1578 42.3819C22.3157 42.2144 22.2658 42.3833 22.2865 42.3762C22.532 42.2908 22.4469 42.2284 22.4304 42.154C22.7906 41.9422 22.7194 41.8654 22.4119 42.0778C22.3784 42.1012 22.44 42.132 22.4304 42.154C22.0408 42.2966 21.9406 42.2241 22.2141 41.927C22.3427 41.7885 22.5529 41.7362 22.3993 41.6162C22.3298 41.5617 22.093 41.7279 21.9897 41.7028C21.7538 41.6452 21.887 41.3301 21.7698 41.2036C21.7272 41.1576 21.6173 41.285 21.5835 41.2562C21.4931 41.1798 21.5505 41.0381 21.4447 40.9703C21.4349 40.9642 21.3018 41.0644 21.2835 41.0352C21.1419 40.8145 21.1237 40.5591 20.9967 40.3167C20.9351 40.1992 20.7434 40.034 20.6954 39.9051C20.6126 39.6849 20.6845 39.3091 20.5384 39.1569C20.4434 39.0568 20.3112 39.1594 20.1853 39.1614C19.9413 39.1654 20.1965 38.8123 20.238 38.7615C20.2394 38.7598 20.3266 38.8425 20.3734 38.7494C20.5132 38.6364 20.2393 38.7623 20.238 38.7615C20.2646 38.7281 20.1928 38.5101 20.1442 38.485C20.1176 38.4713 19.9854 38.5556 19.9742 38.5471C19.7102 38.3432 19.5317 38.0846 19.4558 37.7771C19.4561 37.7708 19.6153 37.6982 19.6141 37.6845C19.6016 37.4901 19.3595 37.486 19.1797 37.4127C19.0005 37.3405 18.9842 37.2146 19.212 37.0007C19.1276 36.9176 19.1736 36.7145 19.2041 36.5962C19.2346 36.4779 18.925 36.6192 18.9153 36.6149C18.6912 36.5202 18.6899 36.3778 18.6702 36.2116C18.663 36.1511 18.6534 36.0874 18.6298 36.0217C18.5877 35.9033 18.4329 35.7017 18.34 35.5969C18.2658 35.5141 18.309 35.4212 18.22 35.3554C18.2081 35.3464 18.078 35.4251 18.071 35.424C17.86 35.405 18.2157 35.2897 18.2652 35.2404C18.4452 35.0611 18.5381 34.9598 18.3754 34.8838C18.338 34.8663 17.8176 35.0147 17.7638 34.9753C17.6949 34.9238 17.8794 34.8663 17.8025 34.8136C17.796 34.809 17.6906 34.8616 17.6735 34.8143C17.5927 34.5952 17.5454 34.3382 17.4318 34.127C17.4167 34.098 17.266 34.2163 17.2413 34.1756C17.1257 33.9843 17.0288 33.7632 17.0149 33.5276C17.0122 33.4697 17.145 33.4445 17.1752 33.4175C17.3579 33.2532 17.0058 33.3068 16.9928 33.2944C16.6753 33.0027 16.8305 32.6014 16.5276 32.2932C16.5106 32.2768 16.1067 32.2739 16.3614 32.0749C16.3782 32.0614 16.64 31.8606 16.4126 31.8911C16.3984 31.8931 16.2669 32.0038 16.2487 31.9227C16.2305 31.8417 16.0759 31.7678 16.196 31.5915C16.2337 31.5357 16.4922 31.3286 16.216 31.3372C16.1972 31.3388 15.6025 31.4244 15.943 31.2088C15.9991 31.1734 16.3886 31.0109 16.1397 30.9836C16.0916 30.9786 16.0233 31.0568 15.9439 31.0226C15.8216 30.9702 15.8728 30.8067 15.6527 30.7731C15.6138 30.7675 15.3158 30.8012 15.4863 30.6486C15.513 30.6248 15.6505 30.5876 15.6498 30.5469C15.6474 30.3529 15.4868 30.2201 15.5037 30.0139C15.5096 29.9412 15.7316 29.881 15.7611 29.7954C15.7905 29.7097 15.7912 29.5629 15.668 29.5398C15.5448 29.5165 15.2414 29.73 15.1733 29.6448C15.1646 29.6339 15.1561 29.6228 15.1479 29.6117C14.8784 29.2449 14.8927 28.7607 14.7509 28.3407C14.7293 28.2765 14.6308 28.3781 14.5903 28.2869C14.4404 27.9518 14.0872 27.4084 14.2245 27.0094C14.3344 26.6902 14.6102 26.9252 14.6211 26.711C14.626 26.6081 14.1965 26.6704 14.1757 26.6541C13.9681 26.4981 14.085 26.2857 13.9584 26.1212C13.9322 26.0872 13.7879 26.1876 13.7674 26.1579C13.6958 26.057 13.7207 25.9116 13.6659 25.8099C13.641 25.7644 13.5228 25.8207 13.5149 25.7729C13.4948 25.659 13.5094 25.5451 13.5839 25.3984C13.5907 25.3851 13.7666 25.3894 13.7421 25.3094C13.702 25.1799 13.7544 24.9801 13.5823 24.8795C13.5307 24.8498 13.2512 24.9548 13.4083 24.7882C13.4411 24.7533 13.7854 24.6504 13.4548 24.6527C13.3998 24.653 12.9399 24.6191 13.1579 24.434C13.2152 24.3853 13.4668 24.2212 13.4041 24.1857C13.3946 24.1813 13.2552 24.2661 13.2243 24.2286C13.1182 24.0956 13.0746 23.9306 12.9692 23.792C12.9408 23.7551 12.8085 23.8753 12.7711 23.8183C12.6679 23.6617 12.6281 23.4326 12.6149 23.2465C12.6104 23.1777 12.7552 23.1731 12.7675 23.1634C12.9691 23.0068 12.6454 23.0778 12.6186 23.0604C12.4564 22.9511 12.5598 22.7847 12.4714 22.6612C12.4474 22.6269 12.3101 22.7073 12.2942 22.7045C12.2896 22.7036 12.2854 22.7027 12.2815 22.7017C12.1539 22.6704 12.4233 22.6333 12.4341 22.5748C12.4661 22.4058 12.3982 22.2549 12.3286 22.1204C12.3028 22.0711 12.1529 22.1909 12.1317 22.1459C12.0028 21.8797 11.9184 21.5909 11.9177 21.2882C11.9179 21.2312 12.061 21.2165 12.0873 21.1953C12.2724 21.0485 11.9475 21.0432 11.9115 21.0282C11.7472 20.9604 11.8486 20.8759 11.7922 20.7847C11.5162 20.344 11.3881 19.7202 11.2818 19.2494C11.1439 18.6407 11.1129 18.1285 10.8955 17.5804C10.8817 17.5452 10.7171 17.6397 10.7029 17.61C10.5285 17.2244 10.4667 16.8016 10.2871 16.4213C10.2726 16.3896 10.1202 16.4914 10.0912 16.4424C10.0306 16.3423 9.99526 16.2016 10.0134 16.0742C10.0219 16.0121 10.1891 16.0378 10.1948 15.9763C10.2082 15.8331 10.1768 15.694 10.1082 15.5725C10.1081 15.5722 10.1079 15.5719 10.1077 15.5717C10.0771 15.5224 9.93347 15.6588 9.90871 15.5882C9.73807 15.1135 9.55596 14.6413 9.6242 14.0789C9.62903 14.0407 9.96955 13.9018 9.88024 13.8518C9.7815 13.8769 9.66741 13.9129 9.56294 13.9431C9.28607 13.2553 9.18983 12.5142 8.99152 11.7995C8.98306 11.7692 8.81331 11.878 8.79597 11.8196C8.69401 11.4767 8.54569 11.1744 8.62609 10.7745C8.63383 10.735 8.96606 10.6533 8.88621 10.568C8.87183 10.5531 8.78238 10.4149 8.69952 10.3971C8.6872 10.395 8.54295 10.4688 8.5237 10.4212C8.41416 10.1427 8.35916 9.83401 8.3687 9.5271C8.37043 9.47714 8.54757 9.47659 8.55021 9.44058C8.56775 9.18562 8.36895 8.9718 8.4504 8.70588C8.5055 8.52767 8.80317 8.49862 9.05645 8.337C9.09218 8.31419 9.07087 8.22018 9.23054 8.16733C9.63197 8.03427 10.0888 7.94654 10.5151 7.79942C10.607 7.76785 10.4701 7.67441 10.7166 7.68039C10.7331 7.68102 10.8344 7.74806 10.9172 7.74723C10.9744 7.74678 11.13 7.67035 11.2068 7.68138C11.2835 7.69241 11.1564 7.76764 11.2511 7.79552C11.3467 7.82304 11.5263 7.74478 11.5791 7.84083ZM19.3403 36.0659C19.4487 35.9173 18.9079 36.1733 19.0769 36.1913C19.0857 36.1919 19.3351 36.0734 19.3403 36.0659ZM24.2999 45.0424C24.4736 44.8153 24.0999 44.9437 23.9619 45.1126C23.8243 45.2815 24.2474 45.1115 24.2999 45.0424ZM25.0437 45.942C25.1594 45.7273 24.416 46.1363 24.6331 46.1685C24.6455 46.1705 25.037 45.9546 25.0437 45.942ZM9.24442 8.67857C9.25169 8.67518 9.23943 8.60719 9.23142 8.60786C9.03892 8.62728 9.06358 8.76324 9.24442 8.67857ZM25.798 46.8151C25.8762 46.7218 25.7029 46.6884 25.6055 46.8041C25.5271 46.8973 25.7006 46.9311 25.798 46.8151ZM18.0063 31.807C18.0139 31.802 18.0007 31.754 17.9553 31.7759C17.8091 31.8465 17.8793 31.8897 18.0063 31.807ZM26.7938 48.4741C26.6729 48.2097 27.186 47.7019 27.2783 48.0108C27.2951 48.0668 27.0238 48.0204 27.0065 48.1148C26.9755 48.2873 27.3982 48.137 27.2656 48.3744C27.2411 48.4176 26.7993 48.49 26.7927 48.4742C26.7931 48.4742 26.7934 48.4741 26.7938 48.4741ZM19.9613 35.7013C19.9677 35.6962 19.9442 35.6325 19.9365 35.6346C19.7502 35.6866 19.7974 35.8152 19.9613 35.7013ZM17.1842 29.0479C17.1982 29.0378 17.1507 28.8874 17.1344 28.8888C16.8166 28.9358 16.9122 29.2412 17.1842 29.0479ZM22.4491 39.5441C22.6523 39.5187 22.714 39.5857 22.5309 39.7516C22.5071 39.6807 22.4737 39.6147 22.4491 39.5441ZM38.3421 1.97846C38.2704 3.04117 38.0152 4.41743 37.7636 5.44281C37.6853 5.76451 37.6087 5.58184 37.5493 5.80278C37.4328 6.23455 37.4096 6.65382 37.279 7.07899C37.2354 7.2184 37.1042 7.00967 37.0622 7.15635C36.833 7.95896 36.7142 8.74395 36.4959 9.56208C36.4128 9.87309 36.3286 10.1837 36.2432 10.4939C35.3126 13.8705 34.269 17.1614 33.0208 20.4541C32.9035 20.7631 32.7831 21.0753 32.6615 21.3853C32.159 22.6718 31.3948 24.1792 30.8937 25.5138C30.8352 25.6704 31.0098 25.6371 31.0085 25.6711C30.9815 26.2032 30.774 25.9327 30.608 26.2144C29.9512 27.3268 29.3328 28.6215 28.8332 29.757C28.7732 29.8937 28.7695 29.9643 28.7867 30.0045C28.8303 30.1068 29.01 30.0116 28.733 30.3005C28.7066 30.3285 28.6268 30.1386 28.5469 30.2603C28.366 30.5376 28.1099 31.0966 27.9792 31.3186C27.728 31.7441 27.6911 31.8164 27.4699 32.2237C27.1675 32.7763 26.7329 33.3971 26.4219 34.0059C26.3562 34.1356 26.5914 34.0495 26.4988 34.2637C26.4058 34.4798 26.0854 34.9947 25.9442 35.1546C25.8036 35.3145 25.7417 35.1727 25.6979 35.1895C25.3331 35.3237 25.2474 36.1027 25.205 36.1841C24.6646 37.233 24.0123 38.0875 23.3499 38.938C23.0749 39.291 22.7999 39.6404 22.5293 40.0009C21.8074 40.9653 21.0565 41.9894 20.2899 42.8354C19.3699 43.8473 18.494 44.6104 17.5205 45.4934C17.4135 45.5893 17.6648 45.6199 17.5336 45.7375C17.1159 46.11 16.7039 46.4504 16.2659 46.7798C15.2268 47.5593 14.1013 48.2297 12.8555 48.6971C12.6807 48.7614 12.8306 48.5129 12.6534 48.5668C11.5339 48.949 9.82277 49.018 9.14939 49.7556C8.3214 49.8046 7.29466 49.6947 6.6589 49.4016C6.24655 49.2113 6.71312 49.1404 6.16811 49.0789C6.04549 49.0618 6.15401 49.2577 5.97224 49.2191C5.92995 49.2098 5.88753 49.1998 5.84527 49.1892C5.10918 49.0056 4.39433 48.628 3.70316 48.244C3.55638 48.1626 3.51604 48.3064 3.4622 48.2996C2.98534 48.2235 2.67926 47.4774 2.6124 47.3628C1.9864 46.445 1.5218 45.8299 1.11345 44.9171C1.02433 44.7058 0.955768 45.0315 0.863696 44.8271C0.387922 43.7477 0.175565 42.5576 0.193118 41.4385C0.198828 41.1978 0.372746 41.4091 0.384106 41.2945C0.435747 40.8153 0.159294 40.6929 0.202066 40.2441C0.204181 40.2237 0.207002 40.2027 0.210604 40.1809C0.22785 40.0756 0.364384 40.1404 0.380286 40.1217C0.629769 39.8453 0.310815 39.5802 0.309622 39.5012C0.295316 38.5132 0.740845 38.005 0.893323 37.0966C0.911552 36.9915 0.685099 37.186 0.747776 36.8916C1.177 34.8954 2.07568 32.8999 3.17837 31.2404C3.35204 30.9787 3.35578 31.2387 3.37974 31.2293C3.76058 31.0745 3.56581 30.7389 3.60762 30.6442C3.67671 30.4912 3.76119 30.3489 3.851 30.2137C4.18329 29.7126 4.58943 29.31 4.56717 28.7898C6.42541 26.3842 8.43702 24.0726 10.93 22.3716C11.1976 22.1893 11.4781 22.0085 11.7539 21.8439C11.7894 21.8223 11.8315 22.0005 11.9018 21.957C12.7557 21.4388 12.4483 21.3456 12.8177 20.695C12.9119 20.5307 13.5643 20.5541 13.6129 20.5567C13.8054 20.5535 13.8033 20.8542 13.8596 20.8409C14.3188 20.7281 13.805 20.0765 14.3298 19.744C14.3469 19.7348 14.3587 19.9066 14.4107 19.8918C14.5722 19.8463 14.6767 19.7107 14.8395 19.6725C15.2118 19.5881 15.533 19.8611 15.8828 19.3896C15.9279 19.3296 15.6006 18.9752 16.091 18.7249C16.2835 18.624 17.144 18.1537 17.4088 18.0566C17.6699 17.9576 17.5682 18.1785 17.5889 18.1752C18.3295 18.0263 18.1175 18.2259 18.5706 18.3324C19.0211 18.442 18.6299 17.8527 18.731 17.718C18.8321 17.5829 19.3903 17.5075 19.5349 17.5065C19.6791 17.5046 19.5676 17.6594 19.688 17.641C20.4248 17.5297 19.9518 17.235 20.0258 17.0281C20.0322 17.0108 20.0416 16.9945 20.0562 16.9789C20.5018 16.5017 21.1354 16.8059 21.6657 16.6553C21.8103 16.6144 21.6537 16.5477 21.7745 16.4896C22.2547 16.262 22.6189 16.3014 23.1205 15.9695C23.2024 15.915 23.5602 15.463 23.9322 15.5844C23.9847 15.6022 23.9045 15.7641 24.1271 15.7228C24.4568 15.6617 25.0559 15.5078 25.3835 15.3686C25.6254 15.2654 25.2781 15.1431 25.6137 15.1159C25.763 15.1044 25.5355 15.2985 25.8128 15.2672C26.0874 15.2354 26.7679 15.0481 27.0311 14.9785C27.2926 14.9081 27.1097 14.7872 27.1281 14.7713C27.2409 14.6777 27.7344 14.4783 27.7808 14.4683C28.5563 14.2788 29.3189 14.1474 30.095 14.0384C31.5414 13.8367 32.9345 13.729 34.3972 13.5109C34.5694 13.4855 34.4393 13.3277 34.4653 13.3221C35.0545 13.1891 34.6235 13.6896 35.0491 13.7998C34.9626 13.4603 35.2118 13.4978 35.6325 13.423C35.8355 13.3868 35.716 13.2625 35.7337 13.2471C36.0259 13.0178 36.2551 13.2648 36.3121 13.3145C36.5244 13.4971 36.7343 13.2479 36.8792 13.3711C37.023 13.4935 36.7132 13.7087 37.1247 13.6798C37.2354 13.5487 36.9174 13.2435 37.2267 13.1718C38.0643 12.9709 39.4823 13.0188 40.5637 13.0869C40.9439 13.1167 41.2737 13.1519 41.518 13.1715C42.4472 13.2522 42.7593 13.2713 43.3044 13.3848C44.279 13.6099 43.9376 13.3167 44.5807 13.3207C45.2286 13.3397 44.8071 13.8592 44.8716 14.0019C44.9303 14.1447 45.0484 14.0368 45.1376 14.1292C45.225 14.2213 44.985 14.254 45.2191 14.3359C45.4511 14.414 46.1545 14.3717 46.2865 14.2751C46.5496 14.0611 46.3331 13.6811 46.956 13.9869C46.9911 14.0049 46.8227 14.1135 46.9596 14.1748C48.0422 14.6563 49.1584 15.1533 50.1321 15.8276C50.176 15.8582 50.1819 15.8875 50.1731 15.9149C50.1675 15.9322 50.1562 15.9487 50.1448 15.9643C50.1301 15.9845 50.1154 16.0033 50.1126 16.0205C50.1107 16.0326 50.1147 16.0439 50.1288 16.0543C50.8955 16.6392 50.7515 16.2164 51.3843 16.2391C51.0436 16.5343 51.1511 16.9062 51.7232 17.3345C52.0694 17.6001 52.1241 17.4064 52.4312 17.4823C52.5245 17.5054 52.6802 17.8053 52.7798 17.7753C53.1103 17.6819 53.1022 17.2312 53.5952 17.8551C53.6159 17.8829 53.4284 17.9247 53.5079 18.0122C54.0104 18.5832 54.2886 18.4309 54.8744 19.0317C55.3357 19.5033 55.8871 20.5426 56.2432 21.1831C55.8293 21.4309 56.2715 21.9407 56.6972 22.0299C56.8613 22.3483 57.0418 22.685 57.181 23.0186C57.2268 23.1283 57.2683 23.2378 57.3037 23.3462C57.3528 23.4971 57.1823 23.4582 57.1765 23.4826C57.0778 23.852 57.4525 23.9159 57.5028 24.0084C58.0215 25.0032 58.0314 25.9386 58.4726 26.9232C58.4877 26.9576 58.8327 26.9577 58.6399 27.2847C58.6259 27.3046 58.4165 26.9874 58.4876 27.4787C58.5602 27.9684 58.4857 28.9234 58.6619 29.5918C58.7068 29.7534 58.991 30.1789 58.7718 30.5233C58.7422 30.5684 58.6463 30.5179 58.5916 30.5814C58.4166 30.7835 58.754 30.9087 58.454 31.1414C58.1532 31.3718 57.9112 31.8531 58.027 32.5381C58.03 32.559 58.2651 32.742 58.2452 32.9488C58.2447 32.9546 58.2439 32.9604 58.2429 32.9662C58.1879 33.3031 58.0449 33.7869 57.9736 34.1288C57.9393 34.2952 58.1257 34.224 58.1226 34.2535C57.9604 35.4157 57.5845 36.1648 57.0834 37.3103C56.9953 37.5116 56.9606 38.2039 56.6084 38.536C56.2242 38.888 55.6904 38.1173 55.3979 39.1464C55.2805 39.5473 55.9113 40.5829 55.0345 40.9827C54.8459 41.3629 54.6224 41.7196 54.3795 42.064C53.7652 42.9348 53.0066 43.7423 52.3977 44.6559C52.359 44.7137 52.4321 45.073 52.317 45.1956C52.1465 45.3765 51.9532 45.3856 51.8259 45.5101C51.3 46.0163 50.92 46.5648 50.383 47.0497C50.1809 47.2312 50.1488 47.0687 49.9129 47.2763C49.6778 47.4814 49.6459 47.7609 49.2611 47.9784C48.9688 48.1423 48.4751 48.0654 48.1103 48.3078C48.3317 48.6092 48.1 48.7922 47.752 49.1909C47.6845 49.2681 47.8498 49.3039 47.8219 49.3457C47.7917 49.3923 47.7543 49.4283 47.7138 49.4592C47.604 49.5431 47.472 49.59 47.3955 49.715C47.3699 49.7565 47.4452 49.8596 47.4284 49.8993C47.288 50.2426 46.6871 50.3253 46.584 50.337C46.1838 50.3906 46.1642 50.6068 45.9055 50.6956C45.6506 50.7808 45.9148 50.4849 45.6413 50.6184C45.0776 50.8933 44.3986 51.3609 43.8456 51.695C43.6319 51.8251 43.8665 51.8806 43.838 51.9025C43.4176 52.2127 42.8661 52.3265 42.7793 52.7682C42.0204 52.1907 42.5462 53.0036 41.7787 53.227C41.7177 53.2441 41.4517 52.9168 41.6265 52.7513C41.8008 52.586 42.1706 52.5278 42.3987 52.287C42.4544 52.2299 42.6268 51.6792 42.6628 51.63C42.9549 51.2428 43.3275 51.7402 43.3665 51.7569C43.7892 51.9317 44.0083 51.3012 44.1149 51.1983C44.5835 50.7436 45.0742 50.5209 45.4467 50.1488C45.6904 49.9053 45.4788 49.5569 45.7026 49.4131C46.2961 49.0272 46.7823 49.1052 47.1405 48.7203C47.2377 48.615 47.324 48.4753 47.3961 48.2829C47.4709 48.0879 47.0465 47.8634 47.7668 47.7255C47.8118 47.7177 48.3885 47.6531 48.4642 47.3194C48.4737 47.2775 48.3882 47.1804 48.4152 47.1426C48.5969 46.8914 48.8151 46.8359 49.022 46.5813C49.2195 46.3351 49.4747 45.9954 49.7714 45.7671C49.9523 45.628 50.3274 45.5936 50.4456 45.5574C50.7834 45.4577 50.8046 45.0311 51.0827 45.035C51.3691 45.0309 51.3337 45.5318 51.788 45.2373C51.5533 44.9958 51.3281 44.7306 51.0983 44.4808C51.845 43.6777 52.6087 42.9118 53.2334 42.0133C53.3093 41.903 53.083 41.9094 53.1597 41.7892C53.2426 41.6591 53.3307 41.5374 53.4239 41.4142C53.6881 41.065 53.9652 40.7479 54.1724 40.3318C54.384 39.9046 54.4903 39.3254 54.6735 38.8644C55.1562 38.7743 55.3752 38.0277 55.618 37.5378C55.7037 37.3665 55.7933 37.4177 55.8762 37.3043C56.1823 36.874 55.7756 36.9729 55.7767 36.8245C55.7734 36.1828 56.5194 36.3903 56.7219 35.6922C56.735 35.6522 56.4699 35.0999 56.4613 35.0289C56.4064 34.5947 56.6174 35.0015 56.7119 34.7629C56.8804 34.3262 57.0481 34.0355 57.0309 33.4785C57.0265 33.3394 56.8924 33.0227 56.9907 32.7667C57.009 32.7188 57.0356 32.6728 57.0727 32.6298C57.1038 32.5937 57.2352 32.6338 57.2474 32.6027C57.4524 32.0366 57.0255 31.9715 56.9109 31.6318C56.7956 31.2941 57.1084 30.807 57.1941 30.7023C57.4195 30.4348 57.2832 30.9137 57.3025 30.9293C57.5512 31.1144 57.5243 30.7352 57.5472 30.444C57.9669 30.4053 57.9387 29.983 57.5678 30.139C57.5278 30.1562 57.5673 30.3847 57.5472 30.444C57.1397 30.1793 57.0843 29.759 57.4355 29.2483C57.5967 29.0062 57.8307 29.2132 57.6857 28.5043C57.615 28.1858 57.344 28.3436 57.2302 28.0775C56.9723 27.4837 57.0701 26.6166 56.8504 25.9937C56.771 25.7678 56.6826 26.0341 56.6229 25.8827C56.4631 25.4847 56.4562 25.0898 56.2481 24.7091C56.229 24.6749 56.1085 24.8214 56.0594 24.6986C55.9229 24.3629 55.7963 24.043 55.6652 23.7272C55.4331 23.1698 55.1869 22.6199 54.8313 22.0524C54.5666 21.618 53.9616 20.9394 53.6374 20.533C53.0922 19.8178 52.4429 18.8535 51.7925 18.4023C51.3701 18.1082 51.3543 18.311 51.1148 18.2675C50.6622 18.1902 50.2758 17.4645 50.2138 17.3577C50.2129 17.353 50.6036 17.563 50.4528 17.3627C50.433 17.1391 50.2178 17.3595 50.2138 17.3577C50.1914 17.3122 49.8669 17.0787 49.5976 16.9204C49.4565 16.8364 49.3294 16.7701 49.2714 16.7509C49.1794 16.7208 49.1522 16.8836 49.106 16.8656C48.0105 16.4384 46.9255 16.0441 45.8069 15.6433C45.7875 15.6344 45.8668 15.4754 45.8202 15.4565C45.1758 15.1935 44.7063 15.3074 44.1354 15.3249C43.5743 15.3471 43.1552 15.2461 42.8386 14.9055C42.3922 14.8879 41.7961 14.7069 41.4237 14.609C41.0564 14.5108 40.9979 14.8518 40.9659 14.8569C40.824 14.8826 40.6897 14.9019 40.5608 14.9159C39.7465 15.0206 39.1726 14.886 38.2628 14.899C37.7668 14.904 36.7719 15.0135 36.2222 15.0966C35.7936 15.161 35.5314 15.1045 35.1454 15.1931C35.0933 15.2051 35.1581 15.3508 35.1425 15.3582C34.7257 15.5821 34.9029 15.1925 34.8079 15.1356C34.4592 14.9308 34.2638 14.8219 33.6966 15.0049C33.5661 15.0468 33.2493 15.6249 33.0221 15.6881C32.7246 15.7695 32.8133 15.5639 32.5031 15.6557C32.4767 15.6635 32.4985 15.7792 32.3041 15.8032C31.7185 15.8772 31.1156 15.9439 30.4723 16.0455C30.1286 16.0996 29.7889 16.1612 29.4603 16.2342C29.3333 16.2621 29.5345 16.4107 29.3524 16.4541C28.5195 16.6524 27.542 16.8813 26.7005 17.0208C26.4917 17.0549 26.5842 16.894 26.5299 16.8685C26.1946 16.7163 25.9072 17.155 25.8481 17.1793C24.361 17.7912 23.1606 17.8767 21.701 18.6185C21.6323 18.6538 21.268 19.1024 20.9209 19.1088C20.866 19.1105 20.8114 19.1018 20.7581 19.0797C20.7315 19.0684 20.3247 18.8948 20.1736 19.2044C20.1646 19.2237 20.401 19.2981 20.1 19.4161C19.7982 19.5347 19.3816 19.8529 18.9123 19.883C18.7681 19.8905 18.3198 19.7552 18.062 20.1788C18.0417 20.2081 17.7495 21.0187 17.3615 20.78C17.2983 20.7407 17.1242 20.352 16.8002 20.7846C16.7395 20.8677 16.9336 20.8647 16.7492 21.0385C16.4667 21.3056 15.9604 21.4764 15.6652 21.8842C15.6125 21.9562 15.4764 22.3813 15.1293 22.3493C15.0746 22.3445 15.0659 22.1816 14.9356 22.2484C14.3082 22.571 13.7501 23.0786 13.1335 23.4203C12.9133 23.5436 12.8811 23.2821 12.631 23.3965C12.475 23.4684 12.2373 23.6068 12.0453 23.7639C11.9281 23.8596 11.8277 23.9619 11.7716 24.059C11.6253 24.3149 12.0863 24.4035 11.7921 24.6868C10.5114 25.9283 9.11633 27.0083 7.9453 28.3497C7.7734 28.5482 8.01096 28.4644 7.76916 28.7623C7.20787 29.4539 6.48651 30.5092 5.8535 31.4686C5.48446 32.0208 5.12867 32.5564 4.82663 32.9085C4.18318 33.673 4.59496 32.5023 4.17387 33.129C3.96864 33.4404 4.18136 33.9872 4.15966 34.0682C3.94124 34.881 3.54643 35.385 3.36583 36.111C3.32976 36.2603 3.5386 36.1706 3.50682 36.2961C3.39521 36.7412 3.19645 37.1756 3.11512 37.585C3.07901 37.771 3.2135 37.7685 3.16658 37.9379C3.05709 38.3481 2.94372 38.6859 2.76996 39.0731C2.75403 39.1099 2.62548 38.8341 2.57959 39.1478C2.52994 39.5035 2.43598 39.8961 2.43065 40.3079C2.42823 40.4878 2.4426 40.6658 2.48322 40.8352C2.52529 41.0029 2.82004 40.9949 2.635 41.3525C2.59864 41.4284 2.22891 41.3669 2.57821 41.7553C2.63412 41.8375 3.13435 42.4066 2.95464 42.7778C2.9042 42.8746 2.67537 43.1656 2.77659 43.3358C2.79106 43.3574 2.91452 43.215 2.97499 43.356C3.19314 43.8691 3.40688 44.3754 3.73671 44.7932C3.82374 44.9006 3.85065 44.6411 3.97441 44.7989C4.32586 45.2479 4.73532 45.7092 5.0979 46.0287C5.23758 46.1508 5.06365 46.1963 5.06584 46.2163C5.13339 46.5576 5.42134 46.3427 5.49413 46.3628C5.88733 46.4771 6.17501 46.6954 6.58395 46.8393C6.67388 46.8706 6.76616 46.8962 6.86213 46.9137C7.00544 46.9392 6.94863 46.763 6.98034 46.7567C7.29827 46.6911 7.01453 46.9146 7.18639 46.9837C7.66694 47.1737 8.20219 47.1976 8.64902 47.1595C8.81371 47.1449 8.62872 46.9717 8.77266 46.9598C9.61249 46.8899 10.6483 46.6433 11.6017 46.33C11.781 46.2719 11.73 46.4471 11.7789 46.4604C12.125 46.5529 12.3692 46.0873 12.4376 46.0168C12.7502 45.6991 12.9494 45.7252 13.2708 45.5015C13.6979 45.1996 14.1092 44.8961 14.5665 44.5409C15.7726 43.6075 17.0221 42.4721 17.9763 41.4832C19.2866 40.1232 20.3465 38.9063 21.3616 37.5248C21.6735 37.0976 21.9607 36.6822 22.262 36.2165C22.3449 36.0883 22.1048 36.1133 22.1741 36.0016C23.0712 34.5677 23.9939 33.1756 24.7772 31.6524C24.8408 31.5292 24.5899 31.6185 24.6864 31.418C24.8833 31.0061 25.1672 30.4984 25.4347 30.1092C25.5649 29.919 25.5564 30.2614 25.6849 30.0681C25.9442 29.6786 26.1817 29.2482 26.3842 28.8068C26.4134 28.7431 26.4419 28.6792 26.4696 28.6152C26.5623 28.3997 26.2442 28.6365 26.3769 28.3629C27.2706 26.5056 28.0677 24.6415 29.0683 22.7914C29.1368 22.6644 29.5244 22.6839 29.5725 22.3723C29.4865 22.3133 29.3748 22.2704 29.2775 22.221C29.6206 21.3038 29.9646 20.394 30.3042 19.4783C31.0092 17.5769 31.6902 15.6658 32.2624 13.7026C32.2979 13.5802 32.0511 13.7389 32.1188 13.502C32.4739 12.2527 32.7459 11.0277 33.1797 9.77638C33.2232 9.65061 33.2684 9.52468 33.3155 9.39855C33.3659 9.26178 33.6832 9.41014 33.7263 8.98158C33.7339 8.90752 33.8274 8.26522 33.7884 8.08684C33.7821 8.06244 33.6019 8.14432 33.6401 7.94044C33.8633 6.76122 34.1306 5.52401 34.4155 4.36034C34.4617 4.17257 34.597 4.40206 34.6314 4.26835C34.8765 3.30194 34.8909 2.24402 35.1513 1.32241C35.3246 0.709393 35.5901 0.972708 35.913 0.668982C35.9588 0.625781 36.0039 0.237626 36.1729 0.23357C36.5987 0.221628 37.041 0.457114 37.497 0.422426C37.5958 0.414964 37.5412 -0.127487 37.7454 0.209734C37.7593 0.233065 37.7993 0.628167 37.8684 0.732338C37.9163 0.804744 38.0987 0.701386 38.1548 0.845243C38.2106 0.989437 38.0525 1.12468 38.1097 1.36085C38.1673 1.59761 38.3728 1.51888 38.3421 1.97846ZM39.7212 14.2345C39.3668 14.0792 39.321 14.6789 39.6997 14.5268C39.7181 14.5188 39.7395 14.2422 39.7212 14.2345ZM52.9419 43.182C53.4317 42.9822 53.3007 42.5028 52.9497 42.6331C52.6001 42.7589 52.794 43.2409 52.9419 43.182ZM49.9153 46.7691C50.4521 46.5465 49.9197 45.8809 49.6278 46.3959C49.6105 46.4255 49.884 46.7819 49.9153 46.7691ZM35.8151 2.23473C35.8235 2.23255 35.8666 1.95025 35.8594 1.94276C35.6896 1.76991 35.6042 2.33038 35.8151 2.23473ZM46.43 49.9097C46.6366 49.9029 46.9473 49.5069 46.6941 49.5171C46.4927 49.5249 46.1758 49.9177 46.43 49.9097ZM21.7847 16.9224C21.7762 16.916 21.5827 16.9825 21.605 17.028C21.6768 17.1739 21.9246 17.029 21.7847 16.9224ZM39.5685 54.0155C40.6504 53.5144 41.6078 53.7953 40.4167 54.3227C40.2 54.417 40.7688 53.8926 40.4725 53.9728C39.9337 54.118 39.7969 54.6765 39.176 54.7124C39.0659 54.7181 39.5086 54.0427 39.57 54.0137C39.5695 54.0143 39.569 54.0149 39.5685 54.0155ZM39.5122 13.5205C39.5049 13.5126 39.2205 13.5126 39.214 13.5208C39.0625 13.7148 39.6339 13.7147 39.5122 13.5205ZM11.2456 22.4445C11.2376 22.4433 11.1667 22.492 11.0785 22.5571C10.9151 22.6772 10.6947 22.8543 10.6905 22.871C10.6503 23.1515 11.0249 22.9519 11.2274 22.7429C11.3549 22.6108 11.4136 22.4727 11.2456 22.4445ZM56.2384 21.1998C56.5693 21.3652 56.7858 21.6918 56.6967 22.0285C56.556 21.7472 56.3969 21.4736 56.2384 21.1998Z" fill="black"/>
</svg>
