<svg width="58" height="54" viewBox="0 0 58 54" fill="none" xmlns="http://www.w3.org/2000/svg">
<path d="M12.2341 2.64179C12.9933 2.45999 13.9656 2.33891 14.7729 2.27264C14.8358 2.26749 14.898 2.2626 14.9594 2.25798C15.225 2.23777 15.1145 2.36366 15.29 2.35593C15.6298 2.34131 15.9658 2.23334 16.3044 2.22786C16.4192 2.22616 16.3066 2.41466 16.4265 2.40907C17.1012 2.37444 17.696 2.23592 18.3653 2.16691C18.5043 2.15268 18.6441 2.13821 18.7846 2.12352C20.1139 1.98501 21.4259 1.83948 22.7474 1.69485C24.0651 1.55092 25.3796 1.40912 26.7192 1.28376C27.2115 1.2378 27.7056 1.1944 28.203 1.15492C28.9776 1.09328 29.8706 1.09163 30.7365 1.06032C31.0942 1.04767 31.4877 1.02737 31.825 0.996094C31.9563 0.983887 31.8733 0.83912 31.898 0.826166C32.3161 0.628948 32.1851 0.930205 32.4518 0.966112C33.2594 1.16655 33.9712 0.874238 35.3258 1.70551C35.9573 2.53743 35.6034 2.77742 35.6157 3.25393C35.5279 3.75529 35.9371 3.30224 35.6449 3.79096C35.6246 3.82361 35.507 3.65865 35.4533 3.79297C35.3161 4.15236 35.2187 4.53488 35.125 4.77034C34.9519 5.19296 34.9533 5.19005 34.818 5.55108C34.6222 6.06357 34.3435 6.55369 34.1621 7.08674C34.1237 7.20085 34.333 7.1145 34.2845 7.30317C34.2254 7.5176 34.0402 7.92085 33.9374 8.06421C33.8382 8.19962 33.7496 8.08595 33.7117 8.10114C33.3955 8.22061 33.4711 8.8909 33.4461 8.96726C33.2147 9.71268 32.8321 10.453 32.493 11.0795C32.2817 11.4723 32.0606 11.8793 31.8561 12.3098C31.47 13.1249 31.0573 14.1185 30.6678 14.8845C30.1766 15.8507 29.701 16.5989 29.2358 17.5379C29.1865 17.637 29.4136 17.6078 29.3536 17.7291C29.0988 18.2433 28.8497 18.7271 28.579 19.2249C28.1646 19.9867 27.739 20.706 27.2641 21.4251C27.1852 21.5442 27.1264 21.3042 27.0389 21.4184C26.5042 22.1249 25.565 23.1538 25.941 23.9595C25.63 24.4611 25.2566 25.0659 24.8701 25.452C24.6213 25.7005 24.6272 25.3252 24.4882 25.7249C24.4566 25.815 24.6544 25.7872 24.5965 25.9164C24.4309 26.2857 24.2084 26.6505 24.012 27.0182C23.919 27.1924 23.8319 27.3671 23.7596 27.5432C23.7142 27.6547 23.8528 27.698 23.8578 27.7401C23.8927 28.0902 23.3588 28.3245 23.2847 28.4008C22.7247 28.9851 22.493 29.5141 22.1118 30.1349C22.0232 30.2787 22.2894 30.2066 22.2099 30.3487C21.7905 31.0921 21.3142 31.8318 20.8031 32.485C20.6873 32.6327 20.6417 32.4011 20.5794 32.4672C20.3066 32.7586 20.5185 32.9957 20.2613 33.2759C20.2075 33.335 20.1145 33.2228 20.0939 33.2267C19.7716 33.2869 19.9517 33.6331 19.9267 33.6857C19.7287 34.1136 19.4338 34.3427 19.1489 34.6255C18.9909 34.7814 18.8392 34.9491 18.7138 35.1697C18.6723 35.2434 18.9239 35.1824 18.7981 35.3838C17.9599 36.7267 16.9626 38.0715 15.9065 39.2503C15.7457 39.4292 15.7427 39.2133 15.7206 39.2157C15.3728 39.2565 15.5448 39.5926 15.5048 39.6664C15.1876 40.2367 14.6051 40.515 14.6612 41.0919C14.3961 41.3886 14.1225 41.7011 13.8636 41.9954C12.3592 43.662 10.867 45.5367 8.57809 46.4183C8.54277 46.4311 8.53027 46.2504 8.46161 46.2757C7.65549 46.5214 7.90715 46.7083 7.27372 47.1641C7.09829 47.2813 6.62417 46.892 6.60251 46.8506C6.47401 46.7324 6.6708 46.5015 6.62609 46.4765C6.4059 46.3442 6.27662 46.6565 6.03203 46.8251C5.92172 46.9071 5.79377 46.9568 5.63706 46.8992C5.62267 46.8925 5.73586 46.7724 5.70097 46.7435C5.59346 46.6534 5.45045 46.6623 5.34916 46.5642C5.11386 46.3335 5.18259 45.9299 4.68857 45.9428C4.62441 45.9417 4.4959 46.4101 4.08697 46.159C3.92136 46.0663 3.22142 45.6238 3.05854 45.4494C2.89171 45.2842 3.11099 45.2619 3.10121 45.2463C2.75015 44.7121 2.9847 44.7904 2.95832 44.3775C2.94982 43.9699 2.527 44.5317 2.38228 44.5008C2.23553 44.4717 2.04587 44.0231 2.02776 43.9054C2.00356 43.7869 2.16158 43.8274 2.12703 43.7349C1.9138 43.1169 1.68004 43.7255 1.46108 43.6165C1.0988 43.421 1.10364 43.0227 1.11363 42.6823C1.11587 42.5344 1.11684 42.3927 1.08314 42.2609C1.05331 42.1403 0.976647 42.2762 0.928699 42.1742C0.746837 41.7523 0.843491 41.4669 0.655632 40.9711C0.622057 40.8989 0.302107 40.452 0.570534 40.185C0.608261 40.1518 0.722722 40.2713 0.776376 40.0895C0.853539 39.8132 1.01154 39.3405 1.09096 39.0466C1.14943 38.8254 0.849959 38.979 1.02699 38.7437C1.10632 38.6448 1.12235 38.9021 1.26152 38.716C1.39525 38.5255 1.69771 38.0283 1.83103 37.8538C1.96213 37.6719 1.76048 37.6712 1.76216 37.6504C1.78656 37.5093 1.99391 37.1444 2.02654 37.1126C2.19512 36.9201 2.39749 36.7204 2.57278 36.5659C3.818 35.4784 5.23789 34.9034 6.61651 34.1738C6.74129 34.109 6.58533 33.9927 6.6036 33.9812C7.02043 33.7152 6.8537 34.287 7.22604 34.2889C7.04039 33.9922 7.25725 33.9641 7.56126 33.7975C7.70074 33.7201 7.57033 33.6287 7.57841 33.6105C7.72196 33.3317 7.97875 33.5144 8.03794 33.549C8.10137 33.5851 8.153 33.5879 8.19823 33.5755C8.3107 33.5445 8.38448 33.4182 8.49244 33.4788C8.6428 33.5632 8.4705 33.8346 8.78059 33.7174C8.82666 33.5685 8.47971 33.3502 8.70315 33.2127C9.50362 32.6984 11.2684 32.431 12.012 32.2694C12.7496 32.1019 12.957 32.0303 13.3993 31.9698C14.1055 31.8782 13.9252 31.7358 14.1969 31.5529C14.2295 31.5302 14.2692 31.5071 14.3189 31.4835C14.7638 31.2742 14.6607 31.9023 14.7544 32.0121C14.8468 32.1224 14.8917 31.979 14.9889 32.0301C15.0856 32.0812 14.9251 32.2032 15.1241 32.1883C15.321 32.1732 15.8192 31.8429 15.8675 31.6986C15.9661 31.3926 15.6564 31.1503 16.2198 31.1486C16.2524 31.1488 16.1794 31.3209 16.3025 31.3137C17.1963 31.267 18.2061 31.1048 19.1228 31.0741C19.2488 31.07 19.1633 31.258 19.2369 31.2576C20.0071 31.2557 19.6962 31.0069 20.0771 30.6253C20.0486 30.946 20.1824 31.1542 20.4836 31.2146C20.597 31.2373 20.7345 31.2391 20.8976 31.2183C21.2603 31.1725 21.1708 30.9943 21.3788 30.8339C21.4406 30.7857 21.6961 30.8843 21.7315 30.7907C21.8497 30.4846 21.5838 30.1894 22.1978 30.2462C22.2248 30.2492 22.1549 30.4171 22.2471 30.4159C22.8454 30.4098 22.8919 30.0994 23.5509 29.992C24.062 29.9084 24.9343 30.0089 25.52 29.9874C25.5291 30.4738 26.0684 30.3147 26.2829 29.9613C26.4129 29.9551 26.5468 29.945 26.682 29.9351C26.9402 29.9407 27.1984 29.9466 27.4367 29.9807C27.5609 29.9983 27.4826 30.1377 27.4986 30.1531C27.7426 30.3948 27.8927 30.0716 27.9771 30.0601C28.855 29.9496 29.5669 30.2083 30.3995 29.9849C30.4293 29.9768 30.4853 29.6409 30.7028 29.8919C30.7167 29.9092 30.4385 30.0562 30.8295 30.077C31.1295 30.0931 31.6482 30.2178 32.1155 30.2067C32.2485 30.2035 32.3734 30.1893 32.4975 30.1589C32.6313 30.1255 32.9754 29.8633 33.2326 30.0869C33.2668 30.1172 33.2246 30.2123 33.2734 30.268C33.4296 30.4454 33.5365 30.1087 33.7202 30.4058C33.9072 30.7032 34.29 30.9359 34.8507 30.7651C34.8683 30.7602 35.012 30.4973 35.183 30.5111C35.4513 30.5328 35.8455 30.613 36.1286 30.6304C36.2651 30.6386 36.1891 30.4655 36.213 30.4641C36.6965 30.4477 37.1083 30.497 37.524 30.57C37.9109 30.6375 38.2937 30.724 38.7651 30.8058C38.9435 30.8367 39.488 30.6686 39.8159 30.8936C40.1721 31.1407 39.6733 31.9005 40.5641 31.8287C40.9161 31.8015 41.5356 30.8398 42.0745 31.4868C42.3376 31.5057 42.5928 31.5444 42.843 31.5948C43.7809 31.7845 44.6386 32.1335 45.6222 32.2544C45.6778 32.2612 45.9285 32.0299 46.0552 32.0714C46.2425 32.1333 46.3067 32.2951 46.4383 32.3448C46.9838 32.5557 47.5315 32.6159 48.0592 32.8245C48.0763 32.8312 48.091 32.8381 48.1038 32.8452C48.2425 32.9223 48.1622 33.0189 48.3774 33.1061C48.6124 33.202 48.8386 33.0891 49.1314 33.3007C49.3485 33.46 49.4459 33.9082 49.7466 34.0827C49.9059 33.7445 50.1179 33.8405 50.5461 33.9214C50.6286 33.937 50.601 33.7825 50.6429 33.7837C50.8142 33.7862 50.9061 33.9458 51.0711 33.9407C51.1111 33.9397 51.1658 33.8243 51.2017 33.8171C51.5098 33.7506 51.7689 34.191 51.8118 34.2675C51.9788 34.5583 52.1615 34.4631 52.3178 34.6238C52.4721 34.784 52.1502 34.7283 52.3487 34.8778C52.5232 35.0096 52.7341 35.1384 52.9432 35.2574C53.2279 35.4192 53.5379 35.5784 53.7914 35.7203C53.9688 35.8187 53.929 35.6029 53.9562 35.6135C54.3452 35.7764 54.642 36.1528 55.0069 35.9709C54.823 36.8783 55.2685 36.0214 55.7112 36.4866C55.7445 36.523 55.5857 36.9113 55.3961 36.8697C55.2062 36.828 55.0315 36.5754 54.7662 36.5326C54.702 36.521 54.2191 36.6937 54.1637 36.6898C53.7546 36.671 54.0112 36.1053 54.0102 36.0655C53.9937 35.6357 53.4299 35.8071 53.3154 35.7793C53.112 35.7306 52.9371 35.659 52.7739 35.5838C52.5313 35.4724 52.3002 35.3451 52.0498 35.2842C51.7766 35.2172 51.5748 35.5711 51.3908 35.468C50.7659 35.1234 50.7778 34.5058 49.9607 34.6837C49.7869 34.7232 49.7452 35.1866 49.4115 34.6664C49.3912 34.6336 49.159 34.1915 48.8805 34.2985C48.8456 34.312 48.7985 34.4326 48.7611 34.4294C48.5103 34.4057 48.3945 34.2501 48.1305 34.2033C47.9804 34.1767 47.8158 34.1539 47.6469 34.1119C47.5185 34.0801 47.3915 34.0384 47.2747 33.9775C47.1128 33.8931 46.9713 33.591 46.9048 33.5069C46.7217 33.2667 46.3844 33.4521 46.3007 33.2105C46.2131 32.9669 46.6001 32.7569 46.244 32.5078C46.1317 32.8252 45.9985 33.1454 45.8782 33.4624C45.0405 33.198 44.2261 32.874 43.356 32.6965C43.2482 32.6749 43.3189 32.8756 43.2028 32.8573C42.997 32.8247 42.8074 32.769 42.618 32.7119C42.3572 32.6334 42.0961 32.5521 41.7961 32.5286C41.3976 32.4982 40.9322 32.6161 40.5169 32.6033C40.3208 32.1843 39.687 32.2286 39.2408 32.1409C39.0839 32.11 39.1075 32.0094 38.9991 31.9632C38.5894 31.7924 38.7505 32.1528 38.6289 32.1932C38.1055 32.3678 38.1452 31.5978 37.5458 31.5626C37.5362 31.562 37.4911 31.5957 37.4312 31.6437C37.2917 31.7546 37.0801 31.9432 37.0415 31.9581C36.6941 32.0976 36.9977 31.8112 36.79 31.7646C36.4068 31.6799 36.1502 31.5636 35.6884 31.655C35.5522 31.6821 35.2229 31.9186 34.9788 31.7075C34.9465 31.6798 34.9724 31.5454 34.9457 31.5361C34.4595 31.378 34.4214 31.8035 34.138 31.9346C33.8538 32.0658 33.4275 31.7543 33.342 31.6664C33.1203 31.4384 33.5221 31.5795 33.5377 31.5587C33.6976 31.3089 33.3721 31.3397 33.1341 31.3094C33.1149 30.8905 32.7727 30.9036 32.8832 31.2796C32.896 31.3207 33.0863 31.2885 33.1341 31.3094C32.9083 31.7112 32.5289 31.7504 32.13 31.3553C32.1109 31.3363 32.0956 31.3172 32.0831 31.2981C31.9726 31.1313 32.0726 30.972 31.5397 31.0263C31.2699 31.0538 31.3631 31.3439 31.1287 31.4165C30.5899 31.5821 29.8911 31.2993 29.3427 31.3319C29.1417 31.3436 29.3359 31.5046 29.1986 31.518C28.8371 31.5544 28.5264 31.4312 28.161 31.4862C28.1281 31.4914 28.2105 31.6575 28.0974 31.6579C27.6266 31.6614 27.1955 31.628 26.737 31.5949C26.3596 31.6032 25.9804 31.6134 25.5784 31.6481C25.1415 31.6852 24.3876 31.8491 23.9595 31.8756C23.1662 31.9259 22.195 31.797 21.5664 31.9356C21.1593 32.0248 21.2616 32.1783 21.0895 32.314C20.9671 32.4099 20.8002 32.431 20.6331 32.4169C20.341 32.3921 20.0474 32.2605 19.9888 32.2301C19.9854 32.2284 20.3481 32.138 20.1406 32.0818C20.0029 31.9232 19.9927 32.2288 19.9888 32.2301C19.9266 32.1988 19.1986 32.2684 19.0646 32.3219C18.9905 32.3508 19.057 32.4986 19.0181 32.5107C18.0263 32.8062 17.1001 33.0068 16.0832 33.1316C16.0649 33.132 16.0578 32.9553 16.0153 32.9583C15.4201 32.9969 15.1047 33.2822 14.6828 33.5047C14.6667 33.5132 14.6508 33.5214 14.6349 33.5294C14.2052 33.7368 13.8409 33.7715 13.5107 33.5548C13.1622 33.6778 12.6757 33.6654 12.3391 33.6727C12.0229 33.6745 12.0749 34.0139 12.0511 34.0272C11.3326 34.4522 10.8434 34.3952 10.0298 34.6335C9.73348 34.7192 9.19306 34.9417 8.79618 35.1297C8.70485 35.1727 8.62199 35.2132 8.55134 35.2488C8.26122 35.3965 8.04779 35.3987 7.77494 35.5724C7.73902 35.5955 7.83856 35.7173 7.82911 35.7278C7.58911 36.0315 7.58968 35.6271 7.49761 35.5955C7.16194 35.484 6.97833 35.4251 6.62286 35.727C6.53718 35.798 6.51832 36.4067 6.38349 36.5158C6.20473 36.6583 6.18571 36.4503 6.00613 36.6047C5.99114 36.6178 6.05107 36.7186 5.91672 36.7908C5.31284 37.1169 4.66682 37.4764 4.1758 37.9234C4.1089 37.984 4.318 38.0484 4.22618 38.1366C4.19305 38.1687 4.16032 38.2007 4.12804 38.2327C3.73311 38.6209 3.37886 39.0312 3.09054 39.3781C3.01213 39.473 2.93435 39.344 2.88734 39.3485C2.59385 39.3914 2.81403 39.7471 2.81109 39.7773C2.69568 40.5369 2.44686 41.0837 2.8846 41.8474C2.90674 41.8827 2.92993 41.9164 2.95518 41.9505C2.9864 42.0013 3.48033 42.1212 3.33305 42.4398C3.3192 42.4571 3.18238 42.811 3.46035 42.7953C3.47715 42.7933 3.52808 42.6007 3.64578 42.7604C3.77038 42.9264 4.06953 43.0682 4.17899 43.3944C4.2078 43.4933 4.19395 43.8965 4.58262 43.8554C4.61272 43.8583 5.28501 43.6085 5.20454 44.0176C5.19236 44.0849 4.96095 44.4445 5.36309 44.4153C5.43877 44.4075 5.3787 44.2704 5.55286 44.2942C5.8111 44.3252 6.09313 44.578 6.48465 44.5228C6.52826 44.5164 6.68099 44.4403 6.822 44.4551C6.86596 44.4516 6.89813 44.4675 6.91268 44.5439C6.91987 44.577 6.85524 44.7146 6.90685 44.7296C7.16091 44.7756 7.2804 44.608 7.61101 44.5658C7.74167 44.5388 7.77442 44.7785 7.95092 44.7539C8.12597 44.7316 8.46593 44.59 8.58083 44.3809C8.69048 44.176 8.2972 44.012 8.52806 43.8083C9.4759 42.9408 10.5833 42.1083 11.5722 41.0346C11.7148 40.8785 11.5021 40.9254 11.7002 40.6929C11.7798 40.5988 11.8652 40.4952 11.9555 40.3835C12.7127 39.458 13.6963 38.0591 14.4228 37.4792C15.0894 36.9424 14.6099 37.8839 15.057 37.4239C15.2731 37.1998 15.1277 36.6777 15.1594 36.6103C15.4574 35.9595 15.8963 35.6559 16.2212 35.0802C16.2882 34.9611 16.0717 34.9749 16.1301 34.8746C16.325 34.5363 16.6115 34.2478 16.807 33.9292C16.894 33.7866 16.7681 33.7399 16.8616 33.6173C16.9478 33.5031 17.0346 33.3964 17.1261 33.2947C17.2697 33.1353 17.4301 32.9809 17.6092 32.843C17.6363 32.8218 17.6534 33.0936 17.8055 32.8707C18.0513 32.5097 18.4492 32.1137 18.6181 31.614C18.6678 31.4653 18.4185 31.3014 18.7675 31.1341C18.8404 31.0989 19.0978 31.3635 19.0348 30.8807C19.025 30.7999 19.0038 30.0439 19.3963 29.9196C19.4997 29.8869 19.86 29.8613 19.9161 29.6813C19.9227 29.6563 19.7343 29.6571 19.7998 29.52C20.0356 29.0343 20.3331 28.5756 20.571 28.0803C20.634 27.9484 20.3803 28.0492 20.4786 27.8553C20.7488 27.3217 21.1642 26.7006 21.5021 26.2239C21.6271 26.048 21.6711 26.2456 21.6919 26.2396C22.029 26.1443 21.8198 25.8502 21.845 25.7684C21.8455 25.7669 21.846 25.7654 21.8465 25.7639C22.0082 25.2596 22.3375 24.9937 22.5393 24.5576C22.5954 24.4372 22.4129 24.4413 22.4138 24.4114C22.4303 24.1067 22.5741 24.4225 22.6865 24.2875C23.0022 23.9094 23.2562 23.4327 23.4768 22.9965C23.5576 22.8361 23.3006 22.9241 23.3753 22.7806C23.8169 21.9242 24.3034 21.0731 24.838 20.2937C24.9387 20.1476 25.009 20.3116 25.0546 20.2944C25.3718 20.1771 25.2783 19.7066 25.2926 19.6183C25.3577 19.2156 25.5368 19.1421 25.6751 18.8323C25.8059 18.5388 25.9506 18.2328 26.1012 17.9258C26.7294 16.6456 27.5168 15.2384 28.1208 14.1159C28.9178 12.634 29.6021 11.4456 30.268 10.0468C30.4049 9.75877 30.5359 9.47212 30.6794 9.14204C30.7298 9.02618 30.5079 9.06508 30.549 8.96452C31.0615 7.72563 31.6861 6.47513 32.1202 5.22314C32.1598 5.11079 31.9335 5.20552 31.9907 5.02462C32.1101 4.64334 32.2594 4.27008 32.4339 3.93858C32.519 3.77516 32.5827 4.05507 32.6649 3.89005C32.8474 3.54094 32.9934 3.07179 32.9928 2.9614C32.9934 2.92415 32.794 2.94916 32.8081 2.92044C32.914 2.95947 32.5381 2.9464 33.3474 3.68363C34.2943 4.20773 31.8715 3.77574 30.9124 3.82539C30.786 3.81845 30.6566 3.81082 30.5241 3.80236C30.4123 3.79442 30.2897 3.43573 30.0525 3.52516C30.0423 3.62802 30.0529 3.7472 30.0537 3.8562C29.0618 3.96108 28.0539 4.05866 27.053 4.15575C25.756 4.28217 24.4596 4.40972 23.1522 4.57757C23.0442 4.59144 22.9363 4.60558 22.8283 4.62002C22.726 4.63376 22.9299 4.80092 22.732 4.82852C21.5868 4.98888 20.4816 5.20893 19.2799 5.20047C19.2741 5.20045 19.2685 5.1996 19.2632 5.19801C19.1601 5.16718 19.15 4.85832 18.8318 4.95792C18.7732 4.97654 18.2673 5.10252 18.1411 5.19783C18.1247 5.21177 18.2443 5.35419 18.078 5.38538C17.1951 5.54865 16.2592 5.67237 15.3535 5.74233C15.2736 5.74852 15.1948 5.75416 15.1171 5.75923C14.9625 5.76897 15.096 5.57433 14.9859 5.57978C14.184 5.62323 13.3461 5.89804 12.5672 5.87817C12.0605 5.86185 12.1682 5.54494 11.872 5.30393C11.8169 5.27225 11.5157 5.31944 11.4644 5.15792C11.3469 4.74952 11.4243 4.2654 11.2826 3.83304C11.2236 3.74484 10.855 3.91775 11.0556 3.64314C11.0501 3.62809 11.3557 3.4942 11.4173 3.40253C11.466 3.33797 11.3295 3.18861 11.4388 3.09766C11.5246 3.01096 11.655 3.13337 11.8377 3.01717C11.9946 2.90456 11.8708 2.7287 12.2341 2.64179ZM10.9543 33.6925C10.6487 33.6147 10.7834 34.1991 11.0217 33.9769C11.0328 33.9656 10.9697 33.6962 10.9543 33.6925ZM44.3361 32.4474C44.0453 32.104 43.715 32.4269 43.9159 32.683C44.1135 32.939 44.4231 32.5516 44.3361 32.4474ZM47.9906 33.3581C47.9723 33.3392 47.9539 33.3238 47.9357 33.3114C47.6288 33.1061 47.3558 33.7631 47.7646 33.7856C47.7748 33.7862 47.7854 33.7864 47.7964 33.7863C47.8243 33.786 48.0099 33.3779 47.9906 33.3581ZM13.0921 5.00653C13.0852 4.99965 12.8616 5.03061 12.8596 5.03898C12.7737 5.24672 13.2188 5.185 13.0921 5.00653ZM51.5341 34.6186C51.4612 34.4562 51.0566 34.4141 51.1467 34.6135C51.218 34.7727 51.6233 34.8192 51.5341 34.6186ZM1.3522 42.1468C1.34455 42.154 1.39646 42.3067 1.44237 42.284C1.58648 42.2117 1.46777 42.0295 1.3522 42.1468ZM57.1344 37.7342C56.362 37.2092 56.2128 36.3015 57.0665 36.9196C57.2169 37.0299 56.6079 36.8978 56.7758 37.0764C57.0808 37.4013 57.5627 37.1853 57.8185 37.63C57.8632 37.7097 57.1769 37.7644 57.1325 37.7341C57.1331 37.7342 57.1337 37.7342 57.1344 37.7342ZM10.5968 33.0502C10.5885 33.0443 10.362 33.1064 10.3594 33.1157C10.2952 33.3342 10.7487 33.2098 10.5968 33.0502ZM9.06378 45.9609C9.08149 45.9752 9.54392 45.6893 9.55136 45.6599C9.59965 45.2576 8.69813 45.816 9.06378 45.9609ZM25.5296 29.9996C25.7697 29.7861 26.0711 29.7377 26.2817 29.9611C26.0298 29.9694 25.7787 29.9892 25.5296 29.9996ZM51.6211 21.9166C51.6487 22.1302 51.5615 22.3938 51.4612 22.5883C51.43 22.6493 51.3286 22.6044 51.3023 22.6459C51.2511 22.7269 51.2931 22.8131 51.2341 22.8917C51.214 22.9177 51.0515 22.8626 51.0343 22.8903C50.9415 23.0388 50.9642 23.2057 50.9083 23.3663C50.633 24.1558 50.4656 24.9518 50.2764 25.7547C50.2141 26.0204 50.0153 26.3348 50.0406 26.6219C50.0437 26.6556 50.1924 26.6575 50.2035 26.6655C50.3733 26.7897 50.0836 26.7142 50.0352 26.7716C49.8437 26.9999 49.7889 27.2721 49.8068 27.5288C49.8069 27.5304 49.8071 27.5319 49.8073 27.5333C49.8236 27.6349 50.118 27.5783 49.9419 27.6567C49.9298 27.6622 49.7792 27.6118 49.7583 27.6377C49.7112 27.6965 49.7197 27.8227 49.6996 27.8705C49.6601 27.9623 49.6592 27.9783 49.643 28.0682C49.6196 28.1909 49.5192 28.3243 49.5328 28.4608C49.5362 28.49 49.7006 28.479 49.7202 28.528C49.7398 28.577 49.7062 28.6972 49.6621 28.7316C49.618 28.7662 49.4964 28.7281 49.4667 28.7305C49.2162 28.7496 49.5261 28.9446 49.5313 28.964C49.6163 29.3148 49.3786 29.5574 49.325 29.8593C49.2838 30.0938 49.3006 30.3537 49.2507 30.5713C49.1902 30.8325 49.0639 31.0277 49.0268 31.2916C49.0228 31.3189 49.2141 31.324 49.2096 31.3575C49.161 31.714 49.07 32.0522 48.8713 32.3705C48.8511 32.4029 48.6989 32.3228 48.669 32.353C48.4898 32.5397 48.0969 32.7993 48.7717 33.0838C48.7117 33.221 48.6438 33.3854 48.4719 33.4809C48.3772 33.5339 48.2489 33.452 48.2457 33.5023C48.2451 33.5108 48.2482 33.523 48.2555 33.5403C48.2667 33.5672 48.4276 33.5738 48.4328 33.6115C48.4545 33.7706 48.3663 33.9166 48.4105 34.0784C48.4199 34.1115 48.5593 34.1375 48.582 34.1518C48.7654 34.2709 48.4054 34.3034 48.3751 34.3219C48.1482 34.4657 48.1835 34.6213 48.1321 34.7999C48.1201 34.8411 48.317 34.8403 48.3121 34.8817C48.284 35.0959 48.2107 35.3051 48.0742 35.482C48.0435 35.5212 47.8986 35.4372 47.8759 35.4537C47.7777 35.5265 48.0668 35.6291 47.9779 35.7009C47.9595 35.7165 47.829 35.668 47.8134 35.6674C47.5679 35.6569 47.8804 35.7965 47.8836 35.8127C47.931 36.0189 47.5585 36.033 47.5568 36.2156C47.5568 36.2376 47.7387 36.2418 47.7286 36.3008C47.6637 36.6898 47.4899 37.0848 47.2347 37.4111C47.1952 37.462 47.0836 37.3796 47.0669 37.3782C46.8064 37.3574 47.1169 37.5021 47.1227 37.525C47.1612 37.7016 46.844 37.748 47.1922 37.9814C46.9111 38.4511 46.8446 38.9915 46.5241 39.4388C46.4455 39.5481 46.3524 39.6495 46.2367 39.7432C46.2297 39.7494 46.0802 39.6722 46.0668 39.6848C45.9035 39.8348 46.1592 39.8976 46.4014 40.1444C46.462 40.2069 46.0678 40.1521 46.0384 40.149C45.93 40.1386 45.7137 40.01 45.691 40.0122C45.5105 40.0328 46.2747 40.3427 46.226 40.4567C46.2232 40.4597 46.0903 40.3848 46.0723 40.3883C46.0162 40.3989 46.0589 40.452 45.9985 40.4599C45.859 40.4775 45.4823 40.3392 45.652 40.532C45.674 40.5569 46.1107 40.7262 46.0452 40.819C46.0189 40.8558 45.9457 41.0374 45.8952 41.0744C45.8449 41.1114 45.7236 41.0145 45.716 41.0153C45.474 41.0647 45.4221 40.9797 45.1241 40.9211C44.8275 40.8618 45.4712 41.1402 45.5294 41.2003C45.5875 41.2605 45.3932 41.287 45.3304 41.2858C45.2676 41.2848 45.195 41.2144 45.1559 41.2214C44.8996 41.2678 45.441 41.4319 45.5194 41.5258C45.7046 41.7486 45.195 41.6078 45.1013 41.6826C45.0758 41.7031 45.1927 41.7338 45.1909 41.7624C45.1821 41.8755 45.009 41.859 45.088 42.0323C45.101 42.0603 45.3353 42.2891 45.1025 42.2402C45.069 42.2329 44.9653 42.1514 44.9191 42.1777C44.8499 42.217 44.7698 42.3096 44.7748 42.3929C44.7784 42.4547 44.9956 42.5005 44.9057 42.5288C44.8656 42.5411 44.781 42.4341 44.715 42.4621C44.6492 42.4898 44.5875 42.6166 44.5656 42.6658C44.5439 42.7149 44.7002 42.7665 44.7077 42.7755C44.7502 42.8284 44.7689 42.9569 44.7642 42.9649C44.5577 43.3813 44.1084 43.6115 43.9528 44.0392C43.9403 44.0727 44.0981 44.142 44.0977 44.148C44.0952 44.2887 43.7584 43.9698 43.5853 43.961C43.8864 44.1328 43.8071 44.142 43.7946 44.2339C43.7887 44.2783 43.9142 44.3306 43.9239 44.3411C44.0643 44.501 43.8186 44.397 43.7674 44.3773C43.5786 44.3054 43.753 44.4674 43.6265 44.4194C43.5011 44.3717 43.3702 44.2147 43.3291 44.2837C43.4214 44.3696 43.7271 44.4933 43.7381 44.5737C43.7551 44.6988 43.6881 44.8119 43.5943 44.9104C43.4599 45.0517 43.2718 45.1613 43.1968 45.2433C43.0695 45.3825 43.0535 45.445 42.9543 45.5085C42.7748 45.6226 43.0128 45.7024 43.0308 45.8668C43.048 46.0318 42.6026 45.6374 42.489 45.5775C42.3758 45.5171 42.4711 45.6088 42.402 45.5851C42.333 45.5613 42.2896 45.4737 42.2393 45.4985C42.1895 45.5227 42.2928 45.7649 42.3892 45.8581C42.594 46.0553 42.8692 46.1805 42.7058 46.2268C42.6963 46.2293 42.5861 46.1167 42.556 46.1309C42.3211 46.2467 42.1687 46.4349 41.9421 46.5532C41.9109 46.569 41.7919 46.4403 41.7722 46.4482C41.5676 46.5299 41.8394 46.6562 42.0277 46.9408C41.7042 46.6542 41.4616 46.5358 41.3696 46.6464C41.3139 46.7129 41.4699 46.8196 41.5374 46.9473C41.5578 46.9858 41.4182 46.9524 41.4797 47.0171C41.6805 47.2292 41.9694 47.3885 41.7721 47.4253C41.7631 47.4266 41.6542 47.3094 41.632 47.3211C41.4888 47.396 41.7093 47.6048 41.6338 47.7518C41.5742 47.8676 41.2871 47.9193 41.1698 48.008C40.8054 47.6879 40.8015 47.8615 41.0158 48.1241C40.9437 48.1853 40.89 48.2744 40.7955 48.3105C40.7632 48.3229 40.6721 48.2141 40.6582 48.2069C40.4417 48.0918 40.6568 48.3391 40.6528 48.3626C40.5989 48.6071 40.2978 48.5699 40.3314 48.8867C40.3327 48.898 40.5701 49.1375 40.3522 49.01C40.3375 49.001 40.2731 48.8457 40.1971 48.9092C40.1201 48.9736 39.8634 48.9812 39.8825 49.1859C39.8871 49.2353 40.0252 49.4858 39.8255 49.3843C39.7985 49.3704 39.7362 49.2959 39.6888 49.2675C39.5376 49.177 39.7649 49.4316 39.5245 49.2634C39.3321 49.1287 39.1503 49.0494 39.1093 49.1444C39.0991 49.1681 39.0975 49.2025 39.1065 49.2498C39.1076 49.2569 39.2757 49.4706 39.2421 49.498C39.1887 49.5412 39.0785 49.5711 39.0304 49.6209C39.007 49.6451 39.1398 49.7497 39.1378 49.7559C39.0405 49.9827 38.8188 49.9892 38.5958 50.1115C38.555 50.1335 38.6167 50.3896 38.4286 50.318C38.2236 50.2387 37.7322 49.572 37.7093 49.8608C37.7005 49.9757 38.3239 50.821 37.8416 50.5284C37.7052 50.8334 37.3012 50.8219 37.1998 51.1638C37.195 51.1792 37.3531 51.4279 37.3257 51.4463C37.2847 51.4733 37.1755 51.3876 37.1435 51.4034C37.007 51.4668 36.9812 51.642 36.8614 51.7196C36.8161 51.7493 36.7396 51.6296 36.6856 51.6647C36.6318 51.6999 36.7181 51.8696 36.5937 51.8568C36.5006 51.8456 36.2093 51.5949 36.1162 51.6146C36.352 51.9047 36.3022 51.9361 36.284 52.0787C36.2806 52.1063 36.3798 52.1931 36.3825 52.2114C36.395 52.2879 36.2987 52.2273 36.3163 52.3072C36.3204 52.3265 36.4009 52.4256 36.4088 52.447C36.4789 52.6326 36.2168 52.4754 36.1716 52.4476C35.9991 52.3429 36.0788 52.4921 35.9909 52.4668C35.9033 52.4414 35.9055 52.3196 35.8296 52.3224C35.6733 52.3277 35.5556 52.448 35.4555 52.5196C35.4152 52.5495 35.5477 52.6619 35.5444 52.6693C35.4894 52.7679 35.2945 52.6904 35.4578 52.9936C34.8601 52.3467 35.4606 53.0996 35.2332 53.0537C35.215 53.0498 34.949 52.7309 34.9473 52.6551C34.9456 52.5793 35.0794 52.6396 35.0701 52.5263C35.0682 52.4995 34.8947 52.1414 34.8889 52.1159C34.8453 51.916 35.239 52.3955 35.2639 52.4192C35.5342 52.6744 35.3552 52.2816 35.358 52.2424C35.3738 52.0604 35.5124 52.0612 35.5348 51.9217C35.5499 51.8309 35.2997 51.5106 35.3489 51.4869C35.5115 51.408 35.9191 51.807 35.7353 51.3218C35.6961 51.2183 35.3865 50.8981 35.706 51.0871C35.726 51.0991 36.0024 51.2849 35.9147 51.0949C35.9036 51.071 35.8205 50.9717 35.8204 50.9577C35.8217 50.865 35.9197 50.9174 35.9389 50.8369C35.9581 50.7562 35.9714 50.6486 36.0573 50.6333C36.1088 50.624 36.3097 50.7696 36.3647 50.8003C36.5223 50.8893 36.3908 50.6347 36.5539 50.7661C36.7182 50.8976 36.8657 51.1855 37.0304 51.2201C36.8136 50.9631 36.5946 50.6962 36.378 50.4364C36.551 50.3026 36.7829 50.2439 36.9407 50.0832C36.9598 50.0633 36.8185 49.9471 36.8357 49.9224C36.9088 49.8186 37.0751 49.8421 37.135 49.7183C37.1809 49.6219 37.1307 49.4083 37.1725 49.3041C37.4784 49.5453 37.5036 49.3436 37.6091 49.2926C37.646 49.2745 37.7145 49.3511 37.7579 49.3563C37.9199 49.3738 37.6501 49.1609 37.6342 49.1023C37.5656 48.8524 38.1044 49.4022 38.1972 49.2866C38.2025 49.2805 37.9851 48.9201 37.9763 48.893C37.9188 48.7167 38.0854 48.9861 38.1433 48.9722C38.249 48.9466 38.3638 48.9713 38.3581 48.8081C38.3565 48.7597 38.2314 48.5238 38.4153 48.6197C38.4394 48.6322 38.5319 48.7314 38.5423 48.7323C38.6226 48.7359 38.6068 48.6769 38.5599 48.5974C38.5022 48.4994 38.3974 48.3701 38.3672 48.2874C38.3123 48.1379 38.595 48.2698 38.6708 48.3136C38.8668 48.4268 38.7076 48.4099 38.7208 48.4271C38.8783 48.6322 38.9012 48.546 38.958 48.5188C39.2629 48.8046 39.3034 48.727 39.0157 48.4894C38.9842 48.4635 38.98 48.5237 38.958 48.5188C38.7012 48.1952 38.7247 48.0957 39.0697 48.2896C39.2314 48.3803 39.352 48.5572 39.3953 48.401C39.4158 48.3294 39.1899 48.1496 39.1725 48.0539C39.1326 47.8361 39.444 47.896 39.5044 47.7681C39.5261 47.7218 39.3782 47.65 39.3889 47.6148C39.4168 47.5214 39.5562 47.544 39.5704 47.4381C39.5715 47.4284 39.4364 47.3321 39.453 47.3106C39.575 47.1471 39.7769 47.0788 39.9208 46.9177C39.9908 46.8394 40.043 46.6389 40.126 46.5688C40.2681 46.4486 40.603 46.4196 40.6591 46.2579C40.6962 46.1528 40.5533 46.0672 40.4938 45.9621C40.3775 45.7595 40.7763 45.8842 40.8368 45.9049C40.8389 45.9056 40.8136 46.0001 40.9097 46.0151C41.0654 46.1025 40.8369 45.9061 40.8368 45.9049C40.876 45.9185 41.0157 45.8009 41.013 45.7527C41.0114 45.7267 40.8812 45.6396 40.8827 45.6279C40.9193 45.3524 41.0299 45.1399 41.2312 44.9891C41.2362 44.9875 41.3733 45.0961 41.3835 45.0911C41.5291 45.0238 41.4091 44.8247 41.3726 44.6575C41.3362 44.4902 41.4223 44.4415 41.7075 44.557C41.7265 44.464 41.9065 44.4365 42.0139 44.4218C42.1213 44.4071 41.8455 44.2077 41.8434 44.1988C41.7934 43.9914 41.9002 43.9437 42.0155 43.8716C42.0573 43.8454 42.1003 43.8159 42.1368 43.7746C42.2026 43.7012 42.2651 43.512 42.2892 43.4034C42.3079 43.3174 42.402 43.3171 42.3989 43.2251C42.3986 43.2128 42.2643 43.1421 42.261 43.1363C42.1512 42.9692 42.4451 43.1979 42.5106 43.2175C42.749 43.2888 42.8797 43.3206 42.8403 43.1672C42.8315 43.1316 42.4125 42.7941 42.4088 42.7394C42.4051 42.6684 42.5579 42.7852 42.5498 42.708C42.5493 42.7014 42.4473 42.6424 42.4712 42.6121C42.5807 42.4708 42.7371 42.3364 42.8173 42.1693C42.8286 42.1467 42.6498 42.0834 42.6634 42.0494C42.7272 41.8901 42.8224 41.7304 42.9781 41.6246C43.0169 41.5988 43.1203 41.6831 43.1588 41.6935C43.3925 41.7551 43.1272 41.5257 43.1272 41.5117C43.1226 41.1671 43.5041 41.0984 43.5102 40.7508C43.5103 40.731 43.2369 40.4551 43.5449 40.539C43.5654 40.5447 43.8806 40.6307 43.7039 40.4901C43.6929 40.4814 43.528 40.4429 43.57 40.3937C43.612 40.3442 43.5543 40.2068 43.7555 40.2047C43.8188 40.2042 44.1377 40.2783 43.9392 40.0973C43.9256 40.0843 43.4504 39.7326 43.8324 39.8549C43.8953 39.875 44.2775 40.0541 44.12 39.8758C44.0892 39.8418 43.9895 39.8345 43.9555 39.7661C43.9028 39.6613 44.0462 39.6155 43.9101 39.4564C43.886 39.4283 43.6495 39.2534 43.8707 39.2886C43.9054 39.2941 44.0286 39.3643 44.0545 39.3437C44.1782 39.2459 44.1471 39.0758 44.2908 38.9819C44.3414 38.9484 44.5426 39.0582 44.619 39.0323C44.6952 39.0069 44.7891 38.9307 44.7127 38.8412C44.6361 38.7519 44.277 38.6731 44.2798 38.5871C44.2802 38.5761 44.2808 38.5652 44.2817 38.5543C44.3099 38.2009 44.6199 37.9488 44.7636 37.638C44.7857 37.5901 44.6488 37.5873 44.6725 37.5137C44.7604 37.241 44.8029 36.7359 45.1408 36.586C45.4129 36.4633 45.4952 36.7558 45.6281 36.6367C45.692 36.5784 45.3144 36.3733 45.3071 36.3524C45.2311 36.1456 45.4464 36.0821 45.4366 35.9176C45.4346 35.8834 45.2618 35.8638 45.2619 35.8352C45.2606 35.7375 45.362 35.6652 45.3741 35.5751C45.3792 35.5345 45.2518 35.5046 45.272 35.472C45.3187 35.3934 45.3934 35.3334 45.5352 35.2834C45.5482 35.2788 45.6894 35.3756 45.7136 35.3133C45.7521 35.2133 45.906 35.1134 45.8181 34.964C45.7917 34.9189 45.5044 34.8379 45.7239 34.8178C45.7697 34.8136 46.1098 34.9289 45.8353 34.7588C45.7899 34.73 45.4268 34.4736 45.7062 34.471C45.7798 34.4703 46.0764 34.4968 46.0432 34.442C46.0377 34.4343 45.8765 34.4163 45.8708 34.3769C45.8533 34.2389 45.9041 34.1119 45.8887 33.9699C45.8841 33.9328 45.7105 33.9417 45.7086 33.8878C45.7033 33.7398 45.7877 33.5772 45.8718 33.4526C45.9031 33.4068 46.028 33.4745 46.0434 33.4744C46.2943 33.473 45.9839 33.3596 45.9701 33.3356C45.8884 33.1861 46.0609 33.1285 46.0483 33.0047C46.0452 32.9707 45.8875 32.957 45.8754 32.9475C45.872 32.9447 45.8688 32.9421 45.866 32.9396C45.7731 32.8578 46.0214 32.9633 46.0601 32.9302C46.1728 32.8343 46.1894 32.7071 46.1964 32.5869C46.1987 32.5429 46.0108 32.55 46.0149 32.5111C46.0355 32.2799 46.1046 32.0486 46.2507 31.8457C46.2785 31.8076 46.4095 31.8635 46.4426 31.8615C46.6743 31.8469 46.395 31.6953 46.3708 31.6697C46.2604 31.5513 46.3888 31.5415 46.3832 31.4559C46.3527 31.0416 46.5338 30.5499 46.6531 30.1912C46.8097 29.7139 47.0118 29.3421 47.0584 28.8701C47.0616 28.8397 46.8731 28.8384 46.8735 28.8118C46.8863 28.4736 47.0154 28.1407 47.015 27.8056C47.0154 27.7776 46.8349 27.789 46.8297 27.7431C46.8177 27.6489 46.8454 27.536 46.9155 27.4529C46.9494 27.4123 47.0893 27.496 47.1204 27.4546C47.193 27.3582 47.2231 27.2467 47.212 27.1332C47.212 27.133 47.212 27.1327 47.2119 27.1325C47.2049 27.0854 47.0179 27.1271 47.0252 27.0668C47.0714 26.6492 47.0979 26.2588 47.3892 25.8729C47.4091 25.8467 47.7755 25.8735 47.7147 25.8025C47.6146 25.7836 47.4961 25.767 47.3888 25.7496C47.416 25.1431 47.6209 24.5766 47.7193 23.9712C47.7233 23.9463 47.5252 23.9645 47.5319 23.9162C47.5711 23.6366 47.5525 23.3556 47.7805 23.0871C47.8028 23.0604 48.14 23.1175 48.0993 23.0253C48.0919 23.009 48.0627 22.8739 47.9932 22.8312C47.9826 22.8253 47.8215 22.8295 47.822 22.7871C47.828 22.5398 47.8934 22.3016 48.0188 22.0724C48.0393 22.0357 48.2031 22.0969 48.2191 22.0709C48.3319 21.8863 48.2288 21.6574 48.4039 21.486C48.5218 21.3712 48.8079 21.4519 49.1028 21.4175C49.1444 21.4126 49.1599 21.3343 49.3274 21.3494C49.7485 21.3872 50.2039 21.4787 50.6534 21.5144C50.7502 21.5222 50.6586 21.4035 50.8843 21.4935C50.8994 21.4998 50.9678 21.586 51.0447 21.6142C51.0978 21.6338 51.2704 21.6295 51.3372 21.6646C51.4039 21.6998 51.2581 21.713 51.3351 21.7673C51.4131 21.8217 51.6086 21.8245 51.6211 21.9166ZM42.4957 44.3503C42.6697 44.3836 42.1762 44.0453 42.2553 44.185C42.2597 44.1922 42.4871 44.3488 42.4957 44.3503ZM37.0814 50.5814C37.3246 50.7186 37.1136 50.3871 36.9307 50.277C36.7485 50.1665 37.0079 50.5396 37.0814 50.5814ZM36.5002 51.3373C36.7162 51.4271 36.1799 50.7697 36.2048 50.9733C36.206 50.9849 36.4877 51.332 36.5002 51.3373ZM49.1481 21.74C49.1561 21.74 49.1704 21.6845 49.1627 21.6822C48.9775 21.6302 48.9491 21.7411 49.1481 21.74ZM35.9158 52.0931C36.014 52.1612 36.0045 51.9981 35.8824 51.9135C35.7845 51.8453 35.7938 52.0082 35.9158 52.0931ZM44.8381 41.556C44.8466 41.559 44.8717 41.5262 44.8261 41.5047C44.6793 41.4356 44.6956 41.506 44.8381 41.556ZM34.6688 53.0855C34.8764 52.9672 35.4191 53.4333 35.1639 53.5297C35.1178 53.5471 35.1087 53.2905 35.0226 53.2769C34.8659 53.252 35.0744 53.6463 34.8418 53.5269C34.7997 53.5047 34.6563 53.0908 34.6686 53.0844C34.6687 53.0848 34.6688 53.0851 34.6688 53.0855ZM43.1163 44.7147C43.1236 44.7179 43.1609 44.6752 43.1551 44.6697C43.0132 44.5399 42.9386 44.6252 43.1163 44.7147ZM46.142 39.5414C46.1588 39.5449 46.222 39.4294 46.2091 39.4197C45.9456 39.2423 45.8181 39.4729 46.142 39.5414ZM41.1586 48.0013C41.262 48.1735 41.2291 48.2453 41.0162 48.124C41.0666 48.086 41.109 48.0404 41.1586 48.0013Z" fill="black"/>
</svg>
