<svg width="45" height="59" viewBox="0 0 45 59" fill="none" xmlns="http://www.w3.org/2000/svg">
<path d="M1.19 13.5121C1.34221 13.4544 1.54624 13.5028 1.70253 13.5736C1.75151 13.5956 1.731 13.7024 1.76498 13.7223C1.83144 13.7612 1.89006 13.707 1.95604 13.7537C1.97792 13.7697 1.95755 13.9385 1.98035 13.9515C2.10529 14.0212 2.21938 13.9742 2.3445 14.0054C2.96085 14.1592 3.5627 14.2004 4.18288 14.2544C4.38737 14.2721 4.64038 14.4154 4.84823 14.3412C4.87249 14.3323 4.8525 14.1856 4.85672 14.1733C4.92322 13.9847 4.90967 14.283 4.95894 14.3208C5.15443 14.4699 5.36601 14.4757 5.54662 14.4123C5.54771 14.4119 5.54877 14.4114 5.54979 14.4109C5.62097 14.3767 5.53608 14.0974 5.61911 14.2564C5.62495 14.2673 5.61091 14.4245 5.63283 14.4404C5.68253 14.4762 5.77322 14.4449 5.81113 14.4559C5.88422 14.4779 5.89611 14.4759 5.96446 14.4752C6.05795 14.4756 6.17181 14.5494 6.27068 14.5103C6.29176 14.5015 6.25763 14.3421 6.29073 14.3136C6.32387 14.2851 6.41464 14.2954 6.44645 14.3321C6.47827 14.3689 6.46989 14.4954 6.47633 14.5241C6.52951 14.7663 6.62166 14.4248 6.63479 14.4159C6.8746 14.2647 7.09168 14.4495 7.32162 14.4405C7.49616 14.4334 7.68052 14.3631 7.84695 14.3657C8.04525 14.3695 8.21613 14.4503 8.40785 14.4284C8.42809 14.4263 8.39745 14.2386 8.42216 14.2356C8.68465 14.2041 8.94685 14.2152 9.21363 14.3329C9.24039 14.3449 9.21252 14.5116 9.23962 14.5335C9.40538 14.6637 9.67172 14.9812 9.74102 14.257C9.85098 14.2812 9.98428 14.3055 10.087 14.4472C10.1437 14.5253 10.112 14.6702 10.1483 14.6605C10.1544 14.6588 10.1624 14.6528 10.1732 14.6413C10.19 14.6235 10.1616 14.4664 10.1872 14.4517C10.295 14.3898 10.4169 14.4368 10.5227 14.3513C10.5442 14.3335 10.533 14.1922 10.5384 14.1665C10.5835 13.9582 10.6836 14.2962 10.7036 14.3203C10.8559 14.4998 10.9595 14.4232 11.0953 14.4228C11.1268 14.4228 11.0827 14.234 11.1127 14.2272C11.2688 14.1942 11.432 14.2047 11.5888 14.2834C11.6237 14.3014 11.5982 14.4644 11.6152 14.4813C11.69 14.5538 11.6948 14.2474 11.7663 14.3109C11.7814 14.3239 11.7782 14.4628 11.7814 14.478C11.8317 14.7154 11.8555 14.3755 11.866 14.3676C11.9976 14.2606 12.097 14.6109 12.2259 14.5561C12.2413 14.5492 12.1996 14.3751 12.2433 14.3664C12.5345 14.3073 12.846 14.3442 13.1411 14.474C13.1869 14.4939 13.1595 14.6268 13.163 14.643C13.2184 14.895 13.236 14.5539 13.2502 14.5406C13.3628 14.4442 13.4815 14.7254 13.5456 14.3176C13.9437 14.416 14.3318 14.2776 14.7281 14.3973C14.8257 14.4268 14.9237 14.472 15.0226 14.5402C15.0289 14.5441 15.0239 14.712 15.0366 14.7192C15.1887 14.8078 15.1507 14.5486 15.2376 14.2267C15.2594 14.1459 15.3488 14.5274 15.3565 14.5554C15.3846 14.6583 15.3685 14.9083 15.3774 14.9282C15.4505 15.0836 15.4095 14.2601 15.5004 14.2565C15.5033 14.2578 15.4969 14.4098 15.5051 14.4246C15.5305 14.4711 15.5518 14.41 15.5769 14.4614C15.6343 14.5802 15.6678 14.9799 15.7404 14.7439C15.7496 14.7133 15.7169 14.2465 15.7989 14.2657C15.8315 14.2737 15.9744 14.2605 16.0157 14.2893C16.0569 14.3181 16.0348 14.4697 16.0379 14.4761C16.1532 14.6713 16.1152 14.7554 16.18 15.0482C16.2448 15.34 16.2044 14.64 16.2236 14.561C16.2428 14.4822 16.328 14.6436 16.3495 14.7C16.3711 14.7565 16.3503 14.8531 16.3687 14.8848C16.4911 15.0919 16.4064 14.5352 16.4402 14.4226C16.5197 14.1561 16.608 14.6731 16.6914 14.7211C16.7139 14.734 16.6916 14.6164 16.7109 14.6046C16.7872 14.5595 16.8399 14.7199 16.923 14.568C16.9366 14.5433 16.9968 14.2283 17.0515 14.4559C17.0592 14.4887 17.0453 14.6188 17.0795 14.6466C17.1307 14.6883 17.221 14.7134 17.2726 14.6682C17.3108 14.6347 17.258 14.423 17.3099 14.4875C17.333 14.5163 17.2967 14.6426 17.3397 14.6863C17.3824 14.7299 17.4873 14.7206 17.5272 14.7149C17.5669 14.709 17.5392 14.548 17.542 14.537C17.5593 14.4738 17.6331 14.393 17.6398 14.3929C17.9806 14.3608 18.3055 14.6221 18.6347 14.5197C18.6605 14.5119 18.637 14.3419 18.6408 14.339C18.7276 14.2642 18.6736 14.7205 18.7416 14.8701C18.7199 14.5241 18.7591 14.5855 18.8206 14.5452C18.8503 14.5255 18.8289 14.392 18.8311 14.3782C18.8687 14.1729 18.9096 14.4348 18.9196 14.4883C18.9566 14.6852 18.9805 14.4501 19.0055 14.5817C19.0306 14.7123 18.991 14.9087 19.0513 14.904C19.0637 14.7794 19.0071 14.4571 19.051 14.4029C19.1192 14.3186 19.2155 14.3101 19.3151 14.3307C19.4574 14.3602 19.6062 14.4493 19.6886 14.4619C19.8283 14.4832 19.8722 14.4587 19.9547 14.5005C20.1037 14.5762 20.0414 14.3378 20.1281 14.2245C20.215 14.1112 20.1923 14.7042 20.21 14.8308C20.2274 14.9574 20.2367 14.8261 20.2552 14.8954C20.2736 14.9647 20.2424 15.0523 20.2807 15.0772C20.3191 15.102 20.4132 14.8723 20.4217 14.7389C20.4395 14.4562 20.3826 14.1623 20.4855 14.2626C20.4914 14.2686 20.4785 14.4247 20.5009 14.4396C20.6785 14.553 20.8588 14.5539 21.0357 14.6535C21.06 14.6674 21.0451 14.8412 21.0593 14.8513C21.2075 14.9567 21.1454 14.6669 21.2126 14.34C21.2106 14.7718 21.2639 15.034 21.3734 15.0326C21.4393 15.0319 21.4211 14.844 21.4589 14.7097C21.4702 14.6692 21.5214 14.7968 21.5267 14.708C21.544 14.4174 21.4883 14.095 21.6059 14.2199C21.611 14.2259 21.601 14.3849 21.6185 14.3939C21.7314 14.4527 21.7336 14.1494 21.8518 14.1083C21.9445 14.0762 22.1178 14.2548 22.2256 14.2809C22.241 14.7658 22.3378 14.6511 22.3665 14.3154C22.4362 14.3265 22.5103 14.3049 22.5789 14.3487C22.6025 14.3636 22.5925 14.5045 22.596 14.5196C22.6492 14.7558 22.6674 14.4296 22.6819 14.4163C22.8394 14.2865 22.9804 14.5281 23.1262 14.2816C23.1314 14.2728 23.128 13.9357 23.1783 14.1801C23.1816 14.1969 23.1361 14.352 23.2092 14.3612C23.2824 14.3704 23.4261 14.546 23.5214 14.3862C23.5445 14.3478 23.5963 14.0722 23.6537 14.284C23.6614 14.3127 23.6576 14.4096 23.6691 14.463C23.7062 14.6331 23.7107 14.2921 23.7574 14.5799C23.7949 14.8104 23.8557 14.9935 23.9271 14.9529C23.9448 14.9428 23.9632 14.9188 23.982 14.8784C23.9851 14.8724 23.9994 14.6018 24.0315 14.6049C24.0829 14.6101 24.1575 14.6636 24.2109 14.6599C24.2364 14.6581 24.2139 14.4912 24.2183 14.4879C24.3867 14.3878 24.5144 14.5327 24.7009 14.5908C24.7351 14.6018 24.8238 14.3699 24.8957 14.5481C24.9746 14.7432 24.9308 15.5682 25.0886 15.3663C25.1522 15.2855 25.1985 14.2391 25.3377 14.7753C25.5646 14.6329 25.789 14.9018 26.0145 14.7021C26.0247 14.6932 26.0471 14.4008 26.0718 14.4039C26.1086 14.409 26.1335 14.5444 26.1599 14.5524C26.2706 14.5895 26.3662 14.4694 26.4721 14.4837C26.5123 14.4888 26.5035 14.63 26.5514 14.6362C26.5993 14.6422 26.6243 14.4557 26.6921 14.5428C26.7434 14.6093 26.8059 14.9863 26.8722 15.0281C26.8611 14.6544 26.9058 14.6605 26.9812 14.559C26.9957 14.5393 26.9746 14.4098 26.9813 14.3938C27.008 14.3257 27.039 14.4325 27.0641 14.3586C27.0702 14.3408 27.0659 14.2132 27.0706 14.1915C27.1107 14.0019 27.1985 14.286 27.2136 14.3355C27.2714 14.5235 27.2891 14.3566 27.3309 14.43C27.3726 14.5033 27.3177 14.5988 27.3649 14.6425C27.4627 14.7328 27.5832 14.7078 27.6792 14.7102C27.7175 14.7104 27.6852 14.541 27.6906 14.5371C27.7681 14.491 27.8546 14.6693 27.8861 14.3284C27.9729 15.2036 27.9307 14.2416 28.0501 14.4131C28.0596 14.427 28.086 14.8414 28.054 14.9035C28.022 14.9656 27.9655 14.8378 27.9215 14.9345C27.9111 14.9571 27.8609 15.3482 27.853 15.3721C27.7909 15.5586 27.7586 14.9391 27.7537 14.9051C27.6991 14.5392 27.6357 14.9608 27.6161 14.9905C27.5262 15.1265 27.4426 15.0423 27.3668 15.1398C27.3172 15.2029 27.3269 15.6091 27.2858 15.5981C27.149 15.562 27.0812 14.9973 26.9716 15.493C26.9481 15.5988 26.9914 16.0416 26.8808 15.6962C26.8739 15.6744 26.7896 15.3578 26.7549 15.5613C26.7506 15.5869 26.7554 15.7162 26.7489 15.7274C26.7048 15.7993 26.6699 15.6974 26.621 15.7486C26.572 15.7998 26.5136 15.8756 26.454 15.8338C26.4181 15.8089 26.3645 15.5695 26.3456 15.5112C26.2922 15.3429 26.2517 15.6234 26.2149 15.4187C26.1779 15.2129 26.2242 14.8967 26.1419 14.7659C26.1513 15.102 26.1573 15.4471 26.1649 15.7852C25.9949 15.7796 25.8241 15.677 25.6545 15.698C25.6335 15.701 25.6616 15.8808 25.6393 15.8886C25.5449 15.9208 25.4569 15.7951 25.3598 15.8499C25.2847 15.8931 25.2077 16.0874 25.1293 16.1385C25.0664 15.7558 24.9524 15.8907 24.8648 15.8587C24.8341 15.8476 24.8324 15.7448 24.8096 15.7121C24.724 15.5912 24.7744 15.9296 24.7541 15.9839C24.6669 16.2155 24.6308 15.4467 24.519 15.4698C24.5131 15.4708 24.4551 15.8834 24.446 15.9093C24.3883 16.0781 24.4303 15.767 24.3893 15.7382C24.3144 15.6855 24.2602 15.5894 24.1791 15.7126C24.1554 15.749 24.1049 16.0067 24.0494 15.8109C24.042 15.7852 24.0406 15.6496 24.0352 15.6418C23.9915 15.5841 23.97 15.6377 23.9552 15.7277C23.9371 15.8384 23.9293 16.0043 23.9029 16.0849C23.8551 16.231 23.7625 15.9401 23.7428 15.856C23.6912 15.6384 23.7728 15.7611 23.7744 15.7395C23.7928 15.4826 23.7347 15.5288 23.6883 15.5088C23.6665 15.0916 23.6036 15.119 23.6402 15.4898C23.6443 15.5303 23.6784 15.4901 23.6883 15.5088C23.6631 15.9199 23.5949 15.9749 23.5035 15.595C23.4607 15.4169 23.4874 15.2065 23.38 15.287C23.3312 15.3233 23.361 15.6101 23.3197 15.6901C23.2254 15.8726 23.0847 15.6092 22.9823 15.6552C22.9452 15.6719 22.9876 15.8279 22.9624 15.8448C22.8956 15.89 22.831 15.7741 22.7645 15.8371C22.7585 15.843 22.7796 16.0071 22.7584 16.01C22.5971 16.035 22.4522 15.9347 22.283 15.9379C22.2013 15.9395 22.0585 16.0357 21.9732 16.0205C21.8254 15.9951 21.6363 15.7622 21.5131 15.8249C21.4327 15.8651 21.4566 16.0292 21.4257 16.1427C21.366 16.3628 21.2322 15.9774 21.2139 15.9176C21.2134 15.9157 21.2823 15.8743 21.2417 15.7911C21.2134 15.6156 21.2147 15.9168 21.2139 15.9176C21.2019 15.879 21.0601 15.8467 21.0333 15.8792C21.0188 15.897 21.0329 16.0528 21.0253 16.0591C20.8425 16.2056 20.6557 16.2521 20.4625 16.1861C20.4591 16.183 20.4578 16.0083 20.4497 16.0033C20.3366 15.9297 20.2737 16.1459 20.1873 16.276C20.101 16.406 20.0273 16.3662 19.9626 16.0684C19.8953 16.1087 19.792 15.9797 19.7324 15.9014C19.6728 15.823 19.6773 16.1632 19.6726 16.1701C19.5643 16.3319 19.4833 16.2723 19.3837 16.2193C19.3475 16.2 19.3088 16.1816 19.2655 16.1751C19.1882 16.1629 19.0379 16.2178 18.9562 16.258C18.8917 16.2903 18.8492 16.2121 18.7906 16.2652C18.7827 16.2723 18.7964 16.4233 18.7942 16.4292C18.7332 16.6127 18.7522 16.2416 18.7359 16.1761C18.6766 15.9376 18.6408 15.8108 18.5585 15.927C18.5395 15.9536 18.5008 16.4884 18.4656 16.5208C18.4197 16.5621 18.4306 16.3705 18.3828 16.4185C18.3787 16.4225 18.3839 16.5402 18.3532 16.5362C18.2106 16.5188 18.0536 16.4558 17.9068 16.473C17.8867 16.4749 17.9193 16.6608 17.8904 16.6666C17.7548 16.6937 17.605 16.6922 17.469 16.6096C17.4355 16.5887 17.4512 16.4571 17.4427 16.4185C17.3906 16.1851 17.3412 16.5288 17.3312 16.5357C17.0939 16.7086 16.8964 16.4064 16.6538 16.5625C16.6406 16.5717 16.55 16.9415 16.4923 16.6292C16.4883 16.6085 16.4308 16.2889 16.3982 16.51C16.3962 16.5238 16.4308 16.6882 16.3803 16.6731C16.3298 16.6581 16.2536 16.7715 16.1784 16.5923C16.1546 16.5358 16.0917 16.2173 16.0362 16.475C16.0327 16.493 15.9537 17.0742 15.9036 16.677C15.8954 16.6116 15.8861 16.1898 15.8167 16.4088C15.8035 16.4512 15.8337 16.5443 15.7969 16.6044C15.7406 16.6971 15.6576 16.5871 15.5911 16.7776C15.5796 16.8113 15.5356 17.0995 15.4841 16.8838C15.476 16.85 15.4839 16.7088 15.4603 16.6939C15.348 16.6223 15.2367 16.7206 15.1219 16.6273C15.0813 16.5945 15.0931 16.3662 15.0499 16.3067C15.0066 16.2472 14.9217 16.1916 14.8825 16.2971C14.8433 16.4027 14.9034 16.7637 14.8401 16.7951C14.832 16.7991 14.8238 16.8028 14.8157 16.8063C14.5479 16.9195 14.2714 16.728 13.999 16.7077C13.9573 16.7045 13.9964 16.8331 13.9354 16.8378C13.7105 16.8556 13.326 16.9914 13.1205 16.7228C12.9559 16.5076 13.1469 16.3323 13.0239 16.2467C12.9646 16.2059 12.9175 16.6299 12.904 16.6437C12.7727 16.7835 12.6713 16.6001 12.5508 16.6619C12.5259 16.6747 12.5569 16.8447 12.5357 16.8537C12.4632 16.886 12.3831 16.8126 12.3133 16.8291C12.2819 16.8369 12.2925 16.9672 12.2631 16.9582C12.1928 16.9381 12.1294 16.8855 12.0573 16.7656C12.0507 16.7547 12.0864 16.5908 12.0348 16.5866C11.9513 16.5803 11.8437 16.4634 11.7525 16.5915C11.7255 16.63 11.7352 16.9284 11.6667 16.7246C11.6523 16.682 11.6556 16.3232 11.5958 16.6353C11.5857 16.6872 11.4815 17.109 11.4131 16.842C11.395 16.7718 11.3449 16.48 11.3125 16.5274C11.3081 16.5349 11.3325 16.6945 11.3047 16.7111C11.2069 16.767 11.1018 16.7537 11.0012 16.8077C10.9744 16.8224 11.0211 16.9867 10.9809 17.0033C10.8703 17.0493 10.7288 17.0122 10.6173 16.9643C10.5762 16.9463 10.5991 16.8079 10.5956 16.7931C10.5395 16.5517 10.5235 16.8809 10.5085 16.9006C10.415 17.0187 10.3351 16.8673 10.2466 16.9113C10.2221 16.9231 10.2454 17.0789 10.241 17.093C10.2396 17.0971 10.2384 17.1008 10.2371 17.1041C10.1963 17.2149 10.2217 16.948 10.1891 16.919C10.095 16.8346 9.9941 16.8509 9.90289 16.8742C9.8694 16.883 9.91395 17.0631 9.88382 17.0689C9.70558 17.1067 9.51849 17.0961 9.3398 17.0024C9.30614 16.9845 9.3218 16.844 9.31377 16.8123C9.2583 16.5908 9.19998 16.8979 9.18507 16.9274C9.11729 17.0625 9.0846 16.94 9.02133 16.9654C8.7123 17.0916 8.32262 17.0238 8.02514 16.984C7.63753 16.933 7.33376 16.8109 6.96764 16.8588C6.94436 16.8617 6.97466 17.0467 6.95469 17.0515C6.69645 17.1058 6.43798 17.0425 6.17955 17.1056C6.15833 17.1105 6.19553 17.2856 6.16169 17.2993C6.09232 17.3286 6.00286 17.3223 5.92969 17.2686C5.89402 17.2428 5.93505 17.0899 5.89925 17.067C5.81588 17.0132 5.72827 17.0038 5.64578 17.0351C5.64559 17.0352 5.64541 17.0353 5.64523 17.0354C5.61133 17.0507 5.67062 17.2271 5.62474 17.2309C5.31071 17.2602 5.00279 17.3024 4.67631 17.0806C4.65393 17.0654 4.62148 16.6999 4.57768 16.7718C4.57789 16.8735 4.58243 16.9931 4.58485 17.1018C4.12889 17.177 3.67085 17.0665 3.21076 17.0636C3.19136 17.0635 3.23189 17.2563 3.19437 17.2572C2.97724 17.2622 2.76844 17.3236 2.53943 17.1388C2.51672 17.1207 2.51561 16.7789 2.45257 16.8329C2.44147 16.8428 2.34536 16.8918 2.32278 16.9669C2.31975 16.9782 2.34338 17.1369 2.31205 17.1427C2.12986 17.1735 1.93669 17.1441 1.7504 17.0534C1.72032 17.0385 1.74556 16.8676 1.72408 16.8555C1.57179 16.7708 1.41439 16.9057 1.26639 16.7568C1.16731 16.6566 1.19193 16.3619 1.13078 16.075C1.12213 16.0346 1.06288 16.0303 1.05372 15.8624C1.03052 15.4402 1.04229 14.9766 1.01418 14.5267C1.00818 14.4298 0.932931 14.5372 0.971208 14.3011C0.973907 14.2853 1.02839 14.2054 1.03961 14.1254C1.04744 14.0701 1.02352 13.8999 1.04101 13.8288C1.0585 13.7577 1.08574 13.9002 1.11597 13.8163C1.14616 13.7314 1.12448 13.5375 1.19 13.5121ZM19.4642 15.5513C19.4058 15.39 19.4198 15.9881 19.4714 15.843C19.4738 15.8352 19.4672 15.5592 19.4642 15.5513ZM25.8087 15.226C25.7305 14.9649 25.6977 15.3543 25.7534 15.5561C25.8092 15.7578 25.8325 15.3052 25.8087 15.226ZM26.5129 15.0077C26.4252 14.8027 26.4434 15.6509 26.523 15.4764C26.5277 15.4665 26.518 15.0196 26.5129 15.0077ZM1.36267 15.9843C1.36166 15.9764 1.31895 15.9702 1.31822 15.9781C1.30253 16.1688 1.38793 16.181 1.36267 15.9843ZM27.2111 14.7724C27.1819 14.6587 27.1147 14.7937 27.1509 14.9351C27.1801 15.0489 27.2474 14.9139 27.2111 14.7724ZM16.7042 15.0128C16.703 15.0039 16.6723 14.997 16.6748 15.0473C16.6827 15.2094 16.7234 15.1621 16.7042 15.0128ZM28.4103 14.719C28.2319 14.6936 28.099 13.9973 28.2949 14.0693C28.3304 14.0823 28.2277 14.2953 28.2745 14.3568C28.36 14.4689 28.3981 14.0272 28.4897 14.2598C28.5063 14.3024 28.4206 14.7221 28.41 14.72C28.4101 14.7197 28.4102 14.7194 28.4103 14.719ZM19.4079 14.8344C19.4066 14.8265 19.3642 14.8205 19.3635 14.8284C19.3476 15.019 19.433 15.0311 19.4079 14.8344ZM14.9159 14.7077C14.9129 14.691 14.8146 14.6788 14.812 14.6944C14.7723 15.0066 14.9711 15.0322 14.9159 14.7077ZM22.2278 14.2938C22.2668 14.1012 22.3209 14.0767 22.3663 14.3151C22.3201 14.3041 22.2741 14.3039 22.2278 14.2938ZM1.26194 31.0203C1.41604 30.9682 1.61804 31.0239 1.77156 31.1004C1.81968 31.1241 1.79531 31.2302 1.82853 31.2513C1.89349 31.2925 1.954 31.2405 2.01819 31.2896C2.03947 31.3064 2.01299 31.4743 2.03529 31.4881C2.15753 31.5623 2.27318 31.5196 2.397 31.5553C3.00695 31.7314 3.60651 31.7944 4.22391 31.8709C4.42749 31.896 4.67496 32.0484 4.88523 31.9818C4.90978 31.9738 4.89514 31.8264 4.89981 31.8143C4.97306 31.6283 4.94871 31.9259 4.99654 31.9654C5.18636 32.1215 5.39744 32.1351 5.58012 32.0782C5.58122 32.0778 5.58229 32.0774 5.58333 32.077C5.65566 32.0453 5.58102 31.7631 5.65817 31.9251C5.6636 31.9362 5.64388 32.0928 5.6652 32.1094C5.71353 32.147 5.80523 32.119 5.84269 32.1314C5.91489 32.1561 5.92683 32.1545 5.99512 32.1563C6.08847 32.1601 6.1995 32.2379 6.29966 32.2025C6.32104 32.1944 6.29273 32.034 6.32683 32.0067C6.36095 31.9794 6.45123 31.993 6.48167 32.0308C6.51211 32.0687 6.49915 32.1948 6.50454 32.2237C6.54886 32.4677 6.65329 32.1298 6.66672 32.1214C6.9117 31.979 7.12178 32.1715 7.35174 32.171C7.52632 32.1701 7.71299 32.1066 7.8791 32.1153C8.077 32.1263 8.24472 32.2133 8.43698 32.1983C8.45727 32.1969 8.43349 32.0083 8.45827 32.0062C8.72156 31.9842 8.98301 32.0048 9.24516 32.1322C9.27145 32.1451 9.23757 32.3107 9.26384 32.3336C9.42465 32.4697 9.6791 32.7967 9.77462 32.0755C9.88355 32.1037 10.0158 32.1328 10.1132 32.2781C10.167 32.3582 10.1301 32.5019 10.1667 32.4935C10.1728 32.492 10.1811 32.4863 10.1922 32.4752C10.2096 32.458 10.187 32.3 10.2131 32.2862C10.323 32.2284 10.4431 32.2797 10.5519 32.1981C10.574 32.1811 10.5679 32.0395 10.5742 32.014C10.6269 31.8075 10.7145 32.1488 10.7337 32.1737C10.8792 32.3586 10.9855 32.2858 11.1211 32.2904C11.1525 32.2915 11.1153 32.1013 11.1456 32.0955C11.3026 32.0683 11.4653 32.0846 11.619 32.169C11.6532 32.1882 11.6218 32.3503 11.6381 32.3677C11.7102 32.4428 11.7262 32.1368 11.7953 32.203C11.8099 32.2165 11.8016 32.3552 11.8043 32.3704C11.8459 32.6096 11.882 32.2707 11.8927 32.2633C12.0281 32.161 12.1146 32.5148 12.2453 32.4647C12.261 32.4583 12.2257 32.2828 12.2697 32.2757C12.5626 32.2273 12.8724 32.2755 13.1623 32.4158C13.2074 32.4374 13.1752 32.5693 13.178 32.5855C13.2243 32.8395 13.2542 32.4992 13.2689 32.4864C13.3848 32.3942 13.4932 32.6795 13.5719 32.2742C13.966 32.3871 14.3586 32.2629 14.75 32.3969C14.8464 32.4299 14.9427 32.4786 15.0389 32.5504C15.0451 32.5546 15.034 32.7221 15.0464 32.7298C15.1951 32.8239 15.1666 32.5635 15.265 32.2449C15.2898 32.165 15.3652 32.5495 15.3719 32.5777C15.3962 32.6816 15.371 32.9309 15.3791 32.951C15.4465 33.109 15.4355 32.2845 15.5264 32.2843C15.5293 32.2856 15.5173 32.4374 15.525 32.4525C15.5486 32.4998 15.5721 32.4395 15.5953 32.4918C15.6484 32.6126 15.6673 33.0133 15.7484 32.7801C15.7587 32.7498 15.743 32.2822 15.8241 32.3043C15.8565 32.3135 15.9997 32.3055 16.0398 32.3358C16.0799 32.366 16.0524 32.5167 16.0552 32.5233C16.1632 32.7225 16.1223 32.8051 16.1764 33.1002C16.2305 33.3941 16.2155 32.6931 16.2376 32.6148C16.2597 32.5368 16.3388 32.7012 16.3583 32.7584C16.3778 32.8156 16.3535 32.9113 16.3708 32.9437C16.4855 33.1551 16.4211 32.5957 16.4589 32.4844C16.548 32.221 16.6174 32.7409 16.6989 32.7918C16.721 32.8056 16.703 32.6872 16.7226 32.6761C16.8005 32.6338 16.8473 32.796 16.9358 32.6473C16.9503 32.6231 17.0219 32.3105 17.0682 32.5399C17.0748 32.5729 17.0561 32.7025 17.0893 32.7315C17.1388 32.7751 17.2281 32.8034 17.2814 32.7601C17.3207 32.728 17.2756 32.5146 17.3251 32.5809C17.3471 32.6105 17.3063 32.7354 17.3477 32.7806C17.3888 32.8258 17.4939 32.8203 17.5339 32.816C17.5738 32.8116 17.5519 32.6497 17.5552 32.6387C17.5747 32.5763 17.6513 32.4982 17.6581 32.4984C17.9996 32.4786 18.3145 32.7515 18.647 32.6612C18.6731 32.6544 18.6557 32.4836 18.6597 32.4808C18.749 32.4092 18.6786 32.8632 18.741 33.0152C18.732 32.6687 18.7688 32.7314 18.8317 32.6934C18.8621 32.6748 18.8456 32.5407 18.8483 32.5269C18.8933 32.3231 18.9246 32.5864 18.9327 32.6402C18.9624 32.8383 18.9949 32.6042 19.0151 32.7366C19.0354 32.8681 18.9888 33.0629 19.0491 33.0604C19.066 32.9363 19.0212 32.6122 19.067 32.5596C19.1382 32.4779 19.2347 32.4728 19.3333 32.497C19.4744 32.5316 19.6198 32.6261 19.7016 32.6417C19.8403 32.6681 19.8851 32.6452 19.966 32.69C20.112 32.7711 20.0585 32.5306 20.1491 32.4205C20.2401 32.3104 20.1959 32.9022 20.2089 33.0294C20.2218 33.1565 20.2358 33.0256 20.2517 33.0955C20.2676 33.1654 20.2332 33.2519 20.2706 33.2781C20.308 33.3044 20.4104 33.0782 20.4237 32.9451C20.4517 32.6633 20.4056 32.3676 20.5047 32.4715C20.5104 32.4777 20.4919 32.6333 20.5137 32.649C20.6869 32.7688 20.8669 32.7762 21.04 32.8821C21.0638 32.897 21.0425 33.0701 21.0563 33.0806C21.2006 33.1914 21.149 32.8995 21.2281 32.5753C21.2103 33.0067 21.254 33.2707 21.3635 33.2733C21.4293 33.2749 21.418 33.0865 21.4605 32.9537C21.4733 32.9136 21.5199 33.043 21.5283 32.9544C21.5561 32.6647 21.5123 32.3404 21.6251 32.4696C21.6301 32.4757 21.6143 32.6343 21.6314 32.6439C21.742 32.7067 21.7553 32.4037 21.8748 32.367C21.9685 32.3382 22.1352 32.523 22.2419 32.5531C22.2396 33.0382 22.3404 32.9271 22.3813 32.5926C22.4505 32.6063 22.5253 32.5874 22.5923 32.6336C22.6153 32.6494 22.6002 32.7898 22.6031 32.805C22.6476 33.0431 22.6777 32.7177 22.6926 32.7049C22.8546 32.5809 22.9866 32.8275 23.1412 32.5865C23.1467 32.5778 23.1556 32.2409 23.1969 32.4869C23.1996 32.5038 23.1485 32.6572 23.2213 32.669C23.294 32.6809 23.4311 32.8615 23.5321 32.7054C23.5565 32.6678 23.6183 32.3943 23.6679 32.608C23.6746 32.637 23.6673 32.7336 23.6769 32.7874C23.7077 32.9588 23.7245 32.6182 23.7608 32.9075C23.7898 33.1393 23.844 33.3244 23.9167 33.2864C23.9347 33.2769 23.954 33.2537 23.9743 33.2139C23.9775 33.2081 24.0016 32.9382 24.0336 32.9425C24.0848 32.9495 24.1573 33.0057 24.2107 33.004C24.2363 33.003 24.2199 32.8354 24.2244 32.8323C24.3962 32.7384 24.5185 32.8879 24.7026 32.9527C24.7364 32.9649 24.8333 32.7363 24.8987 32.9171C24.9704 33.1149 24.8967 33.9378 25.0616 33.7418C25.1281 33.6633 25.2123 32.6193 25.3318 33.1602C25.5636 33.0262 25.778 33.303 26.0105 33.1116C26.0209 33.1032 26.054 32.8118 26.0785 32.8157C26.115 32.8222 26.1351 32.9584 26.1611 32.9674C26.2703 33.0084 26.3701 32.8919 26.4754 32.91C26.5153 32.9166 26.5014 33.0574 26.549 33.0653C26.5967 33.073 26.6284 32.8876 26.693 32.9771C26.7417 33.0454 26.7904 33.4244 26.8551 33.4686C26.8576 33.0947 26.9021 33.1024 26.981 33.0037C26.9962 32.9846 26.9799 32.8545 26.9871 32.8387C27.0163 32.7716 27.0434 32.8795 27.0711 32.8065C27.0779 32.7889 27.0782 32.6613 27.0837 32.6397C27.1307 32.4517 27.208 32.7389 27.2213 32.7889C27.2722 32.9788 27.2959 32.8127 27.335 32.8875C27.374 32.9623 27.3157 33.0558 27.3612 33.1011C27.4556 33.195 27.5768 33.1744 27.6727 33.1802C27.7109 33.1818 27.6848 33.0114 27.6903 33.0076C27.7694 32.9644 27.8493 33.1457 27.8932 32.8062C27.948 33.684 27.9409 32.7211 28.0539 32.8968C28.0628 32.911 28.0741 33.3261 28.0399 33.387C28.0058 33.4479 27.9539 33.3182 27.9065 33.4132C27.8953 33.4354 27.8309 33.8244 27.8222 33.848C27.7534 34.0321 27.7437 33.4118 27.74 33.3778C27.6988 33.0101 27.6201 33.4291 27.5994 33.4581C27.5047 33.5907 27.4243 33.5035 27.3451 33.5982C27.2932 33.6594 27.2882 34.0657 27.2475 34.0533C27.1123 34.0122 27.065 33.4454 26.9376 33.9368C26.9103 34.0417 26.9374 34.4857 26.8395 34.1365C26.8334 34.1145 26.7607 33.7951 26.7187 33.9971C26.7134 34.0226 26.7136 34.152 26.7066 34.1629C26.66 34.2332 26.6289 34.1301 26.5781 34.1795C26.5273 34.2289 26.4662 34.3025 26.4083 34.2586C26.3733 34.2324 26.3285 33.9912 26.3117 33.9322C26.2645 33.7621 26.2139 34.041 26.1846 33.835C26.1551 33.6281 26.2128 33.3137 26.1354 33.18C26.1325 33.5162 26.126 33.8614 26.1213 34.1995C25.9518 34.1877 25.7849 34.079 25.6148 34.0938C25.5937 34.096 25.6152 34.2768 25.5926 34.2838C25.4972 34.3125 25.4139 34.1836 25.3149 34.2349C25.2384 34.2753 25.1544 34.4667 25.0743 34.515C25.0254 34.1302 24.9065 34.2608 24.8202 34.2257C24.79 34.2135 24.792 34.1107 24.7705 34.0772C24.6894 33.9532 24.7274 34.2932 24.7051 34.3467C24.6097 34.5751 24.6015 33.8055 24.489 33.8245C24.4831 33.8253 24.4102 34.2355 24.4002 34.2611C24.3364 34.4276 24.3896 34.1183 24.3497 34.088C24.2769 34.0326 24.2262 33.9346 24.1407 34.0548C24.1158 34.0903 24.056 34.346 24.0076 34.1483C24.0013 34.1224 24.0048 33.9868 23.9997 33.9788C23.9581 33.9195 23.9346 33.9723 23.9167 34.0617C23.8945 34.1717 23.8807 34.3372 23.8514 34.4168C23.7984 34.5611 23.7165 34.267 23.6998 34.1822C23.6562 33.9629 23.7332 34.0885 23.7356 34.067C23.7633 33.8109 23.7036 33.855 23.658 33.8333C23.6514 33.4156 23.5875 33.4406 23.6107 33.8126C23.6133 33.8532 23.6488 33.8142 23.658 33.8333C23.6179 34.2432 23.5478 34.2957 23.4703 33.9127C23.434 33.7331 23.4683 33.5238 23.3582 33.6004C23.3082 33.635 23.3275 33.9226 23.2834 34.001C23.1826 34.18 23.0516 33.9116 22.9477 33.9539C22.9099 33.9693 22.9467 34.1267 22.9209 34.1426C22.8525 34.1854 22.7922 34.0672 22.7235 34.1278C22.7173 34.1334 22.7325 34.2983 22.7111 34.3004C22.5492 34.3195 22.4081 34.2139 22.239 34.211C22.1573 34.2097 22.0113 34.3006 21.9266 34.2823C21.78 34.2516 21.5995 34.0119 21.4742 34.0701C21.3925 34.1074 21.4104 34.2723 21.3754 34.3846C21.3078 34.6023 21.1882 34.2123 21.1721 34.1519C21.1716 34.1499 21.2419 34.1111 21.2044 34.0264C21.1826 33.8501 21.1728 34.1512 21.1721 34.1519C21.1615 34.1129 21.021 34.0755 20.9931 34.107C20.9779 34.1242 20.9864 34.2804 20.9785 34.2864C20.7906 34.4262 20.6025 34.4659 20.4119 34.3929C20.4086 34.3897 20.4136 34.215 20.4057 34.2098C20.2954 34.1321 20.2248 34.3458 20.1338 34.4727C20.0429 34.5996 19.9707 34.5571 19.9169 34.2571C19.8482 34.2949 19.7498 34.1623 19.6931 34.0819C19.6365 34.0014 19.6285 34.3415 19.6236 34.3482C19.5096 34.506 19.4308 34.4434 19.3333 34.3869C19.2979 34.3663 19.2599 34.3465 19.2169 34.3384C19.1402 34.3235 18.988 34.3728 18.905 34.41C18.8393 34.4399 18.7998 34.3602 18.7393 34.4112C18.7311 34.418 18.7394 34.5694 18.7369 34.5753C18.6694 34.7564 18.7019 34.3862 18.6879 34.3201C18.6374 34.0797 18.6062 33.9517 18.5198 34.0648C18.4998 34.0907 18.4418 34.6237 18.4054 34.6549C18.3582 34.6944 18.376 34.5033 18.3265 34.5496C18.3223 34.5534 18.3232 34.6713 18.2926 34.6661C18.1509 34.6435 17.9964 34.5749 17.8491 34.5867C17.829 34.5879 17.8548 34.7748 17.8257 34.7796C17.6893 34.8018 17.5398 34.7948 17.4069 34.7073C17.3742 34.6852 17.3947 34.5543 17.3876 34.5154C17.344 34.2803 17.2822 34.622 17.272 34.6285C17.0287 34.7927 16.8425 34.4835 16.5946 34.6307C16.5811 34.6393 16.4772 35.0056 16.4308 34.6915C16.4276 34.6706 16.3818 34.3492 16.3412 34.5689C16.3387 34.5827 16.3673 34.7481 16.3174 34.7313C16.2675 34.7144 16.1873 34.8249 16.1187 34.6431C16.097 34.5859 16.0457 34.2652 15.981 34.5208C15.9768 34.5387 15.8768 35.1166 15.8411 34.7178C15.8353 34.6522 15.8414 34.2303 15.7641 34.4466C15.7494 34.4885 15.7762 34.5827 15.7373 34.6414C15.6777 34.732 15.5987 34.619 15.5255 34.8069C15.5127 34.8402 15.4583 35.1266 15.4147 34.9092C15.4079 34.8752 15.4208 34.7343 15.3978 34.7186C15.2883 34.643 15.1736 34.7372 15.0623 34.6397C15.0229 34.6055 15.0431 34.3777 15.002 34.3167C14.9609 34.2557 14.8782 34.197 14.8352 34.3011C14.7922 34.4052 14.8392 34.7681 14.7748 34.7972C14.7665 34.8009 14.7583 34.8043 14.75 34.8075C14.4785 34.9109 14.2092 34.7095 13.938 34.6793C13.8965 34.6746 13.9309 34.8045 13.8698 34.8069C13.6445 34.8166 13.2556 34.9384 13.0601 34.6624C12.9035 34.4414 13.1006 34.2731 12.9809 34.1832C12.9232 34.1403 12.8607 34.5622 12.8467 34.5755C12.7105 34.7104 12.6159 34.5235 12.4933 34.5809C12.468 34.5928 12.4928 34.7638 12.4713 34.772C12.3977 34.8017 12.3204 34.7254 12.25 34.7393C12.2185 34.746 12.2243 34.8766 12.1953 34.8665C12.1258 34.8439 12.0644 34.789 11.9967 34.6666C11.9905 34.6554 12.0321 34.4929 11.9808 34.4869C11.8976 34.4776 11.7944 34.3568 11.6987 34.4815C11.6703 34.519 11.6692 34.8176 11.6081 34.6114C11.5953 34.5683 11.6117 34.2099 11.5406 34.5196C11.5286 34.5711 11.4092 34.9888 11.3506 34.7195C11.3351 34.6487 11.2957 34.3553 11.2615 34.4014C11.2569 34.4088 11.2754 34.5691 11.2472 34.5848C11.1475 34.6371 11.043 34.62 10.9405 34.6702C10.9132 34.684 10.9539 34.8499 10.9131 34.8651C10.801 34.907 10.6611 34.8647 10.5514 34.8128C10.511 34.7933 10.5389 34.6559 10.536 34.6409C10.4887 34.3976 10.4608 34.726 10.4451 34.7452C10.3474 34.8598 10.2731 34.7056 10.1831 34.7464C10.1583 34.7573 10.1759 34.9138 10.1709 34.9278C10.1694 34.9318 10.168 34.9354 10.1667 34.9387C10.1219 35.048 10.1569 34.7821 10.1254 34.752C10.0345 34.6642 9.93316 34.6768 9.84123 34.6968C9.80746 34.7044 9.84541 34.886 9.81511 34.8907C9.63574 34.922 9.44927 34.9046 9.27422 34.8045C9.24126 34.7853 9.262 34.6455 9.25513 34.6136C9.20778 34.3902 9.13839 34.6949 9.12243 34.7239C9.04982 34.8565 9.02163 34.7328 8.95751 34.7559C8.64432 34.8708 8.25761 34.7889 7.96197 34.7383C7.57673 34.6732 7.27778 34.5402 6.91041 34.5748C6.88706 34.5768 6.9106 34.7628 6.89048 34.7669C6.63061 34.8117 6.37478 34.7391 6.1144 34.7928C6.09303 34.7969 6.12383 34.9732 6.08953 34.9857C6.01919 35.0125 5.93008 35.0029 5.85895 34.9466C5.82426 34.9195 5.87079 34.7682 5.83588 34.744C5.75457 34.6872 5.66741 34.6747 5.58389 34.7029C5.5837 34.703 5.58352 34.7031 5.58333 34.7032C5.54892 34.7173 5.60173 34.8957 5.55578 34.8978C5.2411 34.9157 4.93205 34.9467 4.61405 34.7132C4.59225 34.6972 4.57313 34.3307 4.52677 34.4009C4.52328 34.5027 4.52347 34.6223 4.52195 34.731C4.06385 34.7896 3.61044 34.6625 3.15106 34.6429C3.13169 34.6421 3.16516 34.8363 3.12766 34.8358C2.91063 34.8329 2.69988 34.8867 2.47789 34.6937C2.45586 34.6748 2.46716 34.3332 2.40225 34.3848C2.3908 34.3943 2.29304 34.4398 2.26776 34.514C2.26433 34.5252 2.28217 34.6846 2.25066 34.6893C2.06759 34.7135 1.87574 34.6771 1.69299 34.5797C1.6635 34.5636 1.69491 34.3938 1.6739 34.3809C1.52488 34.2908 1.36279 34.4199 1.2204 34.2657C1.12508 34.1619 1.16037 33.8683 1.10972 33.5794C1.10256 33.5387 1.04354 33.5322 1.04049 33.3641C1.03265 32.9414 1.06124 32.4785 1.04951 32.0279C1.04703 31.9309 0.967985 32.0354 1.01478 31.8009C1.01805 31.7852 1.07536 31.7073 1.08948 31.6278C1.0993 31.5728 1.08159 31.4018 1.10165 31.3314C1.12169 31.261 1.14373 31.4043 1.17697 31.3216C1.21019 31.2379 1.19558 31.0434 1.26194 31.0203ZM19.438 33.7222C19.3855 33.5589 19.3778 34.1571 19.4345 34.014C19.4373 34.0064 19.4407 33.7302 19.438 33.7222ZM25.7859 33.6278C25.7173 33.3639 25.6703 33.7519 25.7187 33.9556C25.7671 34.1592 25.8068 33.7077 25.7859 33.6278ZM26.4971 33.4351C26.4169 33.2271 26.4043 34.0754 26.4902 33.9039C26.4952 33.8942 26.5018 33.4472 26.4971 33.4351ZM1.3446 33.4971C1.34388 33.4892 1.30145 33.4815 1.30044 33.4893C1.27785 33.6793 1.36268 33.6947 1.3446 33.4971ZM27.2029 33.2254C27.1779 33.1107 27.1058 33.2431 27.1369 33.3858C27.162 33.5006 27.2341 33.3681 27.2029 33.2254ZM16.7011 33.0838C16.7003 33.0749 16.6699 33.0669 16.6705 33.1173C16.6726 33.2795 16.7149 33.2337 16.7011 33.0838ZM28.4025 33.2156C28.2253 33.1837 28.1178 32.483 28.3108 32.5621C28.3458 32.5764 28.2355 32.7855 28.28 32.8487C28.3614 32.9638 28.4154 32.5238 28.4985 32.7596C28.5135 32.8027 28.4126 33.219 28.4022 33.2166C28.4023 33.2163 28.4024 33.216 28.4025 33.2156ZM19.4078 33.0037C19.4067 32.9958 19.3646 32.9883 19.3636 32.9962C19.3408 33.1861 19.4256 33.2013 19.4078 33.0037ZM14.9263 32.7139C14.9239 32.6971 14.8262 32.6813 14.823 32.6968C14.7721 33.0074 14.9696 33.0402 14.9263 32.7139ZM22.2436 32.566C22.2895 32.3749 22.3445 32.3524 22.3811 32.5924C22.3354 32.5796 22.2895 32.5777 22.2436 32.566ZM21.7193 1.38726C21.6459 1.95828 21.4317 2.67144 21.2378 3.20005C21.1772 3.36583 21.0926 3.25669 21.0462 3.36999C20.9556 3.59149 20.9598 3.81625 20.8627 4.03161C20.8301 4.10285 20.6862 3.97407 20.6557 4.04959C20.4921 4.45301 20.4403 4.89526 20.3088 5.33731C19.7525 7.20791 19.3075 8.99887 18.8552 10.9023C18.7815 11.2114 18.7085 11.5195 18.6357 11.8269C18.4689 12.5298 18.1338 13.4388 18.0545 14.198C18.0451 14.2878 18.2 14.2633 18.2087 14.2823C18.3404 14.5804 18.0652 14.4364 17.9933 14.6C17.7083 15.2524 17.557 15.9754 17.4843 16.6752C17.4556 16.9638 17.7964 16.7329 17.5818 16.9882C17.5672 17.0059 17.4266 16.9055 17.3958 16.9801C17.3261 17.1496 17.2923 17.4868 17.2554 17.6193C17.1835 17.8749 17.1772 17.918 17.131 18.162C17.0667 18.495 16.9193 18.8748 16.8918 19.2326C16.8862 19.3099 17.0624 19.2354 17.0672 19.3648C17.0714 19.4964 16.9993 19.8273 16.9425 19.9324C16.8857 20.0377 16.7698 19.9683 16.7379 19.9831C16.4688 20.1044 16.7357 20.5434 16.7357 20.5931C16.7309 20.9257 16.6864 21.2311 16.6253 21.5242C16.5174 22.044 16.3646 22.49 16.2741 23.0505C16.1704 23.6951 16.127 24.3805 16.0284 24.9694C15.9146 25.6429 15.7304 26.2957 15.6481 26.9847C15.6391 27.0585 15.838 26.9987 15.8275 27.0887C15.7168 28.0315 15.5707 28.9764 15.3268 29.923C15.3024 30.0166 15.1529 29.8739 15.1186 29.9662C14.9118 30.5323 14.4853 31.395 15.1633 31.8443C15.1406 31.9718 15.1172 32.1073 15.09 32.2435C15.0322 32.5338 14.9578 32.8265 14.8365 33.0543C14.7219 33.2698 14.5629 33.035 14.6136 33.3175C14.6249 33.381 14.7898 33.3153 14.7949 33.4092C14.8173 33.791 14.7248 34.2612 14.7749 34.6588C14.7854 34.7412 14.9283 34.7303 14.9519 34.7552C15.1423 34.9636 14.7783 35.2531 14.7486 35.32C14.5264 35.8268 14.5745 36.2074 14.5409 36.7189C14.5332 36.8349 14.7308 36.7084 14.7303 36.8202C14.7255 37.4043 14.6846 37.9637 14.5827 38.5252C14.5596 38.6522 14.4012 38.5299 14.3819 38.5904C14.299 38.8573 14.6035 38.924 14.5319 39.1751C14.5172 39.228 14.3792 39.1952 14.3637 39.2046C14.1216 39.3524 14.4583 39.4893 14.4653 39.5276C14.5608 40.0216 14.2058 40.2973 14.2594 40.803C14.2663 40.8609 14.4405 40.729 14.4492 40.8913C14.488 41.5955 14.4983 42.2417 14.4924 42.9773C14.4886 43.3698 14.477 43.7382 14.46 44.1137C14.4537 44.2833 14.3115 44.1757 14.2963 44.1876C14.0592 44.3841 14.4091 44.462 14.4272 44.5139C14.5614 44.9262 14.3267 45.3452 14.7659 45.5608C14.8718 47.3267 15.4917 48.9812 15.8791 50.6535C15.8845 50.6747 15.7164 50.7112 15.7279 50.7536C15.8793 51.2777 16.0734 51.0758 16.513 51.2165C16.6219 51.249 16.4215 51.6639 16.4115 51.7C16.3672 51.8261 16.1092 51.8826 16.1069 51.9173C16.107 52.2137 16.7796 51.7387 16.9526 51.9914C16.9571 52.0002 16.809 52.0531 16.8116 52.0833C16.82 52.1783 16.9163 52.2092 16.9214 52.3042C16.9331 52.5214 16.6557 52.8217 17.0273 52.9056C17.0704 52.9129 17.3495 52.625 17.52 52.7541C17.5343 52.7648 17.5479 52.7784 17.5606 52.7953C17.6249 52.8875 17.9622 53.2235 18.0471 53.3377C18.1267 53.4524 17.9563 53.5002 17.9587 53.5113C18.1069 53.9118 17.9467 53.8781 17.908 54.2321C17.8798 54.5885 18.2755 54.0058 18.3837 53.9919C18.4906 53.9784 18.6148 54.2746 18.6415 54.3614C18.666 54.4482 18.5394 54.4768 18.5725 54.5392C18.8041 54.9502 18.9164 54.351 19.0878 54.3305C19.4841 54.27 19.4231 54.8323 19.6694 55.0159C19.7342 55.064 19.7296 54.9292 19.7973 54.9506C20.065 55.0347 20.15 55.2513 20.4984 55.2321C20.5575 55.2304 20.8983 55.0271 20.9769 55.2961C20.9886 55.3351 20.8818 55.4355 20.9866 55.5021C21.1389 55.601 21.4355 55.7216 21.6344 55.7299C21.7801 55.736 21.6783 55.488 21.833 55.5974C21.9027 55.646 21.7278 55.73 21.8627 55.8112C22.0051 55.8954 22.3639 55.9701 22.5098 55.9933C22.6525 56.0169 22.6056 55.8426 22.6192 55.8342C22.6995 55.787 22.984 55.7583 23.0084 55.7618C24.1865 55.9373 25.3212 56.268 26.524 56.1688C26.6193 56.161 26.5445 55.9908 26.5589 55.9878C26.882 55.9118 26.6533 56.3699 26.8975 56.5176C26.8626 56.3146 26.8973 56.2515 26.9788 56.225C27.0365 56.2001 27.117 56.191 27.2122 56.1622C27.323 56.1282 27.2506 56.0025 27.2597 55.9874C27.4077 55.761 27.5439 56.0072 27.5787 56.0566C27.7059 56.2385 27.8009 55.9871 27.8867 56.1079C27.9732 56.2276 27.8238 56.4482 28.0424 56.4116C28.0902 56.2783 27.8965 55.9805 28.0544 55.9022C28.6104 55.6187 29.8455 55.6328 30.305 55.545C30.8077 55.4525 30.96 55.3868 31.2518 55.3549C31.7767 55.2927 31.5258 55.1128 31.8006 54.9172C32.0879 54.7146 32.1077 55.3269 32.1917 55.4343C32.2757 55.5414 32.2868 55.4007 32.3648 55.4492C32.4429 55.4976 32.3457 55.6195 32.4879 55.6016C32.5866 55.5891 32.7567 55.4251 32.849 55.2779C32.8905 55.2122 32.9172 55.15 32.9176 55.1063C32.919 54.8069 32.6681 54.5831 33.0298 54.5635C33.0508 54.5625 33.0429 54.7309 33.1204 54.7194C33.7702 54.6089 34.3477 54.3758 34.9779 54.1894C35.0632 54.1645 35.0682 54.3545 35.119 54.3415C35.6455 54.2033 35.3448 54.026 35.4416 53.6098C35.5897 54.0185 35.8459 54.1866 36.2159 53.979C36.4317 53.856 36.2991 53.7146 36.3645 53.5207C36.3836 53.4627 36.5957 53.4839 36.5745 53.3923C36.5047 53.093 36.2 52.9055 36.6029 52.7976C36.6214 52.7928 36.6607 52.9569 36.7182 52.9304C37.0885 52.7567 36.955 52.4807 37.2639 52.2049C37.3563 52.1207 37.5093 52.03 37.6715 51.9395C37.92 51.8012 38.194 51.6588 38.3731 51.5163C38.6968 51.8794 38.8972 51.5357 38.7585 51.1974C38.9424 51.0311 39.1038 50.8296 39.299 50.676C39.3651 50.624 39.4356 50.7569 39.4539 50.759C39.7414 50.7907 39.5626 50.4957 39.5857 50.4475C39.8493 49.9289 40.3306 49.6752 40.4183 49.0773C40.4214 49.0553 40.1503 48.8544 40.4355 48.8566C40.4552 48.8565 40.4934 49.0926 40.6363 48.8746C40.7778 48.6606 41.1744 48.3046 41.1874 47.9055C41.1905 47.8302 41.0953 47.6228 41.1787 47.5012C41.2022 47.467 41.2397 47.4392 41.2978 47.4219C41.3338 47.4115 41.4125 47.4734 41.4755 47.4627C41.6774 47.425 41.3854 47.24 41.7027 47.226C42.0195 47.2123 42.3287 47.018 42.2617 46.592C42.2602 46.5783 42.0327 46.4083 42.0724 46.2987C42.1367 46.1232 42.2671 45.8831 42.3172 45.6934C42.3412 45.6026 42.1636 45.6164 42.1649 45.5999C42.2357 44.9732 42.4765 44.576 42.6573 43.9188C42.6912 43.7972 42.5204 43.4153 42.7306 43.2035C42.9601 42.9675 43.7454 43.3454 43.6227 42.7C43.5836 42.4973 42.9696 42.2052 42.959 41.9077C42.956 41.8202 43.0041 41.732 43.1327 41.641C43.0571 40.7809 43.352 39.9951 43.1549 39.135C43.1462 39.0963 42.8537 38.9777 42.8564 38.8881C42.861 38.7547 42.9958 38.6785 43.0028 38.5825C43.0354 38.1794 42.9066 37.8182 42.9079 37.4304C42.908 37.2835 43.0511 37.3284 43.0507 37.1528C43.0498 36.9769 42.8588 36.8712 42.9351 36.629C42.9931 36.446 43.3609 36.2436 43.3898 36.0021C43.2392 36.008 43.1489 35.9849 43.087 35.9369C42.9952 35.8653 42.966 35.7407 42.8953 35.57C42.8723 35.5154 42.7466 35.5843 42.7291 35.5589C42.6548 35.4561 42.7554 35.3493 42.6753 35.2528C42.656 35.2293 42.5286 35.2373 42.5056 35.2187C42.3058 35.0605 42.5713 34.7587 42.6174 34.7056C42.7926 34.5036 42.6202 34.4288 42.6838 34.2799C42.7472 34.1312 42.857 34.3376 42.8893 34.1672C42.9563 33.8174 42.8999 33.3686 42.8784 33.0193C42.869 32.8798 42.7066 32.9882 42.7013 32.9685C42.6357 32.6854 42.7936 32.3723 42.4433 32.2386C43.3038 31.972 42.3453 32.0739 42.4911 31.6426C42.5029 31.6086 42.9141 31.5384 42.9837 31.6601C43.0534 31.7848 42.9372 31.9778 43.0449 32.1448C43.0701 32.184 43.4757 32.39 43.5017 32.4205C43.7046 32.6586 43.0892 32.7438 43.0562 32.759C42.7012 32.9369 43.1416 33.1916 43.1764 33.2654C43.3362 33.6044 43.2725 33.9047 43.3895 34.188C43.4652 34.3738 43.8718 34.3616 43.8708 34.5132C43.8675 35.0161 43.3146 35.2274 43.8371 35.6676C43.9304 35.7463 44.2518 35.6679 44.1629 35.8673C44.1456 35.9059 44.1129 35.955 44.0601 36.0176C44.0396 36.0422 43.7375 36.3311 43.948 36.4759C43.9746 36.4941 44.1038 36.4861 44.1161 36.5115C44.1962 36.6828 44.0995 36.8032 44.1583 36.9906C44.2171 37.1778 44.3011 37.4041 44.2657 37.6244C44.2447 37.7574 44.0095 37.9336 43.9524 37.998C43.7882 38.1795 44.0718 38.3619 43.8684 38.4767C43.6638 38.5911 43.3452 38.3842 43.2172 38.6731C43.5536 38.6775 43.8991 38.6959 44.2375 38.7075C44.2367 39.349 44.1255 39.981 44.1188 40.6274C44.1183 40.7077 44.3018 40.6318 44.3057 40.7184C44.321 41.0851 44.1758 41.3981 44.2003 41.7798C44.2051 41.8541 44.219 41.9306 44.2373 42.0095C44.2919 42.245 44.3857 42.497 44.3967 42.7343C43.9949 42.8818 44.0701 43.3528 43.9844 43.6812C43.9548 43.7957 43.8544 43.7722 43.8084 43.8491C43.636 44.138 43.9946 44.049 44.0331 44.1437C44.1925 44.5557 43.4308 44.4477 43.3624 44.8704C43.3593 44.8912 43.6984 45.2566 43.7132 45.3029C43.8173 45.5864 43.5649 45.3107 43.4989 45.4556C43.3766 45.7201 43.233 45.8823 43.255 46.2368C43.2623 46.3391 43.4373 46.6434 43.1887 46.7652C43.1562 46.7811 43.0318 46.7255 43.018 46.7421C42.7775 47.0425 43.1746 47.1909 43.2363 47.4427C43.2972 47.6962 42.8987 47.8966 42.795 47.9229C42.526 47.9978 42.7596 47.7648 42.7426 47.7475C42.5458 47.5506 42.5001 47.7839 42.4093 47.9389C42.2627 47.8864 42.1605 47.8857 42.1092 47.9086C42.023 47.9469 42.0803 48.0554 42.3164 48.0996C42.3386 48.1034 42.3548 48.064 42.3698 48.0228C42.3828 47.9873 42.3947 47.9506 42.4093 47.9389C42.4645 47.9925 42.5079 48.0454 42.5394 48.097C42.6878 48.3384 42.5689 48.5527 42.174 48.6391C41.9488 48.6865 41.8254 48.4744 41.6967 48.8858C41.6362 49.0709 41.9245 49.143 41.9085 49.3335C41.8685 49.7737 41.3597 50.0812 41.1616 50.4349C41.0879 50.5662 41.3009 50.5374 41.2542 50.631C41.1285 50.881 40.8858 51.0056 40.7635 51.2543C40.7522 51.2774 40.9192 51.333 40.8664 51.4016C40.4597 51.9296 39.9996 52.2688 39.4948 52.7373C39.3244 52.8954 39.0863 53.1671 38.8522 53.3833C38.7578 53.471 38.6654 53.5493 38.5829 53.6068C38.1134 53.9383 37.3568 54.1596 36.9876 54.4485C36.7325 54.6457 36.8752 54.751 36.8103 54.9191C36.6743 55.2514 36.072 55.1297 35.9923 55.1015C35.9904 55.1008 36.2116 54.9401 36.0445 54.9326C35.889 54.8152 35.9949 55.0992 35.9923 55.1015C35.9398 55.0873 35.4328 55.298 35.3435 55.3721C35.2964 55.4132 35.3932 55.5403 35.3671 55.5592C34.7673 55.9947 34.063 56.3194 33.3519 56.4881C33.3387 56.4894 33.2998 56.3179 33.2695 56.3229C33.2495 56.3259 33.23 56.3295 33.211 56.3334C32.826 56.4134 32.6324 56.684 32.3324 56.9003C32.0362 57.121 31.7437 57.1568 31.4655 56.9202C31.2154 57.0262 30.7942 56.9932 30.5659 56.9631C30.3425 56.9322 30.377 57.2724 30.3594 57.2834C29.8138 57.624 29.4163 57.5042 28.7996 57.5825C28.5161 57.6179 27.951 57.7575 27.6347 57.8387C27.4281 57.893 27.2828 57.8611 27.1072 57.895C27.0711 57.8983 27.0335 57.9041 26.9941 57.9137C26.9625 57.9212 27.006 58.0719 26.9967 58.0779C26.744 58.2646 26.846 57.8916 26.787 57.8265C26.5742 57.5888 26.4487 57.4625 26.1251 57.5743C26.0518 57.5999 25.8489 58.1312 25.7069 58.1591C25.5169 58.1941 25.5844 58.0048 25.3848 58.0448C25.3676 58.048 25.3723 58.1663 25.2477 58.1564C24.672 58.1114 24.0485 57.9974 23.4357 57.9334C23.3534 57.9243 23.4373 58.1233 23.3171 58.1129C22.7648 58.0657 22.1338 57.9471 21.6338 57.7385C21.5058 57.6853 21.6198 57.5778 21.6 57.5332C21.4799 57.2632 21.1487 57.5279 21.1037 57.5218C20.0767 57.3992 19.4419 56.8282 18.4385 56.4426C18.3883 56.4272 17.7982 56.5045 17.796 56.1234C17.7936 56.097 17.8096 55.7228 17.5415 55.801C17.5242 55.8054 17.5312 56.0143 17.3618 55.8718C17.1944 55.7305 16.8416 55.5956 16.7322 55.258C16.695 55.1497 16.7491 54.771 16.3721 54.759C16.3498 54.7654 15.6223 54.8496 15.8095 54.4575C15.8336 54.4099 16.0279 54.2475 15.9577 54.1277C15.9351 54.089 15.8852 54.0545 15.7928 54.0268C15.7195 54.0049 15.7229 54.1556 15.5684 54.0624C15.3251 53.9113 15.2173 53.5859 14.8802 53.4299C14.8222 53.4055 14.4461 53.3629 14.524 53.079C14.5366 53.0352 14.686 53.0081 14.6453 52.914C14.466 52.4863 14.1483 52.1027 14.0299 51.63C13.9923 51.4708 14.2327 51.4474 14.2193 51.2731C14.2054 51.0988 14.129 50.7725 13.9678 50.6475C13.8056 50.5211 13.5398 50.838 13.4138 50.5937C12.8832 49.558 12.8006 48.409 12.6193 47.3144C12.5938 47.1565 12.4908 47.3119 12.4449 47.0786C12.2606 46.1822 11.9677 44.7181 12.1899 43.9264C12.3666 43.3238 12.5888 44.0482 12.6459 43.5952C12.6734 43.3781 12.2382 43.1657 12.2218 43.112C12.2214 43.1106 12.221 43.1093 12.2205 43.1079C12.0581 42.589 12.2296 42.2085 12.1599 41.7644C12.1455 41.6699 11.977 41.7676 11.9666 41.6867C11.9299 41.41 12.0013 41.1129 11.985 40.8405C11.9773 40.7182 11.8469 40.7416 11.8563 40.6281C11.8777 40.3451 11.9332 40.1331 12.0577 39.8798C12.069 39.8571 12.2302 40.0123 12.2379 39.8223C12.25 39.5141 12.3773 39.1294 12.2625 38.7598C12.228 38.65 11.9294 38.6373 12.1428 38.407C12.1875 38.36 12.5436 38.4298 12.2432 38.1522C12.193 38.1085 11.7922 37.6537 12.0716 37.4461C12.145 37.3917 12.4448 37.2589 12.4051 37.1292C12.3986 37.1115 12.235 37.1731 12.2247 37.0662C12.1911 36.6903 12.2313 36.2892 12.2066 35.8938C12.1993 35.7938 12.0241 35.9308 12.0186 35.7818C12.0033 35.372 12.0835 34.8566 12.1687 34.4478C12.2004 34.2971 12.3289 34.4135 12.3447 34.4036C12.6016 34.2456 12.2833 34.1125 12.2693 34.0511C12.1866 33.6685 12.3661 33.3962 12.3554 33.0727C12.3531 32.9813 12.1912 33.0307 12.1789 33.0114C12.0609 32.8113 12.3276 32.9774 12.3697 32.8618C12.4706 32.5878 12.504 32.2767 12.5219 31.9773C12.5251 31.9229 12.5278 31.8688 12.5303 31.8155C12.5361 31.6881 12.3405 31.8115 12.3479 31.6971C12.3905 30.9979 12.4833 30.3408 12.6611 29.7062C12.6949 29.5871 12.8244 29.6804 12.8592 29.6589C13.1021 29.5121 12.8317 29.2174 12.8104 29.154C12.7129 28.8666 12.8492 28.7762 12.8575 28.5316C12.891 27.3703 13.1739 25.9595 13.3902 24.8714C13.6576 23.535 13.9775 22.3748 14.1601 21.1081C14.1623 21.0931 14.1644 21.0781 14.1666 21.063C14.1788 20.9783 13.9811 21.0324 13.9893 20.9589C14.1019 20.0245 14.3489 19.0355 14.4595 18.1194C14.4693 18.0421 14.2759 18.1212 14.2858 17.996C14.3049 17.739 14.3728 17.4188 14.4757 17.1703C14.5255 17.0491 14.6432 17.2456 14.6904 17.123C14.8004 16.8375 14.8718 16.5208 14.9015 16.2075C14.9138 16.074 14.6996 16.2389 14.7294 16.0679C14.9317 14.8896 15.1051 13.8239 15.5665 12.6885C15.5981 12.6114 15.9715 12.6122 15.9363 12.4278C15.839 12.3952 15.7215 12.3727 15.616 12.346C15.7343 11.6247 15.866 11.0046 16.0219 10.3273C16.2421 9.37336 16.501 8.36222 16.7136 7.40419C16.7288 7.33573 16.5138 7.41453 16.5422 7.28172C16.7065 6.5126 16.8146 5.74316 17.1769 4.9736C17.2127 4.8971 17.5378 5.01021 17.5382 4.76202C17.5379 4.71837 17.5706 4.35018 17.5182 4.24122C17.51 4.22621 17.34 4.25829 17.3605 4.14125C17.4808 3.46909 17.6608 2.8137 17.9006 2.17498C17.9395 2.07267 18.0806 2.22168 18.1097 2.14912C18.315 1.63433 18.3186 1.0196 18.5846 0.532712C18.7634 0.206765 19.0213 0.399444 19.3446 0.276772C19.3902 0.259456 19.4448 0.0442021 19.6114 0.0695303C20.0304 0.132835 20.4588 0.338532 20.9082 0.393583C21.0049 0.405739 20.9677 0.0927139 21.1582 0.31566C21.1708 0.33115 21.1999 0.558183 21.2661 0.627033C21.3118 0.674935 21.4931 0.647371 21.5455 0.735985C21.5978 0.824538 21.44 0.87387 21.4938 1.01296C21.5487 1.15209 21.7503 1.1413 21.7193 1.38726ZM29.5553 56.8138C29.3342 56.6912 29.3928 57.2894 29.5878 57.1049C29.5971 57.0953 29.5667 56.8197 29.5553 56.8138ZM43.6683 39.971C43.4007 40.2221 43.7834 40.4069 43.9915 40.2295C44.1991 40.0497 43.7493 39.8932 43.6683 39.971ZM43.429 37.3271C43.234 37.6321 44.0835 37.6461 43.8985 37.332C43.8879 37.3137 43.4403 37.3092 43.429 37.3271ZM19.2347 1.15135C19.243 1.15047 19.2847 0.998012 19.2779 0.992584C19.1106 0.869376 19.0273 1.17439 19.2347 1.15135ZM43.0577 34.7403C42.9502 34.8399 43.1017 35.0941 43.2356 34.9698C43.3434 34.8693 43.1915 34.6157 43.0577 34.7403ZM19.5445 55.2799C19.5456 55.2707 19.4491 55.212 19.4279 55.2575C19.3592 55.4052 19.5232 55.4374 19.5445 55.2799ZM42.7317 30.3439C42.7337 30.9974 42.0613 31.435 42.097 30.7169C42.1038 30.5857 42.3362 30.9853 42.3897 30.8155C42.4873 30.5071 42.0375 30.3294 42.26 30.0156C42.3006 29.9596 42.7328 30.3071 42.7327 30.345C42.7324 30.3447 42.732 30.3443 42.7317 30.3439ZM29.333 56.1253C29.3281 56.1183 29.1728 56.1409 29.1701 56.1493C29.1133 56.3539 29.4291 56.308 29.333 56.1253ZM15.5671 50.3597C15.5784 50.3466 15.4576 50.0145 15.4397 50.0079C15.0784 49.9482 15.3286 50.6391 15.5671 50.3597ZM38.3863 51.5216C38.3776 51.2689 38.4959 51.1217 38.7578 51.1978C38.6347 51.3041 38.5155 51.4173 38.3863 51.5216Z" fill="black"/>
</svg>
