<svg width="53" height="56" viewBox="0 0 53 56" fill="none" xmlns="http://www.w3.org/2000/svg">
<path d="M1.11554 15.5061C1.26645 15.4424 1.47218 15.4828 1.63012 15.5475C1.67961 15.5675 1.66348 15.675 1.69799 15.6936C1.76545 15.7299 1.82131 15.6735 1.88832 15.7176C1.91057 15.7328 1.8972 15.9022 1.92024 15.9142C2.04598 15.9791 2.15681 15.9278 2.28517 15.9537C2.91114 16.0824 3.5056 16.0995 4.12897 16.1265C4.33167 16.1355 4.58782 16.2678 4.79511 16.184C4.81903 16.1741 4.79242 16.0284 4.79611 16.0159C4.85421 15.8246 4.85404 16.1232 4.90502 16.1587C5.10723 16.2988 5.31751 16.295 5.49228 16.2234C5.49333 16.2229 5.49435 16.2224 5.49534 16.2219C5.56374 16.1844 5.46699 15.9093 5.55615 16.0644C5.56241 16.075 5.55611 16.2326 5.57841 16.2475C5.62786 16.2811 5.71951 16.2453 5.75772 16.2545C5.8323 16.273 5.84415 16.2704 5.91267 16.2664C6.00641 16.2623 6.12372 16.3304 6.2201 16.2865C6.24063 16.2767 6.19883 16.1192 6.2303 16.0891C6.26182 16.0591 6.35225 16.0649 6.38552 16.1C6.41882 16.1351 6.41691 16.2619 6.42472 16.2902C6.48961 16.5295 6.56319 16.1839 6.57557 16.1744C6.8031 16.0116 7.03517 16.1843 7.2621 16.1633C7.43538 16.1469 7.61293 16.0669 7.77658 16.0605C7.97651 16.053 8.15198 16.1238 8.34096 16.0908C8.3609 16.0875 8.31944 15.9019 8.34374 15.8975C8.60144 15.8508 8.85856 15.8463 9.13464 15.9466C9.16208 15.9569 9.14492 16.1251 9.17333 16.1452C9.34691 16.2646 9.63222 16.5641 9.65101 15.837C9.75873 15.8541 9.89552 15.869 10.0078 16.0032C10.0698 16.0771 10.0482 16.2239 10.0838 16.2117C10.0898 16.2096 10.0975 16.203 10.1074 16.1908C10.1229 16.1718 10.0836 16.0171 10.1081 16.0006C10.2112 15.9314 10.3355 15.9696 10.4335 15.8767C10.4534 15.8574 10.432 15.7173 10.4354 15.6913C10.4645 15.4804 10.5876 15.8102 10.6091 15.8327C10.77 16.001 10.8707 15.9163 11.0055 15.9055C11.0369 15.903 10.9783 15.7183 11.0077 15.7091C11.1604 15.6642 11.3222 15.6617 11.4825 15.7276C11.5182 15.7427 11.5066 15.9072 11.5247 15.9227C11.6042 15.9888 11.5833 15.6831 11.6584 15.7407C11.6742 15.7524 11.6829 15.8911 11.6873 15.9059C11.7563 16.1384 11.7526 15.7975 11.762 15.7888C11.8844 15.671 12.0135 16.0114 12.1368 15.9455C12.1514 15.9372 12.0948 15.7675 12.1373 15.755C12.419 15.6707 12.727 15.6792 13.0341 15.7791C13.0814 15.7944 13.0675 15.9294 13.0725 15.9451C13.1524 16.1905 13.1359 15.8493 13.1485 15.8347C13.2496 15.7277 13.3952 15.9954 13.4152 15.5833C13.8221 15.6399 14.183 15.4605 14.589 15.5321C14.6891 15.5497 14.7912 15.5827 14.8968 15.6382C14.9036 15.6413 14.9196 15.8085 14.9329 15.8141C15.0938 15.8831 15.0239 15.6306 15.0669 15.3007C15.0776 15.2178 15.2138 15.5849 15.2251 15.6116C15.266 15.71 15.2828 15.96 15.2941 15.9785C15.3875 16.1229 15.2392 15.3119 15.3283 15.2964C15.3313 15.2973 15.3451 15.4489 15.3552 15.4625C15.3865 15.5052 15.3994 15.4418 15.4311 15.4893C15.5036 15.5995 15.591 15.9909 15.6308 15.7473C15.6356 15.7157 15.5399 15.2578 15.6225 15.2657C15.6557 15.2692 15.793 15.2366 15.837 15.2594C15.8811 15.2822 15.8813 15.4353 15.8852 15.4412C16.0253 15.6184 16.0004 15.7068 16.1061 15.9875C16.2117 16.2669 16.0709 15.58 16.0784 15.4991C16.086 15.4184 16.1939 15.5656 16.2237 15.6182C16.2534 15.6708 16.247 15.7694 16.27 15.798C16.4224 15.9846 16.2555 15.4467 16.272 15.3304C16.3098 15.0552 16.4744 15.553 16.564 15.5876C16.5882 15.5969 16.5481 15.4841 16.5651 15.4695C16.6326 15.4133 16.7094 15.5636 16.7661 15.4007C16.7759 15.3741 16.782 15.0541 16.8733 15.2697C16.8863 15.3008 16.8935 15.4315 16.9319 15.4534C16.9893 15.4863 17.0827 15.4961 17.1261 15.443C17.158 15.4036 17.0709 15.2037 17.1325 15.2586C17.16 15.2832 17.1455 15.4137 17.1951 15.4496C17.2444 15.4856 17.3458 15.4587 17.3837 15.4462C17.4215 15.4337 17.3667 15.2798 17.3675 15.2685C17.3735 15.2033 17.4309 15.1112 17.4374 15.11C17.7611 15.0202 18.1296 15.2164 18.4273 15.0521C18.4511 15.0394 18.3943 14.8774 18.3975 14.8737C18.4671 14.7833 18.5054 15.2412 18.6021 15.3741C18.5116 15.0395 18.5622 15.0918 18.6141 15.04C18.639 15.0147 18.591 14.8883 18.5904 14.8743C18.5849 14.6658 18.6779 14.914 18.6987 14.9643C18.7752 15.1494 18.7498 14.9145 18.8014 15.0381C18.8529 15.1606 18.8551 15.3609 18.913 15.3438C18.899 15.2194 18.777 14.9159 18.8081 14.8539C18.8561 14.7575 18.9464 14.7293 19.0458 14.7285C19.1897 14.727 19.3538 14.7808 19.436 14.7746C19.5755 14.7641 19.6118 14.7302 19.7006 14.752C19.8612 14.7911 19.7444 14.5741 19.8008 14.4437C19.8568 14.3132 19.9781 14.8939 20.0257 15.0126C20.0732 15.1313 20.0506 15.0016 20.0854 15.0643C20.1203 15.127 20.1108 15.2197 20.1545 15.2344C20.1985 15.249 20.2342 15.0029 20.209 14.8716C20.1561 14.5934 20.0288 14.3227 20.1516 14.3947C20.1588 14.399 20.1856 14.5533 20.2108 14.5622C20.4094 14.6281 20.5804 14.5835 20.7782 14.632C20.8054 14.639 20.8373 14.8104 20.8538 14.8163C21.0255 14.8778 20.8877 14.6154 20.8626 14.2829C20.9783 14.6989 21.1011 14.9368 21.2069 14.9048C21.2704 14.8857 21.2005 14.7103 21.1989 14.5709C21.1982 14.529 21.2831 14.6371 21.2629 14.5504C21.1972 14.2668 21.0526 13.9734 21.1994 14.0602C21.206 14.0644 21.242 14.2196 21.2612 14.2233C21.3855 14.2474 21.2999 13.9565 21.3981 13.8835C21.475 13.8264 21.6901 13.9461 21.7987 13.9385C21.9615 14.3955 22.0197 14.2561 21.9415 13.9283C22.0106 13.9175 22.073 13.8739 22.1511 13.8938C22.1779 13.9005 22.2137 14.0372 22.2217 14.0503C22.3477 14.2572 22.26 13.9423 22.269 13.9252C22.3733 13.7525 22.5844 13.9346 22.6375 13.6535C22.6393 13.6433 22.5213 13.3277 22.651 13.5406C22.6599 13.5553 22.6706 13.7164 22.7416 13.7004C22.8123 13.6846 23.0075 13.7996 23.0391 13.6168C23.047 13.5727 22.9957 13.2974 23.1241 13.475C23.1415 13.4991 23.1729 13.5908 23.2027 13.6365C23.2985 13.7819 23.1794 13.4624 23.327 13.7139C23.4452 13.9152 23.5696 14.0631 23.6219 13.9987C23.6349 13.9827 23.6433 13.9536 23.646 13.9089C23.6467 13.9023 23.5596 13.6456 23.5904 13.6366C23.6399 13.6223 23.729 13.644 23.7769 13.6203C23.7997 13.6089 23.7156 13.463 23.7183 13.4584C23.8338 13.3026 24.0068 13.387 24.2008 13.3663C24.2369 13.3626 24.2239 13.1151 24.3613 13.2491C24.5127 13.3951 24.8081 14.1672 24.8739 13.9158C24.9022 13.8142 24.5068 12.8446 24.8581 13.2725C25.0032 13.0476 25.3241 13.1909 25.4384 12.9099C25.4436 12.8974 25.3321 12.6262 25.3552 12.6179C25.3899 12.6061 25.4735 12.7155 25.5006 12.7106C25.616 12.6932 25.6457 12.5425 25.7452 12.5062C25.783 12.492 25.8412 12.621 25.8865 12.6039C25.9318 12.5866 25.8657 12.4105 25.9664 12.4552C26.0428 12.4895 26.2782 12.7906 26.3578 12.7946C26.1684 12.4722 26.2108 12.456 26.2276 12.3305C26.2307 12.3063 26.1494 12.2034 26.1474 12.1862C26.1375 12.1138 26.2165 12.192 26.2021 12.1153C26.1987 12.0968 26.1324 11.9876 26.1259 11.9664C26.0671 11.782 26.2817 11.9871 26.3195 12.0225C26.4625 12.1574 26.395 12.0037 26.4674 12.0467C26.54 12.0895 26.5402 12.1996 26.6029 12.2139C26.7331 12.2431 26.8256 12.1599 26.91 12.1123C26.9433 12.0927 26.8286 11.9638 26.8312 11.9577C26.8742 11.8785 27.0408 11.986 26.8905 11.6786C27.4194 12.3811 26.8833 11.5814 27.0733 11.6659C27.0885 11.6729 27.329 12.0115 27.3339 12.0814C27.3387 12.1514 27.2233 12.0723 27.2355 12.178C27.2386 12.2028 27.3971 12.564 27.4021 12.5888C27.4429 12.7822 27.0962 12.2676 27.0747 12.241C26.8396 11.9553 27.0004 12.3501 26.9977 12.3862C26.9876 12.5503 26.8712 12.5206 26.8529 12.6438C26.8405 12.7238 27.0506 13.0715 27.0079 13.0834C26.8654 13.1232 26.5304 12.6636 26.6715 13.1525C26.7013 13.2568 26.9539 13.6233 26.6862 13.3765C26.6691 13.3611 26.4412 13.1249 26.5064 13.321C26.5146 13.3457 26.5804 13.4572 26.5796 13.4703C26.573 13.5557 26.4927 13.4833 26.4715 13.5527C26.4503 13.6221 26.4312 13.7181 26.3563 13.7104C26.3112 13.706 26.1512 13.5195 26.107 13.4766C25.9808 13.3527 26.0715 13.6215 25.9443 13.4567C25.817 13.2907 25.7149 12.9877 25.5815 12.909C25.7424 13.2043 25.9041 13.5092 26.0639 13.8072C25.9019 13.8836 25.6966 13.8711 25.5462 13.9672C25.5276 13.9794 25.6319 14.1288 25.6141 14.1461C25.5381 14.2184 25.4009 14.1444 25.3317 14.2374C25.2785 14.31 25.2853 14.5209 25.2302 14.6022C25.0123 14.2809 24.9591 14.4529 24.8616 14.4609C24.8277 14.4638 24.7849 14.3704 24.7501 14.3499C24.62 14.2749 24.8028 14.5642 24.8048 14.6226C24.8116 14.8724 24.4739 14.1809 24.3772 14.2473C24.3722 14.2504 24.4763 14.6545 24.4771 14.6822C24.4859 14.8617 24.4071 14.5573 24.3564 14.5473C24.2641 14.5288 24.1761 14.4612 24.1444 14.6073C24.1355 14.6503 24.1823 14.9096 24.0555 14.7494C24.0389 14.7284 23.9873 14.603 23.9792 14.5979C23.9157 14.5611 23.9148 14.6192 23.9335 14.7086C23.9566 14.8187 24.0096 14.9761 24.013 15.0615C24.0188 15.2164 23.8222 14.9807 23.7731 14.9095C23.6448 14.7259 23.7683 14.8097 23.7621 14.7889C23.6873 14.5422 23.6478 14.6073 23.5958 14.6059C23.4256 14.2244 23.376 14.2726 23.5429 14.6059C23.5612 14.6422 23.5797 14.5921 23.5958 14.6059C23.7189 14.999 23.6699 15.0768 23.4482 14.7543C23.3444 14.6031 23.2967 14.3964 23.2219 14.5102C23.1877 14.5616 23.3154 14.8201 23.3027 14.9101C23.2729 15.1157 23.0453 14.9179 22.961 14.9964C22.9304 15.025 23.0234 15.1576 23.0043 15.1822C22.9535 15.248 22.8523 15.1606 22.8074 15.2427C22.8033 15.2503 22.8773 15.3985 22.8571 15.4085C22.7052 15.4871 22.5291 15.4402 22.362 15.4978C22.282 15.5256 22.169 15.6624 22.0792 15.6744C21.9241 15.6963 21.6674 15.5304 21.564 15.6261C21.4957 15.688 21.5649 15.8387 21.5653 15.9568C21.5658 16.186 21.3259 15.8536 21.292 15.801C21.291 15.7992 21.3485 15.7399 21.2855 15.6713C21.21 15.5103 21.2926 15.8 21.292 15.801C21.2696 15.7673 21.1193 15.7759 21.101 15.8146C21.0911 15.8357 21.1463 15.9821 21.1402 15.9903C20.9929 16.1831 20.8186 16.2775 20.6062 16.2639C20.6019 16.2618 20.5577 16.0927 20.5484 16.09C20.4166 16.0477 20.4057 16.2733 20.3481 16.4216C20.2911 16.5697 20.2073 16.5491 20.0733 16.275C20.015 16.3304 19.8815 16.2295 19.8041 16.167C19.7268 16.1046 19.8071 16.4351 19.8038 16.443C19.7299 16.6261 19.6329 16.587 19.5207 16.5577C19.4801 16.547 19.4374 16.5376 19.3924 16.5408C19.3123 16.5459 19.1719 16.6321 19.0968 16.6889C19.0377 16.7344 18.9788 16.6667 18.9296 16.7311C18.9229 16.7398 18.9669 16.8849 18.9658 16.8912C18.9395 17.0839 18.8857 16.7161 18.856 16.6552C18.7487 16.4338 18.6869 16.317 18.628 16.4472C18.6144 16.477 18.6786 17.0095 18.6487 17.0485C18.61 17.0981 18.5847 16.9078 18.5453 16.9645C18.5419 16.9692 18.5694 17.0838 18.5373 17.0859C18.3887 17.097 18.2166 17.0654 18.0685 17.11C18.0481 17.1157 18.1146 17.2925 18.0858 17.3037C17.953 17.3554 17.8001 17.381 17.647 17.3236C17.6092 17.3089 17.6034 17.1764 17.5882 17.1398C17.4963 16.9188 17.503 17.2663 17.4937 17.2749C17.2752 17.4874 17.0312 17.2205 16.8075 17.4133C16.7957 17.4244 16.7578 17.8045 16.6521 17.5046C16.6449 17.4847 16.5392 17.1775 16.5381 17.4013C16.5381 17.4153 16.5976 17.5725 16.5435 17.5654C16.4893 17.5584 16.4266 17.6823 16.3258 17.5158C16.2936 17.4634 16.1854 17.1572 16.1656 17.4204C16.1649 17.4387 16.1647 18.0258 16.0588 17.6395C16.0415 17.5759 15.9744 17.1593 15.9339 17.3861C15.9262 17.43 15.9696 17.518 15.9402 17.5828C15.8952 17.6826 15.7956 17.5851 15.7524 17.7832C15.745 17.8182 15.737 18.1101 15.6557 17.9034C15.643 17.871 15.6329 17.7299 15.6066 17.7183C15.4837 17.6624 15.3842 17.7744 15.2559 17.6966C15.2106 17.6692 15.1944 17.4412 15.1433 17.3876C15.0922 17.3341 14.9996 17.2896 14.9725 17.3992C14.9453 17.509 15.0501 17.8598 14.989 17.8989C14.9812 17.904 14.9733 17.9087 14.9653 17.9131C14.6996 18.0598 14.405 17.9007 14.1233 17.9114C14.0804 17.9129 14.1342 18.0363 14.0722 18.0478C13.8395 18.0916 13.4711 18.2658 13.2331 18.0192C13.0448 17.8215 13.2222 17.6279 13.0891 17.555C13.0251 17.5202 13.017 17.9469 13.0044 17.962C12.8818 18.1143 12.7662 17.9408 12.6498 18.0136C12.626 18.0286 12.6726 18.1951 12.652 18.206C12.5817 18.2449 12.4941 18.1791 12.4247 18.2018C12.3936 18.2124 12.4157 18.3413 12.385 18.335C12.3117 18.3213 12.2425 18.2746 12.1586 18.1616C12.151 18.1513 12.1734 17.9848 12.1205 17.9852C12.0344 17.9864 11.9151 17.8792 11.8355 18.0144C11.8117 18.055 11.8459 18.3516 11.7604 18.1541C11.7425 18.1129 11.7166 17.755 11.682 18.071C11.6763 18.1235 11.6048 18.5526 11.5143 18.292C11.4904 18.2234 11.4168 17.9367 11.3877 17.9865C11.3839 17.9943 11.421 18.1514 11.3943 18.1703C11.2995 18.2339 11.1914 18.2291 11.0926 18.2908C11.0662 18.3076 11.1264 18.4678 11.0864 18.4875C10.9779 18.542 10.8344 18.5154 10.7183 18.4759C10.6756 18.461 10.6887 18.3213 10.6841 18.3067C10.6102 18.0701 10.6178 18.3996 10.6041 18.4204C10.5181 18.545 10.4264 18.3998 10.3396 18.4501C10.3156 18.4636 10.3501 18.6174 10.3465 18.6318C10.3454 18.6359 10.3444 18.6397 10.3434 18.6431C10.3094 18.7566 10.3169 18.4884 10.2817 18.4619C10.1807 18.3844 10.0766 18.408 9.98814 18.4374C9.95533 18.4484 10.0119 18.6251 9.98224 18.6329C9.8068 18.6826 9.61769 18.6845 9.4308 18.6027C9.39558 18.5869 9.40256 18.4457 9.39244 18.4147C9.32239 18.1972 9.28253 18.5074 9.26914 18.5379C9.2086 18.6771 9.16769 18.5569 9.10469 18.5863C8.803 18.7315 8.40862 18.6869 8.10269 18.6645C7.71061 18.6355 7.40285 18.5297 7.03267 18.5971C7.00916 18.6012 7.04938 18.7844 7.02931 18.7903C6.77198 18.858 6.51386 18.8074 6.25555 18.8833C6.23438 18.8892 6.28036 19.0622 6.24686 19.0776C6.17825 19.1103 6.08734 19.1084 6.0105 19.0584C5.97305 19.0343 6.00752 18.8796 5.97009 18.8584C5.88239 18.8089 5.794 18.8037 5.71414 18.8387C5.71396 18.8388 5.71378 18.8389 5.7136 18.839C5.68067 18.8559 5.74785 19.0293 5.70245 19.0352C5.39178 19.079 5.08396 19.1354 4.74237 18.9287C4.71874 18.9145 4.67033 18.5507 4.6303 18.6245C4.63501 18.7261 4.6448 18.8454 4.65201 18.9539C4.20659 19.0485 3.731 18.9585 3.27564 18.9742C3.25636 18.9749 3.30462 19.1659 3.26735 19.1683C3.05164 19.1821 2.84488 19.252 2.60634 19.0767C2.58268 19.0596 2.568 18.7181 2.50645 18.7746C2.49564 18.7849 2.40029 18.8379 2.3803 18.9138C2.37767 18.9252 2.40789 19.0829 2.37632 19.0899C2.19678 19.1279 2.00468 19.106 1.81488 19.0227C1.78426 19.0089 1.80276 18.8372 1.78084 18.826C1.62545 18.7473 1.47262 18.8883 1.31751 18.7454C1.2136 18.6491 1.22715 18.3537 1.15435 18.0694C1.14408 18.0293 1.08394 18.0274 1.06824 17.86C1.02864 17.439 1.02284 16.9753 0.97721 16.5269C0.967451 16.4303 0.895367 16.5405 0.925109 16.3031C0.927249 16.2872 0.979299 16.2052 0.987558 16.1248C0.993345 16.0692 0.962665 15.9001 0.977604 15.8284C0.992541 15.7567 1.0255 15.8979 1.05275 15.8129C1.07988 15.7269 1.05062 15.534 1.11554 15.5061ZM19.4575 15.8873C19.364 15.7429 19.5074 16.3237 19.5281 16.1703C19.529 16.1622 19.4622 15.8943 19.4575 15.8873ZM25.484 13.4724C25.2979 13.2728 25.4375 13.6378 25.5774 13.7942C25.718 13.95 25.5409 13.5326 25.484 13.4724ZM26.0262 12.9504C25.8524 12.8103 26.2619 13.5533 26.2541 13.3601C26.2538 13.349 26.0364 12.9584 26.0262 12.9504ZM1.38471 17.9696C1.38339 17.9617 1.34018 17.9572 1.33975 17.9651C1.33132 18.1563 1.41773 18.1652 1.38471 17.9696ZM26.5334 12.4035C26.4518 12.319 26.4595 12.4697 26.5607 12.575C26.6425 12.6595 26.6354 12.5083 26.5334 12.4035ZM16.6216 15.8738C16.6191 15.8652 16.5878 15.8631 16.5979 15.9125C16.6307 16.0714 16.6637 16.0184 16.6216 15.8738ZM27.5418 11.7333C27.3745 11.8096 26.8955 11.2873 27.0965 11.2463C27.1332 11.2386 27.161 11.4728 27.2329 11.5002C27.3653 11.5492 27.1597 11.1566 27.3615 11.3035C27.3988 11.3301 27.5526 11.7301 27.5421 11.7343C27.542 11.734 27.5419 11.7336 27.5418 11.7333ZM19.2454 15.2001C19.2424 15.1927 19.1994 15.1962 19.2004 15.204C19.2259 15.3936 19.313 15.3866 19.2454 15.2001ZM14.8124 15.8175C14.8075 15.8012 14.7088 15.8011 14.708 15.8169C14.7063 16.1317 14.9072 16.1328 14.8124 15.8175ZM21.8047 13.9501C21.7818 13.7552 21.8243 13.7156 21.9413 13.9282C21.8946 13.9318 21.8509 13.9458 21.8047 13.9501ZM18.5808 2.20821C18.6941 3.01191 18.7125 4.05049 18.6918 4.8747C18.6848 5.12117 18.5706 5.00399 18.5611 5.17694C18.5426 5.51612 18.617 5.8533 18.5885 6.17279C18.5788 6.28373 18.4024 6.15772 18.3961 6.27399C18.3699 6.80891 18.418 7.29712 18.4386 7.81704C18.4433 7.93449 18.4466 8.0541 18.4474 8.17646C18.4569 10.375 18.5042 12.5848 18.5435 14.7821C18.5614 15.7705 18.5771 16.7388 18.5882 17.7389C18.6002 18.8033 18.486 20.1012 18.5778 21.2019C18.5886 21.3298 18.7342 21.2501 18.747 21.2742C18.9308 21.632 18.6728 21.5442 18.615 21.7449C18.6116 21.7567 18.6089 21.7694 18.607 21.7833C18.4721 22.7825 18.4752 23.8836 18.5403 24.8412C18.5683 25.2482 18.8578 24.8376 18.6966 25.249C18.6857 25.2775 18.5285 25.1754 18.5125 25.2871C18.4769 25.5406 18.507 26.0193 18.4949 26.2157C18.471 26.5951 18.4726 26.6578 18.4705 27.0156C18.466 27.5041 18.3852 28.0833 18.4154 28.6111C18.4216 28.713 18.556 28.6011 18.5995 28.7143C18.6039 28.7256 18.6074 28.7392 18.6097 28.7556C18.6352 28.9351 18.6154 29.4068 18.5749 29.5643C18.5345 29.7236 18.4095 29.6537 18.3801 29.6816C18.1327 29.912 18.4596 30.4664 18.4662 30.5369C18.5799 31.8268 18.35 32.9162 18.2903 34.1293C18.2659 34.6256 18.254 35.1805 18.2359 35.6917C18.2222 36.0913 18.2006 36.5251 18.1655 36.9069C18.0679 37.9496 17.8955 38.7971 17.7738 39.8387C17.761 39.9453 17.9646 39.8467 17.9491 39.9772C17.8374 40.9089 17.678 41.839 17.4396 42.7113C17.3098 43.1902 17.159 43.6276 16.9597 44.097C16.9012 44.2324 16.8022 44.0053 16.7344 44.1362C16.3505 44.9194 15.5283 45.9268 15.7363 46.7139C15.7462 46.7528 15.7586 46.7913 15.7737 46.8295C15.4351 47.3401 14.9592 47.9361 14.4884 48.2481C14.1842 48.4484 14.2787 48.0771 14.048 48.4394C13.9946 48.52 14.1951 48.5395 14.1048 48.6529C13.7238 49.1276 13.1936 49.5201 12.7426 49.9219C12.7296 49.9335 12.7166 49.9451 12.7037 49.9567C12.6087 50.0425 12.7163 50.1401 12.7003 50.1818C12.5569 50.5319 11.9349 50.4954 11.8293 50.5201C11.0098 50.7419 10.4795 51.0182 9.72284 51.2025C9.54625 51.2425 9.79889 51.3795 9.6278 51.4243C9.29447 51.5086 8.93976 51.5683 8.58911 51.5952C8.00496 51.641 7.41186 51.5986 6.86095 51.4653C6.66428 51.4159 6.87206 51.2839 6.78084 51.252C6.39172 51.1074 6.23225 51.3844 5.85267 51.2071C5.77435 51.169 5.86192 51.0507 5.85149 51.0316C5.70125 50.735 5.39614 50.9787 5.33061 50.9605C4.85449 50.8357 4.55989 50.5521 4.27986 50.2732C4.10085 50.0938 3.92075 49.9102 3.68914 49.7377C3.61646 49.683 3.65749 49.9521 3.4583 49.7866C2.53615 49.0154 1.87782 47.8884 1.59129 46.7481C1.45725 46.2297 1.39267 45.7312 1.37473 45.2187C1.36864 44.97 1.51936 45.1328 1.53365 45.1149C1.75982 44.8458 1.41149 44.7079 1.39353 44.6217C1.26448 43.9771 1.58247 43.39 1.21819 42.9446C1.24455 42.7664 1.27321 42.5868 1.30447 42.4052C1.54593 40.9863 1.95743 39.4697 2.72432 38.1891C3.25474 37.2949 3.97138 36.4886 4.84929 35.9291C4.87792 35.9104 4.93993 36.0773 4.99597 36.0401C5.68241 35.6167 5.40087 35.5138 5.70641 34.9389C5.72421 34.908 5.76532 34.8887 5.81886 34.8784C6.01498 34.838 6.36145 34.9317 6.39534 34.9404C6.56174 34.9744 6.54684 35.2593 6.5958 35.2577C6.98146 35.2527 6.58634 34.5173 7.08564 34.3288C7.10131 34.3247 7.08802 34.4906 7.13412 34.4901C7.27586 34.4899 7.38342 34.3916 7.5237 34.4047C7.8483 34.4398 8.0282 34.8015 8.40905 34.4978C8.46055 34.4618 8.2938 34.0035 8.7683 33.9713C8.95309 33.947 9.78838 33.9282 10.0165 33.9947C10.2443 34.0469 10.0701 34.1815 10.0867 34.1896C10.1747 34.2285 10.2427 34.2646 10.2962 34.2978C10.5934 34.4897 10.4567 34.5669 10.643 34.8578C10.8451 35.2033 10.9328 34.5065 11.0726 34.4607C11.2153 34.4129 11.5851 34.7056 11.6591 34.7999C11.7368 34.8912 11.5806 34.9334 11.6548 34.997C12.1208 35.4237 12.0404 34.7834 12.2784 34.7689C12.8608 34.7607 12.9423 35.4287 13.244 35.7209C13.33 35.8043 13.3251 35.6508 13.4168 35.7084C13.7343 35.9164 13.8241 36.1563 14.1331 36.3811C14.18 36.4156 14.2304 36.4484 14.2884 36.4824C14.355 36.5158 14.8639 36.625 14.8364 36.9743C14.831 37.0224 14.6685 37.0207 14.7505 37.1798C14.875 37.4169 15.1124 37.8381 15.2838 38.0618C15.4146 38.2323 15.4841 37.9137 15.5553 38.1855C15.5853 38.3066 15.3715 38.1666 15.4354 38.3878C15.497 38.5967 15.7301 39.104 15.8088 39.3059C15.8874 39.4977 15.998 39.3348 16.0142 39.3463C16.1108 39.4175 16.3211 39.7875 16.3311 39.8257C16.3613 39.9158 16.3916 40.0127 16.4167 40.0988C16.8348 41.5415 16.8065 43.0026 16.8203 44.4018C16.8204 44.4108 16.8206 44.4159 16.8209 44.424C16.8212 44.4315 16.8217 44.439 16.8222 44.4465C16.8228 44.454 16.8235 44.4615 16.8243 44.469C16.8251 44.4764 16.826 44.4838 16.8271 44.4911C16.8281 44.4984 16.8293 44.5056 16.8305 44.5126C16.8319 44.5204 16.8328 44.5247 16.8345 44.5331C16.8677 44.6924 16.9039 44.8494 16.9438 45.0041C16.9772 45.134 17.1269 45.0132 17.1337 45.0327C17.2972 45.4679 16.7779 45.203 16.6968 45.553C17.0264 45.4363 17.004 45.6365 17.1131 45.9422C17.1668 46.0923 17.2782 45.9782 17.2948 45.9893C17.5459 46.1688 17.3277 46.3812 17.2854 46.4348C17.13 46.6313 17.3997 46.739 17.2982 46.8719C17.1983 47.0067 16.9473 46.8242 17.0312 47.1251C17.1736 47.1754 17.426 46.8706 17.5383 47.0804C17.59 47.1779 17.6389 47.2861 17.6854 47.4014C18.0114 48.2521 18.3274 49.5602 18.6219 50.1037C18.6327 50.1252 18.6434 50.1461 18.6539 50.1665C18.9543 50.7349 19.1059 50.8998 19.3073 51.2352C19.7132 51.8476 19.7265 51.4861 20.1055 51.7181C20.4949 51.9301 19.9511 52.2298 19.9131 52.3685C19.8804 52.509 20.0221 52.458 20.0419 52.5646C20.0636 52.6725 19.8647 52.6225 20.0056 52.7702C20.031 52.7964 20.0706 52.8233 20.1193 52.8486C20.3432 52.9692 20.7561 53.0319 20.8598 52.9654C21.1294 52.7974 21.0831 52.4334 21.4483 52.7597C21.4699 52.7783 21.316 52.8721 21.4027 52.9367C21.8859 53.2892 22.4618 53.5424 23.046 53.7535C23.305 53.8482 23.5843 53.9395 23.8428 54.0267C23.9603 54.0659 23.8177 54.2134 23.8866 54.2382C24.6116 54.4857 24.3973 54.1468 24.8459 53.8878C24.697 54.3007 24.8767 54.6009 25.4599 54.6637C25.7932 54.6974 25.764 54.5151 25.9767 54.4C25.983 54.3966 25.9895 54.3933 25.9962 54.39C26.0657 54.3555 26.2941 54.5005 26.3447 54.4145C26.5053 54.1327 26.2997 53.7998 26.8686 53.9555C26.8933 53.9627 26.8075 54.1179 26.8935 54.131C27.4626 54.2132 27.5265 53.9115 28.1415 53.8772C28.3604 53.8639 28.6557 53.8933 28.981 53.9273C29.3627 53.9592 29.7526 53.9976 30.0445 53.9932C30.0516 54.4798 30.5802 54.3293 30.7658 53.9754C31.1261 53.9567 31.4866 53.8995 31.8459 53.9014C31.9658 53.9023 31.905 54.0514 31.9217 54.0647C32.1815 54.2718 32.2925 53.9273 32.3646 53.9042C33.1272 53.676 33.7987 53.7668 34.4786 53.4243C34.5192 53.4035 34.5594 53.381 34.5994 53.3568C34.6232 53.3418 34.5863 53.0048 34.8526 53.1896C34.8708 53.2023 34.6534 53.4181 35.0205 53.3334C35.375 53.2533 36.1201 53.2136 36.5406 52.8834C36.6496 52.8026 36.8367 52.4349 37.1455 52.5321C37.1875 52.5454 37.193 52.6486 37.2587 52.6784C37.4706 52.7718 37.4115 52.4246 37.7032 52.6056C37.9957 52.7851 38.4635 52.7985 38.8323 52.3436C38.8447 52.3293 38.8119 52.0342 38.9515 51.9497C39.1549 51.8275 39.4458 51.6807 39.6599 51.5288C39.6881 51.509 39.7149 51.4892 39.7401 51.4694C39.8452 51.3865 39.6742 51.3071 39.6907 51.2905C40.3152 50.67 40.8625 50.3428 41.5103 49.6315C41.6317 49.4994 41.7377 48.9651 42.0649 48.7807C42.4262 48.5658 42.9403 49.3353 43.2167 48.4447C43.3077 48.1398 42.8314 47.5225 43.0421 47.1235C43.0911 47.0302 43.1762 46.9469 43.3127 46.8792C43.6449 45.7123 44.2167 44.6937 44.283 43.4549C44.2867 43.3963 44.0354 43.1715 44.063 43.0501C44.1049 42.8683 44.2576 42.7908 44.2906 42.6581C44.3742 42.3275 44.3937 42.0191 44.4149 41.7045C44.4296 41.4825 44.4458 41.2497 44.4817 41.0299C44.514 40.8274 44.645 40.9166 44.6825 40.6716C44.7191 40.4267 44.5542 40.2354 44.6772 39.9118C44.77 39.6707 45.1713 39.4532 45.2441 39.1128C44.8724 39.0692 44.9008 38.8312 44.8311 38.4215C44.8175 38.3417 44.6818 38.4167 44.6687 38.3785C44.6124 38.2233 44.7293 38.0899 44.6656 37.9399C44.6503 37.9035 44.523 37.8939 44.5033 37.8637C44.3315 37.6005 44.6388 37.2291 44.6922 37.1604C44.895 36.907 44.7347 36.7745 44.8182 36.5729C44.9014 36.3706 44.9821 36.6821 45.0373 36.4434C45.061 36.3397 45.0797 36.2316 45.0946 36.123C45.1515 35.7054 45.1531 35.2172 45.1662 34.819C45.1719 34.6224 44.9987 34.7531 44.9955 34.7249C44.9608 34.3185 45.1475 33.9004 44.8104 33.6645C45.6908 33.3805 44.7284 33.4184 44.9069 32.8325C44.9212 32.7863 45.3366 32.7285 45.3968 32.9071C45.457 33.0869 45.3256 33.3497 45.4181 33.6001C45.4399 33.6602 45.8248 34.0058 45.8475 34.0523C46.0264 34.418 45.4048 34.4566 45.3705 34.475C44.9994 34.6812 45.4091 35.0961 45.4349 35.2111C45.5158 35.5527 45.4956 35.8531 45.4981 36.1376C45.4994 36.2715 45.5055 36.412 45.5305 36.5495C45.58 36.8268 45.9845 36.872 45.9618 37.0864C45.8852 37.7837 45.3029 38.021 45.7453 38.7147C45.8383 38.8678 46.2945 38.7491 45.9027 39.2521C45.8781 39.2846 45.5262 39.6422 45.7054 39.88C45.728 39.9101 45.8569 39.9219 45.8641 39.9595C45.9101 40.2058 45.7888 40.3738 45.8071 40.6482C45.8246 40.9284 45.8588 41.2492 45.7711 41.5623C45.7414 41.6683 45.6395 41.7808 45.544 41.8717C45.4721 41.9402 45.4038 41.9966 45.3729 42.0306C45.1673 42.2504 45.3978 42.5621 45.1668 42.6864C44.9353 42.8058 44.6799 42.4506 44.4757 42.8286C44.8037 42.9043 45.1367 43.0017 45.4645 43.0884C45.2831 43.9918 44.9683 44.8583 44.706 45.7548C44.6729 45.8679 44.8816 45.8067 44.8501 45.9299C44.7164 46.4434 44.4344 46.8475 44.2706 47.3747C44.2463 47.4537 44.2231 47.5435 44.2035 47.6318C44.1218 47.9957 44.0793 48.3872 43.9325 48.7458C43.4635 48.8158 43.2375 49.4684 42.9196 49.86C42.8096 49.9972 42.7317 49.9287 42.6324 50.0094C42.2562 50.3092 42.6561 50.3387 42.6202 50.475C42.4449 51.0606 41.8244 50.6077 41.4109 51.0743C41.3927 51.0974 41.3838 51.6833 41.3532 51.7439C41.1905 52.1211 41.2114 51.682 41.0193 51.8152C40.744 52.0014 40.5091 52.1044 40.265 52.328C40.1985 52.3887 40.1315 52.4579 40.0611 52.5403C39.9707 52.6504 39.8205 53.0643 39.4772 53.044C39.4328 53.0412 39.3781 52.9155 39.3494 52.924C38.8373 53.0797 39.0307 53.453 38.8268 53.7283C38.6233 54.0024 38.0596 53.9425 37.9391 53.9021C37.6264 53.8022 38.0728 53.7392 38.0775 53.7114C38.112 53.4117 37.8191 53.6009 37.5864 53.6766C37.3876 53.3087 37.0828 53.462 37.3387 53.7586C37.3679 53.7909 37.5332 53.6793 37.5864 53.6766C37.5541 54.138 37.174 54.3507 36.6504 54.1288C36.4021 54.0237 36.5167 53.7694 35.9681 54.0273C35.7189 54.1403 35.9055 54.3843 35.6961 54.5276C35.4569 54.6913 35.1215 54.7556 34.8053 54.7896C34.4938 54.8237 34.1715 54.8368 33.8963 54.9121C33.7025 54.9654 33.9244 55.0828 33.7921 55.1245C33.4392 55.235 33.0898 55.174 32.7265 55.2893C32.6943 55.2999 32.7993 55.451 32.6857 55.4698C31.804 55.6163 31.0273 55.5891 30.1174 55.6503C29.8445 55.6685 29.4314 55.7294 29.0421 55.768C28.819 55.7857 28.61 55.7965 28.4456 55.7912C27.6503 55.7698 26.6664 55.503 25.986 55.5088C25.9531 55.5092 25.9205 55.5104 25.8915 55.5125C25.5436 55.5362 25.6022 55.6892 25.4142 55.7759C25.0116 55.9595 24.3976 55.4801 24.3164 55.4031C24.3132 55.4017 24.7131 55.4209 24.5151 55.3064C24.4202 55.1142 24.3215 55.403 24.3164 55.4031C24.2665 55.3611 23.492 55.1802 23.3376 55.1703C23.2483 55.1675 23.261 55.3306 23.2146 55.3261C23.0145 55.3052 22.8218 55.2784 22.6246 55.242C21.732 55.0779 20.8274 54.7304 20.0343 54.1565C20.0183 54.1427 20.1383 54.0119 20.1001 53.9814C19.9025 53.8205 19.7226 53.7061 19.5393 53.6068C19.2335 53.4405 18.9262 53.3252 18.6113 53.1275C18.1104 52.8107 17.8457 52.4056 17.8961 51.9681C17.6495 51.6929 17.464 51.2149 17.3719 50.8835C17.3586 50.8375 17.3461 50.7928 17.3361 50.7539C17.2548 50.4324 16.9332 50.5411 16.9131 50.5178C16.3176 49.7825 16.3143 49.2208 16.0623 48.3559C16.0282 48.2347 15.9803 48.0839 15.9274 47.9208C15.7928 47.5078 15.6339 47.0255 15.5317 46.7141C15.4174 46.3686 15.4473 46.1383 15.3286 45.8304C15.3125 45.7883 15.1738 45.8633 15.1652 45.8512C14.911 45.5258 15.3107 45.6251 15.3599 45.5381C15.515 45.2749 15.6058 45.1026 15.506 44.7871C15.5016 44.771 15.4948 44.7409 15.4903 44.7216C15.4854 44.7006 15.4808 44.6796 15.4762 44.6585C15.4719 44.638 15.4676 44.6174 15.4635 44.5965C15.4596 44.5763 15.4557 44.5558 15.452 44.5349C15.4484 44.5146 15.4449 44.4939 15.4416 44.4726C15.4394 44.4583 15.4373 44.4455 15.4352 44.428C15.4343 44.4208 15.4329 44.4143 15.4311 44.4088C15.3761 44.2941 14.8702 44.0161 14.8327 43.8476C14.7833 43.6198 14.9786 43.6992 14.9189 43.4654C14.9137 43.4458 14.7966 43.454 14.7918 43.3127C14.7641 42.6211 14.7367 41.9458 14.5743 41.3005C14.5519 41.2103 14.3973 41.3682 14.3619 41.2409C14.3155 41.0765 14.2673 40.9125 14.2189 40.7516C14.0859 40.3093 13.9504 39.8934 13.83 39.4892C13.7906 39.3551 13.9457 39.3763 13.9677 39.3322C14.0979 39.0577 13.6596 38.9696 13.6356 38.9429C13.2776 38.4994 13.0367 38.0929 12.7376 37.7185C12.4898 37.4117 12.2001 37.1305 11.7995 36.9544C11.7409 36.9234 11.2447 37.0599 11.2222 36.7111C11.2241 36.6886 11.1836 36.3182 10.9531 36.469C10.9403 36.4793 10.9829 36.6697 10.8141 36.5922C10.6408 36.5141 10.337 36.5462 10.1143 36.3294C10.0946 36.3105 10.0693 36.2712 10.0361 36.2286C9.95031 36.1152 9.79272 35.9784 9.59919 36.1577C9.56593 36.1711 9.22042 36.7491 9.06851 36.3674C9.04287 36.3056 9.02507 35.876 8.73949 36.1329C8.68826 36.1834 8.80485 36.2598 8.66632 36.342C8.46129 36.4677 8.13108 36.4338 7.92696 36.7071C7.88589 36.7565 7.81327 37.0893 7.57916 36.9586C7.54122 36.9386 7.52838 36.7892 7.43999 36.813C7.29909 36.8518 7.16894 36.9128 7.0397 36.9866C6.78099 37.1344 6.54572 37.3229 6.27236 37.4629C6.127 37.5396 6.04373 37.311 5.86987 37.382C5.69407 37.4533 5.39515 37.6678 5.34476 37.8834C5.3003 38.0915 5.70155 38.1818 5.55393 38.3998C5.32749 38.742 5.10524 39.0704 4.88565 39.4207C4.48163 40.0675 4.11668 40.7462 3.90225 41.4996C3.85286 41.6794 4.01584 41.5543 3.95523 41.8257C3.90146 42.0766 3.85159 42.3858 3.81098 42.7469C3.68553 43.8231 3.75583 44.7441 3.66991 45.3782C3.58638 46.054 3.24783 45.2862 3.27075 45.8045C3.28133 45.9511 3.43705 46.0618 3.57698 46.1292C3.68911 46.1842 3.791 46.2136 3.80479 46.2355C4.113 46.697 4.11616 47.0957 4.43838 47.4512C4.50417 47.52 4.58661 47.3445 4.63981 47.4015C4.82255 47.5932 4.95358 47.8429 5.1563 47.9994C5.24658 48.0673 5.31319 47.9527 5.38501 48.0225C5.46229 48.0952 5.53457 48.1663 5.60461 48.2423C5.69401 48.3392 5.78061 48.4449 5.87314 48.5698C5.88991 48.5909 5.67295 48.6621 5.84569 48.7572C6.12098 48.9071 6.47695 49.1642 6.88088 49.1209C7.00143 49.1066 7.05203 48.8162 7.25315 49.054C7.29537 49.1016 7.1915 49.4551 7.50759 49.1737C7.57344 49.1317 8.02352 48.7317 8.26021 48.978C8.28484 49.0026 8.32382 49.0567 8.37224 49.1114C8.45381 49.2047 8.56459 49.2989 8.65074 49.2579C8.66838 49.248 8.57222 49.0996 8.6842 49.0681C9.07492 48.9589 9.49343 48.8685 9.87279 48.6725C9.97102 48.6204 9.76005 48.5237 9.90526 48.4512C10.3068 48.2514 10.8175 48.0228 11.2187 47.8046C11.2309 47.7981 11.242 47.7933 11.2521 47.7899C11.3658 47.7514 11.3536 47.9034 11.3705 47.9082C11.6772 47.9892 11.5759 47.6506 11.6136 47.5967C11.8612 47.253 12.1901 47.1565 12.4279 46.847C12.4918 46.7627 12.3261 46.7107 12.3302 46.6859C12.3732 46.4366 12.474 46.7439 12.5895 46.6613C12.9148 46.4275 13.1771 46.0609 13.3777 45.7154C13.4514 45.5875 13.2095 45.6278 13.2761 45.5152C13.3152 45.4477 13.3544 45.3792 13.3936 45.3097C13.7435 44.6877 14.0462 44.0709 14.3589 43.4457C14.4253 43.3115 14.5287 43.4407 14.5693 43.4207C14.8556 43.2752 14.6554 42.877 14.6459 42.8008C14.6135 42.481 14.7285 42.3603 14.7896 42.1152C14.7971 42.0847 14.8037 42.0519 14.8087 42.0164C15.0312 40.481 15.334 38.6203 15.5159 37.1095C15.5822 36.5673 15.6478 36.0165 15.7048 35.5233C15.8494 34.2474 15.963 33.0871 15.9805 31.7399C15.9822 31.6189 15.7926 31.7351 15.7916 31.6309C15.788 30.6479 15.8375 29.6604 15.8447 28.6852C15.8473 28.3352 15.8446 27.9779 15.8321 27.6269C15.8285 27.517 15.6515 27.6747 15.6398 27.4982C15.6145 27.1362 15.6245 26.676 15.6799 26.3071C15.7066 26.1271 15.8585 26.3681 15.8823 26.1868C15.9379 25.7671 15.9479 25.3163 15.9158 24.8838C15.9018 24.6998 15.724 24.9791 15.7197 24.74C15.6997 23.757 15.6688 22.7883 15.6887 21.8069C15.7018 21.1653 15.7367 20.5141 15.811 19.8586C15.8239 19.7455 16.1875 19.6359 16.1101 19.3986C16.0079 19.3836 15.8884 19.3881 15.7795 19.3835C15.6981 17.885 15.6801 16.4038 15.6527 14.9068C15.637 14.035 15.6177 13.1515 15.5806 12.2668C15.5763 12.1656 15.3911 12.35 15.3818 12.1545C15.3281 11.0352 15.2152 9.95519 15.3392 8.77887C15.3514 8.66463 15.6961 8.70526 15.6246 8.37393C15.6172 8.33988 15.5899 8.16208 15.553 7.99265C15.5239 7.85918 15.4888 7.73068 15.4527 7.67543C15.4405 7.65853 15.287 7.75987 15.2723 7.59842C15.1895 6.65036 15.1604 5.64913 15.1925 4.70156C15.1976 4.54336 15.3786 4.69866 15.3837 4.58624C15.4217 3.82975 15.2298 2.96895 15.3275 2.2266C15.3932 1.72809 15.7014 1.90718 15.9669 1.59673C16.0045 1.55479 15.9878 1.26422 16.1527 1.21938C16.5705 1.14099 17.0447 1.26331 17.4885 1.16091C17.5837 1.13109 17.4478 0.757022 17.7007 0.96961C17.7154 0.955161 17.8226 1.31498 17.9043 1.34006C17.963 1.38414 18.1264 1.28236 18.2046 1.37737C18.2821 1.46578 18.1523 1.64243 18.2455 1.77515C18.342 1.93809 18.53 1.84326 18.5808 2.20821ZM17.0552 49.3032C17.1015 48.9756 16.5262 49.1455 16.7772 49.3938C16.7901 49.4055 17.0533 49.3201 17.0552 49.3032ZM44.5132 44.7328C44.1648 45.0204 44.467 45.3633 44.7345 45.1697C45.0022 44.9689 44.6192 44.6418 44.5132 44.7328ZM45.0168 40.985C44.7574 41.3691 45.5881 41.5548 45.4773 41.0797C45.471 41.0523 45.0318 40.9623 45.0168 40.985ZM16.1424 2.81301C16.1499 2.80672 16.1412 2.58554 16.1331 2.58288C15.9348 2.47948 15.9524 2.91981 16.1424 2.81301ZM45.1232 37.2775C45.0023 37.3994 45.113 37.781 45.2648 37.6269C45.3871 37.5037 45.2742 37.1236 45.1232 37.2775ZM13.0764 35.9603C13.0787 35.9502 12.9577 35.8505 12.9307 35.8937C12.8446 36.0305 13.0403 36.1209 13.0764 35.9603ZM45.2208 31.0129C45.196 31.9423 44.4948 32.484 44.5706 31.4954C44.584 31.3149 44.796 31.8831 44.8581 31.6533C44.9711 31.2316 44.5288 30.9529 44.7597 30.5108C44.8021 30.431 45.224 30.9604 45.2218 31.0146C45.2215 31.014 45.2211 31.0135 45.2208 31.0129ZM17.6636 48.8877C17.6675 48.8771 17.5987 48.6743 17.5896 48.671C17.3693 48.6257 17.5116 49.0453 17.6636 48.8877ZM4.50528 36.4652C4.48268 36.4572 4.10439 36.8335 4.10776 36.8602C4.15634 37.2585 4.88782 36.5296 4.50528 36.4652ZM30.0537 54.0056C30.2683 53.7992 30.5627 53.7528 30.7647 53.9752C30.5325 53.9834 30.2782 54.0017 30.0537 54.0056ZM42.8493 5.04422C42.9481 5.05656 42.9994 5.16908 43.0165 5.28078C43.022 5.3156 42.9454 5.39004 42.9462 5.41778C42.9478 5.47193 43.0058 5.45181 43.002 5.51173C43.0004 5.53199 42.8842 5.65403 42.8849 5.67227C42.8894 5.77104 42.965 5.77687 42.9962 5.84782C43.147 6.19497 43.3581 6.44638 43.572 6.71825C43.6408 6.80629 43.6495 7.00971 43.7814 7.03109C43.7969 7.03341 43.8837 6.91402 43.8933 6.90621C44.0418 6.78725 43.8437 7.00965 43.8389 7.05679C43.8207 7.24325 43.9004 7.32574 44.0122 7.34356C44.0129 7.34366 44.0136 7.34371 44.0143 7.34371C44.0644 7.34375 44.2117 7.09969 44.1416 7.25161C44.1369 7.26211 44.0294 7.37643 44.028 7.39681C44.0249 7.4428 44.0817 7.4531 44.0898 7.47573C44.1049 7.51994 44.1109 7.52287 44.1387 7.54791C44.1758 7.5832 44.1732 7.68168 44.2376 7.68863C44.2517 7.68976 44.3416 7.55597 44.3732 7.54658C44.4048 7.53724 44.4339 7.57871 44.4225 7.61834C44.4112 7.65799 44.3257 7.75102 44.3096 7.7752C44.1732 7.97889 44.431 7.75331 44.4418 7.75144C44.636 7.72673 44.6031 7.9491 44.6993 8.02783C44.7734 8.08796 44.8888 8.10091 44.9551 8.16723C45.032 8.24526 45.0468 8.37059 45.1362 8.42562C45.1456 8.43157 45.2564 8.27835 45.268 8.28534C45.3894 8.35785 45.4897 8.46839 45.5166 8.65713C45.5193 8.67624 45.3987 8.79136 45.395 8.81802C45.3751 8.97895 45.2675 9.31572 45.7729 8.79845C45.8008 8.85874 45.8376 8.92781 45.7844 9.07316C45.7551 9.15323 45.647 9.25 45.6676 9.2564C45.6711 9.25748 45.6782 9.25599 45.69 9.2514C45.7083 9.24441 45.801 9.11577 45.8207 9.11441C45.9037 9.10883 45.9201 9.18999 46.0175 9.16556C46.0375 9.1603 46.1267 9.05021 46.1457 9.03295C46.3004 8.89338 46.1172 9.18561 46.1089 9.21115C46.0503 9.40403 46.1416 9.38621 46.1949 9.43757C46.2072 9.44954 46.3152 9.29169 46.3315 9.29802C46.4146 9.33306 46.4697 9.40173 46.4791 9.52099C46.481 9.54787 46.3623 9.65958 46.3578 9.67871C46.339 9.76151 46.5449 9.535 46.5306 9.6099C46.5279 9.62539 46.4341 9.72766 46.4253 9.74017C46.2867 9.93637 46.5225 9.69227 46.5318 9.69043C46.6546 9.66122 46.4594 9.95989 46.5455 9.96804C46.556 9.96875 46.6563 9.82345 46.6789 9.8336C46.8304 9.90038 46.9293 10.0501 46.9543 10.2582C46.9584 10.2905 46.8586 10.3784 46.8491 10.3916C46.7008 10.5993 46.9367 10.3535 46.9511 10.3491C47.0598 10.3216 46.9165 10.5754 47.216 10.2991C47.3026 10.5251 47.5462 10.5746 47.6161 10.8165C47.6333 10.876 47.639 10.9463 47.631 11.0355C47.6308 11.0409 47.5145 11.1617 47.5144 11.172C47.5123 11.2963 47.6743 11.0918 47.9272 10.8907C47.9908 10.8403 47.7644 11.1539 47.7482 11.1773C47.6886 11.2634 47.5117 11.4396 47.5016 11.4575C47.423 11.5993 47.97 10.9824 48.007 11.0154C48.0072 11.0174 47.9008 11.1258 47.8938 11.1398C47.8716 11.1836 47.9214 11.1473 47.8958 11.1945C47.8362 11.3036 47.5752 11.6076 47.7639 11.4639C47.7883 11.4452 48.0956 11.0925 48.1139 11.1389C48.121 11.1577 48.1846 11.2046 48.1805 11.2418C48.1764 11.2789 48.0639 11.3803 48.0607 11.3862C47.9703 11.5733 47.8982 11.6194 47.7213 11.8574C47.5451 12.0944 48.011 11.5705 48.0725 11.5207C48.1339 11.4711 48.0549 11.6216 48.0241 11.6709C47.9933 11.7202 47.9191 11.7821 47.9042 11.8123C47.8072 12.01 48.1589 11.5736 48.249 11.5052C48.4621 11.3431 48.1399 11.753 48.138 11.8203C48.1375 11.8386 48.2104 11.7447 48.2257 11.7438C48.2857 11.7414 48.1946 11.8781 48.3307 11.8012C48.3529 11.7886 48.5934 11.5852 48.4564 11.7709C48.4366 11.7976 48.3414 11.886 48.3349 11.9195C48.3251 11.9697 48.3412 12.0232 48.3917 12.0109C48.429 12.0019 48.5561 11.8286 48.5309 11.8956C48.5196 11.9255 48.4184 12.002 48.4042 12.0505C48.39 12.0989 48.4357 12.1339 48.4546 12.1455C48.4735 12.1571 48.5751 12.0304 48.5838 12.0236C48.6341 11.9851 48.7179 11.9564 48.7205 11.9591C48.8697 12.071 48.8088 12.3883 49.0015 12.4462C49.0165 12.451 49.127 12.3205 49.1305 12.32C49.2149 12.3014 48.875 12.6047 48.7949 12.7382C49.0298 12.4834 49.0009 12.5425 49.052 12.5385C49.0768 12.5365 49.1627 12.433 49.1732 12.424C49.3314 12.2933 49.1625 12.4959 49.1286 12.5379C49.0038 12.6926 49.178 12.5353 49.0947 12.6388C49.012 12.7415 48.8593 12.8652 48.8847 12.8859C48.977 12.8025 49.1829 12.551 49.2373 12.5302C49.3218 12.4978 49.3634 12.5305 49.3855 12.5851C49.4169 12.6632 49.4084 12.7861 49.4299 12.8284C49.466 12.8998 49.4994 12.9003 49.4998 12.9631C49.5004 13.0765 49.6468 12.8835 49.759 12.839C49.8712 12.7945 49.4415 13.2021 49.358 13.2983C49.2743 13.3943 49.371 13.3057 49.3284 13.3618C49.2858 13.4179 49.2123 13.467 49.2084 13.4998C49.2045 13.5326 49.402 13.4092 49.5001 13.3191C49.7077 13.128 49.8963 12.8987 49.8624 13.0109C49.8603 13.0175 49.7444 13.1218 49.7419 13.1413C49.7257 13.2929 49.7901 13.3665 49.7826 13.5078C49.7814 13.5274 49.6517 13.6426 49.6496 13.6554C49.6274 13.789 49.8124 13.5616 50.0709 13.3612C49.7608 13.6614 49.5921 13.8657 49.6322 13.909C49.6562 13.9352 49.7845 13.797 49.8944 13.719C49.9275 13.6954 49.8542 13.805 49.9199 13.7453C50.1348 13.5505 50.3464 13.3036 50.299 13.4386C50.2966 13.4448 50.1787 13.5512 50.1785 13.5645C50.1768 13.6515 50.3957 13.4419 50.4679 13.4621C50.5246 13.478 50.4581 13.6729 50.4777 13.7352C50.1331 14.0766 50.2502 14.0368 50.5032 13.817C50.5201 13.8534 50.5621 13.869 50.5549 13.9273C50.5525 13.9473 50.4469 14.0403 50.4372 14.0521C50.2849 14.2367 50.5277 14.0194 50.5425 14.0163C50.6927 13.9918 50.5673 14.2159 50.7982 14.107C50.8064 14.1031 51.0504 13.8705 50.8905 14.059C50.8794 14.0719 50.7506 14.1594 50.7698 14.1959C50.789 14.2325 50.7117 14.4118 50.8617 14.3419C50.8979 14.3251 51.1172 14.1583 50.983 14.3268C50.9648 14.3496 50.8928 14.4143 50.8579 14.4555C50.7468 14.587 50.9972 14.356 50.8036 14.5719C50.6485 14.7448 50.5362 14.8948 50.5908 14.8965C50.6044 14.897 50.6282 14.8882 50.6644 14.8683C50.6697 14.8655 50.8726 14.6869 50.8816 14.7023C50.8957 14.7271 50.8826 14.7943 50.9039 14.8139C50.9142 14.8231 51.0285 14.7003 51.0324 14.6999C51.1647 14.7016 51.1035 14.8534 51.1258 14.9702C51.1296 14.9918 51.3308 14.8713 51.2248 15.0219C51.1087 15.1868 50.487 15.7273 50.6897 15.6556C50.7709 15.627 51.5576 14.9391 51.2111 15.3595C51.3947 15.3579 51.273 15.6318 51.4987 15.5919C51.5087 15.5902 51.7328 15.403 51.7391 15.4155C51.7481 15.4344 51.6566 15.5359 51.6598 15.5523C51.6703 15.6232 51.792 15.5824 51.8178 15.6363C51.8278 15.6565 51.7201 15.7475 51.732 15.7717C51.744 15.7957 51.8909 15.6813 51.8496 15.7682C51.818 15.8342 51.5597 16.1128 51.5514 16.1686C51.825 15.9138 51.8363 15.9371 51.9372 15.9005C51.9567 15.8933 52.0457 15.798 52.0599 15.79C52.1196 15.7557 52.0508 15.84 52.1143 15.8011C52.1296 15.7917 52.223 15.7046 52.2407 15.6921C52.3954 15.5822 52.2142 15.8089 52.1825 15.8483C52.0626 15.998 52.1927 15.8941 52.1525 15.9606C52.1122 16.027 52.0224 16.0677 52.006 16.1167C51.9722 16.2181 52.0321 16.2521 52.0634 16.2944C52.0765 16.3107 52.1916 16.1842 52.1963 16.1838C52.2571 16.1857 52.1534 16.3404 52.4182 16.1267C51.7952 16.7457 52.4981 16.0875 52.4109 16.2519C52.4038 16.2651 52.1036 16.5519 52.0464 16.5798C51.9892 16.6077 52.0653 16.499 51.9784 16.545C51.958 16.5557 51.6496 16.7952 51.6291 16.8079C51.4693 16.9064 51.92 16.4802 51.9436 16.4555C52.1979 16.1891 51.8617 16.4429 51.833 16.4545C51.7009 16.5074 51.735 16.4161 51.6366 16.4495C51.5728 16.4708 51.274 16.7461 51.2682 16.7217C51.249 16.6409 51.6455 16.235 51.2403 16.5214C51.1538 16.5823 50.8397 16.8966 51.0584 16.6193C51.0722 16.6019 51.2783 16.3547 51.1155 16.4765C51.095 16.4919 51.0007 16.5805 50.9902 16.5852C50.9218 16.6151 50.9856 16.5324 50.9309 16.5464C50.8763 16.5604 50.8004 16.5871 50.8111 16.5345C50.8175 16.5029 50.9766 16.3202 51.0134 16.2731C51.1198 16.1381 50.8985 16.3098 51.0375 16.1571C51.1772 16.0035 51.4271 15.8104 51.4956 15.6882C51.2501 15.9179 50.9967 16.1523 50.7492 16.3827C50.6952 16.3083 50.7127 16.1686 50.6394 16.113C50.63 16.1064 50.5069 16.2392 50.4936 16.2353C50.4377 16.2183 50.5009 16.0977 50.4269 16.0945C50.3693 16.0926 50.1999 16.1923 50.1356 16.1949C50.3957 15.9101 50.2574 15.9546 50.2511 15.8972C50.2487 15.8772 50.3236 15.8068 50.3399 15.7753C50.3994 15.6583 50.1682 15.9084 50.1214 15.9369C49.9217 16.0587 50.4732 15.522 50.4176 15.4916C50.4148 15.4897 50.0924 15.7463 50.0703 15.7603C49.9268 15.8515 50.1691 15.6571 50.1762 15.6207C50.189 15.5543 50.2406 15.4667 50.1225 15.5174C50.0877 15.5326 49.882 15.6877 50.0061 15.5316C50.0223 15.5111 50.121 15.4181 50.1248 15.4106C50.1519 15.3534 50.1053 15.3813 50.0345 15.4366C49.9473 15.5047 49.8235 15.6147 49.7555 15.659C49.6324 15.7393 49.8128 15.5031 49.8673 15.4375C50.0082 15.2678 49.9469 15.3849 49.9632 15.3708C50.1571 15.2028 50.1032 15.2107 50.1016 15.1781C50.3984 14.884 50.3564 14.8769 50.0988 15.1454C50.0707 15.1748 50.1119 15.1612 50.1016 15.1781C49.7931 15.4487 49.7297 15.4588 49.9747 15.1616C50.0896 15.0223 50.2521 14.8891 50.156 14.9004C50.1126 14.9054 49.9143 15.1141 49.8418 15.1521C49.6766 15.2392 49.8189 15.0011 49.7498 14.9912C49.7248 14.9876 49.6263 15.1121 49.6053 15.1134C49.5493 15.1175 49.6109 15.0116 49.5421 15.0281C49.5357 15.0298 49.4242 15.1514 49.4147 15.1448C49.3407 15.0971 49.363 14.9696 49.3015 14.9038C49.2718 14.872 49.1527 14.8813 49.1338 14.8366C49.1006 14.7599 49.2016 14.5224 49.1132 14.5166C49.056 14.5124 48.9468 14.6362 48.8545 14.7029C48.6759 14.8325 48.9052 14.5107 48.9414 14.4616C48.9426 14.46 48.9966 14.4587 49.0418 14.3844C49.1575 14.2508 48.9422 14.4614 48.9414 14.4616C48.9648 14.4299 48.9378 14.3507 48.9051 14.3628C48.8873 14.3694 48.7809 14.4839 48.7737 14.4852C48.6047 14.515 48.5061 14.474 48.4848 14.3511C48.4857 14.3476 48.6096 14.2244 48.6102 14.2178C48.6223 14.1211 48.4464 14.2481 48.3237 14.3058C48.2009 14.3634 48.2033 14.3066 48.3912 14.0711C48.3388 14.073 48.3933 13.9412 48.4273 13.8623C48.4613 13.7834 48.2225 14.0255 48.2159 14.0285C48.0628 14.1001 48.0766 14.0267 48.0784 13.9501C48.0791 13.9223 48.0782 13.8941 48.0673 13.8725C48.0483 13.8336 47.9558 13.8136 47.8982 13.8101C47.8523 13.8079 47.8919 13.7355 47.8338 13.7506C47.826 13.7526 47.7249 13.8655 47.72 13.8688C47.5696 13.9759 47.8366 13.7189 47.8767 13.6659C48.0227 13.473 48.0986 13.3685 47.9875 13.4191C47.962 13.4306 47.5737 13.7971 47.5385 13.8067C47.4932 13.8184 47.6311 13.6858 47.5803 13.7016C47.576 13.7028 47.4956 13.7889 47.4874 13.7741C47.4482 13.7062 47.4354 13.6002 47.3709 13.5561C47.3624 13.5497 47.2447 13.6956 47.2303 13.6886C47.1628 13.6559 47.1099 13.5973 47.1177 13.4852C47.1201 13.4572 47.217 13.3686 47.2407 13.3375C47.3836 13.1493 47.127 13.3774 47.1189 13.3788C46.914 13.4129 47.0511 13.1188 46.8542 13.1381C46.8428 13.1394 46.5553 13.3728 46.7494 13.1246C46.7623 13.1081 46.9611 12.8544 46.7972 13.0024C46.787 13.0116 46.6866 13.144 46.6786 13.1139C46.6705 13.0838 46.565 13.1371 46.6604 12.9782C46.6905 12.9281 46.8859 12.6724 46.6886 12.8385C46.6748 12.8501 46.2476 13.2428 46.5012 12.9346C46.5429 12.8839 46.8285 12.5732 46.6526 12.7059C46.6187 12.7317 46.5661 12.8111 46.5114 12.8408C46.4275 12.8871 46.4725 12.7754 46.318 12.8892C46.2907 12.9094 46.0779 13.1032 46.2063 12.9263C46.2263 12.8986 46.3256 12.7984 46.3271 12.7786C46.3347 12.6836 46.2264 12.7131 46.2473 12.601C46.2544 12.5614 46.4143 12.3989 46.4386 12.3387C46.4625 12.2783 46.4692 12.2056 46.3829 12.2681C46.2967 12.3307 46.0736 12.618 46.029 12.6172C46.0233 12.6171 46.0178 12.6167 46.0125 12.6162C45.8378 12.5991 45.8623 12.3517 45.7757 12.2351C45.7624 12.2172 45.6901 12.3266 45.6643 12.3072C45.5697 12.2366 45.331 12.1895 45.4366 11.9155C45.5193 11.6944 45.7085 11.6361 45.7197 11.5266C45.7247 11.474 45.4226 11.7705 45.4083 11.7757C45.2652 11.83 45.3494 11.6557 45.262 11.6558C45.2439 11.6559 45.1421 11.794 45.1279 11.7926C45.0785 11.789 45.0983 11.7053 45.0609 11.6915C45.044 11.6856 44.961 11.7865 44.956 11.7689C44.943 11.7279 44.9543 11.6651 45.0069 11.5488C45.0116 11.5382 45.1345 11.4295 45.1176 11.4071C45.0902 11.3711 45.1269 11.2434 45.0066 11.3045C44.9705 11.323 44.7758 11.5493 44.885 11.3714C44.9078 11.3342 45.1478 11.0677 44.917 11.278C44.8787 11.3129 44.5595 11.5896 44.711 11.3648C44.7509 11.3056 44.9256 11.0691 44.8818 11.0923C44.8752 11.0963 44.7785 11.2246 44.757 11.2268C44.6828 11.2323 44.6515 11.1831 44.5772 11.1858C44.5571 11.1868 44.4662 11.3272 44.4397 11.3247C44.3672 11.318 44.336 11.236 44.3261 11.1596C44.3225 11.131 44.4226 11.0357 44.4311 11.0233C44.5694 10.8215 44.3458 11.0625 44.3271 11.0718C44.2137 11.1259 44.2832 10.9827 44.2202 10.9829C44.2031 10.9827 44.1092 11.1083 44.0982 11.1173C44.095 11.1198 44.0921 11.1221 44.0894 11.1242C44.0007 11.1922 44.1865 11.0012 44.1931 10.9674C44.2127 10.869 44.1629 10.8435 44.1121 10.8269C44.0933 10.8209 43.992 10.973 43.9765 10.966C43.8818 10.9272 43.8196 10.8523 43.812 10.7153C43.8108 10.6893 43.9091 10.5892 43.9268 10.5624C44.0509 10.3749 43.8267 10.5846 43.8015 10.6014C43.6866 10.6781 43.7544 10.5736 43.7131 10.5691C43.5086 10.5479 43.4072 10.3569 43.3155 10.2151C43.1963 10.0317 43.162 9.83084 42.9856 9.73031C42.9745 9.72383 42.8662 9.87552 42.8551 9.87178C42.7168 9.81598 42.6613 9.67635 42.5183 9.62861C42.5068 9.6245 42.4078 9.77137 42.3857 9.76935C42.3395 9.76618 42.3085 9.72838 42.3143 9.66044C42.317 9.62755 42.4322 9.52639 42.4329 9.49567C42.435 9.4241 42.4052 9.38349 42.3535 9.37782C42.3534 9.37781 42.3533 9.3778 42.3532 9.3778C42.3302 9.37724 42.2389 9.53308 42.2188 9.51933C42.0787 9.42804 41.9308 9.34766 41.9436 9.0572C41.9446 9.03732 42.1673 8.74602 42.1037 8.78494C42.0382 8.86274 41.9628 8.95569 41.8937 9.03959C41.6703 8.93366 41.5556 8.67742 41.3779 8.50886C41.3703 8.50178 41.2623 8.66411 41.2471 8.65117C41.159 8.57641 41.0371 8.54735 41.0641 8.3214C41.0666 8.29919 41.2855 8.03682 41.2256 8.05493C41.2148 8.05838 41.1447 8.06045 41.0874 8.10959C41.079 8.11714 40.9867 8.24755 40.9704 8.24038C40.8791 8.19809 40.8228 8.10623 40.807 7.96871C40.8047 7.9463 40.924 7.82436 40.9233 7.80724C40.9171 7.68679 40.768 7.73269 40.8037 7.56383C40.828 7.45028 41.0264 7.23311 41.1852 6.99016C41.2076 6.95588 41.1863 6.9306 41.29 6.79826C41.5507 6.46543 41.8521 6.11377 42.1284 5.75784C42.188 5.6812 42.0886 5.73556 42.2552 5.56854C42.2665 5.55742 42.3398 5.5164 42.3956 5.45913C42.4342 5.41956 42.5333 5.27994 42.586 5.23187C42.6385 5.18386 42.5585 5.30336 42.6245 5.25021C42.6911 5.19624 42.8064 5.03937 42.8493 5.04422ZM48.5784 13.5087C48.6712 13.3714 48.2543 13.8004 48.3751 13.718C48.3814 13.7135 48.5739 13.5155 48.5784 13.5087ZM51.0405 15.8587C51.2065 15.6503 50.9078 15.8991 50.7778 16.0582C50.6479 16.217 50.9902 15.9218 51.0405 15.8587ZM51.4434 16.0047C51.5652 15.8307 50.9431 16.4073 51.0994 16.3232C51.1083 16.3185 51.4363 16.0148 51.4434 16.0047ZM41.3368 7.0061C41.3415 6.99965 41.3282 6.97916 41.3229 6.98496C41.1946 7.12559 41.221 7.16644 41.3368 7.0061ZM51.8568 16.139C51.9314 16.0508 51.8082 16.113 51.7154 16.2227C51.6407 16.3108 51.764 16.2488 51.8568 16.139ZM47.9415 12.0363C47.9472 12.0295 47.9404 12.0124 47.9066 12.0498C47.7978 12.1701 47.8457 12.1519 47.9415 12.0363ZM52.3056 16.6074C52.2636 16.515 52.7378 15.9959 52.7513 16.1267C52.7537 16.1504 52.5594 16.2484 52.5295 16.3092C52.4752 16.4198 52.8181 16.1427 52.676 16.3362C52.6498 16.3715 52.3068 16.6137 52.3047 16.6079C52.305 16.6077 52.3053 16.6076 52.3056 16.6074ZM49.064 12.9789C49.0691 12.9728 49.0579 12.9517 49.052 12.957C48.9118 13.0856 48.9342 13.1282 49.064 12.9789ZM47.476 11.1163C47.4864 11.1029 47.4576 11.0562 47.446 11.0666C47.2189 11.2802 47.276 11.3751 47.476 11.1163ZM50.4692 13.745C50.6222 13.628 50.6595 13.6335 50.5033 13.8167C50.4948 13.7901 50.4785 13.771 50.4692 13.745Z" fill="black"/>
</svg>
