<svg width="60" height="62" viewBox="0 0 60 62" fill="none" xmlns="http://www.w3.org/2000/svg">
<path d="M3.78456 13.252C22.7751 13.4039 30.1546 12.5086 37.7846 9.25195M20.7846 1.25195C20.7846 1.25195 21.5931 3.67768 20.302 25.252M20.302 25.252C20.1572 27.6702 19.9861 30.329 19.7846 33.252C19.4682 37.8391 18.7515 41.0251 17.7849 43.1108M20.302 25.252C20.302 25.252 7.78456 21.252 3.78456 28.252C0.41727 34.1447 12.6406 54.2108 17.7849 43.1108M20.302 25.252C20.1706 31.9949 19.9919 35.8039 17.7849 43.1108M17.7849 43.1108C12.2182 50.5959 15.819 58.252 20.302 58.252C24.7849 58.252 39.7849 59.252 48.7849 55.252C57.7849 51.252 44.7849 31.252 44.7849 31.252M42.7849 16.252L58.7849 21.252" stroke="black" stroke-width="6"/>
</svg>
