<svg width="54" height="59" viewBox="0 0 54 59" fill="none" xmlns="http://www.w3.org/2000/svg">
<path d="M1.02073 14.0048C1.16046 13.9362 1.35783 13.9695 1.51174 14.0288C1.55995 14.0471 1.54907 14.1551 1.58289 14.1724C1.64903 14.2063 1.70029 14.148 1.76661 14.1898C1.78864 14.2042 1.78286 14.3739 1.80552 14.3851C1.9296 14.4455 2.03403 14.3904 2.1552 14.4124C2.75206 14.5208 3.32615 14.518 3.91865 14.5267C4.11399 14.5294 4.36543 14.6538 4.5566 14.5646C4.57889 14.5541 4.54816 14.4092 4.55118 14.3967C4.59912 14.2039 4.6102 14.5022 4.65995 14.5362C4.85731 14.6706 5.05844 14.6611 5.22463 14.5846C5.22564 14.5842 5.2266 14.5836 5.22753 14.5831C5.29229 14.5438 5.18937 14.2715 5.28088 14.424C5.28729 14.4345 5.28659 14.5921 5.30865 14.6064C5.35865 14.6384 5.44215 14.6006 5.47899 14.6089C5.55008 14.6255 5.56119 14.6226 5.62595 14.617C5.71465 14.6106 5.82854 14.6757 5.91917 14.6296C5.93846 14.6193 5.89331 14.4629 5.92241 14.4321C5.95155 14.4013 6.03847 14.405 6.07158 14.4392C6.1047 14.4735 6.1069 14.6002 6.11531 14.6283C6.18518 14.8659 6.24518 14.5188 6.25692 14.509C6.47221 14.3408 6.6929 14.5091 6.91026 14.4835C7.07522 14.4637 7.24442 14.3802 7.40247 14.3707C7.59083 14.36 7.75938 14.4281 7.93943 14.3923C7.95846 14.3887 7.91435 14.2039 7.93754 14.1991C8.18395 14.1486 8.4335 14.1405 8.69595 14.2384C8.72229 14.2484 8.70924 14.4166 8.73669 14.4365C8.90434 14.5541 9.1824 14.8512 9.19003 14.1244C9.29625 14.1405 9.42462 14.1549 9.53342 14.2887C9.59343 14.3624 9.57499 14.5092 9.6086 14.4968C9.61427 14.4947 9.62143 14.4881 9.63069 14.4758C9.64518 14.4569 9.60566 14.3024 9.62876 14.2858C9.72605 14.2164 9.84548 14.2543 9.93892 14.1613C9.95788 14.1421 9.93595 14.002 9.93895 13.976C9.96507 13.7651 10.0871 14.0947 10.108 14.1172C10.2668 14.2851 10.359 14.2012 10.4877 14.1909C10.5175 14.1886 10.4606 14.0037 10.4885 13.9947C10.6339 13.9505 10.7895 13.949 10.9446 14.0161C10.9791 14.0314 10.9679 14.1958 10.9854 14.2114C11.0621 14.2781 11.0422 13.9724 11.1151 14.0305C11.1304 14.0424 11.1386 14.1811 11.1428 14.1959C11.2095 14.4289 11.2049 14.0884 11.2141 14.0798C11.3304 13.9635 11.4527 14.3055 11.5706 14.2414C11.5846 14.2334 11.5312 14.0629 11.5719 14.0511C11.8433 13.971 12.1417 13.9851 12.4319 14.0929C12.477 14.1094 12.4617 14.2439 12.4663 14.2597C12.5391 14.507 12.5284 14.1657 12.5408 14.1514C12.6399 14.0471 12.775 14.3187 12.803 13.9075C13.1885 13.9767 13.5455 13.8104 13.9309 13.9009C14.0258 13.9232 14.1224 13.961 14.2216 14.0218C14.228 14.0253 14.2367 14.193 14.2492 14.1993C14.4007 14.2765 14.3438 14.0209 14.4004 13.6937C14.4146 13.6116 14.53 13.9854 14.5396 14.0126C14.5745 14.1132 14.5792 14.3636 14.5892 14.3827C14.671 14.5323 14.5661 13.7144 14.652 13.7043C14.6549 13.7053 14.661 13.8574 14.6699 13.8715C14.6978 13.916 14.7131 13.8535 14.741 13.9029C14.805 14.0172 14.8688 14.4131 14.9187 14.1726C14.925 14.1415 14.8565 13.6786 14.9358 13.6917C14.9674 13.6973 15.1019 13.6737 15.1433 13.6994C15.1847 13.7251 15.1759 13.8778 15.1794 13.884C15.3044 14.0702 15.2751 14.1567 15.3601 14.4439C15.4449 14.73 15.3504 14.0352 15.3623 13.9551C15.3742 13.8752 15.4679 14.0299 15.4929 14.0845C15.5178 14.1392 15.5059 14.237 15.5259 14.2672C15.6586 14.4647 15.5336 13.9161 15.5566 13.8014C15.6106 13.53 15.7358 14.0389 15.8188 14.0806C15.8412 14.0918 15.8106 13.9762 15.8279 13.963C15.8966 13.9125 15.9595 14.0686 16.0262 13.9112C16.0371 13.8855 16.0689 13.5672 16.139 13.79C16.149 13.8221 16.1462 13.9529 16.1809 13.9781C16.2327 14.016 16.3204 14.0343 16.3658 13.9855C16.3993 13.9494 16.3322 13.7422 16.3866 13.8027C16.4108 13.8297 16.3866 13.9582 16.4308 13.9987C16.4749 14.0391 16.5736 14.0222 16.6109 14.0135C16.6482 14.0048 16.609 13.8463 16.6107 13.8351C16.622 13.7709 16.6855 13.685 16.692 13.6844C17.0126 13.6275 17.3416 13.8643 17.6456 13.7383C17.6695 13.7287 17.6335 13.5609 17.6369 13.5577C17.7132 13.4769 17.6986 13.9356 17.7751 14.0797C17.7268 13.7365 17.7688 13.7948 17.824 13.7502C17.8505 13.7284 17.8195 13.5969 17.8206 13.583C17.8397 13.3756 17.8995 13.6337 17.9133 13.6863C17.9641 13.8798 17.968 13.6438 18.0023 13.7731C18.0365 13.9014 18.0148 14.1 18.0715 14.091C18.0733 13.9659 17.9938 13.6488 18.0311 13.5916C18.089 13.5026 18.1796 13.487 18.2757 13.5003C18.413 13.5193 18.5613 13.5973 18.6405 13.6039C18.7746 13.6149 18.8144 13.5873 18.8959 13.623C19.0433 13.6876 18.9651 13.4546 19.0382 13.3353C19.1116 13.216 19.1376 13.8087 19.1645 13.9337C19.1912 14.0586 19.1895 13.927 19.2126 13.9947C19.2356 14.0624 19.213 14.1521 19.2514 14.1741C19.2898 14.196 19.3606 13.9601 19.3579 13.8266C19.3521 13.5436 19.2746 13.2548 19.3802 13.3472C19.3863 13.3527 19.3866 13.5093 19.4091 13.5225C19.5866 13.6226 19.7576 13.6104 19.9334 13.6967C19.9576 13.7089 19.9573 13.8831 19.9716 13.8921C20.1207 13.9864 20.0385 13.7021 20.076 13.3714C20.1087 13.8019 20.1803 14.0594 20.2841 14.05C20.3465 14.0445 20.3142 13.8585 20.3392 13.7219C20.3467 13.6808 20.4055 13.8042 20.4034 13.7153C20.3965 13.4244 20.3178 13.1071 20.4393 13.223C20.4447 13.2286 20.448 13.3878 20.4653 13.3955C20.577 13.4459 20.5548 13.1434 20.6636 13.0939C20.7489 13.0551 20.9277 13.2205 21.032 13.2387C21.0855 13.7208 21.168 13.5995 21.1683 13.2628C21.2354 13.2688 21.3039 13.2419 21.3725 13.2805C21.3961 13.2937 21.3979 13.4348 21.4024 13.4496C21.4718 13.6812 21.4629 13.3547 21.4756 13.3404C21.6145 13.1995 21.7676 13.4301 21.8861 13.1738C21.8903 13.1646 21.8601 12.8289 21.9274 13.0688C21.9318 13.0853 21.9011 13.2432 21.9713 13.2471C22.0414 13.2509 22.1917 13.4154 22.2693 13.2493C22.2881 13.2093 22.3152 12.9308 22.3866 13.1377C22.3962 13.1658 22.4004 13.2626 22.4156 13.315C22.4644 13.4818 22.4413 13.1417 22.5087 13.4252C22.5627 13.6522 22.6351 13.8302 22.6995 13.7845C22.7155 13.7731 22.731 13.748 22.7456 13.7062C22.748 13.7001 22.7399 13.4293 22.7707 13.4301C22.8198 13.4315 22.8949 13.4794 22.9451 13.4719C22.9692 13.4682 22.9345 13.3034 22.9384 13.2999C23.0901 13.1878 23.2228 13.3229 23.4043 13.3673C23.4376 13.3757 23.5031 13.1381 23.5856 13.3105C23.6761 13.4992 23.7007 14.3247 23.8342 14.112C23.8881 14.0268 23.848 12.9805 24.023 13.5048C24.2268 13.3463 24.4612 13.598 24.659 13.3825C24.668 13.3729 24.6658 13.0799 24.6895 13.0811C24.7247 13.0835 24.7593 13.2167 24.7849 13.2227C24.8928 13.2516 24.9739 13.1249 25.0755 13.1314C25.114 13.1336 25.117 13.275 25.1629 13.2777C25.2089 13.2801 25.2176 13.0925 25.2889 13.1744C25.3428 13.2369 25.4323 13.6081 25.4986 13.6449C25.4581 13.2733 25.501 13.2761 25.5643 13.1694C25.5765 13.1487 25.5462 13.0212 25.5511 13.0048C25.5711 12.935 25.609 13.0392 25.6269 12.9636C25.6313 12.9455 25.6169 12.8186 25.6197 12.7966C25.6425 12.6047 25.7485 12.8816 25.7668 12.9298C25.8367 13.1129 25.8402 12.9453 25.8856 13.0154C25.9311 13.0854 25.8867 13.1846 25.9349 13.2247C26.0349 13.3076 26.1472 13.2739 26.2385 13.2693C26.2748 13.2667 26.2306 13.1002 26.2353 13.0959C26.3051 13.0444 26.4015 13.2157 26.4041 12.8737C26.5565 13.7397 26.4394 12.7839 26.5664 12.9461C26.5764 12.9593 26.6347 13.3704 26.6094 13.4347C26.5841 13.4989 26.5202 13.3756 26.4862 13.4752C26.4782 13.4985 26.4619 13.892 26.4563 13.9163C26.4124 14.1068 26.3321 13.4916 26.3248 13.4582C26.2436 13.0974 26.2173 13.5223 26.2011 13.5533C26.1267 13.6954 26.0407 13.6175 25.9766 13.7203C25.9347 13.7867 25.9764 14.1909 25.9365 14.183C25.804 14.1569 25.6944 13.599 25.6302 14.1011C25.6164 14.2082 25.693 14.6464 25.5604 14.3102C25.552 14.289 25.4467 13.9796 25.4301 14.1849C25.4281 14.2108 25.4431 14.3393 25.4377 14.3509C25.4017 14.4258 25.3605 14.3268 25.3181 14.3814C25.2758 14.436 25.2265 14.5158 25.1666 14.4785C25.1306 14.4562 25.0605 14.2216 25.038 14.1648C24.9738 14.001 24.9579 14.2835 24.9066 14.0821C24.855 13.8797 24.8735 13.5612 24.785 13.4368C24.8208 13.7711 24.8542 14.1147 24.8886 14.4511C24.7269 14.4579 24.5567 14.368 24.3975 14.4014C24.3778 14.4058 24.4189 14.583 24.3984 14.5925C24.3114 14.6314 24.2179 14.5125 24.1302 14.5743C24.0624 14.6228 24.005 14.822 23.9348 14.8787C23.8444 14.5018 23.7471 14.6445 23.6614 14.619C23.6314 14.6102 23.6216 14.5079 23.5974 14.477C23.5065 14.3626 23.5814 14.6963 23.5665 14.7519C23.5025 14.9891 23.4065 14.2255 23.3023 14.2567C23.2968 14.258 23.2749 14.6735 23.2684 14.7C23.2272 14.8724 23.242 14.5593 23.2008 14.5335C23.1256 14.4865 23.0665 14.3947 22.9994 14.5234C22.9799 14.5614 22.9527 14.822 22.8843 14.6308C22.8753 14.6057 22.8631 14.4707 22.8573 14.4633C22.8112 14.4089 22.7951 14.464 22.7884 14.5547C22.7801 14.6664 22.7859 14.8323 22.7674 14.9146C22.7338 15.0637 22.6226 14.7804 22.5972 14.6981C22.5308 14.485 22.618 14.6013 22.6178 14.5797C22.6147 14.3222 22.5632 14.3726 22.5176 14.356C22.4635 13.9418 22.406 13.9736 22.4705 14.3406C22.4776 14.3807 22.5068 14.3381 22.5176 14.356C22.5267 14.7676 22.4664 14.8274 22.3493 14.4553C22.2944 14.281 22.3028 14.0693 22.2074 14.1574C22.1641 14.1972 22.2154 14.4808 22.1827 14.5635C22.1079 14.7523 21.9533 14.5 21.8599 14.5533C21.826 14.5727 21.8788 14.7251 21.8562 14.7437C21.7964 14.7937 21.7259 14.6829 21.6678 14.7505C21.6626 14.7568 21.6959 14.9189 21.6759 14.9233C21.525 14.96 21.3796 14.8705 21.2194 14.886C21.142 14.8936 21.0143 14.9999 20.9322 14.9909C20.79 14.9764 20.5919 14.758 20.4801 14.8295C20.4071 14.8755 20.4429 15.0373 20.4227 15.1527C20.3838 15.3764 20.226 15.002 20.2038 14.9437C20.2031 14.9418 20.2651 14.8955 20.22 14.8156C20.1791 14.6428 20.2045 14.9429 20.2038 14.9437C20.1893 14.9061 20.0522 14.8843 20.0294 14.9186C20.0171 14.9374 20.043 15.0916 20.0362 15.0985C19.8746 15.2578 19.7013 15.3178 19.5127 15.266C19.5092 15.2633 19.494 15.0892 19.4859 15.0848C19.3727 15.0197 19.3304 15.2397 19.259 15.3757C19.1875 15.5116 19.1144 15.4773 19.0291 15.1852C18.9686 15.2302 18.8603 15.1092 18.7975 15.0355C18.7347 14.9617 18.7662 15.3004 18.7623 15.3077C18.6726 15.4768 18.591 15.4233 18.4923 15.3778C18.4564 15.3612 18.4182 15.3457 18.3766 15.3423C18.3024 15.3358 18.1642 15.4014 18.09 15.4474C18.0313 15.4843 17.9848 15.4095 17.9335 15.4667C17.9265 15.4744 17.9517 15.6239 17.95 15.6299C17.907 15.8173 17.8952 15.446 17.8744 15.3818C17.7991 15.1485 17.7549 15.0247 17.6862 15.1465C17.6703 15.1744 17.6765 15.7102 17.6457 15.7452C17.6056 15.7896 17.6005 15.5979 17.5591 15.6492C17.5555 15.6535 17.5698 15.7705 17.5404 15.7686C17.4038 15.7617 17.2498 15.7104 17.1119 15.7382C17.0931 15.7415 17.1389 15.9244 17.1119 15.9323C16.9855 15.9692 16.8434 15.9787 16.7077 15.9062C16.6743 15.8878 16.6786 15.7556 16.6675 15.7177C16.5993 15.4889 16.58 15.835 16.5711 15.8426C16.3599 16.0323 16.1484 15.7454 15.9309 15.9187C15.9191 15.9288 15.8628 16.304 15.783 15.997C15.7776 15.9765 15.6974 15.6623 15.6843 15.885C15.6834 15.8989 15.7294 16.0602 15.6803 16.0489C15.6313 16.0376 15.568 16.1561 15.4824 15.983C15.4553 15.9285 15.3701 15.6155 15.3381 15.8765C15.3362 15.8947 15.308 16.4797 15.2285 16.0875C15.2155 16.0229 15.1729 15.6031 15.1246 15.8264C15.1155 15.8697 15.1516 15.9603 15.1216 16.0229C15.0756 16.1194 14.988 16.0157 14.9403 16.2104C14.932 16.2449 14.9134 16.5353 14.8473 16.3241C14.8369 16.2911 14.833 16.1497 14.8095 16.1366C14.6972 16.0734 14.5996 16.1795 14.4832 16.0948C14.4421 16.0651 14.435 15.8367 14.3892 15.7805C14.3434 15.7244 14.2584 15.6752 14.2297 15.7832C14.201 15.8913 14.287 16.2468 14.2294 16.2826C14.222 16.2872 14.2146 16.2915 14.2072 16.2956C13.9623 16.4279 13.6847 16.2572 13.4247 16.2568C13.385 16.2567 13.4324 16.3819 13.3749 16.3911C13.163 16.4252 12.8093 16.5886 12.5928 16.3358C12.4194 16.1333 12.5865 15.9447 12.463 15.8684C12.4035 15.832 12.3928 16.258 12.3811 16.2727C12.2678 16.4217 12.1569 16.2463 12.0476 16.3166C12.025 16.3312 12.0681 16.4984 12.0487 16.5089C11.9825 16.5464 11.9007 16.479 11.8358 16.5006C11.8067 16.5106 11.8272 16.6398 11.7986 16.6329C11.7303 16.618 11.666 16.5702 11.5879 16.4559C11.5808 16.4455 11.6015 16.2796 11.5522 16.2792C11.4725 16.279 11.3611 16.1703 11.2849 16.3046C11.2624 16.345 11.2955 16.6417 11.2142 16.4435C11.1972 16.4021 11.1715 16.0443 11.1398 16.3597C11.1344 16.4121 11.0694 16.8402 10.9831 16.5791C10.9604 16.5103 10.8894 16.2232 10.8624 16.2728C10.8589 16.2806 10.8948 16.4378 10.8699 16.4565C10.7816 16.5193 10.6809 16.5137 10.5898 16.5748C10.5655 16.5914 10.623 16.7518 10.5862 16.7713C10.485 16.8252 10.3478 16.7985 10.2382 16.7589C10.1978 16.744 10.2085 16.6044 10.204 16.5898C10.1314 16.3533 10.1426 16.6826 10.1299 16.7033C10.0508 16.8279 9.96279 16.6827 9.8824 16.7331C9.86016 16.7466 9.89476 16.9002 9.89168 16.9146C9.89072 16.9188 9.88979 16.9225 9.88889 16.9259C9.85905 17.0394 9.86172 16.7714 9.82849 16.745C9.73248 16.6677 9.63811 16.6913 9.55348 16.7212C9.52242 16.7324 9.57912 16.9086 9.551 16.9166C9.385 16.9672 9.20672 16.9703 9.02974 16.89C8.99638 16.8745 8.99996 16.7334 8.9898 16.7024C8.91943 16.4856 8.88876 16.7959 8.87699 16.8265C8.82354 16.9661 8.78271 16.8463 8.72474 16.8763C8.4418 17.0246 8.0668 16.9854 7.78148 16.9674C7.40979 16.9447 7.11191 16.8452 6.76853 16.9196C6.74669 16.9242 6.79027 17.1064 6.77171 17.1127C6.53116 17.1856 6.28095 17.1413 6.04093 17.223C6.02119 17.2294 6.07052 17.4012 6.03953 17.4173C5.97609 17.4517 5.89075 17.4519 5.81705 17.4037C5.78114 17.3805 5.80779 17.2252 5.772 17.2049C5.68862 17.1574 5.60478 17.1545 5.52906 17.1917C5.52889 17.1917 5.52872 17.1918 5.52856 17.1919C5.49764 17.2097 5.56802 17.3812 5.52481 17.3883C5.22935 17.4404 4.94072 17.5049 4.6133 17.3076C4.59085 17.2941 4.53075 16.9321 4.49499 17.007C4.50334 17.1084 4.51724 17.2272 4.52826 17.3354C4.10186 17.4436 3.65862 17.3668 3.22204 17.3974C3.20364 17.3987 3.25755 17.588 3.22203 17.5915C3.01651 17.6124 2.82342 17.6888 2.59141 17.5213C2.56842 17.5049 2.53995 17.1643 2.4845 17.2227C2.47476 17.2333 2.38755 17.2893 2.37215 17.3657C2.37019 17.3772 2.40533 17.5336 2.37608 17.5417C2.20577 17.5857 2.02021 17.5705 1.83626 17.4936C1.80653 17.4809 1.81677 17.3088 1.79543 17.2983C1.64421 17.225 1.50575 17.3709 1.35345 17.2333C1.25144 17.1406 1.25116 16.8451 1.17015 16.5636C1.15871 16.5239 1.10216 16.5239 1.08001 16.3573C1.02415 15.9382 0.998119 15.4752 0.935382 15.0289C0.921914 14.9328 0.859163 15.0452 0.876527 14.8071C0.877819 14.7912 0.923078 14.7076 0.927304 14.627C0.93029 14.5713 0.89395 14.4034 0.904836 14.3313C0.915728 14.2592 0.952985 14.3992 0.97493 14.3134C0.996743 14.2265 0.960637 14.0349 1.02073 14.0048ZM18.5151 14.7061C18.4467 14.5495 18.508 15.1446 18.5452 14.9963C18.547 14.9884 18.5185 14.7137 18.5151 14.7061ZM24.5059 13.9197C24.4108 13.6651 24.4109 14.0556 24.48 14.2527C24.549 14.4497 24.5348 13.9969 24.5059 13.9197ZM25.1562 13.6508C25.0566 13.4528 25.1419 14.2969 25.2034 14.1172C25.207 14.107 25.1621 13.6622 25.1562 13.6508ZM1.38279 16.4563C1.3812 16.4485 1.3402 16.4454 1.34014 16.4533C1.34056 16.6445 1.42253 16.6505 1.38279 16.4563ZM25.7995 13.3654C25.7627 13.2542 25.7097 13.3936 25.7555 13.532C25.7923 13.6433 25.8453 13.5038 25.7995 13.3654ZM15.8543 14.3704C15.8525 14.3616 15.8228 14.357 15.8292 14.407C15.8497 14.568 15.8845 14.5178 15.8543 14.3704ZM26.9325 13.2249C26.7613 13.2125 26.5794 12.5281 26.7709 12.5856C26.8056 12.596 26.7253 12.8158 26.7746 12.8737C26.8648 12.9792 26.8654 12.5362 26.971 12.7613C26.9902 12.8026 26.9425 13.2271 26.9323 13.2259C26.9324 13.2255 26.9325 13.2252 26.9325 13.2249ZM18.4041 13.9956C18.4022 13.9878 18.3616 13.985 18.3615 13.9929C18.3617 14.184 18.4437 14.1899 18.4041 13.9956ZM14.1339 14.1966C14.1297 14.1801 14.0355 14.1751 14.0343 14.1909C14.0217 14.5049 14.2122 14.516 14.1339 14.1966ZM21.0351 13.2514C21.0566 13.0566 21.106 13.0282 21.1681 13.2626C21.1235 13.2549 21.0798 13.258 21.0351 13.2514ZM21.3131 1.89175C21.3032 2.13531 21.1703 2.42079 21.0365 2.62698C20.9948 2.69169 20.9018 2.62865 20.8684 2.67203C20.8032 2.75714 20.8301 2.85797 20.7572 2.94089C20.7325 2.96848 20.5808 2.88546 20.5586 2.91535C20.438 3.07938 20.4331 3.26284 20.3491 3.43723C19.9387 4.28325 19.6304 5.16447 19.2992 6.05068C19.1893 6.34599 18.9396 6.66385 18.9139 6.99127C18.9109 7.02996 19.0588 7.0493 19.0685 7.05963C19.2154 7.22041 18.9402 7.10117 18.8816 7.16101C18.6498 7.3987 18.5458 7.70433 18.5212 7.98666C18.521 7.98837 18.521 7.99005 18.5209 7.99169C18.5199 8.10604 18.8228 8.07786 18.6341 8.14398C18.6211 8.14871 18.4796 8.07534 18.4544 8.10156C18.3979 8.15962 18.3836 8.30501 18.3552 8.35644C18.2995 8.45603 18.2958 8.47409 18.2637 8.57416C18.2186 8.71056 18.0948 8.85073 18.0841 9.00722C18.0823 9.04078 18.2484 9.04628 18.2593 9.10406C18.2702 9.16192 18.2168 9.28956 18.1671 9.32267C18.1173 9.35583 18.0025 9.29991 17.9725 9.29924C17.7197 9.29138 17.9956 9.54322 17.9972 9.5663C18.0212 9.97031 17.741 10.2204 17.6356 10.5538C17.5563 10.806 17.5275 11.1034 17.4408 11.342C17.3362 11.6284 17.1751 11.8401 17.0953 12.1274C17.0868 12.1575 17.2774 12.1823 17.2673 12.2193C17.1595 12.6126 17.0123 12.983 16.7606 13.3227C16.7351 13.3568 16.5955 13.2535 16.5608 13.2843C16.3512 13.4749 15.9147 13.7321 16.5462 14.1095C16.4643 14.257 16.3689 14.4382 16.1812 14.531C16.0779 14.5818 15.9618 14.4798 15.9508 14.5356C15.9489 14.545 15.95 14.5588 15.9547 14.5787C15.9618 14.6096 16.1223 14.6304 16.1216 14.6729C16.1188 14.8515 16.0077 15.007 16.0272 15.1913C16.0315 15.2289 16.1677 15.2689 16.1883 15.2867C16.3544 15.4337 15.9876 15.442 15.9543 15.4606C15.7033 15.6063 15.7144 15.7851 15.637 15.9783C15.6189 16.0231 15.8171 16.0366 15.8061 16.0821C15.7465 16.3179 15.6427 16.5445 15.4791 16.7349C15.4422 16.7771 15.3084 16.6737 15.2831 16.6909C15.1732 16.7672 15.4497 16.9004 15.3496 16.9758C15.3289 16.9918 15.2041 16.9298 15.1884 16.9281C14.9425 16.901 15.2381 17.0754 15.2391 17.0935C15.2587 17.3246 14.8809 17.3185 14.854 17.5224C14.8511 17.547 15.0342 17.5615 15.016 17.6267C14.8951 18.0625 14.671 18.4868 14.3716 18.8425C14.3252 18.8981 14.2223 18.802 14.2056 18.7998C13.944 18.7678 14.2406 18.9406 14.2437 18.9664C14.2603 19.1664 13.9331 19.2084 14.2595 19.4772C13.9207 19.9891 13.794 20.5923 13.4267 21.0858C13.3364 21.2072 13.2314 21.3218 13.1053 21.4264C13.0976 21.4333 12.952 21.3487 12.9372 21.3628C12.7576 21.5308 13.0128 21.5985 13.2398 21.8684C13.2966 21.9365 12.8988 21.8814 12.8689 21.8788C12.759 21.8692 12.5486 21.73 12.5251 21.7329C12.3388 21.7601 13.0945 22.09 13.0362 22.2168C13.0331 22.2202 12.9031 22.1399 12.8845 22.1441C12.8263 22.1571 12.8659 22.2151 12.8035 22.2253C12.6596 22.2481 12.2845 22.1049 12.4434 22.3155C12.4642 22.3425 12.8981 22.5188 12.8252 22.6222C12.7959 22.6632 12.7094 22.8655 12.6556 22.9082C12.6019 22.9509 12.4838 22.8482 12.476 22.8493C12.225 22.9134 12.1773 22.8212 11.8755 22.769C11.5747 22.7168 12.2172 22.9981 12.2733 23.0623C12.329 23.1268 12.1286 23.1645 12.0642 23.1665C11.9998 23.1684 11.9295 23.0937 11.889 23.1034C11.6229 23.1688 12.1692 23.3234 12.2444 23.4236C12.4224 23.6611 11.908 23.5302 11.8079 23.6195C11.7807 23.6438 11.8992 23.671 11.896 23.7028C11.8817 23.8284 11.7047 23.8212 11.7783 24.0085C11.7903 24.0389 12.0219 24.2761 11.7848 24.238C11.7507 24.2323 11.6472 24.1494 11.5988 24.1818C11.5263 24.23 11.4405 24.339 11.4429 24.4309C11.4448 24.4989 11.6665 24.5328 11.5733 24.5708C11.5318 24.5875 11.448 24.476 11.3794 24.5122C11.3109 24.548 11.2438 24.6936 11.2201 24.7501C11.1966 24.8065 11.3561 24.8498 11.3637 24.8591C11.406 24.9139 11.4226 25.054 11.4177 25.0632C11.1976 25.5405 10.736 25.8385 10.5777 26.3329C10.5652 26.3713 10.7286 26.4275 10.7282 26.4342C10.728 26.5878 10.3766 26.2811 10.198 26.2937C10.5107 26.4437 10.4292 26.4638 10.4178 26.5662C10.4126 26.6157 10.5429 26.6564 10.5531 26.6665C10.7008 26.8228 10.4459 26.7414 10.3926 26.7269C10.1965 26.6738 10.3797 26.8276 10.2483 26.7925C10.1179 26.7578 9.97952 26.6034 9.93842 26.6855C10.0356 26.7668 10.3537 26.8594 10.367 26.9459C10.3877 27.0805 10.3221 27.2134 10.2287 27.3352C10.0941 27.5115 9.90675 27.6576 9.83285 27.7601C9.70813 27.9328 9.69498 28.0039 9.596 28.0904C9.41687 28.2468 9.66693 28.2916 9.69551 28.4669C9.72361 28.6428 9.23971 28.2954 9.11881 28.2511C8.99817 28.2063 9.10206 28.2888 9.02909 28.2761C8.95619 28.2634 8.90634 28.1752 8.85553 28.2124C8.80494 28.2493 8.92705 28.4943 9.03306 28.5771C9.25797 28.7521 9.55029 28.8357 9.38575 28.9163C9.37612 28.9209 9.2543 28.8201 9.22432 28.8413C8.9907 29.0123 8.84854 29.2478 8.62463 29.4259C8.59364 29.4503 8.4596 29.336 8.43987 29.3491C8.2341 29.4856 8.52705 29.5614 8.74816 29.8273C8.38748 29.589 8.12586 29.5146 8.04092 29.6566C7.98963 29.7421 8.16134 29.8215 8.24388 29.9441C8.2688 29.9809 8.12132 29.9773 8.19153 30.0329C8.42075 30.215 8.73497 30.3198 8.53644 30.4044C8.52732 30.4079 8.4024 30.3073 8.38093 30.3251C8.2414 30.4397 8.49291 30.6099 8.43145 30.7875C8.38188 30.9291 8.09619 31.0501 7.98705 31.1754C7.57133 30.9254 7.58905 31.1134 7.8446 31.338C7.77884 31.4219 7.73647 31.5299 7.64411 31.5944C7.61245 31.6166 7.50381 31.5246 7.48849 31.5207C7.24918 31.457 7.50468 31.6637 7.50379 31.69C7.48035 31.9704 7.16871 32.0096 7.25246 32.3366C7.25557 32.3482 7.53671 32.5345 7.29364 32.4608C7.27704 32.4555 7.1863 32.3095 7.11869 32.398C7.051 32.4867 6.7879 32.5715 6.84019 32.7852C6.85273 32.8367 7.03629 33.0608 6.81405 33.0143C6.78399 33.0078 6.70745 32.9478 6.65392 32.9322C6.48312 32.8829 6.75943 33.0838 6.48451 32.9785C6.26419 32.8944 6.06391 32.8667 6.03861 32.98C6.03232 33.0082 6.03683 33.0452 6.05453 33.0922C6.05689 33.0994 6.26736 33.2723 6.23813 33.3114C6.19133 33.3737 6.08539 33.4379 6.04395 33.5079C6.02419 33.5415 6.17974 33.6088 6.17877 33.6162C6.12043 33.888 5.89239 33.9711 5.68915 34.173C5.65183 34.2095 5.76735 34.4553 5.56157 34.4429C5.33618 34.4294 4.69978 33.896 4.73239 34.2115C4.74504 34.3383 5.55825 35.0057 5.00328 34.8705C4.92288 35.2469 4.51968 35.3635 4.48864 35.7656C4.48719 35.7835 4.70497 35.9835 4.68131 36.0129C4.64573 36.0563 4.51469 36.0082 4.48557 36.0368C4.36069 36.1547 4.37526 36.3467 4.27173 36.4731C4.23277 36.5211 4.12588 36.4271 4.08038 36.4827C4.0349 36.5386 4.16432 36.6797 4.0361 36.7126C3.9387 36.7371 3.58096 36.5919 3.4905 36.6497C3.80157 36.8571 3.75839 36.9092 3.77525 37.0638C3.77863 37.0937 3.90111 37.1441 3.90832 37.1619C3.94009 37.2359 3.82725 37.2113 3.86513 37.2868C3.87415 37.305 3.98071 37.3753 3.99411 37.3942C4.11211 37.5572 3.80688 37.499 3.75391 37.4886C3.55232 37.4496 3.67109 37.5713 3.57561 37.5804C3.48021 37.5894 3.45131 37.4632 3.37495 37.4968C3.21583 37.568 3.13294 37.7312 3.04847 37.8485C3.01538 37.8957 3.17927 37.9568 3.17784 37.9658C3.14808 38.0893 2.93004 38.0902 3.17626 38.3332C2.39853 37.9178 3.20732 38.4405 2.96551 38.4871C2.94614 38.4906 2.59083 38.2753 2.56884 38.1983C2.54689 38.1213 2.69858 38.1273 2.65913 38.0149C2.65 37.9883 2.37944 37.6924 2.36706 37.6684C2.27073 37.4803 2.79619 37.8102 2.82767 37.8244C3.16879 37.9751 2.88443 37.6452 2.87733 37.6034C2.84399 37.413 2.98575 37.3563 2.97322 37.203C2.9657 37.103 2.63031 36.8735 2.67478 36.8284C2.82216 36.6787 3.3359 36.9288 3.03019 36.4982C2.96503 36.4063 2.5708 36.1978 2.94394 36.265C2.96743 36.2693 3.29495 36.3518 3.16008 36.1886C3.14305 36.1681 3.03445 36.0977 3.03104 36.083C3.01027 35.986 3.12213 36.0031 3.12213 35.9125C3.12151 35.8228 3.11108 35.7036 3.19605 35.6531C3.24711 35.6226 3.48675 35.6961 3.5502 35.7067C3.73223 35.7384 3.53986 35.5223 3.73702 35.5965C3.93532 35.671 4.15174 35.9153 4.32813 35.8886C4.04789 35.7027 3.76324 35.5073 3.48279 35.3182C3.63207 35.1085 3.85936 34.9556 3.98395 34.7329C3.9991 34.7052 3.82939 34.6351 3.84168 34.6028C3.89488 34.4661 4.07277 34.4267 4.10998 34.2724C4.13835 34.1524 4.04481 33.9425 4.06857 33.8146C4.4333 33.9578 4.41857 33.7364 4.5172 33.6456C4.55164 33.6137 4.63702 33.6709 4.68257 33.6615C4.85227 33.6244 4.53398 33.4919 4.50636 33.4352C4.38799 33.1942 5.04817 33.59 5.12296 33.4345C5.12722 33.4263 4.83802 33.1149 4.82434 33.0885C4.73419 32.9182 4.954 33.1505 5.01179 33.115C5.11728 33.0504 5.24111 33.0368 5.20712 32.8636C5.19677 32.8128 5.02682 32.6016 5.23329 32.6438C5.26036 32.6492 5.37291 32.725 5.38372 32.7226C5.4671 32.7006 5.44067 32.6428 5.3788 32.5729C5.3026 32.4868 5.17269 32.3823 5.12785 32.3033C5.04678 32.1599 5.36065 32.2109 5.44681 32.2325C5.6686 32.2904 5.4998 32.3253 5.51658 32.3391C5.71288 32.5088 5.72245 32.4091 5.77761 32.3605C6.139 32.5703 6.16871 32.4739 5.83308 32.3097C5.79635 32.2919 5.80121 32.3585 5.77761 32.3605C5.46029 32.0939 5.47106 31.9759 5.8593 32.075C6.04122 32.1216 6.19284 32.275 6.21464 32.0921C6.2246 32.0093 5.96365 31.8848 5.93133 31.787C5.85757 31.5639 6.18915 31.5344 6.23349 31.3789C6.24954 31.3226 6.08626 31.2885 6.09256 31.2472C6.10832 31.1382 6.25724 31.1198 6.25912 30.999C6.25911 30.988 6.10586 30.923 6.12075 30.8941C6.23074 30.6733 6.43048 30.5444 6.56253 30.3271C6.62657 30.2217 6.65843 29.9886 6.73922 29.887C6.87856 29.7103 7.22316 29.595 7.26745 29.4023C7.29689 29.2771 7.1406 29.218 7.06966 29.1163C6.93178 28.9198 7.3588 28.9595 7.42323 28.9686C7.42536 28.9689 7.40657 29.0796 7.50795 29.073C7.67714 29.1325 7.42331 28.9699 7.42323 28.9686C7.46433 28.9754 7.6032 28.8083 7.59671 28.756C7.59316 28.7275 7.45114 28.6612 7.45184 28.6479C7.47149 28.3315 7.57598 28.0662 7.77899 27.8535C7.78419 27.8507 7.93289 27.9427 7.94323 27.935C8.09134 27.8296 7.95731 27.6311 7.91303 27.4496C7.86883 27.2679 7.95825 27.194 8.26005 27.2678C8.27692 27.1591 8.46431 27.0933 8.57576 27.0573C8.68723 27.0212 8.3944 26.8477 8.39208 26.838C8.33519 26.6129 8.44612 26.5397 8.56614 26.4366C8.6097 26.3993 8.6543 26.3583 8.69216 26.305C8.76024 26.2103 8.8247 25.9854 8.85018 25.8582C8.86987 25.7574 8.968 25.7425 8.96522 25.6388C8.96492 25.6248 8.82529 25.5649 8.82188 25.5589C8.70869 25.3853 9.01342 25.601 9.08161 25.6134C9.32926 25.6593 9.46518 25.6761 9.42569 25.5079C9.41683 25.4691 8.98525 25.1443 8.98275 25.0817C8.98047 25.0006 9.13751 25.1127 9.13077 25.0255C9.13034 25.0181 9.0252 24.9648 9.05091 24.9267C9.16884 24.7488 9.33562 24.5751 9.42496 24.3743C9.43769 24.3468 9.25358 24.2963 9.2692 24.2553C9.34257 24.0629 9.44965 23.8667 9.61689 23.7285C9.65859 23.6948 9.76185 23.7808 9.80135 23.7888C10.0409 23.8358 9.7767 23.6001 9.77761 23.5836C9.79174 23.1874 10.1936 23.0714 10.2231 22.6736C10.2243 22.6514 9.96191 22.3528 10.2748 22.427C10.2956 22.4319 10.6151 22.5094 10.4432 22.3597C10.4324 22.3503 10.2648 22.3171 10.3121 22.2574C10.3593 22.1979 10.3115 22.0417 10.5197 22.0273C10.5853 22.0227 10.9081 22.0903 10.7185 21.8933C10.7052 21.8797 10.2459 21.4987 10.6293 21.6202C10.6924 21.6403 11.0706 21.8277 10.9238 21.631C10.8952 21.5933 10.7929 21.5897 10.7643 21.5121C10.7199 21.3933 10.8721 21.334 10.7474 21.1559C10.7253 21.1246 10.4992 20.9311 10.7238 20.9631C10.759 20.968 10.8788 21.0446 10.9075 21.0199C11.0447 20.9027 11.0302 20.7077 11.1875 20.5966C11.243 20.5571 11.438 20.6785 11.519 20.6475C11.6 20.6165 11.7045 20.5272 11.6359 20.4258C11.5673 20.3245 11.2074 20.2401 11.2201 20.1406C11.2217 20.1278 11.2236 20.1152 11.2258 20.1027C11.2963 19.6912 11.6417 19.4049 11.8298 19.0438C11.8586 18.9888 11.719 18.9847 11.7526 18.9C11.8765 18.5877 11.9885 18.0062 12.3544 17.8415C12.6479 17.7092 12.6913 18.0459 12.8427 17.9143C12.9154 17.8503 12.5602 17.6039 12.5558 17.5797C12.5077 17.3403 12.734 17.2792 12.7493 17.0871C12.7524 17.0475 12.5798 17.0183 12.5842 16.9853C12.5977 16.872 12.7114 16.7929 12.737 16.6905C12.7481 16.6443 12.6235 16.6043 12.6487 16.5678C12.7078 16.4799 12.7924 16.4149 12.9433 16.3654C12.9571 16.3608 13.0856 16.4781 13.1193 16.4087C13.1734 16.2961 13.3423 16.1953 13.2778 16.0161C13.2582 15.9627 12.9802 15.8539 13.2055 15.8424C13.2526 15.84 13.5786 15.9912 13.3275 15.7808C13.286 15.7454 12.9591 15.4305 13.2418 15.4446C13.3162 15.4483 13.6115 15.4971 13.5865 15.4328C13.582 15.4238 13.4222 15.393 13.4226 15.3478C13.4264 15.1898 13.4974 15.0492 13.5041 14.8875C13.5056 14.8443 13.3287 14.8436 13.3359 14.781C13.3555 14.6081 13.4669 14.4281 13.5719 14.2923C13.6109 14.2424 13.7257 14.3287 13.7412 14.3297C13.994 14.3467 13.6998 14.1948 13.6899 14.1663C13.632 13.99 13.8149 13.9379 13.8222 13.7969C13.8246 13.7581 13.6683 13.73 13.6577 13.7183C13.6547 13.7149 13.652 13.7116 13.6496 13.7086C13.5695 13.6085 13.8019 13.7478 13.8462 13.7134C13.975 13.6145 14.0146 13.4659 14.0411 13.3308C14.0508 13.2808 13.8608 13.2736 13.8714 13.2294C13.9309 12.9672 14.0392 12.7099 14.2197 12.4934C14.254 12.4528 14.376 12.5279 14.4096 12.5285C14.6441 12.5338 14.3902 12.3349 14.3702 12.3035C14.2798 12.1584 14.4104 12.1587 14.4194 12.0606C14.4609 11.5828 14.7238 11.0513 14.9076 10.6499C15.1492 10.1181 15.4117 9.73198 15.5439 9.1936C15.5525 9.15935 15.3643 9.13784 15.3694 9.10763C15.4446 8.71606 15.6249 8.37698 15.6875 7.985C15.693 7.95302 15.5108 7.94628 15.5138 7.89326C15.5188 7.78417 15.5668 7.6582 15.6517 7.57117C15.6928 7.52861 15.8174 7.63966 15.8558 7.59588C15.9459 7.493 15.9951 7.37193 16.0036 7.24441C16.0036 7.24412 16.0036 7.24383 16.0036 7.24355C16.0047 7.19023 15.8112 7.21505 15.8288 7.14866C15.9448 6.69514 16.0484 6.22942 16.4036 5.83928C16.428 5.81234 16.7882 5.88595 16.7399 5.7995C16.6435 5.76642 16.5284 5.73372 16.4246 5.70156C16.5594 5.01862 16.8648 4.4 17.0689 3.73203C17.0775 3.7038 16.8767 3.70144 16.8924 3.64655C16.9838 3.32482 17.0125 3.01452 17.2869 2.7389C17.3138 2.71165 17.6392 2.81725 17.6149 2.70875C17.6103 2.68958 17.6049 2.53431 17.5433 2.47786C17.5338 2.46992 17.3728 2.45476 17.3807 2.40727C17.4302 2.12959 17.5394 1.86104 17.7038 1.62085C17.7306 1.58201 17.8827 1.67119 17.9033 1.64389C18.0479 1.44977 17.9856 1.17909 18.1898 1.00774C18.3272 0.893048 18.5975 1.01948 18.8967 1.01731C18.9389 1.01699 18.9681 0.930781 19.1319 0.968613C19.544 1.06354 19.9808 1.22306 20.4214 1.31923C20.5162 1.34004 20.446 1.19513 20.6546 1.32446C20.6686 1.33333 20.7215 1.43888 20.7929 1.4801C20.8423 1.50872 21.0147 1.52536 21.075 1.5732C21.1352 1.62103 20.9879 1.61781 21.0549 1.68845C21.123 1.75932 21.3168 1.78675 21.3131 1.89175ZM9.07507 26.8926C9.25675 26.9002 8.73631 26.605 8.82114 26.7488C8.82586 26.7561 9.06607 26.8923 9.07507 26.8926ZM4.23806 35.2006C4.51606 35.2558 4.22723 34.9873 4.01642 34.9387C3.80586 34.8901 4.15374 35.1839 4.23806 35.2006ZM3.81293 36.2154C4.05462 36.225 3.35316 35.7477 3.42545 35.9514C3.42942 35.9631 3.79887 36.2149 3.81293 36.2154ZM18.8852 1.38612C18.8931 1.38708 18.9171 1.32636 18.9099 1.32285C18.7348 1.2413 18.6871 1.36266 18.8852 1.38612ZM3.40434 37.2256C3.52133 37.2565 3.47084 37.0918 3.32547 37.0534C3.20857 37.0223 3.25886 37.1872 3.40434 37.2256ZM11.5439 23.4946C11.5525 23.4974 11.58 23.4593 11.5342 23.4381C11.387 23.3699 11.4 23.4477 11.5439 23.4946ZM2.4041 38.7552C2.58173 38.5464 3.25629 38.7973 3.02619 39.0003C2.9845 39.0371 2.90442 38.7801 2.81392 38.802C2.64887 38.8422 2.96864 39.1556 2.70123 39.1316C2.6525 39.1268 2.39275 38.7662 2.40356 38.7543C2.40374 38.7546 2.40392 38.7549 2.4041 38.7552ZM9.72868 27.1945C9.7364 27.1969 9.77371 27.1437 9.76754 27.1386C9.61711 27.0176 9.542 27.1244 9.72868 27.1945ZM13.0271 21.2021C13.044 21.2058 13.1196 21.0761 13.1074 21.0653C12.8558 20.8675 12.7027 21.1283 13.0271 21.2021ZM7.97461 31.171C8.10339 31.3285 8.07979 31.4124 7.84498 31.3379C7.89154 31.2844 7.9289 31.2251 7.97461 31.171ZM36.4778 29.7549C36.5282 30.2085 36.4691 30.7659 36.3892 31.2202C36.3645 31.3563 36.259 31.2856 36.2371 31.3783C36.1945 31.5575 36.245 31.7413 36.1942 31.9261C36.1769 31.9848 36.0096 31.9099 35.9953 31.9717C35.918 32.3115 35.9573 32.6601 35.9177 33.006C35.9081 33.093 35.8986 33.1809 35.8894 33.2699C35.7381 34.6845 35.6521 36.0975 35.5616 37.5303C35.5464 37.7737 35.5314 38.0041 35.5158 38.2441C35.4778 38.8345 35.3085 39.5325 35.359 40.1392C35.365 40.2096 35.5135 40.1717 35.5253 40.1854C35.7056 40.4003 35.41 40.3225 35.3667 40.4588C35.2315 40.8903 35.1837 41.3505 35.1892 41.7906C35.1906 41.9074 35.1959 42.0197 35.2043 42.13C35.2217 42.3534 35.5216 42.1396 35.3501 42.3586C35.3384 42.3738 35.1838 42.3122 35.1652 42.3727C35.1231 42.51 35.1423 42.7742 35.1261 42.8815C35.0943 43.0878 35.0947 43.1218 35.086 43.3176C35.0726 43.5852 34.9831 43.9005 35.0074 44.1893C35.0131 44.251 35.1766 44.176 35.2001 44.2749C35.2235 44.374 35.1997 44.6326 35.1583 44.7183C35.1169 44.804 34.9924 44.7617 34.9629 44.776C34.714 44.8928 35.0391 45.2059 35.0458 45.2454C35.091 45.5316 35.0823 45.7986 35.0536 46.0577C35.0109 46.4446 34.9244 46.8161 34.9048 47.2077C34.8798 47.7146 34.9145 48.244 34.8772 48.7268C34.8331 49.2856 34.7147 49.7754 34.6915 50.321C34.6915 50.3213 34.6915 50.3217 34.6915 50.322C34.6887 50.3811 34.8818 50.3252 34.8788 50.3974C34.8474 51.1556 34.7678 51.9047 34.5704 52.6559C34.5505 52.7301 34.3946 52.6174 34.3649 52.6904C34.1866 53.1478 33.7869 53.8171 34.4683 54.1922C34.4404 54.3265 34.4107 54.4704 34.3715 54.6089C34.3715 54.6089 34.3715 54.6089 34.3715 54.609C34.3157 54.8266 34.2307 55.0328 34.1073 55.1864C33.9649 55.3596 33.842 55.1286 33.8476 55.3845C33.8464 55.4454 34.0234 55.4112 34.0087 55.5019C33.9462 55.8835 33.7068 56.2639 33.5165 56.6466C33.4791 56.7234 33.6044 56.7923 33.6092 56.8275C33.6333 57.137 33.1316 57.1494 33.0682 57.1666C32.5439 57.3747 32.2507 57.6059 31.8082 57.7666C31.7037 57.8018 31.8908 57.9385 31.7892 57.9793C31.6906 58.0175 31.5892 58.0509 31.4933 58.0778C31.051 58.2014 30.6047 58.2255 30.186 58.1658C30.0715 58.1486 30.1734 57.9849 30.1199 57.9682C29.9006 57.8941 29.8432 58.1986 29.6226 58.1217C29.5766 58.1055 29.6112 57.9686 29.6036 57.9529C29.4911 57.7068 29.3487 58.0338 29.3164 58.0382C28.8919 58.0989 28.6591 57.7021 28.2825 57.6762C28.2349 57.6726 28.304 57.8667 28.1712 57.8458C27.8977 57.8019 27.6272 57.7391 27.3633 57.66C26.7565 57.4785 26.174 57.2076 25.6675 56.886C25.5528 56.8134 25.6928 56.7299 25.6913 56.7116C25.6676 56.4251 25.4511 56.701 25.4051 56.6945C25.0543 56.6387 24.8949 56.2434 24.5037 56.499C24.2699 56.3504 24.033 56.2082 23.796 56.0668C22.7904 55.4667 21.7463 54.8631 21.0478 53.8801C21.0369 53.8653 21.1702 53.7588 21.1481 53.7298C21.0425 53.5891 20.9591 53.5406 20.8723 53.5405C20.7427 53.5389 20.5995 53.6387 20.3404 53.6574C20.2292 53.6636 20.3352 53.2317 20.342 53.1983C20.3628 53.0731 20.5913 52.9481 20.5881 52.9168C20.5611 52.667 19.9986 53.2724 19.8055 53.0717C19.8007 53.0646 19.9353 52.986 19.9305 52.9591C19.9163 52.8753 19.8247 52.8655 19.8168 52.7796C19.802 52.5837 20.0617 52.2749 19.7322 52.2474C19.6899 52.2433 19.3613 52.5824 19.2212 52.3756C19.1689 52.3011 18.888 51.943 18.8459 51.8227C18.8008 51.7036 18.9735 51.6887 18.9736 51.6775C18.9595 51.2979 19.1006 51.3595 19.2645 51.067C19.4362 50.7838 18.857 51.1796 18.7547 51.1601C18.651 51.1396 18.681 50.8494 18.7092 50.7752C18.7353 50.6995 18.8519 50.7186 18.859 50.6604C18.9061 50.2675 18.4791 50.671 18.3284 50.6086C18.3154 50.6029 18.3034 50.5968 18.2924 50.5904C17.9994 50.4122 18.3838 50.04 18.3752 49.8049C18.3727 49.7369 18.2705 49.8181 18.2457 49.7615C18.1533 49.5355 18.2883 49.3639 18.129 49.0959C18.1016 49.0616 17.7907 48.7958 18.0414 48.6542C18.077 48.6371 18.1976 48.7113 18.2404 48.6105C18.3029 48.4589 18.3982 48.2021 18.4256 48.0264C18.4462 47.8939 18.1914 47.9449 18.3218 47.8146C18.3804 47.7603 18.4328 47.9403 18.5315 47.8394C18.6237 47.7429 18.7895 47.4742 18.8702 47.3738C18.9458 47.2733 18.7845 47.2155 18.7824 47.2005C18.7719 47.1108 18.8808 46.8809 18.8987 46.8666C18.9871 46.7757 19.0829 46.6924 19.1849 46.6149C19.8936 46.0806 20.7636 45.838 21.5338 45.4629C21.6042 45.4292 21.496 45.2874 21.5061 45.2806C21.7365 45.1204 21.6919 45.6192 21.9132 45.7022C21.7755 45.3835 21.896 45.4067 22.0604 45.3147C22.14 45.2703 22.054 45.1567 22.0576 45.1411C22.1275 44.9061 22.2948 45.1324 22.3315 45.1779C22.4697 45.3444 22.5018 45.0934 22.5919 45.2068C22.6808 45.3196 22.602 45.5409 22.7663 45.4964C22.7838 45.3641 22.5777 45.0815 22.6957 44.9979C23.0364 44.7583 23.6792 44.742 24.1488 44.7591C24.308 44.7641 24.4488 44.7706 24.5536 44.7668C24.9672 44.7536 25.0862 44.7255 25.327 44.7563C25.7577 44.8176 25.5931 44.5846 25.8545 44.4667C26.1198 44.3515 25.9985 44.9459 26.0384 45.0723C26.0765 45.199 26.1149 45.0676 26.1612 45.1372C26.2068 45.2068 26.1098 45.2939 26.2159 45.3195C26.3205 45.3445 26.6164 45.1212 26.6549 44.9894C26.7406 44.7094 26.6124 44.4101 26.8992 44.5213C26.9155 44.5279 26.8574 44.6819 26.9203 44.6995C27.4272 44.8344 27.9331 44.875 28.4252 45.0277C28.4912 45.0488 28.4146 45.2154 28.4527 45.2296C28.8486 45.3805 28.7321 45.0758 28.9965 44.7787C28.8999 45.1863 28.9869 45.4567 29.2667 45.513C29.2773 45.5151 29.2882 45.5169 29.2994 45.5185C29.4826 45.5439 29.4757 45.3531 29.6141 45.2379C29.6559 45.2031 29.7699 45.3499 29.8064 45.2657C29.9276 44.9908 29.8475 44.6505 30.1561 44.8275C30.1695 44.8358 30.0999 44.9855 30.1479 45.0026C30.453 45.114 30.5371 44.8205 30.8883 44.844C31.1691 44.8632 31.6022 45.1335 31.9009 45.2264C31.7967 45.6999 32.1049 45.6506 32.2884 45.3485C32.4795 45.4038 32.6944 45.4326 32.873 45.5215C32.9345 45.552 32.8599 45.6789 32.8647 45.6955C32.9356 45.9564 33.0949 45.66 33.1404 45.6577C33.6169 45.6451 33.929 45.976 34.4138 45.8631C34.4164 45.8625 34.4189 45.8619 34.4215 45.8613C34.4389 45.857 34.5517 45.5383 34.6024 45.8071C34.6053 45.8255 34.4234 45.9348 34.622 46.0013C34.8204 46.0677 35.1552 46.3498 35.4734 46.2808C35.5508 46.2643 35.8 46.0527 35.876 46.299C35.8859 46.3322 35.838 46.4188 35.8488 46.4782C35.884 46.6678 36.0298 46.3562 36.0452 46.6635C36.0618 46.9713 36.1979 47.2399 36.5349 47.1378C36.5454 47.135 36.6931 46.8988 36.7794 46.9311C36.9165 46.9826 37.0989 47.1014 37.243 47.1474C37.3124 47.1695 37.3211 46.9958 37.3341 46.9968C37.8289 47.0629 38.1192 47.321 38.59 47.5576C38.6763 47.6013 39.0162 47.4809 39.1307 47.7157C39.1537 47.7628 39.1562 47.8248 39.148 47.8945C39.1118 48.205 38.8664 48.6671 39.2781 48.6501C39.4798 48.6421 40.078 47.752 40.2038 48.381C40.8688 48.4955 41.3342 48.9822 42.0185 49.0613C42.0492 49.065 42.2494 48.8331 42.3131 48.8642C42.4072 48.911 42.4068 49.0588 42.4717 49.0962C42.7425 49.2561 43.0512 49.2629 43.3204 49.401C43.4225 49.4531 43.3293 49.5659 43.4506 49.6281C43.5717 49.6903 43.7303 49.5579 43.8623 49.7152C43.8758 49.7315 43.887 49.753 43.8965 49.7784C43.9572 49.9392 43.9526 50.2532 44.0814 50.3538C44.2428 50.0166 44.3552 50.0761 44.6016 50.081C44.6491 50.0819 44.6613 49.9442 44.6866 49.9385C44.7909 49.9127 44.8159 50.0432 44.9188 50.0106C44.9437 50.0028 44.9985 49.8875 45.0219 49.8746C45.2239 49.7612 45.3033 50.1158 45.3161 50.1772C45.367 50.4112 45.4994 50.2903 45.5685 50.406C45.6371 50.5215 45.4462 50.5341 45.5443 50.6311C45.7474 50.832 46.0677 50.9641 46.3105 51.0899C46.4077 51.1393 46.4161 50.9536 46.4318 50.9571C46.6543 51.0182 46.7783 51.2824 47.0423 51.0349C46.7895 51.89 47.2026 51.0196 47.4127 51.3227C47.4291 51.347 47.27 51.7317 47.1558 51.7421C47.0417 51.7526 46.9682 51.5703 46.8048 51.5947C46.7661 51.6002 46.4289 51.8667 46.3964 51.8769C46.1402 51.9554 46.39 51.3871 46.3957 51.3519C46.4524 50.9698 46.0664 51.2474 46.0011 51.2478C45.7011 51.2492 45.5329 51.0715 45.2887 51.0599C45.1292 51.0518 44.9423 51.4129 44.8438 51.3525C44.5169 51.1529 44.6329 50.5817 44.0992 50.8769C43.9851 50.94 43.8701 51.3755 43.7641 50.9433C43.7577 50.9161 43.7022 50.54 43.5107 50.6755C43.4978 50.6847 43.4766 50.7232 43.4562 50.7571C43.4388 50.7862 43.422 50.8119 43.4116 50.8127C43.263 50.823 43.2251 50.6931 43.0742 50.6801C42.9235 50.6672 42.7364 50.6652 42.6043 50.5596C42.5248 50.4962 42.5048 50.2247 42.4847 50.1517C42.4294 49.9425 42.1878 50.1423 42.1928 49.9205C42.197 49.6973 42.4714 49.4725 42.321 49.2632C42.182 49.5695 42.03 49.8798 41.886 50.1861C41.4498 49.9883 41.0587 49.7091 40.6067 49.5437C40.5507 49.5236 40.5399 49.714 40.4782 49.6968C40.2185 49.6239 40.0484 49.4183 39.7706 49.3657C39.5544 49.3252 39.2658 49.4199 39.0397 49.3865C39.0442 49.1315 38.9065 49.038 38.7495 48.9757C38.6547 48.938 38.5533 48.9118 38.4721 48.8682C38.3963 48.8278 38.4366 48.7331 38.3911 48.681C38.2182 48.487 38.2041 48.8434 38.1273 48.8727C37.7994 48.9983 38.0368 48.2658 37.728 48.1784C37.7114 48.1734 37.3836 48.4943 37.3491 48.5097C37.1262 48.6097 37.3672 48.3649 37.2708 48.3002C37.0947 48.182 36.9918 48.0442 36.7254 48.0831C36.6471 48.0948 36.4086 48.286 36.3401 48.0564C36.331 48.0263 36.3818 47.9002 36.3705 47.8882C36.1619 47.6827 36.0269 48.0872 35.8435 48.181C35.6622 48.2753 35.5274 47.9266 35.5074 47.8321C35.4536 47.5866 35.6245 47.7697 35.6372 47.7511C35.787 47.5292 35.6125 47.5218 35.4955 47.464C35.598 47.0585 35.4169 47.0307 35.3736 47.4059C35.3691 47.4469 35.4761 47.4383 35.4955 47.464C35.2688 47.8238 35.0686 47.8189 34.9675 47.3909C34.9192 47.1902 35.0724 47.0159 34.7493 47.0036C34.6033 46.9984 34.5782 47.2901 34.4376 47.3323C34.2976 47.3744 34.1655 47.3308 34.0365 47.2657C33.8715 47.1821 33.7067 47.0616 33.5412 47.0438C33.4348 47.0324 33.4957 47.2105 33.4218 47.2081C33.2263 47.2024 33.0918 47.0473 32.8926 47.0615C32.8745 47.063 32.8766 47.233 32.819 47.2213C32.3735 47.1343 32.0215 46.947 31.5595 46.8488C31.3349 46.8008 30.9284 46.8148 30.6988 46.7555C30.3048 46.6528 29.855 46.3391 29.4992 46.3491C29.2712 46.3555 29.2987 46.5259 29.19 46.6249C29.1673 46.6458 29.1439 46.6594 29.1203 46.667C28.9263 46.7289 28.698 46.3856 28.6645 46.3281C28.6631 46.3258 28.8601 46.3087 28.7666 46.2131C28.7259 46.0311 28.6666 46.3276 28.6645 46.3281C28.6393 46.2854 28.2616 46.2099 28.1838 46.2355C28.1404 46.249 28.1502 46.4067 28.128 46.4108C27.6034 46.5054 27.1031 46.5176 26.5985 46.4364C26.5897 46.4331 26.6058 46.2586 26.585 46.2531C26.2875 46.1713 26.0941 46.387 25.8618 46.5194C25.629 46.6522 25.4389 46.6194 25.28 46.3287C25.1032 46.3768 24.8361 46.266 24.6753 46.202C24.516 46.1378 24.5346 46.4786 24.5227 46.4866C24.4729 46.5213 24.4258 46.5486 24.3805 46.57C24.0852 46.7105 23.8444 46.5965 23.4916 46.6413C23.2913 46.6656 22.9398 46.8026 22.7498 46.8991C22.6031 46.9737 22.4867 46.9275 22.3648 47.0231C22.3485 47.036 22.4168 47.1726 22.4131 47.18C22.3213 47.4044 22.2697 47.0304 22.215 46.9796C22.0162 46.7967 21.8888 46.7068 21.7339 46.8947C21.6963 46.9385 21.7863 47.4815 21.7348 47.5407C21.6619 47.6192 21.6103 47.4318 21.5364 47.5202C21.5301 47.5276 21.5864 47.631 21.5281 47.6551C21.2591 47.7682 20.9297 47.8857 20.6446 48.1177C20.6061 48.1487 20.7723 48.2567 20.7194 48.3036C20.6905 48.3293 20.661 48.3556 20.631 48.3824C20.4152 48.5753 20.3125 48.7246 20.2287 48.7439C20.2041 48.7494 20.0969 48.6685 20.0624 48.6519C19.843 48.5703 20.1332 48.7697 20.1434 48.7647C20.2693 48.8878 19.9267 49.1364 20.2081 49.5246C20.2206 49.5417 20.4648 49.5639 20.4549 49.6634C20.4522 49.6926 20.4289 49.7293 20.3737 49.7764C20.3548 49.7859 20.108 50.018 20.3414 49.9904C20.3558 49.9881 20.4773 49.8634 20.5073 49.9573C20.5383 50.0528 20.7165 50.1409 20.6456 50.3642C20.6212 50.4319 20.4219 50.7125 20.7209 50.6895C20.7433 50.6915 21.3407 50.5252 21.0757 50.8302C21.0329 50.8812 20.6931 51.1345 20.9812 51.1433C21.0364 51.1438 21.0669 51.034 21.1722 51.0676C21.334 51.1186 21.3782 51.3377 21.6366 51.3365C21.6829 51.337 21.9769 51.2299 21.8983 51.4583C21.8863 51.4943 21.7637 51.5711 21.7936 51.6231C21.894 51.7982 22.0595 51.9101 22.2035 52.0552C22.2618 52.1139 22.3179 52.1793 22.3606 52.2535C22.4138 52.3443 22.2267 52.484 22.2686 52.5995C22.31 52.7148 22.4435 52.8998 22.5983 52.8891C22.7519 52.8776 22.8804 52.5173 23.0285 52.596C23.6656 52.9303 24.1402 53.5044 24.7569 53.8997C24.848 53.9577 24.8355 53.8009 24.9739 53.8771C24.9881 53.8848 25.0025 53.8926 25.0173 53.9005C25.5391 54.1853 26.436 54.4948 26.7892 54.9192C27.0808 55.2726 26.5466 55.2426 26.803 55.4401C26.933 55.5367 27.2328 55.1965 27.2691 55.1953C27.589 55.1855 27.7559 55.3687 28.0019 55.4386C28.0399 55.4493 28.0794 55.4571 28.1211 55.4605C28.1845 55.4655 28.1708 55.2845 28.2234 55.2902C28.397 55.3066 28.5709 55.427 28.736 55.4472C28.8106 55.4558 28.823 55.325 28.8866 55.3478C29.0339 55.3994 29.1733 55.4781 29.3094 55.6194C29.3227 55.6323 29.2042 55.7807 29.3233 55.8023C29.5066 55.8354 29.7534 55.9768 29.9647 55.8544C30.0289 55.8173 30.0249 55.52 30.1565 55.7235C30.183 55.7653 30.1658 56.1263 30.3022 55.8089C30.3384 55.7563 30.5003 55.3229 30.6391 55.5693C30.6757 55.635 30.8068 55.9088 30.86 55.8485C30.8659 55.8395 30.7983 55.6909 30.8411 55.6644C30.8483 55.6601 30.8554 55.6558 30.8625 55.6517C31.0054 55.5697 31.1459 55.5275 31.2275 55.4272C31.2482 55.3997 31.1281 55.2772 31.1567 55.2432C31.2267 55.1553 31.3345 55.11 31.4199 55.084C31.4501 55.0774 31.5526 55.1689 31.5652 55.1772C31.7913 55.2814 31.5298 55.0819 31.5161 55.0691C31.4512 54.9649 31.6327 54.963 31.649 54.8007C31.6528 54.7576 31.4902 54.7492 31.4794 54.738C31.3717 54.6327 31.6273 54.7527 31.6743 54.7064C31.7682 54.6103 31.8138 54.4618 31.8295 54.2912C31.8367 54.2155 31.8407 54.1394 31.8438 54.0647C31.8473 53.971 31.6547 54.0534 31.6599 53.9695C31.6894 53.453 31.7571 52.963 31.9025 52.4839C31.93 52.3955 32.0639 52.4655 32.0974 52.4497C32.332 52.3406 32.046 52.1178 32.021 52.0704C31.9072 51.8512 32.0366 51.7884 32.0285 51.6078C32.0073 51.148 32.0388 50.6447 32.0883 50.139C32.1341 49.6743 32.1961 49.2049 32.2447 48.8057C32.3706 47.7575 32.5385 46.9402 32.5623 45.9438C32.5632 45.9073 32.5638 45.8706 32.5643 45.8336C32.5653 45.7674 32.3764 45.8256 32.3749 45.7685C32.3633 45.0286 32.4653 44.3057 32.4389 43.5627C32.4371 43.5018 32.2576 43.5829 32.2487 43.485C32.2293 43.2841 32.2478 43.0314 32.311 42.8314C32.3415 42.7334 32.4882 42.8712 32.5158 42.7725C32.5804 42.5427 32.6012 42.2949 32.5805 42.0567C32.5714 41.9554 32.3863 42.1019 32.3884 41.9707C32.3894 41.8816 32.3903 41.7935 32.3913 41.7038C32.4002 40.899 32.4179 40.1051 32.6483 39.2936C32.6659 39.2318 33.0336 39.1861 32.9665 39.0527C32.8651 39.0403 32.7454 39.038 32.6369 39.0311C32.6259 38.5112 32.6437 37.9902 32.6715 37.4713C32.7131 36.6952 32.7776 35.9169 32.8017 35.1248C32.8033 35.0704 32.6077 35.1614 32.6098 35.0561C32.6221 34.4418 32.5778 33.8472 32.7684 33.2335C32.7712 33.2243 32.774 33.2151 32.7768 33.2059C32.7964 33.1418 33.1377 33.1777 33.0882 32.9896C33.0791 32.9555 33.0366 32.678 32.9631 32.6086C32.952 32.599 32.7921 32.6465 32.7883 32.5596C32.7696 32.0262 32.8107 31.4866 32.9118 30.9629C32.9284 30.8787 33.0976 30.9695 33.1109 30.9097C33.2039 30.4897 33.0773 30.0196 33.2329 29.6158C33.3376 29.3587 33.6308 29.4487 33.9201 29.3013C33.9609 29.2849 33.9677 29.1156 34.1358 29.1036C34.5586 29.0805 35.0213 29.1665 35.472 29.1319C35.5691 29.1219 35.4647 28.912 35.6991 29.0365C35.7149 29.0342 35.7924 29.2297 35.8719 29.2506C35.9268 29.2768 36.0979 29.2298 36.1682 29.2839C36.2384 29.3324 36.0949 29.4261 36.1774 29.5045C36.2608 29.5973 36.4555 29.5489 36.4778 29.7549ZM23.9523 45.9322C23.7844 45.7935 23.8631 46.3868 23.9879 46.2219C23.9938 46.2133 23.9608 45.939 23.9523 45.9322ZM41.2304 49.2935C41.1503 48.9757 40.8801 49.2851 40.9309 49.5256C40.9804 49.7653 41.2546 49.3899 41.2304 49.2935ZM43.1656 49.9066C43.0398 49.6241 42.6676 50.3871 42.9587 50.3277C42.9755 50.3245 43.173 49.923 43.1656 49.9066ZM34 29.9736C34.008 29.9706 34.0163 29.8523 34.0084 29.8505C33.8187 29.7865 33.8023 30.0222 34 29.9736ZM45.0826 50.5498C45.0668 50.4154 44.8243 50.4482 44.8442 50.615C44.86 50.7491 45.102 50.7167 45.0826 50.5498ZM18.6569 49.7279C18.6485 49.7321 18.6626 49.8173 18.7109 49.8021C18.8652 49.7532 18.7934 49.6564 18.6569 49.7279ZM48.1537 52.0621C47.7214 51.8012 47.7639 51.0365 48.2221 51.3611C48.3046 51.4199 47.9272 51.4603 48.0118 51.5751C48.1658 51.7842 48.5067 51.4657 48.608 51.7852C48.6257 51.8431 48.1774 52.0781 48.1524 52.0625C48.1528 52.0624 48.1533 52.0623 48.1537 52.0621ZM23.7564 45.2358C23.7521 45.2283 23.6319 45.2408 23.6305 45.2491C23.5993 45.4468 23.8374 45.4224 23.7564 45.2358ZM21.4049 53.9656C21.3986 53.9832 21.6122 54.1752 21.6298 54.1685C21.9359 54.0164 21.5142 53.6357 21.4049 53.9656ZM31.9031 45.24C32.0719 45.0796 32.2377 45.0918 32.2878 45.3481C32.1644 45.3084 32.0307 45.2783 31.9031 45.24ZM43.1956 13.4079C43.3438 13.4359 43.4543 13.5675 43.5246 13.6994C43.5459 13.74 43.4739 13.8204 43.4865 13.8527C43.5114 13.916 43.5837 13.899 43.6084 13.9715C43.6143 13.9947 43.5092 14.1273 43.5169 14.1482C43.5598 14.2611 43.6644 14.2747 43.7391 14.3623C44.0066 14.6893 44.3169 14.9618 44.6206 15.2229C44.7057 15.2948 44.7859 15.3631 44.8666 15.4327C44.9947 15.5428 45.0952 15.7865 45.2734 15.8207C45.2948 15.8249 45.3636 15.6939 45.3733 15.6858C45.5245 15.5614 45.3478 15.8018 45.3603 15.8565C45.412 16.0744 45.5521 16.18 45.7094 16.2133C45.7771 16.2275 45.8807 15.946 45.8468 16.1196C45.8446 16.1314 45.7462 16.2542 45.7521 16.2778C45.7657 16.3312 45.8456 16.3493 45.8654 16.3769C45.903 16.4304 45.9134 16.4352 45.9596 16.4672C46.0217 16.5119 46.0563 16.6269 46.1454 16.6425C46.1647 16.6454 46.2323 16.498 46.271 16.4906C46.3097 16.4832 46.3656 16.5358 46.3664 16.5814C46.3672 16.6271 46.2893 16.7268 46.2773 16.7535C46.1751 16.9782 46.4333 16.7431 46.4475 16.7424C46.4522 16.7423 46.4566 16.7423 46.461 16.7423C46.6958 16.7429 46.7382 16.9927 46.8966 17.0967C47.0183 17.1762 47.1818 17.2085 47.2927 17.293C47.4246 17.3944 47.492 17.5444 47.6328 17.6213C47.6476 17.6296 47.7367 17.4622 47.755 17.472C47.9495 17.5769 48.1196 17.7176 48.2276 17.9463C48.2383 17.9694 48.1212 18.0899 48.1263 18.1212C48.1416 18.2076 48.1474 18.3364 48.1951 18.3974C48.2513 18.469 48.3657 18.4468 48.624 18.1516C48.6828 18.2268 48.7569 18.3142 48.7399 18.4799C48.729 18.5866 48.5837 18.705 48.6805 18.6789C48.7022 18.6732 48.7777 18.5331 48.8034 18.5344C48.9117 18.5398 48.9636 18.6394 49.0855 18.6259C49.1105 18.6228 49.1884 18.5045 49.2075 18.4868C49.3634 18.3443 49.2254 18.6651 49.2239 18.6945C49.2154 18.9159 49.3296 18.9082 49.4184 18.978C49.4389 18.9942 49.5253 18.822 49.5491 18.8321C49.6726 18.8878 49.7743 18.9822 49.828 19.1264C49.8397 19.1589 49.7225 19.2738 49.7231 19.296C49.7269 19.392 49.9193 19.1536 49.9264 19.2411C49.9281 19.2592 49.8401 19.3666 49.8328 19.3802C49.7182 19.5929 49.9439 19.3384 49.9556 19.3378C50.109 19.3244 49.9559 19.6516 50.0731 19.6771C50.0874 19.6799 50.1693 19.5219 50.2031 19.5384C50.2263 19.5496 50.2489 19.5617 50.271 19.5747C50.4599 19.6853 50.6211 19.8745 50.712 20.1061C50.7281 20.1462 50.6257 20.2334 50.6175 20.2476C50.4906 20.4708 50.7202 20.2186 50.7378 20.2162C50.8713 20.204 50.7664 20.4853 51.0715 20.2105C51.3021 20.576 51.7707 20.6709 51.8432 21.2238C51.8442 21.2304 51.7254 21.3488 51.7279 21.3614C51.7472 21.4658 51.8267 21.3997 51.9643 21.2901C52.0267 21.2397 52.1025 21.1815 52.1905 21.1268C52.2615 21.0834 52.049 21.4108 52.0336 21.435C51.978 21.5252 51.7921 21.6927 51.7835 21.7122C51.7166 21.8659 52.2742 21.2585 52.3324 21.3133C52.3332 21.316 52.2212 21.4189 52.2156 21.4343C52.1976 21.4826 52.2538 21.4529 52.2319 21.5043C52.1809 21.6229 51.9126 21.9207 52.1223 21.7997C52.1504 21.7849 52.4654 21.4385 52.5035 21.5073C52.5184 21.5347 52.6151 21.621 52.6177 21.6675C52.6206 21.714 52.4953 21.8013 52.4924 21.8077C52.4131 22.0126 52.329 22.0443 52.1452 22.2792C51.9603 22.5115 52.4631 22.0229 52.5329 21.983C52.6013 21.9419 52.5294 22.1064 52.4985 22.1575C52.4676 22.2086 52.3824 22.2572 52.3686 22.2901C52.2765 22.5039 52.6569 22.0904 52.7625 22.0416C53.015 21.9294 52.6624 22.3171 52.664 22.399C52.6649 22.4217 52.7468 22.3349 52.7658 22.3405C52.8425 22.3675 52.7432 22.5031 52.9088 22.4752C52.9349 22.4694 53.2277 22.3392 53.0659 22.5079C53.0423 22.5317 52.9275 22.5937 52.9201 22.6336C52.906 22.6887 52.9326 22.779 52.9953 22.7987C53.0429 22.815 53.2034 22.6681 53.1728 22.7457C53.1583 22.7793 53.0294 22.8067 53.0101 22.8628C52.9916 22.9197 53.0372 22.9922 53.0602 23.031C53.0817 23.066 53.2234 22.9869 53.2349 22.9855C53.3028 22.9814 53.4127 23.0423 53.4149 23.0507C53.4753 23.1806 53.4781 23.373 53.4326 23.5C53.3711 23.7212 53.2119 23.9426 53.1146 24.1616C53.1016 24.1906 53.2514 24.2752 53.2509 24.2806C53.2346 24.4179 52.9309 24.0697 52.7786 24.0159C53.0478 24.2339 52.9774 24.2215 52.9609 24.2933C52.9526 24.3284 53.0596 24.4109 53.0675 24.4225C53.1739 24.6047 52.9633 24.4404 52.9226 24.4046C52.7669 24.2786 52.8988 24.4737 52.7977 24.3857C52.7005 24.2956 52.6046 24.1221 52.5698 24.154C52.6354 24.2604 52.8729 24.4854 52.8702 24.5549C52.8395 24.8387 52.422 24.784 52.3097 24.8057C52.2811 24.813 52.2575 24.8205 52.237 24.8276C52.1673 24.8517 52.1367 24.8712 52.0737 24.8607C51.9252 24.8348 52.0601 25.0391 52.0221 25.1726C51.9814 25.3063 51.8106 24.7379 51.7543 24.6233C51.6991 24.5082 51.7347 24.6346 51.6984 24.5735C51.6625 24.5123 51.6574 24.422 51.6214 24.4073C51.5866 24.3924 51.5859 24.6325 51.6174 24.7622C51.6861 25.0364 51.8207 25.3033 51.7026 25.2334C51.6958 25.2291 51.6622 25.0763 51.639 25.0674C51.4577 25.0013 51.3128 25.0364 51.1423 24.9729C51.1195 24.9637 51.0912 24.792 51.0776 24.7847C50.9365 24.7077 51.0519 24.979 51.0668 25.3099C50.9746 24.8881 50.875 24.6414 50.7884 24.6598C50.7354 24.6709 50.789 24.8518 50.7854 24.9891C50.7843 25.0288 50.7232 24.9226 50.7298 24.9911C50.7301 24.994 50.7305 24.9973 50.731 25.001C50.7731 25.2885 50.8819 25.5965 50.7585 25.4919C50.753 25.4868 50.7316 25.3291 50.7154 25.3229C50.6105 25.2816 50.6624 25.5805 50.5683 25.6375C50.4952 25.6821 50.3192 25.5283 50.2243 25.5151C50.1371 25.038 50.077 25.1619 50.1013 25.4972C50.0416 25.4939 49.9824 25.5233 49.9189 25.487C49.8971 25.4746 49.8867 25.334 49.8818 25.3194C49.8062 25.0907 49.8343 25.4158 49.8237 25.4304C49.7084 25.5747 49.5629 25.3473 49.4689 25.6044C49.4657 25.6136 49.5056 25.9483 49.4363 25.7096C49.4318 25.6931 49.4526 25.5353 49.3907 25.5321C49.3786 25.5315 49.3637 25.5248 49.347 25.5156C49.2776 25.4777 49.1793 25.3974 49.1281 25.5307C49.1128 25.5706 49.0953 25.8486 49.0274 25.6416C49.0183 25.6135 49.0124 25.5169 48.9979 25.4645C48.9515 25.2976 48.9788 25.6373 48.914 25.3537C48.8491 25.0701 48.7633 24.8622 48.7035 25.07C48.7016 25.076 48.7124 25.3465 48.6856 25.3452C48.6431 25.3429 48.5768 25.2936 48.5332 25.3C48.5122 25.3032 48.5434 25.4685 48.5401 25.4719C48.4068 25.5805 48.293 25.4417 48.1335 25.3915C48.1047 25.3819 48.0449 25.6169 47.9754 25.4416C47.9082 25.2717 47.8915 24.6063 47.8087 24.5984C47.7978 24.5974 47.7857 24.6075 47.7721 24.6313C47.7258 24.7139 47.7394 25.7604 47.5991 25.2287C47.4171 25.3771 47.226 25.1129 47.0447 25.3159C47.0367 25.3249 47.0272 25.6174 47.0066 25.6147C46.9761 25.6101 46.9516 25.4751 46.9299 25.4674C46.8417 25.4315 46.759 25.5527 46.6727 25.5391C46.6396 25.5342 46.6438 25.393 46.6047 25.3871C46.5656 25.3813 46.5508 25.5677 46.4905 25.4809C46.4715 25.4526 46.45 25.3674 46.4273 25.276C46.3971 25.1537 46.365 25.0201 46.334 24.9961C46.3486 25.3697 46.3117 25.3637 46.2532 25.4649C46.2414 25.4845 46.2605 25.614 46.2551 25.63C46.2325 25.698 46.205 25.5912 46.1844 25.6651C46.1794 25.6829 46.1842 25.8104 46.1804 25.8322C46.1476 26.0216 46.0728 25.7371 46.0605 25.6875C46.0117 25.4992 46.0015 25.6657 45.9643 25.5922C45.9282 25.5186 45.9751 25.4235 45.9345 25.3795C45.8481 25.2885 45.76 25.3118 45.675 25.3083C45.6426 25.3076 45.6692 25.4774 45.6647 25.4812C45.5972 25.5263 45.5359 25.3464 45.5033 25.6867C45.437 24.8102 45.4615 25.7728 45.3682 25.5989C45.361 25.5848 45.3448 25.1699 45.3697 25.1085C45.3947 25.0472 45.4391 25.176 45.4781 25.0802C45.4887 25.0576 45.5321 24.6676 45.537 24.6439C45.5854 24.4585 45.61 25.0783 45.6137 25.1123C45.6564 25.479 45.7136 25.0582 45.7297 25.0288C45.7987 24.8941 45.8673 24.9792 45.9313 24.8822C45.9745 24.8195 45.9605 24.4134 45.9935 24.4247C46.0997 24.4619 46.1667 25.0265 46.2481 24.5312C46.2653 24.4255 46.2241 23.9828 46.3169 24.3283C46.3211 24.3443 46.3614 24.5194 46.3928 24.5304C46.4042 24.5344 46.4143 24.517 46.4209 24.4631C46.424 24.4374 46.4178 24.3081 46.423 24.297C46.4575 24.225 46.4895 24.3266 46.5257 24.2754C46.563 24.2241 46.6074 24.1481 46.6562 24.1894C46.6856 24.2142 46.7353 24.4529 46.7524 24.5111C46.8016 24.6787 46.8254 24.398 46.8604 24.6023C46.8961 24.8075 46.8679 25.124 46.9383 25.2539C46.9207 24.9181 46.9056 24.5732 46.8891 24.2355C47.0246 24.2392 47.1672 24.3389 47.3007 24.3146C47.3175 24.3112 47.2874 24.1322 47.305 24.1239C47.3789 24.0898 47.4565 24.2133 47.5296 24.1561C47.587 24.1111 47.6381 23.915 47.6974 23.8617C47.7188 23.9767 47.7416 24.0443 47.7649 24.0833C47.8182 24.1735 47.8727 24.1124 47.9225 24.1325C47.9474 24.1425 47.9551 24.245 47.9753 24.2768C48.0512 24.3943 47.9896 24.0585 48.0023 24.0036C48.0557 23.7693 48.136 24.5347 48.224 24.507C48.2288 24.5058 48.2456 24.0918 48.2506 24.0656C48.2837 23.8948 48.2734 24.2068 48.3079 24.2337C48.3711 24.2829 48.422 24.3761 48.4769 24.2492C48.4932 24.2116 48.5115 23.9524 48.5714 24.1446C48.5793 24.1698 48.5918 24.3049 48.5968 24.3123C48.6852 24.4354 48.6383 24.0119 48.6624 23.8638C48.6863 23.7157 48.7848 24 48.8085 24.0825C48.8696 24.2959 48.7937 24.1787 48.7945 24.2003C48.8035 24.4572 48.8455 24.4077 48.8843 24.4247C48.9411 24.8386 48.9895 24.8072 48.9244 24.4405C48.9172 24.4005 48.894 24.4427 48.8843 24.4247C48.8657 24.0139 48.9119 23.9552 49.0225 24.327C49.0744 24.5012 49.0747 24.7124 49.1524 24.6247C49.1876 24.5851 49.1334 24.3022 49.1572 24.2197C49.1596 24.2117 49.162 24.2045 49.1646 24.198C49.2222 24.0527 49.3542 24.2803 49.4259 24.2285C49.4529 24.2089 49.4008 24.0576 49.4183 24.0388C49.4643 23.9886 49.5288 24.0981 49.5718 24.0298C49.5757 24.0234 49.5378 23.8626 49.5538 23.8579C49.6742 23.819 49.7977 23.9049 49.9253 23.8844C49.9878 23.8743 50.0791 23.764 50.144 23.7694C50.2407 23.777 50.3945 23.9316 50.484 23.9218C50.4977 23.9203 50.51 23.9149 50.5203 23.9045C50.5703 23.8545 50.5194 23.6971 50.5181 23.5819C50.514 23.359 50.6908 23.7165 50.7184 23.7716C50.7195 23.7734 50.679 23.8239 50.7267 23.899C50.7864 24.0658 50.7182 23.7724 50.7184 23.7716C50.7359 23.8076 50.8437 23.8176 50.8543 23.7818C50.8605 23.7622 50.8129 23.6134 50.8168 23.606C50.9115 23.4346 51.01 23.3629 51.1533 23.3908C51.1564 23.3931 51.2104 23.5593 51.217 23.5625C51.3128 23.6114 51.2808 23.3952 51.2862 23.2569C51.2903 23.119 51.337 23.1452 51.4852 23.4078C51.4958 23.3797 51.5367 23.3983 51.5803 23.4308C51.6134 23.4552 51.6492 23.4871 51.677 23.512C51.7425 23.5692 51.5902 23.2649 51.589 23.258C51.5507 23.0351 51.6726 23.1887 51.734 23.184C51.7648 23.1813 51.7579 23.1225 51.7295 23.0975C51.7071 23.0776 51.7633 23.1336 51.7172 23.1091C51.7105 23.1065 51.5967 23.0066 51.5918 23.0034C51.4287 22.9166 51.7279 23.1357 51.7766 23.1806C51.9525 23.3479 52.0642 23.4093 51.9478 23.3901C51.9262 23.3752 51.4163 23.2064 51.3686 23.2515C51.3147 23.2941 51.5036 23.3299 51.4494 23.363C51.4452 23.3657 51.3296 23.3377 51.3304 23.3687C51.3325 23.4489 51.3743 23.4962 51.3942 23.5C51.4081 23.5231 51.4091 23.5497 51.4026 23.5808C51.401 23.5915 51.2154 23.6053 51.2108 23.6246C51.1877 23.7072 51.2335 23.8094 51.3207 23.7887C51.3426 23.7841 51.4572 23.7197 51.492 23.7027C51.6987 23.592 51.3967 23.7536 51.3925 23.7596C51.2439 23.8312 51.4132 23.5369 51.2096 23.5265C51.1971 23.5249 50.8833 23.7221 51.0989 23.4921C51.1137 23.4773 51.3323 23.2395 51.1509 23.3667C51.1397 23.3749 51.03 23.5001 51.0204 23.4647C51.0098 23.4282 50.8981 23.4705 50.9983 23.3123C51.0304 23.263 51.2362 23.0143 51.0213 23.1602C51.0056 23.1695 50.5481 23.5288 50.812 23.229C50.8556 23.1799 51.1556 22.8829 50.9633 22.9971C50.9267 23.02 50.8737 23.0999 50.8137 23.1234C50.7219 23.1602 50.7608 23.0406 50.5935 23.1409C50.5638 23.1585 50.3399 23.341 50.4661 23.1613C50.4858 23.1331 50.589 23.0368 50.5875 23.0138C50.5837 22.9492 50.5363 22.9251 50.5009 22.8919C50.477 22.8695 50.4576 22.8415 50.4596 22.7895C50.4611 22.7448 50.6244 22.5853 50.6421 22.5193C50.66 22.4533 50.6512 22.3671 50.5573 22.4231C50.4637 22.4794 50.251 22.7757 50.1953 22.7654C49.9535 22.7214 49.9368 22.4287 49.7848 22.2636C49.7635 22.2401 49.7013 22.3571 49.664 22.3297C49.5277 22.2301 49.2091 22.1324 49.2625 21.8245C49.3012 21.5744 49.5273 21.5372 49.5077 21.408C49.4975 21.3457 49.1997 21.6488 49.183 21.6527C49.0154 21.6937 49.0672 21.498 48.9569 21.4862C48.9339 21.4836 48.8459 21.6316 48.8275 21.6279C48.7959 21.6224 48.7794 21.5956 48.7643 21.5673C48.7489 21.5385 48.735 21.5081 48.7083 21.4968C48.6843 21.4871 48.6095 21.5942 48.5972 21.5724C48.5668 21.5213 48.5606 21.4481 48.5902 21.3174C48.5929 21.3055 48.7169 21.1953 48.6873 21.1657C48.6381 21.1174 48.6454 20.9725 48.5096 21.0274C48.4691 21.0441 48.2915 21.2841 48.3745 21.0892C48.3918 21.0485 48.6145 20.7672 48.3853 20.9833C48.347 21.019 48.0237 21.3001 48.1444 21.0549C48.1762 20.9903 48.323 20.7344 48.2735 20.7554C48.2661 20.7592 48.184 20.8977 48.1564 20.897C48.0598 20.8916 48.0035 20.8298 47.9074 20.8225C47.8816 20.8209 47.8112 20.9746 47.7759 20.968C47.679 20.9499 47.6125 20.8505 47.5706 20.7571C47.5554 20.7224 47.6533 20.6234 47.6601 20.6098C47.7697 20.3893 47.5612 20.644 47.5399 20.6524C47.4096 20.7006 47.4503 20.5405 47.3675 20.5322C47.345 20.5296 47.2665 20.6658 47.2552 20.675C47.1432 20.763 47.3299 20.5505 47.3264 20.5102C47.3171 20.3964 47.2429 20.3598 47.1706 20.3338C47.1439 20.3245 47.0652 20.4909 47.0425 20.4808C46.9687 20.45 46.9016 20.4067 46.8462 20.3477C46.7993 20.2977 46.7607 20.2365 46.7334 20.1621C46.7224 20.1312 46.8154 20.0255 46.8289 19.996C46.9238 19.7902 46.705 20.0096 46.6781 20.0264C46.5549 20.1026 46.6059 19.9878 46.5502 19.9776C46.2757 19.9293 46.0645 19.6879 45.8923 19.512C45.6689 19.2844 45.5397 19.0395 45.2706 18.9042C45.2537 18.8956 45.1676 19.0615 45.1518 19.0561C45.0976 19.0351 45.0485 19.0072 45.0017 18.9763C44.8724 18.891 44.7592 18.784 44.6097 18.7339C44.593 18.728 44.518 18.8895 44.4881 18.885C44.4264 18.877 44.3715 18.8302 44.3522 18.7507C44.3428 18.7125 44.457 18.606 44.4459 18.5701C44.4204 18.4862 44.3671 18.437 44.2948 18.4242C44.2639 18.4191 44.2031 18.5943 44.1705 18.5759C43.953 18.4577 43.7118 18.341 43.6258 18.0104C43.6189 17.9871 43.8011 17.6686 43.7309 17.7074C43.6741 17.7919 43.6104 17.8931 43.5513 17.9844C43.3729 17.9063 43.2378 17.8016 43.0876 17.6762C42.9414 17.5531 42.8088 17.4271 42.6489 17.3166C42.636 17.3077 42.5569 17.4871 42.5314 17.4707C42.3939 17.3823 42.2006 17.3265 42.1583 17.0743C42.1526 17.0487 42.3421 16.7641 42.2669 16.7787C42.2532 16.7814 42.1586 16.777 42.1025 16.8296C42.0943 16.8377 42.0237 16.9815 41.9992 16.9719C41.8681 16.9203 41.7376 16.7985 41.6722 16.6452C41.6618 16.6201 41.7695 16.4868 41.7628 16.4677C41.6915 16.3194 41.5289 16.3722 41.5023 16.1767C41.497 16.0526 41.6604 15.8083 41.7741 15.5398C41.787 15.4999 41.7608 15.4769 41.8404 15.3286C42.0509 14.962 42.3085 14.5766 42.5305 14.1844C42.5619 14.0902 42.4777 14.1618 42.6143 13.9702C42.6223 13.9566 42.7143 13.9207 42.7584 13.8544C42.7932 13.8111 42.8685 13.657 42.9184 13.6047C42.9684 13.5526 42.9132 13.6865 42.9855 13.6334C43.0491 13.5738 43.1381 13.4004 43.1956 13.4079ZM51.9784 23.7581C52.0907 23.8814 51.7831 23.3683 51.8326 23.5053C51.8354 23.5126 51.9729 23.752 51.9784 23.7581ZM47.1958 24.789C47.2686 25.0485 47.28 24.6588 47.2273 24.4582C47.1751 24.2578 47.174 24.7103 47.1958 24.789ZM46.6279 25.0155C46.704 25.2199 46.669 24.3723 46.6092 24.5471C46.6058 24.557 46.6235 25.0037 46.6279 25.0155ZM41.9845 15.5696C41.9877 15.5623 41.9596 15.5364 41.9551 15.5429C41.8403 15.6956 41.8963 15.7471 41.9845 15.5696ZM46.0593 25.2507C46.0836 25.3646 46.138 25.23 46.1069 25.0884C46.0818 24.9745 46.0289 25.109 46.0593 25.2507ZM52.4401 22.5864C52.4466 22.5802 52.4376 22.5568 52.3992 22.5895C52.2757 22.6948 52.3311 22.6898 52.4401 22.5864ZM45.0763 25.284C45.2248 25.3146 45.319 26.0137 45.1564 25.9368C45.1243 25.9229 45.2229 25.7125 45.181 25.6499C45.1109 25.5356 45.0645 25.976 45.0001 25.7404C44.9807 25.6974 45.0651 25.2808 45.0766 25.283C45.0765 25.2833 45.0764 25.2836 45.0763 25.284ZM52.3626 24.3656C52.3675 24.372 52.4011 24.3603 52.3976 24.3532C52.3127 24.1826 52.2499 24.203 52.3626 24.3656ZM51.6638 21.2829C51.6737 21.269 51.6222 21.2025 51.6098 21.2123C51.3731 21.4176 51.4741 21.5506 51.6638 21.2829ZM50.2206 25.5027C50.2162 25.6978 50.174 25.7282 50.1015 25.4974C50.1418 25.5032 50.1794 25.4983 50.2206 25.5027Z" fill="black"/>
</svg>
