<svg width="49" height="48" viewBox="0 0 49 48" fill="none" xmlns="http://www.w3.org/2000/svg">
<path d="M6.63697 0.928683C6.62779 1.27443 6.49538 1.7068 6.36227 2.03107C6.32079 2.13271 6.22546 2.06132 6.19213 2.13077C6.12708 2.2669 6.15589 2.40821 6.08383 2.54083C6.05943 2.58473 5.90357 2.49881 5.88178 2.54552C5.76357 2.80185 5.76377 3.06332 5.68424 3.33029C5.29215 4.6469 5.0318 5.96271 4.76808 7.32129C4.73482 7.493 4.68131 7.67653 4.62837 7.86444C4.54329 8.1662 4.45958 8.48046 4.4633 8.77393C4.46416 8.8295 4.61454 8.81574 4.62526 8.82766C4.78891 9.01388 4.50067 8.92205 4.44791 9.02335C4.23939 9.42548 4.16805 9.89342 4.17608 10.3056C4.17985 10.4818 4.49127 10.3428 4.30735 10.4977C4.29489 10.5085 4.14467 10.4461 4.12245 10.4917C4.07234 10.5951 4.07614 10.8028 4.05415 10.8848C4.01094 11.0429 4.00944 11.0697 3.99023 11.2216C3.96265 11.429 3.85748 11.6676 3.86811 11.8943C3.87084 11.9427 4.03728 11.8974 4.05606 11.9761C4.07476 12.0549 4.03934 12.2538 3.99445 12.3173C3.94948 12.3811 3.82721 12.3387 3.79717 12.3476C3.5438 12.4208 3.85488 12.6904 3.86006 12.7211C3.94374 13.2831 3.70477 13.7311 3.65534 14.2425C3.61805 14.6327 3.64188 15.0573 3.59951 15.4267C3.59366 15.477 3.58693 15.5263 3.57956 15.5749C3.52235 15.9526 3.427 16.2777 3.40768 16.6641C3.40523 16.7097 3.59771 16.6723 3.59512 16.728C3.56738 17.3206 3.50106 17.8981 3.33052 18.4744C3.31322 18.5326 3.15369 18.4441 3.12653 18.5015C2.96371 18.8533 2.59748 19.4024 3.30287 19.6638C3.25824 19.9056 3.21025 20.1936 3.05115 20.4058C2.94883 20.5416 2.77738 20.3927 2.84332 20.5716C2.85799 20.6119 3.0189 20.5707 3.02899 20.6304C3.07134 20.8813 3.00392 21.1475 3.07141 21.3952C3.08551 21.4455 3.22766 21.4402 3.25231 21.4556C3.45169 21.5848 3.09994 21.7605 3.07283 21.8017C2.87038 22.1127 2.93024 22.3594 2.91032 22.6639C2.90563 22.7347 3.0998 22.6606 3.10212 22.7289C3.1076 22.9322 3.09894 23.1381 3.07183 23.3404C3.05169 23.4907 3.02137 23.6391 2.97907 23.783C2.95654 23.8581 2.79772 23.7812 2.77868 23.8167C2.6967 23.9739 3.00101 24.0206 2.92839 24.1752C2.9135 24.2076 2.77568 24.1833 2.76021 24.1887C2.5174 24.2731 2.85266 24.3686 2.85917 24.3929C2.94915 24.702 2.58841 24.8829 2.6281 25.1774C2.63322 25.2125 2.81137 25.1399 2.81505 25.2383C2.841 25.8814 2.77234 26.5969 2.61814 27.2342C2.59438 27.334 2.46412 27.2596 2.44774 27.2656C2.19164 27.3631 2.53046 27.4367 2.54261 27.4695C2.62965 27.7257 2.34001 27.9736 2.74249 28.156C2.60067 29.1371 2.7668 30.1405 2.54516 31.1076C2.52034 31.2199 2.49066 31.3319 2.45513 31.4435C2.45106 31.4576 2.28326 31.434 2.27586 31.4621C2.18527 31.7999 2.4451 31.7325 2.76645 31.9485C2.84714 32.0027 2.46517 32.1763 2.43726 32.1917C2.33426 32.2475 2.0841 32.1954 2.06428 32.2138C1.90881 32.3667 2.73266 32.3285 2.73663 32.5284C2.73537 32.5347 2.58315 32.5113 2.56838 32.5284C2.52201 32.5817 2.5833 32.6315 2.53213 32.6845C2.4138 32.8082 2.01415 32.8608 2.25154 33.04C2.28237 33.0625 2.74895 33.0164 2.7314 33.1998C2.7239 33.2734 2.74069 33.5935 2.71321 33.6831C2.68563 33.7729 2.53316 33.7164 2.52682 33.723C2.33504 33.9688 2.24971 33.8805 1.95871 34.0101C1.66894 34.1399 2.36848 34.0829 2.44833 34.1287C2.5278 34.1713 2.37004 34.3603 2.31462 34.4066C2.25914 34.4532 2.16137 34.4013 2.13051 34.4421C1.92927 34.7123 2.48262 34.5435 2.59714 34.625C2.86838 34.8155 2.35562 34.9924 2.31303 35.1771C2.30154 35.2268 2.41798 35.1813 2.43105 35.2245C2.48134 35.395 2.32433 35.5065 2.48284 35.6924C2.50875 35.7247 2.82951 35.8718 2.60636 35.9893C2.57416 36.0061 2.44244 35.9709 2.41768 36.0479C2.38047 36.1631 2.36406 36.3663 2.41469 36.4824C2.45212 36.5681 2.65891 36.4545 2.59962 36.5686C2.57316 36.6193 2.44279 36.5367 2.40349 36.6313C2.36412 36.7258 2.38502 36.957 2.39548 37.0436C2.40595 37.1303 2.56416 37.0713 2.57553 37.0776C2.64089 37.1173 2.73148 37.2877 2.73246 37.3026C2.7883 37.8646 2.69395 38.344 2.70312 38.8954C2.70594 39.1067 2.72407 39.3138 2.77303 39.5163C2.78622 39.5717 2.95163 39.5149 2.9554 39.5232C3.04881 39.7091 2.5799 39.6065 2.44559 39.7665C2.78731 39.7051 2.73484 39.7977 2.79002 39.9355C2.8169 40.0017 2.94547 39.9479 2.95987 39.9525C3.17457 40.0281 2.92229 40.1299 2.8712 40.155C2.68324 40.2466 2.92471 40.2878 2.79935 40.3495C2.67505 40.4114 2.46818 40.3344 2.4885 40.4671C2.61641 40.4874 2.92447 40.3466 2.99 40.4391C3.23402 40.7769 3.09855 41.5481 3.12749 41.8397C3.15953 42.1595 3.20193 42.2497 3.19364 42.4321C3.1807 42.7601 3.38861 42.5826 3.54226 42.7638C3.69596 42.938 3.09774 42.9778 2.98074 43.0363C2.86398 43.0948 2.99881 43.0956 2.93956 43.1475C2.88041 43.1996 2.77746 43.1432 2.7726 43.2332C2.76785 43.3255 3.04469 43.4887 3.18036 43.4789C3.46868 43.464 3.72536 43.2852 3.68406 43.5218C3.68176 43.5361 3.52041 43.538 3.51921 43.5907C3.51423 44.0036 3.62964 44.3683 3.68829 44.7572C3.69536 44.8086 3.51935 44.8397 3.52199 44.871C3.56615 45.2192 3.78377 44.9943 4.14283 44.9767C3.75277 45.1586 3.5546 45.3657 3.71374 45.6008C3.8196 45.7468 3.9501 45.6032 4.10587 45.5823C4.14965 45.5732 4.1307 45.7396 4.20033 45.6822C4.41727 45.4877 4.56905 45.1892 4.57871 45.3747C4.58105 45.3842 4.49572 45.5165 4.50982 45.5391C4.60747 45.6658 4.69517 45.4581 4.79344 45.3893C4.81334 45.379 4.83426 45.3704 4.85659 45.3643C5.00899 45.3244 5.22633 45.4266 5.40222 45.3472C5.65735 45.7636 5.79319 45.5277 5.62468 45.2249C5.74017 45.1416 5.81954 45.0312 5.94668 44.9534C5.98997 44.9266 6.07701 45.0412 6.09248 45.0464C6.34255 45.1186 6.1246 44.8677 6.13293 44.836C6.19278 44.6424 6.33038 44.5227 6.43144 44.3815C6.5111 44.2695 6.57027 44.1414 6.54522 43.9673C6.54346 43.9521 6.25494 43.778 6.51333 43.8152C6.53131 43.8174 6.61501 43.9882 6.69939 43.8522C6.78456 43.715 7.07572 43.5264 7.02519 43.2513C7.01253 43.187 6.81307 42.959 7.05176 42.9408C7.08415 42.9384 7.16733 42.9902 7.22514 42.9911C7.41015 42.9918 7.10859 42.8292 7.40764 42.8606C7.70616 42.8929 7.97162 42.8109 7.86545 42.5207C7.86263 42.5115 7.62807 42.3673 7.65667 42.3003C7.66368 42.2839 7.67181 42.2677 7.68106 42.2506C7.73244 42.1559 7.81379 42.0438 7.84513 41.9462C7.86273 41.8911 7.69203 41.8727 7.69233 41.8622C7.72508 41.468 7.94866 41.2533 8.1274 40.874C8.1606 40.8044 8.00063 40.5326 8.21355 40.4396C8.44675 40.3364 9.19734 40.7155 9.10621 40.2978C9.08904 40.2188 8.86822 40.0774 8.69912 39.9382C8.50791 39.7805 8.38268 39.6264 8.69576 39.5565C8.69106 39.0174 9.06889 38.6054 8.99119 38.0518C8.98767 38.0276 8.71828 37.8933 8.73347 37.8401C8.75667 37.7608 8.89916 37.7443 8.9198 37.6885C8.95301 37.6025 8.96423 37.5153 8.96828 37.4284C8.97533 37.2797 8.96259 37.1268 9.00184 36.9836C9.02519 36.8971 9.15764 36.9542 9.18528 36.8512C9.21248 36.7494 9.04428 36.6407 9.15868 36.5145C9.24578 36.4186 9.63808 36.3801 9.70727 36.244C9.34019 36.1728 9.36611 36.0723 9.29937 35.8803C9.28634 35.8434 9.15189 35.8571 9.13911 35.8385C9.08422 35.7627 9.20068 35.7219 9.139 35.6494C9.12422 35.6318 8.99848 35.6096 8.97927 35.5941C8.81183 35.4579 9.12399 35.3319 9.17804 35.3113C9.38401 35.2297 9.22847 35.1517 9.316 35.079C9.40426 35.0014 9.47496 35.1501 9.5366 35.0528C9.54904 35.0332 9.56048 35.0129 9.57102 34.992C9.66835 34.7997 9.68821 34.5653 9.72323 34.3675C9.73741 34.2834 9.56024 34.3157 9.55836 34.3031C9.53993 34.1347 9.74845 33.9597 9.42503 33.8227C10.3101 33.8326 9.35651 33.7015 9.56484 33.4768C9.58152 33.4597 9.99625 33.4907 10.0463 33.5739C10.0968 33.654 9.94978 33.7691 10.03 33.8795C10.0488 33.9058 10.4132 34.1048 10.4334 34.1294C10.5921 34.3174 9.97529 34.247 9.94052 34.2495C9.56396 34.2831 9.95178 34.5213 9.97288 34.5745C10.0521 34.7702 9.99305 34.9042 10.0017 35.0609C10.0037 35.0962 10.0094 35.1321 10.0213 35.1691C10.063 35.295 10.4625 35.3695 10.4352 35.4589C10.3436 35.7601 9.76712 35.7688 10.2016 36.1381C10.2938 36.2183 10.7424 36.2332 10.3584 36.3971C10.3344 36.4069 9.99108 36.5108 10.1724 36.6417C10.1953 36.6582 10.3227 36.6812 10.3305 36.6989C10.3802 36.817 10.2656 36.8692 10.2922 36.9947C10.3194 37.1165 10.3654 37.2676 10.2966 37.3908C10.2553 37.4651 9.99852 37.5203 9.93302 37.5468C9.89009 37.5636 9.87015 37.5845 9.86221 37.6081C9.83545 37.6873 9.94652 37.7923 9.78045 37.811C9.56418 37.8351 9.28267 37.6438 9.11631 37.7884C9.44426 37.8629 9.77914 37.9477 10.1081 38.027C10.0168 38.4081 9.82834 38.7606 9.75439 39.1452C9.74549 39.1931 9.93286 39.1855 9.9278 39.238C9.90538 39.4603 9.73492 39.6183 9.72947 39.853C9.72721 39.9645 9.77763 40.0961 9.81675 40.2263C9.84156 40.3091 9.8618 40.3914 9.86126 40.4669C9.46007 40.48 9.51495 40.7784 9.42551 40.965C9.39451 41.03 9.29693 40.9974 9.25092 41.0365C9.07954 41.1838 9.43058 41.1931 9.46747 41.2582C9.62316 41.5386 8.88058 41.3368 8.82197 41.5923C8.8189 41.6052 9.15931 41.8906 9.17612 41.9215C9.28903 42.1153 9.03261 41.9017 8.97518 41.9813C8.86998 42.126 8.73884 42.2105 8.78712 42.439C8.79677 42.4836 8.88624 42.5948 8.87844 42.6769C8.87477 42.7175 8.84574 42.7528 8.77017 42.767C8.74058 42.7726 8.61602 42.7184 8.60436 42.7272C8.40408 42.8891 8.8009 43.0425 8.88977 43.2146C8.9792 43.3851 8.62958 43.4664 8.53584 43.471C8.29271 43.4861 8.47982 43.3605 8.46191 43.3467C8.24927 43.1888 8.23663 43.3396 8.17474 43.4316C7.78297 43.2863 7.74896 43.4308 8.11208 43.5271C8.15196 43.5373 8.1488 43.4444 8.17474 43.4316C8.51625 43.6778 8.49757 43.8569 8.06893 43.8749C7.86858 43.8807 7.71378 43.72 7.67204 43.9876C7.65214 44.1083 7.93074 44.1932 7.95391 44.3234C7.99613 44.6402 7.61283 44.7857 7.5032 45.042C7.50312 45.0422 7.50304 45.0424 7.50296 45.0426C7.46477 45.1332 7.64862 45.1358 7.62644 45.2013C7.56851 45.3733 7.37714 45.4463 7.31373 45.6333C7.30787 45.6506 7.4658 45.7147 7.43127 45.7643C7.15724 46.1482 6.81161 46.3972 6.29571 46.7441C6.05243 46.9306 5.42311 47.2763 5.10961 47.2658C5.00149 47.2719 4.8947 47.2624 4.79349 47.2442C4.22792 47.2263 3.61827 46.6727 3.34344 46.4037C3.09889 46.1865 3.02416 46.3423 2.84434 46.2949C2.48209 46.1726 2.66549 45.6903 2.69476 45.6151C2.69549 45.6144 2.82918 45.7751 2.85006 45.6384C2.97492 45.4997 2.69697 45.6175 2.69476 45.6151C2.70564 45.5604 2.57376 45.1973 2.523 45.1501C2.49162 45.1206 2.35664 45.2022 2.34286 45.1852C2.00191 44.7309 1.83699 44.33 1.77604 43.8319C1.77702 43.8234 1.9488 43.7894 1.94904 43.7701C1.95724 43.4998 1.70941 43.3844 1.53368 43.1865C1.35951 42.9929 1.36842 42.8266 1.63627 42.6391C1.56674 42.4881 1.65227 42.2284 1.70686 42.0771C1.76205 41.9297 1.42523 41.9765 1.41631 41.9649C1.14342 41.6504 1.30165 41.4076 1.27491 41.0168C1.2642 40.8414 1.16887 40.5064 1.10762 40.3159C1.05857 40.1666 1.12635 40.0638 1.05873 39.926C1.04968 39.9073 0.901608 39.9447 0.895118 39.9394C0.696198 39.798 1.07316 39.8342 1.13504 39.794C1.36102 39.6541 1.48043 39.5718 1.34696 39.3892C1.31639 39.3475 0.772317 39.2708 0.732685 39.1892C0.704984 39.1314 0.750905 39.1117 0.788527 39.0878C0.819531 39.068 0.844903 39.0453 0.818941 38.9952C0.814205 38.9857 0.697087 38.9995 0.69526 38.9273C0.683911 38.5773 0.723291 38.2426 0.683882 37.9C0.679011 37.8537 0.497411 37.9282 0.487311 37.8613C0.440213 37.55 0.420985 37.1849 0.489362 36.8887C0.506596 36.8131 0.640259 36.8511 0.677993 36.8325C0.906237 36.7189 0.556459 36.5996 0.548527 36.5763C0.350258 36.0215 0.63708 35.5774 0.465508 35.0226C0.455489 34.9926 0.0794765 34.7677 0.389282 34.6472C0.409869 34.6389 0.726923 34.5204 0.503854 34.4341C0.489902 34.4286 0.326986 34.5016 0.339577 34.3843C0.352056 34.2645 0.235595 34.0931 0.412376 33.9308C0.468062 33.8797 0.784902 33.7545 0.525218 33.6146C0.507065 33.6061 -0.0769644 33.3927 0.319598 33.2998C0.384895 33.2847 0.806953 33.2883 0.586365 33.1156C0.543627 33.0826 0.451001 33.1468 0.390129 33.0582C0.29638 32.9243 0.405269 32.7305 0.214341 32.5741C0.180519 32.5462 -0.108096 32.4285 0.107603 32.3259C0.141385 32.3098 0.282715 32.3368 0.297616 32.2844C0.36915 32.0354 0.271479 31.7746 0.366403 31.5172C0.39977 31.426 0.627917 31.4703 0.688086 31.3752C0.727124 31.3134 0.76491 31.2111 0.758105 31.1196C0.754413 31.0691 0.737678 31.0258 0.700946 30.9919C0.59632 30.8962 0.233919 31.0036 0.204165 30.8588C0.0750974 30.2328 0.289927 29.577 0.327212 28.9518C0.332801 28.8581 0.202125 28.9346 0.201119 28.7961C0.196167 28.2883 0.0905937 27.3811 0.37733 26.9539C0.606796 26.604 0.764269 27.0549 0.860742 26.7859C0.90683 26.6563 0.48876 26.503 0.476336 26.4707C0.349726 26.1571 0.543122 25.9404 0.494495 25.6627C0.48441 25.6054 0.311696 25.6558 0.305009 25.607C0.280663 25.4403 0.362833 25.268 0.354479 25.1081C0.350346 25.0364 0.219341 25.0449 0.231772 24.9793C0.260043 24.8223 0.320134 24.6843 0.448433 24.5344C0.460124 24.5208 0.618824 24.622 0.629395 24.505C0.646039 24.3161 0.776383 24.0826 0.661044 23.8609C0.626299 23.7955 0.32812 23.7801 0.540109 23.6515C0.584412 23.6245 0.940855 23.6773 0.638577 23.5033C0.60416 23.4833 0.403013 23.3414 0.368559 23.2148C0.35273 23.1568 0.372031 23.102 0.458662 23.0641C0.531118 23.0323 0.828387 22.9569 0.786108 22.8772C0.779273 22.8663 0.617058 22.9007 0.604564 22.8356C0.563342 22.6063 0.592526 22.3686 0.554769 22.1312C0.544378 22.0678 0.373727 22.1525 0.363546 22.0581C0.335111 21.8021 0.394806 21.4892 0.461084 21.2433C0.485825 21.1528 0.619375 21.2241 0.634695 21.2183C0.883799 21.1253 0.559719 21.0427 0.542713 21.0059C0.441404 20.7772 0.605721 20.6172 0.577796 20.4093C0.570518 20.3519 0.411723 20.3823 0.398495 20.3701C0.269714 20.2443 0.544866 20.3493 0.580483 20.2771C0.681389 20.0721 0.683408 19.8473 0.677398 19.6373C0.674942 19.5605 0.488039 19.6341 0.487939 19.5653C0.483942 19.1576 0.531221 18.7347 0.66059 18.3427C0.685282 18.2689 0.821205 18.3266 0.854211 18.3133C1.085 18.2217 0.79301 18.0413 0.766768 18.0037C0.647037 17.83 0.775223 17.7758 0.763455 17.6293C0.70346 16.9151 0.859931 16.0337 0.970313 15.3761C0.972321 15.364 0.97434 15.3519 0.97637 15.3398C1.1196 14.4911 1.31284 13.8331 1.36276 13.0136C1.36619 12.9606 1.17569 12.9948 1.17628 12.9488C1.19251 12.3554 1.32736 11.7841 1.34022 11.1913C1.34162 11.1426 1.15855 11.1924 1.15492 11.1135C1.14627 10.9514 1.17892 10.7508 1.25355 10.5963C1.28962 10.521 1.42767 10.6437 1.4609 10.5675C1.53864 10.3902 1.57436 10.1947 1.5689 10.0023C1.56618 9.92064 1.37265 10.0201 1.38306 9.91572C1.45038 9.20449 1.50762 8.50097 1.83388 7.81378C1.85628 7.76675 2.22528 7.77186 2.16948 7.65845C2.0697 7.63716 1.95104 7.62179 1.84374 7.604C1.84657 7.56689 1.84965 7.52983 1.85296 7.49281C1.94253 6.49219 2.20074 5.52259 2.37045 4.53008C2.37784 4.48664 2.17441 4.5328 2.18776 4.4485C2.26481 3.96096 2.286 3.47744 2.557 3.00898C2.58363 2.9625 2.91675 3.04229 2.88934 2.88852C2.88415 2.86134 2.87493 2.63487 2.81111 2.56616C2.80134 2.55663 2.63741 2.57083 2.64444 2.49936C2.68814 2.08441 2.79648 1.6607 2.96351 1.2663C2.99075 1.20285 3.14589 1.30224 3.16674 1.25734C3.31329 0.938933 3.25024 0.553735 3.45925 0.263048C3.59977 0.0688371 3.87443 0.199792 4.17912 0.138862C4.2221 0.130239 4.25233 0.000460244 4.41894 0.0239627C4.83792 0.0827266 5.28175 0.228932 5.72972 0.284037C5.82616 0.296013 5.75511 0.103863 5.96699 0.248745C5.9811 0.258743 6.03472 0.398304 6.10739 0.44345C6.1576 0.474805 6.33285 0.466688 6.39415 0.523127C6.4554 0.579507 6.30564 0.602108 6.37391 0.689563C6.44322 0.77712 6.64034 0.779682 6.63697 0.928683ZM1.96326 41.4422C2.10549 41.2972 1.51171 41.3718 1.67393 41.4805C1.68248 41.4857 1.95634 41.4496 1.96326 41.4422ZM9.38703 38.6592C9.09532 38.7547 9.44992 38.9437 9.6731 38.8815C9.89624 38.8178 9.47559 38.6294 9.38703 38.6592ZM9.52674 37.035C9.28825 37.1729 10.1152 37.3642 9.9841 37.1388C9.97674 37.1258 9.5406 37.0268 9.52674 37.035ZM4.16625 0.67513C4.17435 0.674906 4.19879 0.581989 4.19145 0.578355C4.0134 0.494651 3.9646 0.680733 4.16625 0.67513ZM9.60191 35.4235C9.47959 35.4601 9.58258 35.6458 9.73519 35.5989C9.85815 35.5604 9.75432 35.377 9.60191 35.4235ZM2.02156 35.1953C2.03038 35.1931 2.03531 35.1246 1.98504 35.1283C1.82311 35.1402 1.87319 35.233 2.02156 35.1953ZM9.98244 32.7363C9.90121 33.1344 9.17406 33.2823 9.30843 32.8608C9.33259 32.7843 9.50859 33.058 9.58405 32.9655C9.71991 32.8092 9.29893 32.6304 9.55418 32.4737C9.60286 32.4302 9.98657 32.7327 9.98333 32.7371C9.98303 32.7368 9.98273 32.7365 9.98244 32.7363ZM2.66188 41.2607C2.66929 41.2572 2.66185 41.1614 2.65377 41.1602C2.45801 41.1378 2.47308 41.3321 2.66188 41.2607ZM2.28941 31.1885C2.29593 31.1864 2.30203 31.1516 2.3062 31.1092C2.31277 31.0412 2.31455 30.9609 2.30501 30.956C2.12169 30.8911 2.03575 31.0138 2.06293 31.1109C2.08186 31.1786 2.1557 31.2301 2.28941 31.1885ZM5.41162 45.3565C5.37241 45.1525 5.41087 45.0928 5.62422 45.225C5.54877 45.2741 5.48555 45.3207 5.41162 45.3565ZM47.1608 8.48883C47.028 8.54774 46.8491 8.50121 46.7122 8.43186C46.6693 8.41038 46.6848 8.30339 46.6549 8.2838C46.5966 8.24561 46.5471 8.30032 46.4893 8.25426C46.4701 8.23847 46.4838 8.06956 46.4639 8.05685C46.3535 7.98847 46.2525 8.03681 46.1423 8.00717C45.604 7.8606 45.0696 7.82917 44.532 7.78731C44.3509 7.77388 44.1244 7.63625 43.947 7.71529C43.9263 7.72467 43.9491 7.87085 43.9459 7.88324C43.8955 8.07315 43.896 7.77484 43.852 7.73827C43.6786 7.59383 43.488 7.59386 43.334 7.66225C43.333 7.66267 43.3321 7.66314 43.3313 7.66366C43.2706 7.69987 43.3563 7.97653 43.2773 7.81993C43.2718 7.80921 43.2774 7.65183 43.2576 7.63656C43.2127 7.60223 43.1353 7.63609 43.1019 7.62618C43.0376 7.60628 43.0274 7.60864 42.9684 7.61137C42.8893 7.61361 42.783 7.54383 42.6985 7.58608C42.6804 7.59558 42.7179 7.75357 42.6902 7.78316C42.6625 7.81269 42.5826 7.80542 42.5531 7.76986C42.5235 7.73427 42.5247 7.60765 42.5177 7.57922C42.4592 7.33913 42.3957 7.68336 42.3849 7.69265C42.1852 7.85191 41.987 7.67556 41.7851 7.69385C41.6329 7.70807 41.4771 7.78597 41.3337 7.79056C41.161 7.79557 41.0049 7.72317 40.84 7.75442C40.8226 7.75754 40.8617 7.94326 40.8405 7.94745C40.6166 7.99163 40.3878 7.9945 40.1466 7.89231C40.1225 7.88189 40.1341 7.71404 40.1089 7.69379C39.9547 7.57338 39.6991 7.27283 39.6966 7.99904C39.5985 7.98184 39.4807 7.96622 39.3793 7.8318C39.3234 7.75778 39.3385 7.61133 39.3078 7.62345C39.3026 7.6255 39.2961 7.63206 39.2878 7.64424C39.2747 7.66307 39.313 7.81767 39.2921 7.83403C39.2041 7.90278 39.0947 7.86432 39.0117 7.95685C38.9946 7.97607 39.0172 8.11596 39.0149 8.14194C38.9948 8.35251 38.8766 8.02329 38.8568 8.0008C38.7074 7.83322 38.6245 7.91731 38.5074 7.92813C38.4802 7.93057 38.537 8.11494 38.5117 8.12406C38.3811 8.16877 38.2398 8.17137 38.0949 8.10627C38.0628 8.09132 38.0676 7.92707 38.0511 7.91171C37.9783 7.84602 38.007 8.15101 37.9384 8.09391C37.924 8.08227 37.9116 7.94394 37.9072 7.92918C37.8377 7.6975 37.8542 8.0374 37.8461 8.04611C37.7446 8.16389 37.6201 7.82458 37.5146 7.89081C37.502 7.8991 37.5583 8.06817 37.5212 8.08086C37.2744 8.1665 37.0045 8.15975 36.7322 8.06199C36.6899 8.04704 36.6963 7.91239 36.6913 7.89675C36.6102 7.65271 36.6394 7.99273 36.6289 8.00745C36.5443 8.11489 36.4035 7.84927 36.404 8.26028C36.0487 8.20632 35.7335 8.38952 35.3759 8.32162C35.2872 8.30502 35.1956 8.27325 35.0994 8.21912C35.0933 8.21604 35.0704 8.04976 35.0583 8.04433C34.9124 7.97735 34.9874 8.228 34.9668 8.55702C34.9618 8.63961 34.8214 8.27573 34.8099 8.24931C34.7684 8.15176 34.7401 7.90311 34.7291 7.88482C34.6395 7.7419 34.8142 8.54766 34.7372 8.56382C34.7345 8.56298 34.7139 8.41227 34.7044 8.39884C34.6745 8.35664 34.6667 8.41985 34.6363 8.37283C34.5665 8.26392 34.4677 7.87528 34.4462 8.11811C34.4437 8.14958 34.5536 8.60429 34.4803 8.59728C34.451 8.59407 34.3314 8.62796 34.2911 8.60577C34.2507 8.58357 34.242 8.43125 34.2382 8.42539C34.1039 8.25072 34.121 8.16245 34.0113 7.88447C33.9014 7.60771 34.0654 8.28944 34.0635 8.36999C34.0615 8.45031 33.9584 8.30483 33.9291 8.25281C33.9 8.20073 33.8999 8.10263 33.878 8.07438C33.7331 7.89024 33.9112 8.42355 33.9035 8.53934C33.8863 8.81331 33.7122 8.31981 33.6308 8.28631C33.6089 8.27725 33.6509 8.38907 33.6366 8.40373C33.5801 8.46022 33.5032 8.31157 33.462 8.47407C33.4552 8.50058 33.4668 8.81903 33.3745 8.60524C33.3612 8.57439 33.347 8.44458 33.3121 8.4231C33.2598 8.39079 33.177 8.3816 33.1419 8.43471C33.1161 8.47398 33.2048 8.67208 33.1472 8.61787C33.1215 8.59365 33.1265 8.46388 33.0807 8.42853C33.0349 8.39314 32.9468 8.42052 32.9138 8.43318C32.8809 8.4459 32.9386 8.59841 32.9385 8.60968C32.937 8.67443 32.8913 8.76636 32.8855 8.76761C32.6032 8.8589 32.2677 8.66461 32.0104 8.8282C31.9903 8.8408 32.0498 9.00156 32.0472 9.00518C31.9911 9.09466 31.9307 8.64052 31.8377 8.50842C31.9369 8.84052 31.8893 8.7885 31.8464 8.83977C31.8258 8.86475 31.8755 8.99023 31.8768 9.00411C31.8935 9.21093 31.797 8.96458 31.7757 8.91461C31.6974 8.73078 31.733 8.96385 31.6803 8.84112C31.6277 8.71939 31.6147 8.52071 31.5641 8.53749C31.5834 8.66092 31.7088 8.96239 31.6845 9.02379C31.6469 9.11929 31.5674 9.14707 31.4783 9.14746C31.3512 9.14791 31.2031 9.09282 31.1301 9.09815C31.0064 9.10718 30.9754 9.14041 30.8947 9.11782C30.7488 9.07717 30.8631 9.29389 30.82 9.42204C30.7768 9.55028 30.6404 8.97324 30.5923 8.8549C30.5444 8.73661 30.5709 8.86538 30.537 8.80266C30.5031 8.73997 30.5068 8.64836 30.4675 8.63297C30.428 8.61763 30.4084 8.86048 30.4369 8.99095C30.497 9.26736 30.6232 9.53782 30.51 9.46422C30.5034 9.45982 30.4725 9.30648 30.4496 9.29715C30.2696 9.22788 30.1154 9.26912 29.9397 9.21462C29.9153 9.20694 29.8797 9.03652 29.8649 9.0302C29.71 8.96408 29.8432 9.22771 29.8784 9.55728C29.759 9.14239 29.6404 8.90336 29.5473 8.9314C29.4913 8.94812 29.5601 9.12387 29.5663 9.26174C29.5683 9.30327 29.4884 9.19349 29.5093 9.27993C29.5778 9.5625 29.717 9.85785 29.5825 9.76673C29.5765 9.76229 29.5391 9.60756 29.5218 9.60323C29.4102 9.57447 29.4965 9.86513 29.4104 9.93318C29.3431 9.98649 29.146 9.85889 29.0477 9.86133C28.8903 9.40247 28.8424 9.53682 28.9194 9.8643C28.8571 9.87166 28.8026 9.91094 28.7323 9.88687C28.7081 9.87872 28.6735 9.74197 28.666 9.72852C28.5496 9.51726 28.6339 9.83267 28.626 9.84904C28.535 10.0132 28.3422 9.8207 28.2972 10.0938C28.2956 10.1036 28.4042 10.4227 28.2855 10.2041C28.2775 10.189 28.2669 10.0296 28.2027 10.0405C28.1383 10.0515 27.9643 9.92324 27.9359 10.1005C27.929 10.1432 27.9746 10.4182 27.859 10.2334C27.8434 10.2082 27.8153 10.1155 27.7886 10.0681C27.7029 9.91728 27.8092 10.2412 27.6773 9.9817C27.5716 9.77392 27.4611 9.61778 27.4141 9.67629C27.4024 9.69083 27.3947 9.71864 27.3921 9.76221C27.3914 9.76867 27.4677 10.0285 27.4397 10.0346C27.3945 10.0444 27.3154 10.0145 27.2725 10.033C27.252 10.0419 27.3257 10.1931 27.3232 10.1974C27.2173 10.339 27.0636 10.2385 26.8885 10.2378C26.8562 10.2374 26.8609 10.4813 26.7404 10.3348C26.6082 10.1745 26.3639 9.38592 26.3012 9.62213C26.2751 9.71706 26.5971 10.7128 26.2972 10.2507C26.1598 10.451 25.8738 10.2692 25.7615 10.5232C25.7563 10.5346 25.8416 10.8147 25.8203 10.8193C25.7884 10.8256 25.7197 10.7067 25.6951 10.7073C25.5908 10.7065 25.5549 10.848 25.4622 10.8676C25.4271 10.8753 25.3835 10.7408 25.3415 10.7501C25.2996 10.7595 25.346 10.9412 25.2585 10.8812C25.1928 10.835 25.0045 10.5033 24.9347 10.4851C25.0801 10.8296 25.0413 10.8378 25.0168 10.9559C25.0121 10.9787 25.0767 11.0926 25.0772 11.1095C25.0803 11.1812 25.0158 11.0916 25.0224 11.1683C25.0239 11.1867 25.0743 11.304 25.0784 11.3257C25.1155 11.5145 24.9392 11.278 24.9084 11.2368C24.7916 11.0805 24.8386 11.2412 24.7772 11.1864C24.7157 11.1316 24.7256 11.0253 24.6705 10.9998C24.5568 10.947 24.4638 11.0103 24.3864 11.038C24.3552 11.0501 24.4448 11.1968 24.4419 11.2022C24.3964 11.2695 24.2588 11.1321 24.3614 11.458C23.9613 10.6753 24.3577 11.5527 24.1958 11.4325C24.1829 11.4227 24.0047 11.0477 24.0075 10.9797C24.0104 10.9118 24.1049 11.0117 24.1045 10.908C24.1045 10.8836 23.9988 10.505 23.9965 10.4803C23.9777 10.2872 24.2361 10.8512 24.2528 10.8811C24.4343 11.2028 24.328 10.7918 24.3331 10.7579C24.3568 10.6026 24.4582 10.6534 24.4849 10.5385C24.5028 10.4639 24.3448 10.0895 24.3832 10.0864C24.5109 10.0758 24.7737 10.5797 24.683 10.0837C24.6638 9.97783 24.4664 9.57926 24.6841 9.86582C24.6979 9.88385 24.8827 10.1522 24.8373 9.95189C24.8316 9.92663 24.7807 9.80766 24.7821 9.79524C24.7925 9.71434 24.8593 9.79794 24.882 9.73463C24.9049 9.67126 24.927 9.58195 24.9921 9.60208C25.0314 9.614 25.1621 9.8206 25.1987 9.86923C25.3035 10.0096 25.2372 9.73507 25.3409 9.91492C25.4449 10.0957 25.5194 10.4053 25.6339 10.5024C25.5065 10.1912 25.3788 9.8705 25.2522 9.5569C25.397 9.50925 25.5738 9.55372 25.7114 9.48127C25.7282 9.47205 25.6417 9.31214 25.6579 9.29794C25.7268 9.2387 25.8448 9.32979 25.9077 9.24896C25.9561 9.18575 25.9544 8.9801 26.0031 8.90862C26.1867 9.24951 26.2364 9.08902 26.3227 9.09267C26.3526 9.09388 26.3887 9.1901 26.4191 9.21414C26.5326 9.30261 26.3759 8.99895 26.3749 8.94179C26.3716 8.69764 26.6601 9.41115 26.7464 9.35697C26.751 9.35437 26.6626 8.9485 26.6619 8.92139C26.6549 8.7454 26.7225 9.05103 26.7667 9.06636C26.8475 9.09444 26.9247 9.16963 26.9524 9.0302C26.9598 8.98923 26.9194 8.73087 27.0309 8.89999C27.0455 8.92213 27.0909 9.04993 27.0981 9.0557C27.1543 9.09776 27.1551 9.04092 27.1385 8.95163C27.118 8.84168 27.071 8.68257 27.0675 8.59871C27.0614 8.44671 27.2347 8.69571 27.2784 8.76983C27.3923 8.96128 27.2834 8.8681 27.289 8.889C27.3561 9.1374 27.3906 9.07725 27.4363 9.08319C27.5888 9.47217 27.6328 9.42888 27.4832 9.08778C27.4667 9.05056 27.4507 9.09817 27.4363 9.08319C27.3256 8.68694 27.3671 8.61535 27.5654 8.95023C27.6582 9.10725 27.7026 9.314 27.7674 9.20835C27.7968 9.16061 27.6811 8.89671 27.6908 8.80954C27.7146 8.61008 27.918 8.82143 27.991 8.75007C28.0176 8.72411 27.933 8.58728 27.9494 8.56442C27.9929 8.50327 28.0838 8.5961 28.1214 8.51837C28.1248 8.51114 28.0564 8.36055 28.0738 8.3521C28.2045 8.28506 28.3592 8.3424 28.5051 8.29471C28.5752 8.27166 28.6703 8.14269 28.7485 8.13533C28.8838 8.12148 29.1133 8.29712 29.2026 8.20611C29.2609 8.14749 29.1937 7.99611 29.1886 7.87949C29.1788 7.65336 29.4036 7.99016 29.4358 8.0432C29.4368 8.04496 29.3887 8.10158 29.4471 8.17152C29.5205 8.33305 29.4353 8.04416 29.4358 8.0432C29.457 8.07727 29.5886 8.07389 29.6028 8.03627C29.6105 8.0157 29.5553 7.86938 29.5602 7.86145C29.6783 7.67657 29.8315 7.58646 30.0178 7.60513C30.0217 7.60724 30.0691 7.77547 30.0774 7.77836C30.1954 7.82313 30.1933 7.60025 30.2353 7.4548C30.2771 7.3095 30.3534 7.33091 30.4861 7.60425C30.535 7.55017 30.6583 7.65187 30.73 7.71465C30.8016 7.77742 30.7127 7.44911 30.7152 7.44137C30.7701 7.26088 30.8566 7.30094 30.9569 7.33095C30.9934 7.34189 31.0321 7.35139 31.0719 7.34848C31.143 7.34378 31.2625 7.25891 31.3253 7.20293C31.3748 7.1581 31.4305 7.2254 31.47 7.16174C31.4753 7.15321 31.428 7.00916 31.4287 7.00293C31.4402 6.81194 31.5093 7.17683 31.5389 7.23727C31.6464 7.45716 31.7067 7.57342 31.7524 7.44397C31.7628 7.41433 31.6755 6.88586 31.6998 6.84713C31.7313 6.79778 31.7647 6.98659 31.7964 6.93029C31.7992 6.92565 31.7682 6.81192 31.7965 6.8098C31.9276 6.79846 32.0812 6.82939 32.2083 6.78479C32.2258 6.77913 32.1568 6.60379 32.1814 6.59261C32.2969 6.54032 32.4317 6.51375 32.5706 6.56976C32.6049 6.58412 32.6179 6.71572 32.6335 6.75192C32.7278 6.97091 32.7014 6.62568 32.709 6.61713C32.8871 6.40502 33.1233 6.66705 33.3101 6.47322C33.3199 6.4621 33.3318 6.08371 33.4425 6.38085C33.45 6.40058 33.561 6.70504 33.5491 6.48254C33.5484 6.46862 33.4867 6.31283 33.535 6.31935C33.583 6.32587 33.6314 6.20199 33.7311 6.36628C33.7628 6.41797 33.8762 6.72138 33.8795 6.4592C33.8791 6.44101 33.8473 5.85672 33.9627 6.23984C33.9816 6.30293 34.064 6.71674 34.0876 6.49059C34.0921 6.44678 34.0487 6.35975 34.0712 6.29492C34.1058 6.19504 34.1994 6.29091 34.2269 6.09328C34.2315 6.05835 34.2228 5.76771 34.3059 5.97259C34.3188 6.00469 34.3355 6.14507 34.3592 6.15631C34.4717 6.21048 34.5555 6.09752 34.6739 6.17345C34.7158 6.2001 34.7419 6.42705 34.7902 6.47974C34.8384 6.53241 34.9229 6.57572 34.9413 6.46617C34.9599 6.35655 34.8491 6.0083 34.9014 5.96864C34.9081 5.96355 34.9149 5.95876 34.9218 5.95425C35.1467 5.80578 35.4238 5.95956 35.6728 5.94622C35.7109 5.94422 35.6574 5.82177 35.7121 5.80965C35.9113 5.76453 36.2415 5.58565 36.4623 5.82982C36.6371 6.02557 36.4887 6.21986 36.6089 6.29165C36.6665 6.32587 36.6558 5.90036 36.6663 5.88525C36.7669 5.73278 36.8803 5.90437 36.9814 5.83096C37.0023 5.81574 36.9543 5.65005 36.9725 5.63896C37.0343 5.59957 37.1154 5.6646 37.1768 5.64138C37.2043 5.63057 37.18 5.50212 37.2074 5.50827C37.2727 5.52151 37.3356 5.56783 37.4135 5.68027C37.4206 5.69052 37.4068 5.85668 37.4534 5.85606C37.5289 5.85459 37.6377 5.9611 37.7059 5.82563C37.7261 5.78493 37.686 5.48909 37.7692 5.68568C37.7867 5.72674 37.821 6.08386 37.8425 5.76824C37.8457 5.71582 37.8982 5.28698 37.9861 5.54689C38.0094 5.61527 38.0834 5.9013 38.1075 5.85158C38.1107 5.84374 38.0729 5.687 38.096 5.66814C38.1778 5.60444 38.2733 5.60917 38.3587 5.54753C38.3815 5.53075 38.3237 5.37089 38.3584 5.35114C38.4538 5.29656 38.5858 5.32252 38.6913 5.36183C38.7296 5.37671 38.7216 5.51619 38.726 5.53071C38.7976 5.76702 38.7824 5.43805 38.7941 5.41732C38.8672 5.29289 38.9521 5.43804 39.0277 5.38794C39.0486 5.37453 39.0144 5.22091 39.0172 5.20652C39.018 5.20239 39.0189 5.19863 39.0197 5.19521C39.0471 5.08196 39.0469 5.3497 39.0787 5.37625C39.1704 5.45379 39.2598 5.43072 39.3404 5.40135C39.3699 5.39034 39.3151 5.21387 39.3419 5.20607C39.5012 5.15638 39.6669 5.1555 39.8351 5.23805C39.8667 5.25394 39.8631 5.39494 39.8726 5.42603C39.9387 5.64361 39.9684 5.334 39.9797 5.30361C40.031 5.1649 40.0694 5.28519 40.1247 5.25621C40.3939 5.11256 40.7447 5.1603 41.0173 5.18565C41.3638 5.21866 41.6444 5.3274 41.9688 5.26539C41.9892 5.26165 41.9529 5.07806 41.9703 5.07245C42.1964 5.00849 42.4306 5.06253 42.6612 4.99076C42.6802 4.9852 42.6387 4.81156 42.6688 4.79672C42.7289 4.76517 42.8083 4.76871 42.8756 4.82008C42.9083 4.84481 42.8785 4.99879 42.9113 5.0206C42.9875 5.07173 43.0657 5.0785 43.138 5.04483C43.1381 5.04475 43.1383 5.04467 43.1384 5.04458C43.1681 5.02825 43.1079 4.85377 43.1487 4.84869C43.4305 4.81007 43.702 4.75992 43.9996 4.97397C44.0201 4.98867 44.0616 5.35321 44.0981 5.28034C44.0944 5.17864 44.0863 5.05927 44.0804 4.95071C44.4922 4.86464 44.8886 4.96722 45.3056 4.9623C45.323 4.96206 45.2815 4.76998 45.3153 4.76852C45.5056 4.76021 45.6884 4.69586 45.8967 4.87756C45.9174 4.89531 45.9263 5.23697 45.9811 5.18218C45.9908 5.17219 46.0754 5.1219 46.0939 5.04661C46.0964 5.03527 46.0717 4.87693 46.0996 4.87075C46.2655 4.83742 46.4306 4.86504 46.5981 4.95382C46.6249 4.96846 46.6061 5.13949 46.6253 5.15139C46.7612 5.23454 46.8983 5.09823 47.0331 5.24578C47.1234 5.34516 47.1067 5.63991 47.1664 5.92621C47.1748 5.9666 47.2278 5.97041 47.2389 6.13817C47.267 6.56002 47.2647 7.02359 47.2976 7.47309C47.3047 7.5699 47.3697 7.462 47.3398 7.69831C47.3376 7.71413 47.2907 7.79442 47.2822 7.8745C47.2763 7.92988 47.3005 8.09984 47.2863 8.17106C47.2721 8.24221 47.2455 8.10005 47.2203 8.18416C47.1953 8.26929 47.2179 8.46288 47.1608 8.48883ZM31.0505 7.99567C31.1408 8.13961 30.9818 7.56288 30.9725 7.71455C30.9722 7.72257 31.046 7.98865 31.0505 7.99567ZM25.7464 9.97081C25.9037 10.1913 25.795 9.81659 25.6773 9.64466C25.5594 9.47307 25.6985 9.90407 25.7464 9.97081ZM25.2396 10.3915C25.3863 10.5553 25.0667 9.7695 25.0625 9.95748C25.0621 9.96815 25.2311 10.382 25.2396 10.3915ZM46.9618 6.01895C46.9629 6.02685 47.0009 6.03267 47.0014 6.02476C47.0117 5.834 46.9357 5.82251 46.9618 6.01895ZM24.7494 10.8299C24.8154 10.9264 24.8211 10.7796 24.7392 10.6596C24.6732 10.563 24.6673 10.71 24.7494 10.8299ZM33.5632 8.00223C33.566 8.01075 33.5939 8.01255 33.582 7.96357C33.5439 7.80582 33.5176 7.85888 33.5632 8.00223ZM23.7838 11.2677C23.9413 11.2319 24.3132 11.8332 24.126 11.8304C24.0919 11.83 24.0951 11.5994 24.0334 11.5578C23.9205 11.4824 24.0575 11.9032 23.8934 11.7186C23.8633 11.6848 23.7741 11.2683 23.7837 11.2667C23.7837 11.267 23.7838 11.2674 23.7838 11.2677ZM31.2757 8.67851C31.2788 8.68585 31.3164 8.68282 31.3151 8.67504C31.2819 8.48696 31.2058 8.49306 31.2757 8.67851ZM35.1645 8.03965C35.1697 8.05578 35.2567 8.05494 35.2565 8.03918C35.2418 7.72569 35.0644 7.72672 35.1645 8.03965ZM29.0421 9.84959C29.0669 10.0432 29.0294 10.0802 28.9196 9.86447C28.9617 9.86322 29.0003 9.8517 29.0421 9.84959ZM25.3912 33.8034C25.532 33.8729 25.627 34.0482 25.6752 34.2046C25.6904 34.2534 25.5992 34.3121 25.6064 34.3492C25.62 34.421 25.6991 34.4264 25.7083 34.5046C25.7111 34.531 25.5747 34.6323 25.5804 34.6573C25.6124 34.7934 25.7219 34.841 25.7817 34.9492C26.0777 35.4832 26.4534 35.9209 26.8476 36.3715C26.973 36.5159 27.0583 36.7915 27.2544 36.8699C27.2774 36.879 27.3619 36.7574 27.3731 36.751C27.5462 36.6537 27.3366 36.8662 27.3461 36.9259C27.3825 37.1605 27.534 37.3027 27.706 37.3681C27.7071 37.3685 27.7081 37.3688 27.7092 37.3691C27.783 37.3878 27.9041 37.1231 27.86 37.2954C27.8571 37.3073 27.7446 37.4177 27.7501 37.4435C27.7628 37.5018 27.8489 37.5344 27.8692 37.5662C27.9079 37.6282 27.9179 37.634 27.9679 37.6753C28.0361 37.7333 28.0742 37.861 28.1725 37.8911C28.1937 37.8971 28.2692 37.753 28.3116 37.7509C28.354 37.7489 28.4143 37.8113 28.4148 37.8589C28.4153 37.9065 28.3299 38.0002 28.3167 38.0264C28.205 38.2476 28.487 38.0359 28.5018 38.0364C28.7727 38.059 28.825 38.3328 29.0054 38.457C29.1413 38.5501 29.3264 38.598 29.4531 38.6915C29.6046 38.8039 29.6902 38.9615 29.8555 39.0462C29.8727 39.0552 29.9526 38.8827 29.9736 38.8933C30.1977 39.0055 30.3947 39.1455 30.5499 39.3788C30.5653 39.4023 30.4561 39.5309 30.4668 39.5631C30.5324 39.7565 30.6001 40.1642 31.0158 39.5674C31.0938 39.6403 31.1911 39.7228 31.2088 39.8943C31.2188 39.9888 31.1231 40.1016 31.1583 40.1097C31.1643 40.1111 31.174 40.1095 31.1885 40.1043C31.2111 40.0964 31.2619 39.9452 31.2903 39.9439C31.4096 39.9384 31.49 40.0343 31.6183 40.0045C31.6445 39.998 31.6996 39.8675 31.7158 39.8469C31.8476 39.6808 31.7779 40.0246 31.7846 40.0549C31.8331 40.2807 31.9566 40.256 32.0729 40.3114C32.0999 40.3243 32.143 40.1357 32.1716 40.1418C32.318 40.1753 32.4517 40.2486 32.5554 40.381C32.5783 40.4109 32.4905 40.5503 32.4985 40.5723C32.5351 40.6677 32.6615 40.3885 32.6982 40.4739C32.7062 40.4915 32.6487 40.618 32.6456 40.6331C32.5966 40.8706 32.7511 40.5669 32.763 40.5635C32.9186 40.5134 32.8721 40.8735 33.0084 40.8695C33.0247 40.8686 33.0525 40.6921 33.0943 40.6996C33.374 40.7485 33.634 40.8853 33.8602 41.1008C33.8955 41.1341 33.8276 41.2513 33.8255 41.2676C33.7952 41.5238 33.9214 41.2064 33.9385 41.1981C34.0721 41.1417 34.0937 41.4446 34.2763 41.0749C34.6098 41.2857 35.0034 41.255 35.3421 41.4656C35.4265 41.5177 35.5082 41.5845 35.5841 41.6731C35.5892 41.6784 35.5454 41.8405 35.5557 41.8504C35.6793 41.971 35.7034 41.7102 35.8559 41.4152C35.8937 41.3411 35.8939 41.7324 35.8956 41.7613C35.9 41.8678 35.8303 42.1084 35.8344 42.1296C35.8719 42.2972 36.0098 41.4844 36.0957 41.4995C36.0982 41.5014 36.0601 41.6487 36.0647 41.6649C36.0792 41.7155 36.1122 41.6602 36.1255 41.7155C36.155 41.8434 36.108 42.2418 36.2242 42.025C36.239 41.9968 36.3018 41.5332 36.3742 41.5676C36.403 41.5818 36.5395 41.5955 36.5731 41.6313C36.6066 41.6671 36.5575 41.812 36.5592 41.8189C36.633 42.0317 36.5812 42.1074 36.5907 42.4071C36.6013 42.7058 36.6887 42.0101 36.7214 41.9358C36.7539 41.8618 36.8074 42.0355 36.8188 42.0948C36.8299 42.1541 36.7927 42.2456 36.8052 42.28C36.89 42.5053 36.9027 41.9423 36.9547 41.8371C37.0755 41.5877 37.0718 42.1115 37.1455 42.1722C37.1651 42.1886 37.1625 42.0689 37.1829 42.0603C37.263 42.0277 37.2892 42.1943 37.3929 42.0568C37.4101 42.0344 37.5146 41.7318 37.5339 41.9647C37.5366 41.9983 37.504 42.1251 37.5333 42.1575C37.5771 42.2062 37.6625 42.2438 37.7197 42.2062C37.7618 42.1783 37.7394 41.9614 37.7809 42.0323C37.799 42.0639 37.7472 42.1842 37.7825 42.2332C37.8176 42.2822 37.9202 42.2867 37.9596 42.286C37.9989 42.2852 37.9926 42.122 37.9967 42.1114C38.0215 42.051 38.1025 41.9799 38.109 41.9807C38.4415 41.9903 38.731 42.2842 39.0613 42.2119C39.0873 42.2064 39.0794 42.035 39.0835 42.0324C39.1746 41.9656 39.0815 42.4153 39.1355 42.5703C39.1444 42.2238 39.1775 42.2884 39.2417 42.2535C39.2726 42.2363 39.2627 42.1015 39.2661 42.0879C39.3199 41.8865 39.3385 42.1508 39.3442 42.205C39.3649 42.4042 39.4076 42.1718 39.422 42.3049C39.4366 42.4371 39.3819 42.6298 39.4421 42.6298C39.4636 42.5065 39.4338 42.1809 39.4802 42.1302C39.552 42.0513 39.6449 42.0498 39.7399 42.0772C39.8755 42.1163 40.0161 42.2144 40.0968 42.2317C40.2334 42.261 40.2798 42.2388 40.3582 42.2849C40.4986 42.3678 40.45 42.1266 40.5386 42.0175C40.6275 41.9082 40.5799 42.4995 40.5916 42.6269C40.6032 42.7541 40.6181 42.6233 40.6334 42.6934C40.6486 42.7633 40.6139 42.8496 40.6509 42.8761C40.688 42.9026 40.791 42.6768 40.8043 42.5438C40.8326 42.262 40.7878 41.9662 40.8848 42.0702C40.8904 42.0764 40.8721 42.232 40.8937 42.2477C41.0632 42.3675 41.2497 42.3737 41.4157 42.4774C41.4392 42.4919 41.4207 42.6653 41.4344 42.6757C41.578 42.7843 41.5231 42.4932 41.5948 42.1677C41.5849 42.5994 41.6325 42.8627 41.742 42.863C41.8078 42.8633 41.7924 42.6751 41.8316 42.5414C41.8434 42.5011 41.8929 42.6293 41.8991 42.5405C41.9197 42.2502 41.868 41.9272 41.9829 42.0533C41.9879 42.0593 41.9765 42.2183 41.9938 42.2274C42.1054 42.2872 42.1111 41.9839 42.2268 41.9435C42.3155 41.9119 42.4834 42.0908 42.5894 42.1165C42.6064 42.6013 42.702 42.4863 42.7278 42.1503C42.7966 42.1611 42.8696 42.1389 42.9382 42.1819C42.9618 42.1966 42.9534 42.3376 42.957 42.3526C43.0129 42.5883 43.0273 42.2618 43.0415 42.2483C43.1998 42.1163 43.3369 42.3559 43.4752 42.1065C43.4801 42.0975 43.4691 41.7606 43.5237 42.0039C43.5273 42.0206 43.4863 42.1766 43.5582 42.1843C43.6298 42.192 43.7763 42.3639 43.8665 42.2016C43.8884 42.1625 43.9313 41.8855 43.9948 42.0955C44.0034 42.124 44.0027 42.2209 44.0158 42.2739C44.0582 42.4428 44.0518 42.1018 44.1078 42.388C44.1525 42.6172 44.2212 42.798 44.2908 42.7549C44.3078 42.7443 44.3249 42.7197 44.3418 42.6786C44.3446 42.6726 44.3485 42.4017 44.38 42.4036C44.4303 42.407 44.5055 42.4578 44.5578 42.452C44.5828 42.4491 44.5539 42.2832 44.558 42.2798C44.7191 42.1732 44.8512 42.3126 45.0402 42.3618C45.075 42.3712 45.1522 42.1352 45.2333 42.3095C45.3217 42.5003 45.3227 43.3264 45.4677 43.1167C45.5267 43.0327 45.5134 41.9856 45.6803 42.5133C45.8951 42.3586 46.1353 42.6132 46.3497 42.3989C46.3594 42.3893 46.3627 42.0961 46.3877 42.0975C46.4256 42.1 46.4579 42.2336 46.4844 42.2399C46.5945 42.2696 46.6795 42.1433 46.7843 42.1502C46.8241 42.1525 46.8256 42.294 46.8733 42.2967C46.921 42.2993 46.9318 42.1116 47.0053 42.1935C47.0608 42.256 47.1512 42.6273 47.2207 42.6639C47.1812 42.2921 47.2261 42.2948 47.2935 42.1878C47.3065 42.167 47.2755 42.0396 47.2808 42.0231C47.3022 41.9532 47.3414 42.0572 47.3607 41.9815C47.3654 41.9633 47.3511 41.8364 47.3541 41.8144C47.379 41.6223 47.4893 41.8985 47.5085 41.9466C47.5819 42.1292 47.5857 41.9615 47.632 42.0314C47.6785 42.1012 47.6331 42.2007 47.6826 42.2405C47.7851 42.3228 47.901 42.2881 47.9956 42.2825C48.0333 42.2794 47.987 42.1134 47.992 42.109C48.064 42.0567 48.165 42.2268 48.1663 41.8846C48.3288 42.7489 48.2026 41.7943 48.3359 41.9546C48.3465 41.9676 48.4097 42.378 48.3833 42.4428C48.357 42.5074 48.2895 42.3851 48.2543 42.4852C48.246 42.5087 48.2302 42.9026 48.2244 42.9271C48.1787 43.1183 48.0935 42.5038 48.0858 42.4704C48.0005 42.1105 47.9744 42.5358 47.9574 42.567C47.8805 42.71 47.7914 42.6328 47.7254 42.736C47.682 42.8027 47.7255 43.2067 47.6823 43.1993C47.54 43.1746 47.428 42.6169 47.356 43.1198C47.3405 43.2271 47.4177 43.6653 47.28 43.3294C47.2712 43.3083 47.1629 42.999 47.1435 43.2044C47.1411 43.2304 47.1555 43.359 47.1498 43.3705C47.1109 43.4456 47.0685 43.3466 47.0233 43.4012C46.9781 43.4558 46.9252 43.5356 46.863 43.4982C46.8255 43.4758 46.7555 43.2408 46.7328 43.1838C46.6684 43.0197 46.6479 43.3022 46.5976 43.1004C46.5473 42.8976 46.5707 42.5791 46.4815 42.454C46.5136 42.7887 46.5429 43.1326 46.5734 43.4694C46.3997 43.4756 46.2193 43.3845 46.05 43.4159C46.029 43.4201 46.0682 43.5979 46.0461 43.6071C45.9528 43.645 45.8572 43.5246 45.7633 43.5849C45.6908 43.6323 45.6246 43.8305 45.5493 43.8857C45.4678 43.5067 45.3582 43.6476 45.2667 43.6201C45.2348 43.6106 45.2281 43.5081 45.2034 43.4765C45.1106 43.36 45.1778 43.6955 45.1597 43.7507C45.0814 43.9865 45.0094 43.2202 44.8983 43.2483C44.8924 43.2495 44.852 43.6643 44.8438 43.6906C44.7927 43.8617 44.8219 43.5491 44.7794 43.522C44.702 43.4726 44.6441 43.3788 44.568 43.505C44.546 43.5424 44.5051 43.8018 44.4425 43.6081C44.4343 43.5827 44.4279 43.4472 44.4223 43.4397C44.3768 43.3835 44.3576 43.4379 44.3461 43.5283C44.3326 43.6396 44.3293 43.8057 44.3049 43.8872C44.2602 44.035 44.1557 43.7474 44.1331 43.6639C44.0738 43.4481 44.1608 43.5681 44.1618 43.5465C44.1726 43.289 44.1147 43.3372 44.067 43.3187C44.0323 42.9024 43.9698 42.9316 44.0177 43.3012C44.023 43.3416 44.0564 43.3003 44.067 43.3187C44.0539 43.7304 43.9849 43.7876 43.8822 43.4103C43.8343 43.2335 43.8554 43.0225 43.7499 43.1058C43.7021 43.1433 43.739 43.4293 43.6994 43.5102C43.6085 43.695 43.4618 43.4347 43.3612 43.4824C43.3246 43.4998 43.3696 43.655 43.3448 43.6723C43.2804 43.7186 43.2102 43.6039 43.1432 43.6678C43.1371 43.6738 43.161 43.8377 43.1391 43.8409C42.9731 43.8682 42.8242 43.7693 42.653 43.7733C42.5703 43.7753 42.4263 43.8716 42.3408 43.8561C42.1924 43.8304 41.9964 43.5961 41.8713 43.6572C41.7888 43.6964 41.8107 43.8608 41.7772 43.9738C41.7121 44.1931 41.5827 43.8053 41.5658 43.7451C41.5653 43.7431 41.6359 43.703 41.5964 43.6191C41.5714 43.4431 41.5667 43.7443 41.5658 43.7451C41.5543 43.7063 41.4122 43.671 41.3847 43.7027C41.3697 43.7201 41.38 43.8762 41.3721 43.8823C41.1846 44.0243 40.9833 44.065 40.7887 43.9915C40.7853 43.9883 40.7909 43.8136 40.7829 43.8083C40.6704 43.7303 40.5975 43.9435 40.5031 44.0695C40.4086 44.1954 40.336 44.1518 40.2849 43.851C40.2125 43.8877 40.1126 43.7531 40.0562 43.6713C39.9998 43.5896 39.9834 43.9293 39.9781 43.9359C39.8559 44.0907 39.7757 44.0258 39.6775 43.966C39.6418 43.9442 39.6036 43.9231 39.5599 43.9134C39.4822 43.8957 39.3256 43.9387 39.2351 43.9716C39.1649 43.9984 39.1275 43.9167 39.062 43.9644C39.0531 43.9707 39.0539 44.1224 39.051 44.1281C38.9708 44.3053 39.0243 43.9374 39.0133 43.8706C38.9737 43.6277 38.9494 43.4982 38.8544 43.606C38.8328 43.6307 38.7409 44.1591 38.7009 44.1878C38.6493 44.2242 38.6799 44.0347 38.6259 44.0776C38.6213 44.0811 38.6145 44.1988 38.5832 44.1915C38.4415 44.1595 38.2778 44.0787 38.1238 44.0779C38.1025 44.0773 38.1144 44.2659 38.0833 44.2681C37.9375 44.2783 37.7807 44.2571 37.6512 44.1564C37.6194 44.131 37.6536 44.0029 37.65 43.9634C37.629 43.7251 37.5303 44.0584 37.5181 44.0637C37.2411 44.1999 37.0811 43.8699 36.8059 43.9826C36.791 43.9894 36.6344 44.3381 36.6261 44.0197C36.6253 43.9985 36.6213 43.6735 36.548 43.8851C36.5433 43.8983 36.5506 44.0665 36.4999 44.0422C36.4495 44.0181 36.3478 44.1149 36.3026 43.9241C36.288 43.864 36.2838 43.5391 36.1771 43.781C36.1707 43.7981 35.9733 44.3518 35.9998 43.952C36.0043 43.8862 36.0791 43.471 35.9641 43.6712C35.9419 43.71 35.9542 43.8075 35.904 43.8586C35.8274 43.9376 35.7617 43.8115 35.6513 43.9828C35.6322 44.0131 35.5226 44.2844 35.515 44.062C35.5139 44.0272 35.5531 43.8912 35.5316 43.8712C35.43 43.7755 35.2916 43.8448 35.1945 43.7259C35.1603 43.684 35.2262 43.4651 35.1963 43.3967C35.1664 43.3284 35.0941 43.2534 35.0273 43.3456C34.9607 43.4378 34.9345 43.8034 34.86 43.8171C34.8504 43.8188 34.8409 43.8203 34.8315 43.8215C34.5185 43.8594 34.286 43.5971 34.0081 43.4936C33.9658 43.4778 33.9691 43.6129 33.9041 43.5984C33.6659 43.5468 33.2228 43.5457 33.1003 43.2175C33.0054 42.9563 33.257 42.8587 33.1625 42.7348C33.1179 42.6758 32.9258 43.0573 32.9071 43.0651C32.7257 43.1482 32.6877 42.9384 32.5439 42.9495C32.5141 42.9518 32.4838 43.1223 32.4588 43.1224C32.373 43.1241 32.3188 43.024 32.2422 43.0112C32.2077 43.0059 32.1692 43.1308 32.1427 43.1105C32.079 43.0633 32.0349 42.9884 32.0094 42.848C32.0072 42.8353 32.1061 42.6989 32.0566 42.6738C31.9763 42.6336 31.9165 42.4811 31.7754 42.5594C31.7333 42.5831 31.6215 42.86 31.6365 42.644C31.6396 42.5988 31.7899 42.273 31.6032 42.5315C31.5728 42.5749 31.2927 42.9117 31.3369 42.6381C31.3485 42.5662 31.4232 42.2794 31.3718 42.3077C31.3644 42.3125 31.3202 42.4679 31.286 42.4704C31.1663 42.4765 31.0691 42.4155 30.9472 42.4162C30.9144 42.4166 30.8875 42.5863 30.8405 42.582C30.711 42.5701 30.5886 42.4673 30.5025 42.3692C30.4709 42.3327 30.5573 42.2215 30.5607 42.2066C30.6188 41.9649 30.4507 42.2485 30.4268 42.2583C30.281 42.3156 30.2756 42.1412 30.1701 42.1345C30.1411 42.1321 30.0885 42.2809 30.0774 42.291C30.0742 42.2938 30.0712 42.2964 30.0684 42.2987C29.9755 42.3744 30.1287 42.1537 30.1114 42.1115C30.0623 41.9887 29.9593 41.9503 29.8614 41.9219C29.8253 41.9116 29.7781 42.0917 29.7465 42.0806C29.558 42.0175 29.3863 41.9047 29.2688 41.7242C29.2469 41.69 29.3349 41.5791 29.3441 41.5476C29.4092 41.328 29.1946 41.5565 29.1648 41.5729C29.0305 41.6489 29.0651 41.5261 28.994 41.5115C28.6439 41.4416 28.3244 41.1477 28.089 40.9335C27.7749 40.6508 27.593 40.3639 27.255 40.1635C27.2336 40.1506 27.1452 40.3161 27.1253 40.3068C26.8731 40.1799 26.7009 39.9604 26.4473 39.8325C26.4267 39.8217 26.3451 39.9815 26.3082 39.9687C26.2308 39.9428 26.1634 39.8779 26.1387 39.7868C26.1267 39.7427 26.259 39.6544 26.2451 39.6126C26.2131 39.515 26.1494 39.4482 26.0629 39.4149C26.0627 39.4148 26.0625 39.4148 26.0623 39.4147C26.0251 39.4028 25.9568 39.5769 25.9175 39.5479C25.6425 39.349 25.376 39.1667 25.2729 38.7696C25.2659 38.7424 25.4903 38.452 25.4078 38.4735C25.3384 38.5479 25.2601 38.6384 25.1877 38.7195C24.7903 38.4526 24.517 38.0334 24.1895 37.6988C24.1754 37.6845 24.0678 37.8499 24.0397 37.8228C23.877 37.6658 23.6789 37.5509 23.6513 37.2551C23.6482 37.2258 23.8945 36.9888 23.811 36.9797C23.7961 36.9783 23.6927 36.9411 23.6222 36.9757C23.6118 36.9812 23.5134 37.108 23.4869 37.0886C23.3355 36.9741 23.2168 36.8048 23.1571 36.6067C23.1473 36.5741 23.2901 36.477 23.2843 36.4528C23.242 36.2825 23.034 36.2553 23.0422 36.0431C23.0483 35.9007 23.2837 35.7216 23.4548 35.4832C23.479 35.4496 23.4418 35.4021 23.5603 35.2828C23.8582 34.9828 24.2102 34.6809 24.5253 34.3586C24.5933 34.2893 24.4639 34.306 24.6644 34.1759C24.678 34.1673 24.7731 34.1535 24.8397 34.1079C24.8858 34.0764 24.9964 33.9449 25.0604 33.9098C25.1244 33.8747 25.0367 33.99 25.1185 33.9553C25.2009 33.9199 25.3302 33.774 25.3912 33.8034ZM39.8051 43.305C39.7572 43.1402 39.7305 43.7378 39.7928 43.5965C39.7959 43.589 39.8076 43.3131 39.8051 43.305ZM46.1762 42.9352C46.0814 42.6794 46.0725 43.0701 46.1411 43.2681C46.2099 43.4659 46.2052 43.0126 46.1762 42.9352ZM46.8623 42.67C46.7612 42.4717 46.8395 43.3164 46.9061 43.1367C46.91 43.1266 46.8682 42.6815 46.8623 42.67ZM23.6794 35.5953C23.6846 35.5892 23.6602 35.5533 23.6539 35.5581C23.5022 35.6748 23.5513 35.7467 23.6794 35.5953ZM47.5409 42.3823C47.5024 42.2713 47.4455 42.4113 47.4932 42.5494C47.5316 42.6605 47.5888 42.5204 47.5409 42.3823ZM37.111 42.4622C37.1113 42.4533 37.0825 42.4415 37.0767 42.4916C37.0581 42.6528 37.1057 42.6127 37.111 42.4622ZM48.7233 42.2266C48.5413 42.2179 48.347 41.5362 48.5481 41.5902C48.5847 41.5999 48.5018 41.8214 48.554 41.8784C48.6498 41.9821 48.6472 41.5388 48.7606 41.7618C48.7813 41.8026 48.7339 42.2286 48.7231 42.2276C48.7231 42.2272 48.7232 42.2269 48.7233 42.2266ZM39.7966 42.5859C39.7958 42.578 39.7545 42.5692 39.7533 42.577C39.7245 42.7661 39.8083 42.784 39.7966 42.5859ZM35.4447 41.8115C35.4464 41.7947 35.355 41.7593 35.3489 41.7738C35.234 42.067 35.4214 42.14 35.4447 41.8115ZM42.5915 42.1294C42.6288 41.9367 42.6812 41.912 42.7276 42.1501C42.6821 42.1393 42.6369 42.1393 42.5915 42.1294Z" fill="black"/>
</svg>
