<svg width="54" height="46" viewBox="0 0 54 46" fill="none" xmlns="http://www.w3.org/2000/svg">
<path d="M29.2497 4.26856C29.2384 5.23461 29.0682 6.51452 28.8867 7.46167C28.8299 7.76175 28.7414 7.5968 28.697 7.80337C28.61 8.20644 28.617 8.58448 28.5174 8.97962C28.4839 9.11006 28.3383 8.92392 28.3069 9.061C28.1738 9.64646 28.109 10.2076 28.0152 10.7867C27.988 10.9545 27.9583 11.1237 27.9238 11.2949C27.4119 13.8299 26.8537 16.3125 26.1944 18.7994C25.8782 19.9904 25.5394 21.1767 25.1664 22.3686C24.7876 23.5859 24.171 25.0136 23.7929 26.2667C23.7481 26.4155 23.918 26.3781 23.9195 26.41C23.9251 26.5598 23.9082 26.6424 23.8783 26.692C23.8083 26.8077 23.6677 26.7438 23.5691 26.9315C23.0151 27.985 22.5074 29.2039 22.0853 30.2788C21.9069 30.7322 22.3755 30.41 22.0221 30.7867C21.9979 30.8127 21.9072 30.6358 21.8364 30.749C21.6801 31 21.4479 31.5477 21.3328 31.7491C21.1074 32.1452 21.079 32.204 20.876 32.5882C20.6299 33.0483 20.2994 33.5238 20.0169 34.0143C19.9726 34.0912 19.93 34.1678 19.8895 34.244C19.8257 34.3646 20.0569 34.2935 19.9667 34.4938C19.8755 34.6982 19.5634 35.1628 19.4183 35.3101C19.2769 35.4542 19.219 35.3134 19.1755 35.3264C18.8167 35.4288 18.7127 36.156 18.6665 36.2288C17.8408 37.5773 16.7607 38.4915 15.552 39.4127C15.1633 39.7052 14.7589 39.9845 14.3102 40.239C13.6986 40.5881 13.0116 40.8709 12.3414 41.0092C10.962 41.287 9.75186 41.0753 8.48945 40.6376C8.35263 40.5882 8.44381 40.8242 8.27325 40.7615C7.31241 40.3993 6.50424 39.8967 5.76859 39.3059C5.17117 38.8239 4.62041 38.2739 4.12546 37.6469C4.01775 37.509 4.28677 37.5592 4.18782 37.4156C3.54375 36.53 2.97394 35.0339 2.06245 34.8158C1.74934 34.1796 1.42592 33.3631 1.35262 32.7267C1.30535 32.3138 1.60398 32.6251 1.3724 32.1829C1.32136 32.082 1.21628 32.2699 1.15112 32.1135C1.01064 31.7743 0.904614 31.4051 0.806646 31.0326C0.715322 30.6854 0.633977 30.3492 0.533164 30.0262C0.4904 29.8896 0.358351 29.9529 0.32593 29.9175C0.0584897 29.6139 0.315893 28.9908 0.328193 28.8735C0.400212 27.9259 0.291436 27.2617 0.290393 26.3934C0.291664 26.1914 0.101012 26.4306 0.0958619 26.2349C0.0730436 25.2308 0.17136 24.1786 0.394049 23.2198C0.444505 23.0054 0.575841 23.2283 0.608232 23.1275C0.751309 22.6872 0.466115 22.5409 0.612158 22.1181C0.64299 22.0296 0.769291 22.1073 0.787444 22.0936C1.06302 21.8892 0.805146 21.6092 0.796104 21.5282C0.795807 21.5257 0.795758 21.5233 0.795982 21.5212C0.883869 20.6582 1.36993 20.216 1.56513 19.4213C1.58893 19.3256 1.35397 19.4844 1.43178 19.2179C1.95325 17.4339 2.82036 15.6442 3.87248 14.1454C4.03625 13.912 4.04569 14.1541 4.06889 14.1468C4.43439 14.0295 4.24329 13.6937 4.28232 13.6069C4.39639 13.3601 4.55357 13.1501 4.70484 12.951C4.96157 12.613 5.19864 12.3105 5.17848 11.9064C6.92071 9.73575 8.82323 7.61979 11.2019 6.18378C11.4599 6.02797 11.7241 5.87971 11.9945 5.7401C12.0293 5.72174 12.0651 5.8997 12.1338 5.86267C12.9516 5.43575 12.6609 5.3184 13.0252 4.71973C13.1194 4.56792 13.7283 4.65841 13.7781 4.66367C13.9597 4.67985 13.948 4.97327 14.0015 4.96601C14.4361 4.90324 13.975 4.21363 14.4819 3.94294C14.4984 3.93583 14.5028 4.10506 14.5522 4.09606C14.7055 4.06879 14.809 3.94738 14.9631 3.92775C15.3156 3.88585 15.6028 4.18896 15.9492 3.76841C15.9946 3.71479 15.7056 3.33003 16.1794 3.14025C16.365 3.06284 17.1993 2.70248 17.4505 2.64094C17.6931 2.57868 17.5886 2.78127 17.6076 2.78081C18.3013 2.72862 18.0947 2.89694 18.507 3.05943C18.9168 3.22485 18.5971 2.59523 18.7014 2.47566C18.806 2.35543 19.3312 2.35384 19.4653 2.37223C19.5991 2.38956 19.4831 2.52704 19.5962 2.525C19.664 2.52323 19.7168 2.52001 19.7633 2.51335C20.2355 2.44836 19.8052 2.08518 19.9789 1.92677C20.4371 1.5159 20.9987 1.90253 21.504 1.82898C21.6421 1.80907 21.5036 1.72118 21.6216 1.68092C22.0819 1.52666 22.3911 1.6228 22.9028 1.3663C22.9843 1.32445 23.3738 0.929773 23.7032 1.10541C23.7493 1.13091 23.6541 1.27903 23.865 1.27165C24.1776 1.26074 24.7141 1.2055 25.0377 1.11789C25.2755 1.05308 24.9736 0.878346 25.2869 0.903427C25.4261 0.9152 25.1879 1.07198 25.4477 1.08405C25.7017 1.0954 26.3681 1.01609 26.6029 0.991171C26.8442 0.96411 26.7003 0.815006 26.7189 0.802258C26.8323 0.72811 27.2978 0.611699 27.3402 0.609491C27.844 0.566877 28.3457 0.55109 28.8474 0.552308C30.4411 0.557847 31.9289 0.731757 33.4934 0.805603C33.6526 0.813618 33.5601 0.633443 33.5845 0.632905C34.1482 0.617144 33.6706 1.02482 34.045 1.21747C34.0213 0.866649 34.2482 0.952732 34.6431 0.965247C34.8333 0.971412 34.7476 0.824894 34.7664 0.813473C35.0734 0.648685 35.2316 0.938987 35.2722 0.999461C35.4248 1.22261 35.6566 1.02302 35.7577 1.17433C35.8571 1.32454 35.5472 1.4691 35.9068 1.52835C36.034 1.42479 35.8087 1.05595 36.1057 1.05508C37.145 1.03974 38.8417 1.67281 39.7206 2.03484C39.7946 2.06387 39.8629 2.09035 39.9251 2.11355C40.7407 2.4226 41.011 2.5123 41.4561 2.7431C42.2469 3.17239 42.0503 2.82611 42.6164 2.96836C43.184 3.12305 42.6663 3.52969 42.6836 3.67954C42.6967 3.82835 42.8322 3.75035 42.8868 3.85728C42.9403 3.96374 42.7157 3.94452 42.904 4.07209C43.0885 4.19473 43.743 4.30264 43.8841 4.23392C44.1772 4.08072 44.08 3.67455 44.5631 4.08926C44.5903 4.1133 44.41 4.18472 44.5179 4.27001C45.3653 4.93573 46.2744 5.6187 47.0045 6.41129C47.1048 6.52066 46.8911 6.56185 46.9476 6.62665C47.5212 7.30647 47.4847 6.87796 48.0658 6.99441C47.6797 7.22146 47.6933 7.59371 48.1352 8.08437C48.3186 8.29092 48.4191 8.27147 48.5554 8.27646C48.6155 8.2788 48.6822 8.28613 48.765 8.32127C48.8471 8.35558 48.9277 8.65829 49.0292 8.64445C49.3622 8.6009 49.4513 8.17832 49.7842 8.82827C49.7979 8.85694 49.6115 8.87221 49.6681 8.96424C50.0241 9.56198 50.32 9.45439 50.7607 10.0835C51.1075 10.5772 51.4464 11.6 51.6867 12.2268C51.2418 12.4149 51.5892 12.9331 51.9912 13.0519C52.1377 13.4613 52.3115 13.9005 52.3925 14.3177C52.4203 14.461 52.2579 14.4111 52.2488 14.4331C52.1013 14.7641 52.4628 14.8516 52.5004 14.9398C52.8877 15.8973 52.7987 16.7436 53.1595 17.676C53.1719 17.7079 53.5152 17.7286 53.2982 18.0127C53.2851 18.0283 53.1401 17.8005 53.1292 18.0474C53.1275 18.0822 53.1284 18.1265 53.1324 18.1824C53.1685 18.633 53.0396 19.5055 53.1937 20.1227C53.2325 20.2719 53.5032 20.6664 53.2777 20.9739C53.2472 21.0145 53.1523 20.9656 53.0963 21.0233C52.9176 21.207 53.2526 21.3333 52.9503 21.5394C52.6473 21.7455 52.4026 22.1722 52.5265 22.8138C52.5299 22.8338 52.7803 23.0146 52.7488 23.2131C52.6999 23.5238 52.5747 23.9512 52.5161 24.2753C52.4883 24.4304 52.6714 24.3621 52.6694 24.3896C52.5559 25.4706 52.2336 26.1536 51.8367 27.2313C51.7662 27.4218 51.797 28.0631 51.4866 28.3859C51.2514 28.63 50.8825 28.3594 50.6235 28.5111C50.5088 28.579 50.4178 28.7216 50.3627 29.02C50.2914 29.4069 51.0504 30.3029 50.2407 30.7581C49.7604 32.0934 48.8793 33.1124 48.2755 34.4182C48.2478 34.4776 48.3812 34.809 48.2965 34.9309C48.1688 35.1138 47.9873 35.1401 47.8908 35.2671C47.4857 35.7934 47.209 36.379 46.8084 36.8792C46.6557 37.0694 46.5958 36.9162 46.4121 37.1417C46.2276 37.3665 46.2523 37.6356 45.9303 37.8909C45.8638 37.9433 45.7791 37.9809 45.6853 38.0134C45.4357 38.0995 45.1197 38.1517 44.915 38.3418C45.1892 38.5957 45.011 38.7954 44.7633 39.2234C44.7156 39.3059 44.8794 39.3176 44.8618 39.3611C44.7918 39.5406 44.5994 39.5929 44.5372 39.7694C44.5218 39.8123 44.6147 39.8999 44.6073 39.9399C44.5488 40.2836 43.9997 40.4468 43.9111 40.4663C43.5603 40.5586 43.5785 40.7777 43.3572 40.8963C43.1363 41.0136 43.3204 40.6943 43.0924 40.8603C42.6239 41.201 42.0884 41.7466 41.6586 42.135C41.4875 42.2908 41.719 42.3091 41.6972 42.3343C41.3726 42.6926 40.8853 42.8823 40.9039 43.3165C40.0711 42.8766 40.7395 43.5757 40.0824 43.9001C40.0323 43.9235 39.712 43.6505 39.8336 43.4689C39.9568 43.2859 40.2855 43.1764 40.443 42.9131C40.4817 42.8506 40.5185 42.2998 40.5412 42.2475C40.7267 41.8349 41.1849 42.2547 41.2248 42.2649C41.6602 42.3669 41.7192 41.7394 41.7936 41.6285C42.1283 41.1298 42.5387 40.8482 42.8081 40.4409C42.9839 40.175 42.7129 39.8704 42.8889 39.7057C43.4743 39.1513 44.0999 39.3068 44.2377 38.4088C44.2657 38.2164 43.8267 38.0483 44.467 37.8376C44.5011 37.8283 44.9247 37.7249 45.0215 37.4673C45.033 37.4365 45.0397 37.4036 45.0402 37.3685C45.0407 37.3276 44.9399 37.2465 44.9579 37.2072C45.0804 36.9453 45.2773 36.8644 45.4251 36.5956C45.573 36.3266 45.7308 35.9983 45.9688 35.7497C46.1154 35.5959 46.4689 35.5179 46.5758 35.4694C46.8812 35.3345 46.825 34.9255 47.0929 34.8977C47.3638 34.8668 47.4282 35.3333 47.8017 35.0184C47.532 34.8169 47.2668 34.5925 47.0003 34.3827C47.567 33.5522 48.1757 32.7542 48.642 31.8578C48.6999 31.7453 48.4797 31.7736 48.5371 31.6514C48.7783 31.1366 49.111 30.7595 49.3104 30.2102C49.4676 29.7762 49.4896 29.2462 49.6177 28.8001C49.8413 28.7416 49.9858 28.5568 50.1013 28.314C50.225 28.0549 50.3069 27.7482 50.4086 27.5056C50.477 27.3415 50.5705 27.3853 50.642 27.2757C50.9064 26.8604 50.5132 26.97 50.5013 26.831C50.4432 26.2374 51.1998 26.3994 51.353 25.7436C51.3627 25.707 51.0665 25.1936 51.0531 25.1336C50.9729 24.7375 51.2062 25.1065 51.2867 24.8863C51.433 24.4749 51.5887 24.1952 51.5533 23.6805C51.5431 23.527 51.342 23.1564 51.5744 22.8971C51.6049 22.8631 51.7368 22.9011 51.7485 22.8719C51.9468 22.3392 51.5208 22.2793 51.4055 21.9636C51.2896 21.6501 51.6088 21.2053 51.697 21.1051C51.9271 20.8578 51.7822 21.3062 51.8017 21.3214C52.0478 21.5009 52.0255 21.1417 52.0551 20.8715C52.4749 20.8461 52.4578 20.4584 52.083 20.5912C52.0424 20.6059 52.0763 20.8174 52.0551 20.8715C51.6533 20.6181 51.609 20.2247 51.9817 19.7663C52.1541 19.5509 52.3757 19.7448 52.2678 19.0872C52.2153 18.7905 51.9357 18.924 51.8385 18.6724C51.7801 18.5235 51.7492 18.362 51.7322 18.1934C51.6848 17.7137 51.7431 17.1569 51.6295 16.7221C51.5736 16.5096 51.4588 16.7485 51.4151 16.6054C51.2979 16.2295 51.3341 15.8574 51.1746 15.4885C51.16 15.4555 51.023 15.5816 50.9896 15.4642C50.7299 14.5805 50.5615 13.7793 50.1681 12.8922C49.9807 12.4604 49.5168 11.7618 49.283 11.3415C48.8909 10.6059 48.4783 9.62229 47.9608 9.09992C47.8876 9.02506 47.8271 8.97654 47.7755 8.94523C47.5939 8.83613 47.5221 8.93563 47.3542 8.87804C46.945 8.7393 46.7454 7.98496 46.7176 7.87785C46.7177 7.87349 47.0306 8.13019 46.9379 7.91844C46.9722 7.70412 46.721 7.88018 46.7176 7.87785C46.7065 7.80519 46.1348 7.22607 45.9857 7.14745C45.9075 7.10302 45.8434 7.25384 45.8048 7.22877C44.9003 6.64183 44.0035 6.06035 43.0955 5.4501C43.0802 5.43762 43.1932 5.30112 43.1559 5.27354C42.6333 4.88542 42.1776 4.89329 41.6484 4.78038C41.1104 4.666 40.7692 4.47757 40.5889 4.08103C40.211 3.96732 39.7032 3.6413 39.4169 3.46205C39.3634 3.42809 39.3142 3.41155 39.2698 3.40706C39.0775 3.38775 38.9761 3.59256 38.9523 3.5906C38.0326 3.53031 37.5673 3.20646 36.6624 2.97686C36.2247 2.86373 35.3274 2.75363 34.8593 2.72744C34.4807 2.7035 34.2607 2.59544 33.9006 2.60601C33.8519 2.60747 33.886 2.76359 33.8708 2.76777C33.4602 2.90586 33.6816 2.55766 33.605 2.48306C33.3347 2.21503 33.1624 2.06891 32.6468 2.14528C32.5264 2.1625 32.1643 2.67398 31.9498 2.69521C31.6684 2.72184 31.7786 2.53514 31.4801 2.57029C31.4552 2.57331 31.4566 2.69094 31.2764 2.68037C30.5528 2.6392 29.7399 2.58466 28.9237 2.61107C28.8204 2.61436 28.7177 2.61889 28.6162 2.62481C28.4934 2.63166 28.6584 2.81104 28.4817 2.82423C27.6457 2.88706 26.7978 2.95121 25.9971 2.95797C25.8023 2.95898 25.9103 2.81422 25.8647 2.78055C25.5818 2.57734 25.2581 2.96671 25.2019 2.98162C23.8361 3.34672 22.7293 3.25088 21.3516 3.7679C21.2736 3.79638 20.7971 4.31045 20.4548 4.0884C20.4425 4.08068 20.3408 4.01314 20.2238 3.9922C20.1209 3.9725 19.996 3.99374 19.9207 4.12767C19.9111 4.14535 20.1214 4.25072 19.8377 4.32556C19.5528 4.401 19.1504 4.65726 18.718 4.62585C18.5794 4.61674 18.1936 4.41922 17.9279 4.80345C17.9065 4.82986 17.5985 5.58506 17.2538 5.30392C17.1976 5.25777 17.0553 4.85627 16.7362 5.24038C16.6766 5.31432 16.8558 5.33459 16.6781 5.48234C16.4103 5.70746 15.9371 5.81454 15.6527 6.17751C15.6016 6.2417 15.4653 6.63883 15.1452 6.56927C15.0946 6.55856 15.0905 6.39932 14.968 6.45C14.3762 6.69625 13.8563 7.12575 13.2763 7.39611C13.0676 7.49504 13.0369 7.24074 12.8026 7.32687C12.6555 7.38135 12.4297 7.49374 12.2488 7.62909C12.1416 7.7091 12.05 7.79684 11.9985 7.88355C11.8617 8.11661 12.295 8.2436 12.0204 8.48909C10.8245 9.56652 9.526 10.489 8.4343 11.6863C8.27506 11.8625 8.50085 11.7988 8.2769 12.0645C7.80108 12.6308 7.2092 13.4621 6.66176 14.2585C6.24928 14.8527 5.85299 15.4338 5.51528 15.7962C4.88959 16.4815 5.28552 15.3995 4.87494 15.9699C4.6748 16.2533 4.89001 16.7693 4.86772 16.8456C4.64975 17.6009 4.25835 18.0364 4.05606 18.7123C4.01518 18.8517 4.2256 18.7807 4.18956 18.898C4.06745 19.3016 3.84957 19.6961 3.74194 20.0818C3.69436 20.255 3.82899 20.2621 3.77161 20.4156C3.63535 20.789 3.49015 21.1112 3.2785 21.456C3.25912 21.488 3.15874 21.2168 3.08228 21.5018C3.04159 21.6562 2.98782 21.819 2.9345 21.9946C2.82876 22.3412 2.7301 22.7188 2.75306 23.0919C2.76449 23.2584 3.05681 23.3093 2.80337 23.6257C2.75147 23.6918 2.40599 23.5528 2.66254 23.9981C2.70218 24.0799 3.04814 24.7784 2.76134 25.0936C2.6847 25.1755 2.37833 25.3858 2.41684 25.5845C2.4232 25.611 2.5874 25.5122 2.59697 25.6733C2.62881 26.2341 2.61684 26.8393 2.70023 27.4055C2.72309 27.557 2.87474 27.3202 2.90413 27.5463C2.98531 28.1729 3.03834 28.9338 3.10306 29.544C3.12606 29.7664 2.96204 29.6418 2.95032 29.6603C2.76256 29.9681 3.11866 30.0517 3.15607 30.1306C3.2019 30.2301 3.23734 30.326 3.26612 30.4197C3.38404 30.8014 3.38834 31.1505 3.54518 31.5192C3.59904 31.6452 3.71642 31.5031 3.73832 31.5244C3.95782 31.7421 3.6242 31.6389 3.65412 31.8165C3.73821 32.3131 3.96827 32.8241 4.2091 33.2602C4.29777 33.4196 4.36789 33.1558 4.44531 33.2979C4.91351 34.1458 5.43722 34.9429 5.93963 35.6667C6.03747 35.8064 5.86652 35.824 5.86695 35.8727C5.87285 36.2173 6.35008 36.2674 6.42933 36.3028C6.79715 36.4749 6.83132 36.671 7.12224 36.8853C7.22651 36.9608 7.33419 37.0374 7.44556 37.1146C8.95407 38.1564 10.1735 38.6123 11.4297 38.5074C12.0254 38.4538 12.5879 38.2841 13.1279 38.0297C14.0917 37.5711 14.9943 36.8466 15.835 35.8476C15.9203 35.7458 15.6937 35.7238 15.7619 35.638C16.4893 34.7306 17.2034 33.7579 17.8116 32.7077C17.9569 32.4567 18.0818 32.2271 18.2106 31.9747C18.267 31.8643 18.0265 31.9352 18.1114 31.7554C18.2856 31.3836 18.5356 30.9253 18.7684 30.5836C18.883 30.4141 18.8972 30.7255 19.01 30.5527C19.2745 30.1461 19.5068 29.6821 19.6819 29.2236C19.7566 29.0266 19.4625 29.2423 19.572 28.9922C20.0543 27.8801 20.4848 26.7514 20.95 25.6288C21.202 25.0191 21.4581 24.4272 21.7453 23.8128C21.8017 23.6919 22.186 23.6965 22.2038 23.41C22.1133 23.3591 21.999 23.3238 21.8982 23.2821C22.4067 21.5602 22.9208 19.8548 23.3826 18.1168C23.6286 17.1907 23.8594 16.2542 24.0622 15.3097C24.0867 15.1953 23.8557 15.3537 23.9019 15.1324C24.1683 13.8498 24.3441 12.591 24.7461 11.3007C24.7855 11.1728 25.1127 11.2941 25.1224 10.8956C25.1233 10.8502 25.1425 10.5854 25.141 10.3608C25.1402 10.2381 25.1335 10.1274 25.1153 10.0703C25.1072 10.0483 24.934 10.1318 24.9565 9.94321C25.0904 8.84197 25.2673 7.71131 25.4776 6.61386C25.5116 6.43865 25.6613 6.64422 25.687 6.51943C25.8673 5.63682 25.8204 4.64092 26.0285 3.79589C26.168 3.22364 26.4475 3.45559 26.7535 3.16355C26.7969 3.1219 26.8215 2.765 26.99 2.75478C27.4146 2.72699 27.8684 2.92443 28.322 2.87465C28.4201 2.86364 28.3376 2.37191 28.5589 2.67092C28.5739 2.69146 28.6345 3.05032 28.709 3.14303C28.7607 3.20735 28.9373 3.10549 29.0009 3.23485C29.0644 3.36457 28.9137 3.49482 28.9837 3.70949C29.0542 3.92488 29.2549 3.84362 29.2497 4.26856ZM38.0724 2.68194C37.8034 2.44218 37.6111 3.01057 37.9769 2.95842C37.9948 2.95527 38.0862 2.69393 38.0724 2.68194ZM48.5486 32.9782C48.9846 32.7526 48.7797 32.3191 48.4626 32.469C48.1463 32.6152 48.4167 33.0454 48.5486 32.9782ZM46.3105 36.6666C46.7683 36.4056 46.1302 35.8417 45.9624 36.35C45.9524 36.3793 46.2839 36.6817 46.3105 36.6666ZM26.7429 4.60273C26.7513 4.59882 26.7777 4.34286 26.7701 4.33632C26.5906 4.18665 26.5381 4.69686 26.7429 4.60273ZM43.6715 40.0849C43.8634 40.0504 44.0707 39.6326 43.8349 39.6767C43.6463 39.712 43.4362 40.1255 43.6715 40.0849ZM21.5877 2.10908C21.5804 2.10153 21.395 2.13984 21.4112 2.18785C21.4634 2.34171 21.7063 2.23404 21.5877 2.10908ZM38.2179 44.9872C39.0998 44.3454 40.0517 44.4685 39.0685 45.1538C38.8898 45.2768 39.2967 44.6889 39.0411 44.8104C38.5766 45.0307 38.5772 45.5859 38.016 45.7131C37.9162 45.7349 38.1687 45.0222 38.2188 44.9852C38.2185 44.9859 38.2182 44.9865 38.2179 44.9872ZM38.0751 1.93961C38.0675 1.9291 37.8231 1.85929 37.8153 1.86576C37.636 2.01609 38.1281 2.15655 38.0751 1.93961ZM11.5068 6.27779C11.499 6.27588 11.4284 6.31893 11.3415 6.37647C11.187 6.47832 10.9832 6.62703 10.9792 6.64263C10.9405 6.90786 11.2887 6.75207 11.482 6.57052C11.607 6.45254 11.6677 6.3208 11.5068 6.27779ZM51.6793 12.2417C51.9729 12.4274 52.1309 12.7492 51.9909 13.0506C51.8981 12.7795 51.7872 12.5107 51.6793 12.2417Z" fill="black"/>
</svg>
