<svg width="57" height="51" viewBox="0 0 57 51" fill="none" xmlns="http://www.w3.org/2000/svg">
<path d="M10.2335 7.18121C10.3132 7.41485 10.2943 7.73289 10.246 7.97687C10.2312 8.05332 10.1215 8.02843 10.1065 8.08173C10.0773 8.18621 10.1397 8.27143 10.1027 8.37643C10.09 8.41166 9.91833 8.39004 9.9088 8.42653C9.85777 8.62636 9.92169 8.80116 9.90921 8.997C9.84594 9.94884 9.89885 10.8949 9.94437 11.8526C9.95988 12.1714 9.8578 12.5689 9.96646 12.8827C9.97936 12.9199 10.1225 12.8778 10.1355 12.8835C10.3349 12.9729 10.0349 12.9741 10.0056 13.0535C9.88986 13.3687 9.92018 13.6957 10.0147 13.9671C10.0152 13.9687 10.0159 13.9703 10.0165 13.9718C10.063 14.078 10.327 13.9258 10.1826 14.0654C10.1727 14.0752 10.0135 14.0664 10.0015 14.1012C9.97423 14.179 10.0216 14.3175 10.0174 14.3775C10.0084 14.4929 10.0125 14.5112 10.0255 14.617C10.0419 14.7618 9.98889 14.9437 10.0458 15.0924C10.0584 15.124 10.2111 15.0581 10.2456 15.1065C10.28 15.1549 10.2862 15.2947 10.2555 15.3465C10.2247 15.3983 10.097 15.3965 10.0696 15.4088C9.83778 15.5115 10.1951 15.6214 10.2066 15.6423C10.4026 16.0014 10.2599 16.3519 10.3135 16.7027C10.3541 16.9659 10.462 17.2495 10.493 17.5041C10.5297 17.8099 10.4841 18.076 10.5469 18.3697C10.5534 18.4008 10.7336 18.3339 10.7419 18.3717C10.8295 18.7737 10.8754 19.1729 10.8186 19.5942C10.8128 19.6368 10.6406 19.6128 10.625 19.6571C10.5332 19.9273 10.2801 20.375 11.0161 20.3931C11.018 20.5638 11.0254 20.7677 10.91 20.9445C10.8464 21.0413 10.6947 21.0108 10.7133 21.0653C10.7165 21.0745 10.7244 21.0861 10.7385 21.1012C10.7603 21.1247 10.9093 21.0614 10.9302 21.0988C11.0182 21.2563 11.0019 21.4487 11.1134 21.5986C11.1365 21.629 11.2739 21.5934 11.3007 21.5981C11.5187 21.6392 11.2088 21.8357 11.19 21.8694C11.0508 22.1247 11.1543 22.2749 11.1906 22.4816C11.199 22.5296 11.3743 22.4361 11.3891 22.481C11.4631 22.7141 11.4967 22.9626 11.4619 23.2117C11.4538 23.2676 11.2852 23.2525 11.2733 23.2809C11.2224 23.406 11.5271 23.3681 11.4842 23.4864C11.4756 23.5113 11.3372 23.5272 11.3232 23.5344C11.1023 23.6467 11.4455 23.6321 11.4562 23.6467C11.5994 23.8305 11.2815 24.0351 11.3732 24.2226C11.3846 24.2449 11.5445 24.1545 11.5659 24.2193C11.7091 24.6515 11.7674 25.1306 11.7322 25.5983C11.727 25.671 11.5873 25.6525 11.5725 25.6605C11.3415 25.7882 11.6835 25.7562 11.7011 25.7753C11.832 25.9292 11.5935 26.1593 12.0161 26.1833C12.0489 26.802 12.3179 27.3618 12.3424 27.9806C12.3485 28.1332 12.3399 28.2899 12.3094 28.4526C12.3079 28.463 12.1416 28.49 12.1392 28.5105C12.1087 28.7583 12.3486 28.6476 12.6959 28.7103C12.7831 28.7259 12.4434 28.9405 12.4191 28.9582C12.329 29.0223 12.0783 29.051 12.0623 29.0685C11.9381 29.2121 12.7279 28.9752 12.7659 29.1103C12.7658 29.1149 12.6147 29.138 12.6033 29.1534C12.5676 29.2015 12.6354 29.2202 12.5949 29.2689C12.5007 29.3806 12.1232 29.5181 12.382 29.5758C12.4154 29.5828 12.8586 29.4317 12.8717 29.5583C12.8765 29.6089 12.9455 29.8194 12.9338 29.8875C12.9221 29.9555 12.7655 29.9567 12.7604 29.9627C12.616 30.1795 12.519 30.1416 12.2596 30.3056C12.0014 30.4697 12.6674 30.2494 12.7521 30.2602C12.8366 30.2711 12.7138 30.4356 12.6677 30.4808C12.6215 30.526 12.5189 30.5172 12.4956 30.5522C12.344 30.7836 12.8514 30.5277 12.9747 30.5519C13.2665 30.6079 12.7997 30.8606 12.7881 30.9971C12.7849 31.034 12.89 30.9727 12.9095 30.9987C12.9852 31.1018 12.8515 31.2192 13.0344 31.307C13.0642 31.3215 13.3956 31.3347 13.1981 31.4717C13.1696 31.4913 13.0372 31.5022 13.025 31.5602C13.0063 31.6465 13.0209 31.7871 13.0872 31.8528C13.1362 31.9013 13.3185 31.7701 13.2785 31.8632C13.2606 31.9047 13.1224 31.8823 13.0988 31.9571C13.0751 32.0317 13.1302 32.1857 13.1535 32.2437C13.1767 32.3015 13.3204 32.2193 13.3323 32.2207C13.4011 32.2304 13.512 32.3195 13.5151 32.3295C13.6982 32.8281 13.5938 33.374 13.8496 33.8366C13.8695 33.8729 14.0219 33.7913 14.0266 33.7962C14.1396 33.9035 13.6749 33.9495 13.5632 34.0909C13.8859 33.9636 13.8453 34.0381 13.9134 34.1174C13.9465 34.1556 14.0646 34.087 14.079 34.0865C14.2943 34.0844 14.0621 34.2174 14.0155 34.2472C13.844 34.3567 14.0815 34.3261 13.9672 34.3999C13.8539 34.4735 13.646 34.4702 13.6798 34.558C13.8055 34.5413 14.0876 34.3672 14.1609 34.4166C14.2749 34.4931 14.3301 34.6323 14.3595 34.7849C14.402 35.0045 14.3901 35.2463 14.4196 35.3708C14.4693 35.5814 14.5152 35.6387 14.5173 35.7721C14.5214 36.0135 14.7172 35.8508 14.87 35.9438C15.0231 36.037 14.4455 36.1829 14.3338 36.2471C14.2221 36.3111 14.3523 36.2851 14.2959 36.3334C14.2395 36.3817 14.1393 36.3618 14.1358 36.4262C14.1326 36.4917 14.4003 36.558 14.532 36.5296C14.8106 36.469 15.061 36.2963 15.0189 36.4762C15.0164 36.4867 14.8609 36.516 14.8584 36.5532C14.8432 36.8464 14.9386 37.1102 14.9402 37.4013C14.9402 37.4415 14.767 37.4743 14.7652 37.4985C14.7465 37.7508 14.9871 37.5661 15.3336 37.5593C14.923 37.6944 14.7029 37.8553 14.7644 38.0145C14.8012 38.1102 14.9693 38.0232 15.1173 38.0346C15.1618 38.0379 15.0692 38.1538 15.1563 38.1326C15.4409 38.0635 15.7155 37.8781 15.6621 38.0889C15.6593 38.0984 15.5033 38.1357 15.5045 38.164C15.5116 38.3472 15.7997 38.2512 15.9047 38.4093C15.9881 38.5356 15.915 38.8405 15.9517 39.005C15.5032 39.1898 15.6665 39.2914 15.9993 39.2193C16.0286 39.3236 16.0915 39.4232 16.0901 39.5374C16.0897 39.5767 15.9513 39.6102 15.9391 39.6203C15.7477 39.7781 16.0654 39.6933 16.0863 39.7097C16.3014 39.8961 16.1547 40.1774 16.4719 40.3011C16.4832 40.3055 16.7973 40.1828 16.5977 40.3401C16.5838 40.3507 16.4116 40.3398 16.4461 40.4478C16.4805 40.5557 16.4016 40.8244 16.6086 40.9055C16.6586 40.9253 16.9477 40.902 16.7843 41.0602C16.7621 41.0816 16.6692 41.1107 16.6262 41.1463C16.4896 41.2604 16.8116 41.1462 16.5703 41.3152C16.3772 41.4509 16.2428 41.6033 16.3239 41.6906C16.3441 41.7123 16.3776 41.73 16.4268 41.7423C16.4341 41.7445 16.6955 41.6673 16.7121 41.7142C16.7385 41.7894 16.7341 41.9155 16.7703 41.9906C16.7878 42.0265 16.9296 41.9336 16.9353 41.9386C17.1318 42.1425 17.0774 42.3816 17.1393 42.6686C17.1502 42.721 17.4205 42.7599 17.2998 42.9282C17.168 43.113 16.3739 43.3583 16.6613 43.5087C16.7769 43.5701 17.7766 43.2422 17.3684 43.6434C17.6481 43.9195 17.5391 44.3317 17.8706 44.5761C17.8853 44.5871 18.1699 44.506 18.1831 44.5422C18.2022 44.5961 18.0935 44.684 18.1033 44.7245C18.1414 44.8961 18.3152 44.9857 18.3723 45.1426C18.3941 45.2018 18.2586 45.2455 18.2839 45.3145C18.3095 45.3838 18.4974 45.3454 18.4614 45.4744C18.4337 45.5722 18.1279 45.8086 18.1334 45.9186C18.4698 45.7553 18.4936 45.8205 18.6369 45.8865C18.6646 45.8991 18.7697 45.8182 18.7888 45.8212C18.8691 45.8319 18.7916 45.9179 18.8762 45.9239C18.8966 45.9254 19.011 45.8687 19.0341 45.8667C19.2349 45.8477 19.0326 46.0846 18.9973 46.1258C18.8636 46.2825 19.0287 46.2411 18.9896 46.3296C18.9505 46.4181 18.8257 46.3783 18.8176 46.4628C18.8018 46.6397 18.9047 46.797 18.9667 46.9316C18.9922 46.985 19.1257 46.8716 19.1329 46.8775C19.2269 46.9667 19.1221 47.1599 19.4553 47.0658C18.7131 47.5421 19.5648 47.0928 19.489 47.3298C19.4827 47.3486 19.1218 47.5543 19.0431 47.5346C18.9645 47.5148 19.0429 47.3835 18.9246 47.361C18.8968 47.3556 18.5049 47.4436 18.4776 47.442C18.2648 47.4303 18.8104 47.1348 18.8382 47.1143C19.1366 46.8902 18.7081 46.9722 18.6677 46.9566C18.4839 46.8878 18.5032 46.7329 18.3624 46.6642C18.2709 46.6187 17.9045 46.7944 17.8866 46.7313C17.827 46.5215 18.3007 46.2018 17.7719 46.2429C17.659 46.2515 17.2805 46.4877 17.5246 46.1946C17.54 46.176 17.7754 45.9322 17.5654 45.9635C17.539 45.9675 17.4231 46.0252 17.4086 46.0203C17.3132 45.9864 17.3841 45.8973 17.3049 45.8484C17.2262 45.8007 17.1166 45.7448 17.1154 45.6429C17.1143 45.5813 17.2995 45.4112 17.3408 45.3615C17.4606 45.2196 17.1751 45.2703 17.3398 45.1384C17.5055 45.0059 17.8276 44.9493 17.8946 44.7816C17.5904 44.925 17.2756 45.067 16.9685 45.2086C16.8619 44.9628 16.846 44.6803 16.7182 44.4483C16.702 44.4197 16.5535 44.5281 16.532 44.4994C16.4411 44.3762 16.4997 44.1998 16.3862 44.0805C16.2977 43.9883 16.0678 43.9501 15.9703 43.8562C16.2854 43.6224 16.0879 43.5092 16.0627 43.3719C16.0537 43.3239 16.1481 43.2833 16.1643 43.2387C16.2233 43.0718 15.9401 43.269 15.8769 43.2601C15.6075 43.2222 16.2988 42.8836 16.2072 42.7307C16.2026 42.7225 15.7817 42.7893 15.7518 42.7854C15.5582 42.7631 15.8745 42.7106 15.8757 42.6405C15.878 42.5126 15.9339 42.3995 15.7688 42.327C15.7202 42.3061 15.4484 42.3262 15.5972 42.1753C15.6166 42.1555 15.7424 42.1045 15.7463 42.0939C15.7735 42.0102 15.7103 41.9986 15.6173 42.0098C15.5028 42.0235 15.343 42.0718 15.2516 42.0627C15.0858 42.0459 15.302 41.8093 15.3681 41.7494C15.5398 41.5964 15.4753 41.7596 15.4965 41.7543C15.7481 41.6894 15.6692 41.6212 15.6593 41.5461C16.0364 41.366 15.9724 41.2843 15.6477 41.4692C15.6123 41.4895 15.6708 41.5251 15.6593 41.5461C15.2592 41.6555 15.1655 41.5743 15.4659 41.3069C15.6068 41.1818 15.82 41.1463 15.6799 41.0189C15.6166 40.961 15.3656 41.1049 15.2658 41.0729C15.038 40.9995 15.2014 40.7036 15.0982 40.5719C15.0607 40.524 14.939 40.6393 14.9084 40.6087C14.8272 40.5288 14.8968 40.3921 14.7983 40.3162C14.7892 40.3093 14.6473 40.3967 14.632 40.3663C14.5126 40.1369 14.5223 39.8902 14.4219 39.644C14.373 39.5245 14.2017 39.3505 14.1665 39.2178C14.1051 38.9897 14.2187 38.6347 14.0907 38.4741C14.0078 38.3688 13.8657 38.4568 13.7408 38.4477C13.4988 38.4301 13.7907 38.11 13.8376 38.0645C13.8391 38.063 13.9162 38.1509 13.9729 38.0649C14.1239 37.9677 13.8388 38.0654 13.8376 38.0645C13.868 38.0358 13.8197 37.8133 13.7743 37.7841C13.7495 37.768 13.6092 37.8381 13.599 37.8286C13.359 37.6022 13.2134 37.3382 13.174 37.0318C13.175 37.0258 13.341 36.9705 13.3414 36.9571C13.3524 36.7689 13.1119 36.7379 12.9421 36.6477C12.7722 36.557 12.7715 36.4341 13.0226 36.2493C12.9491 36.1606 13.0192 35.9685 13.0639 35.8571C13.1086 35.7457 12.7851 35.8514 12.7761 35.8463C12.5662 35.7326 12.5817 35.5923 12.5821 35.4272C12.5823 35.3671 12.5804 35.3036 12.565 35.2365C12.5378 35.1168 12.4106 34.9062 12.3319 34.7946C12.2692 34.7066 12.3238 34.6213 12.2442 34.548C12.2335 34.538 12.0948 34.6002 12.088 34.5984C11.8818 34.5571 12.2483 34.484 12.3036 34.4415C12.5043 34.2866 12.6091 34.1982 12.4576 34.1055C12.4229 34.0842 11.8887 34.1697 11.8404 34.1248C11.7787 34.0663 11.9687 34.0315 11.8996 33.9719C11.8938 33.9668 11.7826 34.006 11.772 33.9583C11.7208 33.7371 11.7083 33.4835 11.6239 33.265C11.6128 33.2348 11.4481 33.3325 11.429 33.2898C11.3398 33.0893 11.2726 32.8598 11.2916 32.6317C11.2968 32.5754 11.4314 32.5666 11.465 32.544C11.668 32.4067 11.3128 32.417 11.3017 32.4033C11.0287 32.0848 11.2355 31.7073 10.9807 31.3738C10.9663 31.356 10.5676 31.3027 10.8476 31.1419C10.8661 31.131 11.1533 30.9695 10.9244 30.9705C10.9101 30.9706 10.7644 31.0613 10.758 30.9804C10.7516 30.8995 10.6092 30.8075 10.7531 30.6516C10.7984 30.6022 11.0835 30.4346 10.8094 30.4069C10.7905 30.4058 10.1909 30.4122 10.5586 30.2476C10.6191 30.2206 11.0274 30.1139 10.7858 30.0554C10.739 30.0444 10.6602 30.1111 10.5867 30.0677C10.4737 30.0011 10.5484 29.8497 10.336 29.7881C10.2985 29.7776 9.99918 29.7705 10.19 29.6452C10.2199 29.6256 10.3612 29.6079 10.3666 29.5683C10.3929 29.38 10.2538 29.2286 10.3017 29.0322C10.3185 28.9628 10.5467 28.9345 10.5887 28.8558C10.6307 28.777 10.6536 28.6355 10.5356 28.5964C10.4175 28.5572 10.0858 28.7223 10.0315 28.6306C10.0245 28.6188 10.0179 28.6069 10.0115 28.595C9.80106 28.2026 9.88989 27.7364 9.81563 27.3106C9.80434 27.2456 9.69135 27.3298 9.66569 27.236C9.57031 26.8915 9.30789 26.3142 9.50755 25.9499C9.66728 25.6586 9.9012 25.9248 9.94647 25.7203C9.96794 25.6221 9.53462 25.6195 9.51674 25.6007C9.33731 25.4197 9.48688 25.2319 9.38887 25.0542C9.36857 25.0175 9.21008 25.0929 9.19464 25.0612C9.1403 24.9524 9.18891 24.8172 9.15166 24.7112C9.13458 24.6637 9.00886 24.7003 9.00899 24.6532C9.00788 24.5407 9.04115 24.4337 9.1386 24.3032C9.14748 24.2914 9.32011 24.3221 9.30913 24.2412C9.29089 24.1103 9.37552 23.9256 9.22258 23.8022C9.17671 23.7657 8.88396 23.8243 9.06626 23.6875C9.10435 23.6589 9.46066 23.6121 9.13475 23.5647C9.08057 23.5568 8.63341 23.4549 8.87904 23.3104C8.94366 23.2724 9.21894 23.1534 9.16316 23.1097C9.15451 23.1039 9.00304 23.1642 8.97892 23.1234C8.89663 22.9789 8.88125 22.813 8.80075 22.6628C8.77893 22.6227 8.6285 22.7182 8.60118 22.6573C8.52548 22.4884 8.5257 22.2656 8.54435 22.085C8.55157 22.0186 8.69485 22.0364 8.70868 22.029C8.93386 21.9105 8.603 21.928 8.57957 21.9071C8.43832 21.7763 8.5684 21.632 8.50234 21.4989C8.48452 21.4621 8.3356 21.518 8.32044 21.5128C8.31608 21.5111 8.31209 21.5096 8.30846 21.508C8.18812 21.4576 8.45969 21.4644 8.48023 21.4097C8.54034 21.2511 8.49947 21.0964 8.45422 20.9577C8.43736 20.9067 8.26922 20.9976 8.25615 20.9514C8.1754 20.6784 8.14134 20.384 8.19271 20.0926C8.20271 20.0377 8.34609 20.0465 8.3757 20.0303C8.58308 19.9181 8.26429 19.8617 8.23151 19.8421C8.08172 19.7519 8.19621 19.6875 8.15669 19.5919C7.96139 19.1255 7.94321 18.5021 7.92173 18.0385C7.89126 17.4245 7.95302 16.944 7.83438 16.3761C7.82702 16.3399 7.64842 16.4037 7.63971 16.3729C7.53483 15.9674 7.551 15.5684 7.44047 15.1679C7.43174 15.1351 7.26389 15.2078 7.24402 15.1559C7.20202 15.0497 7.19203 14.9086 7.23231 14.7891C7.25163 14.7309 7.41162 14.7832 7.42801 14.725C7.46629 14.5879 7.46052 14.4537 7.41483 14.328C7.41473 14.3277 7.41462 14.3274 7.41451 14.3272C7.39325 14.2758 7.22762 14.3817 7.21587 14.3108C7.13209 13.829 7.03543 13.338 7.20347 12.8203C7.21498 12.7845 7.57457 12.7076 7.49555 12.6449C7.39398 12.6526 7.27537 12.6683 7.16725 12.6799C7.01616 11.9704 7.05435 11.2561 6.98553 10.535C6.98258 10.5045 6.79628 10.5807 6.78959 10.5218C6.75023 10.1775 6.65833 9.8668 6.80822 9.49646C6.82284 9.45994 7.16414 9.43682 7.10072 9.34196C7.08923 9.32532 7.02574 9.17829 6.94738 9.1475C6.93564 9.14345 6.78063 9.19026 6.77014 9.14154C6.71159 8.85536 6.71277 8.55568 6.77642 8.26258C6.78698 8.21512 6.96134 8.24385 6.97032 8.20988C7.03279 7.96911 6.87513 7.73194 7.00238 7.49128C7.08816 7.33009 7.38615 7.35147 7.66396 7.23883C7.70315 7.22293 7.69884 7.12957 7.86527 7.10543C8.28377 7.04454 8.74876 7.03613 9.19422 6.96591C9.29018 6.9509 9.17201 6.83898 9.41347 6.8854C9.42966 6.88874 9.51737 6.96954 9.59896 6.98242C9.65538 6.99145 9.822 6.94409 9.89557 6.96731C9.96908 6.99053 9.83072 7.04144 9.91891 7.08373C10.0081 7.12583 10.1987 7.08069 10.2335 7.18121ZM13.2636 35.3568C13.3888 35.2232 12.8223 35.4155 12.9876 35.4514C12.9962 35.4529 13.2576 35.3636 13.2636 35.3568ZM17.2536 44.4861C17.4449 44.2755 17.0638 44.3781 16.9128 44.5343C16.7621 44.6906 17.1957 44.5502 17.2536 44.4861ZM17.9165 45.4056C18.047 45.1999 17.277 45.5563 17.4912 45.6031C17.5034 45.6059 17.9089 45.4177 17.9165 45.4056ZM7.78834 7.5963C7.7961 7.59426 7.79609 7.52726 7.78808 7.52658C7.59527 7.51334 7.59543 7.64735 7.78834 7.5963ZM18.5944 46.2963C18.6793 46.2096 18.5102 46.1681 18.4046 46.2757C18.3196 46.3624 18.489 46.4042 18.5944 46.2963ZM12.5097 31.0855C12.5179 31.0816 12.5117 31.0339 12.4638 31.0494C12.3095 31.0997 12.3726 31.1498 12.5097 31.0855ZM19.4571 47.9626C19.3564 47.699 19.9024 47.2289 19.9709 47.5336C19.9834 47.5889 19.7181 47.5313 19.6941 47.6223C19.6508 47.789 20.0804 47.6619 19.9317 47.8869C19.9044 47.928 19.4615 47.9784 19.456 47.9626C19.4564 47.9626 19.4568 47.9626 19.4571 47.9626ZM13.9227 35.0668C13.9295 35.0625 13.9141 34.9979 13.9062 34.9991C13.7154 35.0301 13.7465 35.1605 13.9227 35.0668ZM12.1061 28.3261C12.1214 28.3183 12.0976 28.1675 12.0814 28.1667C11.7607 28.1694 11.8083 28.4757 12.1061 28.3261ZM15.9408 39.0124C16.1445 39.0038 16.1981 39.073 15.9994 39.2189C15.9835 39.1487 15.9575 39.0824 15.9408 39.0124ZM33.5995 2.17447C33.571 3.42537 33.345 5.04244 33.0999 6.25786C33.0242 6.63589 32.9458 6.42822 32.8878 6.68858C32.7743 7.19446 32.7494 7.6996 32.6198 8.18707C32.5758 8.35128 32.4443 8.11635 32.4019 8.28892C32.272 8.81835 32.1739 9.34533 32.0731 9.87028C31.9949 10.2774 31.914 10.689 31.812 11.1114C31.1345 13.9106 30.3651 16.6335 29.479 19.3455C28.8671 21.2147 28.1996 23.0732 27.457 24.9284C27.0181 26.0269 26.4174 27.2742 25.877 28.4604C25.6817 28.89 25.4949 29.3114 25.3277 29.7173C25.2539 29.8964 25.436 29.8533 25.4316 29.8919C25.3558 30.4969 25.1663 30.1983 24.9684 30.5251C24.1854 31.8152 23.4069 33.2944 22.7374 34.5887C22.4535 35.1361 23.0146 34.7462 22.5626 35.2014C22.5315 35.2329 22.4742 35.0199 22.3754 35.1568C22.1548 35.4643 21.7953 36.1161 21.6289 36.3588C21.394 36.7035 21.3038 36.837 21.1596 37.0595C21.104 37.1449 21.0407 37.2426 20.9585 37.3676C20.543 37.9977 19.991 38.663 19.5359 39.3388C19.4408 39.4807 19.7046 39.3946 19.5638 39.6297C19.4252 39.8647 18.9736 40.4268 18.7845 40.5989C18.6006 40.7674 18.5683 40.606 18.5186 40.6217C18.1056 40.7496 17.8398 41.581 17.7605 41.6799C16.8531 42.8719 15.8281 43.7597 14.714 44.5945C14.371 44.85 13.9866 45.1235 13.6112 45.3797C12.4322 46.1932 11.0453 46.9581 9.66061 47.3036C8.04565 47.7134 6.49576 47.6263 5.03073 47.2782C4.99474 47.2697 4.95899 47.261 4.92319 47.2522C4.75321 47.209 4.90567 47.445 4.69715 47.3907C2.50409 47.0107 0.241756 44.5998 0.226287 42.27C0.205871 42.0366 0.410952 42.3055 0.403155 42.0814C0.371122 41.2785 0.544677 40.2543 0.641445 39.3817C0.700396 38.7849 0.718256 38.1833 0.501153 37.8178C0.746451 36.943 1.11922 35.9509 1.55909 35.2536C1.83357 34.8306 1.81449 35.3448 1.98047 34.7542C2.01974 34.6204 1.80267 34.7233 1.87355 34.5262C2.18734 33.6665 2.64432 32.8695 3.00537 32.0453C3.0746 31.885 2.9281 31.8576 2.92988 31.8019C2.95155 31.3346 3.60858 30.8948 3.71063 30.7772C3.7529 30.727 3.79418 30.6772 3.83457 30.6279C4.50883 29.8156 4.92487 29.0772 5.50669 28.2669C5.65333 28.0642 5.32606 28.194 5.46242 27.9944C6.177 26.9557 6.99503 25.946 7.85025 25.0727C8.04136 24.8785 8.00218 25.1738 8.09974 25.0866C8.52827 24.7044 8.38623 24.4029 8.80142 24.0391C8.88863 23.9627 8.94802 24.1039 8.9734 24.0985C9.36955 24.0169 9.31409 23.5788 9.36707 23.5109C9.41876 23.4435 9.47111 23.3799 9.52401 23.3195C10.1512 22.6073 10.8152 22.3571 11.4702 21.6607C11.5555 21.5701 11.2313 21.6375 11.4792 21.3904C12.9898 19.8858 14.7477 18.4617 16.5439 17.3091C16.7047 17.2057 16.8664 17.1039 17.0278 17.0046C17.3332 16.8174 17.1993 17.0718 17.2272 17.0721C17.6709 17.0722 17.6733 16.6604 17.7633 16.5841C18.4727 15.9941 19.3548 15.783 19.6829 15.1185C21.285 14.2465 22.9053 13.4155 24.5981 12.7418C26.53 11.9724 28.5816 11.4068 30.6736 11.2918C30.7229 11.2888 30.6554 11.4682 30.7533 11.4615C31.9277 11.4006 31.6763 11.1757 32.4494 10.7924C32.6472 10.6962 33.2587 11.0559 33.3096 11.0848C33.503 11.1839 33.3086 11.4381 33.373 11.4566C33.5314 11.5001 33.6333 11.4582 33.7184 11.377C33.9233 11.1877 34.0337 10.7815 34.5383 10.7822C34.5608 10.7836 34.4667 10.9351 34.527 10.9504C34.714 10.9983 34.8978 10.9391 35.0773 10.9932C35.4841 11.1191 35.6276 11.5205 36.2778 11.3043C36.3583 11.2769 36.2477 10.8036 36.8835 10.848C37.1082 10.8621 38.2944 10.9144 38.59 10.9691C38.8989 11.0211 38.6748 11.1564 38.6967 11.1645C38.7455 11.1798 38.79 11.1945 38.8308 11.2087C39.4934 11.4358 39.2296 11.5054 39.6035 11.8164C39.9951 12.1482 39.9453 11.44 40.1246 11.3791C40.2927 11.3163 40.9116 11.5521 41.0556 11.6295C41.2008 11.7056 40.9989 11.7764 41.1298 11.8258C41.9817 12.1543 41.5647 11.5338 41.8706 11.4646C42.6409 11.3141 43.0541 11.9164 43.6933 12.1028C43.861 12.1528 43.7472 12.0074 43.9006 12.0293C43.9008 12.0293 43.901 12.0293 43.9011 12.0294C44.4872 12.1174 44.848 12.3729 45.5366 12.4201C45.6525 12.4274 46.3149 12.307 46.576 12.6477C46.6143 12.6969 46.4285 12.7667 46.6693 12.8858C47.0386 13.0656 47.6593 13.3579 48.0656 13.5138C48.3562 13.6236 48.1359 13.2721 48.4538 13.51C48.6002 13.6211 48.247 13.5746 48.523 13.7734C48.5669 13.8056 48.6229 13.8432 48.6863 13.8846C49.0059 14.0877 49.5498 14.4392 49.7552 14.5912C50.0143 14.7782 49.9722 14.5456 49.9991 14.5516C50.1718 14.596 50.6936 14.9324 50.7373 14.9793C51.5057 15.661 52.1072 16.4795 52.5439 17.3556C53.3143 18.9008 53.5816 20.5464 53.8232 22.2018C53.8521 22.4059 54.0072 22.2516 54.0134 22.2825C54.0202 22.3155 54.0256 22.3458 54.0295 22.3737C54.1059 22.9382 53.6446 22.4935 53.5403 22.9715C53.8795 22.8735 53.8431 23.1651 53.91 23.6606C53.9419 23.8971 54.0686 23.7605 54.0835 23.7814C54.3062 24.1256 54.0525 24.3875 54.0013 24.4519C53.8127 24.6922 54.0547 24.9386 53.927 25.1024C53.8002 25.2649 53.5953 24.9065 53.6108 25.3772C53.7383 25.506 54.0532 25.1471 54.115 25.5038C54.2071 26.0364 54.2271 26.7433 54.225 27.4769C54.2731 28.6466 54.1638 29.8115 54.1161 30.4957C54.038 31.5692 54.0128 31.9579 53.8952 32.5803C53.6595 33.6982 53.9521 33.3316 53.9376 34.0644C53.9359 34.1129 53.932 34.1562 53.9261 34.1948C53.8396 34.7403 53.3845 34.3382 53.2493 34.4092C53.1047 34.4802 53.2103 34.6128 53.1154 34.7175C53.0206 34.8208 52.9939 34.5455 52.9054 34.8184C52.8189 35.1005 52.8342 35.9238 52.9298 36.0598C53.1374 36.3494 53.5312 36.0805 53.1987 36.8079C53.1789 36.8497 53.0758 36.6607 53.0075 36.8233C52.5052 38.0217 51.9706 39.2504 51.2736 40.3468C51.2313 40.4134 51.1885 40.4793 51.1453 40.5445C51.0419 40.6989 50.9718 40.4699 50.9101 40.5581C50.2467 41.4734 50.6989 41.273 50.6359 41.978C50.3462 41.6258 49.9575 41.7682 49.4553 42.453C49.151 42.8575 49.3534 42.8993 49.2525 43.2427C49.2207 43.3485 48.8878 43.5494 48.9126 43.6558C48.9896 44.0079 49.4692 43.9634 48.7725 44.5503C48.7417 44.575 48.7084 44.3763 48.6104 44.4693C47.9949 45.039 48.0909 45.3155 47.528 45.9221C47.4919 45.9601 47.4531 45.9992 47.4112 46.0394C46.8745 46.5709 45.6914 47.251 44.9466 47.6761C44.6993 47.2626 44.099 47.7651 43.9656 48.2136C43.4844 48.4649 42.9348 48.7535 42.4322 48.9149C42.2587 48.9707 42.3147 48.7948 42.2876 48.7897C41.8698 48.7059 41.7658 49.0896 41.656 49.1432C41.6408 49.1505 41.6255 49.1576 41.6103 49.1647C40.4324 49.696 39.3736 49.6947 38.1651 50.0121C38.1259 50.022 38.0614 50.3676 37.7085 50.1277C37.6886 50.1105 38.1006 49.9534 37.5089 49.9459C36.9128 49.9409 35.8417 49.6431 35.0276 49.5C35.001 49.4959 34.9681 49.4936 34.9302 49.4917C34.6847 49.4846 34.1909 49.4673 33.9645 49.1147C33.9319 49.0615 34.0323 49.009 33.9934 48.9229C33.8793 48.6508 33.5644 48.8493 33.5096 48.4369C33.4591 48.0185 33.2191 47.5382 32.6686 47.002C32.6536 46.9873 32.3204 46.9584 32.2143 46.7223C32.0462 46.3627 31.9235 45.7872 31.8505 45.3879C31.8126 45.1889 31.6698 45.3378 31.6603 45.3036C31.5465 44.8299 31.5178 44.4356 31.5279 44C31.5558 43.1995 31.6728 42.4644 31.9168 41.5377C31.9716 41.3092 31.9742 40.4612 32.3825 40.0661C32.8271 39.689 33.2352 40.4899 33.7106 39.5381C33.7237 39.5164 33.7349 39.4925 33.7447 39.4664C33.8428 39.0931 33.8917 37.8808 34.9461 38.0395C35.9734 37.5905 37.1141 37.6746 38.1663 37.837C38.8031 37.9363 39.424 38.0664 40.0824 38.1773C40.1605 38.1899 40.4958 37.9837 40.6826 38.0466C40.9502 38.1374 41.0565 38.3171 41.2476 38.3924C41.9588 38.6784 42.6556 38.8628 43.3306 39.1562C43.406 39.189 43.4836 39.2244 43.557 39.2596C43.835 39.3941 43.6774 39.4758 44.0098 39.6408C44.3441 39.8088 44.6506 39.7515 45.0574 40.0594C45.37 40.2964 45.5263 40.807 45.9412 41.0853C46.1339 40.7652 46.449 40.9445 47.0228 41.1615C47.1349 41.2042 47.0901 41.028 47.1465 41.0424C47.3783 41.099 47.5076 41.3001 47.7342 41.3501C47.7891 41.3624 47.8573 41.2544 47.9053 41.258C48.0226 41.2654 48.137 41.3168 48.2417 41.3891C48.5027 41.5688 48.7033 41.8779 48.7478 41.9479C48.9881 42.3224 49.2277 42.2785 49.446 42.5079C49.662 42.7366 49.2279 42.567 49.5025 42.799C50.069 43.2775 50.8685 43.7937 51.4716 44.2251C51.7149 44.3979 51.6464 44.1415 51.6835 44.163C51.9738 44.3384 52.2282 44.5738 52.4705 44.7353C52.6733 44.8707 52.8734 44.959 53.0906 44.9276C52.9165 45.8907 53.4429 45.0788 54.0446 45.7535C54.0919 45.8072 53.9106 46.1906 53.6617 46.0783C53.4118 45.9654 53.1724 45.6237 52.8149 45.4783C52.7303 45.4431 52.0977 45.4626 52.0297 45.443C52.0096 45.4369 51.9907 45.4303 51.9728 45.4233C51.5176 45.244 51.79 44.7325 51.7874 44.69C51.7362 44.2013 50.9934 44.1941 50.8471 44.1292C50.159 43.8162 49.7026 43.4078 49.1264 43.1475C48.7556 42.9813 48.5051 43.304 48.2505 43.1285C47.943 42.9178 47.7437 42.7009 47.5653 42.5034C47.2477 42.1492 46.9669 41.8376 46.2696 41.8054C46.0382 41.796 46 42.2799 45.5147 41.6133C45.4824 41.5698 45.1564 41.0301 44.7675 41.0574C44.7198 41.0614 44.6615 41.177 44.6094 41.1623C44.2591 41.0615 44.1085 40.8705 43.7315 40.7429C43.4339 40.643 43.1021 40.5484 42.7772 40.4026C42.6942 40.3653 42.6132 40.3253 42.5353 40.2818C42.3035 40.1523 42.0984 39.8073 41.9941 39.7021C41.7168 39.407 41.2725 39.5395 41.1329 39.2717C40.9865 39.0013 41.5153 38.8514 40.9885 38.5286C40.8602 38.8403 40.7037 39.1519 40.5658 39.4625C39.7176 39.1743 38.8871 38.9003 38.0421 38.7582C37.7143 38.7031 37.3729 38.6686 37.05 38.6671C36.9049 38.6674 37.0495 38.8494 36.8984 38.8558C36.2839 38.8886 35.7342 38.8354 35.2142 39.0862C34.8101 39.2849 34.5559 39.6877 34.3313 40.0046C34.3285 40.0041 34.3257 40.0036 34.323 40.0031C33.8625 39.9222 33.567 40.5874 33.3701 41.0862C33.2957 41.2604 33.2027 41.2179 33.128 41.3462C32.8658 41.8326 33.2658 41.6687 33.2828 41.8172C33.387 42.4563 32.6133 42.3787 32.5659 43.232C32.561 43.2728 32.9525 43.8239 32.981 43.9053C32.9928 43.9413 33.0023 43.9727 33.0097 44C33.1082 44.3304 32.8336 44.0128 32.8134 44.2873C32.7836 44.7979 32.7375 45.186 32.9966 45.657C33.0792 45.8145 33.4232 46.0208 33.3756 46.3512C33.3706 46.3973 33.2407 46.4417 33.2489 46.4739C33.4304 47.0504 33.8119 46.8062 34.0997 46.9258C34.3797 47.0345 34.5492 47.5282 34.6019 47.6577C34.7054 47.9858 34.3786 47.6253 34.3593 47.6288C34.0658 47.7264 34.3913 47.9296 34.6427 48.0915C34.4669 48.4796 34.9032 48.6658 34.9119 48.2556C34.9125 48.2126 34.6847 48.1396 34.6427 48.0915C34.9352 47.941 35.1898 47.9428 35.4418 48.1116C35.5664 48.1947 35.6954 48.3191 35.824 48.484C36.0182 48.711 35.7337 48.8875 36.5285 48.9438C36.889 48.9534 36.7822 48.6523 37.0947 48.5985C37.7762 48.4721 38.7186 48.6642 39.4514 48.4695C39.7156 48.3995 39.4237 48.2994 39.6015 48.2455C40.0644 48.1005 40.5119 48.0967 40.9637 47.8787C41.0034 47.859 40.8486 47.7382 40.9899 47.6869C41.0167 47.677 41.0435 47.6671 41.0702 47.6572C42.113 47.2643 43.0542 46.9097 44.0714 46.2679C44.5853 45.9502 45.3779 45.2487 45.8535 44.8565C45.9851 44.7507 46.1242 44.6423 46.2674 44.5307C47.0204 43.9504 47.8643 43.2699 48.316 42.6259C48.662 42.1301 48.445 42.1334 48.5093 41.8631C48.6316 41.3454 49.4255 40.8434 49.54 40.7663C49.545 40.7654 49.2975 41.2209 49.5182 41.0348C49.7543 40.9936 49.5378 40.7711 49.54 40.7663C49.6064 40.7313 50.0444 40.0649 50.1893 39.7596C50.2131 39.7116 50.2307 39.6724 50.24 39.6459C50.2773 39.5389 50.1099 39.5212 50.1316 39.4671C50.6482 38.1834 51.1116 36.9037 51.5613 35.5792C51.571 35.5564 51.7292 35.6394 51.7498 35.585C52.0077 34.9098 51.9625 34.3814 51.9452 33.8146C51.9429 33.7373 51.9411 33.6586 51.9404 33.5779C51.9366 32.8812 52.0383 32.4041 52.3811 32.0356C52.4016 31.5235 52.5835 30.8168 52.6789 30.3921C52.7753 29.9664 52.4336 29.9004 52.4283 29.8636C52.278 28.9681 52.3344 28.3799 52.3405 27.5632C52.3519 27.3083 52.3621 27.0364 52.3629 26.734C52.3654 26.1179 52.2914 24.9318 52.2241 24.311C52.1717 23.8169 52.2336 23.5133 52.1478 23.0706C52.1361 23.011 51.9902 23.0841 51.9828 23.0662C51.7596 22.5864 52.1483 22.7914 52.205 22.6822C52.2282 22.6372 52.25 22.5941 52.2702 22.5522C52.4255 22.2288 52.489 21.9624 52.3025 21.4226C52.254 21.2768 51.656 20.9656 51.5704 20.7339C51.4589 20.4287 51.6741 20.5012 51.5429 20.184C51.5313 20.1574 51.4204 20.193 51.3682 19.9959C51.2159 19.4332 51.024 18.8645 50.7565 18.34C50.5896 18.0114 50.3928 17.6992 50.1675 17.4181C50.0875 17.3189 50.0415 17.5608 49.9253 17.4239C49.3857 16.7885 48.6599 16.1829 47.9475 15.6623C47.7729 15.534 47.9549 15.4892 47.9338 15.4318C47.9182 15.3918 47.8969 15.3574 47.8715 15.328C47.6633 15.0914 47.2419 15.1836 47.1841 15.1627C45.8888 14.6961 44.8452 14.1943 43.489 13.8985C43.2004 13.8372 42.862 13.7813 42.555 13.7523C42.4651 13.7419 41.6274 13.9723 41.3458 13.6186C41.3274 13.5947 41.036 13.2291 40.7006 13.4099C40.6798 13.4213 40.8755 13.6114 40.5009 13.5494C40.1198 13.4872 39.5438 13.5391 39.0238 13.3152C38.9526 13.2836 38.8299 13.1948 38.6911 13.1285C38.5147 13.0468 38.2819 12.9967 38.0047 13.1212C37.9792 13.1361 37.167 13.6718 36.938 13.2655C36.896 13.1987 36.9596 12.7768 36.3661 12.9741C36.2522 13.0127 36.4557 13.1127 36.1563 13.163C35.679 13.2406 35.1047 13.1184 34.5352 13.3049C34.4431 13.3356 34.07 13.5871 33.7344 13.4458C33.7125 13.4358 33.6907 13.4239 33.6693 13.4098C33.6181 13.3765 33.7134 13.2341 33.5416 13.221C32.7234 13.1597 31.884 13.3265 31.0883 13.3429C30.8037 13.3505 30.9208 13.102 30.6167 13.0887C30.311 13.0747 29.7066 13.1308 29.4228 13.302C29.1406 13.4722 29.5447 13.7514 29.1052 13.8839C27.927 14.2456 26.695 14.5907 25.5021 15.0052C24.7546 15.2654 24.0311 15.5468 23.3086 15.8881C23.0297 16.0213 23.314 16.0236 22.9126 16.2292C21.4842 16.9402 19.2588 18.4587 17.9003 19.1879C17.8294 19.2246 17.7606 19.259 17.6941 19.2907C16.6125 19.8162 17.7093 18.7924 16.9272 19.2625C16.548 19.4931 16.4334 20.1191 16.3602 20.1941C15.6383 20.9379 14.9746 21.2539 14.3149 21.9132C14.1796 22.0495 14.4336 22.0524 14.3177 22.1667C13.9233 22.5588 13.4473 22.8964 13.0721 23.276C12.9047 23.4463 13.0272 23.5096 12.8635 23.6549C12.4728 24.0052 12.1122 24.2908 11.6677 24.576C11.6269 24.6023 11.7297 24.2609 11.454 24.5391C11.3572 24.6374 11.252 24.7376 11.1428 24.8408C10.749 25.2129 10.3121 25.6154 10.0057 26.1144C9.892 26.3024 10.1116 26.5027 9.65643 26.7189C9.56205 26.7645 9.36487 26.4394 9.25929 27.0494C9.24262 27.1469 8.9911 28.1162 8.51525 28.2949C8.38835 28.3424 7.97417 28.3991 7.85709 28.6316C7.84194 28.6641 8.05422 28.6484 7.93831 28.8288C7.5204 29.4742 7.06525 30.0868 6.6747 30.7653C6.57246 30.9446 6.8795 30.7809 6.7239 31.0444C6.5399 31.3575 6.33232 31.6878 6.11712 32.0255C5.82733 32.48 5.53765 32.9284 5.29389 33.3101C5.13288 33.5635 5.1117 33.316 5.08844 33.3272C4.70211 33.5275 4.89633 33.8673 4.86033 33.9781C4.63794 34.6603 4.26147 35.0961 4.04029 35.7136C3.98038 35.8822 4.17411 35.8267 4.17307 35.8649C4.15895 36.2524 4.00311 35.8948 3.88695 36.0959C3.54779 36.6974 3.32954 37.3521 3.16383 38.0077C3.10688 38.2392 3.35315 38.0313 3.30151 38.2361C3.18415 38.7139 3.07217 39.2509 2.99807 39.7249C2.88615 40.4337 2.83327 41.0982 2.84615 41.7041C2.85089 41.8919 2.69749 41.7944 2.67091 41.8376C2.48775 42.1763 2.88979 42.4995 2.94264 42.5566C3.19257 42.884 3.1377 43.0474 3.32087 43.3119C3.83399 43.9494 4.31188 44.368 5.6469 44.7443C6.78497 45.0268 7.67925 45.0041 8.49368 44.8794C10.247 44.5839 11.7772 43.7827 13.1938 42.6949C13.6986 42.3031 14.1947 41.8635 14.6867 41.3664C14.8078 41.2439 14.5537 41.2338 14.6556 41.1267C15.9604 39.7579 17.1918 38.3151 18.2533 36.6711C18.3395 36.5374 18.065 36.6274 18.1978 36.4097C18.3618 36.1388 18.5638 35.8279 18.7723 35.5266C18.9052 35.3348 19.0402 35.149 19.1702 34.9819C19.3303 34.7751 19.275 35.1518 19.4338 34.9412C19.8049 34.4479 20.1545 33.8806 20.4391 33.3207C20.5608 33.0801 20.2042 33.345 20.3741 33.0394C21.404 31.1709 22.3109 29.2595 23.3284 27.3445C23.446 27.1225 23.5648 26.9011 23.6845 26.6815C23.7641 26.5352 24.1592 26.5433 24.2314 26.1873C24.1477 26.1235 24.0367 26.0789 23.9408 26.0264C24.9262 23.5351 25.8829 21.0467 26.7113 18.4947C26.9662 17.7087 27.2083 16.9179 27.4345 16.1176C27.4748 15.9747 27.2195 16.1701 27.2962 15.8935C27.7384 14.2909 28.0698 12.711 28.61 11.095C28.6633 10.9327 28.9808 11.088 29.0312 10.5864C29.0408 10.4974 29.1423 9.75202 29.1041 9.54974C29.098 9.52205 28.9161 9.62535 28.9561 9.38928C28.9618 9.35615 28.9674 9.323 28.9731 9.28984C29.2062 7.93445 29.4666 6.52959 29.7294 5.19983C29.7735 4.97576 29.912 5.23758 29.9449 5.07795C30.1755 3.95462 30.1637 2.70071 30.3816 1.64296C30.5273 0.912854 30.8044 1.20145 31.1117 0.823125C31.1555 0.768917 31.1788 0.317064 31.3469 0.299474C31.7714 0.25167 32.2267 0.489262 32.6801 0.412993C32.7788 0.395732 32.6905 -0.227724 32.9153 0.146096C32.9309 0.171557 32.9941 0.62813 33.0683 0.745302C33.1201 0.826426 33.2967 0.6908 33.3604 0.855266C33.4238 1.02043 33.2727 1.1918 33.3407 1.4671C33.409 1.74026 33.6109 1.6435 33.5995 2.17447ZM53.0437 28.448C53.1914 28.0355 52.5906 27.9984 52.7512 28.4303C52.7596 28.4511 53.0364 28.4691 53.0437 28.448ZM38.3035 38.3128C38.2392 38.2658 38.1759 38.2324 38.1159 38.2105C37.74 38.0757 37.4949 38.3732 37.7812 38.5754C37.8835 38.648 37.9713 38.6608 38.0577 38.6426C38.253 38.6 38.4024 38.3852 38.3035 38.3128ZM43.4901 39.8064C43.3522 39.6742 43.2072 39.6453 43.0998 39.6761C42.9373 39.7223 42.8526 39.8998 42.9383 40.0398C42.9843 40.1162 43.0876 40.1844 43.2472 40.2106C43.2849 40.2173 43.5175 39.8323 43.4901 39.8064ZM31.0816 2.64227C31.0903 2.63705 31.1229 2.31098 31.1154 2.3029C30.9391 2.11578 30.8744 2.76496 31.0816 2.64227ZM48.3943 42.242C48.3081 42.0787 47.933 41.9303 47.8637 42.0118C47.8605 42.0155 47.858 42.0197 47.8561 42.0244C47.8484 42.0438 47.8526 42.0717 47.8728 42.1097C47.9775 42.3067 48.5258 42.4917 48.3943 42.242ZM43.6494 12.392C43.6455 12.3817 43.4117 12.3248 43.4059 12.3753C43.3907 12.5372 43.7233 12.5608 43.6494 12.392ZM55.9919 47.6848C54.9393 46.7967 54.6946 45.7248 55.8424 46.7271C56.0492 46.9093 55.2384 46.5333 55.4738 46.8005C55.9017 47.2866 56.5054 47.2083 56.8631 47.8067C56.9266 47.9139 56.0505 47.7352 55.9894 47.6841C55.9903 47.6843 55.9911 47.6846 55.9919 47.6848ZM53.7529 28.1892C53.761 28.181 53.7525 27.8481 53.7437 27.84C53.5453 27.6683 53.5628 28.3369 53.7529 28.1892ZM29.8091 11.6035C29.7884 11.5868 29.027 11.7271 29.0057 11.7512C28.6818 12.134 30.1924 11.8546 29.8091 11.6035ZM44.9283 47.6724C44.7276 48.0285 44.3396 48.2827 43.9672 48.213C44.2937 48.0474 44.6172 47.857 44.9283 47.6724Z" fill="black"/>
</svg>
