<svg width="52" height="55" viewBox="0 0 52 55" fill="none" xmlns="http://www.w3.org/2000/svg">
<path d="M0.812773 13.0142C0.941671 12.9325 1.13728 12.9465 1.29327 12.9905C1.34211 13.004 1.34274 13.1124 1.37748 13.1264C1.44539 13.1537 1.48923 13.0908 1.55814 13.1259C1.58109 13.1381 1.59309 13.3074 1.61633 13.3164C1.7434 13.3644 1.83934 13.2995 1.95958 13.3096C2.55192 13.3596 3.11052 13.3013 3.68824 13.2525C3.87869 13.2363 4.13641 13.3356 4.31325 13.2285C4.33386 13.2158 4.28889 13.0748 4.29052 13.062C4.31715 12.8657 4.35895 13.1612 4.41092 13.1903C4.61702 13.3048 4.81183 13.2758 4.96568 13.1837C4.96661 13.1831 4.9675 13.1825 4.96835 13.1819C5.0273 13.1365 4.89881 12.8758 5.00375 13.0186C5.01107 13.0283 5.02678 13.1852 5.04974 13.1972C5.10175 13.2242 5.17911 13.1785 5.21582 13.1832C5.28676 13.1928 5.29728 13.1889 5.35974 13.177C5.44542 13.162 5.56308 13.2158 5.64651 13.1612C5.66422 13.149 5.60401 12.998 5.62914 12.9645C5.65431 12.931 5.7393 12.9263 5.7751 12.9571C5.8109 12.988 5.82622 13.1138 5.83733 13.1409C5.93004 13.3704 5.95237 13.0194 5.96279 13.0086C6.1549 12.8205 6.38725 12.9665 6.59619 12.92C6.75471 12.8843 6.91076 12.7849 7.06364 12.7601C7.24591 12.7313 7.41707 12.7827 7.58864 12.7296C7.60678 12.7242 7.54463 12.5447 7.56671 12.5377C7.80135 12.4636 8.04345 12.4314 8.30913 12.5034C8.33582 12.5108 8.3406 12.6793 8.36939 12.6964C8.54483 12.7972 8.84642 13.0656 8.77829 12.3422C8.88337 12.3479 9.00984 12.3499 9.12967 12.4724C9.19575 12.5398 9.19306 12.6875 9.2245 12.672C9.2298 12.6693 9.23608 12.6621 9.24382 12.649C9.25595 12.6287 9.20142 12.4789 9.22219 12.4603C9.30968 12.3818 9.42989 12.4079 9.5112 12.3064C9.52766 12.2854 9.49174 12.1483 9.49196 12.1222C9.49547 11.91 9.64852 12.2258 9.67122 12.2462C9.84328 12.3978 9.92426 12.3054 10.0485 12.2827C10.0773 12.2775 10.0027 12.0992 10.0289 12.0875C10.1658 12.0295 10.3172 12.0129 10.4751 12.0646C10.5104 12.0766 10.5166 12.2411 10.5352 12.2549C10.6168 12.3138 10.5656 12.0118 10.6426 12.0625C10.6588 12.0728 10.6811 12.2099 10.6868 12.2243C10.776 12.4495 10.7361 12.1114 10.7442 12.1019C10.8453 11.975 10.9999 12.3032 11.108 12.2281C11.1209 12.2188 11.0511 12.0544 11.0895 12.0387C11.3454 11.9328 11.6374 11.9179 11.9311 11.997C11.9767 12.0091 11.9758 12.1443 11.9819 12.1596C12.0785 12.3984 12.0326 12.0601 12.0432 12.0446C12.1288 11.9313 12.2886 12.1884 12.2731 11.7768C12.6556 11.8082 12.9858 11.6084 13.3704 11.661C13.4651 11.674 13.5631 11.7023 13.6661 11.7531C13.6726 11.7559 13.6985 11.9218 13.7114 11.9268C13.8668 11.989 13.7849 11.7403 13.8059 11.4096C13.8113 11.3265 13.9625 11.687 13.9746 11.7132C14.019 11.8098 14.0497 12.0583 14.0614 12.0763C14.1566 12.2171 13.9695 11.4141 14.052 11.3957C14.0549 11.3965 14.0767 11.5471 14.0869 11.5603C14.1186 11.6018 14.127 11.5382 14.1593 11.5846C14.2335 11.692 14.3368 12.0795 14.3604 11.8356C14.3632 11.804 14.2485 11.3503 14.327 11.3557C14.3584 11.3582 14.4868 11.3217 14.5298 11.3433C14.5728 11.3649 14.5802 11.5175 14.5842 11.5234C14.7252 11.6964 14.7057 11.7852 14.8183 12.0625C14.9306 12.3388 14.7663 11.6571 14.7696 11.5763C14.7729 11.4957 14.8802 11.6404 14.9102 11.6924C14.9402 11.7443 14.9387 11.8427 14.9613 11.8708C15.111 12.0544 14.9323 11.5209 14.9428 11.4047C14.9672 11.1296 15.1419 11.6235 15.227 11.6569C15.25 11.6659 15.2082 11.5539 15.2237 11.5391C15.2854 11.4823 15.3628 11.6313 15.4113 11.4684C15.4193 11.4418 15.4172 11.1222 15.5086 11.337C15.5217 11.368 15.5325 11.4982 15.5689 11.5199C15.6233 11.5526 15.7106 11.5624 15.7497 11.5094C15.7786 11.4703 15.6917 11.2708 15.751 11.3256C15.7773 11.3502 15.7671 11.4803 15.8144 11.5162C15.8614 11.5521 15.9558 11.5257 15.9913 11.5135C16.0266 11.5012 15.9719 11.3474 15.9725 11.3361C15.9769 11.2712 16.0297 11.1796 16.0359 11.1785C16.3421 11.0909 16.6871 11.2944 16.9699 11.1397C16.9922 11.1278 16.9397 10.9645 16.9427 10.961C17.0086 10.8732 17.0421 11.3307 17.1315 11.4667C17.0488 11.13 17.0958 11.1839 17.1448 11.1342C17.1684 11.11 17.1245 10.9823 17.1241 10.9683C17.1212 10.7603 17.2062 11.0111 17.2251 11.0621C17.2947 11.2496 17.2739 11.0145 17.3208 11.1398C17.3674 11.2641 17.3669 11.4636 17.4213 11.4491C17.41 11.3246 17.2996 11.017 17.33 10.9565C17.3771 10.8624 17.4637 10.8382 17.5586 10.8421C17.6943 10.8477 17.8468 10.9109 17.9245 10.9097C18.0563 10.9078 18.0921 10.8764 18.1752 10.9041C18.3253 10.954 18.225 10.7298 18.2838 10.6042C18.3428 10.4785 18.4298 11.0653 18.469 11.1869C18.508 11.3085 18.4926 11.1779 18.5221 11.243C18.5516 11.308 18.5388 11.3994 18.5785 11.4175C18.6182 11.4356 18.6626 11.1942 18.6461 11.0617C18.611 10.7809 18.5056 10.5012 18.618 10.5829C18.6245 10.5878 18.6411 10.7435 18.6643 10.7545C18.8475 10.8368 19.0128 10.808 19.1928 10.8769C19.2177 10.8866 19.2355 11.0599 19.2504 11.0675C19.4053 11.1468 19.2957 10.872 19.2979 10.5396C19.3745 10.9645 19.4709 11.2136 19.571 11.1942C19.6312 11.1827 19.5804 11.0009 19.5905 10.8627C19.5935 10.821 19.6637 10.9381 19.6523 10.8498C19.6154 10.5613 19.5058 10.2534 19.6362 10.3569C19.642 10.3619 19.6617 10.5199 19.6793 10.5259C19.7934 10.5652 19.7403 10.2666 19.8411 10.2068C19.9201 10.16 20.1113 10.3071 20.2148 10.3151C20.317 10.7893 20.3847 10.6607 20.35 10.3259C20.4159 10.3254 20.4798 10.292 20.5506 10.3237C20.5749 10.3345 20.5914 10.4747 20.5972 10.4889C20.6889 10.7125 20.6463 10.3887 20.6572 10.3733C20.7778 10.2198 20.9508 10.4342 21.0395 10.1679C21.0427 10.1583 20.9783 9.82746 21.0688 10.0595C21.0748 10.0755 21.0614 10.2355 21.13 10.2325C21.1987 10.2296 21.3622 10.3785 21.4204 10.2059C21.4346 10.1643 21.432 9.88474 21.523 10.0835C21.5352 10.1106 21.5494 10.2064 21.5697 10.257C21.6345 10.4182 21.5766 10.0822 21.6718 10.3575C21.7479 10.578 21.8369 10.748 21.8949 10.6964C21.9093 10.6835 21.9218 10.657 21.9317 10.6141C21.9334 10.6078 21.8973 10.3393 21.9273 10.3371C21.9753 10.3337 22.0534 10.3741 22.1015 10.3617C22.1245 10.3557 22.0737 10.1953 22.077 10.1914C22.2131 10.0653 22.3564 10.1868 22.5377 10.2133C22.571 10.2185 22.61 9.97583 22.7083 10.1393C22.816 10.3181 22.9258 11.1366 23.0336 10.9121C23.0772 10.8222 22.9294 9.78573 23.1543 10.2901C23.3362 10.1128 23.5906 10.3404 23.7608 10.1069C23.7684 10.0966 23.7359 9.80538 23.7591 9.80434C23.7936 9.80334 23.8411 9.93234 23.8667 9.9359C23.9748 9.95413 24.0405 9.82035 24.1401 9.81701C24.1779 9.81544 24.1954 9.95577 24.2404 9.95392C24.2854 9.95195 24.2744 9.76451 24.3523 9.83906C24.4113 9.89598 24.537 10.2564 24.6054 10.2866C24.5273 9.92098 24.5693 9.91962 24.6199 9.80744C24.6296 9.7857 24.5869 9.66187 24.59 9.64504C24.6022 9.57369 24.6499 9.67361 24.6595 9.59676C24.6618 9.57828 24.6347 9.45353 24.6351 9.43139C24.6373 9.23837 24.7693 9.50339 24.7922 9.54957C24.8792 9.72486 24.8652 9.55792 24.9167 9.62315C24.9682 9.68838 24.9353 9.79133 24.9865 9.82654C25.0924 9.89933 25.1982 9.85494 25.2866 9.8415C25.3217 9.83537 25.2614 9.67414 25.2655 9.6694C25.3281 9.61137 25.4398 9.77243 25.4067 9.43211C25.6451 10.2784 25.4318 9.33943 25.5723 9.48843C25.5834 9.50053 25.6829 9.90365 25.6649 9.97C25.6469 10.0363 25.5719 9.91995 25.5492 10.0222C25.5438 10.0462 25.5689 10.439 25.566 10.4637C25.543 10.6573 25.4009 10.0535 25.3903 10.0209C25.2738 9.6701 25.2923 10.0951 25.2797 10.1275C25.2221 10.276 25.1302 10.2069 25.0786 10.3152C25.0446 10.3854 25.1273 10.7832 25.0877 10.7792C24.9559 10.7661 24.7912 10.222 24.7809 10.7274C24.7786 10.8353 24.8987 11.2635 24.7347 10.9421C24.7243 10.9218 24.5896 10.6244 24.5949 10.8301C24.5955 10.8561 24.6235 10.9824 24.6195 10.9944C24.5922 11.0724 24.5418 10.978 24.5062 11.0363C24.4707 11.0947 24.431 11.1788 24.3688 11.1476C24.3314 11.1289 24.2389 10.9024 24.211 10.8481C24.1315 10.6914 24.1454 10.9739 24.0745 10.7786C24.0032 10.5824 23.9881 10.2638 23.889 10.1487C23.9587 10.4777 24.0268 10.8161 24.0953 11.1472C23.9386 11.1696 23.7636 11.0968 23.6121 11.1453C23.5934 11.1517 23.6518 11.3239 23.6328 11.3352C23.5522 11.3824 23.4488 11.2732 23.3698 11.3431C23.3089 11.3979 23.2737 11.6016 23.2112 11.6647C23.0841 11.2987 23.0041 11.4501 22.9181 11.433C22.888 11.4272 22.8677 11.3264 22.841 11.298C22.7406 11.1931 22.8482 11.5176 22.8395 11.5743C22.8018 11.8164 22.629 11.0664 22.5308 11.1075C22.5256 11.1094 22.5475 11.5246 22.5438 11.5516C22.5217 11.727 22.5036 11.4142 22.4608 11.3926C22.3826 11.3531 22.3156 11.2675 22.2637 11.402C22.2487 11.4417 22.2492 11.7034 22.1627 11.5199C22.1514 11.4959 22.1255 11.3628 22.1191 11.356C22.0685 11.3064 22.0586 11.3627 22.0615 11.4536C22.065 11.5655 22.0879 11.7298 22.0784 11.8134C22.0612 11.9649 21.9236 11.6941 21.8902 11.6146C21.8035 11.4092 21.9005 11.5164 21.898 11.4949C21.8682 11.2393 21.8233 11.2943 21.7772 11.2823C21.6814 10.8756 21.6288 10.9128 21.7297 11.2715C21.7409 11.3106 21.7648 11.2655 21.7772 11.2823C21.8289 11.6906 21.7764 11.7559 21.6236 11.3973C21.5521 11.2292 21.5383 11.0179 21.4546 11.1148C21.4166 11.1585 21.4959 11.4356 21.4727 11.521C21.4195 11.7159 21.2428 11.48 21.1574 11.5421C21.1264 11.5646 21.1936 11.7111 21.1736 11.7318C21.1206 11.7872 21.0404 11.6839 20.9909 11.7567C20.9865 11.7635 21.0357 11.9214 21.0168 11.9278C20.8737 11.9789 20.7228 11.904 20.5684 11.9349C20.4939 11.9499 20.3806 12.0679 20.2997 12.067C20.1598 12.0664 19.9442 11.8684 19.8428 11.9503C19.7765 12.0031 19.8283 12.1605 19.8206 12.2772C19.8059 12.5033 19.6134 12.1464 19.5857 12.0906C19.5849 12.0888 19.6404 12.0367 19.5882 11.9616C19.5304 11.7937 19.5863 12.0897 19.5857 12.0906C19.5677 12.0546 19.432 12.0462 19.4134 12.0825C19.4033 12.1024 19.4446 12.2532 19.4387 12.2607C19.2979 12.4348 19.1354 12.5112 18.9465 12.478C18.9428 12.4756 18.9098 12.3039 18.9015 12.3004C18.7845 12.2466 18.7663 12.4694 18.7108 12.6116C18.6554 12.7536 18.5807 12.7266 18.4673 12.4444C18.413 12.495 18.295 12.3852 18.2262 12.318C18.1574 12.2507 18.2233 12.5844 18.2202 12.592C18.1505 12.7689 18.0654 12.7236 17.9647 12.6878C17.928 12.6748 17.8892 12.6631 17.8484 12.6638C17.7754 12.6645 17.6477 12.7431 17.5802 12.7961C17.527 12.8384 17.4739 12.7685 17.4299 12.8304C17.4239 12.8387 17.4639 12.9849 17.4629 12.9911C17.4405 13.1815 17.3904 12.8135 17.3636 12.7517C17.266 12.527 17.2101 12.4082 17.1558 12.5359C17.1433 12.5652 17.205 13.0974 17.1787 13.1351C17.1442 13.1832 17.1194 12.993 17.0843 13.0481C17.0813 13.0527 17.1074 13.1676 17.0786 13.1686C16.9449 13.1749 16.7897 13.1389 16.6583 13.1799C16.6403 13.185 16.7039 13.3624 16.6785 13.3729C16.5592 13.4218 16.4218 13.445 16.2822 13.3861C16.2478 13.371 16.2383 13.2391 16.2235 13.2025C16.1333 12.9816 16.1505 13.3276 16.1427 13.336C15.9568 13.5451 15.721 13.2803 15.5272 13.4737C15.5168 13.4848 15.5011 13.8634 15.3914 13.5658C15.3841 13.546 15.2733 13.2413 15.2837 13.464C15.2843 13.478 15.3458 13.6338 15.2969 13.6274C15.2479 13.6209 15.1987 13.7449 15.0973 13.581C15.0653 13.5294 14.9498 13.2265 14.9458 13.4891C14.9458 13.5074 14.9791 14.0918 14.861 13.7095C14.8417 13.6465 14.7565 13.2332 14.7328 13.46C14.7283 13.5039 14.7729 13.5905 14.7502 13.6556C14.7155 13.756 14.6194 13.6614 14.5932 13.8597C14.5888 13.8947 14.6009 14.1853 14.5145 13.9817C14.501 13.9498 14.4825 13.8097 14.4582 13.7989C14.3423 13.7469 14.2583 13.8619 14.1362 13.789C14.0931 13.7634 14.0624 13.537 14.012 13.4856C13.9616 13.4342 13.8737 13.3934 13.857 13.5037C13.8403 13.6139 13.961 13.959 13.9087 14.0003C13.902 14.0055 13.8952 14.0105 13.8884 14.0153C13.6637 14.1706 13.3757 14.0277 13.1226 14.0525C13.0839 14.0562 13.143 14.1762 13.088 14.1908C12.8853 14.2453 12.5579 14.442 12.3209 14.2116C12.1311 14.027 12.2741 13.8233 12.146 13.7594C12.0842 13.729 12.1181 14.1536 12.1083 14.1694C12.0135 14.3284 11.8873 14.1648 11.7881 14.2453C11.7677 14.262 11.827 14.424 11.8092 14.4364C11.7487 14.4801 11.662 14.421 11.601 14.4487C11.5738 14.4615 11.6071 14.5879 11.5786 14.5839C11.5106 14.5757 11.4429 14.5343 11.3551 14.4283C11.3471 14.4186 11.35 14.2516 11.302 14.256C11.2244 14.2635 11.1046 14.1662 11.0444 14.3072C11.0266 14.3495 11.0898 14.6413 10.99 14.4521C10.9691 14.4126 10.9069 14.0593 10.9088 14.376C10.909 14.4286 10.8902 14.8606 10.7791 14.6093C10.7498 14.5431 10.6509 14.2645 10.6298 14.3164C10.6271 14.3245 10.6785 14.4774 10.6561 14.4983C10.5767 14.5694 10.478 14.5736 10.3957 14.6431C10.3738 14.662 10.4465 14.8159 10.4127 14.8389C10.3198 14.9022 10.1834 14.889 10.0726 14.8602C10.0317 14.8493 10.0276 14.7094 10.0217 14.6954C9.9264 14.4672 9.97155 14.7936 9.96139 14.8154C9.89728 14.9469 9.79655 14.8111 9.72352 14.869C9.70327 14.8846 9.75293 15.034 9.75143 15.0486C9.75093 15.0528 9.75041 15.0566 9.74989 15.0601C9.73262 15.1758 9.70738 14.9091 9.67227 14.886C9.57077 14.8185 9.48135 14.851 9.40207 14.889C9.373 14.9031 9.44651 15.0729 9.41997 15.0835C9.26363 15.1499 9.09038 15.1703 8.90974 15.1075C8.87566 15.0954 8.86447 14.9547 8.85136 14.9249C8.76032 14.7162 8.76271 15.0276 8.75443 15.0592C8.71691 15.2032 8.66471 15.088 8.61139 15.1234C8.35135 15.2983 7.9822 15.2956 7.70257 15.3054C7.33836 15.3188 7.03801 15.2487 6.71146 15.3559C6.69067 15.3626 6.75203 15.5395 6.73462 15.5475C6.50801 15.6433 6.25982 15.6235 6.03465 15.728C6.01611 15.7363 6.08199 15.9023 6.05349 15.9214C5.9953 15.9616 5.91224 15.9701 5.83548 15.9293C5.79811 15.9098 5.80791 15.7527 5.77096 15.7361C5.68486 15.6969 5.60293 15.7021 5.53307 15.7464C5.53292 15.7465 5.53276 15.7466 5.53261 15.7467C5.50436 15.7674 5.5907 15.9311 5.54938 15.9423C5.26715 16.0227 4.99287 16.1148 4.6536 15.9504C4.63034 15.9391 4.5342 15.585 4.50717 15.6629C4.52585 15.7629 4.55173 15.8797 4.5737 15.9862C4.16984 16.135 3.73034 16.1016 3.3085 16.1743C3.29072 16.1774 3.36288 16.3604 3.32867 16.3673C3.13076 16.408 2.95072 16.5026 2.70744 16.3585C2.68336 16.3445 2.62023 16.0086 2.57232 16.072C2.56394 16.0835 2.48485 16.1476 2.47781 16.2251C2.47709 16.2367 2.52757 16.3888 2.49993 16.3997C2.3387 16.4599 2.15647 16.4628 1.9694 16.4042C1.93914 16.3944 1.93121 16.2223 1.90934 16.2139C1.7545 16.1557 1.63489 16.3141 1.47231 16.1921C1.36336 16.1097 1.33237 15.816 1.22424 15.5439C1.20897 15.5056 1.15393 15.5111 1.11503 15.3475C1.01708 14.9362 0.943617 14.4784 0.836141 14.0407C0.813035 13.9464 0.763636 14.0643 0.75579 13.8259C0.755389 13.8099 0.790763 13.7224 0.7865 13.6419C0.783615 13.5862 0.730782 13.4228 0.733881 13.35C0.736992 13.2773 0.787813 13.4129 0.800256 13.3254C0.812466 13.237 0.757396 13.0499 0.812773 13.0142ZM17.917 12.0178C17.8342 11.8688 17.9557 12.4545 17.9765 12.3034C17.9774 12.2954 17.9212 12.0251 17.917 12.0178ZM23.6675 10.6559C23.5484 10.412 23.5891 10.8002 23.6769 10.9896C23.7646 11.1787 23.7037 10.7299 23.6675 10.6559ZM24.2727 10.3255C24.1551 10.1384 24.3259 10.9694 24.3671 10.7847C24.3696 10.7743 24.2795 10.3364 24.2727 10.3255ZM1.42009 15.4166C1.41773 15.409 1.37749 15.4099 1.37826 15.4178C1.39855 15.6079 1.47897 15.6059 1.42009 15.4166ZM24.8693 9.97956C24.8218 9.87251 24.7848 10.0163 24.8437 10.1494C24.8912 10.2565 24.9283 10.1127 24.8693 9.97956ZM15.2918 11.9416C15.2891 11.9331 15.2597 11.9313 15.2711 11.9804C15.3079 12.1385 15.3365 12.0853 15.2918 11.9416ZM25.9577 9.73011C25.7897 9.73437 25.5415 9.07153 25.7339 9.11015C25.7688 9.11713 25.7134 9.34344 25.7675 9.39625C25.8662 9.49237 25.8208 9.05188 25.947 9.26551C25.9699 9.30465 25.9676 9.73139 25.9576 9.73113C25.9576 9.73079 25.9577 9.73045 25.9577 9.73011ZM17.7351 11.3221C17.7325 11.3146 17.6926 11.3157 17.6934 11.3235C17.7134 11.5136 17.7938 11.5115 17.7351 11.3221ZM13.5988 11.9354C13.593 11.9194 13.5008 11.9235 13.5013 11.9393C13.5216 12.2528 13.7083 12.2453 13.5988 11.9354ZM20.2191 10.3274C20.2198 10.1316 20.2649 10.0987 20.3498 10.3257C20.3055 10.3224 20.2633 10.3297 20.2191 10.3274ZM16.4797 1.40959C16.5318 2.26948 16.4761 3.34798 16.3996 4.2195C16.3759 4.48284 16.2698 4.34688 16.2487 4.52324C16.2075 4.86552 16.2595 5.19906 16.2104 5.56696C16.1936 5.68927 16.0257 5.53686 16.0119 5.66538C15.9377 6.29751 15.9804 6.97401 15.9447 7.636C15.9268 7.96856 15.91 8.30875 15.8943 8.65613C15.7604 11.5408 15.7019 14.4101 15.6362 17.3296C15.6338 17.4336 15.6315 17.5378 15.6291 17.6424C15.604 18.7602 15.4516 20.1086 15.5182 21.267C15.5262 21.4024 15.6736 21.3217 15.6857 21.3474C15.8717 21.7492 15.5741 21.6146 15.5346 21.8759C15.3785 22.9111 15.3649 24.0742 15.4218 25.0714C15.4464 25.4972 15.7392 25.0702 15.5749 25.499C15.5638 25.5288 15.4072 25.4207 15.3906 25.5375C15.3734 25.6589 15.3699 25.8302 15.37 25.9999C15.3702 26.2006 15.3753 26.3991 15.3686 26.5103C15.3439 26.9058 15.3455 26.9712 15.3437 27.3451C15.3399 27.8564 15.2621 28.4623 15.2975 29.0135C15.3056 29.1308 15.466 28.9756 15.4933 29.1625C15.5206 29.3498 15.507 29.844 15.4692 30.0101C15.4313 30.1764 15.3052 30.1056 15.2763 30.135C15.0323 30.3759 15.3702 30.9482 15.3786 31.0232C15.5171 32.3293 15.3389 33.4552 15.3294 34.6712C15.3291 34.7056 15.329 34.74 15.329 34.7745C15.3299 35.7351 15.3934 36.7531 15.3847 37.6638C15.3737 38.7565 15.2867 39.6627 15.3017 40.7226C15.3031 40.8325 15.4917 40.7038 15.4938 40.8379C15.5066 41.6599 15.505 42.5285 15.4764 43.3372C15.4558 43.962 15.4212 44.5429 15.3678 45.1423C15.3549 45.2912 15.1893 45.0995 15.1664 45.248C15.0303 46.1269 14.7033 47.5527 15.4245 48.0346C15.3963 48.6953 15.3672 49.3145 15.2219 49.9122C15.1283 50.2491 14.9478 49.9281 15.0248 50.3289C15.042 50.4173 15.2 50.3016 15.2138 50.4353C15.2624 50.984 15.2339 51.5211 15.272 52C15.2793 52.1262 15.2816 52.2509 15.2777 52.3767C15.2704 52.5374 15.4162 52.5148 15.433 52.5663C15.6147 53.0738 14.6791 53.7714 14.5317 53.7688C13.3852 54.336 12.7764 54.2881 11.9244 54.2805C11.7324 54.2647 11.9466 54.4726 11.7574 54.4626C11.1193 54.4221 10.4957 54.2851 9.91872 54.0899C9.60494 53.9836 9.32159 53.8661 9.0323 53.7273C8.84939 53.6379 9.08093 53.5522 8.99709 53.5017C8.64599 53.2844 8.44447 53.5315 8.10001 53.3056C8.02782 53.2579 8.12938 53.1517 8.12154 53.1314C8.00915 52.8172 7.68121 53.0327 7.62067 53.0109C6.87101 52.7461 6.62164 52.1902 5.98041 51.8261C5.90277 51.7814 5.97246 52.0404 5.75927 51.9046C5.52932 51.7568 5.30216 51.5989 5.07992 51.4315C3.93305 50.5702 2.8941 49.4235 2.28121 48.12C2.17028 47.8798 2.37805 47.9799 2.38362 47.9568C2.47869 47.6071 2.10245 47.6074 2.05198 47.5319C1.93936 47.3591 1.8664 47.1714 1.8091 46.9872C1.67144 46.5465 1.62815 46.1493 1.28948 45.8674C1.06819 44.3169 1.42832 42.718 2.19526 41.4383C2.90992 40.2229 3.93449 39.2347 5.06072 38.5371C5.09035 38.5183 5.14842 38.6873 5.2068 38.6495C5.93014 38.1944 5.64345 38.0952 5.89733 37.5154C5.91041 37.4869 5.94263 37.4667 5.98641 37.4526C6.16721 37.3937 6.5432 37.4457 6.58071 37.4482C6.75229 37.4586 6.76855 37.7474 6.81792 37.7387C7.21127 37.6687 6.74484 36.9865 7.17259 36.7192C7.18629 36.7123 7.20812 36.8772 7.2507 36.8686C7.38279 36.8427 7.46196 36.724 7.59681 36.7043C7.90881 36.6599 8.18171 36.9626 8.47142 36.5322C8.50995 36.4768 8.21255 36.104 8.64132 35.8961C8.81095 35.8122 9.48071 35.4565 9.70171 35.3837C9.91427 35.3125 9.83886 35.5178 9.85589 35.5167C10.4797 35.4342 10.3083 35.6103 10.702 35.7494C11.0972 35.8887 10.7427 35.2808 10.8277 35.1551C10.8322 35.1486 10.8378 35.1422 10.8443 35.1362C10.9462 35.0418 11.3731 35.0312 11.4961 35.0388C11.6197 35.0498 11.534 35.1886 11.6326 35.183C12.2817 35.1428 11.7454 34.7595 11.892 34.578C12.2416 34.1458 12.7959 34.4746 13.2235 34.3473C13.3385 34.3131 13.2023 34.2426 13.296 34.1905C13.6768 33.9815 13.9703 34.032 14.3583 33.7037C14.4245 33.6489 14.663 33.2066 14.9823 33.3195C15.0284 33.3358 14.9854 33.495 15.1638 33.4503C15.4355 33.3815 15.8927 33.2174 16.1437 33.064C16.1849 33.0388 16.2019 33.0143 16.2062 32.9909C16.2216 32.9085 16.0794 32.8404 16.2962 32.8048C16.4203 32.7845 16.2602 32.9877 16.4895 32.9399C16.7164 32.8928 17.2369 32.6682 17.4431 32.5778C17.6461 32.4883 17.4718 32.3856 17.4841 32.3686C17.5615 32.2685 17.913 32.0382 17.949 32.0237C19.1593 31.5086 20.3642 31.1662 21.5525 30.7623C22.0654 30.5878 22.5602 30.4078 23.0679 30.1931C23.2008 30.1371 23.0521 30.0097 23.0718 29.9995C23.5082 29.7645 23.3001 30.3232 23.6727 30.3499C23.5087 30.0408 23.7194 30.0309 24.0328 29.8793C24.1839 29.8061 24.0536 29.7099 24.0633 29.6919C24.2299 29.4168 24.4797 29.6087 24.5389 29.645C24.7581 29.7785 24.8498 29.4993 24.9982 29.5885C25.1458 29.6769 24.9673 29.9437 25.2792 29.8346C25.3273 29.6873 24.9896 29.4597 25.2115 29.3288C25.6438 29.0739 26.3241 28.8683 26.9854 28.7093C27.6072 28.5591 28.2089 28.4512 28.5701 28.3615C29.3097 28.1788 29.5462 28.0939 29.9874 28.0246C30.7825 27.9055 30.4422 27.7442 30.9042 27.5185C31.3698 27.2956 31.2647 27.9287 31.3638 28.036C31.4605 28.1441 31.5056 27.9995 31.6057 28.0485C31.7052 28.0977 31.5424 28.223 31.7456 28.2042C31.9498 28.1842 32.4505 27.8474 32.4954 27.7035C32.5729 27.4529 32.3819 27.2467 32.6134 27.1769C32.6651 27.1614 32.7378 27.1529 32.8392 27.1527C32.8715 27.1528 32.7998 27.325 32.9221 27.3176C33.8869 27.2553 34.8673 27.1129 35.8289 27.1235C35.9604 27.1255 35.8612 27.3091 35.9374 27.3123C36.7216 27.3541 36.4253 27.0882 36.8424 26.7349C36.7707 27.1731 37.0265 27.4151 37.6123 27.401C37.9713 27.3953 37.9062 27.2088 38.1394 27.0752C38.1955 27.0431 38.3675 27.1204 38.4574 27.1093C38.4804 27.1064 38.4982 27.0978 38.5078 27.0801C38.6668 26.7958 38.4317 26.4589 39.068 26.6154C39.0954 26.623 38.9988 26.7767 39.0941 26.7914C39.6963 26.8936 39.8096 26.5965 40.4898 26.6504C41.0333 26.6923 41.9346 27.0783 42.5051 27.3155C42.3315 27.7657 42.8828 27.8453 43.2418 27.6446C43.5658 27.8004 43.9201 27.9693 44.1973 28.1787C44.1973 28.1787 44.1972 28.1787 44.1973 28.1787C44.2243 28.1989 44.2507 28.2195 44.2763 28.2405C44.3777 28.3237 44.2307 28.3966 44.2366 28.4183C44.3161 28.7526 44.6274 28.5781 44.7046 28.6185C45.5214 29.0727 45.8861 29.8028 46.5912 30.3568C46.6152 30.3762 46.9239 30.2236 46.8575 30.5636C46.8508 30.5845 46.5627 30.4303 46.7826 30.7803C47.0076 31.1357 47.2139 31.888 47.5679 32.3525C47.5937 32.3856 47.6452 32.4279 47.7024 32.481C47.839 32.6067 48.008 32.8008 47.9279 33.0393C47.9122 33.0841 47.8077 33.0759 47.7733 33.1432C47.6621 33.3561 48.0162 33.3482 47.7932 33.6226C47.5696 33.8995 47.4604 34.322 47.7495 34.8245C47.7579 34.8397 48.0471 34.9265 48.0678 35.1011C48.1019 35.3784 48.0877 35.7856 48.1066 36.0736C48.1161 36.2128 48.278 36.1139 48.2825 36.1379C48.3849 36.8029 48.3217 37.3376 48.2177 37.9375C48.172 38.1952 48.1168 38.4676 48.056 38.7675C48.0219 38.9442 48.1602 39.5189 47.9044 39.8352C47.6223 40.1733 46.9221 39.6082 46.8946 40.4832C46.8817 40.8182 47.7348 41.603 46.988 42.026C46.8859 42.3944 46.7399 42.7327 46.5696 43.0588C46.1725 43.8167 45.6676 44.4737 45.2533 45.2605C45.2274 45.3102 45.3511 45.6308 45.2627 45.7369C45.1323 45.8927 44.9555 45.8932 44.8578 45.9965C44.4448 46.4255 44.1487 46.9052 43.7108 47.288C43.5815 47.4003 43.5292 47.3315 43.4198 47.3733C43.3876 47.3855 43.3513 47.4064 43.3063 47.4433C43.1076 47.6054 43.0924 47.8616 42.7556 48.0111C42.4975 48.1244 42.0681 47.9705 41.7612 48.1251C41.9611 48.4402 41.7542 48.576 41.4409 48.8815C41.3798 48.9406 41.5231 49.0062 41.4975 49.04C41.3931 49.1809 41.2093 49.1625 41.1102 49.3011C41.0858 49.3347 41.146 49.4473 41.129 49.4812C40.9799 49.78 40.4664 49.7143 40.3786 49.6995C40.0434 49.649 39.9925 49.8529 39.7612 49.8711C39.536 49.8851 39.7906 49.6764 39.5469 49.7295C39.3012 49.7821 39.031 49.8665 38.7564 49.9541C38.4635 50.0478 38.189 50.1375 37.93 50.208C37.7299 50.2625 37.9116 50.3885 37.8841 50.4001C37.4663 50.5615 37.016 50.475 36.8452 50.8554C36.3841 50.0497 36.5995 50.996 35.953 50.9184C35.9021 50.9113 35.7858 50.5091 35.9548 50.4225C36.1173 50.3369 36.4262 50.4168 36.6554 50.2743C36.7133 50.2414 36.9614 49.7908 36.9967 49.7575C37.2903 49.5005 37.5002 50.0835 37.5268 50.1127C37.8401 50.4135 38.1354 49.8901 38.2246 49.8301C38.3625 49.7423 38.5012 49.6753 38.6384 49.6162C38.9275 49.4914 39.2015 49.4058 39.4335 49.2381C39.6627 49.0736 39.5193 48.6916 39.7111 48.6167C40.328 48.3664 40.8467 48.7271 41.1454 47.9676C41.2066 47.8029 40.8525 47.5093 41.4522 47.5275C41.4884 47.5307 41.9776 47.5781 42.0263 47.2851C42.0323 47.2485 41.9532 47.1461 41.9744 47.1162C42.1164 46.9179 42.3022 46.9007 42.4638 46.6988C42.5168 46.632 42.5707 46.56 42.6289 46.486C42.7473 46.3358 42.8768 46.183 43.0347 46.0693C43.1762 45.9681 43.5042 45.9756 43.6074 45.9517C43.8999 45.8902 43.8627 45.5104 44.1146 45.5318C44.3721 45.5472 44.4144 45.9871 44.7832 45.7531C44.5331 45.5279 44.2874 45.283 44.039 45.0523C44.5794 44.4036 45.1348 43.7564 45.5236 42.9847C45.5707 42.8896 45.3606 42.902 45.4061 42.7989C45.444 42.7127 45.4856 42.6307 45.5288 42.5512C45.7039 42.2284 45.9125 41.9409 46.0191 41.5528C46.1203 41.1804 46.0731 40.7214 46.1333 40.3339C46.5723 40.2085 46.5937 39.59 46.7018 39.1747C46.7407 39.0277 46.84 39.0552 46.891 38.9533C47.0767 38.5662 46.71 38.7071 46.6732 38.5904C46.5443 38.2035 46.9822 38.1495 47.1945 37.8596C47.2531 37.7789 47.2932 37.6822 47.2957 37.5543C47.2983 37.5199 46.9012 37.1365 46.8746 37.0905C46.7107 36.7748 47.0186 37.0395 47.049 36.8405C47.1008 36.4741 47.1886 36.2089 47.0302 35.7914C46.9832 35.6664 46.6969 35.4075 46.8553 35.1459C46.8761 35.1109 47.0127 35.1071 47.0165 35.0804C47.0683 34.593 46.642 34.6632 46.4475 34.45C46.2529 34.2384 46.4275 33.7881 46.4815 33.6825C46.6262 33.4131 46.6204 33.8106 46.6425 33.8161C46.9267 33.8774 46.8033 33.6018 46.749 33.3777C47.1359 33.2123 46.9969 32.9025 46.6891 33.1451C46.6559 33.1712 46.7527 33.327 46.749 33.3777C46.4856 33.3418 46.3218 33.2307 46.2695 33.049C46.2317 32.9177 46.2517 32.7485 46.3304 32.5344C46.4147 32.2966 46.6863 32.3562 46.3591 31.8906C46.2053 31.6825 46.0024 31.9089 45.8261 31.7629C45.4335 31.4447 45.2657 30.774 44.8982 30.4518C44.7671 30.3367 44.7724 30.5697 44.6805 30.4974C44.44 30.3126 44.3119 30.037 44.0141 29.8805C43.9876 29.8672 43.9481 30.045 43.8678 29.9856C43.6902 29.8564 43.5113 29.7267 43.3242 29.6002C42.8718 29.2966 42.4408 29.0455 41.9205 28.8681C41.5796 28.7458 40.8802 28.667 40.4652 28.5851C39.8487 28.4501 39.0705 28.1974 38.4374 28.1856C38.3581 28.1837 38.2812 28.1856 38.2077 28.1919C37.786 28.2292 37.8796 28.3955 37.7015 28.5105C37.3651 28.7327 36.7378 28.3799 36.6415 28.328C36.639 28.3254 37.0049 28.2632 36.8029 28.1913C36.6761 28.0228 36.6452 28.327 36.6415 28.328C36.5785 28.2904 35.8524 28.3169 35.7049 28.368C35.627 28.3939 35.6889 28.5443 35.6481 28.5549C34.7768 28.7808 33.9011 28.9671 32.9933 29.0976C32.9038 29.1105 32.8137 29.1228 32.7232 29.1346C32.7052 29.1351 32.6963 28.9586 32.6542 28.9619C32.0604 29.0057 31.7414 29.2981 31.3012 29.5337C30.8565 29.7712 30.484 29.824 30.1267 29.6081C29.7795 29.7385 29.2384 29.7511 28.9223 29.7587C28.6064 29.7659 28.661 30.1049 28.6373 30.1187C28.2392 30.3565 27.9084 30.4546 27.5545 30.5313C27.2513 30.5972 26.9333 30.647 26.5479 30.7584C26.1515 30.8714 25.3883 31.1821 24.9801 31.3655C24.6554 31.5111 24.4272 31.5078 24.1377 31.6662C24.0986 31.6876 24.1919 31.8149 24.1812 31.8249C23.9019 32.1187 23.9395 31.7115 23.8464 31.6749C23.5082 31.5423 23.3016 31.4813 22.9028 31.7507C22.8094 31.8132 22.7076 32.4209 22.5327 32.5209C22.3619 32.6179 22.3334 32.5193 22.2278 32.5262C22.1941 32.5284 22.1525 32.5414 22.096 32.5751C22.076 32.5869 22.1226 32.6952 21.9672 32.7495C21.2431 33.0046 20.4474 33.2467 19.7063 33.5605C19.6063 33.6024 19.8053 33.7233 19.6622 33.7866C18.9829 34.0869 18.2361 34.3897 17.5355 34.5898C17.3653 34.6375 17.4157 34.4742 17.3656 34.4532C17.1629 34.3688 17.0077 34.5417 16.9187 34.6725C16.8732 34.7386 16.8426 34.7947 16.8263 34.804C15.6654 35.4749 14.6284 35.5881 13.4172 36.2638C13.3476 36.3029 12.9832 36.8551 12.6145 36.668C12.5858 36.6573 12.2456 36.451 12.1172 36.7411C12.1099 36.7589 12.3229 36.8506 12.0577 36.9409C11.9473 36.9783 11.8214 37.0459 11.6876 37.1067C11.4899 37.2082 11.2701 37.3042 11.0343 37.3013C10.9064 37.2996 10.5234 37.1289 10.3314 37.5136C10.3141 37.5413 10.1173 38.2947 9.79226 38.0184C9.73725 37.9741 9.57399 37.5801 9.30599 37.9753C9.25664 38.0509 9.42277 38.0657 9.27086 38.2183C9.04087 38.4515 8.64188 38.5546 8.44111 38.9009C8.41114 38.9584 8.32859 39.348 8.02967 39.2849C7.98277 39.2751 7.96223 39.1198 7.85654 39.1707C7.68573 39.253 7.52782 39.3534 7.37708 39.4588C7.09222 39.658 6.81027 39.8917 6.47637 40.0788C6.30309 40.1759 6.23561 39.9363 6.03949 40.0204C5.83893 40.108 5.518 40.3147 5.41658 40.5577C5.33461 40.7823 5.75042 40.8821 5.55315 41.1189C5.13448 41.6347 4.67022 42.1607 4.32275 42.6712C4.02434 43.102 3.77251 43.5834 3.66574 44.0689C3.63407 44.2223 3.78081 44.1193 3.75237 44.3377C3.68959 44.83 3.78672 45.5069 4.01669 46.1539C4.16587 46.5952 4.35975 47.0224 4.46357 47.3763C4.69017 48.08 4.03047 47.4463 4.28251 47.9493C4.41473 48.2001 4.93566 48.1592 4.98435 48.1939C5.49918 48.5729 5.69718 49.0129 6.19219 49.3509C6.29389 49.4186 6.30982 49.211 6.39452 49.2691C6.47009 49.3202 6.54289 49.3769 6.61459 49.4361C6.81775 49.6039 7.01417 49.7926 7.22846 49.9243C7.35886 50.0034 7.40728 49.8788 7.51801 49.9626C7.78498 50.1611 8.0129 50.3599 8.24085 50.6243C8.2624 50.6487 8.00513 50.6934 8.22353 50.8193C8.58343 51.0247 8.9905 51.3551 9.47845 51.4192C9.62348 51.4369 9.72738 51.1595 9.93453 51.457C9.9767 51.5173 9.78486 51.8326 10.2115 51.6514C10.2514 51.6359 10.4479 51.5649 10.6605 51.5474C10.8479 51.5318 11.0294 51.5521 11.1183 51.7027C11.1607 51.7858 11.2925 52.1154 11.4545 52.0966C11.4759 52.0929 11.4232 51.9211 11.549 51.9269C11.9848 51.9494 12.4343 51.9873 12.714 51.893C12.785 51.8678 12.6576 51.7209 12.75 51.6893C13.1925 51.3639 12.339 52.125 12.666 52.1221C12.7095 52.0553 12.8306 52.1104 12.8474 52.1091C12.927 52.082 12.9528 52.0402 12.9478 52C12.9358 51.8824 12.7683 51.7911 12.7548 51.7321C12.6402 51.1435 12.7944 50.813 12.7536 50.2823C12.7427 50.1542 12.5862 50.2451 12.5722 50.2196C12.4358 49.9501 12.717 50.1519 12.748 49.9784C12.8358 49.4502 12.8232 48.9366 12.8032 48.4165C12.7956 48.2249 12.614 48.4408 12.6093 48.268C12.578 47.3061 12.5954 46.2617 12.6955 45.3065C12.7147 45.1206 12.8545 45.2375 12.8864 45.1988C13.1098 44.9187 12.8051 44.5702 12.7761 44.4776C12.6435 44.0851 12.7672 43.9292 12.7441 43.5713C12.739 43.4944 12.7344 43.4164 12.7301 43.3372C12.6363 41.6829 12.7133 39.6538 12.7617 38.1214C12.8004 36.8503 12.8633 35.7788 12.9005 34.6712C12.9258 33.9334 12.9392 33.1631 12.9252 32.3584C12.9232 32.2311 12.7372 32.3595 12.7331 32.2497C12.6883 30.8226 12.7609 29.428 12.7072 27.9978C12.7031 27.8809 12.5268 28.0494 12.5143 27.8618C12.4875 27.477 12.4971 26.989 12.5534 26.5993C12.5805 26.4093 12.7318 26.6642 12.756 26.4729C12.7757 26.3184 12.7901 26.16 12.7993 25.9999C12.8166 25.6983 12.8155 25.3908 12.7971 25.0921C12.7846 24.8974 12.6043 25.1911 12.6022 24.9381C12.5843 23.2133 12.5533 21.5272 12.7868 19.7801C12.8028 19.6613 13.1693 19.557 13.0991 19.3054C12.9973 19.2865 12.8777 19.2875 12.769 19.2792C12.7538 18.6234 12.7511 17.9709 12.7558 17.3296C12.7691 15.4694 12.8426 13.6325 12.8571 11.7623C12.8579 11.6565 12.6637 11.8393 12.6642 11.6347C12.6667 10.6635 12.629 9.64736 12.7317 8.65613C12.7511 8.46072 12.7756 8.26652 12.8063 8.07334C12.8252 7.95369 13.1668 8.01326 13.1152 7.66409C13.1057 7.60484 13.0602 7.07965 12.986 6.92729C12.9748 6.90807 12.8154 7.00804 12.8107 6.83139C12.7865 5.84505 12.8229 4.77176 12.9203 3.77179C12.9364 3.60855 13.1062 3.78211 13.1191 3.66625C13.2092 2.87596 13.0801 1.97733 13.2343 1.19887C13.3381 0.643729 13.6317 0.844659 13.9206 0.587319C13.9614 0.591178 13.9678 0.174625 14.1359 0.199603C14.5586 0.161282 15.0215 0.300001 15.4721 0.242607C15.5691 0.246187 15.4646 -0.158485 15.6991 0.0499497C15.7148 0.134046 15.7927 0.34015 15.8722 0.481544C15.9272 0.544874 16.0982 0.442017 16.1686 0.54972C16.239 0.642542 16.0957 0.749989 16.1784 0.945784C16.2621 1.14486 16.4566 1.07589 16.4797 1.40959ZM27.4988 29.8085C27.4214 29.7911 27.3707 29.8122 27.3419 29.8508C27.2756 29.94 27.3266 30.1225 27.4334 30.1437C27.4717 30.1513 27.5172 30.1382 27.5673 30.0927C27.5792 30.081 27.5152 29.8118 27.4988 29.8085ZM45.4942 43.9802C45.9098 43.8052 45.6901 43.3965 45.39 43.5138C45.092 43.6232 45.3697 44.0291 45.4942 43.9802ZM43.2685 46.9813C43.7268 46.8392 43.179 46.188 42.9789 46.6109C42.967 46.6351 43.2421 46.989 43.2685 46.9813ZM14.0029 1.87519C14.0108 1.86869 14.0185 1.62235 14.0107 1.61887C13.8207 1.48741 13.8053 1.97803 14.0029 1.87519ZM40.2782 49.2631C40.4518 49.3078 40.7316 49.0116 40.5185 48.9619C40.3513 48.9217 40.0675 49.2072 40.2782 49.2631ZM13.3492 34.6112C13.3413 34.6049 13.1884 34.6615 13.2115 34.7064C13.2847 34.8516 13.4762 34.7199 13.3492 34.6112ZM34.0333 50.7722C34.9691 50.7627 35.6571 51.3851 34.5691 51.3994C34.3774 51.3985 34.966 51.1475 34.7181 51.1018C34.2736 51.0178 33.9887 51.4703 33.5107 51.2403C33.4293 51.1995 33.9835 50.7732 34.035 50.7711C34.0344 50.7715 34.0339 50.7718 34.0333 50.7722ZM27.1281 29.1713C27.1203 29.1654 26.8978 29.2274 26.8949 29.2367C26.8453 29.4126 27.1249 29.3659 27.1569 29.2584C27.1645 29.233 27.1582 29.2041 27.1305 29.1739C27.1297 29.173 27.1289 29.1722 27.1281 29.1713ZM4.69626 39.0634C4.68625 39.0457 4.25648 39.4214 4.25688 39.4473C4.26433 39.8623 5.09409 39.1362 4.69626 39.0634ZM42.5097 27.3308C42.8305 27.2371 43.1569 27.3432 43.2408 27.6439C43.0089 27.5275 42.7595 27.4284 42.5097 27.3308ZM40.7401 1.95109C40.8343 1.95314 40.8869 2.05764 40.9074 2.16508C40.914 2.19854 40.8433 2.27849 40.8451 2.30551C40.8487 2.35824 40.9037 2.33316 40.9025 2.39215C40.9018 2.41212 40.7949 2.54227 40.7963 2.56006C40.8051 2.65654 40.8778 2.65507 40.9092 2.7204C41.0637 3.04241 41.2785 3.26858 41.493 3.511C41.5638 3.59081 41.5802 3.78791 41.7062 3.79437C41.721 3.795 41.7991 3.66974 41.808 3.66113C41.9448 3.52976 41.7647 3.76696 41.7621 3.81332C41.7523 3.99669 41.8329 4.06924 41.9417 4.07569C41.9424 4.07572 41.9431 4.0757 41.9438 4.07563C41.9921 4.07069 42.122 3.8173 42.0618 3.97273C42.0577 3.98343 41.9601 4.10618 41.9595 4.12609C41.9582 4.17097 42.0126 4.17468 42.0211 4.19576C42.0372 4.23704 42.0431 4.23922 42.0707 4.26055C42.1075 4.29082 42.1095 4.387 42.1717 4.38702C42.1852 4.38664 42.265 4.24669 42.2948 4.23419C42.3247 4.22174 42.3547 4.25917 42.3458 4.29907C42.3369 4.339 42.2595 4.43876 42.2452 4.46405C42.1244 4.67724 42.3611 4.43021 42.3714 4.42726C42.5552 4.38163 42.5331 4.60078 42.6296 4.66723C42.7031 4.71733 42.8174 4.71947 42.8819 4.77494C42.9584 4.84155 42.9789 4.96172 43.0678 5.00538C43.0771 5.01014 43.1749 4.84835 43.1865 4.85385C43.3091 4.91241 43.4067 5.00536 43.4436 5.18617C43.4472 5.20444 43.3384 5.33056 43.3364 5.35695C43.3259 5.51548 43.2455 5.85795 43.6973 5.2937C43.7268 5.34851 43.7655 5.41086 43.7232 5.55855C43.7 5.63992 43.6025 5.74712 43.6226 5.75084C43.626 5.75147 43.6327 5.74915 43.6437 5.74327C43.6608 5.73425 43.7416 5.59794 43.7604 5.59422C43.8394 5.5787 43.8603 5.65581 43.9524 5.62041C43.9713 5.61291 44.0496 5.49491 44.0668 5.4758C44.2068 5.3216 44.0485 5.62733 44.0423 5.65326C43.9976 5.84744 44.0836 5.81861 44.1377 5.86176C44.1502 5.87184 44.2433 5.70488 44.2592 5.70897C44.3405 5.73227 44.3991 5.79301 44.4152 5.90702C44.4186 5.93275 44.3129 6.05661 44.3097 6.07571C44.297 6.15832 44.4784 5.91176 44.4696 5.98615C44.4679 6.00151 44.3853 6.11298 44.3777 6.12626C44.2585 6.33465 44.4671 6.06703 44.4759 6.064C44.5908 6.01946 44.425 6.33499 44.5083 6.33191C44.5185 6.33125 44.6039 6.17692 44.6264 6.18387C44.7765 6.22931 44.8786 6.35901 44.9196 6.55858C44.9262 6.58942 44.8374 6.68828 44.8293 6.70245C44.7036 6.92436 44.9105 6.65375 44.9239 6.64751C45.0251 6.60553 44.9074 6.87127 45.1718 6.56151C45.2722 6.76879 45.5073 6.78102 45.5944 7.00494C45.6158 7.06008 45.6283 7.12806 45.6276 7.21494C45.6278 7.2202 45.5275 7.35453 45.5282 7.36442C45.5367 7.48493 45.6735 7.26283 45.8965 7.02999C45.9526 6.97155 45.7645 7.30917 45.7512 7.33425C45.7021 7.4266 45.5492 7.62391 45.5411 7.64279C45.479 7.79207 45.9453 7.11208 45.9834 7.13831C45.9838 7.14026 45.8922 7.26136 45.8867 7.27596C45.8696 7.32175 45.9139 7.27908 45.8937 7.32871C45.8469 7.44338 45.626 7.77774 45.7931 7.60993C45.8147 7.58807 46.0752 7.19961 46.0965 7.24135C46.1048 7.25832 46.1692 7.29339 46.1687 7.32995C46.1682 7.36646 46.0706 7.48216 46.0681 7.48835C45.9994 7.68336 45.9352 7.73925 45.7893 7.99718C45.6441 8.2542 46.0381 7.67436 46.092 7.61655C46.1458 7.55893 46.0851 7.71693 46.0606 7.76952C46.036 7.82212 45.9712 7.89367 45.96 7.92526C45.8872 8.13218 46.1797 7.65426 46.2591 7.57392C46.4468 7.38356 46.1789 7.83052 46.1839 7.89607C46.1853 7.91378 46.2454 7.81134 46.2599 7.80797C46.3166 7.79589 46.2435 7.94267 46.3655 7.84633C46.3854 7.83064 46.5938 7.59488 46.4822 7.79666C46.466 7.82572 46.3843 7.92665 46.3816 7.96012C46.3774 8.01028 46.3986 8.0595 46.4456 8.03944C46.4803 8.02458 46.5834 7.83623 46.5662 7.90507C46.5585 7.93577 46.4701 8.02643 46.4616 8.07557C46.453 8.12463 46.5001 8.1507 46.5192 8.1588C46.5385 8.16679 46.6218 8.0275 46.6294 8.01949C46.6732 7.97387 46.7499 7.93206 46.7526 7.93419C46.9067 8.01731 46.8825 8.33299 47.0731 8.35556C47.088 8.35752 47.1782 8.21229 47.1815 8.21114C47.2597 8.1784 46.971 8.5306 46.9103 8.6735C47.1044 8.38642 47.084 8.44864 47.132 8.43575C47.1553 8.42931 47.225 8.31436 47.234 8.30389C47.3692 8.14968 47.232 8.37487 47.2046 8.42142C47.1039 8.59269 47.2511 8.40999 47.184 8.52457C47.1174 8.63834 46.9867 8.7847 47.0133 8.80021C47.0912 8.70331 47.2576 8.42417 47.3068 8.39438C47.3832 8.34794 47.4265 8.37187 47.4539 8.42044C47.4931 8.4899 47.5 8.60976 47.5253 8.64632C47.5682 8.70834 47.6 8.70259 47.6082 8.7629C47.623 8.87192 47.738 8.65892 47.8388 8.59493C47.9396 8.53102 47.5832 9.00393 47.5161 9.11216C47.4488 9.22027 47.5294 9.1169 47.4962 9.17892C47.4629 9.24092 47.3991 9.3019 47.3998 9.33433C47.4005 9.36674 47.5724 9.21082 47.654 9.10549C47.8266 8.88232 47.9762 8.62611 47.9583 8.74024C47.9572 8.74696 47.8606 8.86931 47.8607 8.88857C47.8648 9.0373 47.9358 9.09576 47.9477 9.23307C47.9492 9.25215 47.8414 9.38806 47.8412 9.40077C47.8382 9.53362 47.9834 9.27902 48.2016 9.03587C47.9477 9.3849 47.8153 9.61432 47.8596 9.64825C47.8862 9.66878 47.989 9.51078 48.0827 9.41414C48.1109 9.38498 48.0565 9.50475 48.1106 9.43445C48.2877 9.20473 48.4545 8.92576 48.428 9.06459C48.4265 9.07107 48.3294 9.19666 48.3311 9.20952C48.3414 9.2933 48.52 9.0484 48.5909 9.05305C48.6466 9.05667 48.6107 9.25684 48.6382 9.31255C48.3602 9.71012 48.4658 9.64825 48.6739 9.38558C48.6951 9.41696 48.7371 9.4232 48.7387 9.48062C48.7393 9.50026 48.6528 9.61115 48.6454 9.62445C48.528 9.83283 48.7265 9.57447 48.74 9.56834C48.8785 9.51367 48.7929 9.75452 48.9952 9.60163C49.0024 9.5961 49.1986 9.32207 49.0754 9.53607C49.0668 9.55077 48.9579 9.66177 48.9815 9.69266C49.0052 9.72357 48.9594 9.91175 49.0908 9.81295C49.1224 9.7892 49.3045 9.58262 49.2032 9.7725C49.1894 9.79825 49.1312 9.87548 49.1044 9.9224C49.0195 10.072 49.221 9.79735 49.0709 10.0454C48.9508 10.2441 48.8677 10.4118 48.9198 10.4018C48.9327 10.3993 48.9541 10.3858 48.9852 10.359C48.9899 10.3552 49.1542 10.1406 49.1651 10.1535C49.1825 10.1741 49.1807 10.2414 49.204 10.2555C49.2153 10.2621 49.3041 10.1198 49.3077 10.1185C49.4333 10.0914 49.3991 10.2497 49.439 10.3565C49.4461 10.3763 49.6172 10.2169 49.5414 10.3843C49.4584 10.5675 48.9576 11.2216 49.1385 11.1087C49.2111 11.0636 49.8425 10.2311 49.5836 10.7099C49.7571 10.6673 49.6887 10.9569 49.8952 10.8674C49.9044 10.8635 50.0846 10.6339 50.0926 10.6443C50.1042 10.6602 50.0348 10.7779 50.0406 10.7928C50.0628 10.8582 50.1711 10.7916 50.2048 10.8371C50.2177 10.8542 50.1314 10.9657 50.1469 10.986C50.1624 11.0062 50.2815 10.8632 50.2574 10.9555C50.2388 11.0258 50.0427 11.3511 50.0446 11.4062C50.2591 11.1 50.2733 11.1192 50.3627 11.0612C50.3799 11.0499 50.4474 10.9383 50.4595 10.9275C50.51 10.8809 50.4597 10.9773 50.513 10.9255C50.5258 10.913 50.5989 10.8083 50.6135 10.7922C50.7405 10.6515 50.6088 10.9098 50.5858 10.9547C50.4986 11.1254 50.6034 10.996 50.577 11.0688C50.5506 11.1415 50.4729 11.2013 50.466 11.2517C50.4519 11.3562 50.5144 11.3746 50.5511 11.4073C50.5662 11.4197 50.6526 11.2722 50.657 11.2707C50.7148 11.2582 50.6447 11.4303 50.8569 11.1644C50.3786 11.9009 50.9255 11.1084 50.8724 11.2855C50.868 11.2998 50.6357 11.6438 50.5866 11.6839C50.5375 11.7239 50.5899 11.6023 50.5159 11.6665C50.4984 11.6815 50.2494 11.9821 50.2323 11.9989C50.0984 12.1301 50.4485 11.618 50.4665 11.589C50.6592 11.2752 50.387 11.5963 50.3618 11.6141C50.2464 11.6954 50.2626 11.6004 50.1754 11.6551C50.1188 11.6903 49.8846 12.0223 49.8747 12.0003C49.8416 11.9272 50.1456 11.4482 49.8116 11.8145C49.7404 11.8926 49.4981 12.2651 49.6566 11.9499C49.6666 11.9301 49.8186 11.6467 49.6856 11.8003C49.6689 11.8197 49.5951 11.926 49.5859 11.9329C49.5263 11.9771 49.5722 11.8834 49.5227 11.9092C49.4733 11.9349 49.4057 11.9776 49.4065 11.9247C49.4069 11.893 49.5258 11.682 49.5526 11.6287C49.6299 11.4753 49.4495 11.6895 49.5549 11.5119C49.6607 11.3334 49.8644 11.0922 49.9084 10.9599C49.7152 11.2351 49.5153 11.5165 49.3203 11.7927C49.2561 11.7337 49.2484 11.5959 49.1688 11.5586C49.1587 11.5542 49.0645 11.7089 49.0511 11.7081C48.9948 11.7039 49.0335 11.5739 48.9628 11.5872C48.9077 11.5981 48.7633 11.7308 48.7023 11.7471C48.9016 11.417 48.7773 11.4896 48.7613 11.4357C48.7555 11.4169 48.8151 11.3331 48.8252 11.2993C48.8621 11.174 48.6838 11.4641 48.644 11.5016C48.4737 11.6613 48.9097 11.0272 48.8518 11.01C48.8489 11.0089 48.5842 11.3245 48.5654 11.3425C48.4436 11.4607 48.6425 11.2222 48.6431 11.1858C48.6443 11.1191 48.6791 11.0239 48.5747 11.0977C48.544 11.1197 48.3729 11.3122 48.4656 11.1357C48.4778 11.1126 48.5567 11.0023 48.5591 10.9943C48.5756 10.9335 48.5356 10.9701 48.477 11.0382C48.4049 11.1221 48.3047 11.2539 48.247 11.3108C48.1424 11.4138 48.2761 11.1485 48.3175 11.0741C48.4245 10.8814 48.385 11.0068 48.3983 10.9899C48.5562 10.7877 48.506 10.8065 48.4993 10.7755C48.7351 10.4306 48.6941 10.4326 48.4913 10.7447C48.4692 10.7788 48.5063 10.7572 48.4993 10.7755C48.2485 11.1003 48.1891 11.123 48.3755 10.786C48.4628 10.6281 48.5967 10.4663 48.5069 10.4971C48.4663 10.5109 48.3101 10.7527 48.2468 10.8042C48.1025 10.9218 48.201 10.6634 48.1334 10.6679C48.1088 10.6695 48.0343 10.8094 48.0144 10.815C47.9614 10.8302 48.0036 10.7156 47.9403 10.7453C47.9345 10.7482 47.8467 10.8879 47.8366 10.8834C47.7579 10.852 47.7593 10.7243 47.6902 10.6727C47.6568 10.6479 47.5438 10.68 47.5189 10.6404C47.4751 10.5725 47.5365 10.3233 47.4508 10.3346C47.3954 10.3414 47.3087 10.482 47.2299 10.564C47.0773 10.7231 47.25 10.3681 47.2778 10.3139C47.2787 10.3121 47.3303 10.3006 47.3629 10.2202C47.4545 10.0691 47.2785 10.3135 47.2778 10.3139C47.2956 10.2788 47.2582 10.2072 47.2286 10.2249C47.2124 10.2346 47.1268 10.3653 47.12 10.368C46.9616 10.4281 46.8603 10.4059 46.8223 10.2905C46.8227 10.287 46.9246 10.145 46.9243 10.1384C46.9225 10.0426 46.7709 10.1975 46.6604 10.2752C46.5499 10.3528 46.544 10.297 46.6928 10.0351C46.6425 10.0461 46.6771 9.90863 46.6993 9.8261C46.7216 9.74357 46.524 10.0204 46.5181 10.0245C46.3803 10.1209 46.3831 10.0466 46.3747 9.97184C46.3716 9.94463 46.367 9.91734 46.3536 9.89818C46.3301 9.86357 46.2383 9.85981 46.1823 9.86618C46.1378 9.87168 46.1668 9.79475 46.1124 9.81899C46.1051 9.8222 46.0221 9.94891 46.0177 9.95297C45.886 10.0821 46.111 9.78761 46.1429 9.72928C46.2591 9.51722 46.3191 9.40302 46.2184 9.47073C46.1953 9.48619 45.8666 9.90685 45.8336 9.92187C45.7913 9.94059 45.9078 9.78894 45.8607 9.81254C45.8568 9.81442 45.7898 9.91143 45.78 9.89828C45.7337 9.83852 45.7082 9.73727 45.6399 9.70412C45.6308 9.69922 45.5348 9.86019 45.5199 9.85564C45.4502 9.83415 45.3917 9.78498 45.3861 9.67449C45.385 9.64681 45.4684 9.54532 45.4876 9.51135C45.6037 9.30562 45.3827 9.56813 45.3747 9.57051C45.1792 9.63453 45.2779 9.32651 45.0901 9.37523C45.0796 9.3784 44.8269 9.64888 44.9869 9.3775C44.9976 9.35942 45.1619 9.08222 45.0195 9.25083C45.0106 9.26138 44.928 9.40553 44.9168 9.37718C44.9055 9.34885 44.8089 9.41621 44.884 9.24702C44.9077 9.1937 45.0693 8.91557 44.8963 9.10655C44.8843 9.11997 44.5125 9.56529 44.7253 9.2276C44.7604 9.17204 45.0038 8.82743 44.848 8.98254C44.8179 9.01267 44.7753 9.09773 44.7255 9.13466C44.6489 9.19168 44.6804 9.07594 44.5424 9.20893C44.5181 9.23253 44.3318 9.4518 44.4377 9.26067C44.4542 9.23074 44.5401 9.11888 44.5395 9.09924C44.5369 9.00529 44.4351 9.04927 44.4442 8.93691C44.4473 8.89733 44.5858 8.71625 44.6035 8.65421C44.6211 8.59218 44.62 8.51993 44.5426 8.59286C44.4652 8.66582 44.2776 8.97742 44.2341 8.98252C44.2285 8.98318 44.2231 8.98359 44.2178 8.98377C44.0452 8.98968 44.0476 8.74602 43.9515 8.64229C43.9368 8.6264 43.877 8.74302 43.85 8.72727C43.7503 8.66967 43.5181 8.65649 43.594 8.37309C43.6547 8.14608 43.8332 8.06528 43.8345 7.95663C43.8349 7.9046 43.5678 8.23281 43.5544 8.23966C43.4204 8.31082 43.4875 8.12984 43.4035 8.14126C43.3861 8.14366 43.2989 8.29128 43.2851 8.29178C43.2374 8.29472 43.2487 8.20955 43.2113 8.20056C43.1943 8.19685 43.1221 8.30577 43.1158 8.28904C43.0996 8.25027 43.1053 8.18733 43.1469 8.06713C43.1507 8.05618 43.2609 7.9349 43.2428 7.91499C43.2134 7.88314 43.2392 7.75397 43.1279 7.82852C43.0947 7.85106 42.9237 8.0958 43.0159 7.9088C43.0352 7.86973 43.2467 7.58021 43.0401 7.81379C43.0057 7.85257 42.7172 8.16078 42.8465 7.92267C42.8805 7.85999 43.0315 7.6077 42.9909 7.63562C42.9847 7.64031 42.9009 7.77734 42.8802 7.78195C42.8086 7.7959 42.7747 7.75146 42.7031 7.76289C42.6839 7.7662 42.6061 7.91427 42.5804 7.91486C42.5096 7.91667 42.4752 7.84127 42.459 7.76674C42.4532 7.73901 42.5434 7.6343 42.5507 7.62116C42.6699 7.40768 42.4706 7.66913 42.4531 7.68028C42.3468 7.74601 42.4038 7.59775 42.3429 7.60508C42.3263 7.60676 42.2443 7.74043 42.2342 7.75045C42.2313 7.75329 42.2286 7.75586 42.2262 7.75818C42.1451 7.83482 42.3116 7.62677 42.3156 7.59291C42.3277 7.49441 42.2781 7.47526 42.2282 7.46494C42.2098 7.46134 42.122 7.62142 42.1066 7.61647C42.0137 7.58997 41.9457 7.52147 41.9296 7.38838C41.9268 7.36305 42.0153 7.25431 42.0307 7.2261C42.1385 7.02892 41.9354 7.2589 41.9122 7.27808C41.8061 7.36576 41.8649 7.25607 41.8249 7.25636C41.6284 7.25957 41.5134 7.07985 41.4187 6.95232C41.2947 6.7868 41.2457 6.59065 41.0723 6.51213C41.0614 6.507 40.965 6.66652 40.9543 6.66406C40.82 6.62527 40.7545 6.49118 40.6149 6.45953C40.6037 6.45667 40.5159 6.61037 40.4944 6.61063C40.4497 6.61218 40.4179 6.57839 40.4203 6.51149C40.4213 6.47913 40.5271 6.36846 40.5264 6.33843C40.5248 6.26821 40.4955 6.23254 40.4444 6.23145C40.4443 6.23145 40.4442 6.23146 40.4441 6.23146C40.4216 6.23305 40.3418 6.39487 40.3214 6.38321C40.1796 6.30635 40.0326 6.24194 40.033 5.95774C40.033 5.93823 40.2343 5.6318 40.1748 5.67601C40.1153 5.75849 40.047 5.85677 39.9843 5.94557C39.7593 5.86038 39.6422 5.62418 39.4613 5.47442C39.4537 5.46814 39.3568 5.63729 39.3414 5.62594C39.2523 5.56045 39.1334 5.5433 39.1508 5.32027C39.1524 5.29837 39.3522 5.02121 39.2956 5.04474C39.2854 5.04915 39.2185 5.05811 39.1656 5.11164C39.1577 5.11982 39.0742 5.25591 39.0583 5.25056C38.9679 5.21718 38.9085 5.13149 38.8877 4.99834C38.8845 4.9766 38.9946 4.84634 38.9932 4.82965C38.9824 4.7123 38.8409 4.77112 38.8694 4.60313C38.8888 4.49018 39.0712 4.25948 39.215 4.00756C39.2353 3.97202 39.2143 3.94954 39.309 3.81065C39.5471 3.46136 39.8234 3.0897 40.0758 2.7164C40.1302 2.63601 40.0375 2.69883 40.191 2.51992C40.2013 2.50798 40.2697 2.46076 40.3211 2.39955C40.3566 2.35725 40.4468 2.21176 40.4954 2.15979C40.544 2.10787 40.4713 2.23192 40.5325 2.17368C40.5942 2.11459 40.6992 1.95068 40.7401 1.95109ZM46.798 9.45667C46.8693 9.30733 46.5245 9.79613 46.6299 9.69516C46.6354 9.68969 46.7945 9.46403 46.798 9.45667ZM49.5065 11.2258C49.6285 10.9892 49.3873 11.294 49.2912 11.4754C49.1952 11.6566 49.4696 11.2975 49.5065 11.2258ZM49.9139 11.2745C49.9992 11.0804 49.5095 11.7731 49.6434 11.6573C49.651 11.6508 49.909 11.2858 49.9139 11.2745ZM39.3602 4.00835C39.3644 4.00162 39.3511 3.98292 39.3462 3.98909C39.2283 4.13848 39.255 4.17576 39.3602 4.00835ZM50.3289 11.3077C50.3839 11.2062 50.2781 11.294 50.2097 11.4202C50.1546 11.5217 50.2604 11.4339 50.3289 11.3077ZM46.0181 8.1364C46.0228 8.12885 46.0147 8.11341 45.9862 8.15495C45.8943 8.28877 45.9382 8.26349 46.0181 8.1364ZM50.8361 11.6487C50.7802 11.5709 51.1354 10.9644 51.171 11.0855C51.1774 11.1074 51.0119 11.247 50.9944 11.3118C50.9627 11.4299 51.2365 11.0845 51.1367 11.3022C51.1183 11.342 50.8384 11.6544 50.8354 11.6494C50.8356 11.6491 50.8358 11.6489 50.8361 11.6487ZM47.1957 8.85805C47.1997 8.85125 47.1864 8.83285 47.1815 8.83899C47.0635 8.98826 47.0903 9.02543 47.1957 8.85805ZM45.4871 7.31645C45.4957 7.30193 45.4639 7.26057 45.4537 7.27239C45.255 7.51249 45.3189 7.59688 45.4871 7.31645ZM48.6315 9.32366C48.7598 9.18019 48.7957 9.17772 48.674 9.38531C48.6622 9.36158 48.644 9.34666 48.6315 9.32366Z" fill="black"/>
</svg>
