<svg width="38" height="61" viewBox="0 0 38 61" fill="none" xmlns="http://www.w3.org/2000/svg">
<path d="M8.16839 19.3429C8.09577 19.8728 7.8804 20.5443 7.68593 21.0423C7.6251 21.199 7.54095 21.0929 7.4943 21.2001C7.40324 21.4097 7.40616 21.6276 7.30835 21.8332C7.27549 21.9009 7.13239 21.7741 7.10168 21.8461C6.97726 22.1399 6.91892 22.4374 6.84344 22.7406C6.81744 22.8451 6.7898 22.9486 6.75667 23.0534C6.33182 24.3973 5.96662 25.7394 5.62063 27.0988C5.4456 27.7868 5.2763 28.4754 5.1059 29.1768C4.93981 29.8593 4.62081 30.6728 4.54655 31.4021C4.53804 31.4872 4.69243 31.4656 4.70125 31.4838C4.70814 31.4984 4.71395 31.5119 4.71876 31.5244C4.80764 31.7542 4.55581 31.6364 4.48926 31.7828C4.21035 32.4028 4.06385 33.1092 4.00569 33.749C3.9823 34.0167 4.318 33.8052 4.10867 34.0401C4.09445 34.0565 3.95233 33.9623 3.923 34.0312C3.85725 34.1844 3.82789 34.5106 3.79373 34.6344C3.72646 34.8761 3.72103 34.9168 3.67988 35.1462C3.63782 35.3758 3.55251 35.6346 3.50151 35.8862C3.48169 35.9839 3.46692 36.0811 3.46155 36.1763C3.45777 36.2502 3.63185 36.1786 3.63977 36.301C3.64739 36.4244 3.5851 36.7313 3.53196 36.828C3.47859 36.9251 3.36077 36.862 3.32937 36.8758C3.06532 36.9853 3.34522 37.3966 3.34681 37.4443C3.36593 38.2907 3.07842 38.9909 2.9942 39.7645C2.97362 39.956 2.96051 40.147 2.95141 40.3326C2.92985 40.76 2.92808 41.1546 2.90289 41.5539C2.8648 42.2094 2.76826 42.7645 2.87572 43.2934C2.88715 43.342 3.06045 43.2496 3.07393 43.3021C3.72753 43.7894 1.88197 42.8479 2.37643 43.1949C2.82563 42.8994 3.29729 42.6748 3.79025 42.476C3.87392 42.4442 3.85484 42.6444 3.94319 42.6214C4.51518 42.4568 5.45528 42.3385 5.41799 41.5508C5.78657 41.3958 6.2018 41.2239 6.58079 41.2027C6.82489 41.1891 6.70501 41.4468 6.92252 41.2572C6.96855 41.2163 6.83088 41.1068 6.90537 41.0561C7.11421 40.914 7.36456 40.8072 7.60606 40.6811C7.73159 40.6157 7.84137 40.5516 7.94543 40.474C8.00813 40.4267 7.93045 40.3065 7.93972 40.2743C8.02099 40.0102 8.44604 40.1935 8.51857 40.1885C9.06619 40.147 9.36547 39.9374 9.81747 39.7496C9.91916 39.7076 9.72568 39.5831 9.82003 39.5368C10.3055 39.301 10.8644 39.0887 11.3859 38.9717C11.5046 38.9451 11.4619 39.1365 11.5217 39.1315C11.7844 39.108 11.7249 38.8025 11.9781 38.7747C12.0313 38.7685 12.0544 38.9083 12.0687 38.9191C12.2924 39.0887 12.2856 38.7283 12.3185 38.7076C12.5051 38.5854 12.6941 38.5671 12.8836 38.5628C13.1038 38.5581 13.3305 38.5703 13.5493 38.4618C13.5984 38.4371 13.4224 38.3144 13.5646 38.2551C14.5184 37.8567 15.5688 37.5526 16.5843 37.3861C16.7422 37.36 16.6728 37.5194 16.6872 37.532C16.9165 37.7271 16.9174 37.3714 16.9635 37.344C17.3285 37.1374 17.7717 37.3066 17.9287 36.8417C18.0499 36.818 18.1706 36.793 18.2909 36.7669C19.8581 36.4284 21.4069 35.9034 23.0434 35.9967C23.0655 35.9977 23.052 36.1691 23.096 36.1703C23.6231 36.1885 23.4857 35.946 23.7964 35.5845C23.8184 35.5591 23.8592 35.5683 23.9069 35.5954C24.0294 35.6646 24.1946 35.8519 24.2134 35.8703C24.3099 35.9641 24.2492 36.2217 24.2798 36.2385C24.5286 36.3707 24.405 35.5539 24.7264 35.5233C24.7365 35.5237 24.7085 35.6787 24.7366 35.6913C24.8253 35.7307 24.9046 35.6633 24.9918 35.7086C25.1918 35.814 25.285 36.2081 25.5528 35.9579C25.587 35.9259 25.5038 35.4611 25.7938 35.4684C25.9028 35.4706 26.4298 35.4455 26.5718 35.4761C26.7161 35.5048 26.6186 35.6566 26.6291 35.663C27.0124 35.8603 26.8671 35.944 27.0512 36.2402C27.2297 36.5366 27.1939 35.8353 27.2743 35.7586C27.3568 35.6818 27.6355 35.8563 27.7001 35.9173C27.7658 35.9777 27.676 36.0692 27.7349 36.1045C28.1201 36.338 27.9312 35.7672 28.0721 35.6645C28.4044 35.4236 28.6242 35.9673 28.8957 36.0525C28.9712 36.076 28.9231 35.9505 28.9937 35.9484C29.2512 35.9441 29.3806 36.0975 29.6656 36.0571C29.6922 36.0533 29.7201 36.0478 29.7495 36.0404C29.803 36.0253 30.1252 35.7711 30.2378 36.0336C30.2529 36.0712 30.1597 36.1822 30.2669 36.2374C30.4212 36.3177 30.7305 36.4304 30.9217 36.4455C31.0654 36.4569 30.9752 36.2043 31.1256 36.3221C31.1914 36.3748 31.0145 36.4481 31.1397 36.537C31.2615 36.6231 31.6142 36.7489 31.7476 36.8024C31.8804 36.8537 31.8725 36.6747 31.8872 36.669C31.977 36.6378 32.2653 36.684 32.2874 36.6962C33.3283 37.1764 34.0524 38.0118 34.7033 38.7975C34.7906 38.9022 34.8793 39.0052 34.9705 39.1065C35.0322 39.1755 35.129 39.0213 35.1398 39.0307C35.3878 39.2398 34.8796 39.3196 34.8883 39.5859C35.1455 39.3512 35.1708 39.4889 35.331 39.6503C35.4086 39.7288 35.4831 39.6012 35.4999 39.6012C35.7591 39.6167 35.6077 39.8647 35.5789 39.9185C35.4746 40.1193 35.7303 40.084 35.6586 40.2183C35.5863 40.35 35.3385 40.3217 35.4501 40.4951C35.5857 40.4783 35.7748 40.1681 35.9046 40.2779C36.4263 40.7165 36.7115 41.8909 36.8429 42.3721C36.9855 42.8438 37.0515 43.0042 37.0844 43.2932C37.1314 43.8185 37.3195 43.5791 37.4953 43.886C37.536 43.9601 37.5315 44.0139 37.5 44.0527C37.3987 44.1759 37.023 44.1522 36.9332 44.2032C36.8149 44.2671 36.9516 44.294 36.8905 44.3587C36.8292 44.4221 36.727 44.3196 36.7189 44.4482C36.7126 44.5747 36.9717 44.8962 37.1061 44.9359C37.3933 45.0154 37.6805 44.8266 37.5958 45.1991C37.5905 45.2202 37.4323 45.1592 37.4198 45.2392C37.3246 45.8692 37.2666 46.5141 37.0468 47.0964C37.0164 47.1759 36.8607 47.0694 36.8411 47.1145C36.6281 47.5783 36.9504 47.463 37.1926 47.8238C36.7909 47.6505 36.5038 47.7285 36.3863 48.0767C36.313 48.2853 36.5029 48.3109 36.5758 48.4964C36.5977 48.553 36.4177 48.6563 36.4883 48.7167C36.7171 48.9181 37.0822 48.8977 36.7952 49.2293C36.7823 49.2429 36.6612 49.1261 36.6271 49.1778C36.4164 49.4887 36.6245 49.6646 36.4962 50.0286C36.4884 50.0504 36.4793 50.0729 36.4686 50.0961C36.3277 50.4117 35.834 50.8348 35.5833 51.1172C35.1978 50.8245 35.0748 51.1732 35.2443 51.4935C35.0808 51.676 34.9204 51.8934 34.7225 52.0438C34.6546 52.0955 34.5875 51.9603 34.5691 51.958C34.2888 51.9127 34.4574 52.2078 34.4293 52.2561C34.1145 52.7656 33.6128 52.8981 33.3513 53.4423C33.3428 53.4608 33.5342 53.7412 33.2626 53.6482C33.2448 53.6409 33.282 53.4097 33.0805 53.5629C32.8895 53.7083 32.4351 53.861 32.2229 54.1612C32.2118 54.1774 32.2012 54.194 32.1914 54.2112C32.1467 54.2911 32.1289 54.6419 31.8602 54.5688C31.8243 54.5585 31.7899 54.4646 31.7315 54.4398C31.5449 54.361 31.6882 54.6759 31.4183 54.5093C31.1419 54.3469 30.8245 54.2995 30.6335 54.6558C30.6273 54.6666 30.7001 54.9398 30.6016 54.9957C30.4453 55.0842 30.1924 55.1701 30.0395 55.2609C29.9641 55.3059 30.0968 55.4226 30.0852 55.4329C29.6148 55.8126 29.1518 55.8927 28.5591 56.1189C28.4516 56.1597 28.2361 56.5204 27.9557 56.4525C27.6484 56.3778 27.5296 55.5275 27.1046 55.9377C27.0174 56.0203 27.0144 56.3319 26.9524 56.5811C26.89 56.8283 26.774 57.0125 26.4837 56.8424C25.7917 57.2773 25.004 57.2817 24.303 57.7305C24.2714 57.7506 24.2562 58.0645 24.1719 58.0893C24.0517 58.1237 23.9427 58.0168 23.8552 58.0369C23.4871 58.1175 23.1912 58.3355 22.8288 58.4292C22.6925 58.4645 22.6934 58.3169 22.537 58.3565C22.3795 58.3963 22.3283 58.6055 22.0885 58.5827C21.9227 58.5665 21.685 58.3003 21.4714 58.2686C21.4512 58.2656 21.4312 58.2647 21.4114 58.2663C21.5045 58.6283 21.3534 58.6635 21.1088 58.8326C21.063 58.865 21.1514 58.9757 21.1317 58.9974C21.0529 59.0884 20.9352 59.0085 20.8618 59.1036C20.8438 59.1265 20.8756 59.2502 20.8627 59.2759C20.754 59.4996 20.4196 59.2896 20.3626 59.2525C20.1434 59.1126 20.1035 59.2939 19.9519 59.2547C19.8007 59.2153 19.977 59.0751 19.8108 59.0697C19.4573 59.0608 19.07 59.1741 18.743 59.2427C18.6137 59.2706 18.7395 59.4167 18.7219 59.4245C18.4635 59.5278 18.151 59.4107 18.0711 59.7752C17.6997 58.9571 17.9171 59.896 17.5038 59.8026C17.4708 59.7949 17.3493 59.3962 17.451 59.3129C17.5517 59.2298 17.7522 59.3202 17.8973 59.1918C17.9318 59.1617 18.0682 58.7339 18.0922 58.7044C18.2841 58.4735 18.4519 59.0711 18.472 59.1016C18.6931 59.4289 18.8644 58.9595 18.9258 58.9153C19.2076 58.7134 19.4986 58.7327 19.7458 58.5736C19.906 58.4706 19.8231 58.0723 19.9611 58.0501C20.4189 57.9749 20.7141 58.4828 21.0091 57.8924C21.0726 57.7659 20.8636 57.3637 21.2818 57.6088C21.2826 57.6093 21.2837 57.61 21.2852 57.6109C21.3282 57.6391 21.639 57.8555 21.7171 57.6287C21.7272 57.5992 21.6903 57.4751 21.7099 57.4581C21.8413 57.3462 21.9709 57.4153 22.1194 57.3188C22.2628 57.2239 22.4478 57.0899 22.649 57.0723C22.7708 57.0614 22.9901 57.2441 23.0628 57.2826C23.2693 57.3945 23.3447 57.0757 23.5032 57.2398C23.6639 57.4041 23.5775 57.7649 23.8705 57.8073C23.7718 57.4857 23.6819 57.1517 23.5874 56.8267C24.1387 56.6516 24.7082 56.5605 25.2341 56.3402C25.3009 56.3119 25.1663 56.1703 25.2359 56.1357C25.5284 55.9903 25.837 56.0042 26.1195 55.8297C26.2434 55.7522 26.3584 55.6232 26.478 55.4974C26.5653 55.4051 26.6528 55.3157 26.7475 55.2505C27.0573 55.5335 27.3559 55.252 27.6326 55.1564C27.7304 55.1224 27.7692 55.2178 27.8496 55.2157C28.1512 55.2048 27.884 54.9575 27.9268 54.8765C28.1052 54.5304 28.4803 55.2036 28.8033 55.011C28.8226 55.0002 28.8459 54.5212 28.8615 54.4831C28.9676 54.2343 28.9616 54.5911 29.0933 54.5526C29.3326 54.4822 29.5291 54.4826 29.7076 54.2369C29.7636 54.1623 29.802 53.8405 30.0419 53.9239C30.0736 53.9347 30.1354 54.0559 30.1541 54.0536C30.4875 54.0004 30.2635 53.6365 30.3268 53.4232C30.3846 53.2135 30.7786 53.3007 30.8709 53.3394C31.115 53.437 30.8329 53.4798 30.8381 53.5018C30.905 53.7661 31.0478 53.616 31.1847 53.5459C31.4432 53.8753 31.6056 53.7286 31.3254 53.4716C31.2948 53.4436 31.221 53.5439 31.1847 53.5459C31.0846 53.2166 31.1596 53.0412 31.4108 53.0637C31.475 53.069 31.5487 53.0885 31.6389 53.1176C31.8442 53.1866 31.8813 53.4242 32.1298 53.1338C32.2405 53.0022 32.0107 52.8174 32.0739 52.6659C32.2054 52.3306 32.7193 52.2409 32.9331 51.9816C33.0109 51.8876 32.8174 51.8534 32.8661 51.7857C32.9941 51.6057 33.2207 51.5476 33.3289 51.3482C33.3384 51.33 33.1865 51.2503 33.2315 51.2004C33.5666 50.8204 33.9346 50.5534 34.2533 50.1274C34.407 49.9247 34.5813 49.4986 34.7243 49.2866C34.7641 49.2287 34.8088 49.1711 34.8562 49.1135C35.1147 48.7988 35.4453 48.4663 35.5168 48.1401C35.5695 47.8938 35.3935 47.8899 35.3213 47.7568C35.1802 47.5048 35.6443 47.2839 35.7145 47.245C35.7177 47.2435 35.7012 47.4579 35.8119 47.3703C35.9996 47.3499 35.7148 47.2469 35.7145 47.245C35.763 47.2263 35.8899 46.8162 35.8687 46.7281C35.8593 46.6804 35.701 46.6798 35.6989 46.656C35.6493 46.09 35.6306 45.5666 35.6598 45.0109C35.6622 45.0009 35.8376 45.0017 35.8409 44.978C35.8791 44.7202 35.7396 44.5452 35.5965 44.3789C35.5539 44.3289 35.5106 44.2785 35.4706 44.225C35.2947 43.9888 35.2862 43.7907 35.5304 43.5518C35.4389 43.3633 35.4705 43.0405 35.4831 42.8472C35.4956 42.6525 35.1689 42.7551 35.1575 42.744C34.7835 42.3983 34.8389 42.0649 34.6335 41.6264C34.536 41.4154 34.2547 41.05 34.0778 40.8577C33.939 40.7053 33.9277 40.5512 33.7751 40.4286C33.7543 40.4118 33.6495 40.5249 33.6402 40.5221C33.3693 40.4606 33.723 40.3166 33.7485 40.2401C33.834 39.975 33.871 39.8134 33.6397 39.6618C33.6279 39.6544 33.6153 39.647 33.6019 39.6398C33.5396 39.6037 33.0131 39.8105 32.9191 39.7589C32.7952 39.688 32.973 39.5957 32.8379 39.5282C32.8265 39.5227 32.7421 39.6043 32.6847 39.5439C32.4151 39.2641 32.15 38.9896 31.8273 38.8143C31.7834 38.7901 31.7411 38.9816 31.6778 38.9506C31.3839 38.8063 31.0108 38.6268 30.6859 38.4188C30.6071 38.3673 30.7045 38.2631 30.6986 38.2197C30.6553 37.9546 30.3733 38.2243 30.3455 38.223C29.9524 38.1957 29.6538 38.0791 29.3129 37.9742C29.0126 37.8831 28.7163 37.8092 28.3454 37.841C28.2975 37.844 27.9542 38.1817 27.834 37.8606C27.8268 37.8392 27.7001 37.5093 27.5601 37.7233C27.5518 37.7368 27.634 37.9058 27.4782 37.8824C27.321 37.8591 27.0637 37.9635 26.8516 37.7818C26.7846 37.7245 26.6155 37.404 26.4092 37.6643C26.3943 37.6819 26.0903 38.2691 25.9636 37.8767C25.9424 37.8122 25.9423 37.3887 25.7029 37.6185C25.6576 37.6632 25.7494 37.752 25.6277 37.8181C25.4425 37.92 25.1761 37.8265 24.9529 38.0358C24.9144 38.0726 24.7709 38.3738 24.6091 38.1725C24.5835 38.141 24.6105 37.9965 24.5344 37.9888C24.4226 37.9774 24.3102 37.9831 24.1973 37.9951C23.9431 38.0222 23.6897 38.0811 23.4315 38.0513C23.2981 38.0366 23.33 37.8014 23.1855 37.7619C23.0411 37.7222 22.7557 37.7095 22.6301 37.8372C22.5057 37.9646 22.7214 38.2951 22.5182 38.3606C21.6342 38.6472 20.6892 38.638 19.7689 38.8389C19.6329 38.8688 19.7766 38.9659 19.5791 39.0193C19.3978 39.0687 19.185 39.1347 18.9575 39.2056C18.2723 39.4179 17.4534 39.6827 16.9178 39.6356C16.3453 39.5857 16.9313 39.2224 16.5164 39.2604C16.3161 39.2795 16.2428 39.7476 16.2028 39.7748C15.805 40.0482 15.4452 39.9735 15.0681 40.1661C14.9905 40.2059 15.1271 40.3392 15.0606 40.3713C14.8343 40.4823 14.5618 40.4989 14.3435 40.5933C14.2458 40.6361 14.3091 40.752 14.214 40.7762C14.0552 40.8179 13.9023 40.8415 13.7382 40.8409C13.665 40.8407 13.5894 40.8357 13.5097 40.8255C13.486 40.8225 13.5611 40.6203 13.3953 40.6767C13.1277 40.7682 12.7584 40.7813 12.4958 41.0192C12.4191 41.0899 12.5256 41.3686 12.2567 41.2539C12.2006 41.23 12.118 40.8766 12.0101 41.254C11.9931 41.316 11.7733 41.8561 11.4848 41.6844C11.4089 41.6391 11.1715 41.4199 11.0819 41.5074C11.0703 41.5202 11.1902 41.6439 11.1077 41.6954C10.8224 41.8716 10.4776 42.0001 10.1793 42.1847C10.0998 42.2344 10.2925 42.3314 10.1722 42.4004C9.85467 42.5845 9.37978 42.7502 9.02995 42.8532C8.89918 42.8916 8.92676 42.7278 8.91163 42.7183C8.66874 42.5619 8.7158 42.9019 8.67449 42.9421C8.66939 42.9469 8.66427 42.9517 8.65915 42.9563C8.40356 43.1874 8.11947 43.1582 7.87274 43.3204C7.79876 43.3678 7.92214 43.4823 7.91252 43.5024C7.81055 43.7026 7.80863 43.3916 7.69361 43.4126C7.36529 43.4733 7.09064 43.622 6.80357 43.788C6.70322 43.8468 6.90094 43.9508 6.81046 44.0015C6.29435 44.2959 5.73631 44.5671 5.17177 44.7655C5.07254 44.7987 5.06113 44.6451 5.02687 44.6276C4.78127 44.5082 4.72739 44.8901 4.70711 44.9357C4.60718 45.1468 4.43233 45.1069 4.29842 45.2168C4.21428 45.2877 4.07115 45.3942 3.9996 45.4572C-2.29535 45.1307 1.04651 42.277 0.270526 41.7357C0.317568 41.1379 0.397925 40.6091 0.479027 40.0997C0.595641 39.3743 0.715085 38.6997 0.797851 37.9414C0.807344 37.8572 0.61146 37.9167 0.617337 37.8435C0.688368 37.0418 0.859522 36.2624 0.967433 35.4692C0.983078 35.3542 0.997517 35.2379 1.01026 35.1204C1.01882 35.0448 0.826758 35.1238 0.834719 35.0012C0.850941 34.7429 0.911794 34.4451 1.01084 34.2055C1.05867 34.0895 1.17938 34.2774 1.22449 34.1601C1.33024 33.8853 1.39667 33.5845 1.42075 33.2934C1.43083 33.1684 1.21972 33.3216 1.24672 33.1614C1.37181 32.4056 1.49311 31.6653 1.7016 30.9367C1.79677 30.6038 1.91074 30.2699 2.05012 29.9451C2.08082 29.8733 2.45327 29.8797 2.41639 29.7065C2.31909 29.6744 2.20166 29.6515 2.09614 29.6248C2.26946 28.5648 2.52938 27.5308 2.79086 26.4943C2.92071 25.9797 3.05115 25.4637 3.17155 24.9443C3.18682 24.8782 2.97205 24.9511 3.00067 24.823C3.16636 24.0807 3.2738 23.3509 3.63367 22.6344C3.66907 22.5635 3.99354 22.6772 3.9932 22.4451C3.99301 22.4154 4.00848 22.2336 3.99873 22.0924C3.99476 22.0363 3.98662 21.9873 3.9716 21.9579C3.96337 21.9437 3.79399 21.9692 3.81404 21.8605C3.9327 21.232 4.12005 20.5832 4.35967 19.9863C4.39861 19.8902 4.53911 20.0351 4.56828 19.967C4.7759 19.4752 4.77833 18.9035 5.04494 18.4499C5.22332 18.1496 5.48016 18.338 5.80216 18.2337C5.84762 18.2189 5.90156 18.0216 6.06747 18.0507C6.48482 18.1231 6.91191 18.327 7.35949 18.3928C7.45588 18.4069 7.41767 18.1186 7.60815 18.3297C7.6208 18.3441 7.65047 18.5541 7.71648 18.6201C7.76207 18.6659 7.94257 18.6463 7.99493 18.73C8.04723 18.8136 7.89013 18.8543 7.94382 18.9857C7.99852 19.1174 8.1995 19.1129 8.16839 19.3429ZM35.498 41.9603C35.5704 41.7334 35.0231 41.9763 35.2295 42.0752C35.2401 42.0796 35.4945 41.9717 35.498 41.9603ZM24.8592 56.9813C25.1707 57.1469 25.1797 56.7277 24.956 56.5948C24.7337 56.4613 24.7651 56.9308 24.8592 56.9813ZM22.6001 57.9503C22.9316 58.0651 22.7176 57.2431 22.4848 57.4953C22.4712 57.5096 22.5808 57.9436 22.6001 57.9503ZM5.69196 19.0513C5.70011 19.0513 5.74195 18.9085 5.73518 18.903C5.56858 18.7822 5.48506 19.0676 5.69196 19.0513ZM20.3155 58.8138C20.4285 58.9034 20.6347 58.7122 20.495 58.6014C20.3834 58.5122 20.1758 58.7025 20.3155 58.8138ZM28.867 36.3432C28.8653 36.3339 28.7616 36.3132 28.7578 36.3636C28.7461 36.5254 28.8948 36.4977 28.867 36.3432ZM16.2536 59.7249C16.868 59.6406 17.3723 60.2529 16.6931 60.3063C16.57 60.3157 16.9101 60.0365 16.7448 60.0043C16.4438 59.9456 16.3376 60.4135 16.0032 60.2355C15.9435 60.2027 16.2191 59.7283 16.2545 59.7238C16.2542 59.7241 16.2539 59.7245 16.2536 59.7249ZM36.102 41.5581C36.1078 41.5514 36.0492 41.4155 36.0403 41.4159C35.8359 41.4306 35.9517 41.6993 36.102 41.5581ZM22.6768 36.2199C22.6662 36.2041 22.3229 36.246 22.3143 36.2638C22.1918 36.5993 22.8791 36.5162 22.6768 36.2199ZM35.5693 51.1144C35.6259 51.3604 35.5109 51.5454 35.245 51.4931C35.3544 51.377 35.4622 51.2401 35.5693 51.1144ZM11.6637 0.416147C11.8107 0.443386 11.9536 0.594611 12.0185 0.723374C12.0434 0.766144 11.9696 0.845392 11.9846 0.87924C12.0131 0.944735 12.0962 0.93437 12.113 1.00205C12.1198 1.02588 12.0131 1.15752 12.0223 1.17924C12.0717 1.29618 12.1924 1.31975 12.2657 1.40652C12.5248 1.7069 12.8064 1.96068 13.0881 2.20184C13.2283 2.31926 13.3487 2.42164 13.4873 2.53746C13.6343 2.65979 13.7289 2.90018 13.9282 2.94817C13.9512 2.95348 14.0193 2.82204 14.0294 2.81408C14.1857 2.69316 14.0072 2.9323 14.0223 2.98884C14.0782 3.20971 14.2292 3.32276 14.3996 3.36498C14.4721 3.38243 14.5723 3.09866 14.5415 3.27436C14.5395 3.28628 14.44 3.40836 14.4467 3.43255C14.462 3.48712 14.5453 3.50768 14.5665 3.53622C14.6069 3.59184 14.6167 3.59631 14.6669 3.63106C14.7335 3.67875 14.7747 3.79488 14.8659 3.81807C14.8677 3.81851 14.8695 3.81892 14.8713 3.81928C14.8915 3.82287 14.9583 3.67487 14.9985 3.6685C15.0386 3.66216 15.0983 3.71743 15.1002 3.76394C15.1021 3.81044 15.0233 3.90958 15.0114 3.93638C14.9105 4.16192 15.1738 3.93057 15.1885 3.93029C15.4515 3.93288 15.5008 4.19641 15.672 4.30987C15.8024 4.39582 15.9776 4.43681 16.0952 4.5266C16.2356 4.63459 16.3116 4.79125 16.462 4.87589C16.4778 4.88498 16.5667 4.71719 16.5862 4.728C16.7131 4.79843 16.8306 4.88223 16.9302 4.99153C16.9931 5.06064 17.0491 5.14009 17.0958 5.23276C17.1077 5.25687 16.988 5.37535 16.9943 5.40754C17.0351 5.60189 17.0308 5.99876 17.5171 5.45949C17.5811 5.53934 17.6615 5.63229 17.6481 5.8014C17.6394 5.91027 17.4899 6.02517 17.5908 6.00274C17.6134 5.99787 17.6891 5.85765 17.7161 5.86008C17.8302 5.87076 17.8859 5.97428 18.0141 5.96643C18.0403 5.96445 18.119 5.84667 18.1386 5.82938C18.2989 5.69055 18.1622 6.01336 18.1613 6.04344C18.158 6.27017 18.2774 6.26769 18.372 6.34336C18.3938 6.36097 18.4805 6.18843 18.5056 6.19993C18.6279 6.25908 18.731 6.35182 18.7923 6.48608C18.7968 6.49592 18.8011 6.50598 18.8052 6.51628C18.818 6.55016 18.6977 6.66224 18.6988 6.68502C18.7046 6.78369 18.9012 6.54876 18.9103 6.63883C18.9124 6.65748 18.8224 6.76327 18.815 6.77682C18.6991 6.98914 18.9318 6.74058 18.944 6.74056C19.1048 6.73515 18.9505 7.06299 19.0733 7.09527C19.0883 7.09891 19.1713 6.94108 19.2069 6.95982C19.442 7.08207 19.6393 7.30185 19.7487 7.57469C19.7671 7.61792 19.6601 7.70045 19.6518 7.71467C19.5223 7.93715 19.7605 7.69278 19.7792 7.6917C19.9206 7.68948 19.8099 7.96965 20.1266 7.70722C20.2365 7.88443 20.404 8.01656 20.5471 8.14955C20.7379 8.3268 20.893 8.50443 20.9325 8.83189C20.9334 8.83891 20.8059 8.94804 20.8082 8.96144C20.8331 9.12363 21.001 8.92248 21.2994 8.77568C21.3765 8.74117 21.1422 9.05553 21.1246 9.07821C21.0626 9.16472 20.8606 9.31288 20.8508 9.33203C20.7726 9.48196 21.3846 8.92911 21.4442 8.99789C21.445 9.00085 21.3222 9.09079 21.3155 9.10617C21.2941 9.15402 21.3545 9.13203 21.3284 9.18232C21.2686 9.29943 20.9652 9.56067 21.1969 9.47742C21.2269 9.46676 21.5839 9.16339 21.6194 9.24549C21.6337 9.27824 21.7269 9.3922 21.7248 9.44435C21.7247 9.49789 21.5824 9.55676 21.5788 9.56296C21.4793 9.77314 21.3843 9.78007 21.1592 9.97573C20.9279 10.1606 21.5295 9.80091 21.6107 9.78451C21.6927 9.76937 21.5886 9.92177 21.5434 9.95986C21.4998 10 21.4021 10.0196 21.3796 10.0466C21.2318 10.2245 21.7259 9.96267 21.8498 9.96598C22.1524 10.0048 21.6743 10.2273 21.6412 10.3111C21.6327 10.3373 21.7464 10.3002 21.7619 10.3218C21.8073 10.3908 21.721 10.4428 21.7478 10.5C21.7556 10.5183 21.7729 10.5382 21.8053 10.5632C21.8296 10.5723 22.1334 10.7065 21.889 10.7423C21.8542 10.7446 21.7314 10.7008 21.6928 10.7343C21.636 10.7828 21.573 10.8638 21.5806 10.9389C21.5856 10.9962 21.807 11.0384 21.7134 11.0688C21.6731 11.0785 21.5878 10.9779 21.5235 10.9965C21.4613 11.0137 21.3992 11.1052 21.3727 11.1406C21.3475 11.176 21.4843 11.2655 21.4902 11.2754C21.5237 11.3327 21.52 11.4495 21.5134 11.455C21.2325 11.7524 20.8237 11.6711 20.5956 11.8947C20.5768 11.9121 20.6697 12.0564 20.6677 12.0606C20.6225 12.164 20.4771 11.7286 20.3578 11.6185C20.5076 11.901 20.4691 11.8884 20.4323 11.9323C20.4293 11.936 20.4262 11.9401 20.4232 11.9448C20.4066 11.9734 20.4779 12.088 20.4816 12.1015C20.5313 12.3036 20.3919 12.0781 20.363 12.0321C20.2554 11.8637 20.326 12.0887 20.2541 11.9759C20.1835 11.8636 20.1411 11.6691 20.0936 11.6931C20.1299 11.8127 20.3001 12.0918 20.2822 12.1573C20.2051 12.4103 19.8344 12.2833 19.7049 12.3019C19.5788 12.3201 19.5474 12.3552 19.4627 12.3373C19.31 12.304 19.4321 12.5163 19.3895 12.6468C19.3453 12.7774 19.1986 12.2026 19.1476 12.0855C19.0973 11.9682 19.1265 12.0964 19.0915 12.0342C19.0567 11.9721 19.0583 11.8806 19.0194 11.8657C18.981 11.8506 18.9643 12.0933 18.9923 12.2239C19.0525 12.5003 19.1816 12.7699 19.0629 12.698C19.056 12.6937 19.0263 12.54 19.0025 12.5309C18.9165 12.5002 18.8406 12.4904 18.763 12.4843C18.6713 12.4767 18.5802 12.4733 18.4828 12.4409C18.4585 12.4323 18.4299 12.2606 18.4154 12.2537C18.2643 12.1808 18.386 12.4498 18.4031 12.7813C18.3048 12.3609 18.1984 12.1165 18.1053 12.1387C18.049 12.1519 18.1068 12.3315 18.1038 12.4696C18.1028 12.5113 18.0299 12.3966 18.0449 12.4842C18.0934 12.7709 18.2129 13.0751 18.0822 12.9753C18.0764 12.9705 18.0508 12.8133 18.0336 12.8078C17.9223 12.7712 17.9849 13.068 17.888 13.1298C17.8115 13.1784 17.6216 13.034 17.522 13.0264C17.4131 12.5537 17.3521 12.682 17.3909 13.0162C17.3273 13.0167 17.2656 13.0501 17.197 13.018C17.1735 13.0072 17.1561 12.8671 17.1502 12.8529C17.0639 12.639 17.1007 12.925 17.095 12.9642C17.0947 12.966 17.0944 12.9672 17.0939 12.9679C16.9785 13.1203 16.812 12.9037 16.7261 13.1679C16.7231 13.1774 16.7839 13.509 16.6974 13.2756C16.6916 13.2595 16.7052 13.1001 16.6391 13.1017C16.5726 13.1034 16.4173 12.9507 16.36 13.1212C16.3463 13.1623 16.3446 13.4415 16.2595 13.2404C16.2481 13.2131 16.2359 13.117 16.2172 13.0658C16.1573 12.903 16.2077 13.2401 16.1207 12.9623C16.0337 12.6844 15.9281 12.4842 15.8777 12.6969C15.876 12.7031 15.9053 12.9723 15.8767 12.9734C15.8317 12.9747 15.7568 12.9315 15.7106 12.9418C15.6884 12.9468 15.7331 13.109 15.7298 13.1128C15.6146 13.2158 15.5012 13.1364 15.3626 13.0893C15.3392 13.0814 15.3152 13.0745 15.2904 13.0694C15.2587 13.0626 15.2123 13.3026 15.1248 13.1343C15.0292 12.9499 14.9538 12.128 14.8465 12.3451C14.8026 12.432 14.8983 13.4745 14.7059 12.9579C14.5312 13.1224 14.2902 12.8803 14.1228 13.0994C14.1147 13.1092 14.1289 13.4018 14.1063 13.4012C14.0727 13.3998 14.0346 13.2678 14.0103 13.2624C13.9069 13.2365 13.8424 13.3638 13.7441 13.3598C13.7073 13.3585 13.6995 13.2173 13.656 13.2157C13.6515 13.2155 13.6474 13.2174 13.6437 13.2209C13.6118 13.2504 13.6038 13.3932 13.5425 13.3209C13.4897 13.2595 13.3993 12.8895 13.3335 12.8541C13.3831 13.2246 13.3413 13.2227 13.2852 13.3301C13.2744 13.3509 13.3065 13.4778 13.3023 13.4943C13.2857 13.5643 13.2474 13.4607 13.2334 13.5363C13.2299 13.5544 13.2469 13.681 13.245 13.703C13.2303 13.8948 13.125 13.6191 13.1046 13.5714C13.0329 13.3894 13.0337 13.5568 12.9893 13.4873C12.9453 13.4177 12.9841 13.3182 12.9384 13.2785C12.8479 13.1958 12.7395 13.2306 12.6549 13.2354C12.6218 13.238 12.6656 13.4042 12.6614 13.4085C12.6027 13.4595 12.5048 13.289 12.507 13.6308C12.3514 12.7655 12.4762 13.7204 12.3574 13.5577C12.3471 13.5446 12.2868 13.1338 12.3126 13.0693C12.3334 13.0055 12.3907 13.1292 12.4212 13.0298C12.4281 13.0065 12.4385 12.6133 12.444 12.5889C12.4838 12.3984 12.5645 13.0134 12.5731 13.0466C12.653 13.4072 12.6693 12.9827 12.6842 12.9516C12.7576 12.8084 12.8295 12.887 12.8874 12.7839C12.9246 12.7172 12.8756 12.3138 12.9132 12.3214C13.0401 12.3458 13.1496 12.9029 13.1957 12.4005C13.2056 12.2933 13.1199 11.8569 13.255 12.1906C13.2653 12.2114 13.3698 12.5193 13.3772 12.3142C13.3781 12.2883 13.3598 12.1602 13.3641 12.1486C13.3936 12.0734 13.4347 12.1717 13.4716 12.1165C13.4751 12.1113 13.4786 12.1059 13.4822 12.1004C13.5166 12.0472 13.5572 11.984 13.609 12.0166C13.6418 12.0383 13.7147 12.2713 13.7376 12.3276C13.8027 12.4899 13.8051 12.2076 13.8609 12.4074C13.9174 12.6083 13.9135 12.9267 14.0013 13.0487C13.9537 12.7159 13.908 12.3737 13.8615 12.0388C14.0144 12.0276 14.1651 12.1143 14.3132 12.0757C14.3313 12.0706 14.284 11.8951 14.3026 11.885C14.3812 11.8434 14.4697 11.9596 14.5465 11.895C14.6054 11.8444 14.6462 11.6436 14.7073 11.5844C14.8121 11.957 14.8908 11.8111 14.9703 11.833C14.9982 11.8405 15.014 11.9421 15.0382 11.9719C15.1291 12.0819 15.038 11.7527 15.0478 11.6966C15.063 11.6105 15.0908 11.6535 15.1248 11.742C15.1856 11.8994 15.2642 12.2011 15.3235 12.1782C15.3285 12.1765 15.3178 11.7616 15.3216 11.735C15.3458 11.5613 15.3559 11.8739 15.3953 11.8975C15.4671 11.9407 15.5284 12.0291 15.5798 11.8973C15.595 11.8583 15.5983 11.5976 15.6756 11.7843C15.6857 11.8087 15.7079 11.9425 15.7137 11.9495C15.8171 12.0646 15.7396 11.6456 15.7569 11.4954C15.774 11.3452 15.8989 11.6205 15.9295 11.7009C16.0086 11.9089 15.919 11.7985 15.9212 11.8199C15.9464 12.0759 15.989 12.0228 16.0322 12.0363C16.1183 12.4451 16.1688 12.4096 16.0767 12.0487C16.0666 12.0093 16.0437 12.0535 16.0322 12.0363C15.9877 11.6273 16.0356 11.5644 16.1763 11.9268C16.2425 12.0966 16.2546 12.3077 16.3336 12.2136C16.3694 12.171 16.2954 11.8925 16.317 11.8081C16.3658 11.6154 16.5312 11.855 16.6102 11.7948C16.6388 11.773 16.5749 11.6257 16.5932 11.6055C16.6414 11.5514 16.717 11.6559 16.7616 11.5842C16.7656 11.5775 16.7175 11.4193 16.7348 11.4133C16.7404 11.4113 16.7459 11.4094 16.7515 11.4078C16.8765 11.3714 17.0119 11.4401 17.1463 11.4115C17.2145 11.397 17.3127 11.2801 17.387 11.2806C17.5149 11.281 17.7203 11.4762 17.8093 11.3926C17.8671 11.3389 17.8102 11.1834 17.8097 11.0673C17.8077 10.8426 18.0045 11.1933 18.034 11.2477C18.035 11.2495 17.9885 11.3025 18.0411 11.3759C18.1054 11.5411 18.0336 11.2486 18.034 11.2477C18.0533 11.283 18.1745 11.2881 18.1899 11.2509C18.1975 11.2308 18.148 11.0825 18.1528 11.0749C18.1977 11.0043 18.2458 10.949 18.2978 10.9096C18.3763 10.8498 18.4636 10.8265 18.5669 10.84C18.5705 10.8422 18.6191 11.0101 18.6268 11.0131C18.737 11.0597 18.7259 10.8385 18.7525 10.6959C18.7798 10.553 18.8467 10.5748 18.9862 10.8437C19.0253 10.79 19.1423 10.8888 19.2119 10.9487C19.2812 11.0088 19.1688 10.6877 19.1696 10.6802C19.2067 10.4359 19.3374 10.5935 19.4585 10.5756C19.5192 10.5665 19.6008 10.4763 19.6346 10.4191C19.649 10.3952 19.67 10.4005 19.6912 10.4012C19.7109 10.402 19.7288 10.3998 19.7355 10.3689C19.7374 10.3604 19.6647 10.2274 19.6636 10.2214C19.6203 10.0404 19.7692 10.3799 19.8075 10.4346C19.9466 10.6334 20.0291 10.7351 20.0259 10.608C20.0263 10.5783 19.7973 10.0957 19.7972 10.0596C19.7989 10.0128 19.8879 10.1822 19.8871 10.1287C19.887 10.1243 19.8259 10.0236 19.8411 10.0204C19.9075 10.0066 20.004 10.0219 20.0206 9.99229C20.0229 9.98891 19.9001 9.84785 19.9 9.84176C19.8966 9.82002 19.8962 9.8093 19.8758 9.99277C19.8763 10.0336 19.9986 10.0853 20.0278 10.1119C20.2138 10.2578 19.8887 10.1471 19.873 10.1669C19.7066 10.3013 19.7877 10.4798 19.8372 10.5C19.865 10.5348 19.8675 10.5806 19.8151 10.6438C19.8028 10.6412 19.4693 10.8253 19.7738 10.739C19.7955 10.7367 20.0949 10.6229 19.8957 10.7178C19.8837 10.7248 19.7305 10.7872 19.7511 10.7934C19.7698 10.7963 19.6834 10.8688 19.8312 10.7628C19.8795 10.7323 20.134 10.5358 19.9071 10.6576C19.8892 10.6631 19.3999 10.9725 19.7079 10.7192C19.7584 10.6773 20.0965 10.4244 19.896 10.5189C19.8575 10.5378 19.7934 10.6085 19.733 10.627C19.6387 10.6539 19.6996 10.5501 19.5268 10.6373C19.496 10.6524 19.2598 10.817 19.4051 10.6532C19.4277 10.6273 19.5388 10.5404 19.5405 10.5186C19.5464 10.4113 19.4249 10.419 19.4416 10.2958C19.4467 10.2517 19.6207 10.104 19.6429 10.0393C19.6652 9.9747 19.6606 9.88655 19.5625 9.93582C19.4648 9.98555 19.2353 10.269 19.1796 10.2548C19.0317 10.2235 18.974 10.0863 18.9082 9.94342C18.8757 9.86836 18.8408 9.79151 18.7884 9.73049C18.7665 9.70489 18.7013 9.82058 18.6628 9.78995C18.5173 9.67417 18.2063 9.57124 18.2514 9.25187C18.2922 8.9996 18.5243 8.97209 18.5045 8.83975C18.4941 8.77582 18.1875 9.0705 18.1703 9.07369C17.9976 9.10753 18.0519 8.91172 17.9336 8.89114C17.9092 8.88703 17.8196 9.03421 17.8003 9.02946C17.7346 9.01532 17.7314 8.91571 17.6764 8.89048C17.6515 8.87948 17.575 8.98547 17.5621 8.96262C17.5302 8.90908 17.5229 8.83404 17.552 8.70183C17.5546 8.68975 17.6821 8.58285 17.6509 8.55118C17.6 8.50026 17.6022 8.34979 17.4629 8.40064C17.421 8.41594 17.24 8.6533 17.3234 8.45783C17.3348 8.43089 17.4374 8.30125 17.4388 8.27612C17.4395 8.26311 17.4131 8.27809 17.3329 8.34999C17.2936 8.38473 16.9617 8.65782 17.0831 8.41235C17.115 8.34772 17.2634 8.09237 17.212 8.11159C17.2044 8.1151 17.1214 8.25321 17.0925 8.25116C16.9911 8.24084 16.9319 8.17572 16.8313 8.16401C16.8043 8.16125 16.7339 8.31543 16.697 8.30711C16.5955 8.28448 16.5239 8.17983 16.4778 8.08226C16.461 8.04604 16.5612 7.94892 16.568 7.93533C16.6776 7.71429 16.4652 7.96593 16.4433 7.97377C16.3088 8.01801 16.3474 7.85575 16.2608 7.84385C16.2372 7.84025 16.1582 7.97633 16.1467 7.98521C16.0315 8.07056 16.2219 7.86099 16.2173 7.81956C16.2048 7.7027 16.1261 7.66209 16.0496 7.63238C16.0214 7.62167 15.9431 7.78876 15.9191 7.77746C15.7752 7.71386 15.6547 7.60786 15.5879 7.4392C15.5755 7.40718 15.6702 7.30276 15.6835 7.27317C15.7776 7.06639 15.554 7.28206 15.5262 7.29807C15.3989 7.37105 15.4495 7.25567 15.3907 7.24305C15.3855 7.24197 15.3804 7.24084 15.3752 7.23965C15.0946 7.17426 14.8698 6.92409 14.6882 6.74157C14.4494 6.50179 14.303 6.2442 14.0187 6.09761C14.0004 6.08797 13.9152 6.25456 13.8982 6.24826C13.7327 6.18031 13.6083 6.05662 13.4613 5.96836C13.4164 5.94133 13.369 5.9172 13.3182 5.89888C13.3002 5.89207 13.2267 6.05456 13.1947 6.04864C13.1284 6.03752 13.0686 5.98726 13.0476 5.90653C13.0371 5.86742 13.1532 5.76237 13.141 5.7256C13.1123 5.63942 13.0574 5.58898 12.9798 5.5726C12.9466 5.56595 12.8888 5.74325 12.8533 5.72283C12.6091 5.5867 12.3721 5.47202 12.2591 5.12371C12.2517 5.10005 12.434 4.78162 12.3625 4.81952C12.3055 4.90383 12.2416 5.00498 12.1823 5.09611C11.9456 4.99042 11.7535 4.82426 11.5548 4.65564C11.4395 4.55849 11.34 4.47167 11.2131 4.38467C11.1988 4.37488 11.1219 4.55567 11.0938 4.5376C10.9334 4.43485 10.7507 4.38541 10.6849 4.11858C10.6788 4.09271 10.8653 3.80632 10.7916 3.8218C10.7798 3.82559 10.683 3.81978 10.6231 3.87011C10.6147 3.87803 10.5453 4.02255 10.5185 4.01157C10.3674 3.94766 10.2445 3.83037 10.1594 3.66501C10.1469 3.63876 10.2569 3.50678 10.2488 3.48684C10.1736 3.33611 10.0083 3.38723 9.96679 3.18277C9.96223 3.05911 10.1236 2.81359 10.2342 2.54317C10.247 2.50335 10.2141 2.47626 10.2986 2.33094C10.5113 1.96558 10.7629 1.57669 10.9867 1.18552C11.0218 1.0935 10.9291 1.16006 11.0692 0.970499C11.0803 0.958799 11.1703 0.921691 11.2172 0.857034C11.2527 0.814159 11.3267 0.659217 11.3781 0.60787C11.4281 0.555795 11.3811 0.69459 11.4477 0.638033C11.5135 0.579776 11.6013 0.405671 11.6637 0.416147ZM19.5343 11.2103C19.635 11.346 19.4172 10.7888 19.4293 10.9381C19.4301 10.946 19.5293 11.2037 19.5343 11.2103ZM14.2374 12.5595C14.3377 12.8109 14.3184 12.4211 14.2446 12.2265C14.1712 12.032 14.2071 12.4833 14.2374 12.5595ZM13.6492 12.8429C13.7509 13.0383 13.6393 12.1974 13.5879 12.3782C13.5849 12.3884 13.6433 12.8316 13.6492 12.8429ZM10.459 2.58171C10.4621 2.57431 10.4303 2.5462 10.4257 2.55267C10.309 2.7042 10.3722 2.76 10.459 2.58171ZM13.0634 13.1365C13.104 13.2468 13.1439 13.1078 13.0994 12.9698C13.0655 12.8586 13.0155 12.9989 13.0634 13.1365ZM21.3514 10.3571C21.3603 10.3553 21.3613 10.3278 21.3115 10.3374C21.1515 10.3682 21.2049 10.3886 21.3514 10.3571ZM12.0115 13.2768C12.1669 13.2915 12.3548 13.9748 12.1647 13.9173C12.1309 13.9067 12.2087 13.6873 12.1602 13.6293C12.0812 13.5225 12.0687 13.9666 11.9796 13.7391C11.9523 13.6987 12.0024 13.2745 12.0117 13.2758C12.0116 13.2762 12.0116 13.2765 12.0115 13.2768ZM19.8238 11.8684C19.8277 11.8754 19.8649 11.8685 19.8627 11.8609C19.8096 11.6776 19.7363 11.6907 19.8238 11.8684ZM20.7425 8.87152C20.7533 8.85826 20.6997 8.78216 20.6864 8.79097C20.435 8.97861 20.5383 9.12865 20.7425 8.87152ZM17.5175 13.0141C17.5209 13.2095 17.477 13.2428 17.3912 13.0164C17.434 13.0196 17.4747 13.0121 17.5175 13.0141Z" fill="black"/>
</svg>
