<svg width="62" height="58" viewBox="0 0 62 58" fill="none" xmlns="http://www.w3.org/2000/svg">
<path d="M17.4647 0.603634C17.5084 0.929997 17.4417 1.3546 17.3569 1.67641C17.3305 1.77727 17.2259 1.72315 17.2029 1.79265C17.1582 1.92859 17.2069 2.05757 17.1543 2.19168C17.1363 2.23612 16.9699 2.17593 16.9549 2.22262C16.8741 2.47851 16.9105 2.72352 16.8681 2.98376C16.6587 4.26563 16.563 5.52853 16.4528 6.82872C16.4167 7.25743 16.2508 7.77543 16.306 8.22063C16.3126 8.27261 16.4607 8.24555 16.4726 8.25572C16.6545 8.41502 16.3584 8.35596 16.3163 8.4558C16.1498 8.85212 16.1248 9.29696 16.1717 9.68372C16.172 9.68605 16.1723 9.68832 16.1727 9.69053C16.2004 9.84388 16.4866 9.69377 16.3204 9.85229C16.309 9.86346 16.1536 9.81782 16.1358 9.86235C16.0956 9.96332 16.1186 10.1574 16.1041 10.2361C16.0755 10.3878 16.0764 10.413 16.0709 10.557C16.062 10.7538 15.9782 10.9859 16.0082 11.1981C16.0151 11.2434 16.177 11.1878 16.2024 11.2604C16.2278 11.3331 16.2093 11.5232 16.1698 11.5864C16.1303 11.6496 16.005 11.619 15.9758 11.6296C15.7295 11.7168 16.0616 11.9458 16.0692 11.9743C16.1982 12.4947 15.9943 12.9328 15.9823 13.4178C15.9736 13.7861 16.0269 14.1814 16.0092 14.5315C15.9874 14.9486 15.8913 15.3001 15.8958 15.706C15.896 15.7488 16.0859 15.7036 16.0867 15.7559C16.0943 16.3117 16.0594 16.8626 15.9178 17.4122C15.9035 17.4673 15.7397 17.3916 15.7155 17.4464C15.5706 17.7821 15.2298 18.3103 15.9456 18.5304C15.9115 18.7594 15.8752 19.0375 15.7245 19.2393C15.6416 19.3507 15.4999 19.2691 15.5064 19.3464C15.5075 19.3595 15.5128 19.377 15.5233 19.4008C15.5395 19.438 15.6987 19.3943 15.711 19.4498C15.7629 19.6831 15.705 19.935 15.7806 20.1665C15.7964 20.2135 15.9383 20.2045 15.9635 20.2183C16.167 20.3348 15.821 20.5108 15.7951 20.5505C15.6023 20.8527 15.6693 21.0787 15.6573 21.3646C15.6545 21.4309 15.8467 21.3574 15.8508 21.4214C15.8695 21.7533 15.8442 22.0959 15.7515 22.418C15.7304 22.4896 15.5701 22.4191 15.5518 22.4531C15.4728 22.6032 15.7778 22.6448 15.7079 22.7888C15.6936 22.8192 15.5554 22.7983 15.54 22.8035C15.2987 22.8851 15.6355 22.9701 15.6423 22.9928C15.7371 23.2809 15.3788 23.4542 15.4218 23.7312C15.4273 23.7644 15.6046 23.6945 15.6093 23.7875C15.6418 24.4065 15.5767 25.0586 15.4206 25.6665C15.3965 25.761 15.2665 25.6897 15.2501 25.6953C14.9937 25.7862 15.3322 25.8581 15.3442 25.8895C15.4301 26.1364 15.1389 26.3575 15.5398 26.5341C15.4055 27.3623 15.5082 28.1936 15.3529 29.0156C15.3146 29.218 15.2607 29.4199 15.1837 29.621C15.1792 29.634 15.0123 29.6062 15.0039 29.6321C14.9018 29.9434 15.1637 29.8899 15.4767 30.1057C15.5553 30.1601 15.1668 30.3092 15.1382 30.3225C15.0331 30.3711 14.7852 30.3115 14.7647 30.3282C14.6031 30.4662 15.4278 30.4643 15.4232 30.656C15.4216 30.662 15.2706 30.6329 15.2551 30.6486C15.2064 30.6974 15.2654 30.7485 15.2119 30.796C15.0882 30.9049 14.6867 30.9344 14.9154 31.1114C14.9451 31.1338 15.4134 31.1129 15.3869 31.2834C15.3759 31.3514 15.3761 31.6537 15.3437 31.7375C15.3112 31.8213 15.1621 31.7593 15.1554 31.7652C14.9503 31.9878 14.8699 31.8993 14.5721 32.0058C14.2753 32.1123 14.9769 32.0988 15.0539 32.1474C15.1307 32.196 14.962 32.3587 14.9038 32.3983C14.8456 32.4379 14.7512 32.3842 14.7179 32.4199C14.5003 32.6562 15.063 32.535 15.1722 32.6176C15.4307 32.8123 14.9072 32.9452 14.8518 33.1159C14.8368 33.162 14.9562 33.1271 14.9662 33.1689C15.0042 33.3341 14.8395 33.4286 14.9834 33.6192C15.0068 33.6504 15.3154 33.8094 15.0835 33.9012C15.0501 33.9142 14.9216 33.8715 14.8908 33.9407C14.8446 34.0441 14.8114 34.2316 14.8518 34.3451C14.8816 34.4288 15.0975 34.3393 15.0285 34.442C14.9977 34.4876 14.8751 34.3984 14.8276 34.4844C14.7802 34.5699 14.78 34.7917 14.7821 34.8762C14.7843 34.9605 14.9474 34.9186 14.9581 34.9257C15.0195 34.9685 15.0934 35.1321 15.0928 35.1464C15.094 35.8671 14.8039 36.5243 14.8761 37.2279C14.8815 37.2831 15.0532 37.2509 15.0558 37.2593C15.1224 37.4496 14.6724 37.2893 14.5171 37.417C14.864 37.4069 14.7993 37.483 14.8338 37.6167C14.8508 37.6811 14.9858 37.6498 14.9994 37.656C15.2006 37.7561 14.9358 37.8153 14.8815 37.8309C14.6819 37.8886 14.9141 37.963 14.7806 38.0023C14.6482 38.0417 14.4559 37.9383 14.4551 38.0656C14.5782 38.1045 14.9047 38.0184 14.9547 38.1164C15.0326 38.2686 15.0324 38.4723 15.0028 38.6797C14.9605 38.9763 14.8581 39.2806 14.8381 39.4527C14.8042 39.7446 14.8246 39.8396 14.7754 40.009C14.6864 40.3148 14.9297 40.2082 15.0348 40.4023C15.1399 40.5969 14.5508 40.4883 14.4229 40.5126C14.2951 40.5364 14.4252 40.5693 14.3544 40.6012C14.2837 40.6329 14.1991 40.558 14.1708 40.6363C14.1426 40.7146 14.3631 40.9363 14.4954 40.9677C14.7755 41.0342 15.0737 40.9445 14.9644 41.1508C14.9579 41.1626 14.8034 41.1196 14.7865 41.1652C14.6573 41.5275 14.6401 41.907 14.5247 42.2692C14.5086 42.319 14.3367 42.2696 14.3254 42.2986C14.2069 42.5999 14.5014 42.4987 14.8212 42.6738C14.3909 42.6252 14.1246 42.7106 14.1161 42.9414C14.1108 43.0802 14.2998 43.0611 14.4303 43.1543C14.4696 43.1823 14.3377 43.2772 14.4258 43.2973C14.7139 43.3634 15.0405 43.2793 14.9053 43.514C14.8989 43.5243 14.7412 43.4869 14.7307 43.5228C14.6618 43.7544 14.964 43.7902 14.9941 44.0432C15.0178 44.2416 14.824 44.5883 14.7882 44.8126C14.3033 44.7953 14.4089 45.0107 14.741 45.1056C14.7235 45.2513 14.7384 45.4095 14.6885 45.5495C14.6715 45.5977 14.5319 45.5621 14.5166 45.5679C14.2762 45.6556 14.5998 45.7275 14.6118 45.7594C14.7269 46.1042 14.4731 46.3763 14.7057 46.7085C14.714 46.7203 15.0504 46.7478 14.8022 46.8286C14.7851 46.8338 14.6346 46.7221 14.6188 46.8752C14.603 47.0283 14.4149 47.3128 14.5655 47.5298C14.6017 47.5824 14.8718 47.7198 14.6555 47.8189C14.6261 47.8321 14.5299 47.8143 14.4756 47.8331C14.3026 47.8937 14.6422 47.938 14.3509 48.007C14.1177 48.0622 13.9297 48.1716 13.9637 48.3259C13.9722 48.3643 13.9944 48.4055 14.033 48.4493C14.0386 48.4563 14.3072 48.5141 14.3011 48.5815C14.2913 48.6892 14.2311 48.8408 14.23 48.9534C14.2295 49.0073 14.398 48.9772 14.4008 48.9866C14.4853 49.3515 14.3293 49.6056 14.2544 49.9922C14.2403 50.063 14.4636 50.2735 14.2793 50.4066C14.0777 50.5528 13.259 50.3761 13.446 50.7289C13.5208 50.8712 14.5599 51.0758 14.0126 51.3139C14.134 51.8063 13.8455 52.2512 14.0242 52.7464C14.0321 52.7687 14.3216 52.846 14.3163 52.8977C14.3078 52.9745 14.1706 53.0132 14.1602 53.0679C14.1132 53.2971 14.2243 53.5107 14.2004 53.7323C14.1917 53.8163 14.0516 53.7833 14.0412 53.8836C14.0308 53.9838 14.2145 54.0556 14.1214 54.1894C14.0505 54.2904 13.669 54.3834 13.6213 54.5187C13.9949 54.5336 13.9848 54.6271 14.0791 54.7963C14.0974 54.8288 14.2284 54.7978 14.2438 54.8134C14.3092 54.8767 14.1999 54.931 14.2714 54.9914C14.2886 55.0061 14.4162 55.0101 14.4374 55.0223C14.6228 55.1261 14.3315 55.2818 14.2808 55.3085C14.0882 55.4109 14.2529 55.4654 14.176 55.5458C14.0991 55.626 14.0088 55.5007 13.961 55.5956C13.862 55.7922 13.876 56.0484 13.8649 56.2504C13.8613 56.331 14.0331 56.2804 14.0365 56.2921C14.0754 56.4599 13.8898 56.6239 14.2268 56.7252C13.3464 56.8181 14.3093 56.8279 14.1275 57.0618C14.1128 57.0802 13.6972 57.0933 13.6382 57.0197C13.5792 56.946 13.7117 56.8401 13.6194 56.7376C13.5977 56.7133 13.2124 56.5676 13.1893 56.5484C13.009 56.3987 13.6296 56.3942 13.6638 56.3874C14.0336 56.3099 13.619 56.1332 13.5912 56.0888C13.4637 55.8856 13.5553 55.7182 13.465 55.5486C13.4066 55.4378 13.0007 55.4166 13.0154 55.3311C13.0638 55.0469 13.633 54.962 13.1487 54.6805C13.0454 54.6202 12.6 54.666 12.9544 54.4685C12.9768 54.4561 13.3001 54.311 13.1004 54.2172C13.0752 54.2054 12.9458 54.2025 12.9353 54.1875C12.8675 54.0873 12.9723 54.0244 12.9257 53.916C12.8791 53.8076 12.8089 53.6769 12.8559 53.5558C12.884 53.4828 13.1275 53.3944 13.1875 53.3607C13.3601 53.2654 13.0841 53.1514 13.2915 53.095C13.5001 53.0381 13.8111 53.1679 13.949 53.0082C13.6131 52.9935 13.2684 52.9706 12.9306 52.9522C12.9517 52.5948 13.0695 52.2457 13.0639 51.8865C13.0629 51.8419 12.881 51.8828 12.8753 51.8349C12.8518 51.6329 12.9851 51.4605 12.9392 51.2505C12.903 51.0879 12.7162 50.9058 12.6724 50.7357C13.0597 50.6425 12.9356 50.3885 12.9755 50.2073C12.9893 50.1438 13.0919 50.1508 13.1266 50.1063C13.2549 49.9384 12.913 50.0098 12.8607 49.9615C12.6376 49.7543 13.4074 49.757 13.3945 49.5192C13.3941 49.5066 12.988 49.3423 12.963 49.3205C12.7999 49.1817 13.1063 49.3019 13.1388 49.2185C13.1981 49.0663 13.2988 48.9621 13.1834 48.7787C13.1492 48.7252 12.8968 48.5925 13.0972 48.4955C13.1234 48.4827 13.2588 48.4937 13.267 48.483C13.3285 48.3969 13.277 48.3461 13.1887 48.3059C13.0799 48.2564 12.9152 48.2229 12.8372 48.1591C12.6959 48.0435 12.9944 47.8784 13.08 47.8455C13.3016 47.7592 13.1719 47.9183 13.1933 47.9239C13.4478 47.989 13.4069 47.8619 13.4311 47.7662C13.849 47.7631 13.8275 47.6278 13.4544 47.6669C13.4136 47.6714 13.4506 47.7474 13.4311 47.7662C13.0235 47.6711 12.9749 47.5218 13.362 47.3683C13.5434 47.2965 13.7508 47.3742 13.6803 47.1399C13.6484 47.0335 13.3598 47.0668 13.2838 46.9718C13.1105 46.7545 13.3858 46.4852 13.3492 46.265C13.336 46.185 13.1766 46.2584 13.162 46.2037C13.1231 46.0583 13.2445 45.9341 13.1877 45.7877C13.1824 45.7744 13.0168 45.8022 13.0158 45.7571C13.0055 45.415 13.1188 45.1203 13.1309 44.7638C13.1367 44.5915 13.0538 44.2811 13.0767 44.103C13.1154 43.7944 13.3648 43.42 13.3134 43.1542C13.2806 42.9809 13.1149 43.0145 13.0045 42.9377C12.7905 42.7895 13.1869 42.5473 13.2482 42.5149C13.2502 42.5139 13.2852 42.6633 13.3719 42.5863C13.5493 42.5449 13.2489 42.5166 13.2482 42.5149C13.2877 42.4936 13.3328 42.1983 13.3028 42.1386C13.2864 42.1062 13.1298 42.1201 13.1242 42.1032C12.9948 41.7034 12.9653 41.3055 13.0487 40.9055C13.0521 40.8985 13.2265 40.9137 13.2321 40.8972C13.3158 40.6665 13.106 40.512 12.9841 40.3169C12.8623 40.1218 12.9087 39.9707 13.2114 39.8649C13.1774 39.7192 13.3154 39.5149 13.3989 39.3975C13.4824 39.2801 13.1429 39.2546 13.1364 39.2439C12.9849 38.9994 13.0517 38.8349 13.1136 38.6308C13.1361 38.5565 13.1579 38.477 13.1684 38.3864C13.1875 38.225 13.1465 37.9029 13.1139 37.7268C13.0875 37.5876 13.1693 37.5062 13.1217 37.3774C13.1153 37.3599 12.9635 37.3734 12.9578 37.368C12.7804 37.221 13.1487 37.299 13.2155 37.2713C13.4586 37.171 13.5883 37.1085 13.48 36.9232C13.4552 36.8805 12.9255 36.7443 12.8963 36.6668C12.8594 36.5661 13.0494 36.6087 13.0058 36.5032C13.0023 36.4941 12.8844 36.4929 12.8912 36.4287C12.9215 36.1303 12.9985 35.8062 12.9948 35.4953C12.9947 35.4528 12.8064 35.5024 12.8032 35.4409C12.7885 35.1527 12.8036 34.8376 12.8983 34.5596C12.9222 34.4912 13.0519 34.5378 13.0912 34.5238C13.3287 34.438 12.9904 34.2988 12.9845 34.2771C12.8336 33.7597 13.1529 33.375 13.0193 32.8482C13.0113 32.8195 12.6508 32.5909 12.9674 32.5012C12.9885 32.4951 13.3123 32.4067 13.0948 32.3154C13.0812 32.3098 12.9142 32.3658 12.9338 32.261C12.9534 32.1563 12.8473 31.9841 13.0328 31.8443C13.0912 31.8 13.4145 31.7001 13.1625 31.5569C13.1449 31.5475 12.5727 31.3218 12.9732 31.2569C13.0391 31.2464 13.4606 31.2701 13.2486 31.1015C13.2074 31.0693 13.1119 31.1234 13.0553 31.0398C12.968 30.9118 13.0853 30.7482 12.9014 30.5888C12.8688 30.561 12.5855 30.4389 12.8051 30.3525C12.8395 30.339 12.9797 30.37 12.9967 30.3219C13.0782 30.0928 12.9903 29.8484 13.0938 29.6163C13.1302 29.5341 13.3567 29.5825 13.42 29.4975C13.4832 29.4124 13.5464 29.2394 13.4447 29.1461C13.343 29.0527 12.9776 29.1424 12.9521 29.0058C12.9488 28.9883 12.9458 28.9708 12.9431 28.9533C12.8545 28.3779 13.0706 27.8153 13.1156 27.2439C13.1225 27.1566 12.9908 27.2257 12.9917 27.0968C12.9943 26.6214 12.8938 25.798 13.1803 25.3929C13.4098 25.0683 13.5673 25.4883 13.6637 25.2382C13.7098 25.1175 13.2914 24.9749 13.2788 24.9451C13.1514 24.6544 13.3434 24.4596 13.2927 24.1996C13.2822 24.1459 13.1099 24.1938 13.1028 24.1482C13.0772 23.9922 13.1577 23.8311 13.1476 23.6824C13.1427 23.6157 13.0118 23.6246 13.0235 23.5636C13.0498 23.4177 13.1081 23.2896 13.2342 23.15C13.2457 23.1372 13.4058 23.2292 13.4147 23.121C13.4285 22.9458 13.5549 22.7312 13.4354 22.5262C13.3995 22.4653 13.1011 22.4552 13.3105 22.3319C13.3543 22.306 13.7117 22.3497 13.406 22.1917C13.3552 22.1652 12.944 21.9025 13.2164 21.7859C13.2881 21.7551 13.5835 21.6795 13.5393 21.6063C13.5322 21.5963 13.3709 21.6313 13.3568 21.5712C13.3099 21.3596 13.3327 21.1396 13.2881 20.9223C13.2759 20.8642 13.1078 20.9459 13.0949 20.8595C13.059 20.622 13.1089 20.3278 13.1668 20.098C13.1885 20.0132 13.3244 20.0757 13.3395 20.0699C13.5853 19.9764 13.2585 19.909 13.2402 19.8754C13.1309 19.6665 13.2892 19.5137 13.2533 19.3229C13.2438 19.2702 13.0863 19.3033 13.0726 19.2925C13.0687 19.2892 13.0651 19.2861 13.0619 19.2832C12.9552 19.1859 13.219 19.2667 13.2508 19.201C13.3435 19.0116 13.3365 18.7975 13.3215 18.6031C13.3157 18.5317 13.1322 18.607 13.1291 18.543C13.1076 18.1639 13.1352 17.771 13.2448 17.4044C13.2657 17.3354 13.4044 17.3828 13.4367 17.3691C13.6626 17.275 13.3617 17.1208 13.3336 17.0864C13.2051 16.9298 13.3302 16.8735 13.3106 16.7377C13.2128 16.0742 13.3158 15.2607 13.3825 14.6385C13.4686 13.8277 13.6179 13.2006 13.6034 12.4249C13.6026 12.3756 13.4154 12.4204 13.4124 12.3779C13.3817 11.8286 13.4683 11.2909 13.4288 10.7404C13.4259 10.6952 13.248 10.7556 13.2374 10.683C13.2144 10.5339 13.2289 10.3462 13.289 10.1976C13.318 10.1252 13.4667 10.2272 13.4928 10.1542C13.554 9.98419 13.5713 9.8007 13.5476 9.62382C13.5475 9.62342 13.5475 9.62303 13.5474 9.62263C13.5352 9.54969 13.3539 9.65646 13.3544 9.55949C13.3536 8.89534 13.3395 8.24272 13.5902 7.57808C13.6075 7.53251 13.9749 7.50164 13.9072 7.40207C13.8057 7.39207 13.686 7.38938 13.5774 7.38336C13.5439 6.41568 13.6956 5.46267 13.7403 4.4943C13.7422 4.45347 13.5462 4.51905 13.5488 4.43998C13.5635 3.98231 13.5212 3.53643 13.7263 3.07321C13.7464 3.02724 14.0873 3.05991 14.0391 2.92167C14.0303 2.89728 13.9901 2.68991 13.9174 2.63468C13.9064 2.62715 13.746 2.66065 13.7431 2.59409C13.7289 2.20735 13.7757 1.80367 13.8831 1.42074C13.9007 1.35895 14.0687 1.42959 14.0828 1.38561C14.181 1.07365 14.0608 0.728451 14.2227 0.432115C14.3317 0.233773 14.6232 0.315787 14.9148 0.216435C14.9559 0.20238 14.9656 0.0780667 15.1338 0.0759755C15.5568 0.0703778 16.018 0.142639 16.4691 0.129548C16.5662 0.12683 16.466 -0.0425842 16.6979 0.0621833C16.7134 0.0694846 16.7881 0.192364 16.8669 0.22419C16.9214 0.246339 17.0932 0.213409 17.1625 0.257518C17.2318 0.301622 17.0873 0.344383 17.1682 0.41663C17.2501 0.488873 17.4453 0.463088 17.4647 0.603634ZM13.7723 38.8687C13.9384 38.7623 13.3409 38.7305 13.4808 38.8539C13.4883 38.8599 13.7641 38.8742 13.7723 38.8687ZM13.5205 52.2594C13.788 52.1216 13.4027 52.0125 13.1964 52.1093C12.9903 52.2061 13.4394 52.3014 13.5205 52.2594ZM13.6743 53.7645C13.8866 53.6008 13.0393 53.5522 13.2061 53.7378C13.2155 53.7485 13.6619 53.774 13.6743 53.7645ZM14.9842 0.713948C14.9922 0.712625 15.0023 0.623344 14.9944 0.621002C14.8058 0.568443 14.7858 0.746973 14.9842 0.713948ZM13.8454 55.2585C13.9615 55.2087 13.833 55.0533 13.6887 55.1152C13.5726 55.165 13.701 55.3205 13.8454 55.2585ZM14.5598 33.113C14.5687 33.1114 14.5784 33.0475 14.528 33.0475C14.3657 33.0477 14.4092 33.1381 14.5598 33.113ZM13.7897 57.7888C13.8313 57.4158 14.5377 57.2073 14.4481 57.6123C14.4319 57.6856 14.2288 57.4476 14.1632 57.5398C14.0438 57.7085 14.4806 57.8339 14.2404 58.003C14.1965 58.0336 13.7858 57.81 13.7888 57.7881C13.7891 57.7883 13.7894 57.7885 13.7897 57.7888ZM14.4922 38.8236C14.5002 38.8216 14.51 38.733 14.5022 38.7306C14.3136 38.6776 14.2937 38.8561 14.4922 38.8236ZM15.0264 29.3791C15.0433 29.3747 15.0644 29.169 15.0491 29.1619C14.7414 29.0463 14.6978 29.4622 15.0264 29.3791ZM14.7751 44.8158C14.9636 44.9176 14.9831 45.0341 14.7413 45.1052C14.7565 45.0092 14.7609 44.9123 14.7751 44.8158ZM1.57849 18.5326C2.01582 18.2962 2.55271 18.0492 3.08205 17.8278C3.55072 17.6314 4.02591 17.4489 4.42991 17.3052C4.70798 17.2055 4.61548 17.3637 4.81141 17.2985C5.18059 17.1774 5.50877 16.9737 5.87882 16.8633C6.00367 16.8263 5.92473 17.0449 6.05416 17.0026C6.12058 16.9808 6.18651 16.9581 6.25208 16.9347C6.88238 16.71 7.45876 16.4241 8.1017 16.1845C8.49544 16.038 8.89249 15.8904 9.28671 15.7449C10.3117 15.3666 11.3302 14.9957 12.3674 14.6369C13.4078 14.2788 14.4361 13.9385 15.5364 13.638C16.7724 13.535 17.2701 12.5789 19.7997 13.7002C19.8693 13.7703 19.9435 13.845 20.0055 13.9315C20.2601 17.0516 18.9939 17.2729 18.5479 18.737C18.48 18.8788 18.6541 18.867 18.6505 18.8991C18.5973 19.3838 18.4108 19.1046 18.2344 19.341C18.1273 19.484 18.0194 19.6338 17.9108 19.7894C17.3329 20.6098 16.7809 21.5304 16.3345 22.3557C16.1096 22.7715 16.6071 22.5189 16.217 22.8415C16.19 22.8641 16.1199 22.679 16.0373 22.7819C15.8456 23.0227 15.5868 23.4939 15.4531 23.6847C15.2495 23.9738 15.1816 24.0767 15.0506 24.283C15.019 24.3328 14.9834 24.389 14.9409 24.456C14.6389 24.9291 14.2079 25.4628 13.9141 25.9876C13.851 26.1011 14.0787 26.043 13.9901 26.2319C13.9011 26.4218 13.5931 26.8754 13.4623 27.0081C13.3308 27.142 13.2673 27.0078 13.2254 27.0195C12.8758 27.1115 12.8143 27.8272 12.7771 27.8995C12.6129 28.2147 12.4383 28.5097 12.2574 28.7917C11.682 29.6887 11.0446 30.4531 10.4618 31.3327C10.0624 31.9358 9.67996 32.5631 9.28672 33.1806C9.10161 33.4714 8.92492 33.7438 8.74011 34.0146C8.06555 35.0015 7.43122 35.7883 6.79052 36.7661C6.72448 36.8666 6.95957 36.8553 6.87944 36.978C6.74073 37.1904 6.5824 37.4298 6.43827 37.6455C5.70739 38.7404 4.9359 39.8234 4.13815 40.8418C4.0464 40.9581 4.01683 40.7011 3.90836 40.825C3.48054 40.9103 3.86768 41.9815 2.67707 41.0021C2.83289 40.7913 3.61052 40.1804 3.52389 39.6168C4.01859 39.2198 4.66992 38.6823 5.1849 38.4205C5.53974 38.2312 5.3712 38.6216 5.68792 38.2382C5.75073 38.1596 5.54921 38.127 5.65179 38.0177C6.0772 37.5636 6.70747 37.0736 7.1136 36.6048C7.20218 36.5037 7.08116 36.4217 7.09264 36.3775C7.19218 36.0134 7.83827 35.8974 7.92605 35.8529C8.33737 35.6221 8.65938 35.3704 8.97021 35.0989C9.2366 34.8662 9.46359 34.6466 9.75028 34.3963C9.89343 34.2715 9.5991 34.2776 9.73257 34.1521C10.4557 33.4778 11.1558 32.8832 11.936 32.3103C12.1007 32.1913 12.0677 32.4358 12.152 32.3851C12.523 32.1593 12.3933 31.866 12.7506 31.6407C12.8259 31.5928 12.8799 31.7299 12.9021 31.7307C13.249 31.7446 13.1921 31.3441 13.2365 31.2953C13.7897 30.6752 14.4015 30.6105 14.9724 30.0464C15.0402 29.9788 14.7624 29.9881 14.9604 29.8062C15.1943 29.5912 15.4179 29.3892 15.6546 29.18C16.774 28.1908 17.9516 27.2427 19.1262 26.386C19.3463 26.2254 19.2851 26.4517 19.3087 26.4529C19.6854 26.4641 19.601 26.0883 19.6601 26.0207C20.1334 25.4932 20.816 25.2853 20.914 24.6691C21.4438 24.2591 21.965 23.8332 22.4779 23.4057C24.237 21.9397 25.9471 20.4143 27.8845 19.1872C27.9162 19.1666 27.9705 19.3389 28.0333 19.2972C28.79 18.7986 28.4906 18.7075 28.7487 18.086C28.8139 17.9296 29.4067 17.9435 29.4587 17.9377C29.6393 17.9249 29.6768 18.2155 29.7281 18.1998C29.7383 18.1965 29.7479 18.1929 29.7569 18.1891C30.1188 18.0356 29.5864 17.4567 30.0043 17.1191C30.0186 17.1094 30.0576 17.2729 30.103 17.2557C30.2442 17.2027 30.3167 17.0669 30.4581 17.0203C30.7844 16.9133 31.1154 17.1612 31.3578 16.6692C31.3878 16.6066 31.0219 16.2999 31.4228 16.0091C31.5837 15.8923 32.2556 15.3507 32.4608 15.2286C32.667 15.1051 32.6313 15.3248 32.6487 15.3194C33.2931 15.0674 33.1465 15.2874 33.5878 15.317C34.027 15.3474 33.5246 14.8503 33.582 14.7065C33.6401 14.5624 34.116 14.4021 34.2418 14.3775C34.3681 14.3524 34.3126 14.5161 34.4135 14.4792C35.0917 14.2248 34.4441 14.017 34.5594 13.7884C34.835 13.246 35.4833 13.4073 35.8986 13.1592C36.0109 13.0922 35.855 13.0611 35.941 12.9829C36.1903 12.7599 36.424 12.6713 36.6562 12.495C36.7606 12.4159 36.8648 12.3191 36.9699 12.1849C37.0298 12.1109 37.1736 11.6188 37.5507 11.63C37.6031 11.633 37.5851 11.8056 37.769 11.709C38.0444 11.5641 38.5 11.2754 38.7301 11.0622C38.9017 10.9034 38.5586 10.8822 38.8413 10.7663C38.9722 10.7116 38.8324 10.9604 39.0717 10.8496C39.3116 10.7376 39.8353 10.3753 40.0255 10.2447C40.2171 10.1122 40.0215 10.0478 40.0311 10.0282C40.0817 9.91884 40.4587 9.57959 40.4889 9.56116C41.6786 8.78833 42.9784 8.13419 44.2649 7.7202C44.2649 7.72021 44.265 7.72017 44.265 7.72018C44.2811 7.71518 44.3037 7.7083 44.3238 7.70297C44.3449 7.69732 44.3675 7.69187 44.3918 7.68708C44.4161 7.68231 44.4423 7.67822 44.47 7.67551C44.4978 7.67281 44.5272 7.67151 44.5576 7.67233C44.588 7.67314 44.6193 7.67608 44.6504 7.68139C44.678 7.68576 44.7204 7.69644 44.7416 7.70388C44.7416 7.70388 44.7415 7.70386 44.7416 7.70389C45.4446 8.0069 45.5344 8.81185 45.6882 9.26259C45.7303 9.42948 45.874 9.28321 45.8822 9.30817C46.0576 9.86048 45.5315 9.49849 45.4426 9.89356C45.7754 9.78122 45.7539 10.0325 45.8332 10.4066C45.8708 10.5836 45.9938 10.4726 46.0092 10.4872C46.2402 10.7385 45.9937 10.9675 45.9441 11.022C45.7613 11.2244 46.0065 11.3878 45.8819 11.5224C45.7578 11.6525 45.5473 11.3822 45.5703 11.747C45.6997 11.8451 46.0088 11.55 46.0761 11.8324C46.2253 12.4442 46.2076 13.3847 46.1505 14.2276C46.1115 14.7969 46.0564 15.3465 46.0408 15.6914C46.0025 16.5111 46.0171 16.8187 45.961 17.2853C45.8564 18.1623 46.1051 17.8542 46.1987 18.4041C46.2913 18.9511 45.7083 18.6679 45.5787 18.7417C45.449 18.8144 45.577 18.903 45.5039 18.9969C45.4308 19.0905 45.3515 18.8797 45.3175 19.1047C45.2836 19.3312 45.4868 19.9603 45.6167 20.0411C45.8918 20.2203 46.1982 19.9531 46.0711 20.5466C46.0636 20.5808 45.9126 20.4628 45.8916 20.5942C45.8861 20.6297 45.8808 20.6654 45.8755 20.7012C45.7268 21.7081 45.6702 22.7621 45.5229 23.7593C45.5016 23.9026 45.3345 23.7661 45.3202 23.8494C45.17 24.7179 45.4758 24.4158 45.778 24.9073C45.3519 24.7812 45.0762 25.0308 45.0435 25.6931C45.0236 26.0905 45.2151 26.0295 45.3361 26.2919C45.3726 26.3705 45.2306 26.6451 45.3168 26.7C45.5783 26.8678 45.8864 26.6647 45.8019 27.1737C45.7953 27.2133 45.7864 27.2572 45.7749 27.3059C45.7674 27.3355 45.6133 27.2333 45.5991 27.3361C45.5065 27.9998 45.8057 28.0926 45.8112 28.8141C45.8154 29.3806 45.5894 30.3748 45.5349 31.0174C45.0506 30.9852 45.1386 31.5985 45.4642 31.8555C45.4357 32.2672 45.439 32.7257 45.3802 33.1255C45.3601 33.2635 45.2226 33.1682 45.2069 33.1851C45.0358 33.3662 45.1379 33.5133 45.2197 33.6162C45.2556 33.6614 45.2876 33.6981 45.2907 33.7255C45.3865 34.7118 45.1218 35.4914 45.3487 36.4314C45.3569 36.4643 45.6929 36.5225 45.4438 36.7647C45.4267 36.7807 45.2771 36.4742 45.26 36.9078C45.2425 37.3591 45.0568 38.1636 45.2161 38.7834C45.2542 38.9322 45.5301 39.3009 45.3202 39.5952C45.2917 39.6346 45.1945 39.5932 45.1415 39.6502C44.9966 39.8083 45.2278 39.9089 45.1166 40.0736C45.0981 40.1012 45.0702 40.1307 45.0297 40.1629C44.745 40.3945 44.5366 40.8368 44.7594 41.4602C44.766 41.48 45.0411 41.6173 45.0452 41.8091C45.0509 42.1112 45.0176 42.5515 45.0409 42.8793C45.0519 43.0334 45.2127 42.9237 45.2175 42.9502C45.3842 43.9686 45.2978 44.7118 45.4145 45.8169C45.4294 45.9492 45.5662 46.2103 45.6451 46.4678C45.6451 46.4678 45.6451 46.4677 45.6451 46.4678C45.6954 46.638 45.7264 46.8078 45.6988 46.9623C45.6326 47.4242 44.6722 47.1892 45.2237 48.1658C45.4926 48.6107 46.5939 48.5671 46.5924 49.4295C46.7377 49.5775 46.8912 49.7232 47.0505 49.8554C47.9562 50.6644 49.32 50.9173 50.4528 50.4249C50.4878 50.4104 50.5428 50.2917 50.6077 50.1859C50.653 50.1097 50.7013 50.0412 50.7591 50.0237C50.9605 49.9627 51.128 50.0439 51.2738 49.9953C51.9041 49.783 52.3761 49.3994 52.9291 49.0891C53.1342 48.9718 53.1371 49.1362 53.3855 48.9886C53.5895 48.8653 53.6606 48.6746 53.8764 48.5278C53.9278 48.4927 53.9875 48.4599 54.0593 48.4306C54.339 48.3174 54.799 48.4521 55.1465 48.2431C54.9317 47.9361 55.149 47.7831 55.4624 47.4047C55.521 47.3329 55.3637 47.2926 55.3871 47.2534C55.48 47.0923 55.6737 47.0729 55.7558 46.9096C55.7759 46.8701 55.6956 46.7708 55.7072 46.733C55.8019 46.41 56.3349 46.3285 56.4298 46.3112C56.5749 46.2867 56.6596 46.2364 56.7246 46.1783C56.8198 46.0932 56.8724 45.9917 57.0058 45.9311C57.2305 45.8284 57.032 46.1345 57.2668 45.9828C57.7523 45.6691 58.2725 45.1479 58.6904 44.7459C58.8566 44.585 58.6245 44.574 58.6455 44.5481C58.9394 44.202 59.3775 43.9892 59.371 43.6028C59.3707 43.5826 59.3691 43.5618 59.3662 43.5405C60.2247 43.9169 59.5075 43.276 60.1033 42.9073C60.1503 42.8785 60.4987 43.1146 60.4 43.3065C60.3014 43.4981 59.9883 43.6364 59.8564 43.9073C59.8474 43.9257 59.8414 43.984 59.8367 44.0592C59.8254 44.2465 59.8212 44.5394 59.806 44.5785C59.6394 45.0073 59.1589 44.6087 59.1197 44.6C58.6844 44.5149 58.6371 45.1461 58.5651 45.255C58.2424 45.7501 57.8226 46.0221 57.528 46.417C57.3826 46.6104 57.4847 46.8399 57.4626 47.0096C57.4552 47.0663 57.4339 47.1162 57.3848 47.1553C56.7218 47.6797 56.1428 47.4259 55.8351 48.301C55.7662 48.4875 56.1729 48.7378 55.4738 48.8333C55.4276 48.8416 54.8718 48.8586 54.7787 49.1712C54.7668 49.2109 54.8421 49.3162 54.8119 49.3509C54.7356 49.437 54.6565 49.4946 54.5751 49.5443C54.4377 49.6282 54.2989 49.6871 54.1434 49.8256C53.8927 50.0482 53.6031 50.3143 53.2432 50.4675C53.0337 50.5569 52.6563 50.4833 52.5332 50.479C52.1913 50.4634 51.9999 50.8565 51.7395 50.7418C51.4869 50.6216 51.6978 50.1982 51.2064 50.2503C51.31 50.5707 51.3913 50.9089 51.4783 51.2373C51.3105 51.2976 51.1439 51.3498 50.9743 51.3956C49.9947 51.6563 48.8604 51.74 47.7088 51.3476C47.543 51.2882 47.6501 51.5228 47.4652 51.4576C47.0022 51.2858 46.6343 51.0021 46.3184 50.6959C46.0892 50.4737 45.8903 50.2456 45.6751 50.0023C45.2785 49.556 44.8124 49.0911 44.5308 48.5163C44.7509 48.0528 44.3879 47.3385 44.3069 46.78C44.3062 46.7751 44.3055 46.7703 44.3048 46.7656C44.2846 46.598 44.3829 46.5848 44.3891 46.4519C44.4143 45.9268 44.1264 46.2253 44.0477 46.0946C43.7205 45.5161 44.475 45.3606 44.3704 44.6457C44.3651 44.6143 43.9106 44.2094 43.8797 44.1438C43.6765 43.7515 44.0153 44.0634 44.023 43.8054C44.0396 43.3382 44.117 43.0463 43.9661 42.5092C43.9214 42.351 43.6483 42.0118 43.8338 41.7016C43.8581 41.6613 43.9945 41.6775 44.0011 41.6457C44.1116 41.0645 43.6868 41.0649 43.5333 40.7481C43.4428 40.5597 43.5054 40.3023 43.5894 40.1014C43.6471 39.963 43.7149 39.8516 43.7488 39.8086C43.9642 39.5351 43.8455 40.0151 43.8676 40.0295C44.1268 40.1994 44.0756 39.8206 44.0943 39.5511C44.5113 39.507 44.4827 39.1239 44.112 39.2661C44.0715 39.2826 44.1126 39.4962 44.0943 39.5511C43.6815 39.3164 43.6251 38.8882 44.0079 38.4076C44.1877 38.1848 44.3958 38.3965 44.3217 37.7323C44.2889 37.4293 44.0005 37.5448 43.9242 37.2745C43.7503 36.6513 44.0311 35.8736 44.0029 35.2343C43.9925 35.0073 43.8302 35.2247 43.8177 35.0692C43.7843 34.656 43.9118 34.2926 43.8631 33.8709C43.8585 33.8327 43.6911 33.9211 43.6927 33.7902C43.6934 33.7166 43.6948 33.6437 43.6968 33.5712C43.7217 32.6831 43.84 31.8811 43.8789 30.9366C43.899 30.4408 43.844 29.5572 43.8843 29.0449C43.9315 28.4323 44.084 27.7283 44.1657 27.1002C44.2021 26.8205 44.2244 26.5566 44.2171 26.3233C44.2022 25.8295 44.0326 25.931 43.93 25.7142C43.7312 25.2942 44.1537 24.5923 44.2183 24.499C44.2205 24.4959 44.2401 24.9204 44.3349 24.6987C44.517 24.5756 44.2189 24.5038 44.2183 24.499C44.2601 24.4412 44.3361 23.5892 44.312 23.4215C44.2988 23.3295 44.1405 23.3736 44.1366 23.3258C44.0659 22.4325 44.057 21.531 44.1137 20.631C44.1288 20.3913 44.1484 20.1531 44.1726 19.9163C44.1765 19.8965 44.35 19.9331 44.357 19.8864C44.4593 19.2286 44.2605 18.7863 44.1503 18.2496C44.0407 17.6926 44.0942 17.2642 44.4014 16.956C44.3737 16.5424 44.5171 15.9481 44.6014 15.6225C44.6861 15.2842 44.3461 15.2286 44.3397 15.1998C44.2569 14.822 44.2371 14.5274 44.2447 14.2326C44.2554 13.7657 44.3298 13.3831 44.3326 12.792C44.3382 12.3541 44.2471 11.4533 44.1664 10.9983C44.1028 10.6257 44.1607 10.4231 44.0609 10.0928C44.0477 10.0516 43.9045 10.1171 43.8968 10.1051C43.6648 9.80672 44.0549 9.90415 44.1086 9.8241C44.2993 9.53041 44.368 9.26094 44.183 9.07582C44.1204 8.97692 43.7112 9.45045 44.0573 9.58304C44.0997 9.59546 44.1305 9.60014 44.1524 9.60415C44.1524 9.60417 44.1524 9.60415 44.1524 9.60416C44.1838 9.61406 44.3045 9.63898 44.3452 9.63936C44.4224 9.64555 44.4846 9.64131 44.5355 9.63349C44.6 9.62338 44.6479 9.60757 44.6907 9.59094C44.7297 9.57558 44.7646 9.55902 44.7962 9.5434C44.8195 9.5318 44.8408 9.52067 44.8566 9.51215C44.8644 9.50708 44.8867 9.49766 44.8799 9.4992C44.8798 9.49922 44.8799 9.49921 44.8799 9.49921C44.86 9.50502 44.837 9.51522 44.81 9.53153C44.7916 9.54272 44.8372 9.64982 44.6943 9.70063C43.9912 9.96312 43.255 10.298 42.549 10.7358C42.4479 10.7984 42.675 10.8793 42.5302 10.9728C41.9111 11.3749 41.1357 11.8763 40.462 12.2319C40.288 12.3242 40.3152 12.147 40.2581 12.139C39.9037 12.0966 39.7961 12.5885 39.7569 12.6241C39.1145 13.1965 38.4286 13.5998 37.7847 14.0238C37.3581 14.3061 36.9269 14.6135 36.5118 14.9997C36.4536 15.0541 36.1809 15.7215 35.7645 15.6454C35.7349 15.6417 35.3202 15.5546 35.2672 15.8732C35.2638 15.8931 35.4983 15.9212 35.2552 16.0875C35.0119 16.2541 34.7015 16.6351 34.2616 16.7486C34.1221 16.785 33.678 16.7256 33.5377 17.1617C33.5292 17.1909 33.4213 18.0128 33.0049 17.8347C32.9367 17.8052 32.7035 17.4512 32.472 17.9122C32.4281 18.0009 32.614 17.9729 32.466 18.1662C32.2395 18.4629 31.8087 18.6634 31.583 19.0868C31.5442 19.1608 31.4703 19.5884 31.1286 19.5854C31.0751 19.585 31.0475 19.426 30.9292 19.5015C30.9055 19.5167 30.8819 19.5321 30.8584 19.5477C30.3276 19.9018 29.8772 20.3756 29.3194 20.7125C29.1138 20.8369 29.0634 20.5836 28.8326 20.6943C28.5996 20.8067 28.1839 21.0734 28.0503 21.3188C27.9178 21.5635 28.3663 21.6635 28.087 21.9323C26.8699 23.1039 25.4569 24.0108 24.1534 25.0729C24.0211 25.1807 24.0924 25.1986 24.0615 25.2758C24.0472 25.3114 24.011 25.3597 23.923 25.4353C22.8945 26.318 21.1921 27.9344 20.1263 28.489C19.2638 28.9402 20.0587 28.0334 19.4503 28.4388C19.1571 28.6349 19.148 29.2003 19.0933 29.2651C18.5652 29.8997 18.0094 30.134 17.4874 30.6633C17.3802 30.7722 17.6051 30.8033 17.5127 30.8945C17.4474 30.9594 17.3785 31.0214 17.3076 31.0814C17.0352 31.3121 16.7425 31.5063 16.4885 31.7423C16.3482 31.8735 16.4607 31.9487 16.3214 32.0568C15.9894 32.3163 15.6756 32.5174 15.2921 32.6902C15.2571 32.7059 15.3363 32.4208 15.1025 32.6172C14.7202 32.9392 14.1611 33.2683 13.8167 33.7365C13.7145 33.8761 13.9059 34.1052 13.4992 34.188C13.4117 34.2076 13.2496 33.8727 13.1265 34.3932C13.1044 34.4812 12.8362 35.2734 12.3994 35.2993C12.2818 35.3084 11.9201 35.2361 11.7902 35.412C11.7736 35.4365 11.9656 35.481 11.8448 35.6083C11.4215 36.05 10.962 36.4348 10.5378 36.8727C10.5303 36.8803 10.5229 36.888 10.5155 36.8956C10.3978 37.018 10.6963 36.9756 10.5178 37.1536C10.0247 37.6454 9.39595 38.1456 8.84539 38.5638C8.65125 38.7098 8.68535 38.496 8.66221 38.4965C8.28939 38.5017 8.38644 38.8545 8.3311 38.9291C7.95329 39.417 7.51252 39.6015 7.14997 39.9772C7.03814 40.0908 7.22633 40.1333 7.2119 40.1647C7.05971 40.4817 7.05337 40.1117 6.88105 40.2229C6.41831 40.5154 5.95278 40.9441 5.56062 41.3163C5.42246 41.4481 5.70267 41.4433 5.57845 41.5589C4.80169 42.1095 5.21553 42.3449 2.92644 43.3716C-0.672865 38.0405 2.29987 40.5741 1.8023 39.5308C1.9412 39.3535 1.98116 39.5478 2.0331 39.5268C2.35631 39.4407 2.36614 38.8749 2.38481 38.7946C2.50226 38.379 2.73395 38.2552 2.9118 37.9484C3.27929 37.3245 3.67568 36.7082 4.10364 36.0724C4.83838 34.9812 5.62901 33.887 6.28114 32.972C6.58717 32.5421 6.87466 32.1451 7.15652 31.7572C8.12878 30.4186 9.00433 29.2335 9.9198 27.7885C9.99514 27.6698 9.76194 27.6864 9.82481 27.5829C9.88067 27.492 9.9369 27.4015 9.99342 27.3113C10.7636 26.0823 11.5933 24.9087 12.3282 23.6556C12.3936 23.5448 12.1455 23.607 12.2453 23.4261C12.3584 23.2194 12.4984 22.9906 12.6459 22.7733C12.7624 22.6018 12.8913 22.4256 13.0118 22.2794C13.1448 22.1171 13.1258 22.4339 13.257 22.2691C13.56 21.8895 13.8451 21.4513 14.0812 21.0094C14.1801 20.8232 13.8612 21.0003 14.0012 20.7661C14.4817 19.9579 14.948 19.1488 15.4141 18.369C15.888 17.573 16.3607 16.8158 16.8503 16.0644C16.9162 15.9629 17.3025 16.0049 17.3391 15.7488C17.2534 15.6909 17.1433 15.6439 17.0469 15.5931C17.4537 15.2086 16.9072 14.1098 17.7656 15.7343C19.1615 16.2867 16.9887 16.04 16.3503 16.4146C15.3969 16.6721 14.436 16.9876 13.4659 17.3436C13.3721 17.3782 13.5526 17.4675 13.4634 17.5414C13.4502 17.5523 13.431 17.563 13.4041 17.5731C12.4347 17.9379 11.5105 18.3474 10.505 18.6698C10.2677 18.7459 10.0258 18.8172 9.77799 18.882C9.64983 18.9159 9.57805 18.5749 9.2422 18.7743C9.18317 18.8094 8.66173 19.083 8.55458 19.2106C8.54037 19.229 8.70079 19.3332 8.5312 19.4118C8.20306 19.5629 7.87818 19.7067 7.53957 19.8507C6.8507 20.1435 6.13301 20.4242 5.4384 20.6684C5.26803 20.7284 5.37177 20.4945 5.25007 20.5358C4.98614 20.6259 4.74095 20.7305 4.47542 20.8518C3.892 21.1182 3.31468 21.4201 2.73383 21.5757C2.16145 21.7315 2.25231 21.3639 1.83695 21.2413C1.78551 21.2205 1.44998 21.3738 1.37216 21.2249C1.14917 20.863 1.09386 20.3761 0.839154 19.9986C0.798449 19.9101 0.393957 20.2214 0.551492 19.8849C0.565732 19.8605 0.84692 19.6392 0.888192 19.5316C0.916094 19.4573 0.748513 19.3478 0.825273 19.2332C0.913578 19.1132 1.08883 19.1885 1.23719 19.0267C1.40128 18.8565 1.21546 18.729 1.57849 18.5326ZM44.9685 14.0969C45.1299 13.7764 44.5313 13.7359 44.6766 14.0772C44.6843 14.0938 44.9605 14.1135 44.9685 14.0969ZM49.0753 51.1235C48.6204 50.8495 48.231 51.1452 48.5531 51.4111C48.9185 51.6657 49.2302 51.2023 49.0753 51.1235ZM53.3132 49.4701C52.7853 49.5449 53.1322 50.3235 53.5212 49.8924C53.5433 49.8676 53.3441 49.4654 53.3132 49.4701ZM3.08221 20.5632C3.07314 20.5586 2.83994 20.6592 2.83968 20.668C2.7978 20.8974 3.26203 20.697 3.08221 20.5632ZM56.6329 46.7133C56.4431 46.7273 56.1983 47.1092 56.4336 47.0963C56.6241 47.086 56.8704 46.6959 56.6329 46.7133ZM36.0842 13.385C36.075 13.3807 35.9266 13.4822 35.9597 13.5204C36.0672 13.6425 36.2389 13.4564 36.0842 13.385ZM61.7683 41.5808C61.0226 42.3546 60.0672 42.3469 60.9132 41.5493C61.066 41.4041 60.7713 42.034 60.9989 41.8797C61.4137 41.5984 61.3105 41.057 61.8149 40.8466C61.9082 40.8076 61.814 41.5361 61.7677 41.5828C61.7679 41.5822 61.7681 41.5815 61.7683 41.5808ZM45.6859 13.9081C45.6939 13.9011 45.6991 13.646 45.691 13.6406C45.4999 13.5051 45.4894 14.0167 45.6859 13.9081ZM27.4616 19.7469C27.4403 19.7425 26.9769 20.1045 26.9719 20.129C26.9335 20.5632 27.8701 19.8326 27.4616 19.7469ZM45.5216 31.027C45.7019 31.3118 45.7121 31.643 45.4645 31.8542C45.4871 31.5805 45.4993 31.3037 45.5216 31.027Z" fill="black"/>
</svg>
