<svg width="31" height="58" viewBox="0 0 31 58" fill="none" xmlns="http://www.w3.org/2000/svg">
<path d="M5.98361 1.84394C5.98167 2.10446 5.8596 2.42072 5.7345 2.65558C5.69553 2.72921 5.59954 2.66872 5.56797 2.71872C5.50637 2.81664 5.53783 2.92551 5.46909 3.02085C5.4458 3.05238 5.28949 2.97679 5.26883 3.01065C5.15683 3.1966 5.16239 3.3943 5.08902 3.59067C4.72726 4.55918 4.49559 5.53935 4.26208 6.54996C4.25945 6.56138 4.25665 6.57287 4.25372 6.58441C4.1709 6.90962 3.97371 7.28556 3.98949 7.63173C3.99154 7.6736 4.14093 7.67006 4.15186 7.67952C4.31878 7.82695 4.02989 7.74486 3.97955 7.81872C3.78077 8.11099 3.71926 8.46456 3.73616 8.77564C3.74377 8.90826 4.05093 8.81618 3.87113 8.92522C3.85895 8.93285 3.70794 8.87999 3.68681 8.91335C3.63916 8.9891 3.64751 9.1453 3.62741 9.20604C3.58782 9.32326 3.58701 9.34254 3.57108 9.45704C3.54803 9.61303 3.44834 9.78979 3.46383 9.96152C3.4676 9.9982 3.63252 9.96968 3.65295 10.0298C3.6733 10.0899 3.64234 10.2388 3.59898 10.2852C3.55556 10.3317 3.43274 10.2957 3.40299 10.3014C3.15204 10.348 3.46823 10.5603 3.4741 10.5833C3.57012 11.0076 3.34147 11.3409 3.30363 11.7248C3.29626 11.8007 3.29309 11.8784 3.29185 11.9565C3.28829 12.1784 3.29987 12.4088 3.2748 12.6137C3.23372 12.9451 3.12324 13.2152 3.11173 13.5404C3.11034 13.5747 3.30164 13.5499 3.30033 13.5918C3.28627 14.038 3.23372 14.4686 3.07689 14.9015C3.06099 14.945 2.89957 14.8767 2.8738 14.9195C2.7195 15.1819 2.36672 15.5923 3.07769 15.7932C3.03912 15.9709 2.99764 16.1957 2.84398 16.3519C2.74505 16.4531 2.57013 16.3408 2.64037 16.4752C2.65601 16.5054 2.81577 16.4752 2.82731 16.5199C2.87577 16.7078 2.81496 16.9067 2.88853 17.0917C2.90386 17.1293 3.04578 17.1255 3.07079 17.137C3.27329 17.2321 2.926 17.367 2.89992 17.3983C2.89928 17.3991 2.89865 17.3999 2.89803 17.4006C2.7055 17.6386 2.77113 17.8206 2.75894 18.0469C2.75604 18.0996 2.94823 18.0437 2.95228 18.0946C2.97083 18.3564 2.94661 18.6294 2.85593 18.8878C2.83532 18.9451 2.67462 18.8881 2.65648 18.9153C2.57853 19.0353 2.88387 19.0691 2.81531 19.1835C2.80126 19.2077 2.66288 19.191 2.64756 19.1952C2.40703 19.2603 2.74463 19.3276 2.75177 19.3456C2.84977 19.5733 2.49389 19.7106 2.54121 19.9357C2.54724 19.9623 2.72343 19.9046 2.72967 19.9792C2.77239 20.4759 2.72295 20.9874 2.58624 21.4823C2.56522 21.5582 2.43298 21.5052 2.41676 21.51C2.16344 21.59 2.50416 21.6373 2.5172 21.6617C2.6113 21.8549 2.32851 22.037 2.73599 22.1675C2.7008 22.3997 2.69501 22.6289 2.69811 22.855C2.70658 23.4554 2.77498 24.0297 2.54541 24.6451C2.54177 24.6558 2.37343 24.6461 2.36691 24.6674C2.28684 24.9232 2.54431 24.8606 2.87192 25.0043C2.95418 25.0403 2.57813 25.1879 2.55076 25.2011C2.44978 25.2496 2.19821 25.2221 2.17903 25.2374C2.02895 25.3641 2.85033 25.2916 2.86102 25.4449C2.85998 25.4498 2.7072 25.44 2.69303 25.4539C2.64853 25.4974 2.71146 25.5328 2.66213 25.5756C2.54793 25.6732 2.15069 25.7351 2.39345 25.8537C2.42495 25.8684 2.88919 25.8074 2.87757 25.9427C2.87241 25.9967 2.89957 26.2303 2.87569 26.3042C2.8514 26.3747 2.69723 26.3411 2.69114 26.3465C2.50868 26.5472 2.42035 26.4849 2.1348 26.6036C1.85054 26.7225 2.54628 26.6326 2.62761 26.6622C2.70869 26.692 2.55761 26.8392 2.50395 26.8771C2.4502 26.915 2.35094 26.884 2.32157 26.916C2.13016 27.1275 2.67611 26.9646 2.79305 27.0155C3.06985 27.1329 2.56598 27.3103 2.53069 27.4533C2.5212 27.4921 2.63546 27.4485 2.65018 27.4803C2.70699 27.6059 2.55502 27.7031 2.72041 27.8307C2.74755 27.8532 3.07151 27.9259 2.85441 28.0356C2.82305 28.0511 2.69043 28.0357 2.66899 28.0962C2.64654 28.1591 2.63591 28.2538 2.65035 28.3331C2.65662 28.3676 2.66761 28.3993 2.68438 28.4244C2.72529 28.4854 2.92615 28.3809 2.87204 28.4719C2.8479 28.5124 2.71465 28.4626 2.67965 28.5374C2.64458 28.6123 2.67543 28.7828 2.68985 28.8473C2.70479 28.9153 2.85901 28.8529 2.87065 28.8568C2.93753 28.8809 3.03511 28.9976 3.03678 29.0086C3.14551 29.5564 2.9777 30.133 3.19678 30.6558C3.21361 30.696 3.37273 30.6277 3.37701 30.6334C3.48116 30.7569 3.01287 30.7548 2.89053 30.8918C3.22303 30.7929 3.17629 30.8653 3.23921 30.955C3.27064 31.0011 3.39296 30.9388 3.40747 30.94C3.62394 30.961 3.38376 31.0796 3.33565 31.1076C3.15835 31.2095 3.39839 31.1978 3.2804 31.2663C3.16368 31.3355 2.95456 31.3144 2.98557 31.4115C3.1124 31.403 3.40267 31.2415 3.47408 31.2977C3.74084 31.5107 3.66819 32.0646 3.74453 32.2904C3.80436 32.4879 3.86724 32.5567 3.8833 32.6791C3.91857 32.9015 4.08759 32.7126 4.23781 32.7431C4.38601 32.7644 3.90434 33.1049 3.81738 33.2021C3.73422 33.303 3.84744 33.2353 3.81178 33.3026C3.77758 33.3714 3.67514 33.3831 3.69817 33.4523C3.72887 33.5341 4.02134 33.5049 4.11842 33.41C4.30084 33.2491 4.43077 33.0301 4.48319 33.0707C4.4935 33.0784 4.50177 33.0931 4.50811 33.1156C4.51107 33.1252 4.3955 33.2344 4.41193 33.2648C4.56034 33.491 4.6911 33.5197 4.99147 33.5007C5.03236 33.4967 5.07962 33.6669 5.10668 33.6648C5.3853 33.6298 5.15465 33.4221 5.04526 33.1012C5.29034 33.4555 5.51851 33.6209 5.67218 33.4752C5.76136 33.3876 5.61327 33.2681 5.56165 33.1282C5.54489 33.0874 5.69282 33.1144 5.63453 33.0456C5.44144 32.8241 5.14863 32.6725 5.35479 32.6206C5.3645 32.6181 5.47427 32.7353 5.49877 32.7193C5.62141 32.639 5.5034 32.5066 5.48015 32.3708C5.47331 32.3318 5.47402 32.2924 5.49035 32.2526C5.54323 32.122 5.83846 31.9888 5.94829 31.85C6.3704 32.0897 6.35561 31.8849 6.09054 31.6693C6.15756 31.5711 6.19441 31.4561 6.28417 31.378C6.315 31.3509 6.43024 31.4349 6.44596 31.4373C6.69285 31.4743 6.42201 31.2863 6.42106 31.2586C6.42535 30.9605 6.73796 30.8648 6.62018 30.5274C6.61901 30.5244 6.59725 30.5121 6.57031 30.4963C6.49452 30.4517 6.37751 30.3798 6.56418 30.4043C6.58159 30.4067 6.68994 30.5444 6.74766 30.4378C6.80461 30.3335 7.06228 30.1806 6.97786 29.9684C6.95804 29.9164 6.74055 29.7217 6.96976 29.7212C7.00084 29.7213 7.08663 29.7674 7.14261 29.7717C7.32139 29.7842 7.0134 29.6361 7.30575 29.6813C7.59854 29.7253 7.84658 29.6821 7.71943 29.4491C7.71592 29.4418 7.47658 29.3105 7.49913 29.261C7.53532 29.1822 7.6306 29.0833 7.65874 28.9985C7.67228 28.9574 7.50502 28.9276 7.50464 28.9195C7.50904 28.7498 7.57553 28.6293 7.66171 28.5075C7.72996 28.4109 7.8102 28.3146 7.88097 28.1926C7.91079 28.1419 7.74492 27.915 7.95082 27.8658C8.17651 27.8106 8.92117 28.1838 8.82123 27.8531C8.78182 27.7184 7.82814 27.2717 8.40498 27.2376C8.3968 26.9344 8.58899 26.7114 8.66737 26.4423C8.69676 26.3413 8.70863 26.2387 8.6892 26.1179C8.68608 26.0982 8.42184 25.963 8.43717 25.924C8.46051 25.8662 8.60076 25.871 8.6215 25.8311C8.71097 25.667 8.64548 25.4694 8.71071 25.302C8.73509 25.2387 8.86455 25.2989 8.89347 25.2237C8.92236 25.1479 8.75664 25.0512 8.87292 24.965C8.96082 24.9019 9.34855 24.9201 9.41956 24.8259C9.05983 24.7239 9.08563 24.6578 9.02529 24.5005C9.01356 24.47 8.88052 24.464 8.86848 24.4479C8.81666 24.3817 8.9328 24.3643 8.87424 24.3C8.86021 24.2844 8.73687 24.2514 8.71841 24.2369C8.64102 24.1772 8.67184 24.1343 8.73082 24.105C8.79501 24.0732 8.89259 24.0574 8.92067 24.053C9.12599 24.0179 8.97632 23.9333 9.06527 23.8878C9.15431 23.8417 9.22 23.9617 9.28334 23.8975C9.41313 23.7695 9.44508 23.5594 9.48994 23.4037C9.50681 23.3425 9.33096 23.3433 9.32954 23.3335C9.31718 23.2045 9.53045 23.0965 9.21672 22.9501C10.0914 23.0683 9.15088 22.8615 9.36914 22.7059C9.38645 22.6947 9.7947 22.7723 9.84015 22.844C9.88542 22.9161 9.73662 22.9792 9.81155 23.0727C9.82904 23.0952 10.1806 23.2947 10.1996 23.3161C10.3489 23.4796 9.74251 23.3476 9.70833 23.344C9.3357 23.3192 9.71011 23.5492 9.7292 23.5919C9.81545 23.793 9.70091 23.8891 9.75788 24.048C9.7948 24.1501 10.1859 24.2607 10.1556 24.3278C10.1316 24.3803 10.0802 24.4135 10.0214 24.4421C9.83954 24.5298 9.59217 24.5545 9.90766 24.8132C9.9971 24.8845 10.4382 24.9543 10.0578 25.0247C10.0338 25.0292 9.69313 25.0659 9.86892 25.1895C9.8911 25.205 10.0161 25.2387 10.0234 25.2533C10.0698 25.3504 9.95559 25.3774 9.9808 25.472C10.0056 25.5681 10.0485 25.689 9.97912 25.7745C9.93749 25.8261 9.68407 25.8367 9.61929 25.8489C9.43384 25.8801 9.67874 26.0385 9.46689 26.0305C9.25405 26.0222 8.97867 25.8417 8.81399 25.9314C9.13593 26.0286 9.46464 26.1343 9.78753 26.2351C9.73312 26.3998 9.64606 26.5541 9.57027 26.7082C9.51705 26.8169 9.46857 26.928 9.43924 27.0468C9.43082 27.0823 9.61465 27.0988 9.61013 27.138C9.59022 27.3035 9.42486 27.4038 9.42293 27.5834C9.42179 27.7236 9.56127 27.9183 9.56463 28.0668C9.17227 28.0311 9.23346 28.2677 9.1531 28.3997C9.12516 28.4459 9.02862 28.4105 8.98511 28.4354C8.82323 28.5301 9.16665 28.5745 9.20524 28.6281C9.36897 28.859 8.63495 28.6276 8.59046 28.8174C8.59018 28.8185 8.59379 28.8222 8.6005 28.8281C8.65751 28.8779 8.93665 29.0832 8.95302 29.1057C9.07388 29.2658 8.81206 29.0765 8.76059 29.1323C8.66642 29.2343 8.54522 29.2837 8.60825 29.4643C8.62712 29.5173 8.83175 29.7038 8.61667 29.716C8.58851 29.7177 8.46327 29.6653 8.45274 29.671C8.27284 29.7771 8.67092 29.9285 8.77343 30.0666C8.87642 30.2033 8.54819 30.2388 8.45885 30.2348C8.2265 30.2282 8.39249 30.1462 8.37385 30.1345C8.15192 29.9976 8.15576 30.1117 8.10677 30.1783C7.71289 30.0388 7.69655 30.15 8.05754 30.2479C8.09707 30.2584 8.08321 30.1864 8.10677 30.1783C8.46402 30.391 8.46681 30.5286 8.06113 30.5116C7.87107 30.5031 7.69935 30.3701 7.69771 30.5778C7.69655 30.6718 7.97552 30.7497 8.01818 30.8519C8.05835 30.9485 8.02384 31.0242 7.96747 31.0916C7.88773 31.1869 7.76079 31.273 7.73963 31.3812C7.72619 31.4489 7.89671 31.4533 7.89235 31.502C7.88009 31.6334 7.73094 31.6752 7.72999 31.8191C7.73018 31.832 7.89133 31.8768 7.87619 31.9137C7.76498 32.1921 7.55281 32.3797 7.39684 32.6566C7.32533 32.7854 7.2524 33.089 7.14929 33.2143C7.10284 33.2726 7.03678 33.3337 6.96779 33.387C6.77285 33.5362 6.51038 33.6781 6.41069 33.8536C6.31662 34.0127 6.45674 34.1017 6.47548 34.2436C6.50506 34.5299 5.97799 34.4561 5.90408 34.4281C5.90424 34.4276 6.03939 34.2743 5.90329 34.2724C5.75042 34.1674 5.90665 34.4251 5.90408 34.4281C5.86379 34.4194 5.48738 34.6045 5.38248 34.6666C5.33843 34.7025 5.4228 34.8372 5.39662 34.8536C4.80247 35.3476 3.40494 34.9355 3.25792 34.6024C3.22426 34.5689 3.19064 34.5329 3.15775 34.4942C3.15339 34.4862 3.2772 34.3623 3.26603 34.3454C3.1083 34.0962 2.84799 34.1107 2.59362 33.9757C2.32963 33.8181 2.28148 33.6413 2.47738 33.3746C2.35963 33.2372 2.38926 32.9872 2.42139 32.8593C2.45067 32.7256 2.13148 32.842 2.12104 32.8349C1.79243 32.6003 1.92548 32.3927 1.85213 32.073C1.81985 31.9265 1.69459 31.6778 1.61627 31.5299C1.55352 31.4136 1.61229 31.3229 1.53644 31.2313C1.52622 31.2186 1.38307 31.2702 1.37631 31.2672C1.17045 31.191 1.54419 31.1594 1.60224 31.119C1.81378 30.9721 1.92543 30.8902 1.77967 30.7613C1.74661 30.7333 1.20179 30.74 1.15743 30.6823C1.10096 30.6082 1.29443 30.5993 1.23085 30.5226C1.2256 30.516 1.11055 30.5419 1.10438 30.4868C1.07507 30.2361 1.0857 29.9228 1.0318 29.6801C1.02453 29.645 0.848177 29.7223 0.834623 29.6718C0.771881 29.4393 0.732834 29.147 0.787394 28.9143C0.800958 28.8541 0.935717 28.871 0.972374 28.853C1.19412 28.7441 0.840647 28.6841 0.831653 28.6665C0.817142 28.6399 0.804707 28.6134 0.794085 28.587C0.640068 28.1905 0.865158 27.8758 0.682894 27.4723C0.67167 27.4497 0.287547 27.2994 0.592483 27.1907C0.612701 27.1829 0.924644 27.0726 0.699137 27.024C0.68503 27.0209 0.52515 27.0867 0.533538 26.9983C0.541919 26.9102 0.4187 26.7793 0.589036 26.6417C0.642648 26.598 0.95411 26.4804 0.689781 26.3867C0.671075 26.378 0.0811048 26.2552 0.473718 26.1609C0.538381 26.1457 0.959743 26.1233 0.73381 26.0071C0.690046 25.9847 0.599733 26.0384 0.536013 25.9754C0.437844 25.8786 0.540535 25.7327 0.34415 25.6163C0.309403 25.5962 0.0170714 25.5186 0.228905 25.4262C0.262085 25.4119 0.404151 25.4258 0.417222 25.3838C0.480352 25.1883 0.374658 24.9987 0.461322 24.7987C0.491787 24.7282 0.721067 24.751 0.778197 24.6763C0.835286 24.6017 0.886586 24.4545 0.779041 24.3839C0.67143 24.3131 0.312833 24.4135 0.278441 24.3006C0.137601 23.8524 0.306567 23.3728 0.340385 22.9167C0.342171 22.8925 0.343574 22.8682 0.34453 22.844C0.34741 22.7723 0.219012 22.8349 0.214015 22.7292C0.194282 22.3362 0.0636485 21.6612 0.338623 21.3215C0.558482 21.0483 0.728158 21.3899 0.817284 21.1819C0.859836 21.082 0.437792 20.9734 0.424505 20.9488C0.289526 20.7115 0.47705 20.5529 0.421099 20.3404C0.409507 20.2966 0.238183 20.3383 0.230213 20.301C0.201485 20.1733 0.279122 20.0396 0.26662 19.9168C0.260626 19.8616 0.129891 19.8702 0.140621 19.8195C0.164829 19.6975 0.221338 19.5917 0.345692 19.4784C0.357025 19.4681 0.518285 19.542 0.525819 19.4542C0.537575 19.312 0.661799 19.1374 0.540883 18.9694C0.504504 18.9196 0.206063 18.9106 0.414736 18.8097C0.458344 18.7884 0.815946 18.8258 0.509451 18.6947C0.458455 18.6734 0.0464619 18.452 0.318693 18.359C0.390313 18.3345 0.685528 18.276 0.641268 18.2163C0.634163 18.2082 0.472897 18.235 0.458776 18.186C0.41182 18.0136 0.435057 17.8343 0.391438 17.6553C0.379481 17.6074 0.21103 17.6718 0.198519 17.6006C0.181556 17.5045 0.185411 17.3972 0.200907 17.2904C0.217046 17.1788 0.245694 17.0698 0.27637 16.9755C0.298891 16.9071 0.43408 16.9611 0.449247 16.9567C0.695906 16.8867 0.370057 16.824 0.352173 16.796C0.245401 16.6229 0.405733 16.502 0.372842 16.3445C0.364195 16.301 0.206262 16.3234 0.192754 16.3142C0.0610723 16.2183 0.338503 16.2989 0.372361 16.2443C0.468131 16.092 0.465244 15.9134 0.454221 15.7552C0.449952 15.697 0.264971 15.7516 0.263246 15.6994C0.249632 15.3902 0.287014 15.0691 0.407192 14.7723C0.430154 14.7164 0.56724 14.7617 0.599898 14.752C0.828272 14.6852 0.532544 14.5441 0.50552 14.5145C0.381956 14.3811 0.508734 14.3415 0.493634 14.23C0.41749 13.685 0.553866 13.0184 0.649672 12.519C0.704268 12.2304 0.770895 11.9686 0.830514 11.7166C0.906299 11.3966 0.971419 11.0848 0.99012 10.7292C0.992429 10.6888 0.803148 10.7095 0.802773 10.6744C0.806459 10.2217 0.928413 9.79486 0.929319 9.34011C0.929724 9.30286 0.748255 9.33469 0.74304 9.2741C0.731117 9.14968 0.759654 8.99675 0.830729 8.88264C0.865096 8.8267 1.00522 8.9251 1.03674 8.86846C1.11049 8.73669 1.14199 8.5895 1.13257 8.44298C1.12819 8.38054 0.937397 8.44906 0.945666 8.36963C0.998609 7.82682 1.04142 7.29276 1.3525 6.78314C1.37388 6.74815 1.74123 6.76916 1.68346 6.67989C1.58374 6.65895 1.46535 6.64165 1.35821 6.62302C1.37005 6.46331 1.38989 6.30387 1.4149 6.14734C1.51394 5.52732 1.69879 4.91909 1.82249 4.30007C1.82901 4.26724 1.62777 4.29092 1.63943 4.22712C1.70677 3.85823 1.719 3.48775 1.97917 3.1464C2.00474 3.11247 2.33689 3.19452 2.30678 3.07516C2.30112 3.05405 2.28772 2.88011 2.22312 2.82333C2.21325 2.81539 2.05083 2.81575 2.0565 2.76139C2.09219 2.44606 2.19215 2.12694 2.35033 1.83694C2.37616 1.79021 2.53181 1.87709 2.55164 1.84415C2.69098 1.61067 2.62145 1.31074 2.82327 1.10268C2.95895 0.963837 3.23339 1.08449 3.53404 1.06034C3.57645 1.05692 3.60398 0.959769 3.7694 0.990223C4.18538 1.06658 4.62764 1.21147 5.07225 1.28717C5.16797 1.30357 5.09384 1.15211 5.30646 1.27834C5.32063 1.28702 5.37649 1.39708 5.44935 1.4368C5.49968 1.46437 5.67302 1.47148 5.73486 1.51888C5.79665 1.56621 5.64883 1.57204 5.7182 1.6434C5.78862 1.71487 5.98386 1.73161 5.98361 1.84394ZM2.57133 32.2692C2.69289 32.1259 2.12448 32.3129 2.29536 32.3641C2.3043 32.3663 2.5655 32.2766 2.57133 32.2692ZM9.07719 26.6299C8.79095 26.6674 9.13945 26.856 9.35865 26.834C9.57772 26.8115 9.16406 26.6181 9.07719 26.6299ZM9.22663 25.4067C8.98972 25.4826 9.80089 25.7316 9.67523 25.5432C9.66818 25.5324 9.2404 25.4023 9.22663 25.4067ZM3.53131 1.46964C3.53933 1.47006 3.5618 1.40081 3.55446 1.3975C3.3765 1.32053 3.33163 1.45936 3.53131 1.46964ZM9.33553 24.1921C9.2888 24.1964 9.27455 24.2211 9.28325 24.2493C9.29717 24.2944 9.36978 24.3483 9.46289 24.3393C9.49282 24.3364 9.5095 24.3251 9.51537 24.31C9.53339 24.2635 9.44947 24.1817 9.33553 24.1921ZM2.24093 27.4895C2.24963 27.4871 2.25184 27.4344 2.20187 27.441C2.04095 27.4624 2.09456 27.5298 2.24093 27.4895ZM9.81401 22.2078C9.71536 22.4931 8.99334 22.4992 9.14259 22.2103C9.16967 22.1573 9.33198 22.3818 9.40994 22.3258C9.55519 22.21 9.14696 22.0226 9.40537 21.948C9.45621 21.919 9.82323 22.1835 9.81486 22.2085C9.81458 22.2083 9.81429 22.208 9.81401 22.2078ZM3.22838 31.9739C3.23519 31.9697 3.21858 31.9008 3.21065 31.9016C3.01837 31.9278 3.05287 32.0701 3.22838 31.9739ZM2.37205 24.4629C2.38863 24.4582 2.39613 24.2906 2.38042 24.2857C2.06588 24.2131 2.04985 24.5541 2.37205 24.4629ZM5.96091 31.854C5.82908 31.6976 5.84943 31.612 6.09016 31.6694C6.04367 31.7306 6.00657 31.7956 5.96091 31.854ZM30.1498 1.47739C30.2213 1.82032 30.1906 2.27385 30.1329 2.61804C30.115 2.72592 30.0062 2.67775 29.9891 2.75242C29.9558 2.89838 30.015 3.02915 29.9736 3.1732C29.9594 3.22095 29.7885 3.17172 29.7775 3.22157C29.718 3.4959 29.774 3.74216 29.7531 4.02172C29.6506 5.4179 29.652 6.69719 29.6408 8.10605C29.6368 8.56049 29.5091 9.11314 29.5955 9.56967C29.6058 9.62298 29.7516 9.58462 29.7642 9.59431C29.9572 9.75161 29.6575 9.70955 29.6226 9.81909C29.485 10.254 29.4909 10.7262 29.5637 11.1291C29.5642 11.1316 29.5647 11.1339 29.5652 11.1362C29.6032 11.2953 29.8787 11.1188 29.7235 11.2961C29.7129 11.3086 29.5548 11.2711 29.54 11.3189C29.5066 11.4274 29.5424 11.6287 29.5332 11.7116C29.5145 11.8715 29.5171 11.8977 29.5209 12.0475C29.5246 12.2489 29.4561 12.5041 29.4995 12.7281C29.5092 12.7759 29.6673 12.7066 29.6973 12.7823C29.7273 12.8582 29.7207 13.0613 29.6852 13.1307C29.6497 13.2002 29.5227 13.1754 29.4942 13.1885C29.2538 13.2959 29.5993 13.5174 29.6086 13.547C29.7689 14.0894 29.5904 14.5526 29.6054 15.0635C29.6174 15.4581 29.6918 15.8749 29.6919 16.2447C29.6913 16.6855 29.6123 17.056 29.6354 17.478C29.6377 17.524 29.8253 17.4665 29.8284 17.5226C29.8616 18.1187 29.8499 18.7045 29.7291 19.2851C29.7168 19.3433 29.5503 19.2703 29.5281 19.3285C29.3961 19.68 29.0734 20.2523 29.7955 20.4646C29.7687 20.7101 29.7406 21.0061 29.5955 21.2229C29.5155 21.3425 29.3718 21.2606 29.3803 21.3418C29.3817 21.3555 29.3875 21.3738 29.3986 21.3984C29.4158 21.437 29.5738 21.3868 29.5876 21.4446C29.6455 21.6883 29.5936 21.9528 29.6743 22.1913C29.6911 22.2399 29.8327 22.2272 29.8582 22.2411C30.0642 22.3617 29.7217 22.5587 29.6966 22.6015C29.5094 22.9287 29.58 23.1672 29.5719 23.4693C29.57 23.5393 29.7612 23.4588 29.7661 23.5263C29.7891 23.8771 29.7671 24.2339 29.6762 24.5729C29.6555 24.6502 29.4949 24.5756 29.4767 24.6124C29.3984 24.774 29.7036 24.8165 29.6341 24.9711C29.6198 25.0037 29.4815 24.9821 29.4662 24.9878C29.225 25.0761 29.5619 25.1649 29.5688 25.1892C29.6637 25.4959 29.3049 25.6796 29.3465 25.9704C29.3519 26.0053 29.5296 25.9323 29.5338 26.03C29.5635 26.6653 29.4882 27.3841 29.3179 28.0161C29.2917 28.115 29.1634 28.0375 29.1468 28.043C28.8884 28.1333 29.225 28.2155 29.2362 28.2487C29.3158 28.5111 29.0185 28.7277 29.4133 28.9298C29.2506 29.8253 29.3177 30.6709 29.1096 31.5552C29.0586 31.7682 28.9914 31.9783 28.9006 32.1842C28.8951 32.1975 28.7305 32.1578 28.7204 32.1843C28.5964 32.5026 28.8615 32.4634 29.1576 32.7105C29.2321 32.771 28.8324 32.904 28.8028 32.916C28.6939 32.9604 28.4516 32.8785 28.4298 32.8948C28.2572 33.0296 29.08 33.0892 29.0588 33.2942C29.0567 33.3005 28.9087 33.2577 28.8918 33.2733C28.8391 33.3214 28.8935 33.3805 28.8359 33.4268C28.7029 33.5326 28.3002 33.5305 28.5119 33.7356C28.5394 33.7616 29.0082 33.7793 28.9656 33.9571C28.9484 34.0281 28.919 34.3453 28.8779 34.4295C28.8371 34.5138 28.6949 34.4351 28.6877 34.4406C28.4608 34.6525 28.39 34.5511 28.0823 34.6339C27.7754 34.7177 28.475 34.7729 28.5462 34.8325C28.6173 34.8923 28.431 35.0485 28.3685 35.0841C28.3061 35.1199 28.2184 35.0533 28.1812 35.0875C27.9375 35.3134 28.511 35.2458 28.6098 35.3449C28.8436 35.5797 28.307 35.6617 28.2307 35.8324C28.2101 35.8788 28.333 35.8564 28.3376 35.9011C28.3544 36.0781 28.1788 36.1558 28.2962 36.3706C28.3157 36.4036 28.5994 36.6131 28.3562 36.6813C28.3211 36.6907 28.1999 36.6287 28.1594 36.6981C28.0987 36.8019 28.0383 36.995 28.0611 37.1196C28.078 37.2118 28.3054 37.1478 28.2214 37.2462C28.1839 37.2897 28.0762 37.1789 28.016 37.2623C27.9561 37.3452 27.9213 37.5759 27.9098 37.6635C27.8985 37.7512 28.0664 37.7324 28.0759 37.7413C28.1298 37.795 28.176 37.9761 28.173 37.9908C28.052 38.7526 27.6418 39.3845 27.5618 40.1257C27.555 40.1847 27.7302 40.1854 27.7309 40.1948C27.7541 40.4083 27.3488 40.149 27.1687 40.2499C27.5104 40.3106 27.4303 40.3768 27.4338 40.5228C27.4358 40.5933 27.5749 40.5892 27.5867 40.5985C27.7605 40.7456 27.4879 40.7507 27.4314 40.7549C27.2231 40.7713 27.4325 40.8983 27.293 40.9096C27.1546 40.9206 26.9912 40.7729 26.9607 40.9023C27.0715 40.9695 27.4103 40.9536 27.4358 41.0654C27.4751 41.2408 27.427 41.4442 27.3438 41.6567C27.2258 41.9578 27.0441 42.2454 26.9771 42.4157C26.8633 42.7047 26.8554 42.8058 26.7593 42.963C26.5823 43.2526 26.8478 43.2108 26.8888 43.441C26.9286 43.6719 26.3984 43.39 26.2684 43.378C26.1388 43.365 26.2531 43.4359 26.1756 43.4474C26.0981 43.4585 26.0403 43.3589 25.9891 43.4288C25.9383 43.4985 26.079 43.7849 26.1946 43.8567C26.4401 44.0083 26.7536 44.0087 26.5817 44.1839C26.5717 44.1938 26.4388 44.103 26.4077 44.1435C26.1686 44.4597 26.015 44.8477 25.775 45.164C25.7416 45.2077 25.5983 45.0997 25.5772 45.1243C25.3557 45.3781 25.6689 45.3812 25.9016 45.6681C25.5176 45.4671 25.2379 45.4551 25.1422 45.6736C25.0832 45.8072 25.2662 45.8584 25.3501 45.9988C25.3754 46.0411 25.2152 46.0844 25.2886 46.1373C25.5282 46.3114 25.8653 46.3526 25.6427 46.5337C25.6325 46.5414 25.5026 46.4438 25.478 46.475C25.3181 46.6751 25.581 46.8287 25.4987 47.0892C25.4353 47.2912 25.1006 47.553 24.9637 47.7526C24.5341 47.5276 24.531 47.7757 24.7833 48.0135C24.6985 48.1449 24.6352 48.3018 24.5223 48.4107C24.4835 48.4482 24.377 48.3506 24.3606 48.349C24.1048 48.3195 24.3561 48.5366 24.3503 48.5727C24.2774 48.9542 23.9148 49.0829 23.9386 49.5037C23.9396 49.5186 24.2154 49.7136 23.957 49.663C23.9395 49.6589 23.87 49.4808 23.7735 49.6128C23.6773 49.7444 23.3587 49.906 23.3628 50.1799C23.364 50.2459 23.5119 50.516 23.2719 50.4878C23.2395 50.4836 23.1691 50.4155 23.1126 50.4027C22.9327 50.3618 23.1909 50.5872 22.9072 50.4881C22.6801 50.4084 22.4612 50.398 22.3992 50.5489C22.3837 50.5864 22.3777 50.6344 22.3835 50.6938C22.384 50.7029 22.5705 50.9054 22.5245 50.9605C22.4512 51.048 22.3093 51.1432 22.2387 51.2381C22.205 51.2837 22.3601 51.3569 22.3565 51.3666C22.1961 51.7288 21.9065 51.8513 21.5948 52.122C21.538 52.1709 21.5705 52.485 21.3378 52.4762C21.0839 52.465 20.5741 51.8009 20.4843 52.1952C20.4495 52.3508 21.0882 53.1998 20.5117 53.0217C20.2561 53.485 19.7211 53.6245 19.4814 54.1086C19.4705 54.1303 19.6145 54.394 19.5712 54.4284C19.5067 54.4788 19.382 54.408 19.3331 54.4401C19.126 54.5719 19.0354 54.8065 18.8435 54.9466C18.7718 54.999 18.7043 54.8716 18.6193 54.9332C18.5345 54.9945 18.5992 55.1821 18.4317 55.2041C18.3045 55.2202 17.9827 54.9935 17.8453 55.0467C18.0745 55.342 17.9933 55.3975 17.9155 55.5837C17.9006 55.6197 18.0094 55.6998 18.0064 55.7221C17.9958 55.8155 17.8817 55.7675 17.8768 55.8634C17.8754 55.8866 17.9526 55.9883 17.9558 56.013C17.9839 56.2287 17.674 56.1028 17.6205 56.0802C17.4166 55.9957 17.4736 56.1601 17.3592 56.1515C17.2455 56.1423 17.2939 55.9907 17.1861 56.0136C16.9633 56.0607 16.7579 56.2326 16.5794 56.3494C16.5087 56.3966 16.6534 56.5036 16.6456 56.5136C16.5236 56.6509 16.2755 56.5998 16.3853 56.9348C15.7972 56.272 16.346 57.0641 16.0385 57.0557C16.014 57.0547 15.7668 56.7204 15.7958 56.6287C15.8247 56.5371 15.9905 56.5831 16.0233 56.4468C16.0317 56.4145 15.9289 56.0147 15.9305 55.985C15.9493 55.7496 16.3182 56.2484 16.3442 56.2719C16.6287 56.5227 16.5331 56.0784 16.5526 56.0291C16.6456 55.8013 16.8381 55.7699 16.9205 55.5919C16.9746 55.4761 16.7409 55.1434 16.8173 55.102C17.0666 54.9664 17.5012 55.3473 17.4143 54.7909C17.3956 54.672 17.0744 54.3605 17.4542 54.5042C17.4777 54.5137 17.8 54.6643 17.7417 54.4508C17.7342 54.4239 17.6519 54.324 17.6564 54.3063C17.6877 54.1896 17.804 54.2272 17.8543 54.1206C17.9046 54.0141 17.9534 53.8759 18.0758 53.8281C18.1489 53.7998 18.3794 53.9184 18.4455 53.9389C18.6345 53.9991 18.53 53.7187 18.7139 53.8301C18.9 53.941 19.0166 54.2593 19.2325 54.2443C19.0111 53.9911 18.7896 53.7262 18.5691 53.4696C18.8409 53.2381 19.1701 53.0748 19.4167 52.8075C19.4468 52.7743 19.2867 52.6788 19.3154 52.6401C19.4362 52.4782 19.6508 52.4423 19.7567 52.2559C19.838 52.1114 19.8168 51.8526 19.8926 51.6969C20.2467 51.8794 20.3169 51.6041 20.461 51.4901C20.5116 51.4498 20.5868 51.5199 20.6419 51.5071C20.8477 51.4564 20.5359 51.2981 20.5252 51.228C20.4773 50.9295 21.0804 51.4084 21.2188 51.2079C21.2268 51.197 21.0034 50.8198 20.9958 50.788C20.9482 50.5797 21.1216 50.8593 21.1976 50.8118C21.3361 50.7251 21.4803 50.6988 21.494 50.4815C21.4978 50.4174 21.3678 50.1645 21.5872 50.1997C21.6161 50.2042 21.7209 50.2905 21.7338 50.2864C21.834 50.2501 21.8208 50.1781 21.7705 50.0951C21.7087 49.9928 21.5912 49.8727 21.5617 49.7769C21.5079 49.6042 21.846 49.6333 21.9361 49.6518C22.169 49.7005 21.973 49.7634 21.9878 49.7796C22.164 49.9745 22.2009 49.8448 22.2739 49.7764C22.6265 50.0012 22.6842 49.8716 22.3482 49.7044C22.3114 49.6863 22.3008 49.7711 22.2739 49.7764C21.9847 49.4735 22.0216 49.3259 22.4322 49.399C22.6247 49.4328 22.7597 49.6098 22.8257 49.3674C22.8553 49.2574 22.5908 49.1371 22.5751 49.0159C22.5379 48.7413 22.9112 48.6465 22.9887 48.4325C23.0165 48.3555 22.8412 48.3426 22.8553 48.2874C22.892 48.1412 23.0585 48.0893 23.0782 47.9318C23.0798 47.9175 22.9206 47.8642 22.941 47.8239C23.0916 47.518 23.3242 47.3092 23.4913 46.9905C23.5716 46.8378 23.6301 46.5154 23.7217 46.3657C23.8824 46.1032 24.2601 45.852 24.3147 45.5802C24.3506 45.404 24.1837 45.3741 24.1099 45.2612C23.9658 45.0453 24.4207 44.9658 24.49 44.9552C24.4924 44.955 24.4715 45.1077 24.5801 45.0663C24.7609 45.0904 24.4902 44.9569 24.49 44.9552C24.5349 44.9497 24.6815 44.6857 24.6738 44.6181C24.6696 44.5816 24.5176 44.5414 24.5182 44.5235C24.5345 44.0993 24.6353 43.7114 24.8355 43.3573C24.8408 43.3516 25.0023 43.419 25.0128 43.4049C25.1633 43.2076 25.009 42.9946 24.9489 42.7707C24.8885 42.5469 24.9759 42.4108 25.2954 42.3936C25.3025 42.2442 25.49 42.0826 25.6017 41.9883C25.7134 41.8941 25.3916 41.7822 25.3882 41.7702C25.3048 41.4922 25.4103 41.3475 25.5207 41.1585C25.5608 41.0901 25.6018 41.0142 25.6326 40.9297C25.6891 40.7771 25.7222 40.4508 25.7286 40.2688C25.7333 40.1251 25.8309 40.0612 25.8117 39.9222C25.8092 39.9034 25.6578 39.8856 25.6533 39.879C25.5106 39.6959 25.8547 39.849 25.926 39.8348C26.1851 39.7834 26.3259 39.7443 26.2576 39.5346C26.2418 39.487 25.7488 39.2502 25.7347 39.1689C25.7176 39.0629 25.8961 39.1406 25.8733 39.028C25.8715 39.0184 25.7559 38.9953 25.7747 38.933C25.8601 38.6435 25.9939 38.3314 26.0432 38.0141C26.0504 37.9709 25.8562 37.9905 25.8635 37.9276C25.8975 37.6341 25.9601 37.3298 26.0953 37.0624C26.1291 36.997 26.2506 37.0627 26.2915 37.0543C26.5393 37.0015 26.2249 36.8118 26.222 36.7892C26.1476 36.2383 26.5131 35.8964 26.4429 35.3455C26.4385 35.3151 26.1066 35.0432 26.4313 34.9858C26.4529 34.982 26.7849 34.9256 26.5787 34.8085C26.5658 34.8013 26.3936 34.8414 26.4245 34.7357C26.4554 34.6308 26.3687 34.4388 26.5669 34.3173C26.6295 34.2788 26.9613 34.2086 26.7241 34.0397C26.7076 34.0281 26.1589 33.7482 26.5636 33.7179C26.6302 33.7131 27.048 33.7745 26.852 33.5832C26.8139 33.5467 26.7139 33.5939 26.6649 33.5035C26.5893 33.3653 26.7204 33.2065 26.5502 33.0273C26.5201 32.9959 26.2476 32.8484 26.4735 32.7755C26.5089 32.764 26.6462 32.8067 26.667 32.7579C26.7671 32.5212 26.6961 32.2764 26.8153 32.0444C26.8572 31.9628 27.08 32.0269 27.1488 31.9437C27.2176 31.8605 27.292 31.6856 27.1963 31.5829C27.1005 31.4803 26.7302 31.5517 26.7131 31.4093C26.7109 31.3911 26.709 31.3728 26.7074 31.3546C26.6544 30.7451 26.8963 30.1936 26.9642 29.602C26.9746 29.5118 26.8403 29.5787 26.8461 29.4452C26.8684 28.9431 26.79 28.1034 27.084 27.6887C27.3198 27.3555 27.4691 27.7949 27.5704 27.5361C27.6187 27.4107 27.2028 27.2553 27.1907 27.2242C27.0679 26.9208 27.2626 26.7091 27.2142 26.4455C27.2042 26.3905 27.0315 26.4383 27.0248 26.3916C27.0005 26.2321 27.082 26.067 27.0726 25.9136C27.0679 25.8447 26.937 25.8536 26.9489 25.7907C26.9759 25.64 27.0344 25.5073 27.1605 25.3615C27.172 25.3482 27.3321 25.4439 27.341 25.331C27.355 25.1481 27.481 24.922 27.3606 24.7061C27.3244 24.642 27.026 24.6338 27.2348 24.5016C27.2783 24.4743 27.6361 24.5154 27.3293 24.3565C27.2783 24.3296 26.865 24.0647 27.1362 23.9415C27.2075 23.909 27.5021 23.8274 27.4571 23.752C27.4498 23.7418 27.2889 23.7801 27.2742 23.7181C27.2248 23.4997 27.2446 23.2705 27.1964 23.0438C27.1833 22.9833 27.0165 23.0717 27.0022 22.9816C26.9625 22.7346 27.0067 22.4215 27.0596 22.1799C27.0794 22.0927 27.2166 22.1535 27.2316 22.1472C27.4753 22.0458 27.147 21.984 27.128 21.95C27.0139 21.7381 27.1683 21.5764 27.1274 21.3795C27.1165 21.3251 26.9599 21.3638 26.946 21.353C26.942 21.3497 26.9383 21.3466 26.935 21.3436C26.8257 21.2457 27.0916 21.3222 27.1216 21.2531C27.2092 21.0537 27.1959 20.8302 27.175 20.6265C27.167 20.5517 26.9859 20.6367 26.9808 20.5696C26.9476 20.1709 26.9616 19.7562 27.0576 19.3783C27.076 19.3062 27.2162 19.3499 27.248 19.3345C27.4703 19.2287 27.1637 19.0802 27.1343 19.0456C26.9997 18.8882 27.1225 18.8246 27.0975 18.6837C26.9731 17.9921 27.0384 17.1335 27.0739 16.4897C27.1192 15.6449 27.233 14.9546 27.1738 14.1645C27.1702 14.1134 26.9859 14.1709 26.9804 14.1268C26.9177 13.5582 26.9709 12.9875 26.8958 12.405C26.8901 12.3588 26.7163 12.4321 26.7011 12.3581C26.6687 12.2065 26.6711 12.0121 26.7214 11.8545C26.7456 11.7777 26.9007 11.8737 26.9219 11.7964C26.9718 11.6163 26.9769 11.4244 26.9414 11.2415C26.9413 11.2411 26.9412 11.2407 26.9411 11.2402C26.924 11.165 26.7504 11.2884 26.7443 11.1872C26.6991 10.501 26.6377 9.78603 26.8406 9.09638C26.8545 9.04794 27.2188 8.98966 27.144 8.89102C27.042 8.88793 26.9225 8.89373 26.8138 8.89527C26.7103 7.8977 26.7873 6.85544 26.7567 5.86216C26.7553 5.81946 26.5651 5.903 26.5615 5.82038C26.5401 5.34204 26.4622 4.87688 26.6287 4.36935C26.6449 4.31898 26.9874 4.32637 26.9281 4.18336C26.9172 4.15676 26.8603 3.94336 26.7833 3.89323C26.7717 3.88634 26.6146 3.93373 26.6063 3.8653C26.5608 3.46743 26.5743 3.04428 26.6493 2.63479C26.6617 2.56868 26.8351 2.62883 26.8454 2.58165C26.9173 2.24698 26.7683 1.89341 26.9044 1.56611C26.996 1.34686 27.2935 1.40936 27.5756 1.27947C27.6154 1.26112 27.6143 1.12811 27.7818 1.11172C28.2028 1.0702 28.6686 1.10841 29.117 1.05657C29.2136 1.04555 29.0991 0.873253 29.3393 0.965503C29.3553 0.972007 29.4404 1.09673 29.5216 1.12399C29.5778 1.14301 29.7462 1.09351 29.819 1.13468C29.8918 1.17584 29.7515 1.23348 29.8383 1.30352C29.9262 1.37344 30.1185 1.32977 30.1498 1.47739ZM26.1005 41.5556C26.2889 41.4881 25.7168 41.3125 25.8216 41.4698C25.8273 41.4775 26.0912 41.5592 26.1005 41.5556ZM19.4815 53.3973C19.7732 53.4821 19.5735 53.1337 19.3565 53.0614C19.1409 52.9877 19.3937 53.371 19.4815 53.3973ZM18.4666 54.5778C18.736 54.6213 18.2021 53.9615 18.174 54.2113C18.1723 54.2255 18.4511 54.5752 18.4666 54.5778ZM27.6873 1.80077C27.6951 1.79872 27.6975 1.70351 27.6896 1.70167C27.497 1.66183 27.4923 1.85218 27.6873 1.80077ZM17.3905 55.707C17.5033 55.766 17.5488 55.5648 17.408 55.4926C17.2958 55.434 17.2508 55.6335 17.3905 55.707ZM27.9411 35.7952C27.9501 35.7947 27.9677 35.7295 27.9176 35.7236C27.7564 35.705 27.7883 35.8036 27.9411 35.7952ZM15.2136 57.202C15.5629 57.023 16.145 57.481 15.7338 57.6481C15.6596 57.6779 15.7587 57.3685 15.6402 57.3684C15.4254 57.3676 15.5526 57.8063 15.268 57.7036C15.2173 57.6842 15.1937 57.2107 15.2137 57.2008C15.2137 57.2012 15.2137 57.2016 15.2136 57.202ZM26.8106 41.6841C26.8189 41.684 26.8513 41.595 26.8443 41.5907C26.6747 41.4913 26.6097 41.6696 26.8106 41.6841ZM28.76 31.9205C28.7773 31.917 28.8119 31.7015 28.7969 31.6929C28.4973 31.5539 28.4268 31.9878 28.76 31.9205ZM24.9504 47.7501C25.073 47.9297 25.0344 48.0523 24.7837 48.0132C24.843 47.9282 24.8926 47.837 24.9504 47.7501Z" fill="black"/>
</svg>
