<svg width="45" height="57" viewBox="0 0 45 57" fill="none" xmlns="http://www.w3.org/2000/svg">
<path d="M10.6702 3.43147C11.4803 3.22972 12.4866 3.09184 13.331 3.00895C13.3786 3.00435 13.4258 2.9999 13.4724 2.99562C13.7436 2.97033 13.6271 3.09931 13.8176 3.08616C14.1719 3.06368 14.4964 2.95214 14.8616 2.93631C14.9786 2.93232 14.8663 3.12315 14.9885 3.11516C15.6703 3.068 16.2904 2.91408 16.981 2.82859C17.1546 2.80732 17.3295 2.7856 17.5054 2.7635C18.8853 2.59025 20.2542 2.40609 21.6251 2.21982C22.9923 2.03419 24.3604 1.84632 25.7435 1.66874C26.1932 1.61084 26.6218 1.5574 27.0721 1.50281C27.9239 1.3999 28.9543 1.35362 29.9012 1.2556C30.2091 1.22352 30.4764 1.19007 30.765 1.144C30.9057 1.12143 30.8062 0.983565 30.8319 0.968689C31.23 0.74174 31.1207 1.05184 31.3851 1.06676C32.4299 1.23403 32.8401 0.74611 34.7509 1.50994C34.751 1.51003 34.7507 1.50968 34.7512 1.51021C35.5227 2.74469 34.791 2.62903 34.7647 3.0176C34.3867 3.58534 35.0172 3.22474 34.5295 3.59328C34.4976 3.61566 34.4518 3.42139 34.3486 3.52446C34.085 3.79587 33.7831 4.18367 33.6346 4.33225C33.3433 4.62291 33.264 4.71168 33.0331 4.96145C32.6931 5.327 32.1693 5.77039 31.8372 6.17005C31.7607 6.26203 31.9863 6.2579 31.8739 6.41535C31.7693 6.56482 31.3694 6.96146 31.2477 7.03272C31.1072 7.12376 31.0646 6.98627 31.0238 6.98696C30.6855 6.98632 30.521 7.64057 30.4715 7.70315C30.0609 8.2153 29.7102 8.56859 29.2884 8.96478C28.7492 9.47198 28.2783 9.86365 27.7635 10.3829C27.0633 11.0895 26.4072 11.8378 25.7295 12.5042C24.9676 13.2516 24.2106 13.8852 23.4876 14.6287C23.4092 14.709 23.6356 14.7495 23.5401 14.8479C23.5141 14.8747 23.4881 14.9014 23.462 14.9281C22.4563 15.9601 21.4571 16.9261 20.3621 17.8465C20.2502 17.9402 20.2654 17.6906 20.1466 17.7772C19.4216 18.3101 18.1901 19.0822 18.3293 19.9651C18.0671 20.2052 17.7732 20.4767 17.4776 20.7167C17.2714 20.8839 17.0616 21.0384 16.8625 21.1543C16.5504 21.3362 16.6606 20.9686 16.4138 21.3271C16.3581 21.4078 16.5587 21.4298 16.4666 21.5424C16.0771 22.0179 15.5812 22.4469 15.2107 22.9394C15.1363 23.0391 15.2609 23.1145 15.2546 23.1572C15.196 23.511 14.6125 23.6177 14.5209 23.6756C13.8315 24.1139 13.4625 24.5954 12.936 25.1295C12.8139 25.2533 13.0936 25.2387 12.981 25.3626C12.5722 25.8102 12.1369 26.256 11.6814 26.6818C11.4907 26.8599 11.2992 27.0316 11.1078 27.1948C10.9644 27.3165 10.9666 27.0802 10.8921 27.1326C10.5646 27.3657 10.7311 27.6344 10.411 27.8742C10.3446 27.9242 10.2761 27.795 10.2548 27.7953C9.92002 27.8 10.027 28.1793 9.99158 28.2275C9.54466 28.8471 8.9872 28.9228 8.50769 29.5094C8.45278 29.5775 8.71524 29.5534 8.55331 29.7375C7.73057 30.6768 6.78558 31.6757 5.86609 32.6021C5.62405 32.8465 5.41211 33.0529 5.16488 33.2981C4.98025 33.4817 4.99973 33.2554 4.97678 33.2572C4.61046 33.2961 4.76495 33.6419 4.72329 33.7117C4.41718 34.2204 3.77524 34.5671 3.8582 35.1293C3.0704 36.9278 1.14662 36.9152 3.82056 36.0543C4.74897 35.6123 5.68511 35.1896 6.6593 34.8388C6.69164 34.8267 6.71435 35.0038 6.77856 34.979C7.55298 34.6817 7.29216 34.5237 7.62761 33.9889C7.71218 33.8544 8.26094 34.0012 8.30683 34.009C8.47444 34.0385 8.4662 34.3242 8.51553 34.3211C8.91977 34.2878 8.48336 33.5856 8.93006 33.3516C8.94468 33.3455 8.95631 33.5107 9.0008 33.5044C9.13923 33.4855 9.22684 33.3717 9.36504 33.3584C9.44932 33.3507 9.53079 33.3667 9.61062 33.3865C9.83105 33.4413 10.0376 33.5257 10.2516 33.2216C10.2882 33.1686 9.99519 32.7935 10.4055 32.6057C10.5688 32.531 11.2741 32.1586 11.4864 32.0847C11.6986 32.0104 11.6309 32.2141 11.648 32.2127C12.2734 32.1178 12.1082 32.2947 12.5092 32.4223C12.909 32.5498 12.5194 31.9612 12.5938 31.8362C12.6684 31.7112 13.1353 31.6618 13.2582 31.665C13.3805 31.6682 13.3022 31.8139 13.4027 31.8002C14.0666 31.7083 13.4996 31.3644 13.6392 31.1718C13.9676 30.7177 14.5468 31.0158 14.9758 30.8692C15.0923 30.8294 14.9514 30.7649 15.0454 30.7084C15.151 30.6454 15.2508 30.6036 15.3498 30.5675C15.5994 30.4767 15.8337 30.427 16.1109 30.1844C16.1728 30.1295 16.4112 29.6796 16.7418 29.7853C16.7886 29.8009 16.7456 29.9612 16.9265 29.9136C17.1969 29.8424 17.6619 29.6742 17.9212 29.52C18.1114 29.4065 17.7973 29.3053 18.0783 29.2612C18.2029 29.242 18.0403 29.4436 18.2702 29.3983C18.4969 29.3535 19.0404 29.1321 19.2469 29.0493C19.4527 28.9658 19.2816 28.8579 19.2944 28.8413C19.374 28.7434 19.7459 28.5214 19.7837 28.5084C20.2784 28.3212 20.7623 28.1711 21.2578 28.0368C22.5614 27.6852 23.8472 27.4724 25.1662 27.1618C25.3087 27.1288 25.1826 26.9783 25.204 26.9715C25.6889 26.8138 25.3756 27.3287 25.7436 27.421C25.638 27.0876 25.8522 27.1141 26.1959 27.0271C26.3616 26.9854 26.252 26.8652 26.2654 26.8494C26.4897 26.6132 26.7021 26.854 26.752 26.9023C26.9404 27.0799 27.0968 26.8287 27.2234 26.9499C27.3476 27.0705 27.1088 27.2876 27.4405 27.2555C27.5244 27.124 27.2461 26.822 27.499 26.7482C27.5301 26.7392 27.5622 26.7307 27.5952 26.7227C28.5861 26.4605 30.3411 26.7392 31.0847 26.8674C31.8592 26.9826 32.1154 27.0108 32.5536 27.1379C33.3434 27.3861 33.1005 27.0901 33.6295 27.1064C34.1629 27.1355 33.758 27.6404 33.7956 27.7821C33.8172 27.8723 33.8695 27.8625 33.9219 27.8676C33.9517 27.8704 33.9815 27.8781 34.005 27.9115C34.0691 28.0036 33.8631 28.0321 34.0522 28.1163C34.2389 28.1971 34.8373 28.1615 34.9551 28.0652C35.1994 27.8554 35.0554 27.4829 35.5512 27.783C35.5787 27.8004 35.4256 27.9076 35.5337 27.9668C36.3964 28.4339 37.3073 28.8965 38.0776 29.4812C38.1836 29.562 37.9897 29.6475 38.0498 29.696C38.6742 30.2123 38.5841 29.8151 39.1382 29.7903C38.811 30.0928 38.8603 30.4337 39.3532 30.7916C39.3924 30.8203 39.4275 30.8421 39.4594 30.8583C39.6719 30.9677 39.7484 30.8288 39.9834 30.8631C40.0656 30.875 40.1899 31.1377 40.2794 31.0966C40.5758 30.9657 40.5902 30.5517 40.9933 31.0585C41.0114 31.0821 40.841 31.1449 40.9109 31.2174C41.3533 31.6912 41.593 31.4959 42.119 31.9762C42.5333 32.3525 43.0176 33.229 43.3141 33.7591C42.9081 34.0184 43.2932 34.4241 43.6925 34.4743C43.8548 34.8027 44.0281 35.1513 44.1228 35.4943C44.134 35.5342 44.1441 35.5739 44.1531 35.6134C44.1829 35.7461 44.0208 35.708 44.0121 35.7292C43.8683 36.0425 44.2224 36.1067 44.2585 36.1898C44.619 37.0844 44.4306 37.8665 44.5922 38.769C44.5973 38.7994 44.9297 38.8929 44.653 39.1074C44.634 39.119 44.5228 38.8081 44.4523 39.2209C44.3815 39.6456 44.0204 40.3456 43.9545 40.9357C43.9437 41.0739 44.0596 41.5162 43.7391 41.6922C43.6964 41.7147 43.6269 41.6356 43.5547 41.6623C43.3348 41.7381 43.5726 41.9621 43.2711 42.0205C43.2607 42.0224 43.2496 42.0241 43.2379 42.0256C42.8849 42.0735 42.5082 42.3148 42.3735 42.8822C42.3689 42.8997 42.5206 43.1609 42.4126 43.3093C42.2481 43.5359 41.9646 43.8236 41.7777 44.0606C41.6885 44.1742 41.8769 44.2066 41.8637 44.2281C41.3338 45.0308 40.7508 45.4388 39.971 46.101C39.8337 46.2172 39.5811 46.7629 39.1892 46.8634C38.9915 46.9145 38.8354 46.7505 38.6704 46.6334C38.4776 46.4978 38.2806 46.4229 37.9747 46.8116C37.7492 47.0974 38.0375 48.2052 37.1665 48.1802C36.2213 49.049 35.0726 49.4792 34.0849 50.3048C34.0401 50.342 34.0326 50.6871 33.9111 50.7549C33.8083 50.812 33.714 50.8155 33.6267 50.8205C33.5593 50.8242 33.4967 50.8284 33.4408 50.8565C32.9057 51.1215 32.4603 51.5044 31.949 51.7601C31.751 51.8592 31.7529 51.6986 31.5159 51.8159C31.2802 51.9319 31.2026 52.1822 30.847 52.2643C30.577 52.3259 30.1674 52.1086 29.8279 52.2272C29.9826 52.5676 29.7538 52.6732 29.4044 52.9507C29.3375 53.0041 29.4744 53.0827 29.4457 53.114C29.3294 53.2442 29.148 53.211 29.0399 53.3426C29.0135 53.3744 29.0662 53.4907 29.0476 53.5232C28.8909 53.8051 28.3751 53.7259 28.2868 53.7109C28.0114 53.6668 27.9304 53.7914 27.7852 53.8516C27.7518 53.8654 27.7153 53.8756 27.6725 53.8793C27.4453 53.8983 27.7016 53.6824 27.4534 53.7427C26.9401 53.8677 26.3238 54.1537 25.8379 54.3479C25.6421 54.4271 25.8402 54.5297 25.8137 54.5447C25.4261 54.7516 24.9401 54.7506 24.8424 55.1541C24.2395 54.4478 24.6307 55.3303 23.9798 55.3922C23.9283 55.3966 23.7222 55.0311 23.8768 54.9067C24.0311 54.7824 24.3444 54.8002 24.5514 54.6164C24.6004 54.5734 24.7845 54.0816 24.8215 54.0411C25.1041 53.729 25.3867 54.2827 25.4187 54.3067C25.7702 54.5608 26.0104 54.007 26.1022 53.9366C26.5275 53.6139 26.9765 53.5141 27.3333 53.2523C27.3905 53.2106 27.4252 53.1563 27.4481 53.097C27.519 52.9128 27.4759 52.6799 27.631 52.62C28.3237 52.3494 28.8019 52.7508 29.2126 52.0071C29.3023 51.8466 28.9743 51.514 29.6084 51.5905C29.648 51.5958 30.147 51.7038 30.2578 51.42C30.2716 51.3843 30.212 51.2694 30.2404 51.2427C30.4291 51.067 30.631 51.0786 30.8534 50.9057C31.0761 50.7326 31.332 50.5118 31.625 50.4009C31.7976 50.3363 32.1354 50.4239 32.243 50.4309C32.5534 50.4517 32.6536 50.0725 32.8933 50.1713C33.1361 50.2693 33.0221 50.7 33.4548 50.6018C33.3721 50.4449 33.2929 50.2831 33.2144 50.1207C33.1439 49.9748 33.074 49.8286 33.0027 49.6849C33.8047 49.225 34.621 48.8394 35.3711 48.3115C35.4626 48.2466 35.2662 48.1617 35.361 48.0885C35.7705 47.7727 36.2089 47.6182 36.5982 47.2633C36.9089 46.9803 37.1385 46.5586 37.4318 46.2568C37.6839 46.3317 37.9253 46.2009 38.147 46.0248C38.3191 45.8883 38.4745 45.7297 38.6374 45.6028C38.765 45.5033 38.8262 45.5863 38.9332 45.5332C39.3324 45.3299 38.951 45.2203 38.9988 45.1018C39.1864 44.6026 39.7739 45.1071 40.1719 44.6622C40.1957 44.6372 40.1477 44.0833 40.1644 44.0245C40.2604 43.6646 40.3085 44.0779 40.4692 43.9403C40.7592 43.6883 41.0003 43.5509 41.1781 43.1184C41.2309 42.9898 41.1953 42.6062 41.4979 42.511C41.5378 42.4983 41.64 42.5893 41.6615 42.5715C42.0391 42.2404 41.6793 42.0024 41.6865 41.71C41.6917 41.5509 41.8167 41.421 41.9493 41.3248C42.0682 41.239 42.1939 41.1803 42.2467 41.1635C42.5374 41.0676 42.2591 41.3523 42.2709 41.3723C42.4345 41.6129 42.535 41.328 42.6518 41.1244C43.0468 41.2699 43.1611 40.9449 42.7701 40.9108C42.7281 40.9069 42.6898 41.0891 42.6518 41.1244C42.3695 40.758 42.4441 40.4587 42.9298 40.2169C43.1538 40.1002 43.3131 40.3282 43.3899 39.764C43.4176 39.5069 43.1154 39.5352 43.0835 39.3094C43.0069 38.8133 43.3243 38.2198 43.2483 37.7147C43.221 37.5368 43.076 37.7211 43.0513 37.6025C42.9828 37.2938 43.0555 37.0018 42.9203 36.6985C42.9079 36.6722 42.7644 36.778 42.7391 36.6855C42.6809 36.4798 42.6231 36.2793 42.5589 36.0773C42.41 35.6104 42.2326 35.139 41.9182 34.6538C41.7173 34.3292 41.1825 33.7997 40.9304 33.5083C40.4894 32.9701 39.9288 32.1541 39.3699 31.8C39.0404 31.588 38.9809 31.7121 38.8215 31.7276C38.8214 31.7275 38.8214 31.7276 38.8214 31.7276C38.8001 31.7298 38.7767 31.7301 38.7506 31.7275C38.3251 31.6824 38.0319 31.0186 37.9936 30.9242C37.992 30.9198 38.3222 31.0915 38.2057 30.913C38.2092 30.7041 37.9972 30.9257 37.9936 30.9242C37.9733 30.8597 37.3567 30.4349 37.2187 30.3973C37.1424 30.3733 37.0996 30.5289 37.0618 30.5141C36.1655 30.1636 35.2986 29.8017 34.4082 29.4071C34.3931 29.3984 34.4761 29.2424 34.4396 29.2239C34.1284 29.0643 33.8565 29.0425 33.5786 29.048C33.401 29.0523 33.2249 29.0695 33.0387 29.0735C32.5644 29.0839 32.2234 28.9735 32.0059 28.6297C31.6552 28.6033 31.1724 28.4037 30.8872 28.2947C30.6006 28.1848 30.5306 28.5224 30.5051 28.5265C29.6992 28.6823 29.254 28.4783 28.4161 28.4748C28.242 28.4749 27.9926 28.4936 27.7317 28.5253C27.4003 28.565 27.0499 28.6269 26.8115 28.6775C26.4776 28.7492 26.2633 28.6999 25.9585 28.8004C25.9174 28.814 25.9844 28.9565 25.9725 28.9644C25.6571 29.2008 25.7605 28.8085 25.6772 28.7555C25.3758 28.5651 25.1855 28.4684 24.7568 28.6738C24.655 28.7214 24.4734 29.3074 24.2984 29.3814C24.068 29.4772 24.1134 29.2694 23.8718 29.3773C23.8511 29.3865 23.8845 29.4993 23.7278 29.5343C23.1445 29.6663 22.502 29.8037 21.8907 29.9901C21.7466 30.0339 21.6031 30.0807 21.4627 30.1306C21.3623 30.1658 21.5512 30.2991 21.4078 30.3529C20.7321 30.6065 19.9875 30.8784 19.2921 31.0634C19.1218 31.108 19.1744 30.9458 19.1247 30.9239C18.8191 30.7932 18.64 31.2373 18.5925 31.2644C17.7559 31.7446 16.9753 31.9484 16.1588 32.3033C15.86 32.4335 15.5591 32.5833 15.2489 32.7762C15.1848 32.8161 14.8373 33.3914 14.4724 33.2214C14.4479 33.2101 14.0804 33.0327 13.9786 33.3287C13.9724 33.3472 14.1862 33.4256 13.934 33.5322C13.6826 33.6386 13.3407 33.934 12.9225 33.9426C12.79 33.9457 12.3934 33.7876 12.1929 34.1778C12.1801 34.2042 11.9561 34.9695 11.5986 34.7058C11.5402 34.6622 11.3759 34.2719 11.0971 34.6603C11.0442 34.7351 11.2187 34.7504 11.0555 34.9015C10.9256 35.022 10.7448 35.1073 10.5627 35.2113C10.3944 35.3073 10.2252 35.4192 10.0945 35.5895C10.0473 35.6517 9.91348 36.0449 9.59847 35.9645C9.54913 35.9519 9.54754 35.7938 9.4271 35.839C8.85368 36.0539 8.33419 36.4323 7.73771 36.6329C7.52687 36.704 7.52165 36.4501 7.2904 36.5015C7.05948 36.5528 6.62206 36.7131 6.45613 36.9154C6.29002 37.1179 6.68864 37.3212 6.38139 37.5116C5.91423 37.8008 5.42608 38.0515 4.93311 38.2795C5.27951 38.022 -0.301857 41.3184 0.657919 35.6535C0.795265 35.3912 0.560701 35.5521 0.775739 35.1577C1.60809 33.7288 2.85787 32.1187 3.82942 31.4055C4.56785 30.8944 3.97328 31.832 4.47982 31.3886C4.48003 31.3884 4.48024 31.3883 4.48046 31.3881C4.72458 31.173 4.65195 30.6207 4.69725 30.55C5.09811 29.8978 5.58572 29.6392 6.02779 29.0725C6.11518 28.9599 5.89608 28.9455 5.96958 28.8534C6.21776 28.5399 6.56548 28.2771 6.82651 27.9769C6.94353 27.8418 6.8256 27.7767 6.94602 27.6627C7.24229 27.3793 7.50277 27.1828 7.8507 26.9928C7.8822 26.9757 7.84242 27.2544 8.04186 27.0522C8.36272 26.7264 8.85847 26.3805 9.13668 25.9094C9.21711 25.7712 9.00531 25.5606 9.38725 25.4603C9.46755 25.4389 9.6627 25.753 9.71296 25.2538C9.7168 25.2183 9.74779 25.059 9.81543 24.8832C9.90674 24.6455 10.0657 24.3769 10.3099 24.3473C10.4238 24.3315 10.7846 24.3805 10.8821 24.2138C10.8946 24.1904 10.7084 24.152 10.8056 24.0294C11.1505 23.5988 11.5692 23.1936 11.9363 22.7462C12.0342 22.6265 11.7551 22.6746 11.9049 22.4997C12.3085 22.0271 12.8815 21.5039 13.3495 21.1029C13.5221 20.9555 13.5103 21.1633 13.5325 21.162C13.8911 21.1447 13.7688 20.8012 13.8151 20.727C14.1126 20.2623 14.5126 20.0772 14.8358 19.6928C14.9253 19.587 14.7451 19.5464 14.7546 19.5171C14.8586 19.2183 14.9087 19.5673 15.0579 19.4607C15.2735 19.3075 15.4827 19.123 15.6796 18.9313C15.8653 18.7504 16.0427 18.5607 16.2103 18.3784C16.3371 18.2401 16.0597 18.2615 16.1751 18.1388C16.8545 17.4114 17.6014 16.6872 18.3578 16.0716C18.5004 15.956 18.5182 16.1361 18.5676 16.1317C18.9113 16.1039 18.9659 15.6182 19.0086 15.5343C19.2019 15.1536 19.4005 15.1299 19.6363 14.8615C20.1822 14.2384 20.821 13.586 21.4786 12.9429C22.1855 12.252 22.9367 11.5509 23.5537 10.9708C25.0174 9.59177 26.2181 8.55799 27.5164 7.22036C27.603 7.13117 27.6892 7.04138 27.7751 6.95086C27.8636 6.85796 27.6404 6.81979 27.7147 6.73821C28.683 5.68729 29.729 4.71699 30.6511 3.6532C30.7305 3.56208 30.4834 3.56851 30.6055 3.41928C30.8651 3.1009 31.1342 2.82269 31.4688 2.53156C31.6118 2.41122 31.561 2.69668 31.7018 2.57414C31.9955 2.33573 32.3557 1.90149 32.3187 1.92517C32.2891 1.97683 32.1605 1.7915 32.1103 1.91352C32.3138 2.04715 31.3099 2.00447 32.7709 3.49025C34.0335 4.25555 31.19 3.86562 30.2282 4.02725C30.0063 4.03212 29.8114 4.03111 29.5927 4.02968C29.4737 4.02854 29.3187 3.67862 29.0747 3.78131C29.0694 3.88458 29.0859 4.00308 29.092 4.11194C28.1166 4.26296 27.1561 4.39565 26.1743 4.52685C24.8226 4.70761 23.4648 4.88084 22.1007 5.08912C21.9416 5.11341 21.783 5.13811 21.6235 5.16349C21.5177 5.18037 21.7322 5.34139 21.5277 5.37505C20.3721 5.56569 19.2551 5.80976 18.0446 5.84061C18.0176 5.84131 17.9907 5.8419 17.9637 5.84238C17.8408 5.84479 17.842 5.49766 17.5003 5.61026C17.4473 5.62909 16.9085 5.7706 16.7877 5.86745C16.7711 5.88177 16.8956 6.0216 16.7257 6.05651C15.8267 6.23848 14.8851 6.3801 13.9626 6.4698C13.8647 6.47925 13.7684 6.48787 13.6736 6.49564C13.5154 6.5083 13.6512 6.31082 13.5364 6.31873C12.7153 6.37739 11.8338 6.67196 11.0383 6.66432C10.5081 6.65826 10.6249 6.3377 10.3191 6.10131C10.2498 6.07288 9.95742 6.12168 9.89365 5.96273C9.76756 5.55639 9.85421 5.0688 9.70331 4.63882C9.63669 4.55257 9.26418 4.73012 9.46801 4.45244C9.45852 4.43821 9.77839 4.29822 9.83608 4.2064C9.88479 4.1412 9.74554 3.99354 9.85505 3.90118C9.95313 3.81106 10.0787 3.93319 10.2645 3.81408C10.4369 3.69648 10.3007 3.52409 10.6702 3.43147ZM29.5708 27.8501C29.2926 27.6811 29.247 28.279 29.5454 28.1413C29.5598 28.134 29.5849 27.8585 29.5708 27.8501ZM34.8556 49.2126C35.3184 49.2272 35.3151 48.7617 34.9839 48.7372C34.6542 48.7109 34.7157 49.2076 34.8556 49.2126ZM31.5946 51.3545C32.0812 51.328 31.7326 50.5517 31.4059 50.9238C31.3867 50.9451 31.5663 51.356 31.5946 51.3545ZM11.5729 5.78257C11.5658 5.7758 11.3387 5.81026 11.3367 5.81866C11.2512 6.02785 11.7035 5.95913 11.5729 5.78257ZM28.1989 53.2711C28.3743 53.3175 28.681 53.0289 28.4645 52.9721C28.2914 52.9264 27.982 53.2134 28.1989 53.2711ZM15.1116 31.128C15.1037 31.1218 14.9481 31.1866 14.9728 31.2307C15.0528 31.3723 15.2443 31.231 15.1116 31.128ZM22.057 55.7613C22.9897 55.4618 23.7893 55.909 22.7573 56.2043C22.5702 56.2572 23.0739 55.8514 22.8202 55.8765C22.3582 55.9221 22.2216 56.438 21.7034 56.3692C21.6106 56.3562 22.0044 55.777 22.0583 55.7598C22.0579 55.7603 22.0574 55.7608 22.057 55.7613ZM29.4213 27.1284C29.4157 27.12 29.1822 27.1103 29.1766 27.1186C29.051 27.3073 29.5161 27.3265 29.4213 27.1284ZM6.18128 35.2711C6.16208 35.2623 5.67399 35.4965 5.66539 35.5182C5.55539 35.9245 6.54447 35.451 6.18128 35.2711ZM43.3087 33.7745C43.618 33.8971 43.8068 34.1766 43.6922 34.4731C43.5811 34.2384 43.4471 34.0084 43.3087 33.7745Z" fill="black"/>
</svg>
