<svg width="45" height="55" viewBox="0 0 45 55" fill="none" xmlns="http://www.w3.org/2000/svg">
<path d="M11.7356 2.99397C12.3174 2.842 13.0289 2.70055 13.7095 2.58726C14.2348 2.49957 14.7684 2.42301 15.2159 2.36862C15.5488 2.32729 15.4026 2.46408 15.6358 2.4399C16.0791 2.39517 16.4915 2.26246 16.9326 2.22825C17.0799 2.21726 16.9319 2.41644 17.0857 2.40113C17.2474 2.38482 17.408 2.36449 17.5683 2.34141C18.2316 2.24647 18.8765 2.10456 19.5659 2.0099C20.162 1.92825 20.7621 1.84605 21.3576 1.76571C22.6274 1.59446 23.897 1.42713 25.1733 1.27628C26.4455 1.12715 27.7287 0.989865 29.0368 0.90596C30.1513 0.858567 31.1197 0.750657 32.5699 0.99402C32.905 1.06827 33.2416 1.16757 33.551 1.41726C34.1402 5.25787 32.2466 4.80079 31.7318 6.22592C31.6323 6.35984 31.8091 6.3766 31.7984 6.40885C31.6178 6.91965 31.4959 6.59975 31.2456 6.83734C30.4858 7.54944 29.69 8.40374 29.0091 9.19283C28.8231 9.40822 28.6407 9.62385 28.4823 9.8166C28.1452 10.2254 28.7201 10.0273 28.2371 10.3149C28.2036 10.3352 28.1794 10.1291 28.068 10.2268C27.8206 10.4434 27.3882 10.9569 27.216 11.1254C26.8659 11.4691 26.8111 11.5307 26.4876 11.8773C26.029 12.3663 25.4714 12.8497 25.0175 13.3849C24.9216 13.4988 25.1734 13.465 25.0307 13.6568C24.8863 13.8505 24.4453 14.2986 24.2782 14.4204C24.1075 14.5458 24.0768 14.3948 24.0304 14.4017C23.8104 14.4319 23.6349 14.6903 23.5126 14.9215C23.4206 15.0957 23.3591 15.2541 23.334 15.2857C22.2756 16.6071 21.1282 17.5265 20.0303 18.6687C19.3911 19.3341 18.7464 20.0563 18.1172 20.7267C17.9241 20.9326 17.7327 21.1333 17.544 21.3253C16.5917 22.2937 15.7146 23.0734 14.8096 24.0279C14.7122 24.1302 14.9628 24.1428 14.8443 24.268C14.1238 25.0288 13.4242 25.7478 12.6762 26.4807C12.1274 27.0176 11.5566 27.5565 10.9762 28.0781C10.8416 28.1986 10.8839 27.9166 10.7425 28.03C9.87203 28.7339 8.44187 29.7482 8.48701 30.7447C8.04665 31.1714 7.55424 31.6534 7.0585 32.0512C6.94759 32.1393 6.83945 32.2198 6.73499 32.2906C6.37789 32.5323 6.5272 32.1112 6.22964 32.5389C6.15578 32.6424 6.38282 32.6318 6.26392 32.7782C5.76657 33.3914 5.19452 33.9301 4.74144 34.5483C4.656 34.6674 4.78786 34.7329 4.77924 34.7803C4.70451 35.1681 4.01934 35.4244 3.93412 35.4854C3.00745 35.6834 3.08356 37.9163 2.02502 36.011C2.1612 35.9344 1.8963 35.8682 2.0303 35.7828C2.12121 35.724 2.23498 35.6471 2.36875 35.5531C3.178 34.9841 4.0915 34.5049 4.97309 34.1345C5.20575 34.0372 5.07354 34.2866 5.18844 34.2477C5.66361 34.0919 5.62266 33.7713 6.09859 33.6159C6.1992 33.5829 6.2054 33.7336 6.22924 33.7391C6.60313 33.8261 6.67022 33.4221 6.73871 33.3822C7.57602 32.8865 8.23781 32.9862 9.07791 32.5834C9.17398 32.537 8.88462 32.4662 9.15957 32.3456C9.31277 32.2785 9.46854 32.2117 9.62669 32.1454C11.3627 31.4168 13.2505 30.8007 15.0421 30.3682C15.3472 30.2944 15.1739 30.4875 15.198 30.4969C15.5763 30.6438 15.6724 30.2584 15.7662 30.2161C16.2561 30.0016 16.7863 29.9549 17.1945 29.7955C17.4035 29.714 17.5865 29.6021 17.7276 29.4216C20.1102 28.8654 22.4719 28.2365 24.8919 27.9207C25.8495 27.7962 26.8154 27.722 27.7862 27.7263C27.8296 27.7261 27.7697 27.9006 27.856 27.8995C28.8946 27.8956 28.659 27.6579 29.3351 27.2901C29.5072 27.1976 30.0558 27.5542 30.1012 27.5814C30.2738 27.6778 30.1104 27.9344 30.1675 27.9521C30.6342 28.0924 30.5255 27.2686 31.1748 27.2562C31.1949 27.2572 31.1127 27.4102 31.1668 27.4245C31.3342 27.4695 31.4986 27.4082 31.6605 27.4606C32.035 27.5836 32.1413 27.983 32.7218 27.769C32.7636 27.7532 32.7511 27.592 32.8402 27.4655C32.9067 27.3711 33.0314 27.2955 33.2753 27.3186C33.4947 27.3342 34.5183 27.412 34.7955 27.4829C35.0727 27.5475 34.8609 27.6732 34.8805 27.6821C35.5961 27.9792 35.3043 28.0246 35.6296 28.3738C35.9462 28.7264 35.9671 28.0197 36.1351 27.971C36.3072 27.9217 36.8053 28.197 36.9281 28.2881C37.0486 28.3762 36.8594 28.4287 36.97 28.489C37.6874 28.8944 37.4008 28.2424 37.6892 28.206C38.3641 28.1281 38.6995 28.8002 39.1825 29.0641C39.3168 29.1378 39.2502 28.9791 39.3797 29.0246C39.8385 29.1933 40.0649 29.4437 40.5124 29.6309C40.5778 29.6587 40.6508 29.6872 40.7303 29.715C40.8277 29.7444 41.4475 29.783 41.5712 30.1781C41.5871 30.2332 41.4045 30.2524 41.5688 30.4217C41.8193 30.6746 42.2553 31.1279 42.5329 31.3864C42.7391 31.5765 42.6931 31.192 42.8717 31.5086C42.9477 31.65 42.6689 31.5022 42.8165 31.7594C42.9689 32.01 43.3806 32.6279 43.5098 32.8763C43.6471 33.1233 43.719 32.9153 43.7395 32.9298C43.8642 33.0192 44.1797 33.5226 44.1896 33.5605C44.5687 34.4574 44.7383 35.3381 44.8123 36.2525C44.9226 37.6751 44.7717 39.0831 44.4695 40.5155C44.4303 40.6966 44.6262 40.6197 44.622 40.6477C44.5195 41.2885 44.2197 40.6806 43.9505 41.0527C44.2989 41.0947 44.1683 41.3262 44.0496 41.7556C43.9911 41.9626 44.1575 41.9018 44.1635 41.9249C44.2367 42.3021 43.9011 42.4082 43.83 42.4367C43.5651 42.5475 43.679 42.8522 43.4957 42.9232C43.3148 42.9903 43.286 42.6164 43.0999 42.9876C43.1495 43.1332 43.5027 43.0435 43.5012 43.2479C43.5009 43.2716 43.4958 43.2994 43.4846 43.332C43.1144 44.5581 41.4727 46.228 40.7493 46.8705C40.0498 47.536 39.8125 47.7629 39.3611 48.0941C39.0296 48.3317 38.8955 48.4604 38.8306 48.5656C38.7325 48.722 38.7878 48.8248 38.5229 49.1089C38.0741 49.5797 37.9749 48.9149 37.8267 48.8668C37.6809 48.8156 37.6794 48.9779 37.5492 48.9845C37.4199 48.9902 37.5623 48.784 37.3383 48.9096C37.1161 49.0373 36.6593 49.6098 36.6507 49.7703C36.6371 50.1115 37.0707 50.1921 36.423 50.4709C36.3857 50.4864 36.4152 50.2862 36.2766 50.3522C35.1827 50.8767 34.0674 51.4463 32.9297 51.838C32.7732 51.8914 32.8374 51.6735 32.7458 51.7025C32.6914 51.7196 32.6416 51.7361 32.5959 51.7519C31.8391 52.0082 32.2114 52.15 31.845 52.6289C31.7985 52.1809 31.4228 52.0553 30.7211 52.3101C30.2982 52.4606 30.4339 52.6114 30.2006 52.8324C30.1304 52.8992 29.7826 52.8781 29.7549 52.9798C29.6598 53.3133 30.0507 53.5342 29.2569 53.6434C29.2222 53.6475 29.2814 53.4641 29.1648 53.4891C28.4135 53.6431 28.3956 53.9636 27.5931 54.2008C27.2203 54.309 26.6364 54.3796 26.0871 54.4246C25.7092 54.4565 25.3249 54.4816 25.0258 54.5135C24.964 54.034 24.3142 54.2375 24.0523 54.5997C23.5604 54.6401 23.0624 54.6987 22.574 54.6744C22.4113 54.6657 22.512 54.5207 22.4908 54.5065C22.1731 54.2813 21.9781 54.6089 21.8739 54.623C20.8196 54.7439 19.972 54.4902 18.9878 54.4728C18.8955 54.4704 18.8023 54.4697 18.7077 54.4711C18.6699 54.4715 18.5314 54.7902 18.3002 54.4827C18.2873 54.4617 18.6677 54.3966 18.1781 54.2645C17.6528 54.1242 16.8146 53.6424 16.1268 53.3816C15.9559 53.3233 15.4136 53.2827 15.2711 52.8485C15.2551 52.7931 15.3604 52.7603 15.3476 52.6732C15.3162 52.4003 14.9765 52.5342 15.0414 52.1458C15.1092 51.7417 15.0622 51.3331 14.7047 50.7338C14.6935 50.7118 14.3874 50.6015 14.3626 50.3779C14.3444 50.2157 14.3432 50.0163 14.3572 49.8062C14.3728 49.5686 14.3963 49.3331 14.4068 49.1395C14.4166 48.9667 14.2422 49.0701 14.241 49.0399C14.2423 47.848 14.572 46.958 15.1824 45.8594C15.2693 45.7052 15.365 45.2698 15.6164 44.9513C15.6978 44.8469 15.7926 44.7577 15.8991 44.6995C16.38 44.4671 16.6377 45.3373 17.2277 44.5325C17.4462 44.2472 17.4001 42.9977 18.4075 43.1532C18.9077 42.8898 19.4445 42.7421 19.9808 42.6579C20.9453 42.5081 21.9095 42.5498 22.9266 42.5093C22.9958 42.5061 23.2486 42.2365 23.4215 42.2609C23.6772 42.2974 23.7966 42.4524 23.9694 42.4876C24.3034 42.5579 24.648 42.608 24.9644 42.6567C25.3458 42.7159 25.7302 42.7818 26.1014 42.8966C26.3663 42.9795 26.2342 43.0868 26.5483 43.1905C26.8523 43.2937 27.1187 43.1847 27.5154 43.4212C27.8063 43.5989 27.9789 44.0695 28.3706 44.279C28.5285 43.9406 28.801 44.0574 29.341 44.1934C29.4452 44.2198 29.3958 44.0543 29.448 44.0608C29.5775 44.0754 29.6751 44.1462 29.7734 44.2023C29.839 44.2396 29.9068 44.2714 29.9879 44.2783C30.0375 44.2828 30.0951 44.1688 30.1391 44.1662C30.5169 44.1388 30.8759 44.648 30.9263 44.7324C31.1463 45.0638 31.3696 44.9975 31.5719 45.1963C31.7722 45.3951 31.3733 45.277 31.6252 45.4718C32.1351 45.868 32.8583 46.2885 33.4014 46.6559C33.621 46.8032 33.565 46.5617 33.5986 46.5794C33.7639 46.6719 33.9047 46.7804 34.0447 46.8862C34.3183 47.0931 34.5686 47.2764 34.8655 47.2134C34.6533 48.146 35.1789 47.3313 35.7005 47.9493C35.7413 47.9988 35.5486 48.3741 35.3256 48.2796C35.1031 48.1857 34.8983 47.8697 34.5839 47.7589C34.5075 47.7299 33.924 47.7911 33.8633 47.7783C33.6924 47.7376 33.6198 47.6449 33.5961 47.5386C33.553 47.3439 33.6757 47.1039 33.675 47.0767C33.6501 46.6136 32.9603 46.6636 32.8303 46.6164C32.225 46.3874 31.7899 46.0268 31.284 45.8497C30.9447 45.7296 30.7204 46.0707 30.4892 45.9319C29.9664 45.6213 29.7672 45.2143 29.3861 45.0231C29.2164 44.9384 28.9917 44.8904 28.6907 44.9248C28.4814 44.9492 28.4731 45.4239 28.019 44.8566C27.9913 44.8204 27.6559 44.3422 27.3276 44.4384C27.2866 44.4504 27.2431 44.5723 27.1973 44.5672C26.8862 44.5293 26.7241 44.3643 26.397 44.311C26.0722 44.2586 25.6624 44.2154 25.3213 44.0831C25.1103 44.0012 24.8792 43.7009 24.7854 43.6205C24.7772 43.6133 24.7689 43.6066 24.7605 43.6002C24.5018 43.4018 24.1335 43.5946 23.9883 43.3692C23.8285 43.1346 24.26 42.8824 23.7662 42.6725C23.6995 43.0027 23.6104 43.3387 23.5352 43.6698C22.471 43.5143 21.4176 43.3834 20.3897 43.5606C20.2628 43.5838 20.4213 43.7404 20.2892 43.7702C20.2577 43.7774 20.2265 43.7843 20.1956 43.7908C19.6899 43.8997 19.2073 43.9234 18.7387 44.1808C18.3503 44.3958 18.0565 44.7945 17.7707 45.0875C17.3692 44.9547 16.9969 45.405 16.7346 45.7661C16.7058 45.8041 16.6773 45.8413 16.6489 45.8769C16.5459 46.0082 16.4669 45.9429 16.374 46.0293C16.0329 46.3734 16.4424 46.348 16.4305 46.4805C16.42 47.0347 15.6827 46.7797 15.4958 47.4691C15.4819 47.5099 15.7851 48.0123 15.8039 48.0678C15.9021 48.4556 15.6502 48.1062 15.5817 48.3301C15.4628 48.7479 15.3323 49.0698 15.44 49.6307C15.4486 49.6745 15.4725 49.7347 15.5001 49.8061C15.5758 49.999 15.6991 50.2265 15.5911 50.4169C15.5719 50.4518 15.4332 50.4502 15.4308 50.4776C15.4233 50.9909 15.8659 50.8741 16.0766 50.9777C16.2723 51.0473 16.2257 51.4593 16.2438 51.5957C16.2366 51.9047 16.0583 51.5384 16.0434 51.5436C15.7579 51.5967 15.9761 51.8099 16.1542 51.9966C15.8949 52.3335 16.2249 52.5663 16.3429 52.1839C16.3577 52.1457 16.1781 52.047 16.1542 51.9966C16.6022 51.8491 16.8488 51.9822 17.0742 52.5329C17.1869 52.784 16.8896 52.8983 17.5755 53.0983C17.8777 53.1723 17.8602 52.861 18.1383 52.8688C18.4961 52.8788 18.8397 52.9969 19.2309 53.1125C19.5743 53.2124 19.8823 53.2981 20.2004 53.309C20.4468 53.3157 20.2221 53.1379 20.3902 53.1363C20.8315 53.1287 21.1987 53.2608 21.6592 53.2013C21.7002 53.1955 21.6001 53.0309 21.7406 53.0285C22.7669 53.0016 23.7008 53.029 24.8005 52.8708C25.0525 52.8341 25.409 52.755 25.7573 52.6693C26.135 52.577 26.5232 52.4735 26.8115 52.4171C27.7541 52.2374 28.9778 52.1322 29.7546 51.8047C30.256 51.5938 30.0879 51.4755 30.2674 51.2925C30.6098 50.941 31.4827 51.0125 31.6061 51.0245C31.6104 51.0259 31.1921 51.2365 31.4548 51.2218C31.6561 51.3306 31.6018 51.0271 31.6061 51.0245C31.6492 51.0297 31.9257 50.9379 32.1939 50.8309C32.4215 50.7405 32.6428 50.6397 32.7138 50.5911C32.798 50.5333 32.6814 50.4151 32.7263 50.3877C33.7923 49.7389 34.8496 49.1207 35.9351 48.5093C35.9552 48.5001 36.0221 48.6649 36.0684 48.6412C36.7173 48.3119 36.9795 47.862 37.3655 47.4111C37.4653 47.2941 37.5659 47.1886 37.6656 47.0983C37.9544 46.8367 38.2468 46.6942 38.587 46.6924C38.8989 46.3724 39.4484 46.0307 39.7585 45.8238C40.0747 45.6122 39.8571 45.3416 39.8741 45.3145C40.3695 44.4448 40.8705 44.1281 41.447 43.2985C41.5883 43.0912 41.7732 42.7636 41.9311 42.4253C42.0777 42.1145 42.2003 41.7975 42.2772 41.5685C42.4021 41.1905 42.5588 40.9911 42.6212 40.6262C42.6294 40.577 42.47 40.5797 42.4689 40.5636C42.4093 40.1299 42.7093 40.416 42.7966 40.3532C43.1067 40.1245 43.2855 39.9587 43.2664 39.4236C43.2637 39.2929 42.7825 38.9009 42.7697 38.7039C42.755 38.4348 42.9384 38.5437 42.9104 38.2512C42.9076 38.2258 42.7906 38.2317 42.8024 38.0504C42.8305 37.5753 42.8399 37.0628 42.7899 36.5053C42.7507 36.0706 42.6807 35.6683 42.5813 35.3134C42.5499 35.202 42.4065 35.3854 42.3568 35.2243C42.109 34.4454 41.8244 33.8388 41.49 33.2039C41.4054 33.0473 41.5756 33.0605 41.5846 33.0063C41.6291 32.6632 41.1367 32.6151 41.0983 32.5848C40.5439 32.1064 40.0813 31.6814 39.5148 31.2884C39.0596 30.9748 38.5275 30.6895 37.8748 30.5222C37.7851 30.4945 37.0991 30.6517 36.9112 30.2797C36.9009 30.2548 36.7043 29.8681 36.3989 30.0234C36.3823 30.0339 36.5134 30.2334 36.2209 30.1493C35.9287 30.0658 35.4195 30.0807 35.0123 29.839C34.8898 29.7633 34.6062 29.3991 34.1594 29.6108C34.1252 29.623 33.4409 30.1429 33.2471 29.7347C33.2139 29.6679 33.2799 29.2453 32.7631 29.4384C32.7618 29.4389 32.7605 29.4394 32.7592 29.44C32.6695 29.4793 32.8326 29.5778 32.5799 29.6264C32.18 29.7029 31.6859 29.5837 31.2032 29.7787C31.1213 29.8127 30.7656 30.1059 30.4823 29.8993C30.4368 29.867 30.5159 29.7229 30.3657 29.713C29.6481 29.6655 28.8907 29.8141 28.1537 29.7892C27.8894 29.7814 28.0001 29.541 27.719 29.5094C27.4338 29.478 26.8836 29.4852 26.6092 29.6275C26.3375 29.7693 26.6973 30.0861 26.276 30.1739C25.9436 30.2438 25.6161 30.3054 25.2863 30.3625C23.7847 30.6224 22.2623 30.7845 20.7574 31.1201C20.4849 31.1814 20.7402 31.2525 20.3419 31.353C19.6573 31.5267 18.747 31.7959 17.842 32.0571C16.8017 32.356 15.7857 32.6395 15.0617 32.7222C13.9905 32.8436 15.1984 32.2659 14.4039 32.435C14.0271 32.5156 13.7505 33.0578 13.6693 33.1003C12.8535 33.528 12.1772 33.5775 11.4335 33.9236C11.281 33.995 11.496 34.0955 11.366 34.1544C11.1091 34.2719 10.8227 34.3654 10.5531 34.4567C10.3506 34.5252 10.1538 34.5939 9.97348 34.6746C9.78426 34.7599 9.86495 34.8678 9.67983 34.9342C9.2313 35.0976 8.85055 35.202 8.3815 35.2765C8.33812 35.2836 8.53349 35.0188 8.20859 35.1569C7.68935 35.3787 7.01896 35.5574 6.49871 35.955C6.34427 36.0741 6.49279 36.332 6.02651 36.3392C5.93371 36.3393 5.85395 35.9746 5.59371 36.4623C5.56006 36.5361 5.07838 37.2745 4.64387 37.2248C4.54199 37.2025 4.13265 37.1072 3.97809 37.2622C3.95756 37.2843 4.14466 37.3542 4.00284 37.4646C3.93043 37.521 3.85928 37.5758 3.78971 37.6296C5.13102 40.1048 -1.77581 34.1612 1.06722 35.025C1.20094 34.8306 0.850278 35.0095 1.06155 34.7163C1.55879 34.0279 2.25222 33.3221 2.81075 32.785C3.0117 32.5937 2.98411 32.8278 3.00868 32.8231C3.40734 32.7474 3.30486 32.3745 3.36862 32.2771C3.75144 31.6941 4.19496 31.4462 4.62008 30.9352C4.72514 30.808 4.53111 30.7855 4.54345 30.7521C4.67961 30.409 4.70836 30.7882 4.88097 30.6506C5.00336 30.5533 5.12573 30.4469 5.2478 30.334C5.61349 29.9953 5.97125 29.6043 6.27592 29.2639C6.43049 29.0913 6.11915 29.1541 6.25978 29.0003C7.11822 28.0577 7.99963 27.1685 8.91641 26.3639C9.08719 26.2148 9.08895 26.4141 9.14463 26.4025C9.53057 26.3247 9.64774 25.7654 9.70497 25.6645C9.9701 25.2001 10.1793 25.1619 10.4717 24.827C10.5466 24.7409 10.6231 24.654 10.7011 24.5663C12.096 22.9985 13.8851 21.2652 15.2622 19.9114C15.6066 19.5727 15.9394 19.2489 16.2636 18.9351C17.716 17.5285 18.9922 16.3244 20.4006 14.8087C20.51 14.6912 20.2637 14.6799 20.3562 14.577C20.7873 14.1019 21.2232 13.6425 21.6702 13.1751C22.4432 12.3673 23.2546 11.531 23.9905 10.6911C24.086 10.5826 23.8131 10.6169 23.9656 10.4349C24.283 10.0548 24.7063 9.61198 25.0704 9.29954C25.2477 9.14691 25.1481 9.47865 25.3242 9.32303C25.7412 8.95343 26.1687 8.50387 26.5186 8.07481C26.668 7.89097 26.2953 8.03451 26.4993 7.80556C26.6279 7.6605 26.7851 7.4829 26.9238 7.32536C28.1941 5.87299 29.4426 4.45836 30.7054 3.09704C30.7968 2.99693 31.1755 3.09843 31.2509 2.85774C31.1747 2.7886 31.075 2.72238 30.9885 2.65606C31.4852 2.44179 30.3811 1.88805 31.8366 3.70282C32.2485 3.86006 30.2736 3.65511 29.2705 3.78978C28.0653 3.86544 26.823 3.9945 25.583 4.15855C25.4511 4.17608 25.3184 4.19417 25.1848 4.21282C25.0538 4.23122 25.3066 4.3904 25.0561 4.42666C23.9961 4.58108 22.965 4.77597 21.8919 4.89911C21.4897 4.94529 21.0823 4.98135 20.6647 5.00181C20.5134 5.00956 20.5293 4.65944 20.1022 4.78843C20.0253 4.81153 19.3736 4.97608 19.2194 5.08015C19.1982 5.09543 19.3473 5.2301 19.1359 5.27376C18.8098 5.34034 18.4855 5.40303 18.1567 5.46296C17.2351 5.63093 16.2793 5.77718 15.3625 5.8864C15.1578 5.91082 15.339 5.70157 15.1933 5.71747C14.9142 5.74864 14.6609 5.79089 14.3691 5.84748C13.6126 5.9938 12.8416 6.19304 12.1218 6.22896C11.4456 6.26557 11.6546 5.92148 11.2326 5.71584C11.1827 5.68468 10.7683 5.76711 10.7269 5.6042C10.5882 5.2017 10.6694 4.71062 10.5004 4.28614C10.4805 4.19082 9.9494 4.41362 10.2187 4.11485C10.2411 4.09375 10.613 3.93382 10.6901 3.83608C10.7422 3.76869 10.5907 3.62627 10.7078 3.52921C10.8384 3.42936 11.0104 3.53923 11.2188 3.41057C11.4466 3.2769 11.2828 3.11246 11.7356 2.99397ZM41.1281 44.8097C41.4714 44.6344 41.0227 44.2355 40.913 44.6114C40.9081 44.63 41.1108 44.8188 41.1281 44.8097ZM21.4152 42.9914C20.9514 42.7484 20.6806 43.1748 21.009 43.346C21.3258 43.5229 21.548 43.0671 21.4152 42.9914ZM26.1002 43.4424C25.631 43.0945 25.341 43.8961 25.9257 43.8799C25.9596 43.8796 26.1272 43.4628 26.1002 43.4424ZM12.7989 5.30249C12.7902 5.29613 12.5052 5.34743 12.5024 5.3561C12.3901 5.57348 12.9576 5.47121 12.7989 5.30249ZM30.6126 45.0607C30.5175 44.8799 30.0089 44.7734 30.1377 44.9977C30.2424 45.1772 30.7322 45.2843 30.6126 45.0607ZM39.0802 29.338C39.079 29.3272 38.8921 29.2394 38.8764 29.288C38.8283 29.4426 39.1045 29.5116 39.0802 29.338ZM37.3522 49.7146C36.4646 48.9065 36.3033 47.8864 37.2991 48.8083C37.4761 48.9753 36.7534 48.6426 36.9508 48.8902C37.3046 49.3368 37.8741 49.2479 38.1528 49.8141C38.2012 49.9141 37.4009 49.7591 37.3499 49.7139C37.3507 49.7141 37.3514 49.7144 37.3522 49.7146ZM41.8205 45.0899C41.8318 45.0894 42.0124 44.8617 42.0095 44.8511C41.9499 44.6146 41.5915 45.067 41.8205 45.0899ZM27.0246 27.9754C27.0072 27.9592 26.3347 28.0287 26.3144 28.0484C26.0088 28.3999 27.359 28.2606 27.0246 27.9754ZM25.0123 54.5024C24.7243 54.7387 24.3418 54.8099 24.0538 54.5997C24.3812 54.5765 24.6936 54.5377 25.0123 54.5024Z" fill="black"/>
</svg>
