<svg width="46" height="57" viewBox="0 0 46 57" fill="none" xmlns="http://www.w3.org/2000/svg">
<path d="M1.22007 17.9832C1.47249 17.9023 1.81455 17.9195 2.07658 17.9665C2.15868 17.981 2.13053 18.0909 2.18773 18.1056C2.30003 18.1342 2.39176 18.0714 2.50552 18.1077C2.54327 18.1202 2.51789 18.2922 2.55704 18.3016C2.77141 18.3516 2.96029 18.2866 3.17088 18.298C4.1943 18.356 5.21362 18.2973 6.24682 18.2459C6.59059 18.2285 7.01446 18.3287 7.35739 18.2177C7.39753 18.2045 7.35431 18.0615 7.36059 18.0484C7.4596 17.8482 7.45661 18.1486 7.54164 18.1776C7.87891 18.2917 8.23112 18.2596 8.52452 18.1635C8.52629 18.163 8.528 18.1623 8.52966 18.1616C8.64458 18.1146 8.48488 17.851 8.63291 17.9948C8.6433 18.0047 8.63139 18.1641 8.66861 18.176C8.75354 18.2027 8.90427 18.1545 8.96827 18.1584C9.09218 18.1668 9.11191 18.1626 9.22593 18.1491C9.38192 18.132 9.57667 18.1842 9.73749 18.1265C9.77174 18.1138 9.70333 17.9611 9.75595 17.9264C9.80867 17.8917 9.95926 17.8848 10.0144 17.9154C10.0697 17.946 10.0655 18.0739 10.0783 18.1013C10.1828 18.3333 10.3136 17.9741 10.3342 17.9628C10.7237 17.765 11.0982 17.9066 11.4767 17.8518C11.7655 17.8095 12.0692 17.7012 12.3446 17.6693C12.6747 17.6318 12.9589 17.6772 13.2795 17.6134C13.3131 17.6069 13.2452 17.4264 13.2861 17.4181C13.7212 17.3297 14.1497 17.2839 14.6058 17.3404C14.6515 17.3463 14.6212 17.5188 14.6684 17.5344C14.9567 17.6266 15.4306 17.8811 15.4709 17.1436C15.653 17.1423 15.8784 17.1345 16.0633 17.251C16.1655 17.3151 16.1281 17.467 16.1873 17.4486C16.1973 17.4455 16.21 17.4375 16.2266 17.4235C16.2526 17.4017 16.189 17.2521 16.2299 17.2313C16.4019 17.1438 16.6085 17.1608 16.7734 17.0497C16.8069 17.0268 16.773 16.8889 16.779 16.862C16.8306 16.6437 17.0315 16.9554 17.0681 16.9742C17.3407 17.1148 17.5039 17.0122 17.728 16.9772C17.7801 16.9691 17.6856 16.7927 17.7345 16.7782C17.9886 16.7054 18.256 16.674 18.5257 16.7106C18.5855 16.7192 18.5627 16.8881 18.5928 16.9003C18.7253 16.9525 18.6965 16.6466 18.8222 16.6907C18.8486 16.6996 18.8602 16.8385 18.8674 16.8527C18.9794 17.0752 18.9773 16.731 18.9935 16.7204C19.1973 16.5786 19.4044 16.8997 19.6099 16.8099C19.6343 16.7988 19.5439 16.6373 19.6146 16.6167C20.0882 16.4777 20.6048 16.4263 21.1079 16.4689C21.1863 16.4753 21.1592 16.6151 21.1671 16.6301C21.293 16.8639 21.2754 16.5204 21.297 16.503C21.4691 16.3743 21.704 16.6178 21.7521 16.1943C22.4202 16.1728 23.0376 15.9153 23.7055 15.9065C23.87 15.9043 24.0379 15.9171 24.2108 15.9522C24.2219 15.954 24.2401 16.1216 24.262 16.1246C24.5261 16.1622 24.4227 15.9184 24.5136 15.5715C24.5364 15.4844 24.7443 15.8317 24.7615 15.8567C24.8243 15.949 24.838 16.2015 24.8558 16.2181C25.0014 16.3471 24.8008 15.5472 24.9486 15.5133C24.9536 15.5136 24.9679 15.6659 24.9837 15.6778C25.0328 15.7152 25.0577 15.6476 25.1072 15.6899C25.2206 15.7879 25.3415 16.1712 25.4217 15.9134C25.4316 15.8801 25.3009 15.4303 25.438 15.4213C25.4928 15.4181 25.7244 15.3559 25.7968 15.37C25.8691 15.3841 25.8586 15.5413 25.8647 15.5466C26.0868 15.6991 26.0388 15.7952 26.1953 16.0615C26.3517 16.3265 26.1657 15.6501 26.1835 15.5655C26.2015 15.4811 26.3682 15.6104 26.4133 15.6584C26.4582 15.7065 26.4409 15.8091 26.4766 15.8338C26.7129 15.9948 26.4777 15.4758 26.5133 15.3529C26.5966 15.062 26.8311 15.5402 26.9765 15.5574C27.0157 15.562 26.9584 15.4541 26.9879 15.4356C27.1048 15.3636 27.2197 15.5026 27.329 15.3226C27.3469 15.2933 27.3891 14.961 27.5187 15.1653C27.5373 15.1947 27.5381 15.328 27.5989 15.3429C27.6898 15.3653 27.8417 15.3567 27.9178 15.293C27.974 15.246 27.849 15.0572 27.9455 15.1014C27.9884 15.1212 27.9525 15.2589 28.0306 15.286C28.1085 15.3131 28.2783 15.2647 28.3425 15.244C28.4065 15.2233 28.3312 15.0753 28.3337 15.0634C28.3502 14.9948 28.4557 14.8875 28.4668 14.8848C29.0163 14.7247 29.5937 14.8564 30.1126 14.625C30.1529 14.6072 30.081 14.4496 30.0867 14.4452C30.2121 14.3378 30.2155 14.8067 30.3555 14.9266C30.2515 14.5957 30.3272 14.6405 30.419 14.5766C30.4632 14.5455 30.4017 14.423 30.4026 14.4086C30.4223 14.1923 30.5412 14.4329 30.5683 14.4813C30.668 14.6596 30.6595 14.4195 30.7268 14.5384C30.794 14.6564 30.7692 14.8649 30.8665 14.836C30.8615 14.7089 30.7043 14.4156 30.7647 14.3448C30.8585 14.2347 31.0135 14.1874 31.1801 14.1668C31.4191 14.1373 31.6756 14.1643 31.8124 14.1424C32.0432 14.1056 32.1095 14.0632 32.2524 14.0697C32.511 14.0811 32.3591 13.874 32.476 13.7266C32.5934 13.5789 32.6832 14.1685 32.7391 14.2849C32.7947 14.4013 32.7818 14.2689 32.8269 14.3288C32.8715 14.3887 32.8399 14.4877 32.9071 14.4958C32.9745 14.504 33.0771 14.2394 33.0618 14.1054C33.0294 13.8216 32.874 13.5585 33.0616 13.6129C33.0724 13.6162 33.0856 13.7743 33.125 13.7793C33.4365 13.8146 33.7294 13.7375 34.0402 13.757C34.083 13.7599 34.0971 13.9361 34.1226 13.9397C34.3862 13.9778 34.2206 13.7222 34.2557 13.374C34.3491 13.7962 34.4935 14.029 34.6704 13.9794C34.7768 13.9496 34.7051 13.7743 34.7358 13.6267C34.7449 13.5822 34.8567 13.684 34.8451 13.595C34.8073 13.304 34.6442 13.0142 34.8626 13.0839C34.8723 13.0874 34.8923 13.2469 34.9226 13.2479C35.119 13.2548 35.0534 12.9582 35.236 12.865C35.3803 12.7916 35.6962 12.8891 35.8765 12.8656C36.0141 13.3308 36.1435 13.1752 36.1114 12.8353C36.2264 12.8144 36.3411 12.7595 36.4626 12.7705C36.5043 12.7742 36.5212 12.9159 36.5304 12.929C36.6723 13.1344 36.6252 12.8084 36.6456 12.7887C36.8731 12.5887 37.151 12.7606 37.3274 12.453C37.3336 12.4419 37.2472 12.1159 37.3866 12.3301C37.396 12.3449 37.3601 12.5168 37.48 12.4917C37.5997 12.4667 37.8741 12.5698 37.9899 12.3694C38.018 12.3211 38.035 12.0288 38.1797 12.2071C38.1992 12.2314 38.2167 12.3272 38.2484 12.3736C38.3506 12.5209 38.2734 12.1881 38.4187 12.4455C38.5349 12.6517 38.6771 12.8007 38.7814 12.7276C38.8073 12.7094 38.8309 12.6774 38.8511 12.6292C38.8546 12.622 38.8107 12.3526 38.8631 12.3403C38.9468 12.321 39.08 12.3373 39.165 12.3081C39.2056 12.294 39.1281 12.1429 39.1342 12.1377C39.3796 11.96 39.6264 12.0372 39.9385 12.0038C39.9957 11.9981 40.0783 11.7307 40.2383 11.8685C40.414 12.0191 40.5523 12.8398 40.755 12.567C40.8373 12.4574 40.6451 11.4216 41.0065 11.8719C41.343 11.6195 41.7604 11.7723 42.0725 11.4659C42.0864 11.4522 42.0464 11.1583 42.0869 11.1489C42.1471 11.1355 42.2225 11.2539 42.267 11.2484C42.4546 11.2285 42.5777 11.064 42.7531 11.0238C42.8196 11.0083 42.8423 11.1492 42.9199 11.1313C42.9973 11.1132 42.9877 10.9207 43.1183 10.9709C43.2172 11.0094 43.4163 11.342 43.5333 11.3488C43.4166 10.9936 43.4895 10.9769 43.5832 10.8406C43.6011 10.8142 43.5331 10.7 43.5395 10.6811C43.5642 10.6018 43.6422 10.6891 43.6627 10.6049C43.6678 10.5847 43.627 10.4637 43.6288 10.4403C43.6425 10.2369 43.859 10.4662 43.8965 10.5062C44.0396 10.6579 44.0238 10.4878 44.1107 10.537C44.1975 10.5862 44.1344 10.7067 44.2222 10.7245C44.4064 10.7604 44.5894 10.6755 44.7423 10.6288C44.803 10.6094 44.7062 10.4626 44.7136 10.4561C44.8239 10.3722 45.0098 10.4996 44.968 10.1548C45.3427 10.9538 45.0154 10.0482 45.2526 10.1517C45.2714 10.1602 45.4259 10.546 45.3915 10.6225C45.3571 10.6989 45.2321 10.605 45.1881 10.7208C45.1776 10.7481 45.2031 11.1509 45.1969 11.178C45.1483 11.3898 44.93 10.8089 44.9131 10.7787C44.7277 10.4538 44.7409 10.8926 44.7177 10.9312C44.6137 11.1076 44.4543 11.0702 44.3579 11.2035C44.2946 11.29 44.4184 11.677 44.349 11.6877C44.1184 11.7234 43.8598 11.2128 43.8156 11.7472C43.806 11.8613 43.9925 12.2669 43.7239 11.9895C43.707 11.972 43.4886 11.7089 43.4872 11.9228C43.487 11.9498 43.529 12.0722 43.5214 12.0863C43.4701 12.178 43.3878 12.097 43.3234 12.171C43.2599 12.2447 43.1847 12.3479 43.0767 12.338C43.0118 12.3323 42.8624 12.1282 42.8166 12.0813C42.6863 11.9458 42.6939 12.2375 42.5812 12.0581C42.468 11.8778 42.4601 11.5489 42.2936 11.4637C42.3962 11.784 42.4956 12.1147 42.5959 12.4377C42.32 12.5179 42.0196 12.5037 41.7549 12.6074C41.7221 12.6205 41.8133 12.7807 41.7797 12.7993C41.637 12.8769 41.4594 12.8 41.3164 12.9013C41.2055 12.9805 41.1302 13.2068 41.0166 13.2949C40.8179 12.9552 40.6685 13.1416 40.5199 13.1531C40.4679 13.1573 40.4392 13.0586 40.3946 13.0379C40.2271 12.9621 40.3929 13.2656 40.3741 13.328C40.2936 13.5944 40.0412 12.8672 39.8652 12.9443C39.8558 12.9481 39.8642 13.3766 39.8558 13.4061C39.8039 13.5979 39.7948 13.2758 39.721 13.2677C39.5864 13.253 39.4749 13.186 39.3742 13.3445C39.3451 13.3913 39.327 13.6656 39.1891 13.5021C39.171 13.4807 39.1354 13.3497 39.1247 13.3448C39.0401 13.3096 39.0188 13.3718 39.0172 13.4661C39.0153 13.5823 39.0434 13.747 39.0208 13.8377C38.9796 14.0023 38.7601 13.7634 38.7076 13.6912C38.5704 13.5046 38.7333 13.5847 38.7299 13.5632C38.6962 13.3052 38.6157 13.377 38.534 13.3802C38.3969 12.9854 38.3012 13.0421 38.4509 13.3848C38.4674 13.4222 38.5133 13.3668 38.534 13.3802C38.5929 13.7916 38.4943 13.8778 38.2537 13.5521C38.141 13.3994 38.1334 13.1824 37.9787 13.3113C37.9085 13.3696 38.0259 13.6343 37.9782 13.7314C37.8691 13.9532 37.5786 13.7629 37.425 13.8549C37.3692 13.8883 37.4747 14.0204 37.4382 14.0484C37.3416 14.1231 37.2099 14.0403 37.1152 14.1328C37.1068 14.1414 37.1802 14.2912 37.146 14.304C36.8878 14.4037 36.6282 14.3729 36.3546 14.4531C36.2223 14.492 36.0144 14.6499 35.8723 14.6736C35.6234 14.7166 35.2615 14.5746 35.0754 14.6905C34.9537 14.7655 35.0295 14.9149 35.0047 15.0394C34.9568 15.2807 34.6533 14.9634 34.6105 14.913C34.6092 14.9113 34.7116 14.8407 34.6272 14.7773C34.5423 14.6185 34.6116 14.9119 34.6105 14.913C34.5831 14.8805 34.3447 14.9113 34.3073 14.955C34.2873 14.9788 34.3449 15.1247 34.3337 15.1342C34.0656 15.3581 33.7696 15.4848 33.4407 15.5029C33.4344 15.5014 33.3946 15.3311 33.3804 15.3297C33.1807 15.3059 33.1251 15.5439 33.0096 15.7084C32.8948 15.8727 32.7649 15.865 32.596 15.6009C32.4941 15.6687 32.2979 15.5858 32.1843 15.5338C32.0707 15.4819 32.1487 15.8131 32.1424 15.8219C31.9985 16.0255 31.8557 15.9999 31.6793 15.9896C31.6155 15.9857 31.548 15.9837 31.4752 15.9951C31.3454 16.015 31.1092 16.1301 30.9831 16.2024C30.8836 16.2602 30.7984 16.2005 30.7129 16.2761C30.7013 16.2862 30.7539 16.4289 30.7513 16.4357C30.6877 16.6401 30.6454 16.2683 30.6056 16.2105C30.4614 16.0001 30.3782 15.8897 30.2648 16.0367C30.2387 16.0704 30.2792 16.611 30.2271 16.6569C30.1593 16.7156 30.1402 16.5231 30.0705 16.5893C30.0645 16.5948 30.0959 16.7084 30.0443 16.7165C29.8053 16.7558 29.5345 16.7551 29.2963 16.8284C29.2636 16.838 29.3523 17.0082 29.3059 17.0251C29.0862 17.1042 28.8368 17.1604 28.5965 17.1305C28.5372 17.1226 28.5391 16.9871 28.518 16.9523C28.389 16.7422 28.3704 17.0991 28.355 17.1096C27.9952 17.3686 27.6119 17.1443 27.2375 17.3862C27.2174 17.3999 27.131 17.7975 26.9812 17.5103C26.9711 17.4912 26.8208 17.1967 26.8049 17.4264C26.8039 17.4407 26.8895 17.5905 26.8032 17.5936C26.7171 17.5968 26.6098 17.7358 26.4543 17.5857C26.405 17.5384 26.247 17.2462 26.1981 17.5201C26.1954 17.5391 26.1607 18.1406 26.0112 17.7659C25.9868 17.7042 25.9015 17.2909 25.8226 17.5312C25.8076 17.5777 25.8732 17.6592 25.822 17.7313C25.7436 17.8423 25.5877 17.7622 25.5082 17.9731C25.4945 18.0104 25.4679 18.3102 25.3473 18.1146C25.3284 18.084 25.3188 17.9418 25.277 17.9351C25.0785 17.9025 24.9087 18.0372 24.7029 17.9832C24.6301 17.9643 24.614 17.7345 24.5328 17.6901C24.4516 17.6456 24.3021 17.6185 24.2533 17.7357C24.2044 17.8531 24.3601 18.1905 24.2594 18.2423C24.2464 18.2489 24.2335 18.2553 24.2204 18.2614C23.7909 18.4611 23.3003 18.36 22.8429 18.4247C22.773 18.4345 22.8567 18.5497 22.7554 18.5733C22.383 18.6611 21.7577 18.9122 21.3775 18.7059C21.0741 18.5407 21.3689 18.3108 21.1528 18.2619C21.0488 18.2387 21.0263 18.6731 21.0055 18.6907C20.8046 18.8676 20.611 18.7147 20.4173 18.8103C20.3773 18.8301 20.451 18.9901 20.4165 19.0051C20.2992 19.0578 20.1549 19.0076 20.0406 19.0434C19.9893 19.0599 20.0233 19.1864 19.973 19.1856C19.853 19.1852 19.7404 19.1505 19.6049 19.0512C19.5926 19.0422 19.6322 18.8695 19.5454 18.8795C19.405 18.8962 19.211 18.8093 19.0736 18.9612C19.033 19.0068 19.0847 19.3008 18.9455 19.1167C18.9163 19.0782 18.8795 18.7206 18.8159 19.0469C18.8046 19.1013 18.6804 19.5484 18.5348 19.3009C18.4964 19.2357 18.379 18.9588 18.3303 19.0143C18.3239 19.0229 18.383 19.1752 18.3385 19.1991C18.1814 19.2803 18.0038 19.2943 17.8409 19.3738C17.7974 19.3954 17.8943 19.5468 17.8286 19.5738C17.6476 19.648 17.4048 19.6471 17.2141 19.6271C17.1433 19.6194 17.1668 19.476 17.1593 19.4621C17.0395 19.2357 17.0482 19.5674 17.0251 19.5907C16.8812 19.7315 16.731 19.6004 16.587 19.666C16.5471 19.6836 16.6025 19.8331 16.5965 19.8483C16.5947 19.8527 16.5929 19.8566 16.5911 19.8603C16.5339 19.9806 16.5489 19.7085 16.4911 19.6877C16.3245 19.6266 16.1548 19.6674 16.0053 19.7123C15.9503 19.729 16.043 19.8978 15.9932 19.9107C15.6993 19.9906 15.384 20.024 15.0739 19.9719C15.0155 19.9618 15.0284 19.8182 15.0119 19.7885C14.8973 19.5805 14.8283 19.8999 14.8058 19.9328C14.7039 20.0831 14.6389 19.9681 14.5354 20.0077C14.0338 20.2025 13.3609 20.2219 12.8658 20.2439C12.2102 20.275 11.6896 20.2154 11.081 20.3357C11.042 20.3432 11.1074 20.5219 11.0742 20.5307C10.6404 20.6368 10.206 20.6231 9.77691 20.7352C9.74161 20.7441 9.81687 20.9118 9.76097 20.932C9.64646 20.9745 9.49511 20.9851 9.36758 20.9453C9.30544 20.9262 9.36399 20.7658 9.30186 20.7496C9.15734 20.7117 9.00709 20.7189 8.87346 20.765C8.87316 20.7651 8.87286 20.7652 8.87256 20.7653C8.81718 20.7869 8.9283 20.9522 8.85213 20.9643C8.33303 21.0506 7.80795 21.1496 7.25017 20.9847C7.21185 20.9733 7.13417 20.6137 7.06574 20.6932C7.07263 20.7949 7.08789 20.9135 7.09892 21.0217C6.33654 21.1767 5.56484 21.1431 4.79018 21.2159C4.7574 21.2191 4.83695 21.4051 4.77357 21.4122C4.40085 21.4538 4.06676 21.5474 3.6699 21.3995C3.63079 21.385 3.61015 21.0435 3.50732 21.1075C3.48927 21.1191 3.33031 21.1835 3.29623 21.2621C3.29173 21.2739 3.34018 21.4288 3.28763 21.4396C2.97965 21.4997 2.65539 21.5003 2.3412 21.4381C2.29024 21.4278 2.32332 21.2531 2.28686 21.2443C2.02846 21.1831 1.77119 21.3421 1.51369 21.216C1.34122 21.1309 1.36795 20.8325 1.25016 20.555C1.23353 20.5158 1.13298 20.5206 1.10907 20.3541C1.04874 19.9355 1.04549 19.4701 0.975459 19.0246C0.960498 18.9286 0.838571 19.0474 0.891541 18.8055C0.89534 18.7893 0.983381 18.7011 0.998258 18.6194C1.00868 18.5628 0.959783 18.3963 0.98569 18.3225C1.01159 18.2488 1.06466 18.3871 1.11126 18.2986C1.15768 18.2091 1.11147 18.0186 1.22007 17.9832ZM31.6749 15.3016C31.5462 15.1676 31.6916 15.7479 31.7466 15.5844C31.749 15.5758 31.6814 15.3081 31.6749 15.3016ZM41.8789 12.0748C41.6866 11.8608 41.735 12.2536 41.876 12.4214C42.0172 12.5889 41.9374 12.1396 41.8789 12.0748ZM42.9565 11.5094C42.7605 11.3561 43.0117 12.1666 43.0956 11.9572C43.1005 11.9453 42.9679 11.5183 42.9565 11.5094ZM1.6365 20.4287C1.63441 20.4209 1.56229 20.4213 1.56145 20.4293C1.54481 20.6224 1.68907 20.6215 1.6365 20.4287ZM44.0088 10.9292C43.9315 10.8344 43.8594 10.9991 43.9553 11.1171C44.0325 11.212 44.105 11.0471 44.0088 10.9292ZM27.0489 15.8403C27.0455 15.832 26.9938 15.8362 27.0067 15.8849C27.0483 16.0419 27.1068 15.9805 27.0489 15.8403ZM45.9146 10.2584C45.6194 10.3278 45.2179 9.7257 45.5519 9.69286C45.6125 9.68685 45.5052 9.94587 45.5971 9.98067C45.7653 10.0438 45.7066 9.59825 45.918 9.77398C45.9565 9.80624 45.9319 10.2559 45.9144 10.2595C45.9144 10.2591 45.9145 10.2588 45.9146 10.2584ZM31.4353 14.6222C31.4315 14.6151 31.3609 14.6267 31.3613 14.6347C31.3743 14.8281 31.5168 14.8048 31.4353 14.6222ZM24.0618 16.1527C24.0544 16.1371 23.891 16.157 23.8891 16.1732C23.8721 16.495 24.2033 16.4557 24.0618 16.1527ZM35.883 12.8771C35.9008 12.672 35.9821 12.6237 36.111 12.8352C36.034 12.8454 35.9598 12.866 35.883 12.8771ZM21.401 0.289266C21.5854 0.475818 21.7334 0.803632 21.8198 1.07533C21.8496 1.1641 21.7357 1.18365 21.7528 1.2485C21.7846 1.37233 21.8753 1.4159 21.8958 1.53699C21.9016 1.57656 21.7363 1.63066 21.7457 1.67011C21.7936 1.87887 21.9646 2.06214 22.04 2.2425C22.4795 3.2362 22.9896 4.13159 23.524 5.08939C23.6003 5.22699 23.6644 5.39401 23.7368 5.56236C23.8231 5.76367 23.9245 5.97176 24.0653 6.12082C24.0947 6.15134 24.2046 6.04996 24.2191 6.04995C24.4429 6.05252 24.1711 6.18057 24.1827 6.2706C24.2295 6.6277 24.4206 6.94532 24.6474 7.18858C24.744 7.29153 24.9136 7.0158 24.8514 7.22111C24.8472 7.23493 24.6977 7.29237 24.7036 7.33189C24.7171 7.42125 24.8265 7.53766 24.8515 7.59862C24.8989 7.71644 24.9115 7.73293 24.9749 7.83332C25.0605 7.9714 25.1019 8.17718 25.2286 8.30652C25.256 8.33387 25.363 8.20414 25.4189 8.23988C25.4747 8.27549 25.5516 8.41822 25.5493 8.48392C25.5461 8.54824 25.4283 8.59857 25.4091 8.62209C25.2462 8.81884 25.6275 8.78484 25.6472 8.7998C25.9977 9.07645 26.0384 9.49125 26.2622 9.83353C26.4267 10.0843 26.657 10.3213 26.8087 10.5699C26.8598 10.6541 26.9037 10.7382 26.9447 10.822C27.0488 11.0338 27.1345 11.2414 27.2728 11.4341C27.2931 11.4628 27.4287 11.3252 27.4539 11.3601C27.7214 11.7305 27.9559 12.1283 28.0998 12.5828C28.1139 12.628 27.943 12.6692 27.9487 12.7198C27.9868 13.0277 27.955 13.5783 28.6508 13.3253C28.7312 13.5004 28.8334 13.7109 28.805 13.9338C28.7865 14.0769 28.5771 14.086 28.7149 14.1567C28.7458 14.1727 28.8568 14.0535 28.8932 14.0841C29.046 14.2129 29.1171 14.4165 29.2891 14.5312C29.3244 14.5543 29.4374 14.4683 29.4647 14.4636C29.688 14.4281 29.4854 14.7427 29.4828 14.7843C29.4665 15.0985 29.6291 15.2151 29.7546 15.4164C29.7835 15.4631 29.9076 15.305 29.9413 15.3462C30.0925 15.535 30.2198 15.7486 30.2998 15.9815C30.3109 16.0139 30.3211 16.0466 30.3303 16.0797C30.3467 16.1403 30.1809 16.1825 30.1818 16.216C30.1874 16.3625 30.4593 16.2192 30.4696 16.3565C30.4721 16.3852 30.348 16.4487 30.3377 16.4609C30.1768 16.6521 30.4953 16.5205 30.5117 16.5321C30.7261 16.6745 30.512 16.9943 30.6787 17.159C30.6989 17.1785 30.8125 17.0312 30.8604 17.0919C31.1807 17.4963 31.4326 17.9732 31.5918 18.4767C31.6168 18.5548 31.4754 18.5792 31.4645 18.5922C31.2956 18.7984 31.6096 18.6573 31.6343 18.672C31.8223 18.7923 31.6858 19.1064 32.1007 19.0013C32.4458 19.7925 33.1068 20.3947 33.2617 21.303C33.2641 21.3144 33.1128 21.389 33.1182 21.4115C33.124 21.4364 33.1309 21.4576 33.139 21.4753C33.218 21.65 33.406 21.4963 33.734 21.471C33.8248 21.4641 33.5733 21.7835 33.5559 21.8086C33.4917 21.9006 33.2584 21.9989 33.2493 22.0217C33.1803 22.2061 33.8625 21.7427 33.9484 21.8752C33.9499 21.8801 33.8112 21.945 33.8057 21.9643C33.7882 22.0246 33.861 22.0261 33.8389 22.0882C33.7872 22.2309 33.4684 22.4757 33.74 22.4666C33.7754 22.4656 34.1522 22.187 34.2116 22.3198C34.2352 22.3733 34.3795 22.582 34.3922 22.6577C34.405 22.7334 34.2521 22.7744 34.2494 22.7822C34.1849 23.0498 34.0764 23.034 33.8799 23.2737C33.6842 23.5125 34.2591 23.1105 34.3458 23.1005C34.4323 23.0907 34.3688 23.2957 34.3391 23.355C34.3093 23.4143 34.206 23.4308 34.1951 23.4736C34.125 23.7551 34.5348 23.3584 34.6637 23.353C34.9691 23.3405 34.5946 23.7191 34.6303 23.8687C34.6401 23.9092 34.7222 23.8181 34.7505 23.8416C34.8612 23.9353 34.7698 24.0929 34.9793 24.1437C35.0136 24.1521 35.3446 24.0888 35.1955 24.281C35.1738 24.3086 35.0473 24.3513 35.0542 24.4157C35.0645 24.5121 35.1245 24.6578 35.2106 24.7116C35.2742 24.7513 35.4118 24.5705 35.4021 24.6781C35.3977 24.726 35.2547 24.7345 35.2551 24.8187C35.2561 24.9038 35.3552 25.0479 35.3993 25.1085C35.4417 25.1664 35.5567 25.0459 35.569 25.0448C35.6406 25.0406 35.7802 25.1134 35.7865 25.1236C36.1203 25.6085 36.1745 26.1544 36.5358 26.6124C36.5516 26.6322 36.5678 26.6517 36.5847 26.6707C36.615 26.7055 36.7425 26.5879 36.7486 26.5922C36.8928 26.6849 36.4442 26.8262 36.3745 26.9993C36.6581 26.7994 36.6397 26.8873 36.7299 26.9578C36.7736 26.9916 36.8714 26.8955 36.8855 26.8921C37.0987 26.8473 36.9055 27.0338 36.8675 27.0743C36.7277 27.2235 36.9544 27.1436 36.8611 27.2436C36.7693 27.3439 36.5605 27.3789 36.6209 27.4689C36.742 27.4281 36.9714 27.185 37.0606 27.2271C37.3991 27.3881 37.4854 27.9975 37.5852 28.204C37.6996 28.4335 37.7611 28.4878 37.7999 28.6328C37.868 28.8919 38.0211 28.6841 38.1974 28.7569C38.3728 28.8285 37.8324 29.081 37.7367 29.1677C37.6407 29.2538 37.7639 29.2037 37.7189 29.2635C37.674 29.3232 37.5703 29.321 37.5813 29.3875C37.5873 29.4461 37.8857 29.4954 38.0091 29.4418C38.2746 29.3345 38.4808 29.1069 38.4878 29.3131C38.488 29.325 38.3387 29.3799 38.3461 29.4212C38.4124 29.7517 38.55 29.9853 38.6377 30.3268C38.6474 30.3705 38.4805 30.4299 38.4845 30.4562C38.5224 30.7273 38.7228 30.4967 39.0683 30.4389C38.689 30.6459 38.4913 30.8278 38.5979 31.0059C38.6607 31.1114 38.8101 30.9947 38.9638 30.9913C39.0102 30.9904 38.9417 31.1266 39.0249 31.0928C39.2972 30.9831 39.5384 30.7553 39.5247 30.9819C39.5236 30.9919 39.3741 31.0511 39.3801 31.0796C39.4214 31.2699 39.714 31.1683 39.8479 31.3238C39.8971 31.3685 39.9681 31.6495 39.9576 31.7711C39.981 31.8839 39.9936 31.9912 40.0013 32.1049C39.5249 32.24 39.6602 32.3013 39.8701 32.6194C39.7364 32.8299 39.5767 32.9573 39.4346 32.9917C39.3818 33.0046 39.3407 32.8657 39.3272 32.8561C39.1345 32.6926 39.2368 33.0021 39.2118 33.0281C38.9492 33.2782 38.6478 33.0974 38.4244 33.3928C38.4177 33.4023 38.4567 33.6847 38.3678 33.5565C38.36 33.5449 38.3511 33.53 38.3412 33.5112C38.3384 33.5056 38.3443 33.4805 38.3471 33.4513C38.3502 33.4189 38.3492 33.3813 38.329 33.3591C38.3163 33.3453 38.2961 33.3374 38.2641 33.3405C38.1332 33.3539 37.8583 33.2146 37.7047 33.391C37.6689 33.4336 37.5796 33.7201 37.4727 33.5166C37.458 33.489 37.4601 33.3916 37.4377 33.3399C37.3665 33.1752 37.3717 33.5171 37.279 33.2355C37.1872 32.9538 37.036 32.7506 36.8817 32.9626C36.8767 32.9687 36.8554 33.2411 36.7986 33.2409C36.708 33.2403 36.5752 33.1924 36.4849 33.1992C36.4407 33.2026 36.4783 33.3684 36.4708 33.3719C36.456 33.3774 36.4414 33.3823 36.4269 33.3867C36.1466 33.4682 35.9374 33.3384 35.6263 33.2851C35.5682 33.2745 35.4032 33.5068 35.2848 33.3278C35.1564 33.1318 35.2713 32.3076 34.9921 32.5067C34.8868 32.5817 34.7523 33.5188 34.5602 33.1651C34.5492 33.1445 34.5379 33.1195 34.5265 33.0897C34.1213 33.2227 33.7522 32.9404 33.3428 33.122C33.3244 33.1301 33.2594 33.4199 33.2165 33.4148C33.153 33.4067 33.1221 33.2696 33.077 33.2594C32.9471 33.2278 32.8236 33.2686 32.7011 33.2904C32.6425 33.3007 32.5862 33.3069 32.5253 33.2988C32.4549 33.2896 32.4847 33.1498 32.4014 33.1388C32.3185 33.1279 32.2556 33.311 32.148 33.2169C32.0672 33.1452 31.9949 32.7627 31.8854 32.7135C31.8643 33.0868 31.7866 33.0756 31.6471 33.1677C31.6201 33.1855 31.6418 33.3169 31.6287 33.332C31.5729 33.3965 31.5301 33.2864 31.4774 33.3568C31.4646 33.3737 31.4577 33.5012 31.4468 33.5222C31.3539 33.7058 31.2355 33.412 31.216 33.3609C31.138 33.1665 31.084 33.3298 31.02 33.2514C30.9558 33.1729 31.0631 33.0853 30.9861 33.0355C30.9457 33.0093 30.9023 32.9904 30.8579 32.9764C30.7266 32.9353 30.5682 32.9361 30.4507 32.9243C30.387 32.9187 30.4198 33.0916 30.4104 33.0947C30.2632 33.1287 30.1379 32.9387 30.0436 33.2726C30.0039 32.3901 29.9457 33.3514 29.7678 33.1627C29.7542 33.1474 29.7652 32.7321 29.8254 32.6753C29.8858 32.6185 29.9662 32.7542 30.0602 32.6654C30.0845 32.6447 30.2142 32.2635 30.232 32.2411C30.3615 32.0651 30.3407 32.6852 30.3447 32.7197C30.4019 33.0918 30.5523 32.6813 30.5926 32.6548C30.6965 32.5792 30.7983 32.587 30.8807 32.583C30.9342 32.5806 30.9872 32.5741 31.0421 32.5408C31.136 32.4847 31.1674 32.0795 31.2388 32.0959C31.463 32.149 31.523 32.7196 31.7656 32.2392C31.8173 32.1366 31.7907 31.6909 31.9427 32.0474C31.9519 32.0699 32.0643 32.3947 32.147 32.1959C32.157 32.1708 32.1622 32.0415 32.1744 32.0311C32.2562 31.9642 32.3049 32.0694 32.3941 32.0234C32.4827 31.9775 32.5933 31.9079 32.6898 31.9552C32.7074 31.9638 32.7259 31.9919 32.744 32.0288C32.7857 32.1139 32.825 32.2452 32.8437 32.287C32.9197 32.4596 33.016 32.1836 33.0607 32.3909C33.1062 32.5992 32.9967 32.9106 33.1276 33.0481C33.1419 32.7121 33.1627 32.3674 33.1798 32.0296C33.4686 32.0493 33.7537 32.1639 34.045 32.1526C34.0812 32.1508 34.0464 31.9696 34.0851 31.9631C34.2479 31.9362 34.3891 32.066 34.5575 32.015C34.559 32.0146 34.5604 32.0141 34.5619 32.0136C34.6911 31.9706 34.8319 31.7825 34.9641 31.7337C35.0488 32.1179 35.2509 31.9849 35.3965 32.017C35.4477 32.0282 35.4464 32.131 35.4834 32.1637C35.6229 32.2845 35.5505 31.946 35.5863 31.8916C35.7399 31.659 35.7774 32.428 35.968 32.402C35.9788 32.401 36.083 31.9862 36.0984 31.9599C36.1984 31.7887 36.1226 32.1017 36.1915 32.1289C36.2544 32.1537 36.3082 32.1895 36.3632 32.2029C36.4181 32.2163 36.4743 32.2075 36.5402 32.1433C36.5802 32.1052 36.6631 31.8436 36.756 32.035C36.7684 32.0601 36.7725 32.1957 36.7816 32.203C36.9455 32.3233 36.9125 31.8982 36.9855 31.7471C37.0589 31.596 37.2155 31.8758 37.2514 31.9571C37.3436 32.1678 37.2081 32.0559 37.2062 32.0776C37.1866 32.337 37.2803 32.2834 37.3552 32.2968C37.4106 32.7111 37.516 32.6736 37.4337 32.3087C37.4232 32.2691 37.3723 32.3141 37.3552 32.2968C37.3722 31.8826 37.4776 31.8175 37.649 32.1804C37.7313 32.3499 37.7046 32.5662 37.8726 32.463C37.9495 32.4156 37.8716 32.1369 37.9258 32.0481C37.9619 31.988 38.0063 31.9659 38.0544 31.9623C38.1771 31.9523 38.3224 32.0458 38.4123 31.9898C38.4579 31.9609 38.367 31.8231 38.3948 31.7985C38.4622 31.7343 38.5624 31.8244 38.5983 31.7437C38.6002 31.7367 38.526 31.5892 38.5381 31.5817C38.7239 31.545 38.3324 31.5069 38.3659 32.4507C38.3898 32.5263 38.4129 32.5626 38.3923 32.5538C38.3492 32.5214 38.2437 32.3976 38.2145 32.325C38.1424 32.1389 38.1715 31.7239 38.0218 31.5909C37.9158 31.489 37.7906 31.6004 37.6619 31.6055C37.4011 31.5967 37.6465 31.2522 37.6787 31.1896C37.6802 31.1882 37.774 31.2659 37.8136 31.169C37.9446 31.0457 37.6801 31.1903 37.6787 31.1896C37.7038 31.1558 37.608 30.9306 37.5536 30.9029C37.5245 30.8889 37.4 30.9844 37.3874 30.9755C37.0802 30.7469 36.9014 30.5367 36.7727 30.1952C36.7721 30.1884 36.9249 30.1031 36.9217 30.0881C36.8727 29.8647 36.6416 29.899 36.4487 29.8314C36.259 29.7686 36.2273 29.6392 36.4296 29.3982C36.3332 29.3165 36.3485 29.0931 36.3619 28.9641C36.3792 28.8414 36.0849 29.0123 36.0748 29.0089C35.7527 28.9033 35.8336 28.6679 35.7055 28.4105C35.6457 28.2887 35.4531 28.0785 35.3505 27.9871C35.2653 27.9093 35.2959 27.8092 35.1967 27.7486C35.1834 27.7404 35.0635 27.834 35.0563 27.8335C34.8407 27.8326 35.1828 27.6805 35.2255 27.6245C35.3165 27.5053 35.381 27.4163 35.3833 27.3497C35.3848 27.3026 35.3553 27.2666 35.2817 27.2385C35.2409 27.2228 34.7364 27.4233 34.6751 27.3854C34.5962 27.3355 34.7743 27.2594 34.6874 27.2094C34.6801 27.205 34.5817 27.27 34.5563 27.2208C34.4457 27.0062 34.3606 26.7464 34.2112 26.5355C34.1912 26.5065 34.0583 26.6455 34.0268 26.6052C33.8806 26.4185 33.7365 26.1814 33.6893 25.9461C33.6777 25.8871 33.8067 25.8458 33.8329 25.8146C33.9904 25.6247 33.6454 25.7199 33.6304 25.7087C33.266 25.4457 33.3451 24.9972 32.9861 24.7119C32.9664 24.6972 32.5618 24.7456 32.7824 24.5079C32.797 24.492 33.0241 24.2512 32.8013 24.3111C32.7874 24.3149 32.6752 24.4463 32.6424 24.3643C32.6096 24.2824 32.4409 24.2247 32.5285 24.0251C32.556 23.9621 32.7766 23.7126 32.4999 23.7552C32.481 23.7587 31.8996 23.9237 32.2002 23.6541C32.25 23.6103 32.6095 23.3891 32.3546 23.3932C32.3056 23.3946 32.2516 23.4844 32.1659 23.4601C32.0342 23.4231 32.0552 23.2473 31.8284 23.2426C31.7885 23.2421 31.4967 23.3183 31.6381 23.1365C31.6602 23.108 31.7908 23.0506 31.7823 23.0083C31.7448 22.8196 31.577 22.7044 31.536 22.5116C31.5332 22.4988 31.5311 22.4856 31.5295 22.472C31.5206 22.3951 31.7311 22.3013 31.743 22.2073C31.7553 22.114 31.7237 21.9569 31.5971 21.9528C31.4693 21.947 31.2087 22.2123 31.1238 22.1346C30.755 21.7967 30.6698 21.2733 30.4283 20.8431C30.3931 20.7803 30.3165 20.9009 30.2569 20.8133C30.0367 20.4912 29.5648 19.9871 29.6093 19.5486C29.6453 19.1979 29.9743 19.396 29.9359 19.1714C29.9173 19.0638 29.5041 19.2022 29.4797 19.189C29.2374 19.0635 29.3043 18.8233 29.1397 18.6749C29.1056 18.6443 28.9858 18.7738 28.9584 18.7467C28.8636 18.655 28.854 18.5001 28.7753 18.4045C28.7397 18.3619 28.6356 18.4415 28.6164 18.3934C28.5693 18.2793 28.5566 18.1589 28.595 17.9933C28.5985 17.9781 28.7743 17.9506 28.7306 17.8721C28.6593 17.7453 28.6624 17.5283 28.4668 17.4561C28.4084 17.435 28.1569 17.596 28.2718 17.3943C28.2929 17.3571 28.5409 17.2196 28.3754 17.2317C28.3531 17.2334 28.3234 17.2377 28.2845 17.2454C28.2299 17.2559 27.766 17.3087 27.9361 17.0762C27.9808 17.0149 28.1892 16.7973 28.1181 16.7724C28.1075 16.7697 27.9907 16.8842 27.9507 16.8513C27.812 16.734 27.7269 16.5717 27.587 16.4486C27.5494 16.4159 27.4491 16.5661 27.3975 16.5146C27.2555 16.373 27.1575 16.1448 27.0967 15.9561C27.0746 15.8864 27.2164 15.8523 27.2261 15.8399C27.3851 15.638 27.0832 15.7762 27.0522 15.7637C26.8633 15.6835 26.922 15.4909 26.8025 15.3819C26.7698 15.3516 26.6553 15.4627 26.6389 15.4631C26.4759 15.4628 26.7479 15.3651 26.743 15.3009C26.7295 15.119 26.6219 14.9768 26.5173 14.8528C26.4787 14.8074 26.3628 14.9621 26.3299 14.9202C26.1324 14.6741 25.9696 14.3922 25.8878 14.0831C25.8727 14.0247 26.0095 13.9786 26.0298 13.9512C26.1725 13.761 25.8507 13.8251 25.8108 13.8172C25.63 13.7823 25.7065 13.6733 25.6257 13.5915C25.2619 13.225 24.989 12.698 24.7554 12.2488C24.7333 12.2061 24.7117 12.1644 24.6906 12.1239C24.3761 11.5222 24.2081 11.021 23.8236 10.4946C23.7996 10.4616 23.6663 10.5976 23.6436 10.5704C23.3599 10.2175 23.1786 9.80658 22.8808 9.44864C22.857 9.41953 22.7388 9.56106 22.6955 9.51759C22.6058 9.42912 22.5292 9.29423 22.5093 9.16079C22.4993 9.09589 22.6699 9.08035 22.6573 9.01673C22.6272 8.86682 22.5603 8.7414 22.4532 8.62904C22.408 8.58253 22.3095 8.76149 22.2625 8.6934C21.9348 8.22409 21.6368 7.8245 21.5145 7.21026C21.5068 7.16922 21.7951 6.94043 21.6918 6.91077C21.6033 6.96127 21.5033 7.02699 21.4108 7.08421C21.4104 7.08367 21.41 7.08314 21.4096 7.0826C20.9376 6.4665 20.598 5.71498 20.1735 5.02973C20.1556 5.00098 20.025 5.15615 19.9897 5.1011C19.7953 4.79849 19.5348 4.49845 19.488 4.07434C19.4834 4.03286 19.7794 3.8613 19.6768 3.79879C19.6563 3.78475 19.5374 3.68618 19.4424 3.67648C19.4296 3.67723 19.3144 3.79248 19.2782 3.74563C19.0601 3.45653 18.954 3.2278 18.8304 2.86109C18.8154 2.80885 18.9877 2.76206 18.9783 2.72416C18.9326 2.48976 18.6293 2.26215 18.6512 2.01408C18.6278 1.78883 18.9155 1.69246 19.1093 1.46096C19.1321 1.42133 19.1092 1.37458 19.2231 1.24177C19.5643 0.991159 19.9962 0.805683 20.3544 0.530356C20.406 0.431912 20.2965 0.455499 20.5068 0.348556C20.5067 0.31974 20.6649 0.419165 20.7255 0.366633C20.7793 0.348275 20.9083 0.233162 20.9832 0.219007C21.0586 0.205792 20.958 0.313809 21.0633 0.323596C21.1653 0.326452 21.3318 0.225596 21.401 0.289266ZM36.4334 28.4064C36.5225 28.2421 36.0106 28.5519 36.1841 28.558C36.1931 28.5579 36.4292 28.4146 36.4334 28.4064ZM33.7439 32.6142C33.858 32.8801 33.9451 32.4933 33.8648 32.2883C33.7853 32.0835 33.7094 32.5336 33.7439 32.6142ZM32.5064 32.7726C32.6403 32.9857 32.6912 32.1387 32.5358 32.3046C32.5268 32.314 32.4986 32.7603 32.5064 32.7726ZM19.4021 1.75791C19.4077 1.75202 19.3755 1.6887 19.3684 1.69215C19.1888 1.76469 19.253 1.8908 19.4021 1.75791ZM31.2705 32.9266C31.3067 33.0435 31.4385 32.9176 31.392 32.7724C31.3545 32.6555 31.2251 32.7813 31.2705 32.9266ZM34.387 24.0301C34.3937 24.024 34.371 23.974 34.3292 24.0022C34.1948 24.0932 34.2742 24.1319 34.387 24.0301ZM29.1815 32.7987C29.4777 32.8543 29.6358 33.5683 29.291 33.4629C29.2328 33.4441 29.4363 33.25 29.365 33.1811C29.2384 33.0559 29.107 33.4869 28.9794 33.2395C28.9454 33.1935 29.176 32.795 29.1821 32.7977C29.1819 32.798 29.1817 32.7983 29.1815 32.7987ZM37.0115 27.9765C37.0172 27.9707 36.9842 27.9048 36.9766 27.9075C36.7951 27.976 36.8616 28.1088 37.0115 27.9765ZM33.0163 21.2246C33.0277 21.2112 32.9485 21.0597 32.9327 21.0639C32.6236 21.1578 32.783 21.4648 33.0163 21.2246ZM39.9894 32.1133C40.2215 32.2206 40.1651 32.6211 39.8707 32.6188C39.9679 32.475 40.0042 32.271 39.9894 32.1133ZM13.4807 40.3041C13.5339 40.4814 13.4813 40.7105 13.4086 40.8836C13.386 40.9379 13.2794 40.913 13.2591 40.9506C13.2196 41.0243 13.2732 41.0903 13.2261 41.1626C13.21 41.1866 13.0413 41.162 13.0283 41.1872C12.958 41.3283 13.0055 41.465 12.9755 41.608C12.8268 42.3007 12.812 43.0062 12.8122 43.7015C12.8129 43.9375 12.6969 44.2358 12.7963 44.457C12.808 44.4827 12.9516 44.4456 12.9643 44.449C13.1598 44.501 12.8617 44.5184 12.8307 44.5788C12.7088 44.8201 12.7356 45.0626 12.8286 45.2523C12.8292 45.2535 12.8298 45.2546 12.8304 45.2556C12.8763 45.3289 13.1385 45.1958 12.9949 45.3092C12.9852 45.3172 12.8273 45.3248 12.8153 45.3512C12.7885 45.4119 12.8349 45.5029 12.8318 45.55C12.8241 45.6369 12.8285 45.6501 12.8429 45.7273C12.8613 45.8326 12.8128 45.9731 12.8731 46.0748C12.8863 46.0962 13.0354 46.0289 13.0706 46.0595C13.1057 46.0901 13.1158 46.1895 13.0872 46.2309C13.0585 46.2723 12.9327 46.2891 12.9061 46.3018C12.6812 46.409 13.0378 46.4385 13.0501 46.4519C13.2587 46.6848 13.1388 46.9594 13.2168 47.1992C13.2783 47.387 13.4079 47.5635 13.4638 47.7348C13.5283 47.9353 13.5211 48.1462 13.6211 48.3332C13.6315 48.3529 13.793 48.2521 13.8059 48.2756C13.9408 48.5214 14.0483 48.7805 14.0762 49.0874C14.079 49.1184 13.9169 49.1685 13.9112 49.2047C13.8741 49.4177 13.7621 49.8544 14.4208 49.5402C14.4614 49.6527 14.5168 49.7826 14.4613 49.9527C14.4318 50.0477 14.2922 50.1004 14.3233 50.1283C14.3286 50.133 14.3388 50.137 14.3552 50.1403C14.3805 50.1455 14.4919 50.0307 14.5201 50.0452C14.6381 50.1058 14.6788 50.2397 14.8164 50.2773C14.8446 50.2846 14.949 50.1887 14.9728 50.1774C15.1651 50.0856 14.9648 50.3757 14.9607 50.4085C14.9257 50.6485 15.0605 50.6863 15.1591 50.7933C15.1821 50.8182 15.2896 50.6563 15.3162 50.6751C15.4521 50.7736 15.5635 50.9008 15.6309 51.0723C15.6457 51.1109 15.5136 51.2106 15.5154 51.2354C15.5263 51.3444 15.7383 51.123 15.752 51.2208C15.7553 51.2412 15.6598 51.3422 15.6523 51.3557C15.5352 51.5694 15.7818 51.3332 15.7949 51.3342C15.9719 51.3458 15.8287 51.6819 15.9777 51.7295C15.9953 51.7345 16.0679 51.5702 16.1107 51.5926C16.3986 51.7422 16.6471 51.9577 16.8631 52.24C16.8968 52.2836 16.801 52.381 16.7957 52.3967C16.719 52.6447 16.9143 52.3637 16.9345 52.3601C17.0896 52.3396 17.0689 52.6497 17.3296 52.3269C17.6797 52.6273 18.1216 52.6773 18.4958 52.953C18.5861 53.0202 18.6732 53.1014 18.7562 53.2041C18.7617 53.2103 18.6973 53.3655 18.7086 53.3773C18.8454 53.5204 18.8944 53.2623 19.0958 52.9914C19.1453 52.923 19.119 53.3166 19.1178 53.3456C19.1147 53.453 19.0163 53.6839 19.0195 53.7058C19.0503 53.8796 19.2697 53.0849 19.3665 53.1123C19.3692 53.1145 19.3147 53.2568 19.3188 53.2737C19.3317 53.3266 19.3738 53.2758 19.3851 53.3332C19.4105 53.4656 19.3272 53.8583 19.4799 53.6579C19.4993 53.6317 19.6024 53.1754 19.6861 53.2201C19.7193 53.2386 19.8811 53.2713 19.9196 53.3116C19.9578 53.3521 19.8911 53.4909 19.8927 53.4981C19.9698 53.7217 19.9023 53.7903 19.8965 54.0921C19.8917 54.3929 20.0334 53.706 20.0755 53.6355C20.1174 53.5652 20.1695 53.7455 20.1795 53.8063C20.1892 53.867 20.1408 53.9543 20.1535 53.9903C20.2403 54.2259 20.2856 53.6631 20.3519 53.5636C20.5066 53.3275 20.4781 53.8526 20.5642 53.9219C20.5873 53.9405 20.5896 53.8202 20.6145 53.8139C20.7121 53.7902 20.7394 53.9608 20.8671 53.8334C20.8883 53.8127 21.0241 53.52 21.0355 53.755C21.0371 53.7889 20.993 53.9126 21.0256 53.9479C21.0743 54.0009 21.1724 54.0466 21.2413 54.0143C21.2921 53.9903 21.2752 53.771 21.3213 53.8459C21.3419 53.8793 21.2742 53.9947 21.3149 54.0473C21.3552 54.0998 21.4795 54.1141 21.5274 54.1171C21.5752 54.12 21.574 53.956 21.5795 53.9458C21.612 53.8876 21.7134 53.8239 21.7213 53.8252C22.1104 53.863 22.4432 54.1798 22.8481 54.1322C22.8787 54.1285 22.8768 53.9566 22.8816 53.9543C22.9909 53.8938 22.8631 54.3369 22.9197 54.4956C22.9448 54.1498 22.9807 54.2166 23.0573 54.1861C23.0942 54.1711 23.0883 54.0356 23.0929 54.0223C23.1645 53.8246 23.1751 54.09 23.1795 54.1446C23.1954 54.3451 23.2553 54.1156 23.2666 54.2496C23.2783 54.3827 23.2052 54.5716 23.2769 54.5757C23.3081 54.454 23.2852 54.1264 23.3436 54.079C23.4341 54.0051 23.5474 54.01 23.6624 54.0437C23.8303 54.0923 23.9875 54.1986 24.0818 54.2208C24.2407 54.2584 24.2949 54.2388 24.3869 54.2896C24.554 54.3811 24.5056 54.1372 24.6188 54.0336C24.7323 53.9298 24.647 54.5176 24.6553 54.6455C24.6636 54.7733 24.6878 54.6436 24.7031 54.7144C24.7185 54.7853 24.6721 54.8694 24.7159 54.898C24.7599 54.9267 24.896 54.7073 24.9186 54.5752C24.9657 54.2954 24.9284 53.9975 25.0369 54.1068C25.0431 54.1133 25.0144 54.2677 25.0387 54.2846C25.2329 54.4139 25.4434 54.4301 25.6451 54.5432C25.6729 54.559 25.6415 54.7311 25.6576 54.7423C25.8264 54.8589 25.7748 54.565 25.8793 54.244C25.8445 54.6746 25.8884 54.9402 26.0215 54.9466C26.1014 54.9505 26.0933 54.7617 26.1479 54.6303C26.1636 54.5907 26.2144 54.7214 26.2265 54.6331C26.266 54.3442 26.2231 54.0189 26.3505 54.151C26.3561 54.1573 26.3341 54.3154 26.3538 54.3255C26.4811 54.3912 26.503 54.0886 26.6431 54.0545C26.7529 54.0278 26.9466 54.2155 27.0739 54.2469C27.0655 54.732 27.1883 54.6222 27.2404 54.2882C27.3235 54.3026 27.4143 54.2844 27.49 54.331C27.5166 54.3469 27.4983 54.4873 27.5016 54.5025C27.5523 54.7408 27.5889 54.4155 27.6063 54.4028C27.7952 54.2795 27.9506 54.5262 28.1335 54.2846C28.14 54.2759 28.1494 53.9389 28.1992 54.1848C28.2025 54.2017 28.1423 54.3553 28.2289 54.3668C28.3152 54.3784 28.4809 54.558 28.6016 54.4008C28.6309 54.363 28.7031 54.0887 28.7615 54.3019C28.7695 54.3308 28.7621 54.4275 28.7737 54.4812C28.8114 54.6522 28.8272 54.3114 28.8728 54.6002C28.9093 54.8315 28.9751 55.0159 29.0604 54.9767C29.0816 54.967 29.1039 54.9435 29.1273 54.9034C29.1311 54.8975 29.1556 54.6272 29.1934 54.6309C29.2538 54.637 29.3407 54.6919 29.4041 54.689C29.4345 54.6876 29.4121 54.5203 29.4174 54.5171C29.6198 54.4197 29.7689 54.5662 29.9931 54.626C30.0368 54.6373 30.1414 54.4062 30.2227 54.5849C30.3116 54.7806 30.2454 55.6055 30.4351 55.4045C30.5121 55.324 30.5822 54.2777 30.7391 54.8143C31.0092 54.6724 31.2796 54.9407 31.5497 54.7398C31.5616 54.7309 31.5899 54.4383 31.6187 54.4413C31.6614 54.4462 31.6897 54.5815 31.7205 54.5893C31.8498 54.6257 31.9629 54.5049 32.0879 54.5182C32.1354 54.523 32.1243 54.6644 32.1811 54.67C32.238 54.6755 32.2683 54.4888 32.3487 54.5752C32.4094 54.6411 32.483 55.0174 32.5625 55.0584C32.5501 54.6847 32.6036 54.6902 32.6944 54.5877C32.7119 54.5678 32.6868 54.4386 32.6948 54.4225C32.7271 54.354 32.7642 54.4603 32.7945 54.386C32.8019 54.3681 32.7969 54.2405 32.8026 54.2187C32.8506 54.0285 32.9577 54.3113 32.9739 54.3607C33.0413 54.5478 33.0618 54.3807 33.1106 54.4534C33.1594 54.5261 33.0955 54.6225 33.1507 54.6655C33.2651 54.7543 33.4067 54.7273 33.5201 54.7279C33.5653 54.7274 33.5266 54.5585 33.5329 54.5545C33.6242 54.507 33.7276 54.6836 33.7635 54.3421C33.8704 55.2157 33.816 54.2544 33.9591 54.4234C33.9703 54.4371 34.0039 54.851 33.966 54.9139C33.9281 54.9766 33.86 54.85 33.8081 54.9476C33.7959 54.9705 33.7377 55.3626 33.7283 55.3866C33.6551 55.5744 33.6147 54.9553 33.6089 54.9215C33.5429 54.5565 33.4696 54.9794 33.4465 55.0094C33.3408 55.1471 33.2423 55.0642 33.1538 55.1629C33.0959 55.2267 33.1078 55.6329 33.0596 55.6225C32.8975 55.5884 32.8135 55.0247 32.6811 55.5221C32.6526 55.6282 32.7036 56.0706 32.5711 55.7266C32.5627 55.7049 32.4624 55.3893 32.4202 55.5932C32.4149 55.6189 32.4203 55.7482 32.4124 55.7594C32.3593 55.8319 32.318 55.7304 32.2592 55.7821C32.2005 55.8338 32.1305 55.9102 32.0598 55.8689C32.0172 55.8443 31.9551 55.6053 31.9331 55.547C31.8709 55.3792 31.8214 55.66 31.7795 55.4555C31.7373 55.2499 31.7936 54.9333 31.6981 54.8029C31.7068 55.1391 31.7114 55.4843 31.7181 55.8224C31.5231 55.8175 31.3094 55.716 31.1061 55.7372C31.0807 55.7402 31.1125 55.9201 31.0854 55.9279C30.9709 55.9602 30.8669 55.8344 30.75 55.8891C30.6595 55.9322 30.5646 56.1263 30.4705 56.177C30.4021 55.7939 30.265 55.9281 30.1625 55.8954C30.1267 55.8841 30.1266 55.7813 30.1006 55.7483C30.0004 55.6266 30.0534 55.9655 30.0278 56.0196C29.9159 56.2505 29.889 55.4814 29.7533 55.5032C29.7462 55.5041 29.6661 55.916 29.6544 55.9418C29.5803 56.1098 29.6388 55.7992 29.5901 55.7699C29.501 55.7161 29.4386 55.6192 29.3382 55.7411C29.3089 55.7771 29.2412 56.0339 29.1804 55.837C29.1724 55.8112 29.1747 55.6756 29.1684 55.6677C29.1181 55.6091 29.091 55.6623 29.0709 55.752C29.0461 55.8624 29.0318 56.028 28.9979 56.1081C28.9365 56.2532 28.8359 55.9602 28.8155 55.8756C28.7617 55.6569 28.8539 55.7815 28.8564 55.7599C28.8863 55.5035 28.8163 55.5484 28.7625 55.5273C28.7504 55.1096 28.6762 55.1354 28.7068 55.5071C28.7103 55.5477 28.7516 55.5083 28.7625 55.5273C28.7215 55.9376 28.6338 55.9909 28.5365 55.6086C28.491 55.4295 28.531 55.2199 28.398 55.2973C28.3377 55.3323 28.3628 55.6198 28.3097 55.6985C28.188 55.878 28.0292 55.6101 27.9051 55.6524C27.86 55.6678 27.904 55.8252 27.8731 55.8411C27.7911 55.8838 27.7193 55.7656 27.6375 55.8258C27.6301 55.8315 27.6476 55.9964 27.6222 55.9984C27.4321 56.0168 27.2585 55.91 27.0515 55.9047C26.9516 55.9023 26.7727 55.9907 26.6708 55.9706C26.4936 55.9369 26.2838 55.6925 26.1346 55.7468C26.0345 55.7814 26.0509 55.9468 26.0047 56.0578C25.9143 56.2732 25.7785 55.8787 25.7612 55.8177C25.7607 55.8157 25.8481 55.7796 25.8048 55.6935C25.7838 55.5164 25.7623 55.817 25.7612 55.8177C25.7494 55.7783 25.5795 55.7351 25.5446 55.7652C25.5256 55.7818 25.5301 55.9382 25.5203 55.9439C25.2857 56.0751 25.059 56.105 24.8312 56.0204C24.8272 56.017 24.8423 55.8428 24.8328 55.8371C24.6998 55.7525 24.6015 55.9611 24.4815 56.0813C24.3618 56.2014 24.275 56.1534 24.2287 55.8498C24.1426 55.8822 24.0322 55.7418 23.9702 55.6567C23.9081 55.5716 23.874 55.9101 23.8675 55.9164C23.7211 56.0638 23.6242 55.9936 23.5077 55.9273C23.4651 55.9031 23.4196 55.8795 23.3669 55.8668C23.2731 55.8438 23.0817 55.8759 22.9766 55.903C22.8934 55.925 22.8533 55.8409 22.7748 55.884C22.7642 55.8898 22.7587 56.0414 22.755 56.0469C22.654 56.2186 22.732 55.8545 22.722 55.787C22.685 55.5413 22.6663 55.4107 22.5441 55.5109C22.5167 55.534 22.3839 56.0554 22.3341 56.0809C22.2698 56.1133 22.3146 55.9262 22.2471 55.9648C22.2414 55.9679 22.2285 56.0851 22.1907 56.0753C22.0152 56.0314 21.8326 55.9386 21.6507 55.925C21.6259 55.9227 21.6316 56.1123 21.5951 56.112C21.4279 56.1109 21.2286 56.0739 21.0768 55.9606C21.0391 55.9321 21.086 55.8071 21.0832 55.7673C21.0668 55.5264 20.9343 55.8507 20.9201 55.8549C20.5871 55.9648 20.4156 55.6187 20.0695 55.6977C20.0514 55.7028 19.8423 56.0331 19.8503 55.7132C19.8503 55.6918 19.8626 55.3655 19.7646 55.5688C19.7584 55.5814 19.7582 55.751 19.6993 55.7205C19.6409 55.6901 19.515 55.7745 19.4724 55.5773C19.4583 55.5151 19.4685 55.1878 19.3254 55.4156C19.3169 55.432 19.045 55.9594 19.0986 55.5612C19.1076 55.4957 19.2216 55.0896 19.0701 55.2733C19.0408 55.3089 19.0505 55.4089 18.9862 55.4526C18.887 55.5198 18.8182 55.3838 18.6751 55.5384C18.6504 55.566 18.5014 55.8213 18.5072 55.5964C18.5083 55.5612 18.5642 55.4308 18.54 55.4073C18.4241 55.2943 18.2458 55.3377 18.1352 55.1992C18.0961 55.1504 18.1922 54.9423 18.1605 54.8676C18.1287 54.7929 18.0472 54.7033 17.9609 54.7833C17.8739 54.8633 17.8125 55.2263 17.722 55.2253C17.7104 55.2252 17.6989 55.2247 17.6875 55.224C17.3066 55.1983 17.0286 54.8707 16.7127 54.6954C16.662 54.6674 16.6522 54.8056 16.5732 54.7723C16.2808 54.6525 15.745 54.5118 15.6384 54.1277C15.5628 53.8275 15.8812 53.8191 15.7869 53.6593C15.7435 53.5839 15.452 53.9002 15.4278 53.9008C15.1949 53.9155 15.1864 53.687 15.0118 53.6377C14.9756 53.6274 14.9081 53.7885 14.878 53.7779C14.7739 53.7425 14.7277 53.6161 14.6389 53.5684C14.5988 53.5472 14.5279 53.6572 14.5003 53.6242C14.4334 53.5463 14.3961 53.4485 14.3965 53.2931C14.3967 53.2791 14.5428 53.1873 14.49 53.138C14.4034 53.0577 14.3704 52.8745 14.1883 52.8824C14.1341 52.8851 13.9364 53.1091 14.0068 52.8965C14.0214 52.8519 14.2768 52.5997 13.9965 52.7645C13.9514 52.7936 13.5396 52.9834 13.6626 52.728C13.6949 52.661 13.8582 52.4113 13.7926 52.4116C13.7828 52.4123 13.6896 52.5454 13.65 52.5286C13.5121 52.4668 13.4203 52.3484 13.2838 52.2756C13.2469 52.2561 13.1656 52.4125 13.1141 52.3792C12.9712 52.2871 12.8676 52.1048 12.8069 51.9502C12.7846 51.8929 12.9162 51.8363 12.925 51.8234C13.0702 51.6173 12.7916 51.795 12.762 51.7889C12.5841 51.7507 12.6396 51.5704 12.5298 51.4919C12.4997 51.4697 12.3893 51.5836 12.3738 51.5862C12.3693 51.5868 12.3652 51.5873 12.3613 51.5877C12.2343 51.5997 12.4786 51.4829 12.4757 51.4284C12.4699 51.2723 12.3786 51.1646 12.2889 51.0678C12.2559 51.0323 12.1356 51.1786 12.1073 51.1452C11.9378 50.9492 11.8058 50.7023 11.7729 50.443C11.7666 50.3933 11.9025 50.3493 11.9255 50.3252C12.0877 50.1589 11.7758 50.2245 11.7391 50.2179C11.5738 50.1917 11.6637 50.0975 11.6015 50.0285C11.2941 49.692 11.148 49.162 11.0517 48.7702C10.9249 48.2611 10.9265 47.8357 10.7624 47.3874C10.752 47.3582 10.5815 47.4388 10.5703 47.4141C10.4299 47.08 10.4239 46.7529 10.297 46.4277C10.2869 46.401 10.1235 46.4788 10.1015 46.4369C10.0553 46.3511 10.04 46.2317 10.0762 46.1267C10.0936 46.0757 10.2542 46.1069 10.2688 46.0564C10.3033 45.9405 10.2955 45.8332 10.2482 45.733C10.2481 45.7328 10.248 45.7325 10.2479 45.7323C10.226 45.6917 10.0628 45.7905 10.0501 45.7328C9.96027 45.3423 9.86485 44.9244 10.0465 44.5086C10.0589 44.479 10.4193 44.4087 10.3424 44.3601C10.2409 44.3684 10.1222 44.3835 10.0141 44.3951C9.88158 43.8035 9.95916 43.2548 9.9393 42.6622C9.93845 42.6374 9.74749 42.6931 9.74487 42.6449C9.73033 42.3763 9.66279 42.1212 9.84372 41.8345C9.86142 41.8061 10.2033 41.8059 10.1484 41.7275C10.1384 41.7137 10.0882 41.5935 10.013 41.5643C10.0016 41.5603 9.84307 41.5886 9.83701 41.549C9.80439 41.3095 9.83506 41.0889 9.92821 40.8605C9.94358 40.8241 10.1141 40.8593 10.1265 40.8335C10.2133 40.651 10.0819 40.4529 10.2351 40.2749C10.3383 40.156 10.6321 40.1985 10.9208 40.1353C10.9615 40.1264 10.9678 40.0537 11.1359 40.0498C11.5587 40.0399 12.0216 40.0739 12.4721 40.0591C12.5692 40.0561 12.4646 39.9618 12.6991 40.0176C12.7148 40.0215 12.7927 40.0894 12.8724 40.1058C12.9274 40.1173 13.0983 40.0961 13.1688 40.1194C13.2392 40.1426 13.096 40.1689 13.1789 40.2074C13.2628 40.2456 13.4572 40.2278 13.4807 40.3041ZM23.6907 55.2752C23.6392 55.1073 23.5816 55.7028 23.6635 55.5657C23.6675 55.5584 23.6934 55.2834 23.6907 55.2752ZM31.298 55.2647C31.2064 55.0038 31.1624 55.3933 31.2274 55.5951C31.2927 55.7966 31.326 55.3438 31.298 55.2647ZM32.1339 55.042C32.031 54.8378 32.0482 55.686 32.1437 55.5107C32.1493 55.5008 32.1399 55.0539 32.1339 55.042ZM11.0048 40.4216C11.0127 40.4206 11.02 40.3691 11.0121 40.3679C10.8219 40.3418 10.8074 40.4454 11.0048 40.4216ZM32.9715 54.7977C32.9366 54.6844 32.8549 54.8205 32.8987 54.9614C32.9344 55.0748 33.0148 54.9387 32.9715 54.7977ZM20.5093 54.2087C20.5101 54.1998 20.4758 54.1846 20.4665 54.2342C20.4366 54.3937 20.4962 54.359 20.5093 54.2087ZM34.393 54.7213C34.1774 54.7001 34.0151 54.0064 34.2501 54.074C34.2928 54.0862 34.1707 54.3017 34.2273 54.3621C34.3308 54.4722 34.3739 54.0296 34.486 54.26C34.5064 54.3022 34.4054 54.7241 34.3927 54.7223C34.3928 54.722 34.3929 54.7216 34.393 54.7213ZM23.7105 54.556C23.7099 54.548 23.6598 54.5365 23.6579 54.5442C23.6149 54.7313 23.7165 54.7547 23.7105 54.556ZM18.5811 53.3182C18.5838 53.3014 18.4826 53.25 18.4741 53.2633C18.3148 53.537 18.5249 53.6439 18.5811 53.3182ZM27.0758 54.2599C27.1328 54.0695 27.1983 54.0477 27.2401 54.2879C27.1854 54.2747 27.1304 54.2723 27.0758 54.2599Z" fill="black"/>
</svg>
