<svg width="63" height="53" viewBox="0 0 63 53" fill="none" xmlns="http://www.w3.org/2000/svg">
<path d="M1.21437 25.4421C1.5519 25.3237 2.01792 25.2903 2.37856 25.2983C2.49155 25.3006 2.45676 25.4154 2.53566 25.4216C2.68994 25.4337 2.8165 25.3563 2.97056 25.3765C3.02171 25.3837 2.99392 25.5601 3.04683 25.5639C3.33652 25.5834 3.58911 25.491 3.87508 25.472C5.28369 25.3787 6.6474 25.179 8.05391 24.9847C8.51765 24.9205 9.10454 24.9621 9.56594 24.8049C9.61978 24.7864 9.55878 24.6481 9.56699 24.6341C9.6968 24.4196 9.69843 24.7224 9.81377 24.7403C10.2714 24.8107 10.7499 24.732 11.1509 24.5964C11.1533 24.5956 11.1557 24.5947 11.1579 24.5938C11.315 24.5312 11.0931 24.2867 11.2978 24.4121C11.3122 24.4206 11.2974 24.5829 11.3487 24.59C11.4648 24.6057 11.6662 24.5382 11.753 24.5341C11.9205 24.5268 11.9471 24.5201 12.1014 24.492C12.3126 24.455 12.5777 24.4829 12.7968 24.4044C12.8434 24.3872 12.7491 24.242 12.8208 24.2003C12.8926 24.1587 13.0987 24.1326 13.1745 24.1565C13.2503 24.1804 13.2451 24.3098 13.2627 24.3359C13.409 24.5561 13.5802 24.1787 13.6089 24.1647C14.1342 23.918 14.6444 24.0153 15.1628 23.9144C15.5562 23.8374 15.965 23.6936 16.3411 23.6296C16.7894 23.5541 17.1841 23.5663 17.6147 23.4677C17.6602 23.4575 17.5707 23.2826 17.6262 23.2698C18.2156 23.1333 18.809 23.0394 19.4242 23.0501C19.4859 23.0513 19.441 23.2287 19.5046 23.2397C19.893 23.3031 20.5288 23.5132 20.6071 22.7634C20.858 22.7435 21.1617 22.7144 21.4091 22.8146C21.5455 22.8698 21.4896 23.0269 21.5704 23.0027C21.5841 22.9986 21.6016 22.9893 21.6246 22.9736C21.6606 22.9491 21.5795 22.8039 21.6358 22.7789C21.8726 22.6742 22.1531 22.6722 22.3827 22.5446C22.4293 22.5183 22.3888 22.3819 22.3981 22.3541C22.4776 22.1284 22.7401 22.4253 22.7879 22.4413C23.1512 22.5594 23.377 22.4415 23.6835 22.3868C23.7547 22.3742 23.6347 22.2037 23.7019 22.1848C24.0507 22.0896 24.4205 22.0346 24.7832 22.0504C24.864 22.0543 24.8238 22.2271 24.864 22.2372C25.0408 22.2795 25.0186 21.972 25.187 22.0068C25.2224 22.0137 25.2303 22.1535 25.2392 22.1673C25.3784 22.3839 25.3955 22.0355 25.4182 22.0235C25.7039 21.8641 25.9661 22.1736 26.2514 22.0674C26.2854 22.0543 26.1726 21.8974 26.2703 21.8712C26.9215 21.6959 27.6291 21.608 28.3094 21.6193C28.4152 21.6208 28.3677 21.7643 28.3772 21.779C28.5296 22.0082 28.5324 21.6611 28.5631 21.6421C28.8071 21.5009 29.1055 21.7338 29.2061 21.3015C30.116 21.2404 30.9775 20.9471 31.8854 20.9079C32.109 20.8983 32.3354 20.904 32.566 20.9325C32.5807 20.9339 32.5875 21.1033 32.6169 21.1054C32.9701 21.1329 32.8562 20.8896 33.0176 20.534C33.0583 20.4446 33.3014 20.7893 33.3218 20.814C33.3964 20.9054 33.3869 21.1612 33.4091 21.1774C33.591 21.303 33.4096 20.4984 33.6145 20.4585C33.6211 20.4586 33.6231 20.6128 33.6431 20.6243C33.7056 20.6604 33.7471 20.591 33.8093 20.6322C33.9519 20.7277 34.0707 21.1127 34.2091 20.8484C34.2265 20.8143 34.1023 20.362 34.2895 20.3482C34.3642 20.3432 34.6855 20.2728 34.7817 20.285C34.8779 20.2973 34.8444 20.4572 34.8521 20.4624C35.1335 20.6109 35.0569 20.7099 35.2349 20.9759C35.4128 21.2409 35.2457 20.5592 35.2806 20.4727C35.3156 20.3865 35.5254 20.5133 35.5801 20.561C35.6348 20.6086 35.5983 20.7132 35.6435 20.7374C35.9422 20.895 35.6908 20.3739 35.7549 20.2481C35.9056 19.9506 36.1608 20.4307 36.3544 20.4452C36.4068 20.449 36.3437 20.3407 36.3859 20.3212C36.5533 20.2457 36.6896 20.3846 36.861 20.1999C36.889 20.1698 36.991 19.8317 37.139 20.0367C37.1601 20.0663 37.1427 20.2016 37.223 20.2156C37.343 20.2368 37.5496 20.2256 37.6615 20.1599C37.744 20.1112 37.6019 19.9213 37.7261 19.9648C37.7813 19.9843 37.7131 20.1247 37.8149 20.1511C37.9161 20.1775 38.152 20.1262 38.2414 20.1046C38.3306 20.0828 38.2505 19.9334 38.2557 19.9213C38.2879 19.8514 38.4458 19.7413 38.4611 19.7385C39.2273 19.5701 39.9891 19.7006 40.7216 19.4669C40.7791 19.4487 40.7075 19.2887 40.7159 19.2842C40.9037 19.175 40.8312 19.6514 41.0008 19.7734C40.9146 19.4371 41.0096 19.4827 41.1442 19.4179C41.2091 19.3864 41.1463 19.2619 41.15 19.2472C41.2126 19.0275 41.3332 19.2723 41.3616 19.3216C41.4664 19.5031 41.495 19.2592 41.5659 19.3803C41.6365 19.5005 41.5684 19.7121 41.704 19.6833C41.7186 19.5541 41.556 19.2554 41.6493 19.1839C41.7942 19.0725 42.0108 19.0255 42.2378 19.0062C42.5624 18.9786 42.9082 19.0079 43.0955 18.9875C43.4133 18.9529 43.51 18.9109 43.7007 18.9196C44.0453 18.9355 43.879 18.7227 44.0625 18.5751C44.2466 18.4273 44.2593 19.0276 44.313 19.1468C44.3661 19.266 44.3728 19.1314 44.4221 19.193C44.4712 19.2547 44.41 19.3546 44.4993 19.3641C44.5887 19.3735 44.7765 19.1067 44.7811 18.9704C44.7908 18.6815 44.6306 18.4112 44.8737 18.47C44.8877 18.4736 44.8756 18.6344 44.9278 18.6403C45.3412 18.6823 45.7484 18.6111 46.1587 18.6396C46.2151 18.6437 46.2001 18.823 46.2333 18.8273C46.5795 18.8731 46.4078 18.609 46.5244 18.2562C46.5664 18.6876 46.7151 18.9277 46.9624 18.8824C47.1111 18.8553 47.0497 18.6753 47.1204 18.5263C47.1416 18.4814 47.2712 18.5881 47.2734 18.4974C47.281 18.2009 47.1205 17.9016 47.3995 17.9792C47.4118 17.983 47.4064 18.1456 47.4468 18.1476C47.7081 18.161 47.6804 17.8577 47.9429 17.7695C48.1487 17.7004 48.5596 17.8091 48.8058 17.792C48.8929 18.2693 49.0991 18.1162 49.1277 17.77C49.2864 17.7532 49.4514 17.702 49.6111 17.7182C49.666 17.7236 49.6586 17.8681 49.668 17.8818C49.8137 18.0961 49.8197 17.7634 49.851 17.7444C50.1926 17.552 50.5371 17.7365 50.8398 17.4324C50.8505 17.4215 50.8065 17.0868 50.9465 17.3103C50.9557 17.3258 50.8697 17.4986 51.0359 17.4785C51.2022 17.4584 51.5457 17.5759 51.7436 17.3786C51.7916 17.331 51.879 17.0355 52.0314 17.2237C52.0518 17.2493 52.0539 17.3473 52.0856 17.3959C52.1877 17.5507 52.161 17.209 52.2977 17.4772C52.4071 17.6921 52.5644 17.8502 52.7211 17.7812C52.7601 17.764 52.799 17.7328 52.8372 17.6849C52.8434 17.6778 52.8464 17.4022 52.9195 17.3925C53.036 17.3771 53.2104 17.4006 53.3304 17.3756C53.3878 17.3635 53.3191 17.2061 53.3285 17.2011C53.6981 17.0339 54.0023 17.1273 54.4296 17.1106C54.508 17.1079 54.6833 16.8411 54.8649 16.9901C55.0642 17.153 55.0544 17.9931 55.3889 17.7286C55.524 17.6226 55.5154 16.5609 55.8877 17.0398C56.3848 16.807 56.9207 16.9853 57.4084 16.696C57.4304 16.6831 57.4495 16.3826 57.5057 16.3757C57.5892 16.3662 57.6602 16.4911 57.7206 16.4886C57.9745 16.4812 58.1776 16.3232 58.4183 16.2951C58.5097 16.2841 58.5049 16.4285 58.6139 16.4154C58.7227 16.4022 58.7591 16.2063 58.9216 16.2661C59.0445 16.3118 59.2264 16.6626 59.3806 16.6778C59.3152 16.3097 59.4168 16.2978 59.5761 16.1665C59.6067 16.1411 59.5453 16.0204 59.5585 16.0018C59.6116 15.9232 59.6931 16.0173 59.7418 15.9335C59.7537 15.9133 59.7302 15.7878 59.7385 15.7643C59.8086 15.5592 60.0375 15.8074 60.0769 15.8507C60.2277 16.015 60.2498 15.8416 60.352 15.8979C60.4541 15.9543 60.3405 16.0715 60.4518 16.0962C60.6823 16.1472 60.9518 16.074 61.169 16.038C61.2555 16.0228 61.1643 15.8669 61.1759 15.8608C61.346 15.7839 61.5607 15.927 61.5951 15.5745C61.8855 16.4124 61.6864 15.4702 61.9746 15.5933C61.9974 15.6034 62.1018 16.006 62.0363 16.0807C61.9708 16.1554 61.8293 16.0507 61.7404 16.1646C61.7193 16.1914 61.6482 16.6013 61.6329 16.6283C61.5129 16.8391 61.373 16.2344 61.3584 16.2025C61.1955 15.8595 61.0979 16.3052 61.0567 16.3427C60.8684 16.5143 60.6704 16.4638 60.5098 16.5913C60.4046 16.674 60.4704 17.0751 60.3763 17.0806C60.0636 17.0993 59.8495 16.5634 59.6555 17.1015C59.6138 17.2164 59.7594 17.6405 59.4723 17.3404C59.4543 17.3215 59.2297 17.0396 59.1734 17.2563C59.1663 17.2836 59.1913 17.4106 59.1777 17.4243C59.0859 17.5137 58.9962 17.426 58.8911 17.4967C58.786 17.5673 58.6623 17.6662 58.5232 17.6484C58.4395 17.6379 58.2925 17.4207 58.2436 17.3701C58.1048 17.2237 58.0436 17.5196 57.9385 17.3302C57.8326 17.1398 57.903 16.8061 57.7031 16.7085C57.7605 17.0399 57.8113 17.3816 57.8651 17.7156C57.4806 17.778 57.0837 17.7441 56.7029 17.8329C56.6558 17.8442 56.7388 18.0123 56.6891 18.029C56.4795 18.0989 56.2671 18.0087 56.0538 18.1023C55.8888 18.1754 55.7358 18.3999 55.5645 18.4822C55.3811 18.1258 55.138 18.3059 54.9367 18.309C54.8662 18.3103 54.8512 18.2085 54.7963 18.185C54.5899 18.0987 54.7402 18.4159 54.7002 18.4781C54.5285 18.744 54.3638 17.992 54.1138 18.0597C54.1005 18.0631 54.0142 18.4976 53.9964 18.5271C53.8843 18.7185 53.9455 18.3915 53.8497 18.3792C53.6749 18.3566 53.5422 18.2825 53.3723 18.4378C53.3229 18.4836 53.2367 18.7607 53.0899 18.5876C53.0706 18.565 53.0528 18.4303 53.0398 18.4248C52.9347 18.3847 52.8919 18.4468 52.8684 18.5424C52.8394 18.66 52.8396 18.8285 52.7888 18.9195C52.6967 19.0842 52.4561 18.8312 52.4025 18.7553C52.2625 18.559 52.46 18.6487 52.4612 18.6265C52.4751 18.363 52.3488 18.4323 52.2418 18.431C52.1475 18.0238 52.0084 18.0762 52.1312 18.4313C52.1448 18.47 52.2175 18.4163 52.2418 18.431C52.2294 18.8509 52.0812 18.9331 51.8337 18.5908C51.7179 18.4304 51.7554 18.2099 51.5216 18.3332C51.4154 18.3889 51.5136 18.6629 51.4291 18.7592C51.2358 18.9788 50.8895 18.7725 50.6633 18.8594C50.5812 18.8909 50.6939 19.0295 50.6388 19.0563C50.4927 19.1281 50.3343 19.0385 50.1909 19.1279C50.1779 19.1362 50.2435 19.2913 50.1958 19.3027C49.8343 19.3922 49.4963 19.3501 49.1145 19.421C48.93 19.4553 48.618 19.6083 48.4237 19.6273C48.0872 19.6612 47.6348 19.5046 47.3633 19.6164C47.1861 19.6887 47.2579 19.8427 47.2003 19.9683C47.0893 20.2115 46.7455 19.8808 46.6977 19.8286C46.6962 19.8268 46.8474 19.758 46.7467 19.6913C46.664 19.5277 46.6993 19.8275 46.6977 19.8286C46.6665 19.7949 46.3426 19.8195 46.2857 19.8626C46.2548 19.8861 46.3036 20.0357 46.2869 20.0451C45.8899 20.2643 45.4732 20.3854 45.0297 20.3969C45.0216 20.3952 44.9998 20.2215 44.981 20.2198C44.7175 20.1917 44.5989 20.4323 44.4179 20.5966C44.2369 20.7608 44.0662 20.7506 43.8878 20.4796C43.7403 20.5466 43.4931 20.4594 43.3501 20.4051C43.207 20.3509 43.2538 20.6882 43.2439 20.697C43.0168 20.9016 42.8274 20.8746 42.5969 20.8616C42.513 20.8569 42.4236 20.854 42.3251 20.8649C42.1493 20.8836 41.8157 20.9985 41.6355 21.0712C41.4932 21.1293 41.3889 21.0683 41.2623 21.1447C41.2451 21.1549 41.2925 21.3 41.288 21.3068C41.1703 21.5141 41.1731 21.1365 41.1291 21.0777C40.9695 20.8637 40.8748 20.7516 40.7014 20.9004C40.6614 20.9345 40.6318 21.4831 40.5558 21.5296C40.4567 21.5891 40.4607 21.3937 40.3579 21.4607C40.3491 21.4663 40.3735 21.5816 40.3036 21.5898C39.9798 21.6295 39.6184 21.6296 39.2886 21.7055C39.2435 21.7154 39.3371 21.8877 39.2725 21.9051C38.9692 21.9863 38.6308 22.0448 38.3146 22.0168C38.2367 22.0094 38.258 21.8719 38.2346 21.8369C38.0917 21.625 38.0172 21.9874 37.9955 21.9983C37.4781 22.2657 36.9996 22.0433 36.4685 22.2961C36.4397 22.3104 36.2751 22.7154 36.1109 22.4272C36.0997 22.4081 35.9353 22.1125 35.8856 22.346C35.8825 22.3606 35.9784 22.5106 35.8627 22.5158C35.7471 22.521 35.5872 22.6645 35.398 22.5159C35.3382 22.4692 35.1617 22.1768 35.0643 22.456C35.0581 22.4753 34.9426 23.0863 34.7864 22.7104C34.7609 22.6485 34.6944 22.2316 34.5613 22.4777C34.536 22.5253 34.6143 22.606 34.5378 22.6807C34.4206 22.7956 34.2211 22.7191 34.0917 22.9356C34.0692 22.9739 34.001 23.2788 33.8614 23.0844C33.8395 23.054 33.842 22.91 33.7871 22.9046C33.5257 22.8781 33.285 23.0207 33.0157 22.9736C32.9204 22.9571 32.9225 22.7248 32.8184 22.6828C32.7142 22.6408 32.5165 22.6193 32.4393 22.7402C32.3622 22.8612 32.537 23.197 32.3974 23.2536C32.3794 23.2609 32.3615 23.2679 32.3435 23.2745C31.7509 23.4946 31.1057 23.4143 30.4883 23.503C30.3939 23.5165 30.4961 23.629 30.3588 23.6581C29.8528 23.7659 28.9991 24.0552 28.506 23.8695C28.1109 23.7209 28.5233 23.4697 28.2363 23.4336C28.098 23.4167 28.0373 23.8582 28.0084 23.8773C27.727 24.0692 27.4781 23.927 27.2126 24.0368C27.1578 24.0595 27.2463 24.2166 27.1993 24.2341C27.039 24.2953 26.8501 24.2541 26.6942 24.2985C26.6244 24.3188 26.6623 24.4445 26.595 24.4473C26.4341 24.4554 26.2852 24.4283 26.1092 24.3376C26.0932 24.3294 26.1561 24.1517 26.0392 24.1682C25.8499 24.1953 25.5942 24.1218 25.4022 24.286C25.3453 24.3352 25.3995 24.6288 25.2227 24.453C25.1857 24.4163 25.1544 24.0573 25.053 24.3924C25.0358 24.4481 24.8459 24.9104 24.6626 24.6716C24.6143 24.6088 24.4696 24.338 24.4014 24.3981C24.3923 24.4074 24.4646 24.5567 24.4038 24.5844C24.189 24.6793 23.9501 24.7081 23.7287 24.8021C23.6697 24.8275 23.7931 24.9727 23.704 25.0053C23.4592 25.0954 23.1356 25.115 22.8786 25.1119C22.7838 25.1104 22.8207 24.9633 22.8112 24.9499C22.6583 24.7316 22.6577 25.0663 22.6259 25.0919C22.4276 25.2471 22.2307 25.1281 22.0356 25.2074C21.9817 25.2289 22.0511 25.3749 22.0426 25.3908C22.04 25.3954 22.0375 25.3996 22.0351 25.4034C21.9548 25.5302 21.9833 25.2539 21.9066 25.2381C21.6849 25.1916 21.4589 25.2482 21.2554 25.3079C21.1807 25.3301 21.3008 25.4918 21.2333 25.5096C20.8349 25.6186 20.4112 25.6829 19.9975 25.6611C19.9195 25.6566 19.9397 25.5103 19.9182 25.482C19.769 25.2833 19.6704 25.6127 19.64 25.6482C19.5015 25.81 19.4144 25.7009 19.2742 25.7516C18.59 26.001 17.7025 26.0894 17.0264 26.1687C16.1455 26.2729 15.4462 26.2728 14.6245 26.467C14.5723 26.4792 14.6607 26.6515 14.6161 26.6643C14.0387 26.8217 13.4481 26.862 12.8713 27.0284C12.8239 27.0417 12.9269 27.2014 12.8519 27.2286C12.6984 27.2856 12.4957 27.3151 12.3246 27.2909C12.2413 27.2794 12.3174 27.1105 12.2341 27.102C12.04 27.0818 11.8411 27.1075 11.6582 27.1717C11.6578 27.1718 11.6574 27.172 11.657 27.1721C11.5821 27.201 11.735 27.3531 11.6318 27.3752C10.9258 27.5301 10.2349 27.6954 9.47359 27.6049C9.4214 27.5987 9.30863 27.2472 9.21748 27.3365C9.22894 27.4378 9.2521 27.5552 9.26932 27.6626C8.24766 27.92 7.20127 27.9931 6.16184 28.1743C6.11802 28.182 6.23039 28.358 6.14575 28.3739C5.6559 28.4658 5.19098 28.6105 4.65379 28.5179C4.60055 28.509 4.56111 28.1687 4.42458 28.2477C4.40056 28.262 4.18881 28.3494 4.14592 28.4332C4.1403 28.4457 4.21082 28.5944 4.14068 28.6128C3.73253 28.7164 3.29309 28.7644 2.86255 28.7485C2.79301 28.7456 2.83155 28.5652 2.78174 28.5617C2.42864 28.5382 2.08773 28.7357 1.7374 28.6465C1.50279 28.5861 1.52657 28.2825 1.35748 28.021C1.33358 27.9841 1.19929 28.0035 1.16046 27.8398C1.06247 27.4282 1.03896 26.9613 0.926898 26.524C0.902868 26.4298 0.744522 26.5669 0.805468 26.3163C0.809856 26.2994 0.924268 26.198 0.940972 26.1137C0.952676 26.0554 0.880263 25.8953 0.912088 25.8174C0.943922 25.7396 1.02082 25.8707 1.08005 25.775C1.13904 25.6782 1.06915 25.4937 1.21437 25.4421ZM42.7065 20.1634C42.5572 20.026 42.6534 20.6166 42.7542 20.4514C42.7589 20.4427 42.7142 20.1701 42.7065 20.1634ZM57.0001 17.3007C56.7954 17.0716 56.7633 17.4729 56.9111 17.6519C57.0588 17.8306 57.0624 17.3701 57.0001 17.3007ZM58.5671 16.8012C58.3468 16.6319 58.4796 17.4702 58.6405 17.2644C58.65 17.2527 58.5799 16.811 58.5671 16.8012ZM1.87139 27.8377C1.86825 27.8302 1.77113 27.8411 1.77034 27.8493C1.7555 28.0457 1.94969 28.0237 1.87139 27.8377ZM60.1185 16.2873C60.0402 16.1856 59.903 16.3471 60.0002 16.4736C60.0784 16.5754 60.2159 16.4138 60.1185 16.2873ZM36.4149 20.7309C36.4113 20.7225 36.3412 20.7279 36.3521 20.7771C36.3876 20.9355 36.4744 20.8721 36.4149 20.7309ZM62.8211 15.7543C62.4155 15.8003 62.0401 15.1592 62.4902 15.1526C62.5718 15.1514 62.3629 15.4049 62.4752 15.4475C62.6805 15.5249 62.7188 15.0694 62.9509 15.2646C62.993 15.3004 62.8446 15.7532 62.8206 15.7554C62.8208 15.755 62.821 15.7546 62.8211 15.7543ZM42.5019 19.4712C42.498 19.4639 42.4017 19.4749 42.4009 19.483C42.3855 19.6794 42.5797 19.6573 42.5019 19.4712ZM32.343 21.1422C32.3346 21.1267 32.1113 21.1539 32.1071 21.1705C32.0511 21.4976 32.5028 21.4436 32.343 21.1422ZM48.8121 17.804C48.8794 17.5964 48.999 17.5503 49.1272 17.7699C49.0218 17.7773 48.9178 17.7955 48.8121 17.804ZM19.4939 7.16344C19.5544 7.57542 19.5094 8.11199 19.4407 8.51583C19.4194 8.64244 19.3122 8.58062 19.2927 8.668C19.2548 8.83877 19.3098 8.99554 19.2638 9.16319C19.2481 9.21874 19.0789 9.15316 19.0662 9.21132C18.998 9.52985 19.0463 9.82692 19.0163 10.1442C18.8691 11.7323 18.833 13.3576 18.7814 14.9134C18.7652 15.4647 18.6232 16.1258 18.6986 16.6745C18.7075 16.7386 18.8543 16.698 18.8666 16.71C19.0556 16.8984 18.7571 16.8395 18.7195 16.9648C18.5713 17.4615 18.5663 18.0028 18.6306 18.4634C18.631 18.4661 18.6314 18.4688 18.6319 18.4715C18.6665 18.6555 18.9456 18.4553 18.7869 18.6637C18.7761 18.6786 18.6187 18.6278 18.6029 18.6857C18.5675 18.8172 18.5995 19.0635 18.5887 19.1638C18.5672 19.3574 18.5693 19.3892 18.5705 19.5708C18.5708 19.819 18.4979 20.1129 18.5378 20.3738C18.5468 20.4295 18.706 20.3529 18.7348 20.4414C18.7636 20.5301 18.754 20.7647 18.7175 20.8439C18.6811 20.9232 18.5544 20.8919 18.5257 20.9063C18.2837 21.0253 18.6263 21.2874 18.6353 21.3214C18.7885 21.9273 18.6067 22.5065 18.6193 23.116C18.6292 23.5786 18.7029 24.0631 18.7036 24.4887C18.7038 24.9954 18.6265 25.4134 18.6547 25.9419C18.6574 25.996 18.8444 25.9278 18.8482 25.9938C18.8879 26.695 18.8863 27.3727 18.7797 28.0376C18.7689 28.1043 18.6006 28.0241 18.5799 28.0911C18.4563 28.5009 18.154 29.2156 18.8839 29.4319C18.8663 29.719 18.8507 30.0618 18.7157 30.3165C18.6414 30.457 18.494 30.3688 18.5063 30.4617C18.5084 30.4774 18.515 30.4982 18.5273 30.526C18.5463 30.5695 18.7018 30.5053 18.7183 30.571C18.788 30.8463 18.75 31.1471 18.846 31.4446C18.8658 31.503 19.0065 31.48 19.0327 31.4955C19.2457 31.6262 18.9164 31.8746 18.8942 31.9262C18.7291 32.3186 18.8169 32.5899 18.8324 32.9353C18.836 33.0153 19.0203 32.9097 19.0305 32.9862C19.0807 33.374 19.0913 33.7985 19.036 34.2172C19.0231 34.3088 18.8557 34.2372 18.8413 34.2815C18.7799 34.477 19.0881 34.4965 19.0355 34.6808C19.0248 34.7196 18.8849 34.7087 18.8703 34.7167C18.6399 34.8428 18.985 34.9101 18.9945 34.9368C19.1235 35.2752 18.7891 35.5222 18.8675 35.8431C18.8773 35.8813 19.0444 35.7786 19.0611 35.8866C19.1805 36.6794 19.2136 37.4508 19.1684 38.2062C19.1623 38.3287 19.0206 38.2601 19.0054 38.2696C18.7694 38.4255 19.1173 38.4604 19.1351 38.497C19.2669 38.788 19.0249 39.1067 19.4556 39.2441C19.4942 40.2491 19.8014 41.2158 19.9208 42.2212C19.9503 42.4691 19.9674 42.7148 19.9656 42.9627C19.9659 42.9786 19.7974 42.9996 19.7987 43.0312C19.816 43.415 20.0496 43.285 20.4288 43.4224C20.5239 43.4567 20.2218 43.7615 20.2014 43.7878C20.1239 43.8809 19.8672 43.9021 19.8551 43.9285C19.7651 44.1473 20.5314 43.8437 20.6088 44.0505C20.61 44.0575 20.4577 44.0836 20.4502 44.1065C20.4265 44.1781 20.5035 44.2103 20.4755 44.282C20.4104 44.4463 20.0548 44.6383 20.3552 44.7512C20.3937 44.7636 20.808 44.5459 20.8695 44.7414C20.8931 44.8215 21.05 45.1382 21.0673 45.2369C21.0837 45.3374 20.9192 45.3455 20.9164 45.3545C20.8598 45.682 20.7409 45.6301 20.5443 45.8896C20.3547 46.1567 20.9516 45.7863 21.0471 45.7975C21.1422 45.8093 21.1006 46.0661 21.0782 46.1388C21.0549 46.2113 20.9404 46.2066 20.9359 46.2619C20.9127 46.6289 21.3 46.1899 21.4443 46.2113C21.7822 46.2515 21.4411 46.6738 21.5259 46.8773C21.5487 46.9316 21.6165 46.824 21.6553 46.8579C21.8069 46.99 21.7545 47.1865 22.0122 47.2621C22.0557 47.2765 22.403 47.2006 22.3091 47.4365C22.2958 47.4709 22.1687 47.5243 22.2038 47.6049C22.2547 47.7248 22.3974 47.9098 22.5255 47.9707C22.6198 48.0156 22.6836 47.7827 22.7281 47.915C22.7486 47.9741 22.5882 47.9963 22.6348 48.1005C22.6808 48.2053 22.889 48.3767 22.9721 48.4365C23.0546 48.4971 23.1117 48.3353 23.1251 48.332C23.2031 48.3152 23.3981 48.3661 23.4115 48.3756C24.0894 48.8553 24.6642 49.4637 25.4943 49.6935C25.5575 49.7108 25.5788 49.5358 25.5891 49.5368C25.8212 49.5488 25.4955 49.9109 25.5931 50.1096C25.6914 49.7763 25.7569 49.8682 25.9226 49.8855C26.0025 49.8934 26.0057 49.7526 26.0169 49.7419C26.1901 49.5858 26.183 49.8601 26.1872 49.9181C26.2008 50.1308 26.3532 49.9332 26.3652 50.0753C26.3774 50.2164 26.2053 50.3677 26.3543 50.4102C26.43 50.3034 26.4173 49.9613 26.5402 49.9432C26.7304 49.9144 26.9603 49.9733 27.1988 50.0576C27.5386 50.1788 27.9015 50.3507 28.089 50.4026C28.4269 50.4945 28.5468 50.4906 28.747 50.5694C29.1142 50.7098 29.0124 50.45 29.2657 50.3762C29.5097 50.2995 29.3164 50.8697 29.3323 51.0004C29.3471 51.1308 29.3998 51.0059 29.4306 51.0805C29.4615 51.1551 29.3629 51.2293 29.4543 51.2679C29.5458 51.3068 29.8368 51.1147 29.8863 50.9864C29.9913 50.7149 29.9075 50.4078 30.148 50.5397C30.162 50.5475 30.0971 50.6968 30.1515 50.7187C30.5849 50.8877 31.0765 50.9389 31.4934 51.0756C31.5532 51.0949 31.486 51.2635 31.5208 51.2767C31.8862 51.4135 31.7738 51.1128 31.9995 50.8027C31.9261 51.2302 32.0223 51.5015 32.3162 51.5207C32.4932 51.5321 32.473 51.3422 32.5945 51.2155C32.6308 51.1773 32.751 51.3127 32.7783 51.2252C32.8631 50.9391 32.7672 50.6104 33.0433 50.7519C33.0554 50.7586 33.009 50.9153 33.0516 50.9267C33.3283 51.0012 33.3737 50.6997 33.6814 50.6735C33.9224 50.653 34.3553 50.8494 34.6435 50.8849C34.6285 51.3699 34.9033 51.2639 35.0049 50.9308C35.1788 50.9473 35.3691 50.9307 35.5406 50.9786C35.5997 50.995 35.5595 51.135 35.5668 51.1503C35.6795 51.3894 35.7606 51.0646 35.7994 51.0521C36.2209 50.931 36.5718 51.1781 36.9906 50.9359C37.0066 50.9272 37.0272 50.5902 37.1318 50.8358C37.1387 50.8527 37.0108 51.0066 37.1938 51.0177C37.3766 51.0288 37.7278 51.2071 37.9888 51.0482C38.0518 51.01 38.2093 50.7348 38.3419 50.947C38.3596 50.9758 38.3417 51.0726 38.3674 51.1261C38.4507 51.2965 38.4906 50.9553 38.5903 51.2434C38.6702 51.4741 38.8167 51.6572 39.0117 51.6162C39.0602 51.606 39.1116 51.5819 39.1658 51.5413C39.1745 51.5354 39.2351 51.2644 39.322 51.2672C39.4626 51.2719 39.6388 51.3249 39.7768 51.3205C39.8418 51.3184 39.797 51.1516 39.8082 51.1483C40.2443 51.0459 40.5638 51.1886 41.0511 51.2421C41.1404 51.2522 41.3922 51.0176 41.5722 51.1938C41.7699 51.3867 41.5923 52.2145 42.032 52.0071C42.1981 51.9243 42.383 50.875 42.7043 51.4074C43.296 51.257 43.8675 51.5174 44.487 51.3075C44.5149 51.2982 44.5952 51.0043 44.6618 51.0062C44.7619 51.0097 44.817 51.1443 44.8826 51.1513C45.1598 51.184 45.4113 51.0597 45.683 51.0696C45.7863 51.073 45.7545 51.2148 45.878 51.2189C46.0017 51.2229 46.0784 51.035 46.2497 51.1194C46.3792 51.1837 46.5186 51.5586 46.6907 51.5975C46.6858 51.2236 46.803 51.2277 47.01 51.1226C47.0498 51.1022 47.0025 50.9735 47.0211 50.9571C47.0968 50.8877 47.1723 50.9933 47.2443 50.918C47.2618 50.9 47.2587 50.7723 47.2728 50.7503C47.3925 50.5585 47.6096 50.8392 47.6471 50.8881C47.7937 51.0736 47.8438 50.9059 47.9461 50.9776C48.0472 51.0494 47.9023 51.1473 48.0191 51.1891C48.2612 51.2756 48.5709 51.2456 48.8187 51.244C48.9176 51.2426 48.8451 51.0743 48.8591 51.0701C49.0621 51.0208 49.2759 51.1958 49.3805 50.8531C49.5502 51.7262 49.5023 50.7643 49.8054 50.9311C49.8293 50.9447 49.8713 51.3587 49.783 51.4222C49.6947 51.4857 49.5546 51.3601 49.4334 51.4587C49.4046 51.4818 49.2483 51.8756 49.2262 51.8999C49.0529 52.0893 49.0094 51.47 48.9989 51.4362C48.8808 51.0719 48.6906 51.4969 48.6384 51.5274C48.399 51.6674 48.1912 51.5864 47.9933 51.6872C47.8626 51.7524 47.8673 52.1588 47.7566 52.1497C47.3905 52.1198 47.2468 51.5572 46.9233 52.0588C46.8542 52.1658 46.9393 52.6075 46.67 52.2664C46.6531 52.2449 46.4518 51.9315 46.3483 52.1368C46.3352 52.1627 46.3397 52.2921 46.3218 52.3035C46.2021 52.3775 46.1179 52.277 45.9875 52.3304C45.8572 52.3838 45.7017 52.4622 45.5515 52.4228C45.4609 52.3993 45.3389 52.1618 45.2944 52.1041C45.1687 51.9378 45.0485 52.2204 44.9682 52.0168C44.8873 51.8121 45.0237 51.4936 44.8241 51.3658C44.827 51.7021 44.8209 52.0476 44.8192 52.3859C44.3588 52.3879 43.9105 52.2924 43.4647 52.32C43.4095 52.3238 43.4712 52.5028 43.4122 52.5115C43.1631 52.5473 42.9433 52.4246 42.6903 52.4829C42.4946 52.5286 42.2855 52.7257 42.0842 52.7792C41.9478 52.3979 41.6244 52.5368 41.3942 52.5072C41.313 52.497 41.316 52.3941 41.2578 52.362C41.039 52.2432 41.1483 52.5807 41.0904 52.6356C40.8429 52.8698 40.8035 52.1009 40.5102 52.1263C40.4946 52.1274 40.3139 52.5416 40.2884 52.5677C40.1267 52.7376 40.2581 52.4255 40.1543 52.3973C39.9652 52.3457 39.8336 52.2503 39.6184 52.3744C39.5548 52.4112 39.4124 52.6695 39.2716 52.474C39.2538 52.4484 39.2612 52.3127 39.2471 52.305C39.1332 52.2475 39.0709 52.3013 39.0237 52.3914C38.9657 52.5024 38.9308 52.6684 38.8533 52.7491C38.7124 52.8955 38.4902 52.6043 38.4452 52.52C38.327 52.3022 38.5326 52.4252 38.5388 52.4036C38.6092 52.1466 38.4508 52.1928 38.3303 52.1725C38.3077 51.755 38.1407 51.782 38.2055 52.1532C38.2128 52.1938 38.3058 52.1537 38.3303 52.1725C38.2295 52.5836 38.0445 52.6382 37.8398 52.257C37.7443 52.0782 37.8305 51.8683 37.5476 51.947C37.4196 51.9825 37.471 52.2698 37.3584 52.3489C37.1128 52.5293 36.7476 52.262 36.4689 52.3039C36.3675 52.3191 36.4661 52.4767 36.3967 52.4925C36.2126 52.5349 36.0523 52.4161 35.8705 52.4755C35.854 52.4811 35.8932 52.6461 35.8367 52.6479C35.4038 52.6639 35.0591 52.5542 34.6028 52.5424C34.3778 52.5368 33.9802 52.6177 33.7559 52.5922C33.3602 52.5494 32.9197 52.2916 32.5755 52.3324C32.3485 52.3581 32.3894 52.5251 32.2868 52.6321C32.0876 52.8395 31.7877 52.4297 31.7501 52.3665C31.7488 52.3645 31.9398 52.3378 31.8446 52.2469C31.7978 52.0672 31.7524 52.3659 31.7501 52.3665C31.7234 52.326 31.3545 52.2625 31.2802 52.2879C31.2392 52.302 31.2494 52.4595 31.2282 52.4639C30.7522 52.5676 30.1743 52.553 29.6843 52.4203C29.6757 52.4161 29.7099 52.2442 29.6895 52.2365C29.403 52.1235 29.2027 52.3122 28.9308 52.4014C28.6544 52.4894 28.4569 52.4142 28.3597 52.0937C28.1648 52.0994 27.9234 51.9202 27.7908 51.8118C27.6581 51.7036 27.5699 52.0322 27.5551 52.0361C27.2184 52.1278 26.9924 52.0119 26.7413 51.8913C26.6484 51.8468 26.5495 51.801 26.4352 51.7619C26.23 51.6923 25.8203 51.6232 25.5641 51.5763C25.3709 51.5437 25.2886 51.4304 25.1067 51.4181C25.082 51.4162 25.0522 51.5666 25.0434 51.5696C24.794 51.6699 25.0141 51.3568 24.9998 51.2808C24.9501 51.0041 24.9194 50.8555 24.655 50.8671C24.5936 50.8696 24.2194 51.2881 24.1029 51.2687C23.9546 51.2437 24.0849 51.0939 23.93 51.0712C23.9168 51.069 23.8679 51.1766 23.7864 51.1308C23.4078 50.9192 23.0393 50.6335 22.6465 50.3886C22.5937 50.3551 22.5578 50.5557 22.4789 50.5089C22.109 50.2893 21.7361 49.9946 21.4767 49.6494C21.4139 49.5645 21.5493 49.5094 21.5584 49.4656C21.6155 49.2026 21.2462 49.324 21.2169 49.3045C20.5471 48.8829 20.407 48.2357 19.8575 47.7028C19.8287 47.6782 19.3436 47.6105 19.5344 47.3199C19.5461 47.2994 19.748 47.0154 19.4972 47.0225C19.4813 47.0225 19.3838 47.1832 19.3202 47.0417C19.2589 46.9044 19.0329 46.725 19.1065 46.4711C19.1273 46.3868 19.3471 46.1141 19.0359 46.057C19.0157 46.058 18.3631 46.0287 18.6828 45.7642C18.7358 45.7209 19.128 45.5679 18.8393 45.4449C18.7834 45.4207 18.7284 45.5319 18.6285 45.447C18.4703 45.3049 18.4984 45.0708 18.2476 44.9387C18.2039 44.9173 17.8796 44.8674 18.0414 44.6733C18.0668 44.6431 18.212 44.6313 18.2047 44.5633C18.1722 44.2452 17.9739 43.9377 17.9795 43.6143C17.9819 43.5015 18.2157 43.4897 18.2433 43.3661C18.2707 43.2425 18.2671 43.011 18.1363 42.9231C18.0051 42.8346 17.6877 43.0548 17.6135 42.8861C17.604 42.8643 17.5948 42.8425 17.5859 42.8205C17.2821 42.045 17.3464 41.3588 17.2379 40.5815C17.2222 40.465 17.111 40.5839 17.0788 40.4124C16.9645 39.8246 16.6952 38.7929 16.905 38.2107C17.076 37.7824 17.3037 38.2678 17.3564 37.9506C17.3815 37.7983 16.9439 37.6836 16.9265 37.6481C16.7525 37.3056 16.9121 37.0326 16.8224 36.7061C16.8039 36.6384 16.6402 36.7226 16.6263 36.6646C16.5775 36.4681 16.6332 36.2408 16.6028 36.0555C16.5891 35.9756 16.4602 36.0019 16.4638 35.9265C16.4708 35.7461 16.5122 35.5821 16.62 35.3955C16.6298 35.3786 16.8005 35.4739 16.7958 35.3395C16.7876 35.1216 16.8872 34.8404 16.7444 34.5929C16.7015 34.5194 16.4034 34.5378 16.5975 34.3582C16.6381 34.3204 16.9987 34.3404 16.6765 34.1685C16.623 34.1426 16.1837 33.8336 16.4432 33.6662C16.5114 33.6224 16.7979 33.5038 16.7465 33.4194C16.7385 33.408 16.5813 33.4653 16.5613 33.3938C16.4934 33.1415 16.4948 32.8692 16.4299 32.6024C16.4123 32.5311 16.2524 32.6476 16.2314 32.5408C16.1734 32.2472 16.1965 31.8694 16.2342 31.5682C16.2484 31.4572 16.3893 31.5268 16.4039 31.5181C16.6408 31.3779 16.3092 31.3166 16.2881 31.2743C16.1616 31.0174 16.3078 30.831 16.2571 30.5986C16.2436 30.5351 16.089 30.5871 16.0745 30.5749C16.0704 30.5712 16.0666 30.5677 16.0632 30.5643C15.9492 30.4532 16.2186 30.5326 16.2453 30.45C16.3232 30.2114 16.3002 29.9473 16.271 29.7052C16.2601 29.6162 16.0824 29.7234 16.0747 29.6434C16.0258 29.1752 16.0252 28.6496 16.111 28.1954C16.1275 28.111 16.2689 28.1593 16.3003 28.1409C16.5198 28.0137 16.2098 27.8456 16.1795 27.8054C16.0414 27.6229 16.1628 27.5463 16.135 27.3808C15.9968 26.5901 16.0513 25.4855 16.0859 24.7593C16.129 23.7725 16.2461 22.9653 16.1935 21.9857C16.1904 21.9266 16.0056 21.9896 16.0005 21.9387C15.9436 21.2811 16.0048 20.6179 15.9396 19.9307C15.9346 19.8742 15.7597 19.9586 15.7457 19.8681C15.7158 19.6825 15.7215 19.445 15.7746 19.2534C15.8002 19.16 15.9535 19.2823 15.9762 19.1882C16.0294 18.9719 16.038 18.7262 16.0063 18.5151C16.0063 18.5147 16.0062 18.5142 16.0061 18.5137C15.9906 18.4269 15.8143 18.5634 15.8104 18.4471C15.7797 17.6504 15.736 16.8502 15.9562 16.0033C15.9713 15.9453 16.3369 15.8887 16.2647 15.7664C16.1628 15.7588 16.0432 15.7612 15.9344 15.7588C15.856 14.5057 15.9655 13.4163 15.9641 12.1819C15.964 12.1307 15.7714 12.2225 15.7702 12.1233C15.7634 11.5591 15.6991 10.9568 15.8822 10.4074C15.9 10.351 16.2421 10.3737 16.1875 10.2091C16.1775 10.1802 16.1274 9.93106 16.052 9.86744C16.0407 9.85884 15.8821 9.90754 15.876 9.8268C15.8431 9.35748 15.87 8.85893 15.9581 8.3773C15.9726 8.29955 16.144 8.37871 16.1558 8.32328C16.2383 7.93012 16.1006 7.5029 16.2469 7.11876C16.3454 6.86141 16.6408 6.94979 16.9269 6.8078C16.9673 6.78775 16.9704 6.62871 17.1383 6.61691C17.5605 6.58691 18.0249 6.65433 18.4747 6.61326C18.5716 6.60462 18.4626 6.39316 18.6997 6.51473C18.7156 6.52328 18.7967 6.67635 18.877 6.71268C18.9325 6.73802 19.1025 6.68673 19.174 6.7393C19.2455 6.79185 19.1034 6.85414 19.188 6.94173C19.2735 7.02919 19.4672 6.98611 19.4939 7.16344ZM27.1828 51.314C27.0797 51.122 26.9182 51.6984 27.1072 51.5959C27.1165 51.5903 27.1883 51.3235 27.1828 51.314ZM43.9024 51.8411C43.713 51.5827 43.6009 51.974 43.7343 52.174C43.868 52.3738 43.9602 51.9194 43.9024 51.8411ZM45.7551 51.5927C45.5421 51.3911 45.5356 52.24 45.7516 52.0618C45.7642 52.0517 45.7676 51.6045 45.7551 51.5927ZM17.0221 7.43463C17.03 7.43256 17.0354 7.3193 17.0275 7.31673C16.8363 7.26039 16.8256 7.48684 17.0221 7.43463ZM47.6109 51.3259C47.5398 51.2133 47.3505 51.3516 47.4383 51.4917C47.5089 51.6044 47.6994 51.466 47.6109 51.3259ZM21.2936 47.0543C21.2994 47.0473 21.2581 46.9766 21.2182 47.0072C21.0894 47.1065 21.1948 47.1733 21.2936 47.0543ZM50.7431 51.223C50.2665 51.2047 49.9615 50.5126 50.4785 50.5767C50.5723 50.5884 50.2834 50.8059 50.4042 50.8656C50.6251 50.9744 50.7579 50.5305 50.9891 50.7598C51.0308 50.8018 50.7702 51.2256 50.7423 51.224C50.7426 51.2237 50.7429 51.2233 50.7431 51.223ZM27.2673 50.5958C27.2662 50.5875 27.1597 50.5541 27.1553 50.561C27.0508 50.7312 27.2681 50.7993 27.2673 50.5958ZM19.7308 42.7372C19.7451 42.7275 19.6949 42.4831 19.678 42.4786C19.3431 42.431 19.4458 42.9339 19.7308 42.7372ZM34.6478 50.8979C34.7795 50.7095 34.9167 50.6893 35.0044 50.9306C34.891 50.9161 34.7744 50.9122 34.6478 50.8979ZM47.4796 0.44799C47.5316 0.711303 47.4756 1.05551 47.3989 1.31627C47.3751 1.398 47.2691 1.35649 47.2479 1.41287C47.2065 1.52314 47.2584 1.62588 47.2091 1.73461C47.1923 1.77064 47.0244 1.72551 47.0106 1.76329C46.9361 1.96927 46.9785 2.1696 46.9423 2.38046C46.764 3.4174 46.6972 4.44257 46.6148 5.48876C46.5955 5.73392 46.5105 6.02527 46.4873 6.29901C46.4781 6.40792 46.4786 6.51478 46.4968 6.61654C46.5044 6.65838 46.652 6.63453 46.6641 6.64256C46.8492 6.76858 46.5519 6.72496 46.5118 6.80597C46.3533 7.12909 46.3368 7.47974 46.3909 7.79731C46.4143 7.93061 46.7083 7.79985 46.5428 7.93231C46.5316 7.9415 46.3754 7.90635 46.3583 7.94265C46.32 8.02501 46.3465 8.18186 46.3335 8.24559C46.3076 8.36843 46.309 8.38878 46.3061 8.50495C46.3007 8.66372 46.2209 8.85128 46.2545 9.0211C46.2622 9.05736 46.4231 9.01122 46.4498 9.06921C46.4764 9.12742 46.4611 9.27927 46.4227 9.33094C46.3843 9.38284 46.2584 9.3591 46.2294 9.36803C45.9845 9.44138 46.3203 9.62436 46.3284 9.64746C46.4657 10.0689 46.2685 10.424 46.2636 10.8128C46.2603 11.1036 46.3189 11.4321 46.3056 11.7138C46.2903 12.0287 46.2095 12.2961 46.2059 12.5939C46.2057 12.6157 46.2058 12.6376 46.2064 12.6598C46.2072 12.694 46.3966 12.6573 46.3979 12.6992C46.4116 13.1489 46.3821 13.5995 46.2453 14.0402C46.2314 14.0845 46.067 14.0235 46.0432 14.0675C45.9013 14.3345 45.5644 14.7617 46.2814 14.9436C46.2488 15.1298 46.2141 15.3548 46.0645 15.5165C45.9682 15.6208 45.7905 15.5126 45.8641 15.6454C45.8805 15.6754 46.0394 15.6411 46.0521 15.6857C46.105 15.8744 46.0483 16.0722 46.1247 16.2619C46.1406 16.3006 46.2824 16.2941 46.3076 16.3056C46.5115 16.4024 46.166 16.5434 46.1402 16.5754C45.9481 16.8197 46.0154 17.0029 46.0038 17.2328C46.001 17.2862 46.1931 17.229 46.1972 17.2805C46.2162 17.5484 46.191 17.818 46.0975 18.0839C46.0763 18.1421 45.9162 18.0825 45.8978 18.11C45.8185 18.2311 46.1234 18.2691 46.0531 18.3851C46.0387 18.4095 45.9006 18.3906 45.8852 18.3946C45.6437 18.4572 45.9801 18.5308 45.987 18.5494C46.0414 18.6852 45.9436 18.7871 45.86 18.8921C45.7993 18.9682 45.7461 19.0458 45.7636 19.1391C45.7689 19.1657 45.9466 19.113 45.9508 19.1873C45.9801 19.6888 45.9096 20.2233 45.7474 20.7023C45.7224 20.777 45.5932 20.717 45.5767 20.721C45.3195 20.7873 45.6571 20.8518 45.6687 20.8789C45.7516 21.0842 45.4577 21.2565 45.8559 21.4109C45.6754 22.2286 45.8554 23.0958 45.4409 23.8915C45.436 23.902 45.27 23.8721 45.261 23.893C45.1506 24.1432 45.4136 24.1104 45.7203 24.3003C45.7973 24.3483 45.4049 24.4511 45.3761 24.4603C45.2696 24.4945 45.0238 24.4348 45.0028 24.4473C44.8374 24.5503 45.6612 24.5883 45.6508 24.742C45.6491 24.7467 45.4991 24.716 45.4832 24.7278C45.4331 24.7644 45.4905 24.8082 45.4356 24.8434C45.3087 24.9245 44.9071 24.9253 45.1296 25.0798C45.1545 25.0971 45.5072 25.1045 45.5822 25.1961C45.594 25.2106 45.5989 25.2271 45.5945 25.2461C45.5812 25.3019 45.5706 25.5495 45.535 25.6155C45.4995 25.6818 45.3529 25.6231 45.346 25.6275C45.133 25.7961 45.0561 25.7198 44.7548 25.7881C44.4546 25.8559 45.1554 25.8863 45.2304 25.9298C45.3052 25.9734 45.1305 26.0933 45.0709 26.1209C45.0112 26.1488 44.9191 26.1004 44.8845 26.1266C44.658 26.2999 45.2243 26.2392 45.33 26.3114C45.5798 26.4852 45.0512 26.5643 44.9882 26.6987C44.9712 26.7354 45.0919 26.7149 45.0999 26.7495C45.1303 26.8867 44.9615 26.9517 45.0959 27.1149C45.1178 27.1415 45.4178 27.2915 45.182 27.3475C45.1481 27.3554 45.0221 27.312 44.9879 27.3646C44.9367 27.4436 44.8944 27.5868 44.9279 27.6867C44.9531 27.758 45.1733 27.7011 45.0987 27.7803C45.0654 27.8154 44.9482 27.7325 44.8961 27.7993C44.844 27.8659 44.8311 28.0462 44.8282 28.1143C44.8255 28.1825 44.9904 28.1624 45.0007 28.169C45.0594 28.2087 45.1232 28.3467 45.1218 28.358C45.0801 28.9307 44.7433 29.4501 44.758 30.0169C44.7587 30.063 44.9319 30.0558 44.9338 30.0631C44.9836 30.2273 44.5504 30.0444 44.3852 30.1304C44.7305 30.1623 44.6597 30.2171 44.6823 30.3291C44.6934 30.3831 44.8302 30.374 44.8432 30.3806C45.034 30.4858 44.7658 30.5012 44.7106 30.5068C44.5073 30.5282 44.731 30.616 44.595 30.6303C44.46 30.6445 44.2787 30.5392 44.2664 30.6387C44.3849 30.685 44.7166 30.6589 44.7572 30.7425C44.856 30.9412 44.7497 31.2439 44.6443 31.4742C44.5845 31.6065 44.5244 31.7214 44.5004 31.8013C44.4305 32.0399 44.4382 32.1197 44.3677 32.2482C44.2399 32.4769 44.4935 32.434 44.5706 32.6068C44.6472 32.7791 44.0833 32.5843 43.9543 32.5796C43.8259 32.5724 43.9484 32.6255 43.8743 32.6381C43.8001 32.6507 43.7281 32.5737 43.6888 32.6321C43.6496 32.6905 43.8323 32.9106 43.9567 32.9625C44.2206 33.0722 44.527 33.0607 44.3868 33.205C44.3786 33.2131 44.2343 33.1468 44.2105 33.1796C44.0306 33.4229 43.9376 33.7536 43.7562 33.9953C43.7309 34.029 43.5747 33.9465 43.5581 33.9654C43.385 34.1575 43.6866 34.1675 43.9539 34.3985C43.5522 34.2369 43.2778 34.233 43.2179 34.4007C43.1813 34.5012 43.3652 34.5458 43.4665 34.6567C43.4966 34.6914 43.3504 34.7137 43.4268 34.762C43.6796 34.9116 44.0126 34.9523 43.8145 35.1032C43.8054 35.1093 43.6689 35.0236 43.6484 35.049C43.5144 35.2093 43.787 35.3444 43.7261 35.5619C43.6657 35.7574 43.3675 35.9211 43.2147 36.089C42.8128 35.8188 42.8136 36.0108 43.0217 36.2821C42.9273 36.3774 42.8217 36.5141 42.6886 36.563C42.6425 36.5804 42.5782 36.4515 42.5639 36.4436C42.3602 36.3027 42.4968 36.6017 42.4696 36.6341C42.188 36.9491 41.8175 36.7583 41.4948 36.9248C41.4839 36.9309 41.3826 37.2389 41.3545 37.0094C41.3542 37.0039 41.3542 36.9981 41.3541 36.992C41.3541 36.9887 41.3585 36.9818 41.365 36.9725C41.3906 36.941 41.4412 36.8795 41.4044 36.8346C41.3966 36.8232 41.3837 36.8131 41.3636 36.8051C41.2433 36.7583 41.0725 36.5115 40.8547 36.594C40.8032 36.6147 40.5958 36.827 40.5925 36.5936C40.5926 36.5621 40.6413 36.4778 40.6463 36.4215C40.6636 36.2427 40.5016 36.5438 40.5592 36.2528C40.6163 35.9615 40.6025 35.7178 40.3632 35.822C40.3562 35.825 40.1988 36.0483 40.1515 36.0193C40.1317 36.0071 40.1112 35.9905 40.0903 35.9719C40.0328 35.9208 39.9728 35.8546 39.9137 35.8235C39.875 35.8033 39.8183 35.9634 39.8102 35.9625C39.5043 35.8994 39.3967 35.6601 39.1693 35.4357C39.1287 35.395 38.8617 35.4923 38.871 35.279C38.8787 35.1231 39.139 34.7993 39.2083 34.6052C39.2425 34.5101 39.2318 34.447 39.1232 34.4485C38.9944 34.4527 38.256 35.2068 38.4189 34.651C38.1192 34.5507 37.9848 34.267 37.7551 34.0915C37.6827 34.0361 37.6019 33.992 37.5008 33.9646C37.482 33.9595 37.2479 34.142 37.2186 34.1109C37.1757 34.0647 37.2405 33.9401 37.2136 33.9041C37.1013 33.7492 36.8995 33.7225 36.7787 33.5848C36.7333 33.5333 36.847 33.4469 36.7939 33.386C36.742 33.3262 36.5731 33.4215 36.556 33.2806C36.5527 33.2528 36.5643 33.2098 36.5824 33.1598C36.6338 33.0176 36.7386 32.8183 36.7039 32.7381C36.4384 33.0013 36.3894 32.9424 36.2264 32.9185C36.1948 32.9139 36.1219 33.0251 36.1022 33.0277C36.0185 33.0387 36.0623 32.9296 35.977 32.9469C35.9563 32.9509 35.8649 33.04 35.8428 33.0483C35.6519 33.1223 35.7652 32.8265 35.785 32.7749C35.8611 32.58 35.7136 32.666 35.7226 32.5669C35.7314 32.4674 35.8677 32.4754 35.8468 32.3874C35.8107 32.2386 35.7066 32.1255 35.6097 32.0185C35.5875 31.994 35.5668 31.971 35.5471 31.9476C35.5035 31.8973 35.4077 32.0453 35.3986 32.0408C35.2741 31.9678 35.3222 31.749 35.0168 31.9159C35.6168 31.2689 34.8981 31.9104 34.9052 31.6501C34.9064 31.6297 35.2092 31.3452 35.2913 31.3471C35.3719 31.3473 35.3379 31.5059 35.4576 31.498C35.4863 31.4971 35.8492 31.3202 35.8769 31.3158C36.0876 31.2754 35.6374 31.7021 35.6163 31.7296C35.4303 31.9739 35.6683 31.8973 35.7814 31.8614C35.8065 31.8539 35.8259 31.8488 35.834 31.8498C36.0421 31.8804 36.0634 32.0309 36.2268 32.0657C36.3294 32.0848 36.629 31.8102 36.6658 31.8666C36.7893 32.054 36.4403 32.5075 36.9373 32.31C37.0432 32.2674 37.3241 31.9208 37.1915 32.2808C37.1839 32.3014 37.0697 32.559 37.1889 32.535C37.2014 32.5325 37.2164 32.5269 37.2344 32.5177C37.2582 32.5053 37.3481 32.4122 37.3637 32.4121C37.4664 32.4136 37.4324 32.5239 37.5257 32.5444C37.6186 32.5645 37.7401 32.5777 37.7793 32.6737C37.8024 32.731 37.6922 32.957 37.6728 33.0192C37.6154 33.197 37.864 33.0456 37.7621 33.2307C37.6606 33.4174 37.3795 33.5881 37.3872 33.774C37.6139 33.5256 37.8509 33.2744 38.0804 33.026C38.1864 33.1283 38.2742 33.2503 38.3674 33.3659C38.447 33.4643 38.5293 33.5571 38.6307 33.6303C38.6583 33.6497 38.745 33.4875 38.7773 33.5045C38.9123 33.5762 38.936 33.7585 39.0916 33.8123C39.2121 33.8531 39.4308 33.7769 39.5577 33.8087C39.4765 33.9849 39.4919 34.0747 39.5387 34.1325C39.5865 34.1914 39.6666 34.2166 39.7126 34.2689C39.7445 34.305 39.6849 34.3887 39.6943 34.4352C39.7319 34.6085 39.8687 34.2913 39.9264 34.2652C40.1702 34.1508 39.7676 34.8072 39.9311 34.8854C39.9404 34.8903 40.2484 34.5968 40.2733 34.5816C40.4403 34.4865 40.2147 34.7129 40.2521 34.7697C40.3202 34.873 40.3418 34.9977 40.514 34.9538C40.5407 34.9466 40.6096 34.8913 40.6632 34.8717C40.7105 34.8546 40.7457 34.865 40.7343 34.9629C40.7311 34.9903 40.6654 35.109 40.6688 35.1196C40.7375 35.3017 40.9274 34.9195 41.0558 34.8206C41.1828 34.721 41.1609 35.0326 41.1509 35.1204C41.1216 35.3464 41.0716 35.1884 41.0601 35.2066C40.9211 35.4252 41.0187 35.4203 41.0714 35.4657C40.9221 35.8563 41.0253 35.8713 41.1272 35.5112C41.1385 35.472 41.0766 35.4886 41.0714 35.4657C41.2809 35.109 41.3735 35.0907 41.3531 35.4917C41.3454 35.6797 41.2279 35.8612 41.4155 35.8449C41.501 35.8369 41.5573 35.5527 41.6439 35.498C41.6986 35.4634 41.7466 35.462 41.792 35.478C41.8671 35.5074 41.8885 35.6151 41.8853 35.5726C41.8776 35.5514 41.8781 35.3983 41.8655 35.3792C41.8117 35.3306 41.7892 35.4571 41.7422 35.4124C41.7361 35.409 41.668 35.2589 41.6531 35.2638C41.558 35.3046 41.7594 35.2886 41.8463 35.153C41.9033 35.0726 41.898 34.8985 41.9666 34.8005C42.0774 34.6495 42.3975 34.5012 42.41 34.295C42.4151 34.1712 42.2507 34.1402 42.1612 34.056C41.9864 33.8971 42.4128 33.8436 42.479 33.8332C42.4812 33.8333 42.4844 33.952 42.5832 33.9203C42.762 33.9395 42.4794 33.8344 42.479 33.8332C42.5242 33.8209 42.6185 33.6362 42.6003 33.5832C42.5902 33.556 42.4364 33.5257 42.4339 33.5125C42.3793 33.1931 42.4117 32.8991 42.5492 32.6229C42.5535 32.6184 42.7221 32.6649 42.73 32.6536C42.8449 32.4974 42.6629 32.3249 42.5657 32.1682C42.47 32.0037 42.5335 31.9 42.8447 31.8698C42.8287 31.7532 42.9893 31.6137 43.0852 31.5339C43.1802 31.4592 42.8474 31.3876 42.8422 31.3788C42.7902 31.2927 42.7744 31.2225 42.7796 31.1589C42.7914 31.0153 42.9107 30.9058 42.9607 30.7225C42.9969 30.5891 42.9827 30.3511 42.9656 30.2078C42.9513 30.0972 43.0393 30.0434 43.0027 29.9363C42.9979 29.9219 42.846 29.9148 42.8408 29.9099C42.6766 29.7737 43.036 29.8775 43.1047 29.8633C43.3543 29.8119 43.4887 29.7738 43.3955 29.6146C43.3741 29.579 42.8576 29.4175 42.834 29.3554C42.8044 29.2744 42.9904 29.3271 42.9545 29.2411C42.9516 29.2337 42.8345 29.2206 42.8458 29.1716C42.8967 28.9453 42.9958 28.6904 43.0113 28.4452C43.0138 28.4127 42.8234 28.4334 42.8239 28.3861C42.8263 28.1643 42.8593 27.92 42.9689 27.7062C42.9965 27.6537 43.1233 27.7012 43.1631 27.6932C43.4046 27.6435 43.075 27.5046 43.0702 27.4867C42.9463 27.0685 43.2819 26.7966 43.1718 26.3615C43.1651 26.3391 42.8155 26.1267 43.1344 26.0815C43.1557 26.0782 43.4823 26.0295 43.2687 25.9448C43.2553 25.9395 43.0866 25.973 43.1101 25.8924C43.1336 25.8117 43.034 25.6703 43.2242 25.5701C43.2841 25.5385 43.6105 25.4773 43.364 25.3485C43.3468 25.3399 42.7833 25.1281 43.1854 25.0971C43.2406 25.0929 43.5426 25.1212 43.5208 25.0445C43.5165 25.0294 43.4995 25.0101 43.4655 24.9857C43.4255 24.9574 43.3283 24.9964 43.2746 24.9256C43.1914 24.8203 43.3134 24.6993 43.1344 24.5646C43.1026 24.5411 42.8232 24.4314 43.045 24.3738C43.0798 24.3647 43.2188 24.3959 43.2372 24.3586C43.3251 24.1809 43.2438 23.9815 43.3532 23.7985C43.3917 23.7336 43.6167 23.7824 43.6821 23.7161C43.7476 23.6477 43.8147 23.5147 43.7151 23.4372C43.6156 23.3596 43.2486 23.4153 43.2261 23.3069C43.1281 22.8395 43.3677 22.3687 43.4228 21.9079C43.4311 21.8391 43.2984 21.8896 43.3012 21.7877C43.3109 21.4166 43.2213 20.7362 43.5107 20.4307C43.7431 20.1785 43.8967 20.5158 43.9954 20.3193C44.0425 20.2242 43.6254 20.1008 43.6131 20.0768C43.4881 19.8417 43.6814 19.6889 43.6325 19.4774C43.6224 19.4337 43.4498 19.4692 43.443 19.4321C43.4184 19.3044 43.4998 19.177 43.4903 19.0601C43.4856 19.0072 43.3547 19.012 43.3666 18.9639C43.3799 18.9073 43.4008 18.8542 43.4337 18.8018C43.4677 18.7476 43.5145 18.6942 43.5788 18.6385C43.5904 18.6285 43.7502 18.7045 43.7594 18.6182C43.7738 18.4785 43.9007 18.308 43.7817 18.1408C43.7459 18.0912 43.4476 18.0792 43.6572 17.9822C43.701 17.9618 44.0583 18.0019 43.7528 17.8699C43.7021 17.8476 43.2914 17.6291 43.5636 17.5421C43.6353 17.5186 43.9306 17.462 43.8863 17.4033C43.8792 17.3953 43.7179 17.4213 43.7038 17.3734C43.6568 17.2047 43.6794 17.0293 43.6344 16.8545C43.622 16.8078 43.4541 16.8717 43.441 16.8023C43.4048 16.6115 43.4539 16.3746 43.511 16.1884C43.5324 16.1198 43.6684 16.1714 43.6835 16.1668C43.929 16.0915 43.602 16.0375 43.5835 16.0103C43.4734 15.8441 43.6309 15.7236 43.594 15.5711C43.5843 15.529 43.427 15.5546 43.4132 15.5459C43.2791 15.4561 43.5585 15.5276 43.5909 15.4737C43.6826 15.3227 43.6743 15.1508 43.6581 14.9941C43.6519 14.9365 43.4688 14.9967 43.4654 14.945C43.4415 14.6385 43.4661 14.3215 43.5725 14.0316C43.5928 13.9765 43.7319 14.0144 43.764 14.0036C43.9891 13.9287 43.6869 13.805 43.6585 13.7775C43.5285 13.6521 43.6531 13.6069 43.6322 13.4978C43.5746 13.2045 43.5778 12.8642 43.6018 12.547C43.6212 12.2892 43.6544 12.036 43.6806 11.8124C43.7564 11.155 43.8966 10.6565 43.8701 10.0327C43.8686 9.99301 43.6821 10.0306 43.6784 9.9964C43.6392 9.55386 43.7168 9.1182 43.6677 8.68026C43.664 8.64411 43.4871 8.69434 43.4752 8.63625C43.4497 8.51709 43.4607 8.3663 43.5182 8.24611C43.5459 8.18749 43.6964 8.26794 43.7212 8.20888C43.7793 8.07134 43.7932 7.92309 43.7662 7.78037C43.7543 7.71963 43.5732 7.8095 43.5718 7.73068C43.5598 7.24163 43.5362 6.77075 43.7112 6.28036C43.7284 6.23244 43.7474 6.18439 43.7686 6.13619C43.7849 6.09918 44.1516 6.06896 44.0818 5.98945C43.9801 5.98286 43.8605 5.98243 43.7518 5.97914C43.6981 5.20069 43.8288 4.43625 43.8512 3.65236C43.8521 3.61968 43.6577 3.67549 43.6584 3.61222C43.6625 3.24589 43.6097 2.88871 43.8036 2.51149C43.8226 2.47405 44.1642 2.49407 44.1127 2.38341C44.1033 2.36391 44.0581 2.19719 43.984 2.1539C43.9729 2.14803 43.8134 2.17815 43.8088 2.12441C43.7852 1.81084 43.822 1.4899 43.9198 1.17923C43.9358 1.12923 44.1056 1.18267 44.1185 1.14705C44.2089 0.894357 44.08 0.618658 44.2343 0.376028C44.3381 0.21357 44.6316 0.273788 44.9206 0.187407C44.9613 0.175193 44.9678 0.0744005 45.1359 0.0691849C45.5586 0.0558116 46.0215 0.10471 46.4721 0.0846883C46.5691 0.0804693 46.4646 -0.0547796 46.6991 0.0252988C46.7148 0.0308989 46.7927 0.128938 46.8722 0.153079C46.9272 0.169893 47.0982 0.139626 47.1686 0.173929C47.239 0.208232 47.0956 0.24588 47.1784 0.302711C47.2621 0.35951 47.4566 0.334616 47.4796 0.44799ZM43.51 31.1866C43.6855 31.1267 43.0972 31.0173 43.2231 31.1331C43.2299 31.1388 43.5014 31.1897 43.51 31.1866ZM38.1207 33.8146C38.0396 34.0904 38.3454 33.8391 38.4141 33.6319C38.4847 33.4263 38.1458 33.7313 38.1207 33.8146ZM37.1109 33.1765C37.0677 33.4208 37.6592 32.8125 37.4399 32.8424C37.4274 32.8439 37.1135 33.1623 37.1109 33.1765ZM45.0027 0.587951C45.0107 0.586725 45.0184 0.514448 45.0106 0.512713C44.8206 0.474153 44.8052 0.618656 45.0027 0.587951ZM36.1212 32.4945C36.07 32.6069 36.247 32.5987 36.3135 32.4625C36.3685 32.3545 36.1866 32.3569 36.1212 32.4945ZM44.697 26.677C44.706 26.6763 44.7186 26.625 44.6683 26.6216C44.5063 26.6111 44.5456 26.6873 44.697 26.677ZM34.7695 30.9918C34.9337 31.2433 34.5172 31.8342 34.3627 31.5266C34.3332 31.4686 34.6224 31.4895 34.6188 31.3864C34.6209 31.2086 34.2159 31.4087 34.3106 31.1481C34.3316 31.1056 34.7603 30.9757 34.7706 30.9916C34.7702 30.9917 34.7699 30.9918 34.7695 30.9918ZM44.2272 31.2539C44.2353 31.2535 44.2543 31.1837 44.2468 31.1806C44.0657 31.1119 44.0273 31.2517 44.2272 31.2539ZM45.2899 23.6865C45.307 23.6838 45.3328 23.5215 45.3176 23.5151C45.0129 23.4111 44.9598 23.7386 45.2899 23.6865ZM43.2021 36.0845C43.3092 36.2674 43.2518 36.3808 43.0221 36.2819C43.0864 36.2234 43.141 36.1531 43.2021 36.0845Z" fill="black"/>
</svg>
