<svg width="37" height="53" viewBox="0 0 37 53" fill="none" xmlns="http://www.w3.org/2000/svg">
<path d="M5.07559 1.018C5.07919 1.49998 4.96311 2.11339 4.8428 2.57249C4.80532 2.71643 4.70679 2.63243 4.67621 2.7313C4.61657 2.92462 4.65127 3.11255 4.58454 3.30165C4.56192 3.36428 4.40204 3.26901 4.38215 3.33506C4.27437 3.69707 4.28584 4.04777 4.21797 4.4137C3.8819 6.23057 3.67441 8.12613 3.48454 9.93078C3.41973 10.5585 3.22255 11.3262 3.25555 11.9715C3.25953 12.0471 3.40908 12.01 3.42046 12.0249C3.59455 12.2584 3.30125 12.1685 3.2543 12.3125C3.06888 12.8834 3.0261 13.5192 3.06062 14.0647C3.06084 14.068 3.06111 14.0712 3.06144 14.0743C3.08428 14.2905 3.37526 14.0804 3.20416 14.3026C3.19243 14.3183 3.03836 14.2536 3.01915 14.3161C2.97611 14.4515 2.99301 14.7423 2.97636 14.8595C2.94344 15.0849 2.94371 15.1223 2.93463 15.3352C2.92093 15.6259 2.83239 15.9673 2.85918 16.2759C2.86536 16.3418 3.02819 16.2595 3.05256 16.3648C3.07683 16.4703 3.056 16.7455 3.01596 16.837C2.97584 16.9286 2.85074 16.8861 2.82143 16.9018C2.5741 17.0312 2.90489 17.3553 2.91247 17.3956C3.0392 18.1479 2.83821 18.724 2.83288 19.4728C2.82959 20.018 2.8924 20.592 2.88598 21.0954C2.87775 21.6953 2.79634 22.1964 2.82104 22.7638C2.82356 22.8278 3.01086 22.7495 3.01433 22.8275C3.05123 23.6564 3.05352 24.4597 2.95707 25.2522C2.94725 25.3317 2.77772 25.2364 2.75803 25.3163C2.64083 25.8134 2.34954 26.5539 3.08818 26.8422C3.07855 27.1844 3.07423 27.5939 2.94884 27.9011C2.87983 28.0707 2.72898 27.9674 2.74488 28.0786C2.74757 28.0974 2.75501 28.1222 2.76842 28.1554C2.78917 28.2072 2.9421 28.1276 2.9613 28.206C3.04199 28.5357 3.01771 28.8997 3.1251 29.2151C3.14732 29.2792 3.28702 29.2498 3.31393 29.2662C3.53226 29.4047 3.21397 29.6894 3.19423 29.7476C3.0486 30.2056 3.15361 30.5416 3.19113 30.9546C3.19989 31.051 3.37741 30.9179 3.39264 31.0097C3.46918 31.486 3.50794 31.9733 3.47982 32.4346C3.47314 32.5373 3.30093 32.465 3.28953 32.5151C3.24143 32.7361 3.55095 32.7439 3.51142 32.9523C3.50352 32.9962 3.36289 32.9905 3.34879 33.0002C3.12835 33.1581 3.47987 33.2291 3.49167 33.2603C3.65024 33.666 3.33852 33.9811 3.44854 34.3698C3.46207 34.4159 3.61918 34.2832 3.6466 34.4143C3.83 35.2817 3.9403 36.1795 3.98812 37.1005C3.99497 37.2392 3.84594 37.1704 3.83178 37.1821C3.61215 37.3726 3.96411 37.391 3.98587 37.4313C4.14917 37.7528 3.9429 38.1301 4.39035 38.2612C4.56747 39.4932 4.98374 40.5178 5.25593 41.7182C5.32067 42.0056 5.37316 42.2919 5.40716 42.5817C5.40975 42.6003 5.24153 42.6296 5.24742 42.6664C5.32005 43.1131 5.52577 42.9227 5.93794 43.0903C6.04045 43.13 5.77653 43.4927 5.75935 43.5234C5.69365 43.6335 5.43385 43.6605 5.42534 43.6916C5.36455 43.9479 6.10584 43.587 6.21691 43.8327C6.21919 43.8411 6.06626 43.8713 6.06196 43.8983C6.04829 43.9827 6.13239 44.0212 6.11411 44.1056C6.07101 44.2983 5.73463 44.5251 6.04999 44.6386C6.09048 44.6518 6.48959 44.4059 6.57368 44.622C6.59936 44.6965 6.81871 45.0958 6.84951 45.2104C6.88165 45.3307 6.70977 45.3316 6.70816 45.3422C6.69535 45.7259 6.56276 45.6581 6.39078 45.9503C6.22238 46.2439 6.80219 45.8465 6.90282 45.8626C7.00296 45.879 6.98451 46.1629 6.96735 46.242C6.94959 46.321 6.83034 46.3115 6.83038 46.3721C6.83619 46.7729 7.2028 46.3081 7.35521 46.3387C7.7183 46.4112 7.41293 46.8825 7.52022 47.1156C7.54899 47.1779 7.61186 47.0636 7.65604 47.1048C7.82897 47.2658 7.7875 47.4775 8.06687 47.5846C8.11483 47.6052 8.47844 47.5534 8.39782 47.8085C8.38635 47.8455 8.25075 47.8877 8.29697 47.9839C8.36551 48.128 8.53237 48.3483 8.67624 48.4312C8.78201 48.4922 8.83848 48.2467 8.895 48.3967C8.92057 48.4634 8.74644 48.4673 8.80273 48.586C8.85855 48.7056 9.09141 48.9133 9.1826 48.9855C9.27349 49.0587 9.33105 48.8941 9.3454 48.8922C9.42945 48.8834 9.65623 48.9702 9.67123 48.9815C10.4431 49.5799 11.1344 50.2828 12.0997 50.5177C12.1746 50.5356 12.1801 50.3574 12.1922 50.3585C12.459 50.3695 12.1249 50.7397 12.2612 50.9409C12.3354 50.601 12.4217 50.6943 12.6118 50.7054C12.7033 50.71 12.6893 50.5677 12.7007 50.5565C12.8753 50.3909 12.901 50.6661 12.914 50.7243C12.958 50.9372 13.1014 50.7275 13.1326 50.8683C13.1677 51.0086 12.9919 51.174 13.1735 51.2052C13.2445 51.0919 13.1731 50.7499 13.3131 50.7214C13.529 50.6761 13.8012 50.7088 14.0869 50.7553C14.5058 50.8239 14.9095 50.9142 15.1585 50.9195C15.5707 50.9269 15.7074 50.887 15.9549 50.9051C16.387 50.9316 16.2009 50.7126 16.4416 50.564C16.682 50.411 16.6611 51.0147 16.7214 51.1334C16.7832 51.2515 16.802 51.1148 16.8635 51.1742C16.9256 51.2334 16.8358 51.3389 16.9564 51.3422C17.0787 51.3462 17.3484 51.0546 17.3568 50.9149C17.3753 50.6204 17.1739 50.3661 17.4835 50.3961C17.5009 50.398 17.4877 50.562 17.5526 50.5616C18.0696 50.5527 18.5927 50.3956 19.1412 50.3044C19.2157 50.2924 19.2152 50.4773 19.2579 50.4726C19.6996 50.4222 19.4522 50.2039 19.5468 49.8168C19.6602 50.2359 19.8809 50.4339 20.1961 50.3009C20.3851 50.2203 20.2768 50.0617 20.3427 49.8867C20.3621 49.8342 20.5482 49.8913 20.5352 49.7995C20.4918 49.4997 20.2314 49.2651 20.6009 49.2323C20.6175 49.2311 20.6418 49.3954 20.6941 49.3808C21.0229 49.2906 20.9149 49.0059 21.211 48.8115C21.4408 48.6605 21.9703 48.5807 22.274 48.4379C22.509 48.8629 22.7371 48.6007 22.6587 48.2568C22.8399 48.1641 23.0188 48.0317 23.2135 47.9636C23.2805 47.94 23.317 48.083 23.3325 48.0912C23.5742 48.2201 23.477 47.8957 23.5079 47.8606C23.847 47.4947 24.3527 47.4499 24.5804 46.9956C24.5888 46.979 24.4158 46.6889 24.6576 46.8191C24.674 46.8282 24.6386 47.0414 24.8221 46.9256C25.0049 46.8106 25.4483 46.7115 25.6044 46.3987C25.6425 46.3233 25.6288 45.991 25.8808 46.0671C25.9148 46.0776 25.9557 46.1681 26.012 46.1926C26.1933 46.2696 26.0269 45.9678 26.2944 46.1265C26.5132 46.2499 26.752 46.2986 26.9007 46.1322C26.9375 46.091 26.9684 46.0366 26.9915 45.9673C26.9956 45.9566 26.8835 45.7006 26.9613 45.6434C27.0858 45.5522 27.2925 45.4563 27.4179 45.3505C27.4778 45.2999 27.3324 45.2026 27.3409 45.1916C27.6825 44.7869 28.0834 44.6423 28.5459 44.3248C28.63 44.2676 28.6961 43.9049 28.9637 43.9079C29.258 43.9096 29.6392 44.6746 29.8867 44.1865C29.9886 43.9879 29.4723 43.0456 30.1132 43.1875C30.5673 42.5795 31.194 42.3595 31.5771 41.711C31.5941 41.6822 31.4609 41.4039 31.5173 41.3533C31.6014 41.2785 31.7415 41.3308 31.805 41.2799C32.0722 41.0697 32.2132 40.7601 32.4514 40.5409C32.5392 40.4599 32.6112 40.588 32.7162 40.4908C32.8212 40.3932 32.7536 40.1961 32.953 40.1172C33.104 40.058 33.4809 40.2119 33.6495 40.0978C33.3831 39.8354 33.4819 39.7423 33.576 39.4976C33.5939 39.4505 33.4647 39.398 33.4683 39.3712C33.4806 39.2599 33.6163 39.2726 33.6212 39.1602C33.6226 39.133 33.5298 39.0453 33.5256 39.0182C33.4861 38.7847 33.8592 38.8039 33.9242 38.8071C34.1713 38.8191 34.0994 38.6518 34.237 38.6122C34.3747 38.5723 34.3203 38.7705 34.4502 38.6954C34.7275 38.5309 34.9442 38.2603 35.1452 38.0443C35.2235 37.959 35.0438 37.9044 35.0521 37.8895C35.179 37.6827 35.4765 37.6202 35.3107 37.295C36.08 37.7496 35.3432 37.1299 35.7037 36.9848C35.7324 36.9736 36.0681 37.2203 36.0444 37.34C36.0206 37.4597 35.8177 37.4941 35.7927 37.666C35.7868 37.7066 35.9473 38.1122 35.9469 38.1481C35.9444 38.4284 35.4614 38.0378 35.4286 38.0234C35.0708 37.8724 35.2247 38.3286 35.2042 38.3947C35.1113 38.6964 34.8858 38.8152 34.783 39.0682C34.7178 39.2302 35.0064 39.5166 34.9102 39.6029C34.5903 39.8894 34.0764 39.6096 34.1648 40.2338C34.1832 40.3671 34.564 40.611 34.1018 40.5917C34.0725 40.5907 33.687 40.5331 33.7446 40.7652C33.7519 40.7945 33.8458 40.8835 33.839 40.9065C33.7909 41.0585 33.6507 41.0558 33.5789 41.2014C33.5054 41.3488 33.4355 41.5267 33.2718 41.6315C33.1747 41.6934 32.9025 41.6265 32.8233 41.6228C32.5972 41.6101 32.6829 41.9197 32.4718 41.8399C32.2599 41.7594 32.164 41.4103 31.8992 41.4866C32.1309 41.7304 32.3605 41.9889 32.5894 42.2382C32.2036 42.6074 31.7587 42.891 31.3953 43.2599C31.3504 43.3059 31.5229 43.391 31.4779 43.4437C31.2966 43.6568 30.9985 43.7614 30.807 44.0099C30.6562 44.2056 30.5903 44.5266 30.4361 44.732C30.0634 44.5511 29.8769 44.8952 29.6544 45.0449C29.5767 45.0974 29.5134 45.0162 29.4418 45.0346C29.174 45.105 29.4853 45.2839 29.4694 45.369C29.4034 45.7296 28.8699 45.174 28.6123 45.4196C28.5986 45.4324 28.687 45.8955 28.6786 45.9358C28.6304 46.1942 28.5609 45.8484 28.4444 45.9067C28.2317 46.0126 28.0474 46.0383 27.9173 46.3C27.8801 46.3765 27.896 46.6931 27.6552 46.6327C27.6237 46.6248 27.5473 46.5123 27.53 46.5159C27.3932 46.5496 27.3702 46.6353 27.3826 46.7396C27.3979 46.8679 27.4671 47.0241 27.4457 47.1422C27.4135 47.3514 27.0105 47.2916 26.9195 47.2543C26.6743 47.1663 26.9478 47.1144 26.9408 47.0923C26.8549 46.8349 26.7295 46.9881 26.6003 47.0595C26.3297 46.7407 26.1847 46.8823 26.4676 47.1344C26.4988 47.1618 26.5654 47.0621 26.6003 47.0595C26.7478 47.4627 26.5967 47.6433 26.1719 47.4815C25.9734 47.4049 25.9351 47.174 25.7045 47.4377C25.5997 47.5566 25.817 47.7544 25.7515 47.8984C25.595 48.2317 25.1318 48.2289 24.8658 48.4602C24.7731 48.5414 24.9601 48.6051 24.8995 48.6652C24.7386 48.8252 24.5114 48.8338 24.3606 49.0037C24.347 49.0193 24.4775 49.1311 24.4212 49.1701C23.9894 49.4709 23.579 49.6003 23.0976 49.8769C22.864 50.0119 22.4925 50.3223 22.244 50.4322C21.8142 50.6265 21.2043 50.6591 20.8425 50.886C20.614 51.0296 20.7342 51.1558 20.6736 51.3051C20.5537 51.5961 20.0434 51.3828 19.9762 51.3436C19.9741 51.3426 20.1677 51.2225 20.025 51.1889C19.8952 51.0511 19.9785 51.3418 19.9762 51.3436C19.9273 51.3224 19.5105 51.4422 19.4194 51.507C19.3772 51.5405 19.457 51.6778 19.4338 51.6925C18.875 52.041 18.2985 52.2566 17.6489 52.3334C17.6369 52.3329 17.6143 52.1588 17.5867 52.1598C17.2026 52.1678 17.0131 52.421 16.7256 52.5971C16.4367 52.7721 16.1909 52.7586 15.9679 52.4803C15.7312 52.5438 15.3797 52.4342 15.1863 52.3596C14.9933 52.2857 14.9729 52.6248 14.9553 52.6321C14.5635 52.7947 14.2837 52.722 13.9386 52.6393C13.814 52.6088 13.6818 52.5764 13.5318 52.5504C13.2624 52.5068 12.7343 52.4661 12.4299 52.4289C12.1923 52.4031 12.0762 52.2891 11.854 52.2762C11.8239 52.2742 11.8086 52.4278 11.7983 52.4307C11.5076 52.5305 11.7331 52.2124 11.7054 52.1345C11.608 51.8493 11.5543 51.6979 11.2345 51.6953C11.1643 51.6961 10.7703 52.1107 10.6322 52.0829C10.4575 52.0476 10.5966 51.9014 10.4146 51.8668C10.3991 51.8634 10.351 51.9716 10.2522 51.9173C9.79094 51.6653 9.33973 51.3145 8.90883 51.0225C8.84906 50.9814 8.81683 51.1881 8.72773 51.1302C8.31136 50.86 7.87521 50.4844 7.60787 50.1096C7.53948 50.0143 7.68222 49.9692 7.69097 49.924C7.74552 49.6518 7.3545 49.7431 7.32307 49.7199C6.57353 49.1787 6.44969 48.5321 5.82579 47.9074C5.79568 47.8815 5.27111 47.7617 5.46017 47.4732C5.4714 47.4522 5.66159 47.1547 5.40547 47.1593C5.38932 47.1592 5.2993 47.3278 5.22602 47.1782C5.15336 47.0295 4.91861 46.8531 4.96122 46.5602C4.97384 46.4666 5.16994 46.1629 4.84095 46.0913C4.82094 46.0934 4.14018 46.0428 4.44579 45.7622C4.49587 45.7153 4.88033 45.5428 4.57765 45.4208C4.51913 45.3971 4.4729 45.5161 4.36487 45.4299C4.19839 45.2967 4.19044 45.0171 3.91918 44.8741C3.87164 44.8502 3.5348 44.7999 3.67479 44.5768C3.69681 44.5421 3.8433 44.5258 3.82694 44.4486C3.75051 44.0832 3.5123 43.7471 3.48215 43.3971C3.46942 43.2683 3.70482 43.2465 3.71606 43.1041C3.72714 42.9616 3.69214 42.6962 3.54805 42.6012C3.40363 42.5056 3.11233 42.7707 3.01502 42.5817C3.00256 42.5574 2.9904 42.5329 2.97853 42.5083C2.57312 41.6505 2.53916 40.8322 2.33824 39.9643C2.30825 39.8328 2.21116 39.9745 2.15816 39.7817C1.94802 39.0264 1.57865 37.9341 1.72291 37.2362C1.84148 36.6981 2.1297 37.2879 2.14347 36.8931C2.15002 36.7036 1.69784 36.5822 1.67632 36.5392C1.46159 36.1227 1.60002 35.8282 1.47966 35.4577C1.45503 35.3822 1.29897 35.4863 1.27986 35.4216C1.2131 35.2002 1.25019 34.948 1.20254 34.73C1.1808 34.6322 1.05446 34.6701 1.05057 34.5771C1.03988 34.3546 1.0657 34.1512 1.15639 33.9176C1.16467 33.8964 1.34426 34.0064 1.32717 33.8416C1.29922 33.576 1.37336 33.2185 1.21479 32.9583C1.16679 32.8774 0.869991 32.9111 1.05171 32.7002C1.08971 32.6558 1.45147 32.6627 1.11787 32.4833C1.06231 32.4541 0.604048 32.1344 0.851496 31.9211C0.916533 31.8651 1.19454 31.7106 1.13726 31.6093C1.12839 31.5956 0.975205 31.6708 0.950132 31.5841C0.864582 31.2779 0.848105 30.9456 0.766961 30.6224C0.744988 30.536 0.592155 30.6824 0.564698 30.5528C0.48753 30.1809 0.493936 29.7642 0.518716 29.4239C0.528219 29.2989 0.672076 29.3733 0.686262 29.3631C0.91728 29.1998 0.583321 29.1399 0.560499 29.093C0.423168 28.8016 0.560416 28.5597 0.500523 28.2817C0.484436 28.2048 0.331939 28.2704 0.316961 28.2559C0.312658 28.2515 0.308728 28.2472 0.305155 28.2432C0.186733 28.1099 0.459352 28.2022 0.48281 28.1014C0.551512 27.8106 0.519271 27.4911 0.482646 27.1985C0.468977 27.091 0.294549 27.2226 0.284393 27.1258C0.219454 26.5229 0.212375 25.9996 0.290303 25.4462C0.305437 25.344 0.447671 25.4023 0.478741 25.3799C0.696193 25.2261 0.383827 25.0234 0.353079 24.9746C0.212652 24.754 0.33332 24.6618 0.30392 24.4621C0.157109 23.4735 0.218458 22.2534 0.264327 21.3627C0.322536 20.1895 0.462357 19.1859 0.445599 18.086C0.44476 18.0152 0.257601 18.0835 0.2545 18.0223C0.223074 17.232 0.315038 16.4429 0.287321 15.6221C0.285389 15.5547 0.106057 15.6461 0.0970533 15.5376C0.0773547 15.315 0.0966288 15.0327 0.161183 14.808C0.192335 14.6985 0.3381 14.8523 0.366377 14.7419C0.432933 14.4762 0.455442 14.2225 0.437638 13.9679C0.437595 13.9673 0.437548 13.9667 0.437495 13.9662C0.427686 13.8617 0.242808 14.0139 0.246501 13.8749C0.26833 12.9224 0.28435 11.9666 0.574258 10.9811C0.594178 10.9135 0.96348 10.8745 0.90179 10.7247C0.800888 10.7078 0.681409 10.7014 0.573158 10.6903C0.599976 9.23134 0.817279 7.92355 0.949196 6.47645C0.954687 6.41608 0.752939 6.50548 0.7626 6.38845C0.817399 5.72288 0.822547 5.00707 1.07028 4.38383C1.09485 4.31911 1.43219 4.38277 1.39778 4.18279C1.39134 4.1476 1.37198 3.8484 1.305 3.76508C1.29479 3.75367 1.13113 3.79361 1.13503 3.69768C1.16046 3.14036 1.25114 2.55618 1.40229 2.00108C1.427 1.91151 1.58671 2.02475 1.60578 1.96112C1.73968 1.50992 1.66111 0.992805 1.85981 0.562037C1.99347 0.273753 2.27426 0.41412 2.57794 0.284824C2.62077 0.266575 2.6463 0.081924 2.81453 0.0896068C3.23754 0.108586 3.68871 0.24573 4.1407 0.255315C4.238 0.257624 4.1597 -0.000417289 4.37778 0.170177C4.39231 0.182073 4.45122 0.369037 4.52587 0.421093C4.57744 0.457331 4.75317 0.419693 4.8168 0.489307C4.88037 0.558857 4.73078 0.612783 4.80256 0.724381C4.8754 0.835915 5.07344 0.810432 5.07559 1.018ZM14.3408 51.998C14.1751 51.8265 14.1115 52.4219 14.3163 52.289C14.3262 52.2818 14.3496 52.0064 14.3408 51.998ZM31.447 42.5621C31.1133 42.5186 31.2803 42.8961 31.5279 42.9404C31.7762 42.9835 31.5488 42.5746 31.447 42.5621ZM32.8735 40.8601C32.5571 40.8872 33.1348 41.5097 33.1954 41.2014C33.199 41.1838 32.892 40.8583 32.8735 40.8601ZM2.58544 1.02679C2.59356 1.02535 2.61451 0.894042 2.607 0.890071C2.42502 0.800691 2.38324 1.06349 2.58544 1.02679ZM34.2064 39.145C34.0691 39.1247 34.0141 39.3789 34.1845 39.405C34.3217 39.4259 34.3774 39.1701 34.2064 39.145ZM7.28883 47.2938C7.29443 47.2865 7.24507 47.2051 7.20538 47.2361C7.0776 47.3366 7.19368 47.4177 7.28883 47.2938ZM36.6545 36.3734C36.2672 36.7758 35.5211 36.5654 35.9719 36.1651C36.0537 36.092 35.9882 36.4884 36.1263 36.4249C36.3794 36.3076 36.1552 35.8932 36.5037 35.8478C36.5674 35.8397 36.6779 36.3515 36.6546 36.3748C36.6545 36.3744 36.6545 36.3739 36.6545 36.3734ZM14.2777 51.2756C14.2748 51.2678 14.1448 51.2524 14.1412 51.2598C14.056 51.4448 14.3238 51.4766 14.2777 51.2756ZM5.13647 42.3259C5.14963 42.3141 5.06413 42.0315 5.04648 42.027C4.70079 41.9846 4.87519 42.5638 5.13647 42.3259ZM22.2851 48.4465C22.3143 48.2088 22.4455 48.1048 22.6581 48.2569C22.5403 48.3128 22.415 48.3847 22.2851 48.4465Z" fill="black"/>
</svg>
