<svg width="53" height="58" viewBox="0 0 53 58" fill="none" xmlns="http://www.w3.org/2000/svg">
<path d="M14.1282 2.3601C15.0423 2.22884 16.2459 2.15448 17.2395 2.12443C17.3804 2.12006 17.5274 2.11561 17.6497 2.11377C17.9778 2.10733 17.8221 2.22815 18.0519 2.22821C18.5158 2.22687 18.9132 2.13811 19.3656 2.14592C19.5156 2.14902 19.346 2.33322 19.5032 2.33262C20.349 2.3296 21.1475 2.21373 22.0064 2.17152C22.0733 2.16823 22.1432 2.16465 22.2076 2.16153C23.8567 2.07963 25.4986 1.98267 27.14 1.87825C28.7765 1.77423 30.4213 1.66191 32.0727 1.55053C32.9289 1.49276 33.7785 1.43593 34.6472 1.37951C35.3818 1.33175 36.1941 1.31295 37.0088 1.28211C37.7788 1.25241 38.5376 1.21341 39.2364 1.13155C39.4097 1.11132 39.2956 0.971636 39.3278 0.957176C39.8281 0.735881 39.6498 1.04652 40.0095 1.06199C40.6168 1.09848 41.3534 1.08874 42.0108 1.09939C43.6012 4.3794 41.4781 3.27507 41.3917 4.11851C40.9523 4.48712 41.583 4.37412 41.0264 4.58978C40.9912 4.60229 41.0006 4.3995 40.8787 4.4701C40.6182 4.62019 40.0581 5.06232 39.8603 5.18763C39.449 5.45115 39.3801 5.50166 38.9708 5.78674C38.4692 6.13369 37.7364 6.54341 37.2085 6.94481C37.0919 7.03377 37.3429 7.05724 37.1642 7.21161C37.0323 7.3255 36.707 7.543 36.459 7.68849C36.3708 7.74028 36.2944 7.78169 36.2463 7.80212C36.055 7.88499 36.0571 7.73167 36.0108 7.7279C35.6294 7.69036 35.2121 8.37514 35.1353 8.43604C33.8013 9.49463 32.4771 10.1325 31.1336 11.0086C30.6359 11.3333 30.1197 11.6876 29.603 12.04C29.0969 12.3858 28.5889 12.7306 28.0967 13.0429C26.9437 13.7736 25.9067 14.3365 24.8007 15.0633C24.683 15.1404 24.9236 15.2102 24.7801 15.3047C24.1414 15.7249 23.5046 16.1346 22.8598 16.5345C21.962 17.0914 21.0466 17.6308 20.1195 18.1344C19.9582 18.222 20.068 17.9554 19.9015 18.0345C18.8848 18.5218 17.227 19.191 17.0552 20.156C16.7132 20.3566 16.3429 20.5749 15.9572 20.783C15.6135 20.968 15.2748 21.1334 14.9697 21.2463C14.5563 21.3992 14.8109 21.0225 14.4082 21.371C14.3168 21.4497 14.5347 21.4981 14.3873 21.6086C13.7603 22.0777 13.0531 22.4689 12.4553 22.9486C12.3336 23.0468 12.4458 23.1431 12.4225 23.1883C12.2219 23.562 11.5315 23.5992 11.4097 23.6479C10.4532 24.0421 9.88883 24.4918 9.08912 25.0032C9.07523 25.0121 9.06419 25.0204 9.05554 25.0282C8.94812 25.1255 9.21223 25.1493 9.05024 25.2604C8.17853 25.8566 7.19989 26.4736 6.26734 26.9876C6.05903 27.102 6.15137 26.8469 6.04751 26.8946C5.58945 27.1075 5.70231 27.3997 5.23682 27.6311C5.14401 27.6769 5.1149 27.5295 5.09085 27.5273C4.71443 27.4916 4.70941 27.9041 4.65698 27.9486C3.93129 28.5682 3.21978 28.6196 2.63662 29.1429C2.57734 29.2002 2.85514 29.1978 2.66217 29.368C2.62821 29.3987 2.60684 29.4188 2.617 29.4041C3.11063 27.3683 6.12328 28.2514 7.797 27.7414C8.09435 27.7113 7.90737 27.8778 7.92855 27.8906C8.27468 28.0879 8.41898 27.7167 8.51601 27.6865C9.30959 27.4521 10.0878 27.6005 10.5428 27.1051C10.6973 27.0834 10.8531 27.0605 11.0103 27.0367C14.1144 26.565 17.0868 25.8169 20.1867 25.5125C20.3165 25.4998 20.4467 25.4879 20.5772 25.4768C20.6202 25.4727 20.5766 25.6519 20.6622 25.6431C21.6933 25.5382 21.4596 25.3183 22.0606 24.8767C22.2123 24.7656 22.7968 25.0433 22.8477 25.062C23.0326 25.1317 22.9093 25.4099 22.9684 25.4188C23.4564 25.4844 23.2233 24.6899 23.8429 24.5685C23.8625 24.566 23.8102 24.7309 23.8651 24.7355C24.0359 24.7504 24.1849 24.6598 24.3535 24.68C24.7384 24.7278 24.9417 25.0963 25.4474 24.7596C25.5113 24.7163 25.3148 24.2782 25.8704 24.1919C26.0917 24.1579 27.0645 23.959 27.3435 23.9352C27.622 23.9114 27.4638 24.096 27.4845 24.0986C28.2575 24.1501 27.9948 24.2858 28.4195 24.5032C28.8438 24.7195 28.607 24.0516 28.7418 23.9454C28.834 23.8731 29.1282 23.8761 29.3512 23.895C29.4551 23.9038 29.5435 23.916 29.589 23.9256C29.7318 23.9559 29.5858 24.0821 29.7092 24.0909C30.5274 24.146 29.9843 23.6824 30.22 23.5229C30.7781 23.1451 31.3504 23.5628 31.9129 23.5047C32.065 23.489 31.9203 23.3966 32.0512 23.3597C32.568 23.2156 32.9174 23.3126 33.4965 23.048C33.5911 23.0049 34.0197 22.6028 34.3772 22.7669C34.428 22.7907 34.3265 22.9425 34.5566 22.9272C34.9037 22.904 35.4969 22.8175 35.8657 22.7019C36.13 22.618 35.7797 22.4685 36.1322 22.4677C36.2885 22.4675 36.033 22.6442 36.3247 22.6338C36.6156 22.6234 37.327 22.4802 37.5934 22.4245C37.8601 22.3685 37.6829 22.2378 37.7025 22.2229C37.8148 22.1376 38.3311 21.9586 38.3785 21.9497C38.402 21.945 38.4254 21.9404 38.4488 21.9357C40.7134 21.4865 42.9322 21.3365 45.1391 20.8433C45.3234 20.8028 45.1693 20.6573 45.1971 20.6494C45.813 20.465 45.4005 21.0011 45.8608 21.0724C45.7363 20.7428 46.0058 20.7577 46.4182 20.6456C46.6159 20.5916 46.4829 20.479 46.4989 20.4622C46.7573 20.2093 47.01 20.4322 47.0857 20.4736C47.3193 20.6209 47.4986 20.3935 47.6539 20.4511C47.6644 20.455 47.6749 20.4603 47.6853 20.4671C47.8468 20.5726 47.5608 20.8195 47.9729 20.7461C48.0665 20.6042 47.7084 20.3367 48.0095 20.2318C49.2053 19.8304 51.3257 19.7214 52.4354 19.699C53.5508 21.218 51.9006 20.6511 51.7173 20.9772C50.7813 21.2063 51.054 21.3647 50.5783 21.6316C50.0458 21.9118 50.1453 21.2613 50.0279 21.1645C49.9083 21.0682 49.8538 21.2217 49.7251 21.1876C49.5963 21.1536 49.8075 20.9993 49.5429 21.0519C49.413 21.0778 49.1853 21.1955 48.9647 21.331C48.7658 21.4633 48.5929 21.6135 48.5678 21.6925C48.465 22.0204 48.8531 22.2061 48.1749 22.3139C48.1358 22.3201 48.2103 22.1323 48.0629 22.1637C46.8935 22.4188 45.7323 22.8485 44.5944 23.2215C44.4377 23.2727 44.5054 23.0552 44.4132 23.0834C43.4525 23.3846 43.8976 23.509 43.5412 24.0288C43.4719 23.5867 43.0809 23.4705 42.3936 23.806C41.9828 24.0089 42.1383 24.1425 41.9378 24.3942C41.8786 24.4693 41.533 24.5042 41.5221 24.6107C41.4889 24.9578 41.9051 25.0986 41.1659 25.3547C41.1332 25.3657 41.1513 25.1746 41.0438 25.2229C40.8308 25.3188 40.6905 25.4158 40.5786 25.5157C40.3273 25.7419 40.2151 25.9827 39.7444 26.2982C39.2151 26.6501 38.1605 27.1165 37.5482 27.5168C37.281 27.1101 36.7803 27.6042 36.753 28.0446C36.362 28.3187 35.9723 28.6462 35.5901 28.8973C35.4565 28.9857 35.4489 28.8108 35.4238 28.8117C35.0322 28.824 35.0808 29.2092 35.0114 29.2845C34.3747 29.9617 33.6758 30.3915 33.1384 31.0559C33.0393 31.1792 32.9401 31.3169 32.8507 31.4643C32.8305 31.4981 33.0309 31.774 32.6594 31.8092C32.6342 31.8114 32.7626 31.4508 32.4128 31.8061C32.0702 32.152 31.302 32.7552 31.0029 33.3946C30.9305 33.5464 30.8908 34.046 30.5208 34.1942C30.4708 34.2139 30.4215 34.117 30.3396 34.1387C30.0758 34.2124 30.2887 34.5012 29.9111 34.5409C29.5398 34.5724 29.045 34.9172 28.8608 35.6316C28.8543 35.6545 29.0043 35.933 28.896 36.1202C28.7156 36.4294 28.4358 36.8534 28.2844 37.1864C28.2118 37.3456 28.4112 37.3138 28.4012 37.3427C28.2283 37.8171 28.0572 38.232 27.8903 38.6324C27.6673 39.1732 27.4363 39.7169 27.2549 40.4181C27.1912 40.6525 27.3099 41.3296 27.0973 41.7579C26.8728 42.2415 26.0507 41.6641 26.2344 42.8898C26.3263 43.4112 27.3939 43.8758 27.021 44.7648C27.3252 45.8091 27.6107 46.8165 28.1072 47.7445C28.3636 48.22 28.6444 48.6298 29.0248 49.0345C29.0749 49.0882 29.4536 49.1033 29.5491 49.2266C29.6966 49.4184 29.6819 49.6098 29.7937 49.7507C30.2804 50.3604 30.8354 50.7295 31.3865 51.2216C31.5962 51.4053 31.4383 51.4585 31.6875 51.6689C31.9357 51.8745 32.216 51.8568 32.5276 52.1901C32.7571 52.4372 32.8612 52.9658 33.1999 53.2323C33.4156 52.9253 33.6614 53.0949 34.1893 53.2881C34.2909 53.3248 34.2574 53.1551 34.3088 53.1666C34.5182 53.2102 34.632 53.3976 34.8413 53.4288C34.8917 53.4364 34.9558 53.3259 34.9989 53.3247C35.1294 53.3178 35.2536 53.3777 35.3639 53.4611C35.5568 53.6074 35.7091 53.8267 35.747 53.881C35.9763 54.2065 36.2001 54.1287 36.4175 54.3125C36.6379 54.4964 36.2214 54.4076 36.4981 54.5847C37.0572 54.9443 37.8148 55.2377 38.4602 55.4887C38.7158 55.5873 38.6011 55.3616 38.6391 55.372C39.1816 55.5308 39.6098 55.8709 40.0122 55.6484C40.0949 56.6006 40.346 55.6741 41.0528 56.0799C41.1089 56.112 41.0652 56.5331 40.8122 56.5185C40.559 56.5036 40.2487 56.268 39.9059 56.253C39.8246 56.25 39.2759 56.4729 39.2107 56.4742C38.7001 56.4891 38.8539 55.8824 38.8424 55.8425C38.6945 55.3981 38.0205 55.5869 37.8743 55.5587C37.1932 55.4297 36.7542 55.1451 36.1849 54.9879C35.8195 54.8857 35.6119 55.2361 35.3526 55.0963C35.0879 54.9525 34.9062 54.7889 34.7516 54.6333C34.4273 54.2952 34.1588 53.9622 33.4499 53.9356C33.2306 53.9241 33.1568 54.406 32.7494 53.7374C32.7279 53.6988 32.4621 53.1455 32.0911 53.1303C32.0445 53.1289 31.9713 53.2356 31.9227 53.2147C31.5992 53.0719 31.4767 52.8539 31.1579 52.6699C30.8566 52.4996 30.4207 52.2366 30.1345 51.9198C29.9555 51.7253 29.8848 51.3248 29.8423 51.1999C29.7217 50.8462 29.2487 50.7515 29.2582 50.4536C29.2711 50.1568 29.7739 50.2522 29.5167 49.7564C29.2488 49.9606 28.9557 50.1489 28.6753 50.3411C28.1349 49.6909 27.6806 48.9581 27.2917 48.1967C27.0929 47.8078 26.9174 47.4266 26.7437 47.0239C26.6794 46.8735 26.5757 47.0977 26.5026 46.9359C26.2001 46.2476 26.14 45.5945 25.9425 44.8503C25.7908 44.2794 25.5274 43.6409 25.4635 43.0043C25.8304 42.6125 25.7275 41.7034 25.8587 41.0499C25.9022 40.8237 26.0023 40.8541 26.0606 40.6995C26.2879 40.1196 25.906 40.3387 25.8847 40.1607C25.8192 39.3864 26.5758 39.5192 26.7983 38.7265C26.8064 38.6987 26.7122 38.4087 26.6521 38.1938C26.6213 38.0829 26.599 37.9904 26.5997 37.9636C26.6122 37.4585 26.76 37.9399 26.8951 37.6746C27.1494 37.1883 27.3856 36.8939 27.5541 36.2823C27.6006 36.107 27.5856 35.5817 27.9324 35.3726C27.9777 35.3452 28.0831 35.4342 28.1082 35.4061C28.5566 34.8953 28.2067 34.6621 28.2956 34.2488C28.3898 33.8293 28.9693 33.5096 29.1103 33.4599C29.4725 33.3292 29.0463 33.7114 29.0557 33.7384C29.1537 34.0477 29.3581 33.6703 29.5707 33.4173C29.9354 33.624 30.1869 33.2462 29.7909 33.1546C29.7466 33.1454 29.6245 33.3751 29.5707 33.4173C29.4102 32.9408 29.6831 32.4901 30.3301 32.3036C30.6357 32.2171 30.6336 32.5373 31.0866 31.8892C31.2942 31.599 30.9862 31.5135 31.1376 31.2266C31.3573 30.8121 31.7904 30.4513 32.2002 30.1174C32.4335 29.9271 32.6631 29.7406 32.8493 29.5433C33.0355 29.3469 32.7356 29.4127 32.86 29.2742C33.1967 28.9018 33.5907 28.7081 33.9238 28.342C33.954 28.3087 33.7637 28.2546 33.8791 28.1531C34.7635 27.3766 35.6191 26.8472 36.6092 26.1503C37.0817 25.8145 37.9107 25.1561 38.4313 24.8577C38.8458 24.6159 39.3423 24.3869 39.8146 24.1786C40.3744 23.9304 40.928 23.6952 41.3405 23.4462C41.8379 23.1486 41.6516 23.0604 41.8248 22.8476C42.1607 22.4341 43.1126 22.4212 43.2379 22.4326C43.2411 22.4326 42.8039 22.6774 43.0812 22.6425C43.2949 22.7381 43.2328 22.4358 43.2379 22.4326C43.3208 22.4342 44.2549 22.0643 44.4297 21.961C44.5236 21.9031 44.4087 21.7819 44.459 21.7544C45.6556 21.1052 46.9226 20.6061 48.2273 20.2825C48.2508 20.2786 48.2672 20.4563 48.3219 20.4451C48.4487 20.4198 48.566 20.3896 48.676 20.3556C49.2965 20.1644 49.6557 19.8809 50.0664 19.6414C50.6448 19.3273 51.1184 19.2117 51.4916 19.395C51.9132 17.4523 52.5545 22.874 52.4283 21.1404C52.0542 21.0825 52.0763 21.4289 52.0371 21.4378C51.0702 21.7603 50.3832 21.6762 49.3192 21.8161C48.9113 21.873 48.4596 21.9667 47.9355 22.0812C47.6663 22.1406 47.3962 22.2026 47.1957 22.2512C46.779 22.3551 46.5012 22.3238 46.0968 22.4483C46.0419 22.4652 46.1255 22.604 46.1094 22.6128C45.6754 22.8753 45.8329 22.4707 45.7245 22.4231C45.3188 22.2524 45.0912 22.1636 44.5391 22.3801C44.4111 22.43 44.1152 23.0267 43.8694 23.1041C43.5493 23.2038 43.6388 22.9928 43.3002 23.1031C43.2734 23.112 43.2925 23.2283 43.0895 23.261C42.1718 23.4097 41.0346 23.5554 40.0756 23.7508C39.9404 23.7778 40.1492 23.9282 39.9542 23.9703C39.6106 24.0445 39.2496 24.1181 38.8814 24.1862C38.2555 24.3022 37.6767 24.3903 37.0951 24.4471C36.8685 24.4684 36.983 24.3129 36.9274 24.2841C36.5863 24.1106 36.2265 24.5285 36.1574 24.5485C34.5504 25.0278 33.1981 24.9769 31.5573 25.448C31.4675 25.4744 30.8299 25.9725 30.4522 25.7264C30.4259 25.7102 30.0542 25.4555 29.8212 25.7251C29.8076 25.741 30.0067 25.8521 29.7454 25.9066C29.7291 25.91 29.711 25.9132 29.6909 25.9161C29.3494 25.9659 28.8253 26.1812 28.324 26.0942C28.1654 26.067 27.7548 25.8208 27.3634 26.1579C27.3381 26.1811 26.7692 26.8815 26.45 26.5378C26.3982 26.481 26.3579 26.059 25.8747 26.3741C25.7825 26.4349 25.9825 26.4916 25.7298 26.601C25.3423 26.7692 24.7875 26.7627 24.3207 27.0455C24.2399 27.0952 23.9237 27.4489 23.5855 27.2935C23.5325 27.2692 23.5937 27.1137 23.4341 27.1288C22.6763 27.1998 21.9194 27.4435 21.1356 27.4967C20.8605 27.5153 20.9541 27.2651 20.6632 27.2595C20.6225 27.2587 20.5764 27.259 20.5264 27.2606C20.2182 27.2704 19.7645 27.3269 19.5338 27.4628C19.2631 27.6212 19.6522 27.9156 19.2137 28.0301C17.3279 28.5234 15.397 28.6771 13.4789 29.0059C13.1943 29.0546 13.4522 29.1384 13.0373 29.2186C12.5893 29.3053 12.0796 29.4129 11.4706 29.5346C10.1024 29.8103 8.44553 30.1103 7.46363 30.0788C6.34077 30.0451 7.67195 29.6491 6.83562 29.6992C6.44362 29.7217 6.10331 30.2045 5.98226 30.2373C5.05604 30.5216 4.34133 30.4427 3.48302 30.6019C3.25347 30.6395 3.49775 30.7847 3.29941 30.8144C2.86998 29.9937 2.08291 33.3942 0.562314 28.0341C0.703717 27.8115 0.856261 27.6714 0.999427 27.5422C1.19979 27.3644 1.0721 27.3008 1.30395 27.1325C1.79285 26.7873 2.28812 26.5115 2.68925 26.3824C2.73103 26.3671 2.58432 26.6658 2.88392 26.4664C3.41929 26.1096 4.02475 25.8491 4.53821 25.3587C4.67759 25.2213 4.51521 24.9705 4.98692 24.9063C5.08808 24.8914 5.18211 25.2583 5.44492 24.715C5.48827 24.6247 5.92656 23.8384 6.43367 23.83C6.56425 23.8295 6.96818 23.9168 7.12799 23.7582C7.1503 23.7349 6.95763 23.6688 7.10983 23.5514C7.32322 23.3883 7.55152 23.2287 7.78775 23.0672C8.1619 22.8118 8.50414 22.5842 8.84859 22.3263C9.00024 22.2123 8.67318 22.2255 8.9026 22.0598C9.55949 21.5872 10.3618 21.1226 11.0477 20.7451C11.2985 20.6076 11.2065 20.8298 11.232 20.8312C11.6512 20.8517 11.6225 20.4802 11.7059 20.4041C12.2056 19.9484 12.7306 19.7959 13.2382 19.4234C13.3752 19.323 13.1896 19.2557 13.2106 19.2258C13.4329 18.922 13.3638 19.2997 13.568 19.2061C13.9074 19.0511 14.252 18.851 14.5883 18.6376C14.8201 18.4904 15.049 18.3362 15.2591 18.1925C15.4506 18.0613 15.133 18.0485 15.3062 17.9325C16.3363 17.2383 17.4327 16.5599 18.5115 15.9903C18.7153 15.8831 18.6688 16.0786 18.7263 16.0798C19.1228 16.0919 19.3621 15.5776 19.4398 15.4935C19.7917 15.1117 20.023 15.1107 20.3851 14.852C20.6949 14.6303 21.0191 14.4064 21.3549 14.1807C22.9368 13.1176 24.7548 12.0267 26.1917 11.1502C26.9135 10.7096 27.5913 10.3042 28.2307 9.92183C29.6454 9.07387 30.94 8.2959 32.3761 7.32103C32.5103 7.23008 32.2715 7.16477 32.3857 7.0845C33.2006 6.5162 34.0961 5.93602 34.9133 5.39254C35.5812 4.94774 36.1482 4.56276 36.8031 4.0827C36.9204 3.99666 36.6483 3.97048 36.8322 3.82811C37.1774 3.55688 37.7341 3.17846 38.1346 2.9608C38.3332 2.85202 38.1766 3.15029 38.374 3.03862C38.8831 2.74246 39.3101 2.44588 39.7617 2.06107C39.9351 1.91023 39.5541 1.97889 39.783 1.79715C40.7899 2.30765 39.2308 -1.44439 42.0108 3.90991C40.6914 3.94624 39.1006 4.04562 37.5674 3.99562C37.4663 3.9927 37.3487 3.83269 37.2034 3.75537C37.1303 3.71766 37.0456 3.70017 36.9436 3.73143C36.9279 3.83471 36.9386 3.95388 36.9368 4.06308C35.3982 4.21406 33.8557 4.32749 32.3192 4.43285C30.7134 4.5431 29.0981 4.64629 27.4824 4.77953C27.3659 4.78918 27.5396 4.92193 27.4144 4.97061C27.3961 4.97776 27.3713 4.98309 27.3382 4.98596C25.8425 5.11591 24.3933 5.30015 22.8461 5.24662C22.7155 5.24224 22.7303 4.98725 22.4628 4.97131C22.4185 4.96856 22.3637 4.97281 22.2991 4.98616C22.2184 5.00294 21.5463 5.10984 21.383 5.19923C21.3607 5.21249 21.4964 5.36024 21.2826 5.3844C20.0679 5.51862 18.7908 5.60279 17.563 5.62623C17.5159 5.62718 17.4692 5.62803 17.4228 5.62876C17.2174 5.63165 17.4186 5.44251 17.2726 5.44307C16.2244 5.44945 15.1583 5.67816 14.134 5.61903C13.503 5.57377 13.6628 5.26402 13.311 5.00678C13.2788 4.96884 12.834 5.00412 12.8183 4.83675C12.7316 4.42032 12.8698 3.94242 12.7541 3.50073C12.7032 3.408 12.2026 3.56015 12.493 3.29722C12.4977 3.281 12.8877 3.16616 12.9927 3.07642C13.0619 3.01468 12.9191 2.85636 13.0505 2.77331C13.1633 2.69207 13.3433 2.81914 13.5678 2.71505C13.7793 2.61116 13.6563 2.42729 14.1282 2.3601ZM50.728 20.9735C50.3269 20.8673 50.3581 21.4676 50.7456 21.2658C50.7637 21.2554 50.7481 20.9787 50.728 20.9735ZM27.7197 47.9696C27.7196 47.9663 27.7195 47.9629 27.7194 47.9596C27.7054 47.4068 27.2247 47.2716 27.1964 47.6804C27.1852 47.9272 27.3755 48.0498 27.5278 48.0658C27.6336 48.0775 27.7218 48.0406 27.7197 47.9696ZM31.1686 51.7241C30.8649 51.1945 30.2305 51.7652 30.8295 52.0517C30.8648 52.0685 31.1874 51.7553 31.1686 51.7241ZM14.926 4.77325C14.9177 4.76604 14.6175 4.78625 14.6137 4.79451C14.4716 4.99856 15.0696 4.95824 14.926 4.77325ZM35.4389 54.215C35.3801 54.1127 35.1952 54.0344 35.0691 54.0256C34.9729 54.0189 34.9096 54.0531 34.9622 54.1505C34.9685 54.1622 34.9766 54.1736 34.986 54.1846C35.1221 54.3454 35.5603 54.4253 35.4389 54.215ZM31.9838 23.7883C31.9765 23.7807 31.7688 23.8131 31.7826 23.8618C31.8278 24.0183 32.1059 23.9172 31.9838 23.7883ZM43.2821 57.04C42.0747 56.692 41.5928 55.8161 42.8292 56.2449C43.0572 56.3219 42.2716 56.3244 42.5493 56.4658C43.062 56.7249 43.5378 56.3938 44.0571 56.7638C44.1514 56.8322 43.3498 57.0623 43.2797 57.0404C43.2805 57.0402 43.2813 57.0401 43.2821 57.04ZM50.4058 20.2946C50.4006 20.2871 50.0707 20.3294 50.0874 20.335C49.9473 20.5482 50.5616 20.4707 50.4058 20.2946ZM19.8445 25.7858C19.8249 25.7724 19.1647 25.8844 19.1471 25.9036C18.8631 26.275 20.1976 26.0497 19.8445 25.7858ZM37.5314 27.5128C37.3862 27.8487 37.1011 28.0843 36.7543 28.0439C37.0156 27.865 37.2694 27.6834 37.5314 27.5128Z" fill="black"/>
</svg>
