<svg width="56" height="59" viewBox="0 0 56 59" fill="none" xmlns="http://www.w3.org/2000/svg">
<path d="M1.34465 13.9808C1.64814 13.9009 2.05719 13.9197 2.37115 13.9679C2.46952 13.9828 2.4304 14.0928 2.49873 14.1078C2.63238 14.1371 2.74871 14.0743 2.88154 14.1115C2.92561 14.1244 2.88785 14.2964 2.93371 14.3061C3.18491 14.3578 3.41232 14.2941 3.66321 14.3072C4.89904 14.3717 6.10387 14.3254 7.34561 14.2894C7.75503 14.2774 8.26377 14.3841 8.67828 14.2795C8.72665 14.2672 8.68404 14.123 8.69228 14.1101C8.82194 13.9116 8.80017 14.2123 8.8994 14.243C9.29318 14.364 9.71657 14.3391 10.0768 14.2492C10.079 14.2487 10.0811 14.2481 10.0831 14.2474C10.2249 14.2028 10.0501 13.9353 10.219 14.0826C10.2309 14.0927 10.2056 14.2521 10.2498 14.2649C10.3498 14.2935 10.5307 14.249 10.6067 14.2545C10.7534 14.266 10.7771 14.2622 10.9139 14.2516C11.1009 14.2384 11.33 14.2957 11.5271 14.2422C11.5691 14.2303 11.498 14.0756 11.5637 14.0422C11.6295 14.0089 11.8113 14.006 11.8756 14.0381C11.9399 14.0703 11.9254 14.1983 11.9388 14.2261C12.0495 14.461 12.2278 14.1055 12.2539 14.0947C12.731 13.9084 13.1686 14.0619 13.6284 14.0195C13.9775 13.9869 14.3451 13.8897 14.6781 13.8682C15.0749 13.8432 15.4182 13.8993 15.8014 13.8494C15.8418 13.8444 15.7772 13.6608 15.8266 13.6542C16.3512 13.5845 16.8759 13.5574 17.4118 13.6366C17.4655 13.6447 17.4127 13.8158 17.4673 13.8338C17.8013 13.9401 18.3398 14.2195 18.4655 13.4839C18.6859 13.4922 18.9531 13.4971 19.1611 13.6242C19.2759 13.6941 19.2151 13.8439 19.2875 13.8289C19.2997 13.8263 19.3157 13.8191 19.337 13.806C19.3702 13.7858 19.3106 13.6325 19.3616 13.614C19.5762 13.5364 19.821 13.5657 20.0311 13.4647C20.0738 13.4437 20.0489 13.3038 20.0591 13.2773C20.1458 13.062 20.352 13.3861 20.3925 13.4073C20.7003 13.565 20.9063 13.4732 21.1779 13.4531C21.2409 13.4485 21.1493 13.2658 21.2093 13.2546C21.5209 13.1989 21.8477 13.1856 22.1629 13.2417C22.233 13.2546 22.1848 13.4217 22.219 13.4361C22.37 13.4978 22.3742 13.1902 22.5184 13.2434C22.5488 13.2543 22.5449 13.3939 22.5516 13.4086C22.6564 13.6392 22.6981 13.2952 22.7188 13.2858C22.9802 13.1594 23.1852 13.4959 23.4422 13.4223C23.4729 13.4131 23.3865 13.2447 23.4737 13.2297C24.0552 13.1281 24.6791 13.1198 25.2717 13.2069C25.3638 13.2202 25.3114 13.3574 25.3185 13.373C25.434 13.6175 25.463 13.2732 25.4913 13.2578C25.7148 13.1449 25.9573 13.4093 26.0782 12.9914C26.8765 13.0322 27.6505 12.8371 28.4454 12.8994C28.6412 12.9148 28.8382 12.9457 29.0371 12.9997C29.0499 13.0027 29.0429 13.1716 29.0683 13.177C29.3743 13.2437 29.2936 12.9895 29.4616 12.6544C29.504 12.5702 29.6896 12.9395 29.7056 12.9664C29.7636 13.0654 29.7357 13.3183 29.7538 13.3368C29.9029 13.4819 29.8063 12.6628 29.988 12.646C29.9938 12.6469 29.9837 12.8002 30.0003 12.8138C30.052 12.8567 30.0936 12.7924 30.1447 12.8402C30.2618 12.9509 30.3358 13.3464 30.4769 13.0995C30.4947 13.0675 30.421 12.6046 30.5853 12.6118C30.6508 12.6151 30.9365 12.5811 31.0195 12.604C31.1024 12.6268 31.061 12.7819 31.0673 12.7879C31.3014 12.9667 31.2269 13.0564 31.3619 13.3404C31.4967 13.6233 31.4032 12.9279 31.4403 12.8459C31.4774 12.7642 31.6506 12.9136 31.6947 12.9669C31.7388 13.0204 31.699 13.1201 31.7365 13.1492C31.985 13.3389 31.8057 12.7935 31.8712 12.6759C32.0255 12.3973 32.2113 12.9024 32.379 12.9383C32.4244 12.948 32.3777 12.8334 32.416 12.8188C32.5678 12.7625 32.6761 12.9155 32.8397 12.7513C32.8665 12.7245 32.9813 12.4002 33.0947 12.6203C33.1109 12.652 33.0853 12.7844 33.1543 12.8073C33.2573 12.8417 33.4384 12.8536 33.541 12.8008C33.6167 12.7618 33.5073 12.5574 33.6123 12.6144C33.6589 12.6399 33.5887 12.7717 33.6755 12.8092C33.7618 12.8467 33.9715 12.8222 34.0511 12.8106C34.1305 12.7989 34.0722 12.6416 34.0776 12.6302C34.111 12.5644 34.2572 12.4727 34.2707 12.4717C34.952 12.3899 35.6065 12.6045 36.2633 12.454C36.3149 12.4425 36.2647 12.2756 36.2724 12.2721C36.4446 12.1846 36.3448 12.6495 36.4834 12.7895C36.434 12.4461 36.5133 12.5018 36.6357 12.4526C36.6947 12.4285 36.6495 12.2979 36.6538 12.2837C36.7253 12.0726 36.8118 12.329 36.8328 12.3812C36.9102 12.5731 36.9539 12.3341 37.0064 12.4622C37.0588 12.5894 36.9832 12.7919 37.1037 12.7785C37.1263 12.6519 37.0074 12.3372 37.0942 12.2765C37.2291 12.1822 37.4217 12.1596 37.6211 12.1658C37.9064 12.1746 38.2058 12.2422 38.3708 12.2429C38.6506 12.2439 38.7381 12.213 38.9039 12.2429C39.2032 12.2971 39.0744 12.0673 39.2458 11.9412C39.4177 11.815 39.3829 12.4124 39.4205 12.5367C39.4577 12.661 39.4739 12.5281 39.5121 12.5948C39.5503 12.6615 39.4892 12.7539 39.5664 12.7733C39.6437 12.7926 39.8279 12.5487 39.8424 12.4138C39.873 12.128 39.7539 11.8419 39.9615 11.9274C39.9734 11.9325 39.9505 12.0908 39.9956 12.1025C40.3529 12.1903 40.7136 12.165 41.0693 12.239C41.1182 12.2494 41.0913 12.4257 41.12 12.4337C41.4185 12.5177 41.2889 12.2364 41.4177 11.8992C41.4213 12.3321 41.5326 12.587 41.7518 12.5697C41.8835 12.5594 41.8438 12.3738 41.9169 12.2338C41.9388 12.1916 42.0437 12.312 42.0525 12.2222C42.0819 11.9286 41.9648 11.6136 42.2023 11.7217C42.2127 11.7269 42.1955 11.8877 42.2306 11.8942C42.4575 11.9367 42.4565 11.6325 42.6923 11.5742C42.8771 11.5285 43.2272 11.6822 43.4433 11.6927C43.4827 12.1762 43.6742 12.0473 43.7257 11.7068C43.8654 11.7078 44.0133 11.6754 44.1513 11.7093C44.1988 11.7208 44.1813 11.8634 44.1885 11.878C44.2991 12.107 44.3298 11.7774 44.3586 11.762C44.6713 11.609 44.9576 11.8307 45.245 11.5625C45.2552 11.5529 45.2425 11.2157 45.3474 11.4532C45.3543 11.4696 45.266 11.6316 45.4126 11.6301C45.5591 11.6288 45.8497 11.7837 46.0375 11.6099C46.083 11.568 46.1818 11.2843 46.3004 11.4881C46.3162 11.5158 46.3105 11.6134 46.3345 11.6652C46.4117 11.8303 46.4145 11.488 46.5132 11.7696C46.5922 11.9951 46.7173 12.1696 46.8593 12.1185C46.8946 12.1058 46.9309 12.0792 46.9679 12.0359C46.9739 12.0295 46.9976 11.7563 47.0621 11.7548C47.165 11.7525 47.3152 11.7953 47.4218 11.7838C47.4728 11.7782 47.4249 11.6143 47.4335 11.6104C47.7687 11.4856 48.0269 11.6122 48.401 11.6433C48.4695 11.6494 48.6428 11.4041 48.7899 11.5722C48.9512 11.7562 48.8783 12.5891 49.1904 12.3639C49.3163 12.2737 49.3901 11.2186 49.6782 11.7356C50.1296 11.56 50.5835 11.7967 51.031 11.5638C51.0512 11.5535 51.0909 11.2573 51.1404 11.2568C51.214 11.2566 51.2663 11.3885 51.3192 11.3927C51.5413 11.4137 51.7305 11.2795 51.9426 11.2785C52.0231 11.2778 52.008 11.4205 52.104 11.4197C52.1999 11.4188 52.2467 11.2283 52.3839 11.3058C52.4875 11.3649 52.6193 11.7335 52.7527 11.7657C52.7238 11.3929 52.8134 11.3925 52.9624 11.2799C52.991 11.2581 52.9467 11.1314 52.9596 11.1144C53.012 11.0423 53.0759 11.1448 53.1248 11.0671C53.1367 11.0484 53.1258 10.9212 53.1348 10.8987C53.2117 10.7029 53.3923 10.9749 53.4234 11.0223C53.5424 11.2021 53.5749 11.0324 53.6598 11.0998C53.7445 11.1672 53.6364 11.2709 53.7316 11.3078C53.9288 11.3841 54.1694 11.3415 54.3617 11.3299C54.4383 11.3245 54.3707 11.1595 54.3813 11.1548C54.5355 11.0974 54.7119 11.2634 54.7688 10.9173C54.9579 11.7815 54.8565 10.8239 55.0984 10.9783C55.1175 10.9909 55.1778 11.4022 55.1149 11.4691C55.0521 11.5359 54.9367 11.4161 54.8504 11.5194C54.83 11.5436 54.7365 11.9427 54.7211 11.9677C54.6002 12.1636 54.5246 11.5476 54.5142 11.5144C54.3985 11.1557 54.2791 11.5873 54.2404 11.6199C54.063 11.7693 53.8941 11.697 53.7443 11.8057C53.6462 11.8761 53.6728 12.2817 53.5903 12.2767C53.3162 12.2603 53.1704 11.7045 52.96 12.2171C52.9149 12.3264 53.0094 12.7637 52.7819 12.4338C52.7676 12.413 52.5933 12.1081 52.5276 12.3169C52.5194 12.3433 52.5314 12.4721 52.5185 12.4842C52.4316 12.5627 52.3601 12.4657 52.263 12.5241C52.1659 12.5825 52.0504 12.6669 51.9305 12.6338C51.8582 12.614 51.7467 12.382 51.7079 12.3262C51.598 12.1655 51.522 12.4524 51.4448 12.2526C51.367 12.0518 51.454 11.7283 51.2871 11.6092C51.3118 11.9446 51.3299 12.2895 51.3513 12.6271C51.0111 12.6461 50.6675 12.5682 50.3285 12.6139C50.2865 12.6199 50.3461 12.796 50.3015 12.8071C50.1133 12.853 49.9349 12.7399 49.7417 12.809C49.5922 12.8631 49.4415 13.069 49.2857 13.1316C49.1531 12.7573 48.9272 12.909 48.7514 12.8897C48.6898 12.8831 48.6845 12.7804 48.6385 12.7509C48.465 12.6422 48.5718 12.9739 48.5322 13.0312C48.362 13.276 48.276 12.511 48.0527 12.5504C48.0409 12.5522 47.9323 12.974 47.9145 13.0013C47.8021 13.1788 47.8805 12.861 47.7979 12.8381C47.6472 12.7962 47.5371 12.7078 47.377 12.843C47.3304 12.883 47.2339 13.1485 47.1192 12.9603C47.1041 12.9357 47.0989 12.8 47.0879 12.7931C46.9994 12.7415 46.9573 12.7984 46.9295 12.8907C46.8951 13.0043 46.8824 13.1716 46.8311 13.2562C46.7381 13.4095 46.5477 13.1315 46.5067 13.0501C46.3996 12.8396 46.565 12.9507 46.5678 12.9288C46.6001 12.6687 46.4846 12.7235 46.3914 12.7103C46.3404 12.2954 46.215 12.332 46.2949 12.6982C46.3038 12.7382 46.3713 12.6929 46.3914 12.7103C46.3484 13.1257 46.2129 13.1908 46.0232 12.8234C45.9345 12.6512 45.9841 12.4365 45.7707 12.5328C45.6738 12.5763 45.7385 12.8593 45.6574 12.9454C45.472 13.1419 45.1857 12.8985 44.9817 12.9595C44.9077 12.9817 44.9954 13.1318 44.9453 13.1523C44.8124 13.2073 44.681 13.1006 44.5491 13.1734C44.5372 13.1802 44.5825 13.3416 44.54 13.3475C44.2178 13.3961 43.9262 13.3166 43.5877 13.3444C43.4242 13.3579 43.1403 13.475 42.9694 13.4722C42.6732 13.4683 42.2906 13.2624 42.0452 13.3432C41.8852 13.3951 41.936 13.5561 41.8761 13.6743C41.7606 13.9034 41.4861 13.5368 41.4484 13.4795C41.4472 13.4776 41.5844 13.4262 41.5017 13.3487C41.4421 13.1771 41.4499 13.4786 41.4484 13.4795C41.4237 13.4426 41.1394 13.4309 41.0864 13.4673C41.0576 13.4873 41.0888 13.6413 41.0735 13.6487C40.7104 13.8221 40.3376 13.8958 39.9499 13.8577C39.943 13.8552 39.9372 13.6803 39.921 13.6765C39.6934 13.6192 39.5714 13.8449 39.401 13.9878C39.2305 14.1307 39.0824 14.1015 38.9476 13.8126C38.8137 13.8626 38.6048 13.7485 38.4842 13.6787C38.3636 13.6088 38.3786 13.949 38.3692 13.9566C38.1555 14.1344 37.9923 14.0865 37.7922 14.0479C37.7194 14.0338 37.6417 14.021 37.5549 14.0208C37.4001 14.0198 37.1003 14.0966 36.9376 14.1487C36.809 14.1905 36.7228 14.1183 36.6064 14.1801C36.5907 14.1883 36.6209 14.3376 36.6164 14.3439C36.4979 14.5366 36.5292 14.162 36.4954 14.0987C36.3726 13.8685 36.2985 13.7466 36.1359 13.875C36.0984 13.9044 36.0305 14.4458 35.9607 14.4834C35.8697 14.5314 35.8881 14.3379 35.7934 14.393C35.7852 14.3975 35.7977 14.5147 35.7361 14.5151C35.4506 14.5184 35.1354 14.4782 34.8419 14.5167C34.8017 14.5216 34.8702 14.7031 34.8125 14.7131C34.5418 14.7599 34.2421 14.7802 33.9684 14.7172C33.901 14.7012 33.9302 14.5671 33.9125 14.5297C33.804 14.3034 33.7113 14.6549 33.6915 14.6632C33.2198 14.871 32.8194 14.5969 32.3367 14.7886C32.3105 14.7997 32.1359 15.1834 32.0147 14.8789C32.0065 14.8587 31.8857 14.5469 31.8245 14.7732C31.8207 14.7873 31.8928 14.9469 31.7915 14.9392C31.6903 14.9315 31.5397 15.0561 31.3862 14.8875C31.3376 14.8344 31.206 14.5245 31.0996 14.7908C31.0928 14.8093 30.9452 15.403 30.8378 15.0124C30.8203 14.9481 30.7942 14.5268 30.6592 14.7563C30.6335 14.8007 30.6956 14.8896 30.6232 14.9552C30.5122 15.0562 30.344 14.958 30.2145 15.1585C30.192 15.194 30.1092 15.4891 30.0022 15.2805C29.9855 15.2479 29.9987 15.1052 29.9512 15.0937C29.7253 15.0383 29.5044 15.153 29.2731 15.0762C29.1912 15.0492 29.2109 14.8188 29.1232 14.7655C29.0355 14.7122 28.8647 14.6688 28.7882 14.7803C28.7117 14.8918 28.8384 15.2447 28.7123 15.2853C28.6961 15.2905 28.6799 15.2954 28.6636 15.3001C28.1299 15.4524 27.5733 15.3008 27.0279 15.32C26.9446 15.3229 27.0251 15.446 26.9031 15.4596C26.4535 15.5101 25.6867 15.7021 25.2707 15.4628C24.9375 15.2712 25.3164 15.0678 25.0689 15C24.9496 14.9677 24.8628 15.3993 24.8361 15.4151C24.5759 15.5742 24.3697 15.4053 24.1298 15.4847C24.0802 15.5011 24.1454 15.6669 24.103 15.6791C23.9585 15.722 23.7969 15.66 23.6576 15.6867C23.5951 15.6991 23.6185 15.8281 23.5596 15.8233C23.4186 15.8135 23.2908 15.7699 23.1443 15.6603C23.1309 15.6503 23.1994 15.481 23.0961 15.4843C22.9289 15.4901 22.7115 15.3886 22.5315 15.5302C22.4781 15.5727 22.5029 15.8702 22.3622 15.676C22.3327 15.6355 22.3329 15.2755 22.2187 15.5969C22.1995 15.6503 21.9985 16.0881 21.8569 15.8306C21.8195 15.7628 21.7141 15.4778 21.6499 15.5299C21.6413 15.5381 21.693 15.6944 21.6378 15.7152C21.4431 15.7854 21.2326 15.7874 21.0323 15.856C20.9788 15.8747 21.0753 16.0325 20.9951 16.055C20.7747 16.1172 20.4909 16.1005 20.267 16.0687C20.1844 16.0567 20.2278 15.9147 20.2206 15.9004C20.104 15.6667 20.0778 15.9988 20.0481 16.0207C19.8633 16.1527 19.7006 16.0126 19.5243 16.0696C19.4757 16.0849 19.525 16.2376 19.5164 16.2524C19.5138 16.2567 19.5113 16.2606 19.5089 16.2641C19.4291 16.381 19.4752 16.1099 19.4095 16.0857C19.2197 16.0148 19.0181 16.0457 18.8361 16.0824C18.7692 16.0961 18.8616 16.27 18.8014 16.2802C18.4455 16.3439 18.071 16.3605 17.7118 16.2927C17.6442 16.2796 17.673 16.1366 17.6563 16.106C17.5414 15.8921 17.4302 16.2082 17.4009 16.2401C17.2677 16.3853 17.2001 16.2673 17.074 16.3019C16.458 16.4733 15.6772 16.462 15.0813 16.4654C14.3049 16.4706 13.695 16.3925 12.9634 16.4937C12.9169 16.4999 12.9808 16.6809 12.9409 16.6887C12.4253 16.7806 11.907 16.7547 11.3911 16.8555C11.3487 16.8635 11.4263 17.0335 11.3588 17.0521C11.2206 17.0916 11.0415 17.0983 10.8941 17.0552C10.8223 17.0344 10.9017 16.8753 10.8296 16.8575C10.6619 16.8158 10.4864 16.8192 10.322 16.8625C10.3216 16.8626 10.3212 16.8627 10.3209 16.8628C10.2533 16.8831 10.3751 17.0512 10.2834 17.0617C9.65564 17.1367 9.04035 17.2238 8.38321 17.0491C8.33816 17.0371 8.26672 16.6755 8.18038 16.754C8.18261 16.8559 8.19382 16.975 8.20061 17.0836C7.28973 17.2252 6.37139 17.1811 5.45085 17.245C5.41205 17.2478 5.49657 17.4351 5.42153 17.4414C4.98721 17.478 4.57058 17.5699 4.10911 17.418C4.06335 17.4032 4.05502 17.0609 3.92988 17.1242C3.90783 17.1357 3.71643 17.1988 3.67259 17.2773C3.66674 17.289 3.71685 17.4446 3.65427 17.4549C3.29032 17.5123 2.90333 17.511 2.529 17.4472C2.46856 17.4366 2.516 17.2617 2.47282 17.2527C2.16662 17.19 1.85413 17.3481 1.55538 17.2204C1.35536 17.1344 1.39936 16.8356 1.2719 16.5571C1.25389 16.5178 1.13526 16.5221 1.11393 16.3552C1.05999 15.9357 1.07526 15.4695 1.01101 15.0229C0.997263 14.9267 0.848638 15.0452 0.921003 14.8031C0.926121 14.7869 1.03369 14.6989 1.05472 14.6171C1.06939 14.5606 1.01849 14.3935 1.05222 14.3197C1.08595 14.246 1.14299 14.3848 1.20198 14.2963C1.26085 14.2069 1.21402 14.0158 1.34465 13.9808ZM37.9414 13.3669C37.8216 13.2138 37.8603 13.8109 37.9609 13.6581C37.9657 13.65 37.9475 13.3744 37.9414 13.3669ZM50.6286 12.1187C50.4675 11.8684 50.4087 12.2633 50.524 12.4574C50.6391 12.6513 50.6776 12.1945 50.6286 12.1187ZM52.0336 11.7975C51.8545 11.6049 51.906 12.452 52.0622 12.2656C52.0713 12.255 52.0441 11.8087 52.0336 11.7975ZM1.73422 16.4324C1.73205 16.4247 1.64649 16.4247 1.64518 16.4327C1.6172 16.626 1.78826 16.6259 1.73422 16.4324ZM53.4262 11.4603C53.3658 11.3506 53.2337 11.4956 53.3088 11.6321C53.3692 11.7418 53.5015 11.5968 53.4262 11.4603ZM32.4099 13.2287C32.4074 13.22 32.3458 13.2175 32.3516 13.2676C32.3704 13.4288 32.451 13.3755 32.4099 13.2287ZM55.8245 11.2325C55.4671 11.2329 55.1888 10.5546 55.582 10.5983C55.6531 10.6062 55.4515 10.8345 55.5462 10.8893C55.7194 10.9891 55.7877 10.5412 55.9752 10.7609C56.0092 10.8011 55.845 11.234 55.824 11.2335C55.8241 11.2332 55.8243 11.2328 55.8245 11.2325ZM37.8159 12.6568C37.8131 12.6492 37.7282 12.6493 37.7269 12.6573C37.6985 12.8506 37.8695 12.8503 37.8159 12.6568ZM28.8266 13.1831C28.8204 13.1667 28.6236 13.1688 28.6186 13.1848C28.5448 13.5034 28.9429 13.5001 28.8266 13.1831ZM43.4478 11.7053C43.5224 11.5067 43.6303 11.4743 43.7253 11.7066C43.6328 11.7022 43.5407 11.7087 43.4478 11.7053ZM35.96 1.08485C36.0006 1.70487 35.9287 2.54747 35.8404 3.15122C35.8128 3.34912 35.7087 3.24629 35.6849 3.38497C35.6382 3.6602 35.6859 3.88148 35.6314 4.14947C35.6129 4.23683 35.4472 4.12421 35.4316 4.21608C35.3472 4.72319 35.381 5.17105 35.3347 5.68747C35.332 5.71665 35.3293 5.74591 35.3266 5.77524C35.1523 7.69263 35.0441 9.59575 34.9411 11.5252C34.9132 12.0545 34.8862 12.558 34.8579 13.0887C34.8138 13.9113 34.6374 14.9178 34.6833 15.7682C34.6888 15.8681 34.8376 15.8122 34.8493 15.8315C35.0279 16.1338 34.7328 16.0275 34.6885 16.2211C34.6108 16.5614 34.5607 16.9183 34.5322 17.2764C34.4966 17.7246 34.495 18.1725 34.5159 18.5851C34.5323 18.9009 34.8332 18.5926 34.6607 18.9055C34.649 18.9273 34.4946 18.8433 34.4757 18.9292C34.433 19.1236 34.4511 19.4969 34.4347 19.649C34.4022 19.9416 34.4024 19.9901 34.3932 20.2666C34.3792 20.6423 34.289 21.0944 34.313 21.5013C34.3187 21.5882 34.4823 21.478 34.5057 21.6169C34.5291 21.7563 34.5052 22.1197 34.4638 22.2417C34.4224 22.3653 34.2979 22.3086 34.2683 22.3298C34.0193 22.5045 34.3447 22.9387 34.3515 22.9931C34.3531 23.0069 34.3546 23.0207 34.356 23.0345C34.4587 24.015 34.2461 24.8419 34.2167 25.7718C34.1953 26.4631 34.2325 27.248 34.2001 27.9114C34.1848 28.224 34.1589 28.5123 34.1321 28.7897C34.0883 29.2491 34.0413 29.6994 34.0313 30.1702C34.0292 30.2553 34.2218 30.1635 34.2196 30.2672C34.198 31.3224 34.1286 32.4136 33.9388 33.4755C33.9195 33.5823 33.7624 33.4335 33.7333 33.539C33.6564 33.7982 33.5285 34.225 33.4788 34.5367C33.4148 34.9901 33.3951 35.4143 33.7054 35.7621C33.5312 36.2791 33.2324 36.8508 32.8822 37.1518C32.6565 37.3441 32.6463 37.0191 32.5302 37.3455C32.5022 37.4189 32.6899 37.4222 32.6363 37.5272C32.5443 37.7051 32.4292 37.8718 32.3048 38.0342C32.1156 38.2813 31.9139 38.5076 31.7435 38.7504C31.686 38.8326 31.8047 38.9137 31.8026 38.9519C31.777 39.2718 31.2475 39.2861 31.1693 39.3179C30.5621 39.5885 30.2345 39.9072 29.7293 40.2138C29.6119 40.2834 29.849 40.3627 29.738 40.436C29.6945 40.4643 29.6504 40.4922 29.606 40.5197C29.0594 40.858 28.4486 41.1224 27.84 41.2679C27.6937 41.302 27.7654 41.1024 27.6932 41.1105C27.3789 41.1443 27.4119 41.4559 27.1015 41.483C27.0367 41.4884 27.0312 41.3452 27.0158 41.3339C26.7789 41.1554 26.7228 41.5207 26.6779 41.5402C26.4983 41.6222 26.3262 41.646 26.161 41.6457C25.8231 41.6445 25.5122 41.5478 25.1452 41.6231C25.078 41.6367 25.251 41.7949 25.0594 41.8221C24.2391 41.9354 23.354 41.9063 22.5078 41.6673C22.0416 41.5359 21.5924 41.3399 21.1945 41.0833C21.0216 40.9697 21.2137 40.9207 21.2088 40.9C21.1516 40.5837 20.8757 40.8112 20.8076 40.784C20.2945 40.5689 20.1416 40.0346 19.6034 40.0285C19.4998 39.8931 19.4003 39.7511 19.3086 39.6072C18.6018 38.5176 18.3072 37.1616 18.3432 36.0112C18.3443 35.2784 18.4309 34.535 18.6581 33.8123C18.6657 33.7869 18.8259 33.8537 18.8403 33.8033C19.0238 33.2061 18.7498 33.292 18.5199 32.8085C18.4693 32.6976 18.8211 32.5033 18.9216 32.4545C18.9336 32.4483 18.942 32.444 18.9456 32.4418C19.0708 32.37 19.2872 32.5315 19.3148 32.5041C19.5371 32.2794 18.7273 32.1059 18.8404 31.7277C18.8453 31.7166 18.9753 31.8098 18.9993 31.7833C19.0741 31.7017 19.0467 31.5902 19.1278 31.5131C19.3171 31.3346 19.7162 31.4026 19.6203 31.0103C19.6095 30.9586 19.1452 30.8496 19.3045 30.5316C19.3655 30.4021 19.6222 29.8485 19.7374 29.7083C19.8461 29.5706 19.9221 29.7471 19.9338 29.739C20.3289 29.4386 20.3166 29.6326 20.682 29.5928C20.9064 29.5722 20.7536 29.4462 20.6001 29.3215C20.5046 29.2444 20.4084 29.1689 20.4022 29.1228C20.386 28.9999 20.7068 28.8163 20.8007 28.7845C20.894 28.7513 20.9144 28.8886 20.9819 28.8491C21.4269 28.596 20.8235 28.4756 20.8292 28.2812C20.8522 27.817 21.4511 27.9133 21.7081 27.7068C21.7804 27.6485 21.6423 27.6236 21.6902 27.5555C21.8855 27.2861 22.1311 27.2685 22.3024 26.9071C22.3282 26.8493 22.349 26.4111 22.6504 26.4605C22.6864 26.4671 22.7082 26.576 22.7908 26.568C22.8054 26.5667 22.8219 26.5617 22.8408 26.5519C23.0281 26.453 23.3342 26.2548 23.4919 26.092C23.6073 25.9721 23.3307 25.9044 23.5394 25.8407C23.6318 25.8137 23.5624 26.0117 23.729 25.9535C23.8929 25.8947 24.2593 25.66 24.3992 25.5771C24.5402 25.4913 24.3822 25.3953 24.3882 25.3792C24.4278 25.2831 24.6766 25.0607 24.7028 25.0488C25.0523 24.8617 25.4084 24.7179 25.7755 24.5996C26.7488 24.2903 27.7227 24.1759 28.7331 24.0377C28.843 24.0237 28.7591 23.858 28.7756 23.8541C29.1556 23.7639 28.876 24.2304 29.1359 24.3743C29.1029 24.1204 29.1795 24.084 29.3283 24.0699C29.3818 24.0649 29.4443 24.0629 29.5144 24.0552C29.6418 24.0414 29.5788 23.9048 29.5908 23.8915C29.7999 23.6966 29.9219 23.9733 29.9478 24.0298C30.052 24.2386 30.2141 24.024 30.2845 24.1689C30.3469 24.312 30.1299 24.4736 30.3703 24.5113C30.4628 24.402 30.331 24.0484 30.5355 24.0327C31.2092 23.9355 32.415 24.6618 32.7746 25.2415C32.8325 25.3159 32.883 25.3896 32.9267 25.4558C33.2496 25.9974 33.3093 26.2319 33.3712 26.5665C33.4494 27.2131 33.6199 26.9088 33.8039 27.2874C33.9758 27.6796 33.3572 27.5561 33.2405 27.6328C33.1212 27.6986 33.258 27.735 33.1963 27.8061C33.1343 27.876 33.0326 27.7535 33.0236 27.9008C33.0156 28.0378 33.2768 28.4586 33.4103 28.4881C33.698 28.583 33.9839 28.3738 33.9013 28.7909C33.8962 28.8149 33.7374 28.745 33.7257 28.8364C33.6368 29.5582 33.6158 30.2967 33.4737 30.9949C33.4537 31.093 33.2855 30.9954 33.2719 31.0523C33.245 31.1656 33.2337 31.2416 33.2349 31.3031C33.2395 31.5703 33.4873 31.4974 33.731 31.7789C33.3056 31.6748 33.0316 31.8308 32.989 32.2758C32.9633 32.5339 33.1548 32.5077 33.27 32.6912C33.3048 32.7465 33.1563 32.9209 33.2406 32.9648C33.5157 33.1103 33.8596 32.9635 33.6773 33.4179C33.6687 33.4378 33.519 33.3537 33.5011 33.4237C33.3852 33.8569 33.6793 33.9478 33.6479 34.4445C33.6232 34.8352 33.338 35.4707 33.2327 35.9049C32.7562 35.815 32.7973 36.2302 33.0962 36.4547C33.0329 36.7286 32.9933 37.0407 32.8961 37.2961C32.8947 37.3 32.893 37.3035 32.8912 37.3068C32.8518 37.3769 32.736 37.2977 32.7196 37.3059C32.4514 37.4357 32.7463 37.6189 32.7467 37.6813C32.735 38.3597 32.3806 38.8239 32.4719 39.495C32.4752 39.5188 32.7951 39.6315 32.5163 39.7408C32.4973 39.7472 32.3964 39.5087 32.3161 39.7953C32.2365 40.0793 31.9278 40.5757 31.9744 41.0149C31.9857 41.1209 32.1865 41.4336 31.9273 41.5739C31.8922 41.5924 31.8066 41.5389 31.7446 41.5623C31.5465 41.6383 31.8571 41.7941 31.539 41.8598C31.2209 41.9249 30.9309 42.1611 31.0088 42.6092C31.0108 42.6232 31.2429 42.7922 31.2021 42.9159C31.1872 42.9606 31.1687 43.0089 31.1481 43.0593C31.078 43.2308 30.9843 43.426 30.9364 43.5865C30.9069 43.686 31.0866 43.6718 31.0842 43.6899C30.9675 44.3858 30.6722 44.8139 30.3693 45.5003C30.3138 45.6255 30.3998 46.0739 30.1398 46.2625C29.8547 46.4685 29.1836 45.9105 29.1395 46.5973C29.1209 46.8718 29.9764 47.5628 29.2933 47.8196C29.2233 48.1117 29.1155 48.3805 28.9948 48.6393C28.7312 49.2045 28.4085 49.7214 28.2554 50.3598C28.2453 50.4017 28.4519 50.6476 28.4052 50.7367C28.3355 50.8684 28.1775 50.8826 28.1236 50.9733C27.8977 51.3451 27.8124 51.7722 27.5985 52.1386C27.517 52.2781 27.4193 52.1624 27.322 52.3269C27.2256 52.4889 27.3231 52.6976 27.1164 52.8827C26.9591 53.0229 26.5332 53.004 26.366 53.2C26.6831 53.3977 26.5867 53.548 26.5008 53.8758C26.4845 53.9386 26.6302 53.9504 26.6281 53.9837C26.6255 54.0426 26.5963 54.0831 26.564 54.1206C26.5209 54.1705 26.4724 54.215 26.473 54.2917C26.4731 54.3243 26.58 54.394 26.586 54.4247C26.6404 54.6899 26.2283 54.7921 26.1538 54.8126C25.8788 54.8811 25.9608 55.0544 25.8079 55.1426C25.6558 55.2289 25.7151 54.9824 25.5722 55.1063C25.2832 55.3539 24.9975 55.768 24.7537 56.0579C24.6567 56.1746 24.854 56.2021 24.8433 56.2213C24.6795 56.4912 24.3211 56.6254 24.4556 56.9817C23.6566 56.5533 24.3953 57.1797 23.9391 57.3953C23.9023 57.412 23.5777 57.1501 23.6306 57.0101C23.6852 56.8681 23.9133 56.817 23.9705 56.6131C23.9852 56.5649 23.8616 56.1188 23.8648 56.0782C23.8989 55.7577 24.3979 56.1249 24.4331 56.1366C24.82 56.2485 24.6917 55.7384 24.7173 55.6575C24.8458 55.2778 25.1012 55.0761 25.2031 54.7671C25.2706 54.5641 24.9468 54.3174 25.0463 54.1934C25.2915 53.8843 25.6618 53.8946 25.7846 53.6329C25.827 53.5417 25.8372 53.4184 25.7963 53.2395C25.7618 53.0933 25.3301 52.9523 25.8217 52.808C25.8522 52.8001 26.2716 52.7155 26.1778 52.4705C26.1658 52.4399 26.0529 52.3767 26.0568 52.3477C26.0851 52.1544 26.2349 52.0971 26.2878 51.8967C26.3381 51.701 26.3841 51.4579 26.5274 51.2766C26.6135 51.1678 26.9088 51.119 26.9917 51.0856C27.2301 50.9907 27.0665 50.6919 27.3022 50.6783C27.5396 50.6633 27.7215 51.0088 27.9772 50.7875C27.6792 50.6312 27.3796 50.458 27.0825 50.2954C27.384 49.6939 27.7489 49.1464 28.001 48.5129C28.0316 48.4347 27.832 48.4429 27.86 48.3584C27.879 48.3014 27.9012 48.2469 27.9255 48.1941C28.0524 47.9177 28.2375 47.6848 28.3187 47.3617C28.3932 47.0625 28.3321 46.6877 28.3974 46.3746C28.8257 46.3287 28.8665 45.8372 29.012 45.5281C29.0633 45.419 29.1576 45.4605 29.2174 45.3908C29.4404 45.1262 29.0693 45.1583 29.0475 45.0575C28.953 44.6268 29.6932 44.8415 29.8159 44.4073C29.823 44.384 29.5221 43.9813 29.5096 43.9361C29.4278 43.6444 29.6584 43.9396 29.7354 43.7974C29.8755 43.5376 30.0292 43.3731 30.013 43.0114C30.01 42.9502 29.9494 42.8233 29.9462 42.7027C29.9439 42.6151 29.9718 42.5307 30.0744 42.4763C30.1063 42.4593 30.2326 42.5107 30.2459 42.4933C30.4764 42.1742 30.0686 42.0484 29.9873 41.806C29.9057 41.5645 30.2749 41.3297 30.374 41.2874C30.6311 41.1771 30.4297 41.4404 30.4478 41.4551C30.6654 41.6297 30.6863 41.3876 30.7543 41.2171C31.1648 41.3 31.2064 41.0455 30.8231 41.0399C30.7812 41.0397 30.7823 41.1867 30.7543 41.2171C30.4002 40.9553 30.4194 40.6786 30.8679 40.4709C31.0775 40.3744 31.2475 40.559 31.2806 40.1109C31.2951 39.908 30.9973 39.9143 30.9628 39.7252C30.8831 39.2971 31.2644 38.8416 31.3114 38.4303C31.3285 38.2809 31.1435 38.3894 31.1498 38.2863C31.1654 38.0149 31.3322 37.7979 31.3277 37.5187C31.3271 37.4933 31.1535 37.5193 31.1684 37.4359C31.1953 37.2807 31.2278 37.1325 31.2633 36.9877C31.373 36.5386 31.5145 36.1059 31.6 35.6161C31.6574 35.2909 31.6579 34.7047 31.7219 34.3844C31.8381 33.8013 32.1605 33.1436 32.1538 32.6318C32.1489 32.3095 31.9772 32.3644 31.8782 32.2198C31.6867 31.9376 32.1109 31.499 32.1746 31.4421C32.177 31.4396 32.1957 31.7168 32.2908 31.5765C32.4729 31.5037 32.1751 31.4451 32.1746 31.4421C32.1901 31.4279 32.2102 31.3442 32.2273 31.2404C32.2563 31.0687 32.2765 30.8125 32.2594 30.746C32.2449 30.6858 32.0874 30.7122 32.0827 30.6812C31.9735 29.9576 31.9375 29.2418 31.9628 28.5419C31.9652 28.5299 32.1407 28.5357 32.144 28.5073C32.189 28.0716 31.9487 27.8695 31.7705 27.571C31.5924 27.2893 31.5864 27.1105 31.8347 26.8956C31.7505 26.7501 31.8094 26.5239 31.7852 26.3369C31.7794 26.2628 31.7191 26.265 31.6579 26.2926C31.5718 26.3185 31.4867 26.3863 31.4781 26.383C30.9773 26.2433 31.1061 26.11 30.6254 25.8881C30.4294 25.8002 29.9542 25.7599 29.691 25.7838C29.5392 25.7936 29.4377 25.7563 29.3155 25.7519C29.2662 25.7502 29.2143 25.7543 29.1565 25.7701C29.1294 25.7775 29.16 25.9283 29.1519 25.9343C28.9448 26.1218 29.0325 25.7493 28.9839 25.6848C28.8053 25.4538 28.6692 25.3327 28.3822 25.4829C28.3114 25.5177 28.1922 26.075 28.0868 26.1271C27.9408 26.1956 27.9615 25.9963 27.8056 26.077C27.7928 26.0839 27.8193 26.1982 27.7204 26.216C27.3417 26.2863 26.9224 26.3664 26.5292 26.5098C26.4386 26.5428 26.348 26.5796 26.2613 26.6194C26.1987 26.6479 26.3535 26.7843 26.2656 26.828C25.8495 27.0352 25.4037 27.2683 24.9736 27.4412C24.8666 27.4838 24.8548 27.3357 24.8129 27.3165C24.5536 27.2038 24.5671 27.6115 24.5445 27.6361C24.3762 27.8129 24.212 27.951 24.0407 28.0818C23.6121 28.4109 23.1483 28.6776 22.8294 29.2162C22.801 29.2607 22.8698 29.7571 22.5286 29.6935C22.5066 29.6878 22.1501 29.6291 22.2488 29.8732C22.2558 29.8876 22.446 29.9027 22.337 30.0318C22.2814 30.0983 22.2396 30.2065 22.1765 30.3105C22.1163 30.4097 22.0363 30.5059 21.9032 30.5597C21.8184 30.5925 21.4461 30.5987 21.5693 30.9212C21.5739 30.9487 21.9516 31.4931 21.5418 31.4396C21.4748 31.4306 21.0932 31.2429 21.1876 31.5798C21.2073 31.6429 21.3287 31.593 21.3338 31.7384C21.344 31.9566 21.142 32.1854 21.2495 32.4764C21.2676 32.5296 21.4911 32.7806 21.2439 32.8662C21.205 32.8803 21.0802 32.8005 21.0447 32.8742C21.029 32.907 21.0154 32.9382 21.0028 32.9708C20.878 33.2926 20.8764 33.6716 20.7428 33.9882C20.6906 34.1173 20.4736 34.02 20.3947 34.1585C20.3151 34.2997 20.2289 34.5867 20.3229 34.7527C20.4169 34.915 20.7895 34.7599 20.8056 34.9931C20.8295 35.3082 20.832 35.6261 20.832 35.9688C20.8115 36.6958 20.8089 37.2207 20.9596 37.674C20.9969 37.7777 21.0821 37.6478 21.1458 37.7856C21.2021 37.9034 21.2895 38.0446 21.3846 38.166C21.6789 38.5631 22.146 38.8504 22.4516 39.1877C22.7946 39.5484 22.1933 39.5119 22.5069 39.7174C22.6724 39.8177 22.9667 39.4548 23.0061 39.4483C23.0062 39.4483 23.0062 39.4483 23.0063 39.4483C23.4228 39.4002 23.6944 39.6124 24.0975 39.5623C24.1787 39.5509 24.1004 39.3796 24.1681 39.3714C24.3993 39.3416 24.6493 39.4032 24.8793 39.364C24.9822 39.3457 24.9476 39.2182 25.0411 39.2163C25.2459 39.2097 25.4403 39.2242 25.6602 39.2816C25.681 39.2869 25.702 39.2926 25.7233 39.2987C25.7469 39.3049 25.6412 39.4944 25.8156 39.4622C26.0977 39.4089 26.4821 39.4272 26.762 39.1985C26.8445 39.1298 26.7454 38.8498 27.0138 38.9691C27.0694 38.9933 27.149 39.3491 27.266 38.9679C27.292 38.9037 27.4901 38.3628 27.7818 38.5154C27.8593 38.5563 28.1167 38.7549 28.2023 38.6563C28.2129 38.6422 28.0806 38.5314 28.1592 38.4711C28.2198 38.4251 28.2824 38.3807 28.3455 38.3371C28.5698 38.1819 28.8059 38.0328 29.0028 37.8444C29.0689 37.7801 28.8629 37.724 28.9625 37.6333C29.237 37.3838 29.6036 37.1256 29.8823 36.9139C29.9857 36.8357 30.0228 36.9946 30.0398 36.9986C30.3242 37.0546 30.1439 36.7626 30.1603 36.7153C30.2011 36.6077 30.2592 36.5274 30.322 36.4585C30.4355 36.3337 30.5727 36.2381 30.6454 36.0778C30.6759 36.0101 30.5157 35.9699 30.5118 35.9501C30.4726 35.7553 30.6547 35.9954 30.7302 35.9308C30.9444 35.7468 31.0624 35.462 31.1122 35.2625C31.1321 35.185 30.929 35.2137 30.9474 35.1481C31.0015 34.94 31.0692 34.6844 31.1139 34.3548C31.1502 34.0778 31.2038 33.6906 31.2649 33.4222C31.2917 33.2944 31.4264 33.3844 31.4599 33.3595C31.6939 33.1902 31.4065 32.8671 31.38 32.8197C31.2626 32.5341 31.3919 32.4271 31.3821 32.1603C31.3379 31.0759 31.4354 29.8001 31.5236 28.6925C31.5384 28.5098 31.553 28.3302 31.5666 28.1564C31.6875 26.6041 31.8594 25.3907 31.8699 23.9069C31.8708 23.8117 31.682 23.9021 31.6803 23.8199C31.6769 23.5231 31.6817 23.2454 31.6905 22.9565C31.7139 22.192 31.7624 21.4488 31.7446 20.6765C31.7428 20.5904 31.5632 20.7096 31.5545 20.5711C31.5355 20.287 31.5548 19.9268 31.6187 19.6399C31.6496 19.5 31.7958 19.6927 31.8238 19.5517C31.8893 19.2222 31.9111 18.8715 31.8916 18.5323C31.883 18.3881 31.6971 18.6005 31.6998 18.4134C31.7046 18.0093 31.7079 17.6071 31.7186 17.2055C31.7415 16.3433 31.7988 15.477 31.9792 14.604C31.9973 14.5156 32.3656 14.4464 32.2998 14.2565C32.1984 14.2399 32.0788 14.2378 31.9703 14.2291C31.9629 13.3088 32.0013 12.3799 32.0489 11.46C32.0965 10.5423 32.1539 9.60737 32.1838 8.67515C32.1863 8.59633 31.9892 8.72831 31.993 8.57585C32.0145 7.70539 31.9787 6.85121 32.1904 5.94529C32.209 5.86603 32.4881 5.90017 32.5085 5.71756C32.5107 5.6978 32.5099 5.67552 32.5053 5.65034C32.4966 5.61575 32.4595 5.19832 32.3874 5.09697C32.3765 5.08276 32.2156 5.15227 32.2135 5.02364C32.2042 4.29032 32.2558 3.52202 32.3679 2.76908C32.3862 2.65465 32.5536 2.77995 32.5681 2.69874C32.6702 2.08022 32.5534 1.4343 32.7184 0.854045C32.8289 0.498738 33.1205 0.60458 33.4129 0.418183C33.4538 0.410464 33.4652 0.138768 33.6333 0.140207C34.0565 0.116556 34.5173 0.238215 34.9687 0.199505C35.0659 0.192905 34.9666 -0.102774 35.1981 0.0663737C35.2134 0.0898537 35.2872 0.313544 35.3656 0.380112C35.4199 0.415945 35.592 0.35571 35.6611 0.429174C35.7301 0.50312 35.5851 0.595311 35.665 0.745872C35.7465 0.871507 35.9421 0.810059 35.96 1.08485ZM31.4595 25.5881C31.4029 25.3677 31.1007 25.8857 31.2927 25.8284C31.302 25.825 31.4621 25.599 31.4595 25.5881ZM28.158 49.325C28.5105 49.1792 28.2285 48.8514 27.9648 48.9483C27.7019 49.043 28.0512 49.3685 28.158 49.325ZM27.0937 51.9697C27.4276 51.7826 26.6974 51.348 26.6924 51.7258C26.6919 51.7475 27.0743 51.9805 27.0937 51.9697ZM33.4774 1.37472C33.4854 1.37084 33.4961 1.21085 33.4883 1.20824C33.3 1.11924 33.2786 1.43803 33.4774 1.37472ZM25.833 54.507C25.9861 54.4852 26.0298 54.1747 25.8433 54.1999C25.6953 54.2179 25.6447 54.5322 25.833 54.507ZM21.9297 27.8972C21.9205 27.8937 21.8331 27.9785 21.8724 28.0104C21.9986 28.1122 22.0768 27.9584 21.9297 27.8972ZM22.6784 58.0963C23.2455 57.6824 24.0433 57.8834 23.3837 58.3648C23.2621 58.4502 23.4819 57.9863 23.297 58.0619C22.9683 58.1923 23.063 58.6793 22.6454 58.6916C22.5749 58.6913 22.6495 58.118 22.6788 58.0948C22.6787 58.0953 22.6785 58.0958 22.6784 58.0963ZM31.7475 24.925C31.7488 24.9154 31.6008 24.8291 31.5928 24.8351C31.4313 24.9647 31.7072 25.1256 31.7475 24.925ZM18.7675 34.2993C18.7482 34.3063 18.7007 34.7089 18.7171 34.7238C19.0107 34.9422 19.1051 34.1504 18.7675 34.2993ZM33.2188 35.9094C33.3762 36.1237 33.3593 36.3494 33.0966 36.4539C33.1422 36.2729 33.1762 36.0896 33.2188 35.9094Z" fill="black"/>
</svg>
