<svg width="50" height="56" viewBox="0 0 50 56" fill="none" xmlns="http://www.w3.org/2000/svg">
<path d="M1.14697 15.0031C1.31845 14.9376 1.55103 14.9754 1.72918 15.0383C1.785 15.0578 1.76588 15.1656 1.80476 15.1838C1.88077 15.2192 1.94439 15.1621 2.01979 15.2055C2.04482 15.2204 2.02833 15.3901 2.05427 15.4019C2.19912 15.465 2.32841 15.412 2.47159 15.4367C3.16909 15.5588 3.86098 15.5673 4.5592 15.5882C4.79334 15.5946 5.08525 15.724 5.31529 15.6385C5.34214 15.6283 5.31386 15.4827 5.3181 15.4702C5.38503 15.2782 5.38182 15.577 5.43845 15.6121C5.666 15.7502 5.90861 15.7441 6.10948 15.6705C6.11069 15.6701 6.11187 15.6696 6.113 15.669C6.19192 15.6308 6.08477 15.3564 6.18488 15.5107C6.1919 15.5213 6.18252 15.6791 6.20787 15.6938C6.26537 15.7267 6.366 15.6904 6.40895 15.6993C6.49186 15.7172 6.50488 15.7146 6.58156 15.71C6.68857 15.705 6.82142 15.7721 6.93204 15.7273C6.95561 15.7173 6.91023 15.56 6.9466 15.5296C6.98303 15.4992 7.0862 15.5043 7.12366 15.5391C7.16115 15.5739 7.15702 15.7008 7.1655 15.7291C7.23588 15.9681 7.3252 15.6215 7.33952 15.6119C7.59923 15.4473 7.85897 15.6185 8.11769 15.596C8.31534 15.5783 8.51741 15.4972 8.70619 15.4897C8.93246 15.4812 9.12969 15.5514 9.34455 15.5176C9.36723 15.5142 9.32409 15.3286 9.35174 15.3241C9.64134 15.2768 9.94609 15.2705 10.2508 15.3711C10.2815 15.3814 10.2581 15.5497 10.2897 15.5698C10.4823 15.6893 10.798 15.9892 10.8423 15.261C10.9683 15.2778 11.1201 15.2932 11.243 15.4279C11.3108 15.5021 11.2824 15.649 11.3228 15.6368C11.3296 15.6347 11.3384 15.6281 11.3499 15.6159C11.3679 15.597 11.328 15.442 11.356 15.4256C11.4742 15.3566 11.6127 15.3954 11.7294 15.3026C11.7529 15.2833 11.733 15.143 11.7377 15.1169C11.7782 14.9058 11.909 15.2364 11.9329 15.2591C12.1145 15.4279 12.2274 15.3441 12.3799 15.3342C12.4153 15.332 12.3557 15.1466 12.3891 15.1377C12.5615 15.094 12.7495 15.0924 12.9304 15.1598C12.9708 15.1752 12.9509 15.3399 12.971 15.3555C13.0595 15.4225 13.048 15.1161 13.1321 15.1744C13.1498 15.1863 13.1539 15.3253 13.1584 15.3401C13.2283 15.5736 13.2362 15.2324 13.2474 15.2238C13.3892 15.1073 13.5207 15.4499 13.6643 15.3854C13.6814 15.3774 13.6243 15.2066 13.6733 15.1947C14.0009 15.1137 14.349 15.1274 14.6932 15.2334C14.7463 15.2497 14.7233 15.3846 14.7282 15.4004C14.8061 15.6478 14.8054 15.3058 14.8206 15.2914C14.9419 15.1863 15.093 15.4576 15.1398 15.0453C15.5961 15.1117 16.0235 14.9417 16.4792 15.0273C16.5914 15.0484 16.705 15.085 16.8211 15.1445C16.8285 15.148 16.8342 15.3159 16.8489 15.322C17.0265 15.3972 16.9661 15.1418 17.0417 14.8131C17.0606 14.7305 17.188 15.1034 17.1987 15.1306C17.2375 15.2308 17.2365 15.4817 17.2479 15.5007C17.3414 15.6493 17.2382 14.8312 17.3405 14.8196C17.3438 14.8206 17.3471 14.9729 17.3574 14.9869C17.3893 15.0311 17.4091 14.9682 17.441 15.0172C17.5142 15.1306 17.5801 15.5264 17.6455 15.2844C17.6536 15.2531 17.5839 14.7903 17.6775 14.802C17.715 14.8071 17.8749 14.7809 17.9234 14.8059C17.9718 14.8309 17.9579 14.9841 17.9618 14.9903C18.1059 15.1744 18.0692 15.2617 18.1637 15.5479C18.2581 15.833 18.1616 15.1384 18.1776 15.0578C18.1936 14.9775 18.3015 15.1306 18.3299 15.1849C18.3584 15.2391 18.342 15.3374 18.3652 15.3673C18.5186 15.5625 18.3821 15.0151 18.4119 14.8997C18.4818 14.6264 18.6196 15.1338 18.7174 15.1737C18.7438 15.1845 18.7098 15.0693 18.7307 15.0557C18.8133 15.0035 18.8848 15.1584 18.9672 14.999C18.9807 14.973 19.0246 14.6531 19.1036 14.8748C19.1148 14.9068 19.109 15.0379 19.1498 15.0623C19.2107 15.099 19.3145 15.1152 19.3694 15.065C19.4099 15.0279 19.3339 14.822 19.3974 14.8812C19.4257 14.9077 19.3946 15.0371 19.4464 15.0765C19.4981 15.1159 19.6158 15.0962 19.6603 15.0865C19.7047 15.0768 19.6608 14.9189 19.6631 14.9077C19.6776 14.843 19.7545 14.7551 19.7621 14.7544C20.1429 14.6884 20.5314 14.9156 20.8936 14.7792C20.9221 14.7687 20.8813 14.6018 20.8855 14.5984C20.9769 14.5148 20.9543 14.9752 21.0434 15.1172C20.9901 14.7747 21.0393 14.8317 21.1053 14.7851C21.1371 14.7623 21.1017 14.6316 21.1031 14.6175C21.1281 14.409 21.1963 14.6657 21.2121 14.7179C21.2705 14.9102 21.2776 14.6734 21.3171 14.8018C21.3564 14.9293 21.3284 15.1292 21.3962 15.1181C21.3996 14.9926 21.3082 14.6775 21.3532 14.6188C21.4229 14.5275 21.531 14.5086 21.6444 14.5185C21.8069 14.5325 21.9824 14.605 22.0764 14.6085C22.2358 14.6143 22.2834 14.585 22.3803 14.6175C22.5549 14.6763 22.4632 14.4457 22.5504 14.3232C22.6378 14.2006 22.666 14.7938 22.6973 14.9179C22.7284 15.0421 22.727 14.9102 22.7541 14.9772C22.7812 15.0441 22.7538 15.1349 22.7993 15.1554C22.8449 15.1758 22.9302 14.9362 22.9275 14.8024C22.9218 14.5188 22.8308 14.2326 22.9559 14.3207C22.9631 14.326 22.9629 14.483 22.9895 14.4953C23.2005 14.5879 23.4043 14.5679 23.612 14.6465C23.6407 14.6576 23.6402 14.8323 23.6572 14.8407C23.8342 14.9283 23.7368 14.647 23.7816 14.3136C23.8202 14.7438 23.9051 14.9987 24.0289 14.9842C24.1034 14.9757 24.0649 14.7907 24.0947 14.6525C24.1036 14.6109 24.1739 14.7318 24.1713 14.6427C24.1629 14.3514 24.0693 14.037 24.2137 14.1473C24.2201 14.1526 24.2243 14.3122 24.2447 14.319C24.3769 14.3641 24.3499 14.0619 24.4785 14.0069C24.5793 13.9638 24.7919 14.1205 24.9164 14.1332C24.9817 14.6139 25.0799 14.4878 25.0791 14.1501C25.1591 14.1526 25.2392 14.122 25.3207 14.1571C25.3487 14.169 25.3516 14.3105 25.357 14.325C25.4405 14.5536 25.4282 14.2266 25.4431 14.2116C25.6068 14.0629 25.7904 14.2855 25.9301 14.0217C25.9351 14.0122 25.8967 13.6773 25.9786 13.914C25.9841 13.9304 25.9485 14.0905 26.0323 14.0903C26.1155 14.0902 26.2942 14.2466 26.3847 14.0755C26.4066 14.0343 26.436 13.7535 26.5227 13.9568C26.5344 13.9844 26.5403 14.0812 26.5589 14.1328C26.6185 14.2973 26.5877 13.9575 26.6707 14.2378C26.7372 14.4622 26.8252 14.6363 26.9018 14.5865C26.9208 14.5742 26.9391 14.548 26.9562 14.5052C26.959 14.4989 26.9466 14.2279 26.9834 14.2267C27.0428 14.225 27.1309 14.2687 27.1905 14.2581C27.2189 14.2529 27.1759 14.0898 27.1804 14.086C27.3582 13.9645 27.5173 14.0917 27.7344 14.1245C27.7742 14.1308 27.8493 13.8883 27.9503 14.0557C28.0609 14.239 28.1017 15.0652 28.2565 14.8433C28.3191 14.7544 28.2551 13.708 28.471 14.2222C28.7092 14.05 28.9987 14.2853 29.2254 14.0563C29.2357 14.0461 29.2277 13.7525 29.2558 13.7521C29.2975 13.7521 29.3409 13.8832 29.3715 13.8875C29.5 13.9089 29.5942 13.7762 29.7156 13.7754C29.7617 13.7748 29.7678 13.9164 29.8228 13.9157C29.8777 13.9149 29.8852 13.726 29.9715 13.803C30.0362 13.8619 30.1496 14.2277 30.2287 14.2599C30.1729 13.8902 30.2236 13.89 30.2963 13.7785C30.3102 13.7569 30.2716 13.6313 30.2771 13.6144C30.2992 13.543 30.3464 13.6447 30.366 13.5676C30.3708 13.5491 30.3511 13.423 30.3538 13.4007C30.3767 13.2067 30.5086 13.4765 30.5314 13.5235C30.6185 13.7019 30.6191 13.5336 30.6748 13.6004C30.7306 13.6672 30.6797 13.77 30.7382 13.8066C30.8587 13.8824 30.9953 13.8395 31.1008 13.8285C31.1435 13.8232 31.0874 13.6596 31.0929 13.6549C31.1738 13.5981 31.2919 13.7627 31.2866 13.4196C31.488 14.2762 31.3262 13.327 31.4808 13.48C31.493 13.4924 31.5722 13.9 31.5436 13.9664C31.515 14.0327 31.4362 13.914 31.3984 14.0164C31.3894 14.0404 31.3796 14.436 31.3735 14.4609C31.3261 14.655 31.2165 14.0444 31.2071 14.0114C31.1026 13.6559 31.082 14.0836 31.0636 14.1159C30.9783 14.264 30.8727 14.1926 30.7985 14.3004C30.7498 14.3701 30.8082 14.7723 30.7604 14.7673C30.6015 14.7511 30.4596 14.1997 30.3942 14.7077C30.3801 14.8161 30.48 15.2499 30.3159 14.9224C30.3055 14.9017 30.1745 14.5991 30.1593 14.806C30.1574 14.8321 30.1778 14.9599 30.1718 14.9719C30.1312 15.0495 30.0789 14.9534 30.0292 15.0112C29.9794 15.0691 29.9216 15.1527 29.8493 15.1196C29.8058 15.0999 29.7178 14.8696 29.6899 14.8142C29.6103 14.6545 29.5966 14.9389 29.5319 14.7406C29.4668 14.5413 29.4829 14.2206 29.3755 14.1021C29.4243 14.4348 29.4701 14.7769 29.5172 15.1118C29.3244 15.13 29.1243 15.051 28.9318 15.0958C28.9083 15.1016 28.9603 15.2765 28.9357 15.2874C28.8321 15.3324 28.7185 15.2195 28.615 15.2873C28.535 15.3405 28.4697 15.5441 28.3873 15.6055C28.2742 15.2335 28.1622 15.3827 28.0579 15.3629C28.0218 15.3561 28.0086 15.2542 27.9793 15.2247C27.8689 15.116 27.9628 15.4457 27.9456 15.5024C27.8718 15.7445 27.7477 14.985 27.6239 15.0228C27.6174 15.0246 27.5964 15.4425 27.5889 15.4695C27.5419 15.645 27.5558 15.3301 27.5065 15.3068C27.4165 15.2643 27.3453 15.1759 27.2674 15.309C27.2449 15.3483 27.2156 15.6112 27.1313 15.4238C27.1202 15.3993 27.1043 15.2645 27.0973 15.2576C27.0415 15.2059 27.0227 15.2621 27.0155 15.3535C27.0065 15.466 27.0151 15.632 26.9936 15.7157C26.9547 15.8673 26.8192 15.59 26.788 15.5089C26.7069 15.2992 26.8121 15.4106 26.8116 15.3889C26.8055 15.131 26.7446 15.1845 26.69 15.1707C26.6217 14.7585 26.5537 14.7938 26.6338 15.158C26.6426 15.1978 26.6769 15.1533 26.69 15.1707C26.7047 15.5828 26.6331 15.6464 26.4906 15.2802C26.4239 15.1085 26.432 14.8958 26.3197 14.9896C26.2688 15.032 26.3319 15.3134 26.2939 15.3982C26.2065 15.5918 26.0186 15.3479 25.9076 15.4067C25.8673 15.428 25.9312 15.5778 25.9044 15.5978C25.8332 15.6512 25.7484 15.5441 25.6796 15.6151C25.6734 15.6217 25.714 15.7824 25.6902 15.7879C25.5102 15.8331 25.3385 15.7509 25.1453 15.7753C25.0526 15.787 24.9002 15.9003 24.8022 15.8956C24.6319 15.8884 24.3981 15.6789 24.2628 15.7564C24.1754 15.8061 24.2182 15.9666 24.1939 16.0833C24.1469 16.3096 23.9586 15.9417 23.9323 15.8844C23.9315 15.8825 24.0057 15.8331 23.9518 15.755C23.9033 15.5837 23.9331 15.8835 23.9323 15.8844C23.9151 15.8474 23.7516 15.8319 23.7245 15.8674C23.7097 15.8868 23.7403 16.0402 23.7322 16.0474C23.5407 16.2145 23.3304 16.2829 23.1057 16.2392C23.1015 16.2366 23.0841 16.0626 23.0745 16.0586C22.9396 15.9982 22.8881 16.2206 22.802 16.36C22.7161 16.4993 22.6289 16.4679 22.5287 16.1786C22.4558 16.2262 22.3271 16.1093 22.2527 16.0378C22.1782 15.9664 22.2131 16.3048 22.2083 16.3122C22.0996 16.4854 22.0025 16.4349 21.8852 16.3929C21.8425 16.3777 21.7971 16.3635 21.7475 16.3617C21.6587 16.358 21.4924 16.4289 21.4031 16.4777C21.3325 16.5168 21.2777 16.4433 21.2157 16.5025C21.2073 16.5104 21.2355 16.6595 21.2334 16.6656C21.1795 16.855 21.1702 16.4831 21.1462 16.4195C21.0591 16.1881 21.008 16.0654 20.9244 16.1898C20.9051 16.2184 20.9054 16.7555 20.868 16.7915C20.8192 16.8374 20.8159 16.6453 20.7655 16.6982C20.7612 16.7025 20.7767 16.8194 20.7414 16.8185C20.5778 16.816 20.3943 16.7694 20.2288 16.8014C20.2062 16.8054 20.258 16.9874 20.2256 16.9961C20.0737 17.0369 19.9031 17.0505 19.742 16.9816C19.7023 16.9641 19.71 16.8313 19.6973 16.7937C19.62 16.5661 19.5905 16.9137 19.5796 16.9216C19.3229 17.1175 19.0755 16.8352 18.8116 17.014C18.7974 17.0244 18.7214 17.4019 18.6328 17.0959C18.6268 17.0755 18.5381 16.7622 18.5172 16.9858C18.5159 16.9998 18.5672 17.1604 18.5086 17.1502C18.4501 17.14 18.3715 17.2602 18.273 17.0884C18.2418 17.0343 18.1476 16.7224 18.1031 16.9846C18.1004 17.0029 18.0519 17.5899 17.9667 17.1983C17.9528 17.1338 17.9125 16.7137 17.8491 16.9385C17.837 16.9821 17.8779 17.0722 17.8404 17.1356C17.7829 17.2332 17.6807 17.1309 17.6183 17.3269C17.6075 17.3616 17.5772 17.6531 17.5036 17.4426C17.4921 17.4096 17.4913 17.268 17.4634 17.2552C17.3301 17.1939 17.2111 17.3017 17.0743 17.2186C17.0259 17.1895 17.0241 16.9606 16.9709 16.905C16.9178 16.8494 16.8178 16.8013 16.7802 16.91C16.7427 17.0188 16.835 17.3739 16.765 17.4107C16.756 17.4154 16.747 17.4198 16.7379 17.4239C16.4386 17.5603 16.1146 17.3922 15.8025 17.3944C15.7549 17.3947 15.8075 17.5198 15.7382 17.5295C15.482 17.5661 15.0556 17.7323 14.8042 17.4803C14.6036 17.2784 14.8111 17.0883 14.6658 17.0126C14.5957 16.9766 14.5671 17.4035 14.5528 17.4183C14.4125 17.568 14.2868 17.3927 14.1534 17.4636C14.1259 17.4783 14.1709 17.6457 14.1473 17.6563C14.0666 17.6941 13.9711 17.6268 13.8924 17.6486C13.8571 17.6588 13.8765 17.7881 13.8424 17.7813C13.7609 17.7666 13.6853 17.7188 13.5973 17.6044C13.5893 17.594 13.6205 17.4277 13.5619 17.4273C13.4671 17.4272 13.3388 17.3183 13.2423 17.4529C13.2137 17.4934 13.2411 17.7907 13.152 17.5921C13.1334 17.5507 13.1176 17.1921 13.0665 17.5081C13.0579 17.5607 12.9617 17.9896 12.8691 17.7279C12.8447 17.659 12.7719 17.3713 12.7372 17.4209C12.7327 17.4287 12.7689 17.5863 12.7383 17.605C12.631 17.6677 12.5114 17.6619 12.4001 17.7228C12.3704 17.7394 12.4321 17.9002 12.3873 17.9197C12.2641 17.9734 12.1009 17.9462 11.971 17.9061C11.923 17.891 11.9422 17.7512 11.9375 17.7366C11.861 17.4994 11.8594 17.8293 11.8432 17.8501C11.743 17.9745 11.6455 17.8286 11.5474 17.8786C11.5203 17.892 11.5546 18.0461 11.5503 18.0605C11.5489 18.0646 11.5476 18.0684 11.5464 18.0718C11.5057 18.1852 11.5211 17.9169 11.4827 17.8902C11.3718 17.8122 11.2579 17.8352 11.1551 17.8647C11.1173 17.8757 11.177 18.0526 11.1429 18.0604C10.9401 18.1103 10.7281 18.1119 10.5215 18.0299C10.4825 18.0142 10.4936 17.8728 10.4829 17.8417C10.4095 17.624 10.358 17.9345 10.3424 17.965C10.2717 18.1044 10.2287 17.9841 10.1577 18.0135C9.80729 18.16 9.3704 18.116 9.02617 18.0949C8.58274 18.0678 8.23733 17.9637 7.81834 18.0337C7.79233 18.0379 7.83434 18.221 7.81212 18.2271C7.52435 18.2963 7.22864 18.248 6.93532 18.3262C6.91121 18.3323 6.96101 18.5051 6.92279 18.5208C6.84366 18.5543 6.74285 18.553 6.65841 18.5035C6.61718 18.4796 6.65707 18.3245 6.61582 18.3036C6.51975 18.2546 6.42043 18.2502 6.32823 18.2861C6.32802 18.2862 6.32782 18.2863 6.32762 18.2864C6.28982 18.3037 6.36418 18.4766 6.31232 18.4829C5.95654 18.53 5.60562 18.5897 5.22997 18.3857C5.204 18.3717 5.15293 18.0081 5.10603 18.0824C5.11023 18.1841 5.12004 18.3034 5.12704 18.4119C4.60314 18.5128 4.095 18.4258 3.56408 18.448C3.54182 18.449 3.59547 18.6395 3.55244 18.6424C3.30691 18.6589 3.07586 18.731 2.80821 18.5583C2.78171 18.5415 2.76793 18.1999 2.69816 18.2572C2.68592 18.2676 2.57809 18.3217 2.55496 18.3979C2.55191 18.4093 2.58469 18.5667 2.54907 18.5742C2.33836 18.6149 2.12465 18.595 1.91014 18.514C1.87563 18.5006 1.89792 18.3285 1.87323 18.3175C1.69821 18.2407 1.52419 18.3836 1.3497 18.2425C1.23281 18.1474 1.25051 17.8516 1.17033 17.568C1.15901 17.528 1.09089 17.5268 1.07444 17.3594C1.03295 16.9386 1.0301 16.4746 0.982 16.0264C0.97172 15.9299 0.889118 16.0411 0.924746 15.8031C0.927301 15.7872 0.986959 15.7045 0.996965 15.6239C1.00397 15.5682 0.970563 15.3993 0.988073 15.3273C1.00558 15.2554 1.04179 15.3964 1.07335 15.311C1.10479 15.2245 1.07319 15.0319 1.14697 15.0031ZM21.9184 15.7185C21.8384 15.5641 21.9061 16.1586 21.9518 16.0084C21.9539 16.0004 21.9225 15.7261 21.9184 15.7185ZM29.0544 14.6052C28.9362 14.3565 28.9425 14.7481 29.0284 14.941C29.1145 15.1337 29.0903 14.6806 29.0544 14.6052ZM29.8217 14.2903C29.699 14.0991 29.8164 14.9393 29.8868 14.7546C29.8909 14.7441 29.8289 14.3014 29.8217 14.2903ZM1.43199 17.4653C1.43056 17.4574 1.38168 17.4534 1.38113 17.4614C1.37006 17.6528 1.46781 17.6606 1.43199 17.4653ZM30.5796 13.9578C30.5334 13.849 30.4735 13.9927 30.5308 14.128C30.577 14.2369 30.6372 14.0932 30.5796 13.9578ZM18.7536 15.4635C18.7516 15.4547 18.7164 15.4507 18.7229 15.5007C18.744 15.6616 18.7865 15.6106 18.7536 15.4635ZM31.9244 13.7309C31.7188 13.732 31.486 13.0599 31.7157 13.1027C31.7574 13.1104 31.6668 13.337 31.727 13.3912C31.8373 13.4899 31.8275 13.0457 31.9595 13.263C31.9835 13.3028 31.9363 13.7323 31.9242 13.7319C31.9242 13.7315 31.9243 13.7312 31.9244 13.7309ZM21.7926 15.0103C21.7904 15.0026 21.7421 15.0012 21.742 15.0092C21.7406 15.2008 21.8379 15.2036 21.7926 15.0103ZM16.7119 15.321C16.7075 15.3045 16.5957 15.3008 16.5938 15.3166C16.5697 15.6316 16.7961 15.64 16.7119 15.321ZM24.9201 14.1457C24.9451 13.9493 25.0037 13.9182 25.0788 14.1499C25.0255 14.1446 24.9734 14.1501 24.9201 14.1457ZM21.7534 2.07462C21.7145 2.40327 21.5449 2.79717 21.3838 3.08483C21.3335 3.17508 21.2454 3.09716 21.2062 3.15809C21.1295 3.27724 21.1451 3.41263 21.0614 3.52744C21.0332 3.56533 20.8867 3.46654 20.8608 3.50731C20.7193 3.73347 20.6923 3.98463 20.5865 4.22594C20.068 5.40332 19.6554 6.6148 19.2255 7.82872C19.0813 8.23806 18.79 8.69683 18.7316 9.13708C18.7249 9.18853 18.875 9.20025 18.884 9.213C19.02 9.41172 18.7484 9.27993 18.6826 9.36463C18.4234 9.69732 18.2826 10.1322 18.2302 10.5148C18.2298 10.5172 18.2296 10.5194 18.2294 10.5217C18.2171 10.6766 18.532 10.6051 18.3311 10.7153C18.3172 10.7232 18.1786 10.6395 18.15 10.6778C18.0855 10.7648 18.0584 10.957 18.0245 11.0286C17.9584 11.1664 17.9529 11.1908 17.9112 11.3268C17.8538 11.509 17.7114 11.7175 17.6859 11.9301C17.6808 11.9758 17.8517 11.9635 17.8575 12.0405C17.8632 12.1176 17.7963 12.2967 17.7419 12.3475C17.6874 12.3984 17.5742 12.3365 17.5433 12.3392C17.2828 12.3598 17.5448 12.6658 17.5449 12.6952C17.5363 13.227 17.2268 13.5935 17.0878 14.0621C16.9834 14.4157 16.9323 14.8089 16.8246 15.1379C16.6949 15.5321 16.5081 15.8513 16.406 16.2415C16.395 16.2827 16.59 16.2894 16.5769 16.3399C16.4387 16.8735 16.2591 17.3942 15.9752 17.8876C15.9466 17.9368 15.8091 17.8202 15.7711 17.8664C15.5417 18.1516 15.0739 18.5607 15.7037 18.966C15.6087 19.1788 15.4983 19.4375 15.2987 19.5905C15.1888 19.675 15.0745 19.5582 15.0598 19.6342C15.0573 19.647 15.0577 19.6653 15.0613 19.691C15.0669 19.731 15.2319 19.7323 15.2288 19.7888C15.2156 20.0267 15.0919 20.2515 15.1023 20.4924C15.1048 20.5415 15.2437 20.5717 15.2641 20.5917C15.4283 20.759 15.0467 20.8355 15.011 20.8664C14.7425 21.1051 14.7449 21.3405 14.655 21.6108C14.634 21.6735 14.8389 21.6561 14.8253 21.7185C14.7521 22.0415 14.6345 22.3587 14.4547 22.6457C14.4145 22.7088 14.2802 22.5963 14.2531 22.6239C14.1354 22.7462 14.4167 22.8712 14.3095 22.9899C14.2872 23.0151 14.1604 22.9564 14.1441 22.9571C13.8897 22.9679 14.1894 23.1433 14.1896 23.167C14.2003 23.4693 13.8081 23.534 13.7722 23.8092C13.7682 23.8423 13.9579 23.8258 13.9365 23.9156C13.7921 24.5224 13.5457 25.1249 13.2225 25.6601C13.1723 25.744 13.0682 25.6383 13.0509 25.6389C12.7792 25.6526 13.0828 25.8187 13.0853 25.8522C13.0964 26.1137 12.7541 26.2407 13.0869 26.5251C12.7213 27.2715 12.5738 28.1035 12.1837 28.8362C12.087 29.0184 11.9755 29.1951 11.8422 29.3636C11.834 29.3746 11.6829 29.2983 11.6673 29.3205C11.4771 29.586 11.7429 29.6133 11.9771 29.9125C12.0358 29.9878 11.6206 30.0127 11.5894 30.0167C11.4746 30.0311 11.2561 29.9 11.2315 29.9096C11.0362 29.9917 11.8234 30.2377 11.7611 30.4193C11.7578 30.4245 11.6226 30.3512 11.6031 30.3615C11.542 30.3933 11.5828 30.4599 11.5174 30.489C11.3666 30.5554 10.9751 30.4618 11.1394 30.6994C11.1609 30.7297 11.6136 30.8519 11.5366 31.0062C11.5056 31.0676 11.4139 31.3549 11.3575 31.4245C11.3011 31.4941 11.1779 31.3897 11.1698 31.3933C10.9068 31.5416 10.8572 31.4331 10.5413 31.4427C10.2264 31.4524 10.8983 31.6547 10.9568 31.7243C11.0152 31.7935 10.8046 31.897 10.7371 31.9165C10.6696 31.9361 10.5962 31.8562 10.5536 31.8798C10.274 32.0371 10.8466 32.0953 10.925 32.2074C11.111 32.4722 10.572 32.4367 10.4668 32.5811C10.4383 32.6202 10.5625 32.6241 10.5592 32.6668C10.5442 32.8352 10.3585 32.8734 10.4361 33.0985C10.4487 33.1353 10.6925 33.382 10.4436 33.3966C10.4078 33.3985 10.2991 33.3179 10.2482 33.3738C10.1721 33.4574 10.082 33.6246 10.0848 33.7447C10.0869 33.8333 10.3199 33.8164 10.2222 33.8919C10.1787 33.9255 10.0903 33.8024 10.0183 33.8689C9.94646 33.9349 9.87659 34.1446 9.85202 34.2251C9.8276 34.3055 9.99549 34.3175 10.0034 34.3275C10.0482 34.3874 10.0667 34.5655 10.0616 34.5789C9.83497 35.2612 9.35029 35.7891 9.19157 36.4759C9.17889 36.5297 9.35168 36.5549 9.3514 36.5637C9.35297 36.7648 8.97907 36.4677 8.79094 36.5375C9.12229 36.6407 9.03651 36.6913 9.02587 36.8285C9.02101 36.8948 9.15885 36.9092 9.16968 36.9194C9.32751 37.0794 9.05783 37.049 9.00147 37.046C8.79401 37.0352 8.98931 37.1811 8.85036 37.1746C8.71236 37.1683 8.56431 37.0082 8.52215 37.1278C8.6258 37.2047 8.9624 37.2303 8.97773 37.339C9.00171 37.5079 8.93488 37.7 8.83882 37.8859C8.70155 38.1515 8.50487 38.4033 8.42908 38.5586C8.30056 38.8218 8.28818 38.9181 8.18547 39.061C7.99971 39.3191 8.2646 39.3 8.29875 39.518C8.33274 39.7361 7.81397 39.4366 7.68538 39.4165C7.55707 39.3959 7.66865 39.4703 7.5914 39.4764C7.51421 39.4823 7.45945 39.3839 7.40678 39.4476C7.35417 39.5112 7.48782 39.7929 7.60177 39.8669C7.84328 40.0236 8.15413 40.04 7.98194 40.1967C7.97186 40.2056 7.84084 40.1131 7.8096 40.1502C7.56639 40.4461 7.42109 40.7981 7.18995 41.0972C7.15796 41.1382 7.01311 41.0334 6.99266 41.0566C6.77916 41.2973 7.09029 41.3035 7.33117 41.5767C6.94334 41.384 6.66424 41.3725 6.57749 41.5852C6.52514 41.713 6.70912 41.7602 6.79967 41.8923C6.82701 41.932 6.67062 41.9755 6.74646 42.0246C6.99413 42.1859 7.32974 42.2195 7.12181 42.3932C7.11225 42.4007 6.97717 42.3112 6.95491 42.3412C6.8102 42.535 7.08146 42.6729 7.02262 42.9193C6.97648 43.1126 6.67463 43.3691 6.56278 43.5663C6.11451 43.3809 6.1384 43.619 6.4162 43.8242C6.34895 43.9543 6.30669 44.1092 6.21141 44.2212C6.1787 44.2599 6.06043 44.1778 6.04409 44.1777C5.78849 44.1746 6.06631 44.3553 6.06633 44.3891C6.05343 44.7504 5.72031 44.914 5.81979 45.307C5.82343 45.321 6.12812 45.4661 5.86734 45.4536C5.84951 45.4524 5.74858 45.2944 5.67933 45.432C5.60968 45.5705 5.33325 45.7677 5.39709 46.0222C5.41233 46.0838 5.61564 46.3081 5.37829 46.3227C5.34617 46.3244 5.26268 46.2734 5.20533 46.2714C5.02225 46.2656 5.32338 46.4286 5.02691 46.3882C4.78949 46.3559 4.57499 46.3899 4.55133 46.5457C4.54544 46.5845 4.55135 46.6308 4.57164 46.6856C4.57437 46.6941 4.80407 46.8447 4.77411 46.9055C4.72625 47.0021 4.61473 47.1233 4.57355 47.2264C4.55385 47.276 4.72167 47.3091 4.72093 47.3189C4.66911 47.6862 4.43207 47.8649 4.22185 48.1967C4.18303 48.2574 4.31407 48.5347 4.09376 48.5917C3.85264 48.6538 3.15481 48.1914 3.20069 48.5856C3.21894 48.7434 4.11108 49.3137 3.51515 49.3324C3.44874 49.8302 3.01316 50.144 2.99815 50.6628C2.99732 50.6861 3.23762 50.8648 3.21361 50.9105C3.17746 50.9781 3.0358 50.9626 3.00594 51.0092C2.87766 51.2029 2.90119 51.4419 2.7962 51.6385C2.7566 51.7132 2.63916 51.6301 2.59186 51.7194C2.54468 51.8086 2.68798 51.9441 2.55127 52.0339C2.44738 52.1016 2.05999 52.0419 1.96549 52.1481C2.30613 52.3023 2.2621 52.384 2.28642 52.5749C2.29125 52.6117 2.42413 52.6326 2.43257 52.6527C2.46953 52.7356 2.34802 52.7443 2.39159 52.8269C2.40198 52.8469 2.51869 52.8987 2.53378 52.9179C2.66658 53.0835 2.33822 53.1174 2.2812 53.1229C2.06426 53.1448 2.19619 53.2574 2.09461 53.3028C1.99309 53.348 1.95692 53.1979 1.87675 53.2676C1.71124 53.4112 1.62504 53.6583 1.53998 53.8367C1.50645 53.9089 1.68429 53.9279 1.68312 53.9399C1.65622 54.108 1.4229 54.1875 1.69627 54.4087C0.847054 54.1588 1.73385 54.5343 1.47702 54.6804C1.45644 54.6917 1.06731 54.5453 1.04065 54.455C1.01404 54.3648 1.17666 54.318 1.1299 54.1888C1.11904 54.1583 0.817577 53.8782 0.803387 53.852C0.692823 53.6465 1.26844 53.8785 1.30269 53.8852C1.6738 53.9549 1.35631 53.6363 1.34711 53.5854C1.30665 53.3481 1.4549 53.2276 1.43531 53.0366C1.42313 52.912 1.0553 52.7391 1.101 52.6658C1.25251 52.4225 1.81151 52.5589 1.46757 52.1184C1.39428 52.0243 0.964692 51.8985 1.36618 51.8514C1.39147 51.8485 1.74471 51.8375 1.59422 51.6769C1.57531 51.6565 1.4565 51.6052 1.45239 51.5874C1.42723 51.4689 1.54798 51.4498 1.54536 51.3319C1.54272 51.2139 1.52633 51.0668 1.61499 50.9725C1.66824 50.9156 1.92689 50.9251 1.995 50.9163C2.19044 50.8929 1.97652 50.685 2.18982 50.7104C2.40431 50.7358 2.64504 50.9712 2.83202 50.8755C2.52565 50.7368 2.2142 50.5875 1.90751 50.4447C2.0581 50.1255 2.29551 49.8484 2.42334 49.5119C2.43878 49.4703 2.25476 49.4409 2.26702 49.3944C2.31941 49.1989 2.50647 49.089 2.54026 48.8787C2.56577 48.7157 2.45805 48.4798 2.47859 48.308C2.87164 48.3667 2.85012 48.0827 2.95284 47.9298C2.98877 47.8759 3.08178 47.9198 3.13025 47.8912C3.31075 47.7824 2.9664 47.7238 2.93524 47.66C2.80242 47.3871 3.51839 47.67 3.59212 47.4454C3.5963 47.4336 3.27692 47.1345 3.26141 47.1054C3.15917 46.9184 3.40161 47.1403 3.46172 47.0753C3.57161 46.9563 3.70214 46.8982 3.66053 46.686C3.64795 46.6237 3.46042 46.4091 3.68208 46.3913C3.71114 46.3889 3.83347 46.4478 3.84494 46.4409C3.93332 46.383 3.90345 46.3173 3.83542 46.2481C3.75165 46.163 3.61002 46.0726 3.55998 45.9855C3.46935 45.8276 3.80657 45.7821 3.89822 45.7823C4.13571 45.782 3.95808 45.8827 3.97605 45.8955C4.1904 46.0472 4.19757 45.9148 4.25405 45.8349C4.64536 45.9818 4.67322 45.8488 4.31103 45.7514C4.27138 45.741 4.27902 45.8245 4.25405 45.8349C3.90737 45.6007 3.91465 45.4457 4.33029 45.4424C4.52504 45.441 4.69142 45.5867 4.70799 45.3453C4.71613 45.2347 4.43461 45.1629 4.39739 45.0472C4.31252 44.783 4.665 44.6303 4.70811 44.4128C4.72374 44.3339 4.54889 44.3456 4.55453 44.2897C4.56901 44.141 4.72595 44.0689 4.72385 43.9133C4.72348 43.8991 4.55884 43.8665 4.57366 43.8244C4.6821 43.5066 4.89217 43.2688 5.02692 42.9418C5.09214 42.7835 5.12144 42.4663 5.20387 42.3093C5.34534 42.0382 5.70864 41.7734 5.7511 41.5079C5.77948 41.335 5.61232 41.3093 5.5348 41.1999C5.38426 40.9885 5.83858 40.8993 5.90711 40.89C5.90936 40.8897 5.89168 41.0407 5.99915 40.9987C6.17994 41.0209 5.90721 40.8918 5.90711 40.89C5.95155 40.8837 6.09361 40.6244 6.08542 40.5588C6.08093 40.5231 5.92905 40.4825 5.92944 40.465C5.94292 40.0475 6.04884 39.666 6.26046 39.3215C6.26593 39.3161 6.42507 39.389 6.4359 39.3755C6.59154 39.1884 6.44497 38.9744 6.39483 38.7513C6.34481 38.528 6.43837 38.4025 6.75877 38.4044C6.77484 38.2568 6.97212 38.1117 7.08947 38.0295C7.20683 37.9474 6.89478 37.8111 6.8922 37.799C6.82933 37.5202 6.94574 37.3894 7.07074 37.2184C7.11622 37.1562 7.16276 37.0889 7.20206 37.0074C7.27268 36.8625 7.33826 36.5473 7.36411 36.3718C7.38405 36.2329 7.48759 36.1833 7.48392 36.0471C7.4835 36.0287 7.33557 35.9921 7.33192 35.9852C7.21125 35.79 7.5346 35.9825 7.60671 35.9782C7.86883 35.9631 8.01167 35.9464 7.96849 35.7374C7.95872 35.6892 7.50097 35.3904 7.49799 35.3085C7.49507 35.2022 7.66141 35.3033 7.65376 35.1903C7.65327 35.1807 7.54205 35.1417 7.56897 35.0836C7.69246 34.8138 7.86794 34.5344 7.96224 34.2412C7.97554 34.2013 7.78145 34.1879 7.79776 34.1292C7.87435 33.8543 7.98712 33.5636 8.16359 33.3323C8.20758 33.2755 8.31619 33.3602 8.35778 33.3595C8.60994 33.3535 8.33222 33.1161 8.33328 33.0939C8.35095 32.5593 8.77219 32.2989 8.80658 31.7607C8.8079 31.7312 8.53481 31.4046 8.86328 31.4177C8.88518 31.4184 9.22025 31.4347 9.04114 31.2816C9.02992 31.2721 8.85399 31.2736 8.90452 31.1807C8.95518 31.0874 8.90603 30.8938 9.12489 30.8188C9.19387 30.7951 9.53192 30.7998 9.33516 30.5879C9.32128 30.5736 8.84415 30.1866 9.24518 30.2472C9.31113 30.2574 9.70554 30.4079 9.55423 30.1842C9.52473 30.1413 9.41745 30.1633 9.38859 30.0672C9.34385 29.9199 9.50473 29.8006 9.37714 29.5942C9.35448 29.5578 9.12073 29.3573 9.35573 29.3424C9.39255 29.3401 9.51694 29.4115 9.54746 29.3713C9.69323 29.1801 9.6817 28.9233 9.84906 28.7348C9.90808 28.6679 10.11 28.7814 10.1955 28.7197C10.281 28.6581 10.3925 28.5127 10.323 28.3939C10.2534 28.275 9.87808 28.2515 9.89396 28.1144C9.896 28.0968 9.89832 28.0793 9.9009 28.0619C9.98473 27.4927 10.3541 27.0259 10.5631 26.4944C10.5949 26.4134 10.4491 26.4402 10.487 26.3187C10.6256 25.8723 10.7646 25.0615 11.1543 24.7569C11.4656 24.516 11.4982 24.958 11.661 24.7492C11.7392 24.6481 11.3784 24.3934 11.3747 24.3617C11.3343 24.0499 11.5732 23.9192 11.5978 23.6568C11.6028 23.6026 11.4241 23.5996 11.4301 23.554C11.4493 23.3982 11.5721 23.2662 11.6039 23.1219C11.6176 23.0575 11.4895 23.029 11.5176 22.9747C11.5833 22.8443 11.6746 22.7393 11.8342 22.6422C11.8488 22.6333 11.9771 22.7656 12.0155 22.6653C12.0773 22.5028 12.2581 22.3337 12.2002 22.1044C12.1826 22.0362 11.8988 21.9436 12.1341 21.8838C12.1833 21.8712 12.5145 22.0125 12.2646 21.7761C12.2232 21.7367 11.9012 21.3699 12.1942 21.3366C12.2714 21.3274 12.5758 21.3376 12.5533 21.2559C12.5492 21.2445 12.3847 21.233 12.3875 21.1721C12.4001 20.9584 12.482 20.7553 12.4984 20.5354C12.5025 20.4766 12.3186 20.5084 12.3297 20.4223C12.3599 20.1861 12.4887 19.9159 12.6064 19.7129C12.65 19.6387 12.7639 19.7349 12.78 19.7336C13.0415 19.7122 12.7453 19.559 12.7367 19.5221C12.6876 19.2942 12.8809 19.192 12.8977 19.0001C12.9027 18.9472 12.7422 18.9361 12.7319 18.9221C12.729 18.9179 12.7264 18.914 12.7241 18.9103C12.6475 18.7884 12.8798 18.9372 12.928 18.8831C13.0682 18.7272 13.1191 18.5199 13.1571 18.3288C13.1708 18.2585 12.9737 18.2815 12.988 18.219C13.0694 17.849 13.1984 17.4876 13.4016 17.1651C13.4401 17.1047 13.5612 17.1871 13.5959 17.1826C13.8386 17.153 13.5897 16.9246 13.5717 16.884C13.4894 16.6993 13.625 16.6785 13.6423 16.5424C13.7232 15.8819 14.0336 15.1371 14.2625 14.5497C14.5538 13.8053 14.8626 13.2344 15.048 12.4872C15.0598 12.4401 14.8676 12.4342 14.8755 12.3929C14.9858 11.8625 15.2073 11.368 15.3114 10.823C15.3202 10.7784 15.1327 10.7911 15.1411 10.7183C15.1563 10.5711 15.2176 10.3964 15.3132 10.2701C15.3595 10.2084 15.4775 10.3439 15.5212 10.2809C15.6232 10.1342 15.6864 9.96282 15.7084 9.78668C15.7085 9.78628 15.7085 9.78588 15.7085 9.78549C15.7152 9.71222 15.5129 9.76858 15.5379 9.67544C15.7075 9.03071 15.8568 8.40581 16.2662 7.83144C16.2943 7.79195 16.6575 7.85528 16.6171 7.74207C16.5214 7.70675 16.4064 7.67389 16.3028 7.6406C16.5187 6.68356 16.8946 5.83613 17.1842 4.89583C17.1963 4.85646 16.99 4.87144 17.0124 4.79494C17.1388 4.36372 17.2077 3.92666 17.5214 3.5301C17.5523 3.49065 17.8743 3.60725 17.8621 3.46142C17.8597 3.43567 17.8724 3.2245 17.8158 3.15263C17.807 3.14257 17.6433 3.13525 17.6571 3.06981C17.7421 2.68258 17.8827 2.32082 18.0815 1.97706C18.1138 1.92212 18.2592 2.03164 18.2836 1.9929C18.4554 1.71773 18.4242 1.35431 18.6546 1.10613C18.8095 0.940055 19.0716 1.09189 19.3789 1.06707C19.4223 1.06354 19.4626 0.944498 19.6262 0.983954C20.0375 1.08291 20.4663 1.26744 20.9067 1.366C21.0015 1.38737 20.9468 1.1967 21.1453 1.35655C21.1585 1.36755 21.2002 1.50625 21.2686 1.55678C21.3158 1.59188 21.4906 1.60214 21.5468 1.66237C21.6028 1.72257 21.4522 1.72866 21.5126 1.81911C21.574 1.90978 21.7695 1.93297 21.7534 2.07462ZM7.61505 37.6582C7.80666 37.6133 7.25281 37.3867 7.34475 37.5482C7.34985 37.5563 7.60555 37.6607 7.61505 37.6582ZM2.70965 50.027C3.00931 49.9978 2.69165 49.7541 2.46418 49.7675C2.23694 49.781 2.61874 50.0361 2.70965 50.027ZM2.29619 51.4716C2.55429 51.3992 1.78647 51.0377 1.87195 51.2717C1.87666 51.2852 2.28118 51.4758 2.29619 51.4716ZM19.3226 1.56816C19.3307 1.56887 19.3625 1.48474 19.3555 1.48052C19.1857 1.38285 19.1221 1.55111 19.3226 1.56816ZM1.89686 52.9123C2.02311 52.9102 1.9624 52.7185 1.80551 52.7211C1.67934 52.7231 1.73985 52.915 1.89686 52.9123ZM10.19 32.4878C10.199 32.4892 10.2279 32.4317 10.18 32.416C10.0256 32.3659 10.0391 32.4649 10.19 32.4878ZM0.887136 55.2233C1.06871 54.8936 1.80098 54.9707 1.56321 55.3114C1.52013 55.3731 1.4237 55.0751 1.32777 55.1354C1.15275 55.2459 1.50814 55.5294 1.22093 55.5949C1.16855 55.6064 0.875415 55.2414 0.886514 55.2223C0.88672 55.2226 0.886929 55.2229 0.887136 55.2233ZM8.30946 37.8533C8.31762 37.8541 8.35592 37.774 8.34934 37.7692C8.18862 37.6573 8.1114 37.8185 8.30946 37.8533ZM11.7639 29.0863C11.7814 29.0871 11.8627 28.8972 11.8501 28.8858C11.5907 28.6843 11.4257 29.0675 11.7639 29.0863ZM6.54945 43.5648C6.69055 43.7259 6.668 43.842 6.41659 43.8239C6.46447 43.7393 6.50244 43.6501 6.54945 43.5648ZM27.6354 28.0422C27.7432 27.9554 27.9191 27.961 28.0614 27.9987C28.1059 28.0102 28.1169 28.1176 28.1489 28.1302C28.2116 28.1546 28.2436 28.091 28.3085 28.1231C28.3303 28.1342 28.3564 28.3015 28.3781 28.3095C28.4967 28.352 28.5767 28.2841 28.6848 28.2899C29.21 28.3209 29.708 28.2461 30.2164 28.1876C30.3857 28.1676 30.6188 28.2631 30.7686 28.1548C30.7863 28.1419 30.737 28.0024 30.7377 27.9897C30.7493 27.7943 30.8054 28.0873 30.8537 28.1155C31.0453 28.2267 31.2157 28.1967 31.3459 28.1049C31.3467 28.1043 31.3474 28.1037 31.3481 28.103C31.3974 28.0579 31.269 27.7993 31.3698 27.9408C31.3768 27.9505 31.3998 28.1062 31.4207 28.1181C31.4671 28.145 31.535 28.0991 31.5678 28.1036C31.6317 28.113 31.6408 28.1091 31.6959 28.0972C31.7715 28.0823 31.8785 28.136 31.9496 28.0821C31.9646 28.0701 31.9039 27.9198 31.9246 27.8866C31.9453 27.8534 32.0203 27.8492 32.0533 27.8801C32.0864 27.911 32.1058 28.0361 32.1169 28.0631C32.209 28.2919 32.2128 27.9433 32.2221 27.9325C32.3865 27.7466 32.5992 27.8944 32.7816 27.8518C32.9196 27.8191 33.0581 27.7226 33.193 27.7016C33.355 27.6768 33.505 27.7331 33.6581 27.685C33.6743 27.6801 33.6156 27.4997 33.6352 27.4934C33.8445 27.4262 34.0583 27.4029 34.2957 27.4851C34.3196 27.4935 34.3247 27.6614 34.3505 27.6795C34.5081 27.7866 34.7726 28.0681 34.7132 27.3452C34.8061 27.356 34.9188 27.3643 35.0248 27.4924C35.083 27.563 35.0794 27.7098 35.1074 27.696C35.1121 27.6937 35.1177 27.6868 35.1247 27.6742C35.1356 27.6548 35.0885 27.5028 35.1072 27.4853C35.1857 27.4119 35.292 27.4448 35.3654 27.3487C35.3803 27.3288 35.3504 27.1903 35.351 27.1643C35.3576 26.9533 35.4884 27.2768 35.5079 27.2986C35.6582 27.46 35.7319 27.3734 35.8427 27.3592C35.8684 27.356 35.8065 27.1736 35.8302 27.1638C35.9536 27.1153 36.0881 27.1097 36.2269 27.1729C36.2578 27.1874 36.2578 27.3515 36.2739 27.3666C36.3442 27.4314 36.3092 27.1271 36.376 27.1835C36.39 27.1951 36.4048 27.3331 36.4093 27.3478C36.4801 27.5788 36.457 27.2395 36.4647 27.2307C36.5594 27.1126 36.683 27.4515 36.7809 27.3862C36.7926 27.378 36.7381 27.2087 36.7727 27.1964C37.0041 27.1129 37.2646 27.1249 37.5183 27.2328C37.5579 27.2493 37.549 27.3835 37.5535 27.3993C37.6242 27.646 37.6039 27.3055 37.6143 27.2913C37.697 27.1874 37.8207 27.4593 37.8341 27.0491C38.1688 27.1208 38.4757 26.9605 38.8096 27.0603C38.8916 27.0849 38.9751 27.1253 39.0605 27.1888C39.066 27.1925 39.0736 27.3602 39.0844 27.3668C39.2142 27.4485 39.1653 27.1916 39.2154 26.8668C39.2283 26.7852 39.3263 27.1622 39.3342 27.1898C39.3637 27.2914 39.3665 27.5415 39.375 27.5609C39.444 27.7131 39.3588 26.893 39.4333 26.8859C39.4357 26.8871 39.4398 27.0391 39.4474 27.0535C39.471 27.0989 39.4847 27.0371 39.5082 27.0875C39.5624 27.2039 39.613 27.6016 39.6581 27.3636C39.6638 27.3327 39.6101 26.868 39.6785 26.8842C39.7058 26.8911 39.8224 26.8731 39.8578 26.9007C39.8931 26.9281 39.8829 27.0802 39.8858 27.0865C39.9902 27.2779 39.9634 27.363 40.031 27.6535C40.098 27.943 40.0301 27.2451 40.042 27.1657C40.0539 27.0865 40.131 27.2454 40.1511 27.3011C40.1713 27.3569 40.159 27.4539 40.1755 27.4851C40.2841 27.6888 40.1896 27.135 40.2119 27.0218C40.265 26.7535 40.3602 27.2678 40.4297 27.3139C40.4486 27.3263 40.4255 27.2093 40.4407 27.1971C40.5012 27.1504 40.5504 27.3096 40.6124 27.1562C40.6224 27.1313 40.6604 26.8154 40.7133 27.0418C40.7207 27.0745 40.7142 27.2047 40.7429 27.2319C40.7859 27.2728 40.8599 27.2964 40.9004 27.2505C40.9303 27.2165 40.8804 27.0057 40.9248 27.0694C40.9445 27.0979 40.9191 27.2245 40.9554 27.2676C40.9915 27.3106 41.0764 27.3001 41.1087 27.2939C41.1408 27.2876 41.1137 27.1269 41.1156 27.1159C41.1279 27.0526 41.186 26.971 41.1916 26.9709C41.4707 26.9353 41.7382 27.1955 42.0064 27.0937C42.0272 27.086 42.006 26.916 42.0091 26.913C42.0787 26.8385 42.0404 27.2945 42.097 27.4443C42.0755 27.0983 42.1079 27.1598 42.1574 27.1198C42.1812 27.1003 42.1626 26.9667 42.1643 26.9529C42.1929 26.7478 42.2287 27.0099 42.2372 27.0634C42.2689 27.2604 42.2864 27.0256 42.3079 27.1573C42.3291 27.288 42.2986 27.4841 42.3473 27.4798C42.3566 27.3553 42.3082 27.0327 42.3437 26.9788C42.3987 26.895 42.4776 26.8872 42.5593 26.9087C42.6772 26.9395 42.7962 27.0306 42.8635 27.0442C42.9769 27.0675 43.0128 27.0437 43.0798 27.0869C43.2008 27.1651 43.1515 26.9257 43.2234 26.814C43.2957 26.7023 43.2722 27.2947 43.2856 27.4216C43.2988 27.5485 43.3074 27.4174 43.3219 27.487C43.3363 27.5566 43.3101 27.6437 43.3411 27.6693C43.3716 27.6949 43.4491 27.4671 43.4575 27.3339C43.4748 27.0517 43.4319 26.7567 43.5143 26.8592C43.519 26.8652 43.5068 27.0211 43.5248 27.0365C43.6674 27.1537 43.8139 27.159 43.9567 27.2633C43.9763 27.2779 43.9609 27.4512 43.9723 27.4616C44.0908 27.571 44.0451 27.2797 44.1061 26.9548C44.096 27.3864 44.1336 27.65 44.2215 27.6518C44.2744 27.6531 44.2639 27.4647 44.2973 27.3316C44.3074 27.2915 44.3459 27.4207 44.3522 27.332C44.373 27.0422 44.3352 26.7181 44.4281 26.8467C44.4322 26.8528 44.4202 27.0114 44.4342 27.021C44.5247 27.0834 44.5342 26.7803 44.6324 26.7433C44.7108 26.7143 44.844 26.8989 44.931 26.9291C44.9288 27.4142 45.0101 27.3032 45.0442 26.9688C45.1005 26.9826 45.1616 26.9639 45.2161 27.0104C45.2349 27.0262 45.2219 27.1666 45.2242 27.1818C45.2594 27.42 45.2855 27.0948 45.2979 27.0821C45.4331 26.9588 45.5347 27.2062 45.6628 26.9663C45.6673 26.9577 45.6777 26.6208 45.7089 26.8671C45.7109 26.8841 45.668 27.037 45.7269 27.0494C45.7859 27.0619 45.8952 27.2437 45.9797 27.0887C46.0001 27.0513 46.0544 26.7785 46.0923 26.9927C46.0973 27.0218 46.09 27.1184 46.0971 27.1722C46.12 27.3439 46.1388 27.0036 46.1636 27.2933C46.1836 27.5253 46.224 27.7111 46.2829 27.674C46.2976 27.6648 46.3134 27.6418 46.3303 27.6023C46.333 27.5965 46.3568 27.3269 46.3826 27.3316C46.4238 27.3394 46.4815 27.3966 46.5248 27.3956C46.5456 27.3951 46.5353 27.2272 46.539 27.2242C46.6799 27.1328 46.7788 27.2843 46.9258 27.3523C46.9525 27.3651 47.0356 27.1383 47.0842 27.3201C47.1375 27.5193 47.0591 28.3406 47.1961 28.1477C47.2511 28.0706 47.3454 27.0285 47.4292 27.5718C47.6244 27.4427 47.7844 27.7242 47.9787 27.5385C47.9874 27.5303 48.0229 27.2398 48.0428 27.2444C48.0722 27.2517 48.0843 27.3884 48.1052 27.398C48.1926 27.4417 48.2778 27.3278 48.3635 27.3488C48.396 27.3564 48.3804 27.4968 48.4181 27.5059C48.4559 27.5149 48.4876 27.3304 48.5364 27.4217C48.5732 27.4912 48.5995 27.8713 48.6499 27.9173C48.6648 27.5437 48.7003 27.5526 48.7676 27.4562C48.7806 27.4375 48.772 27.307 48.7783 27.2915C48.8044 27.2253 48.8225 27.3338 48.8476 27.2617C48.8537 27.2443 48.8585 27.1168 48.8638 27.0954C48.9086 26.9088 48.9614 27.1981 48.9704 27.2485C49.005 27.4398 49.0305 27.2745 49.0596 27.3504C49.0887 27.4263 49.0377 27.518 49.0732 27.5647C49.1478 27.6614 49.2453 27.6444 49.3218 27.6532C49.3524 27.6559 49.338 27.4848 49.3425 27.4813C49.4077 27.4405 49.465 27.6242 49.5137 27.2864C49.5235 28.1652 49.5555 27.2028 49.6402 27.382C49.6469 27.3965 49.6395 27.8116 49.6094 27.8714C49.5793 27.9311 49.5426 27.7998 49.5006 27.8933C49.4907 27.9152 49.4237 28.3018 49.4158 28.3251C49.3536 28.5069 49.3698 27.8868 49.3682 27.8527C49.3492 27.484 49.2701 27.9003 49.2526 27.9286C49.1729 28.0584 49.1096 27.9687 49.0417 28.061C48.9972 28.1206 48.9783 28.5265 48.9458 28.5128C48.838 28.4678 48.8198 27.9 48.7 28.3875C48.6744 28.4915 48.6807 28.9361 48.6144 28.5844C48.6103 28.5622 48.563 28.241 48.5226 28.4418C48.5175 28.4671 48.5133 28.5965 48.5074 28.6071C48.4679 28.6762 48.4466 28.5723 48.4046 28.6203C48.3632 28.6684 48.3107 28.7403 48.2652 28.6949C48.2377 28.6678 48.2091 28.4256 48.1974 28.3662C48.1644 28.195 48.1148 28.4724 48.0975 28.2658C48.08 28.0582 48.1365 27.7455 48.0778 27.6099C48.0652 27.9459 48.0493 28.2907 48.0353 28.6286C47.8993 28.6126 47.769 28.5 47.6335 28.5112C47.6167 28.5129 47.6288 28.694 47.6107 28.7005C47.5336 28.7272 47.4688 28.5965 47.3878 28.6458C47.325 28.6846 47.2528 28.8742 47.1877 28.9209C47.1578 28.5353 47.0596 28.6637 46.9918 28.627C46.968 28.6143 46.9719 28.5116 46.9555 28.4777C46.8937 28.3523 46.9166 28.6929 46.8978 28.746C46.818 28.9727 46.8262 28.2031 46.7348 28.2203C46.7299 28.221 46.6629 28.6299 46.6544 28.6553C46.5999 28.8209 46.6487 28.5124 46.6171 28.4815C46.5595 28.425 46.5205 28.3263 46.4498 28.4452C46.4292 28.4805 46.3772 28.7353 46.3419 28.5369C46.3372 28.511 46.3422 28.3754 46.3383 28.3674C46.306 28.3076 46.2865 28.3601 46.2708 28.4492C46.2514 28.559 46.2379 28.7242 46.2135 28.8035C46.1692 28.9471 46.1094 28.6521 46.0965 28.5671C46.0642 28.3474 46.125 28.4738 46.1269 28.4523C46.1527 28.1966 46.1044 28.24 46.0674 28.2178C46.0677 27.8 46.0155 27.8244 46.0293 28.1966C46.0309 28.2372 46.0602 28.1986 46.0674 28.2178C46.0293 28.6272 45.9724 28.679 45.9147 28.2952C45.8876 28.1154 45.9176 27.9064 45.8279 27.9819C45.7872 28.0161 45.7996 28.3039 45.7634 28.3819C45.6809 28.56 45.5789 28.2907 45.4959 28.3324C45.4658 28.3475 45.4938 28.5052 45.4732 28.5209C45.4192 28.5633 45.371 28.4448 45.3153 28.505C45.3102 28.5107 45.3216 28.6756 45.3044 28.6776C45.1742 28.696 45.0618 28.5901 44.9273 28.587C44.862 28.5856 44.7472 28.6766 44.6793 28.6585C44.5615 28.628 44.4158 28.389 44.3161 28.448C44.2513 28.4857 44.2668 28.6505 44.24 28.763C44.1883 28.9811 44.0904 28.5921 44.0769 28.5318C44.0765 28.5298 44.1318 28.4904 44.1012 28.4061C44.0822 28.2299 44.0775 28.531 44.0769 28.5318C44.0688 28.4929 43.9554 28.4567 43.9334 28.4885C43.9214 28.5059 43.9302 28.662 43.9239 28.6681C43.7753 28.8097 43.6272 28.8517 43.4755 28.7816C43.4728 28.7785 43.4735 28.6037 43.4672 28.5986C43.3788 28.5226 43.3263 28.7375 43.2568 28.866C43.1873 28.9944 43.1296 28.9533 43.0792 28.6546C43.0257 28.6937 42.9442 28.5632 42.8969 28.484C42.8497 28.4049 42.8532 28.745 42.8495 28.7519C42.7643 28.9122 42.7009 28.8516 42.6211 28.7976C42.5923 28.778 42.5615 28.7592 42.527 28.7523C42.4655 28.7394 42.3469 28.793 42.2829 28.8328C42.2324 28.8647 42.1981 28.7863 42.1526 28.8392C42.1465 28.8462 42.1592 28.9972 42.1575 29.0032C42.1121 29.1863 42.1222 28.8154 42.1085 28.7498C42.0591 28.5113 42.028 28.3844 41.9641 28.5004C41.9492 28.527 41.9269 29.0615 41.8999 29.094C41.8645 29.1352 41.8698 28.9437 41.8329 28.9917C41.8298 28.9957 41.836 29.1134 41.8117 29.1093C41.6994 29.092 41.5748 29.0296 41.4604 29.0476C41.4447 29.0496 41.475 29.2352 41.4524 29.2412C41.3464 29.2691 41.2292 29.2689 41.1201 29.1879C41.0932 29.1674 41.1012 29.0357 41.0933 28.9973C41.0446 28.7646 41.0172 29.1087 41.0097 29.1157C40.8314 29.2915 40.6633 28.9929 40.4799 29.154C40.4697 29.1634 40.4165 29.5346 40.3567 29.2241C40.3528 29.2035 40.2922 28.8858 40.2775 29.1073C40.2766 29.1212 40.3116 29.2844 40.2715 29.2706C40.2316 29.2569 40.1777 29.372 40.1095 29.1951C40.0881 29.1394 40.0213 28.8232 39.9918 29.0821C39.9896 29.1002 39.9609 29.6826 39.8993 29.2877C39.8892 29.2227 39.8576 28.8019 39.8158 29.0227C39.8079 29.0655 39.837 29.1574 39.8118 29.2186C39.7734 29.3129 39.7018 29.2058 39.662 29.3982C39.6551 29.4322 39.6395 29.7213 39.5856 29.508C39.5771 29.4746 39.5741 29.3334 39.5547 29.3194C39.4623 29.2521 39.3822 29.3544 39.2862 29.266C39.2521 29.235 39.2452 29.0069 39.207 28.9494C39.1687 28.8919 39.0977 28.8401 39.0748 28.9471C39.0519 29.0541 39.1258 29.4114 39.0789 29.4454C39.0729 29.4498 39.0669 29.4539 39.0608 29.4577C38.8618 29.5825 38.6318 29.4056 38.4174 29.4007C38.3847 29.3999 38.4267 29.5257 38.3798 29.5338C38.2067 29.5641 37.9233 29.7232 37.7355 29.4703C37.5845 29.2677 37.7149 29.0802 37.6096 29.0037C37.5586 28.9674 37.5676 29.3921 37.5587 29.4068C37.4721 29.555 37.3727 29.3804 37.2856 29.4509C37.2677 29.4655 37.3115 29.632 37.296 29.6426C37.2435 29.6802 37.1726 29.6135 37.1207 29.6353C37.0974 29.6456 37.1212 29.7741 37.0974 29.7674C37.0408 29.7531 36.9855 29.706 36.9146 29.593C36.9081 29.5827 36.9157 29.4171 36.8749 29.4173C36.8092 29.418 36.7101 29.3112 36.6553 29.4463C36.6391 29.4868 36.6854 29.7817 36.6056 29.5857C36.5889 29.5448 36.5444 29.1889 36.5386 29.5036C36.5373 29.5559 36.5134 29.9831 36.4247 29.7248C36.4013 29.6568 36.3228 29.3725 36.3039 29.4224C36.3015 29.4302 36.3422 29.586 36.323 29.6051C36.2547 29.6696 36.1712 29.6664 36.1006 29.7295C36.0818 29.7467 36.1414 29.9048 36.1126 29.9251C36.0331 29.9814 35.9192 29.9586 35.8262 29.9225C35.7918 29.9089 35.7889 29.7698 35.784 29.7555C35.7046 29.5225 35.7412 29.8497 35.7327 29.8707C35.6783 29.997 35.5935 29.8558 35.5315 29.9088C35.5143 29.923 35.5565 30.0744 35.5552 30.0888C35.5548 30.093 35.5544 30.0968 35.5539 30.1002C35.5395 30.214 35.5178 29.9476 35.488 29.9225C35.402 29.8493 35.3253 29.8766 35.2593 29.9096C35.2349 29.922 35.298 30.0948 35.2758 30.1038C35.145 30.1607 34.9993 30.1716 34.8449 30.1005C34.8157 30.0868 34.8041 29.9465 34.7925 29.9163C34.7118 29.7046 34.7181 30.0143 34.7119 30.0452C34.683 30.1863 34.6369 30.0695 34.5925 30.1022C34.3777 30.2635 34.061 30.2476 33.8262 30.2479C33.5161 30.25 33.2573 30.1729 32.9831 30.2732C32.9656 30.2794 33.0266 30.4561 33.012 30.4638C32.8209 30.5552 32.6118 30.5311 32.4249 30.6327C32.4095 30.6407 32.4754 30.8061 32.4523 30.8247C32.405 30.864 32.3346 30.8717 32.2662 30.8308C32.233 30.8112 32.2319 30.6555 32.1991 30.6387C32.1221 30.5996 32.0527 30.6042 31.9965 30.6477C31.9963 30.6478 31.9962 30.6479 31.9961 30.648C31.9735 30.6683 32.0575 30.831 32.0232 30.8419C31.7904 30.9198 31.5576 31.0126 31.2577 30.8508C31.2371 30.8397 31.128 30.4895 31.1107 30.5669C31.1343 30.6659 31.1654 30.7814 31.1923 30.8868C30.8561 31.0374 30.4793 31.0094 30.1207 31.0904C30.1055 31.0938 30.1841 31.2734 30.1551 31.281C29.9853 31.3261 29.8455 31.4221 29.6213 31.286C29.5992 31.2728 29.5129 30.9421 29.4774 31.0062C29.4713 31.0178 29.4088 31.0834 29.4101 31.1603C29.4106 31.1718 29.4689 31.3209 29.446 31.3324C29.3109 31.397 29.1556 31.4048 28.9894 31.3525C28.9624 31.3438 28.938 31.1739 28.9183 31.1663C28.7791 31.1136 28.6918 31.2744 28.5375 31.1598C28.4339 31.0826 28.3765 30.7934 28.2536 30.5286C28.2362 30.4913 28.1883 30.499 28.1372 30.3389C28.0087 29.9361 27.8972 29.4862 27.7575 29.0577C27.7275 28.9654 27.695 29.0845 27.6642 28.8488C27.6623 28.8329 27.6853 28.7447 27.6735 28.6651C27.6654 28.6101 27.6019 28.4507 27.5975 28.3785C27.5932 28.3063 27.6521 28.4382 27.6546 28.351C27.6569 28.2629 27.5892 28.0801 27.6354 28.0422ZM42.6836 28.1306C42.6361 27.9687 42.6491 28.5668 42.69 28.4223C42.6919 28.4146 42.686 28.1385 42.6836 28.1306ZM47.783 28.0491C47.7355 27.7838 47.6872 28.1706 47.72 28.3753C47.7528 28.5799 47.7974 28.1295 47.783 28.0491ZM48.3642 27.8742C48.3054 27.6642 48.2679 28.5116 48.3433 28.3425C48.3477 28.333 48.3677 27.8864 48.3642 27.8742ZM28.4125 30.3949C28.4097 30.3875 28.3745 30.3899 28.376 30.3977C28.4131 30.5849 28.4833 30.5799 28.4125 30.3949ZM48.9396 27.6842C48.9234 27.5688 48.8602 27.699 48.8803 27.8425C48.8965 27.958 48.9598 27.8277 48.9396 27.6842ZM40.4524 27.605C40.4511 27.5962 40.426 27.5899 40.4301 27.6402C40.4435 27.8019 40.4742 27.7538 40.4524 27.605ZM49.9112 27.7121C49.7678 27.6743 49.7086 26.9706 49.863 27.056C49.891 27.0715 49.7924 27.2768 49.8261 27.3414C49.8878 27.4591 49.9503 27.0214 50.0088 27.2597C50.0193 27.3034 49.9192 27.7159 49.9109 27.7131C49.911 27.7128 49.9111 27.7125 49.9112 27.7121ZM42.6365 27.4132C42.6354 27.4053 42.6008 27.3989 42.6003 27.4068C42.5879 27.5972 42.6572 27.6102 42.6365 27.4132ZM38.9854 27.3608C38.9819 27.3442 38.901 27.3366 38.9 27.3524C38.891 27.6655 39.0533 27.6818 38.9854 27.3608ZM44.9324 26.942C44.9698 26.751 45.0148 26.7286 45.0441 26.9686C45.007 26.9557 44.9696 26.9538 44.9324 26.942ZM28.6155 44.3309C28.7475 44.3963 28.829 44.5643 28.8664 44.7146C28.8783 44.7616 28.7868 44.8191 28.7916 44.8549C28.8012 44.9248 28.8749 44.9267 28.8801 45.003C28.8812 45.0284 28.7435 45.1275 28.7476 45.1515C28.7707 45.2827 28.8738 45.3278 28.9254 45.4319C29.1777 45.9426 29.5164 46.3651 29.8686 46.7993C29.9837 46.9415 30.0416 47.2016 30.2288 47.2802C30.2505 47.289 30.3392 47.1706 30.3504 47.1643C30.5232 47.0695 30.3083 47.2765 30.3139 47.3346C30.3373 47.5647 30.4679 47.6973 30.6308 47.7623C30.6318 47.7627 30.6328 47.763 30.6338 47.7633C30.7039 47.7817 30.8367 47.5238 30.7837 47.6918C30.7802 47.7034 30.665 47.8108 30.6687 47.836C30.6774 47.8929 30.7584 47.9249 30.776 47.9559C30.8095 48.0165 30.8187 48.0222 30.8643 48.0626C30.9258 48.119 30.952 48.2416 31.0439 48.2709C31.064 48.2769 31.1457 48.1365 31.1867 48.1348C31.2277 48.133 31.2818 48.1944 31.2792 48.2409C31.2767 48.2874 31.1886 48.3784 31.1742 48.404C31.0527 48.6194 31.3375 48.4143 31.3517 48.4149C31.6107 48.4387 31.6375 48.7027 31.8043 48.8277C31.9298 48.9211 32.1005 48.9676 32.2142 49.06C32.3514 49.172 32.424 49.329 32.5734 49.413C32.589 49.4219 32.678 49.2542 32.6972 49.2648C32.8998 49.3762 33.0821 49.5204 33.2089 49.7507C33.2216 49.774 33.108 49.8983 33.1156 49.93C33.1616 50.1202 33.1957 50.5235 33.6371 49.9465C33.7052 50.0198 33.7905 50.1033 33.7931 50.2723C33.7948 50.3655 33.695 50.4739 33.7278 50.4829C33.7334 50.4844 33.7427 50.4831 33.7569 50.4784C33.779 50.4712 33.8393 50.3238 33.8664 50.3233C33.98 50.3212 34.0486 50.418 34.1724 50.3924C34.1977 50.3868 34.2606 50.2598 34.2776 50.24C34.4161 50.0803 34.3216 50.417 34.3254 50.447C34.352 50.6707 34.471 50.6505 34.5761 50.709C34.6005 50.7226 34.6571 50.5381 34.6835 50.545C34.8191 50.5831 34.9393 50.6603 35.0254 50.7947C35.0444 50.8251 34.9497 50.9595 34.9553 50.9815C34.9816 51.077 35.1246 50.8061 35.1518 50.8917C35.1577 50.9095 35.0927 51.0322 35.0884 51.047C35.0217 51.2797 35.1934 50.9857 35.2048 50.9827C35.3557 50.9394 35.2811 51.2935 35.4097 51.2952C35.425 51.295 35.4665 51.1216 35.5052 51.1308C35.7628 51.1903 35.9961 51.3378 36.189 51.5619C36.2189 51.5964 36.145 51.7093 36.1415 51.7254C36.0903 51.9776 36.2365 51.6691 36.2531 51.6617C36.3819 51.6117 36.3765 51.9135 36.5805 51.5562C36.8753 51.782 37.2444 51.772 37.5421 52C37.6152 52.0561 37.6846 52.1269 37.7489 52.2195C37.7532 52.2251 37.698 52.3836 37.7068 52.3941C37.8125 52.5213 37.8578 52.2635 38.0264 51.9793C38.0683 51.9078 38.0345 52.2969 38.0335 52.3258C38.0284 52.4319 37.9422 52.6669 37.9443 52.6883C37.9643 52.857 38.164 52.057 38.2417 52.0769C38.2439 52.0789 38.1956 52.2232 38.1984 52.2395C38.2072 52.2906 38.2426 52.2375 38.2498 52.2932C38.2659 52.422 38.1856 52.815 38.3141 52.6067C38.3305 52.5795 38.4293 52.1223 38.4944 52.161C38.5203 52.1769 38.6472 52.1991 38.6756 52.2368C38.7039 52.2745 38.6455 52.4156 38.6465 52.4225C38.6975 52.639 38.6425 52.711 38.6258 53.0098C38.6094 53.3075 38.7509 52.6208 38.7875 52.5488C38.8239 52.4771 38.8578 52.6531 38.863 52.7127C38.868 52.7724 38.8258 52.8612 38.8343 52.8962C38.8924 53.1253 38.9534 52.566 39.0104 52.4645C39.1436 52.2238 39.0969 52.7452 39.1608 52.8104C39.1779 52.8279 39.1856 52.7086 39.2054 52.7014C39.2835 52.6742 39.2941 52.8418 39.4029 52.7116C39.4215 52.6905 39.5433 52.3958 39.541 52.6288C39.5406 52.6624 39.4997 52.7865 39.5239 52.8207C39.5599 52.8719 39.6349 52.9146 39.6906 52.8807C39.7316 52.8556 39.7294 52.6382 39.7618 52.7115C39.7762 52.7442 39.7174 52.8605 39.7466 52.9117C39.7757 52.9629 39.872 52.9742 39.9091 52.9762C39.9461 52.9781 39.9536 52.8151 39.9584 52.8048C39.9867 52.7463 40.0687 52.681 40.0748 52.6822C40.3821 52.7135 40.6238 53.0255 40.942 52.9766C40.9663 52.9729 40.9731 52.8016 40.977 52.7993C41.0659 52.7388 40.9439 53.1807 40.9808 53.3387C41.0172 52.994 41.0423 53.0606 41.1039 53.0301C41.1335 53.0151 41.1354 52.8801 41.1396 52.8668C41.2052 52.6696 41.2007 52.9343 41.2016 52.9886C41.2044 53.1886 41.2622 52.9598 41.2647 53.0935C41.2675 53.2262 41.2014 53.4144 41.2572 53.4186C41.2873 53.2973 41.285 52.9706 41.3328 52.9234C41.4069 52.8498 41.4947 52.8549 41.5821 52.8889C41.7093 52.9379 41.827 53.0449 41.9004 53.0678C42.0234 53.1065 42.0665 53.0875 42.1362 53.139C42.2626 53.2318 42.2353 52.9879 42.3275 52.8855C42.42 52.783 42.3293 53.3691 42.3305 53.4969C42.3317 53.6246 42.3559 53.4953 42.3649 53.5662C42.374 53.6371 42.3344 53.7205 42.3674 53.7496C42.4012 53.7788 42.5139 53.561 42.536 53.4293C42.5837 53.1503 42.5654 52.8523 42.6462 52.9628C42.6509 52.9694 42.6222 53.1232 42.6407 53.1404C42.7884 53.2719 42.9529 53.2909 43.1066 53.4069C43.1277 53.4231 43.097 53.5946 43.1092 53.6059C43.2372 53.7248 43.2073 53.4305 43.2998 53.1113C43.2577 53.541 43.2835 53.8071 43.3836 53.8152C43.444 53.8203 43.444 53.6315 43.49 53.501C43.5038 53.4617 43.5396 53.5931 43.552 53.505C43.5925 53.217 43.5693 52.8912 43.6651 53.0253C43.6693 53.0317 43.6471 53.1893 43.6622 53.1997C43.7604 53.2674 43.7869 52.9653 43.8977 52.9336C43.9839 52.9087 44.1319 53.0996 44.2276 53.1331C44.2077 53.6178 44.3041 53.5101 44.3523 53.177C44.4147 53.1928 44.4834 53.1761 44.5433 53.2241C44.5639 53.2404 44.546 53.3804 44.5482 53.3957C44.5823 53.6348 44.6194 53.3103 44.6334 53.2979C44.7853 53.178 44.9023 53.4273 45.0514 53.1891C45.0568 53.1805 45.0711 52.8438 45.1038 53.0904C45.106 53.1074 45.057 53.2599 45.1226 53.2729C45.1881 53.286 45.3107 53.4685 45.4053 53.3134C45.4283 53.2761 45.4875 53.0032 45.531 53.2173C45.5368 53.2464 45.5292 53.3429 45.5375 53.3968C45.5645 53.5684 45.5829 53.228 45.6141 53.5176C45.6392 53.7495 45.6885 53.935 45.757 53.8973C45.7741 53.888 45.7922 53.8648 45.8114 53.8251C45.8145 53.8194 45.8382 53.5495 45.8681 53.5539C45.9156 53.5611 45.985 53.6174 46.0325 53.6157C46.0558 53.6147 46.0409 53.4471 46.0449 53.444C46.2011 53.3501 46.3132 53.4991 46.4841 53.5628C46.5155 53.5748 46.6032 53.3455 46.6658 53.5256C46.7349 53.7227 46.6743 54.5464 46.8282 54.3485C46.8913 54.2693 46.9546 53.2243 47.0712 53.7634C47.2808 53.6259 47.4852 53.8985 47.6982 53.7017C47.7078 53.693 47.7313 53.401 47.7543 53.4043C47.7885 53.4099 47.8108 53.5455 47.8355 53.5538C47.9411 53.592 48.0251 53.473 48.1227 53.4881C48.1595 53.4936 48.1511 53.6347 48.1951 53.6412C48.2391 53.6475 48.2622 53.4613 48.3246 53.5488C48.3717 53.6155 48.4297 53.9928 48.4916 54.0348C48.4808 53.6611 48.5222 53.6674 48.5921 53.5661C48.6055 53.5464 48.5856 53.417 48.5917 53.401C48.6164 53.333 48.6455 53.4398 48.6686 53.3659C48.6742 53.3481 48.6697 53.2205 48.6741 53.1988C48.7104 53.0093 48.7934 53.2935 48.8079 53.3429C48.863 53.5308 48.8788 53.364 48.9184 53.4373C48.958 53.5105 48.9072 53.6061 48.9515 53.6497C49.0411 53.74 49.1512 53.7147 49.2395 53.7167C49.2748 53.7167 49.2433 53.5475 49.2482 53.5436C49.3187 53.4972 49.4008 53.675 49.4257 53.334C49.5167 54.2085 49.4657 53.2469 49.5784 53.4175C49.5873 53.4313 49.6176 53.8455 49.5886 53.9078C49.5597 53.9702 49.5054 53.8428 49.4659 53.9397C49.4565 53.9625 49.4145 54.3537 49.4074 54.3777C49.3517 54.5645 49.3151 53.9452 49.3102 53.9113C49.256 53.5457 49.2022 53.9675 49.1843 53.9972C49.1027 54.1335 49.0257 54.0494 48.9565 54.147C48.91 54.2101 48.9214 54.6163 48.8822 54.6054C48.7521 54.5693 48.687 54.0046 48.5854 54.5001C48.5635 54.6057 48.6047 55.0486 48.5004 54.7029C48.4937 54.6811 48.4148 54.3642 48.3825 54.5675C48.3784 54.5931 48.3829 54.7224 48.3768 54.7335C48.3355 54.8053 48.3031 54.7032 48.2574 54.754C48.2117 54.8049 48.1571 54.8803 48.1019 54.838C48.0686 54.8127 48.0201 54.5729 48.003 54.5144C47.9553 54.3456 47.9149 54.6257 47.8813 54.4206C47.8478 54.2144 47.8936 53.8988 47.8171 53.767C47.8234 54.1032 47.8264 54.4484 47.831 54.7866C47.6691 54.779 47.5091 54.674 47.3502 54.6921C47.3305 54.6946 47.3543 54.875 47.3333 54.8824C47.2442 54.9129 47.1641 54.7854 47.073 54.8382C47.0027 54.8798 46.9274 55.0723 46.8501 55.1215C46.7983 54.7374 46.6869 54.8693 46.6046 54.8348C46.5758 54.8229 46.5769 54.7202 46.5563 54.6868C46.4788 54.5634 46.5173 54.9031 46.4966 54.9568C46.4077 55.1858 46.3952 54.4163 46.2906 54.4357C46.2852 54.4365 46.2185 54.847 46.209 54.8725C46.1497 55.0393 46.1988 54.7298 46.1615 54.6996C46.0933 54.6443 46.0469 54.5463 45.967 54.6664C45.9432 54.702 45.885 54.9575 45.8394 54.7596C45.8334 54.7337 45.8373 54.5981 45.8324 54.5901C45.7931 54.5307 45.7706 54.5834 45.7531 54.6726C45.7314 54.7826 45.7173 54.9479 45.6888 55.0274C45.6371 55.1714 45.5613 54.8766 45.5464 54.7917C45.5072 54.5721 45.5788 54.6983 45.5813 54.6768C45.6095 54.4209 45.5528 54.4645 45.5101 54.4425C45.5079 54.0247 45.4483 54.0492 45.4659 54.4213C45.468 54.4619 45.5017 54.4233 45.5101 54.4425C45.4687 54.852 45.4009 54.9038 45.3333 54.5199C45.3018 54.3399 45.3364 54.1311 45.2332 54.2062C45.1863 54.2401 45.1998 54.5279 45.1575 54.6057C45.0622 54.7831 44.9404 54.5125 44.841 54.5525C44.8048 54.567 44.8362 54.7252 44.8112 54.7406C44.7449 54.7818 44.6904 54.6623 44.6237 54.721C44.6177 54.7266 44.6277 54.8917 44.6073 54.8933C44.4526 54.9082 44.3227 54.7985 44.1646 54.7898C44.0887 54.7858 43.9424 54.871 43.8625 54.8492C43.7227 54.8125 43.5636 54.5647 43.443 54.6165C43.3642 54.6496 43.3721 54.8151 43.3327 54.9254C43.257 55.1394 43.1648 54.7432 43.1528 54.682C43.1525 54.6799 43.2225 54.6452 43.1914 54.5586C43.181 54.3813 43.1537 54.6812 43.1528 54.682C43.1448 54.6425 43.0124 54.5967 42.9838 54.6264C42.9682 54.6426 42.9662 54.799 42.9582 54.8045C42.7687 54.9322 42.5849 54.9588 42.4103 54.8716C42.4074 54.8682 42.426 54.6944 42.419 54.6886C42.3215 54.6028 42.2339 54.8099 42.1351 54.9287C42.0359 55.0474 41.9692 54.9986 41.9456 54.6951C41.8763 54.7266 41.7951 54.5855 41.7497 54.5001C41.7043 54.4147 41.6625 54.7523 41.657 54.7585C41.533 54.9044 41.4632 54.834 41.3744 54.7674C41.3422 54.7431 41.3077 54.7193 41.2671 54.7065C41.1947 54.6833 41.0428 54.7149 40.9586 54.7418C40.8919 54.7637 40.8642 54.6799 40.8001 54.723C40.7914 54.7287 40.7798 54.8799 40.7767 54.8854C40.6885 55.0566 40.7676 54.6936 40.7629 54.6263C40.7464 54.3816 40.7345 54.2509 40.6359 54.3516C40.6135 54.3747 40.4842 54.8949 40.444 54.9207C40.3922 54.9534 40.4365 54.7667 40.3819 54.8056C40.3772 54.8088 40.3613 54.9256 40.3323 54.9161C40.1972 54.8738 40.0583 54.7833 39.9153 54.7723C39.8958 54.7703 39.891 54.9589 39.8622 54.9591C39.7256 54.9596 39.5779 54.9275 39.4639 54.8184C39.4359 54.791 39.4788 54.6656 39.4787 54.6262C39.4781 54.3872 39.3581 54.7127 39.3468 54.7172C39.0818 54.8356 38.9584 54.4964 38.6887 54.5904C38.6744 54.5963 38.4959 54.9328 38.5172 54.6159C38.5184 54.5948 38.5431 54.2712 38.457 54.4773C38.4516 54.4901 38.4436 54.6578 38.3989 54.6307C38.3542 54.6035 38.2531 54.694 38.226 54.5012C38.2173 54.4404 38.241 54.1168 38.1199 54.3507C38.1125 54.3673 37.8793 54.9058 37.9382 54.5097C37.948 54.4445 38.0539 54.0361 37.9284 54.228C37.9042 54.2652 37.9075 54.363 37.8558 54.4107C37.776 54.4843 37.7278 54.3555 37.6103 54.5193C37.5899 54.5484 37.4644 54.8117 37.4771 54.5903C37.4792 54.5556 37.5276 54.4227 37.5095 54.4016C37.4222 54.3004 37.2859 54.3609 37.2046 54.2369C37.176 54.1932 37.257 53.9795 37.2347 53.9097C37.2122 53.84 37.1509 53.7613 37.0812 53.8493C37.0113 53.9373 36.9541 54.2988 36.8839 54.3084C36.8749 54.3096 36.8659 54.3105 36.8571 54.3112C36.5643 54.3323 36.3616 54.0567 36.1154 53.9412C36.0775 53.9234 36.0684 54.0575 36.0092 54.0399C35.7898 53.9759 35.3735 53.9526 35.2894 53.6228C35.2233 53.3596 35.4682 53.2748 35.3903 53.1476C35.3535 53.0871 35.1395 53.4559 35.1212 53.4629C34.9431 53.5367 34.9258 53.3273 34.7907 53.3325C34.7626 53.3336 34.719 53.5009 34.6957 53.4999C34.6154 53.4981 34.5732 53.3969 34.5024 53.3811C34.4705 53.3744 34.4234 53.4964 34.4003 53.4752C34.3445 53.4259 34.3095 53.3501 34.2976 53.2104C34.2966 53.1977 34.4016 53.0668 34.3572 53.0401C34.2849 52.9971 34.2426 52.8446 34.1031 52.9167C34.0616 52.9386 33.9325 53.2078 33.9654 52.9951C33.9722 52.9506 34.1418 52.6345 33.9438 52.883C33.9115 52.9247 33.6191 53.2473 33.6842 52.979C33.7014 52.9084 33.7962 52.6281 33.7454 52.6542C33.738 52.6587 33.6831 52.8106 33.6507 52.8119C33.5374 52.8138 33.4513 52.7507 33.3363 52.7476C33.3054 52.747 33.2656 52.9134 33.2217 52.9076C33.101 52.8921 32.9947 52.7876 32.9219 52.6887C32.8952 52.652 32.9859 52.5449 32.9904 52.5303C33.0655 52.2941 32.8832 52.5686 32.8598 52.5776C32.7175 52.63 32.7267 52.4583 32.6275 52.4489C32.6002 52.4459 32.5383 52.5908 32.527 52.6005C32.5237 52.6032 32.5207 52.6056 32.5178 52.6078C32.4239 52.68 32.5867 52.4668 32.574 52.4249C32.5382 52.3033 32.4443 52.2633 32.3544 52.2334C32.3212 52.2226 32.2618 52.3984 32.233 52.3868C32.0606 52.3212 31.905 52.2057 31.8096 52.0276C31.7918 51.9938 31.8839 51.8865 31.895 51.8558C31.9744 51.6418 31.7533 51.8624 31.7239 51.878C31.591 51.9504 31.6337 51.8309 31.5671 51.8152C31.2363 51.7382 30.9641 51.4531 30.7514 51.2386C30.4771 50.9625 30.3192 50.6778 30.0133 50.4836C29.994 50.4711 29.8978 50.632 29.8796 50.623C29.6503 50.5008 29.494 50.2817 29.2641 50.1609C29.2453 50.1506 29.1562 50.3058 29.1221 50.2937C29.0515 50.27 28.9896 50.2058 28.972 50.1172C28.9632 50.0743 29.096 49.9884 29.0853 49.9476C29.0606 49.8526 29.0035 49.7874 28.9224 49.7549C28.9222 49.7548 28.922 49.7548 28.9218 49.7547C28.8867 49.7432 28.8102 49.9127 28.7741 49.8844C28.5273 49.6953 28.2798 49.517 28.2043 49.1316C28.1995 49.1054 28.4336 48.8229 28.3535 48.8448C28.2823 48.9174 28.2014 49.0056 28.1268 49.0846C27.7605 48.8275 27.5255 48.4268 27.2265 48.1031C27.2137 48.0893 27.1002 48.2502 27.0746 48.2241C26.9245 48.0713 26.7446 47.9665 26.7331 47.6789C26.7318 47.6505 26.9836 47.4194 26.9033 47.4112C26.8889 47.41 26.791 47.3747 26.7208 47.4088C26.7104 47.4142 26.608 47.5376 26.5835 47.5189C26.4426 47.4084 26.3397 47.2483 26.2924 47.0566C26.2848 47.0252 26.4286 46.9301 26.4243 46.9068C26.3931 46.7427 26.1932 46.7182 26.2131 46.5132C26.2271 46.3757 26.4653 46.2008 26.6446 45.9692C26.6699 45.9366 26.6367 45.8911 26.7583 45.7749C27.0639 45.4828 27.4221 45.1884 27.7457 44.8746C27.8154 44.8071 27.6893 44.8246 27.8909 44.6972C27.9045 44.6888 27.9972 44.6745 28.0644 44.6299C28.1108 44.5991 28.2254 44.4712 28.2894 44.4368C28.3534 44.4023 28.2618 44.5143 28.3429 44.4801C28.4246 44.445 28.5582 44.3031 28.6155 44.3309ZM41.5471 54.1176C41.5148 53.9498 41.4425 54.5437 41.5126 54.4073C41.5161 54.4 41.5488 54.1258 41.5471 54.1176ZM47.5004 54.2227C47.4306 53.9604 47.3952 54.3491 47.4447 54.5519C47.4946 54.7544 47.5219 54.3022 47.5004 54.2227ZM48.1589 54.0124C48.0789 53.8067 48.0927 54.6549 48.167 54.4811C48.1714 54.4713 48.1636 54.0243 48.1589 54.0124ZM26.8557 46.0754C26.861 46.0695 26.8395 46.0351 26.8331 46.0397C26.6796 46.1537 26.723 46.2227 26.8557 46.0754ZM48.8078 53.7798C48.7798 53.6661 48.7174 53.801 48.752 53.9425C48.7799 54.0563 48.8426 53.9213 48.8078 53.7798ZM39.104 53.0968C39.105 53.0879 39.0789 53.0743 39.0693 53.1238C39.0382 53.2831 39.0864 53.2463 39.104 53.0968ZM49.9193 53.72C49.751 53.6966 49.6177 53.0014 49.8008 53.0716C49.8341 53.0843 49.7417 53.2983 49.7863 53.3593C49.8681 53.4705 49.8963 53.0285 49.9862 53.26C50.0026 53.3024 49.9291 53.7229 49.9191 53.721C49.9192 53.7207 49.9193 53.7204 49.9193 53.72ZM41.5956 53.4001C41.5955 53.3922 41.5572 53.3805 41.5554 53.3881C41.5133 53.5746 41.5911 53.5984 41.5956 53.4001ZM37.6058 52.3489C37.6083 52.3321 37.5275 52.2922 37.5204 52.3063C37.3879 52.5912 37.5541 52.6736 37.6058 52.3489ZM44.2286 53.1461C44.277 52.9567 44.3269 52.9359 44.3521 53.1768C44.3112 53.1627 44.2696 53.1593 44.2286 53.1461Z" fill="black"/>
</svg>
