<svg width="51" height="50" viewBox="0 0 51 50" fill="none" xmlns="http://www.w3.org/2000/svg">
<path d="M1.71868 6.61134C2.3498 6.45058 3.26388 6.35195 3.85799 6.32916C4.0646 6.3183 3.97932 6.44023 4.12502 6.43707C4.42108 6.42889 4.66731 6.33468 4.92445 6.34121C5.01293 6.34336 4.93401 6.52692 5.02633 6.52535C5.51552 6.51831 6.07768 6.3807 6.54685 6.33849C7.43541 6.25231 8.33625 6.15091 9.21757 6.04502C10.8723 5.84569 12.5141 5.62152 14.2159 5.39642C15.043 5.28788 16.1244 5.26821 16.9815 5.0638C17.0815 5.03978 16.9979 4.90387 17.0152 4.8888C17.2887 4.65678 17.235 4.96671 17.4395 4.97412C17.5381 4.97758 17.6378 4.97874 17.7384 4.9778C18.468 4.97067 19.2366 4.85348 19.8902 4.70002C20.2097 4.62482 19.8399 4.38662 20.1913 4.49771C20.2157 4.50512 20.1578 4.67267 20.2493 4.6752C20.4564 4.68064 20.8356 4.5929 20.9947 4.58058C21.3003 4.5578 21.354 4.54783 21.6357 4.50571C22.0234 4.44913 22.4973 4.45429 22.9098 4.35465C22.9977 4.33292 22.8551 4.1926 22.9932 4.14362C23.1315 4.09467 23.5108 4.04995 23.6439 4.06777C23.777 4.08559 23.742 4.21859 23.7689 4.24369C23.9921 4.45622 24.3747 4.05571 24.4298 4.03885C25.0563 3.85271 25.6464 3.80586 26.2349 3.76138C26.585 3.73496 26.9378 3.7089 27.2961 3.65508C28.0279 3.5447 28.7869 3.36796 29.4894 3.27375C30.3242 3.16249 31.0243 3.14888 31.831 3.01838C31.9163 3.00477 31.7894 2.83233 31.8936 2.81534C32.8521 2.65949 33.7496 2.54601 34.73 2.49633C34.8892 2.48862 35.0481 2.48304 35.2068 2.47978C35.3182 2.47767 35.1992 2.66104 35.3118 2.66876C35.9846 2.71418 37.1156 2.89394 37.4184 2.12758C37.8857 2.095 38.4048 2.05778 38.8581 2.1473C39.1381 2.20646 38.9007 2.41805 39.2191 2.30065C39.2907 2.27444 39.1753 2.12955 39.2841 2.10213C39.7448 1.98655 40.2381 1.97829 40.6818 1.84351C40.7761 1.81525 40.7331 1.67775 40.7574 1.64921C40.9632 1.41687 41.3766 1.71268 41.4593 1.72824C42.1053 1.84064 42.4837 1.72556 43.1012 1.66504C43.2365 1.65203 43.057 1.47953 43.1864 1.46026C43.2156 1.45603 43.2448 1.45188 43.274 1.44784C43.9062 1.36003 44.5462 1.31672 45.1999 1.34201C45.3454 1.34899 45.2268 1.52161 45.2969 1.53324C45.6029 1.58313 45.641 1.27313 45.925 1.31779C45.9931 1.32627 45.9656 1.46742 45.979 1.4817C46.1871 1.70595 46.3219 1.35716 46.3689 1.34649C46.9657 1.2053 47.2788 1.54101 47.8952 1.47214C47.9623 1.4641 47.8063 1.29237 47.9948 1.2807C49.1451 -0.267141 51.4334 4.54283 48.8931 3.71298C48.677 3.7792 48.7758 3.59558 48.7566 3.58599C48.7059 3.56195 48.6626 3.55194 48.6256 3.55212C48.4745 3.53775 48.4809 3.79547 48.44 3.82451C48.0617 4.0848 47.4763 4.04934 47.3933 4.5446C45.5537 5.31103 43.929 6.62373 42.0875 7.50399C42.0644 7.51548 42.0033 7.3529 41.9576 7.37648C41.4043 7.66274 41.6524 7.8051 41.5146 8.30489C41.4804 8.4301 40.995 8.31569 40.9547 8.31128C40.8095 8.29156 40.7434 8.0283 40.7036 8.03338C40.3759 8.08574 40.9208 8.70615 40.6256 8.93663C40.6155 8.94278 40.5608 8.79291 40.5267 8.80042C40.4203 8.82348 40.3811 8.93108 40.2731 8.94987C40.0254 8.99208 39.7122 8.72883 39.592 9.12578C39.5914 9.12785 39.5914 9.13038 39.5919 9.13332C39.6046 9.20281 39.9115 9.50591 39.6447 9.6966C39.5268 9.78011 39.0848 10.1585 38.9366 10.2455C38.7901 10.33 38.7797 10.1413 38.7665 10.1439C38.2939 10.2848 38.3703 10.1114 38.0046 10.0368C37.6384 9.96515 38.1462 10.4529 38.1276 10.5728C38.1092 10.692 37.7484 10.7906 37.6501 10.8018C37.5517 10.8128 37.5635 10.6741 37.4882 10.6979C36.9896 10.8599 37.5638 11.0971 37.5212 11.2847C37.424 11.7274 36.8603 11.5394 36.5732 11.7378C36.4958 11.7913 36.6321 11.8259 36.5793 11.8906C36.3691 12.1462 36.1148 12.1641 35.9526 12.5278C35.9255 12.5876 35.9309 13.0186 35.6326 12.9914C35.5898 12.9872 35.5543 12.84 35.435 12.9173C35.2566 13.0325 34.9714 13.2793 34.8455 13.4704C34.7529 13.6111 35.0375 13.625 34.8458 13.7268C34.7606 13.7721 34.7897 13.5628 34.6369 13.6554C34.4844 13.7472 34.1839 14.0702 34.0725 14.196C33.9611 14.3213 34.1421 14.365 34.1408 14.3823C34.1302 14.4846 33.97 14.7724 33.951 14.7932C33.3357 15.4811 32.6789 16.0687 32.077 16.715C31.7483 17.0683 31.4371 17.438 31.1643 17.8459C31.1036 17.9365 31.2833 17.9827 31.2754 17.9976C31.1076 18.3362 30.9234 17.828 30.6444 17.9452C30.944 18.1236 30.8011 18.2079 30.6742 18.4437C30.6137 18.5572 30.763 18.5808 30.7671 18.5983C30.8205 18.8699 30.5317 18.8205 30.468 18.8167C30.2341 18.8023 30.3457 19.049 30.1889 19.0413C30.0325 19.0349 29.9867 18.762 29.8421 18.9714C29.9029 19.1006 30.2756 19.1339 30.2089 19.3204C29.9597 20.0101 29.0154 21.0102 28.7067 21.494C28.3895 21.981 28.3195 22.158 28.118 22.4314C27.7587 22.9286 28.0765 22.8458 28.0029 23.2265C27.9329 23.6081 27.4854 23.1829 27.3473 23.1738C27.2091 23.166 27.2997 23.2778 27.207 23.3078C27.1143 23.338 27.1016 23.1675 27.0075 23.2999C26.9119 23.4334 26.9313 23.9247 27.0305 24.0298C27.2385 24.2535 27.5852 24.2021 27.324 24.5312C27.3089 24.5503 27.1975 24.4174 27.1466 24.4936C26.8943 24.8765 26.684 25.3097 26.4835 25.7358C26.3693 25.9783 26.2575 26.2199 26.1392 26.4552C26.0942 26.5445 25.9574 26.4063 25.9293 26.458C25.6385 27.0059 25.9828 26.8895 26.2003 27.295C25.8078 27.103 25.4978 27.2068 25.3772 27.6602C25.3067 27.9317 25.5019 27.9304 25.5898 28.134C25.6164 28.1946 25.4475 28.3557 25.5268 28.4093C25.7863 28.5844 26.138 28.4744 25.9201 28.9029C25.9102 28.9218 25.7669 28.8275 25.744 28.8953C25.5987 29.3358 25.8878 29.4407 25.8583 29.9219C25.8351 30.2937 25.5919 30.959 25.5525 31.3946C25.0667 31.3678 25.1688 31.8009 25.5071 31.9628C25.4959 32.2472 25.5275 32.5517 25.5015 32.8284C25.4929 32.9238 25.3482 32.8726 25.3339 32.8856C25.1109 33.0906 25.448 33.1876 25.4668 33.246C25.6604 33.8908 25.5133 34.4683 25.9009 35.0352C25.9152 35.0557 26.2493 35.0061 26.0546 35.2308C26.0414 35.2466 25.838 35.0817 25.9053 35.3754C25.9457 35.5482 25.9578 35.8274 26.0303 36.1007C26.0783 36.2829 26.1526 36.4612 26.2716 36.5951C26.3436 36.6781 26.6907 36.8084 26.5766 37.0792C26.5607 37.1152 26.4604 37.1273 26.4267 37.1843C26.3215 37.3698 26.6592 37.29 26.4601 37.5467C26.2612 37.8029 26.2091 38.1973 26.598 38.4885C26.6102 38.4984 26.8957 38.4574 26.9597 38.5771C27.0641 38.7736 27.1729 39.0594 27.2938 39.2425C27.3521 39.3307 27.4558 39.1825 27.4684 39.1962C27.9268 39.7233 28.1348 40.2541 28.5672 40.8703C28.6477 40.986 29.0804 41.1347 29.1356 41.4579C29.2026 41.8159 28.3757 42.1494 29.0358 42.5428C29.3166 42.7117 30.2603 42.1744 30.2682 42.9089C31.0148 43.4134 31.5534 44.118 32.317 44.535C32.3918 44.576 32.4692 44.6148 32.5495 44.6507C32.5911 44.6696 32.8725 44.5107 32.9561 44.5727C33.0803 44.6657 33.0756 44.8266 33.1645 44.8969C33.555 45.2063 33.938 45.3101 34.3027 45.5532C34.4405 45.6441 34.318 45.735 34.4849 45.8437C34.653 45.9522 34.8608 45.8592 35.0542 46.0728C35.2002 46.2344 35.1992 46.6685 35.4297 46.8442C35.6146 46.519 35.7945 46.6266 36.1288 46.6907C36.1919 46.7022 36.1942 46.5565 36.2272 46.5559C36.3621 46.5509 36.4095 46.697 36.5433 46.6835C36.5757 46.6804 36.635 46.5674 36.6647 46.5584C36.918 46.4772 37.0724 46.8749 37.1008 46.9443C37.2064 47.208 37.3693 47.1023 37.4845 47.2406C37.6007 47.379 37.3381 47.3571 37.4925 47.4812C37.8134 47.7384 38.3011 47.939 38.6876 48.1148C38.8387 48.1828 38.8038 47.9814 38.8274 47.9876C39.1347 48.0752 39.3663 48.3699 39.6636 48.1261C39.5359 49.0233 39.876 48.1234 40.2451 48.4623C40.2742 48.4893 40.1642 48.8925 40.0075 48.8951C39.8507 48.8975 39.6988 48.6954 39.4808 48.7074C39.4294 48.7104 39.0324 48.9654 38.9894 48.9725C38.6541 49.0299 38.8642 48.4443 38.8642 48.4073C38.8703 48.0098 38.3719 48.2477 38.2792 48.2375C37.8431 48.1874 37.563 47.9608 37.2163 47.9001C36.9902 47.8596 36.7934 48.2155 36.6419 48.1277C36.1385 47.8332 36.2326 47.2445 35.5326 47.4311C35.3754 47.4657 35.271 47.9151 35.049 47.3974C35.034 47.3645 34.906 46.9295 34.6475 47.0148C34.6147 47.0256 34.5516 47.1386 34.5195 47.1329C34.3058 47.0923 34.2393 46.9349 34.0243 46.8658C33.8094 46.7966 33.5453 46.7236 33.3584 46.5563C33.2451 46.4554 33.2143 46.1508 33.1878 46.0638C33.1202 45.8195 32.7622 45.9187 32.77 45.6766C32.7759 45.4318 33.1599 45.3104 32.9534 45.0114C32.7553 45.2834 32.5382 45.5532 32.3315 45.8216C32.1203 45.6739 31.921 45.5167 31.7283 45.357C31.346 45.0403 31.0145 44.7345 30.6111 44.4235C30.5347 44.3647 30.498 44.5674 30.413 44.5076C30.0544 44.2534 29.8533 43.9124 29.4955 43.6593C29.2154 43.461 28.8284 43.3593 28.531 43.1314C28.6384 42.6977 28.1695 42.4008 27.9384 42.0868C27.8574 41.9777 27.9406 41.9163 27.9031 41.8228C27.7636 41.472 27.6151 41.8194 27.51 41.7791C27.0612 41.5975 27.6379 41.0901 27.3124 40.6979C27.2959 40.6789 26.7693 40.6571 26.7213 40.6327C26.4163 40.492 26.809 40.5105 26.7297 40.3456C26.5873 40.044 26.5462 39.8063 26.2462 39.5515C26.1625 39.4849 25.7923 39.3664 25.8553 39.0746C25.8634 39.0363 25.9894 38.9837 25.9849 38.9595C25.897 38.5282 25.5198 38.7195 25.2782 38.5655C25.036 38.4095 25.1436 37.9417 25.1924 37.8411C25.3131 37.574 25.3386 37.9385 25.3638 37.9392C25.6479 37.9426 25.4958 37.7228 25.4364 37.5299C25.8065 37.3355 25.6755 37.0873 25.3714 37.3241C25.3383 37.3508 25.437 37.4842 25.4364 37.5299C24.9882 37.5278 24.8076 37.2308 25.0475 36.7696C25.1437 36.5884 25.3348 36.6132 25.2531 36.3647C25.2384 36.3191 25.2146 36.2642 25.1802 36.1967C25.0807 35.9989 24.8317 36.1661 24.6991 35.9996C24.3947 35.6134 24.5114 34.9567 24.3884 34.5116C24.3428 34.347 24.2174 34.5384 24.1811 34.4259C24.0848 34.1245 24.1626 33.8375 24.0668 33.5329C24.058 33.5051 23.902 33.5934 23.889 33.4955C23.7904 32.7527 23.8709 32.0959 23.8957 31.3314C23.905 30.9619 23.8641 30.2866 23.9303 29.9066C24.0349 29.2489 24.4186 28.4886 24.4891 27.9381C24.5358 27.5775 24.3586 27.6153 24.2876 27.4352C24.1504 27.0822 24.6773 26.6651 24.7564 26.6172C24.7584 26.6158 24.7071 26.9284 24.8355 26.7913C25.0319 26.7485 24.7561 26.6211 24.7564 26.6172C24.806 26.5794 25.0301 25.9989 25.042 25.875C25.0473 25.8063 24.8874 25.791 24.8931 25.7559C24.9249 25.5654 24.9643 25.3762 25.0112 25.1886C25.1715 24.5506 25.4126 23.9468 25.7362 23.3791C25.7453 23.3669 25.8946 23.4603 25.9139 23.4309C26.1881 23.0246 26.1373 22.6459 26.2063 22.2325C26.2766 21.8185 26.4689 21.5542 26.8457 21.4926C26.9581 21.2104 27.2919 20.897 27.4864 20.7284C27.6805 20.5596 27.4079 20.3546 27.4134 20.3323C27.5839 19.6397 27.9647 19.4057 28.3824 18.8376C28.5797 18.5694 28.9189 17.9985 29.1037 17.6832C29.2483 17.4335 29.4162 17.3408 29.5332 17.1001C29.5491 17.0677 29.4065 17.0053 29.4084 16.9931C29.4415 16.6488 29.6512 16.9855 29.7404 16.9772C30.0647 16.9486 30.2463 16.9212 30.3876 16.5581C30.4198 16.4751 30.1593 15.9458 30.2356 15.8016C30.3348 15.6158 30.4341 15.7967 30.5346 15.6001C30.5427 15.5847 30.4645 15.5232 30.52 15.4359C30.525 15.428 30.5311 15.4199 30.5385 15.4116C30.9491 14.9477 31.4389 14.4812 31.8562 13.9953C31.9136 13.9292 31.6992 13.8886 31.7802 13.7909C32.1608 13.3317 32.6111 12.8566 33.0739 12.5007C33.1882 12.4136 33.2209 12.5686 33.2703 12.5733C33.5698 12.6008 33.5108 12.1721 33.5383 12.1348C34.1696 11.2588 34.9548 10.9285 35.6502 10.0859C35.6866 10.0401 35.7741 9.46421 36.1336 9.56443C36.1581 9.57043 36.5184 9.67898 36.5029 9.39925C36.5021 9.38161 36.2983 9.34096 36.4736 9.20844C36.6485 9.07627 36.8412 8.76141 37.1857 8.70593C37.2949 8.68777 37.6702 8.78862 37.7182 8.4147C37.7208 8.38877 37.6777 7.67219 38.057 7.87728C38.1184 7.91199 38.3654 8.2542 38.4898 7.87398C38.5102 7.81054 38.4 7.80258 38.4323 7.70198C38.4373 7.6866 38.4456 7.66907 38.4582 7.64886C38.6039 7.41439 38.9418 7.28942 39.0741 6.94739C39.0972 6.88702 39.1048 6.51784 39.389 6.57368C39.4338 6.5822 39.4741 6.7289 39.5646 6.67928C39.995 6.4445 40.3399 6.06974 40.7832 5.86875C40.9398 5.79777 41.0036 6.03256 41.1804 5.98053C41.3615 5.92522 41.6937 5.76225 41.787 5.57094C41.8814 5.37872 41.5061 5.197 41.7213 5.01306C42.6643 4.21274 43.7704 3.75743 44.9089 3.14611C45.0708 3.06018 44.876 3.02033 45.1101 2.88686C45.8298 2.47229 46.9605 1.81634 47.8278 1.58937C48.0738 1.51907 48.2638 1.47802 48.4126 1.46988C48.9535 1.45037 48.469 1.87897 48.8399 1.7936C49.1031 1.70675 48.9542 1.27395 48.8963 1.29721C48.715 5.41681 49.666 2.99955 48.8833 3.59012C48.7971 3.59839 48.8745 3.77269 48.8009 3.7781C48.5163 3.79807 48.2409 3.72496 47.9737 3.74552C47.85 3.75555 47.877 3.88544 47.7588 3.87929C47.4483 3.86781 47.2305 3.8242 46.9557 3.71743C46.9304 3.70774 47.0862 3.53583 46.8815 3.54183C46.5654 3.55094 46.0472 3.46724 45.7177 3.61946C45.6069 3.66617 45.6293 3.96362 45.3623 3.77941C45.3053 3.74117 45.3442 3.37768 45.0726 3.71258C45.0384 3.76688 44.5265 4.23345 44.2965 3.98575C44.2285 3.92113 44.0414 3.64471 43.9061 3.70463C43.8879 3.71385 43.9797 3.86578 43.8656 3.89297C43.7577 3.91792 43.6467 3.93833 43.5334 3.95676C43.2306 4.00637 42.8758 4.04504 42.5901 4.11348C42.4818 4.1392 42.6636 4.28612 42.5015 4.31925C42.056 4.41054 41.4671 4.43566 40.9877 4.4403C40.8111 4.44167 40.9153 4.29087 40.9009 4.27751C40.6778 4.05903 40.6063 4.39843 40.5443 4.42518C40.1616 4.58682 39.835 4.47155 39.4617 4.55923C39.3584 4.58306 39.452 4.72917 39.4329 4.74562C39.2335 4.90807 39.3599 4.60884 39.2187 4.59532C38.8082 4.55843 38.413 4.62164 38.0329 4.69107C37.8946 4.71666 38.0746 4.87639 37.9501 4.89729C37.2144 5.02434 36.4096 5.11416 35.6878 5.1113C35.5487 5.11087 35.6158 4.96066 35.583 4.93289C35.3906 4.7674 35.1821 4.98944 35.0851 5.0831C35.068 5.09962 35.0544 5.11215 35.045 5.11783C34.7589 5.29096 34.6232 5.18492 34.3552 5.24539C33.0869 5.53712 31.4429 5.68984 30.2161 5.81834C28.8805 5.95956 27.8011 6.01983 26.601 6.18642C26.3447 6.222 26.0836 6.26241 25.8143 6.30948C25.7175 6.32624 25.8434 6.49524 25.7603 6.51204C24.6884 6.7203 23.608 6.81293 22.5358 7.03386C22.4478 7.05165 22.6026 7.20604 22.4623 7.24046C22.1744 7.31235 21.8066 7.35999 21.4978 7.3513C21.3485 7.34719 21.5197 7.16728 21.3699 7.1662C21.0212 7.16334 20.656 7.20793 20.314 7.29038C20.1685 7.32585 20.4189 7.46898 20.2277 7.50119C19.5571 7.61624 18.8723 7.73776 18.1914 7.82308C17.5613 7.90216 16.9521 7.9478 16.2822 7.94215C16.1883 7.94099 16.0499 7.59203 15.8678 7.69253C15.8694 7.79529 15.8892 7.91329 15.9002 8.02165C14.0174 8.38405 12.0909 8.56957 10.1995 8.86178C10.116 8.87476 10.2916 9.0426 10.1303 9.06868C9.99473 9.09064 9.861 9.11353 9.72876 9.13646C8.95512 9.27063 8.2344 9.40582 7.39417 9.37885C7.30078 9.37531 7.28941 9.03084 7.0345 9.12581C6.98371 9.14385 6.6195 9.25096 6.50881 9.34471C6.49565 9.35826 6.6001 9.50244 6.46284 9.53015C5.66937 9.68766 4.91322 9.77806 4.11758 9.8139C3.99806 9.81787 4.09396 9.62941 4.00886 9.63074C3.33483 9.65346 2.79261 9.87658 2.09706 9.83908C1.74898 9.79333 1.77814 9.49055 1.51589 9.24237C1.46542 9.20966 1.25764 9.23883 1.22877 9.07323C1.13644 8.66018 1.14087 8.18974 1.02998 7.75162C0.939403 7.6687 0.754238 7.80675 0.818675 7.55763C0.83317 7.53917 1.07847 7.41797 1.10149 7.33331C1.13164 7.27232 1.03075 7.11618 1.10089 7.03269C1.16163 6.95088 1.3351 7.06654 1.43924 6.96477C1.54806 6.86118 1.45083 6.68048 1.71868 6.61134ZM28.3698 19.9795C28.6289 19.8779 28.145 19.5246 28.132 19.81C28.1319 19.8242 28.3568 19.985 28.3698 19.9795ZM31.4786 44.509C31.4107 44.1265 31.0211 44.3126 31.0551 44.5977C31.0932 44.8846 31.5014 44.6262 31.4786 44.509ZM34.1083 46.0493C33.9311 45.6984 33.4397 46.3919 33.841 46.4355C33.8643 46.4383 34.1189 46.0698 34.1083 46.0493ZM2.51092 8.98875C2.50419 8.98183 2.30393 9.00813 2.30259 9.01636C2.22839 9.22174 2.62702 9.16931 2.51092 8.98875ZM36.8389 47.3018C36.7961 47.1529 36.4709 47.1371 36.5214 47.3224C36.5624 47.472 36.8926 47.4877 36.8389 47.3018ZM36.367 11.5309C36.3756 11.5349 36.4753 11.453 36.4391 11.4179C36.3221 11.3049 36.2218 11.4613 36.367 11.5309ZM41.523 49.2979C40.8057 48.9958 40.6442 48.1778 41.3804 48.5464C41.5154 48.6131 40.9992 48.6403 41.1548 48.7672C41.442 48.9997 41.8146 48.6691 42.0757 49.0149C42.1233 49.0785 41.5633 49.317 41.5213 49.2983C41.5219 49.2982 41.5224 49.298 41.523 49.2979ZM29.0444 20.2584C29.0534 20.2589 29.1563 20.1135 29.1522 20.1057C29.0456 19.9207 28.8369 20.2153 29.0444 20.2584ZM42.3776 7.09549C42.3958 7.10269 42.7437 6.87797 42.7455 6.85839C42.7466 6.4782 42.0379 6.93469 42.3776 7.09549ZM25.5394 31.401C25.7245 31.5946 25.7455 31.8102 25.5073 31.962C25.5182 31.7757 25.522 31.5882 25.5394 31.401Z" fill="black"/>
</svg>
