<svg width="37" height="53" viewBox="0 0 37 53" fill="none" xmlns="http://www.w3.org/2000/svg">
<path d="M4.12393 0.485256C4.2282 0.602857 4.25008 0.803877 4.2351 0.969547C4.23064 1.02137 4.12363 1.03973 4.11613 1.07731C4.10158 1.15076 4.17173 1.18503 4.14961 1.26077C4.1418 1.28607 3.97669 1.32594 3.97206 1.35101C3.9478 1.48796 4.02945 1.57483 4.04143 1.69864C4.10017 2.3086 4.25982 2.86657 4.4135 3.44554C4.4643 3.63639 4.41319 3.91445 4.55136 4.0766C4.56762 4.09547 4.69877 4.02673 4.71172 4.0263C4.91055 4.02128 4.62619 4.11203 4.60697 4.16958C4.53147 4.39768 4.59566 4.59087 4.71476 4.73212C4.71548 4.73297 4.71624 4.73378 4.71704 4.73453C4.77264 4.78701 5.0068 4.61386 4.88486 4.74381C4.87656 4.75285 4.72447 4.79443 4.71676 4.81973C4.69957 4.87698 4.75882 4.9481 4.76096 4.98617C4.76435 5.05982 4.77015 5.06986 4.79333 5.13137C4.82376 5.21598 4.7921 5.3443 4.86136 5.42013C4.87657 5.43614 5.01484 5.35028 5.05252 5.37034C5.09017 5.39044 5.1104 5.47601 5.08644 5.51742C5.06248 5.55885 4.941 5.59496 4.91619 5.61068C4.70641 5.74237 5.05725 5.70771 5.06988 5.71651C5.2908 5.88096 5.18896 6.14087 5.27309 6.34554C5.33734 6.50076 5.46406 6.64305 5.51639 6.79433C5.57817 6.9748 5.55866 7.15709 5.64241 7.32272C5.65107 7.34027 5.8171 7.24779 5.82804 7.26908C5.94411 7.49535 6.02014 7.73605 5.99755 8.01773C5.99513 8.04605 5.82944 8.07846 5.81786 8.11048C5.7503 8.3052 5.54006 8.65547 6.24251 8.46802C6.25605 8.57571 6.2772 8.70453 6.17804 8.84629C6.12347 8.92444 5.97702 8.94584 5.99813 8.97525C6.00169 8.9802 6.01002 8.98539 6.02436 8.99112C6.04657 9.00014 6.18465 8.92025 6.2069 8.93831C6.30043 9.01437 6.29654 9.14077 6.41168 9.20678C6.43544 9.22007 6.56435 9.16118 6.59023 9.15713C6.80058 9.12601 6.5164 9.33312 6.50039 9.35953C6.38205 9.55909 6.4881 9.62628 6.53322 9.74877C6.54362 9.77723 6.70619 9.67222 6.72252 9.69702C6.80486 9.82661 6.84888 9.97771 6.82664 10.1466C6.82128 10.1843 6.65983 10.2175 6.64959 10.2387C6.60627 10.3313 6.8954 10.2299 6.85931 10.3164C6.85207 10.3345 6.72067 10.3796 6.70753 10.3877C6.50127 10.5152 6.8281 10.4193 6.83892 10.426C6.98276 10.508 6.68674 10.7187 6.78065 10.8163C6.79222 10.8278 6.94188 10.7301 6.96445 10.7665C7.11582 11.0092 7.18384 11.3034 7.1593 11.6147C7.15571 11.6631 7.02194 11.6842 7.00793 11.6929C6.78964 11.83 7.11553 11.7281 7.13274 11.7364C7.2603 11.8048 7.03551 12.0091 7.43937 11.9262C7.47818 12.3199 7.73596 12.6227 7.75416 13.0221C7.75864 13.1204 7.74859 13.2246 7.71717 13.3375C7.71553 13.3446 7.55635 13.398 7.55374 13.4119C7.52072 13.58 7.75146 13.4562 8.08215 13.4235C8.16522 13.4153 7.8366 13.6279 7.81293 13.6445C7.7256 13.7054 7.48562 13.7771 7.46995 13.792C7.3482 13.9117 8.10752 13.5904 8.14082 13.6712C8.14058 13.6743 7.99574 13.721 7.98455 13.7335C7.94931 13.7725 8.01368 13.7707 7.97375 13.8111C7.88114 13.904 7.51711 14.0723 7.76246 14.0564C7.79421 14.0541 8.22149 13.8634 8.23054 13.944C8.23379 13.9763 8.29328 14.1009 8.27982 14.1481C8.26637 14.1953 8.11683 14.2277 8.11183 14.2327C7.9666 14.4042 7.87524 14.399 7.62176 14.5587C7.36932 14.7179 8.0129 14.4396 8.09336 14.4297C8.17364 14.4199 8.0502 14.5526 8.00436 14.5915C7.95849 14.6305 7.86101 14.6451 7.83734 14.6727C7.6833 14.8548 8.1778 14.586 8.29456 14.5777C8.57087 14.5575 8.11477 14.8157 8.09726 14.9077C8.09255 14.9325 8.19562 14.8717 8.21302 14.885C8.28047 14.9384 8.1473 15.0414 8.31721 15.0641C8.34491 15.0678 8.66033 15.0135 8.46481 15.1414C8.43657 15.1598 8.30984 15.1921 8.29503 15.2326C8.27273 15.2932 8.27897 15.3835 8.33844 15.4145C8.3824 15.4375 8.56365 15.3166 8.52025 15.3858C8.50084 15.4166 8.37039 15.4275 8.34356 15.4814C8.31666 15.5351 8.35996 15.6266 8.37849 15.6606C8.39709 15.6945 8.53907 15.6139 8.55034 15.6126C8.6153 15.6064 8.71545 15.6452 8.71773 15.6513C8.86022 15.948 8.72203 16.3318 8.92658 16.5939C8.94241 16.6145 9.09419 16.5345 9.09823 16.537C9.19696 16.5895 8.75101 16.6984 8.63301 16.8114C8.95055 16.6724 8.90585 16.7289 8.96392 16.7706C8.99216 16.7906 9.11038 16.7252 9.1241 16.7225C9.32914 16.6855 9.09681 16.8129 9.04989 16.8404C8.87733 16.9418 9.1058 16.8822 8.99059 16.9503C8.87629 17.018 8.67897 17.0501 8.70323 17.1029C8.82422 17.0711 9.10805 16.9087 9.17335 16.9297C9.27493 16.9622 9.3147 17.0462 9.32816 17.1433C9.3474 17.282 9.3128 17.4473 9.32815 17.526C9.35416 17.6596 9.39164 17.6909 9.37953 17.7798C9.35758 17.9405 9.56079 17.802 9.69568 17.8411C9.83065 17.8805 9.26671 18.0648 9.15369 18.1245C9.04063 18.184 9.16691 18.147 9.108 18.1876C9.04908 18.2282 8.95648 18.2302 8.94579 18.2735C8.93513 18.3167 9.18178 18.3224 9.30976 18.284C9.58086 18.2025 9.83791 18.0496 9.77772 18.1772C9.77408 18.1846 9.6233 18.2269 9.61667 18.2523C9.56877 18.4519 9.62735 18.6151 9.59219 18.8093C9.58713 18.8361 9.41913 18.8825 9.41437 18.8989C9.36432 19.0692 9.61578 18.913 9.94471 18.8609C9.53878 19.0081 9.31028 19.1468 9.34772 19.2453C9.37009 19.3046 9.54045 19.2233 9.67889 19.211C9.7206 19.2072 9.61774 19.2976 9.70286 19.2716C9.98119 19.1869 10.2655 19.0253 10.187 19.1747C10.1831 19.1814 10.0305 19.2273 10.0279 19.2462C10.0099 19.3684 10.2952 19.2657 10.3727 19.3584C10.4334 19.431 10.323 19.6493 10.3339 19.7557C9.88399 19.937 10.0235 19.9848 10.348 19.8948C10.3605 19.9617 10.4052 20.0212 10.3868 20.0983C10.3805 20.1248 10.245 20.1644 10.232 20.1727C10.0278 20.3023 10.34 20.2062 10.3573 20.2147C10.531 20.3121 10.3506 20.5229 10.63 20.5696C10.64 20.5712 10.9552 20.4517 10.7425 20.5815C10.7278 20.5903 10.5672 20.6028 10.5827 20.672C10.5982 20.7413 10.4808 20.9318 10.6621 20.9627C10.7057 20.9703 10.9815 20.922 10.8016 21.0469C10.7772 21.0638 10.6851 21.0939 10.6388 21.1227C10.4913 21.2149 10.8128 21.1012 10.5581 21.2428C10.3541 21.3563 10.2024 21.4745 10.264 21.5249C10.2793 21.5374 10.3078 21.5458 10.352 21.5488C10.3586 21.5495 10.6173 21.469 10.625 21.4991C10.637 21.5473 10.6114 21.6333 10.6324 21.6801C10.6426 21.7026 10.7918 21.6246 10.7963 21.6274C10.9457 21.745 10.8518 21.9105 10.8587 22.099C10.8597 22.1337 11.1066 22.1337 10.963 22.2602C10.806 22.3989 10.0172 22.6442 10.2587 22.717C10.3555 22.7466 11.3527 22.4271 10.8954 22.738C11.1038 22.8939 10.9254 23.1895 11.1872 23.3242C11.1988 23.3303 11.4806 23.2497 11.4859 23.2731C11.4932 23.308 11.3744 23.3773 11.3755 23.4039C11.3772 23.5167 11.5214 23.5616 11.5429 23.6622C11.5514 23.7003 11.4159 23.7411 11.426 23.7865C11.4361 23.8319 11.6193 23.7901 11.5599 23.8815C11.5144 23.9507 11.1812 24.1373 11.1639 24.2117C11.5109 24.0726 11.5199 24.1151 11.64 24.1481C11.6633 24.1544 11.7778 24.0908 11.795 24.0912C11.8677 24.0919 11.7777 24.1567 11.8554 24.1539C11.8741 24.1533 11.9924 24.1053 12.0144 24.1021C12.2055 24.0728 11.9677 24.2503 11.9263 24.281C11.769 24.3981 11.9313 24.3565 11.8763 24.4196C11.8212 24.4825 11.7135 24.466 11.6881 24.5237C11.6355 24.6432 11.6987 24.7434 11.7281 24.831C11.7406 24.8657 11.8889 24.778 11.8943 24.7815C11.9631 24.8356 11.8243 24.9754 12.1546 24.8861C11.3618 25.2667 12.2507 24.8965 12.1291 25.0636C12.1192 25.0769 11.739 25.2438 11.6702 25.2364C11.6014 25.2289 11.7027 25.1337 11.5975 25.1274C11.5728 25.1258 11.1892 25.2155 11.1642 25.2165C10.9687 25.2249 11.5395 24.9818 11.5697 24.9657C11.8951 24.79 11.4786 24.8783 11.4442 24.8708C11.287 24.8365 11.3385 24.7319 11.222 24.6971C11.1465 24.6741 10.7684 24.8231 10.7652 24.7822C10.754 24.6461 11.2617 24.3899 10.7603 24.4621C10.6533 24.4773 10.252 24.6693 10.5397 24.4502C10.5579 24.4364 10.8272 24.2509 10.6249 24.2898C10.5994 24.2947 10.4796 24.3438 10.467 24.3417C10.3849 24.3267 10.4691 24.2601 10.4049 24.2335C10.3407 24.2069 10.2503 24.1803 10.2699 24.1121C10.2815 24.071 10.4884 23.9399 10.537 23.9027C10.6773 23.7964 10.4007 23.8566 10.5807 23.7527C10.7616 23.6482 11.0736 23.5809 11.1693 23.4614C10.8569 23.5859 10.535 23.7104 10.2203 23.8341C10.1696 23.6786 10.2095 23.4888 10.1339 23.3429C10.1242 23.3249 9.96472 23.4124 9.95002 23.3949C9.88874 23.3208 9.97774 23.1978 9.89425 23.1291C9.82899 23.0761 9.62124 23.0736 9.54748 23.0205C9.88592 22.8315 9.72178 22.775 9.72294 22.6848C9.72319 22.6533 9.81907 22.6162 9.84229 22.5844C9.92758 22.4653 9.62661 22.6276 9.56898 22.628C9.32284 22.6293 10.0324 22.3312 9.97389 22.2382C9.97103 22.2332 9.56472 22.3233 9.53742 22.324C9.36001 22.3301 9.66578 22.2606 9.67933 22.2136C9.70412 22.1278 9.77642 22.0456 9.63409 22.0149C9.59207 22.0061 9.3336 22.0495 9.49911 21.9316C9.52077 21.9162 9.64759 21.8681 9.65308 21.8605C9.69288 21.801 9.63544 21.8001 9.54618 21.8179C9.43624 21.8397 9.27803 21.8899 9.19366 21.8939C9.04082 21.9012 9.28334 21.7171 9.35576 21.6702C9.54294 21.5485 9.45468 21.6646 9.47546 21.6586C9.72265 21.5865 9.66011 21.5499 9.66355 21.5011C10.0479 21.3374 10.0015 21.29 9.66556 21.4511C9.6289 21.4688 9.67789 21.4857 9.66355 21.5011C9.2695 21.6203 9.19539 21.5777 9.52184 21.3639C9.67486 21.2637 9.88111 21.2152 9.77016 21.146C9.71998 21.1145 9.46069 21.2404 9.37204 21.2307C9.16972 21.2086 9.37052 20.9905 9.29359 20.9139C9.26567 20.8861 9.13325 20.9783 9.10914 20.9613C9.0447 20.9166 9.13215 20.8182 9.05114 20.7798C9.04361 20.7764 8.89654 20.8523 8.88683 20.834C8.81021 20.697 8.85667 20.5314 8.79789 20.3797C8.76942 20.3064 8.63214 20.2106 8.61829 20.1283C8.59337 19.986 8.74966 19.7347 8.65019 19.645C8.58596 19.5863 8.43985 19.6646 8.32312 19.6758C8.09696 19.6979 8.41455 19.444 8.4646 19.4068C8.46627 19.4056 8.52783 19.4536 8.59253 19.3881C8.74785 19.3021 8.4656 19.4072 8.4646 19.4068C8.49687 19.3826 8.48043 19.2433 8.44111 19.2304C8.41966 19.2234 8.27813 19.2899 8.26967 19.2852C8.07195 19.1706 7.96676 19.018 7.96509 18.8206C7.96679 18.8164 8.13038 18.7549 8.13237 18.7459C8.16417 18.6183 7.94061 18.6361 7.79005 18.603C7.63954 18.5699 7.65264 18.4896 7.91075 18.3283C7.85083 18.2814 7.93779 18.1436 7.99168 18.0627C8.04556 17.9818 7.72782 18.1033 7.71978 18.1014C7.53225 18.0594 7.56152 17.9657 7.57842 17.8574C7.58458 17.8181 7.58909 17.7768 7.58092 17.7354C7.56691 17.6614 7.46591 17.5445 7.40128 17.4845C7.34968 17.4374 7.40909 17.372 7.33992 17.3374C7.33064 17.3327 7.19345 17.3973 7.18715 17.3973C6.99487 17.4056 7.3494 17.2946 7.40554 17.2572C7.60976 17.1213 7.71697 17.0451 7.58082 17.0109C7.54959 17.0029 7.03499 17.1526 6.99291 17.132C6.93912 17.1049 7.12248 17.0485 7.06165 17.022C7.0566 17.0196 6.9478 17.0649 6.94151 17.0358C6.91087 16.901 6.91818 16.7374 6.85368 16.6106C6.84529 16.5932 6.68158 16.6868 6.66661 16.6627C6.59649 16.5495 6.54853 16.4137 6.58123 16.2623C6.58982 16.2248 6.71847 16.1936 6.75188 16.1726C6.95376 16.0449 6.61492 16.1189 6.60518 16.1123C6.36469 15.9576 6.58328 15.6748 6.3568 15.5096C6.34389 15.5008 5.96696 15.5467 6.24097 15.3866C6.25916 15.3759 6.54007 15.2136 6.32186 15.2605C6.30821 15.2635 6.16541 15.3515 6.16289 15.3006C6.16033 15.2499 6.02884 15.2201 6.17223 15.0903C6.21737 15.0494 6.49556 14.8825 6.23539 14.9214C6.21734 14.9244 5.64595 15.0537 6.00213 14.8713C6.06079 14.8413 6.45365 14.6873 6.22526 14.7002C6.18106 14.7029 6.10367 14.7623 6.03511 14.7499C5.92959 14.731 6.0055 14.618 5.80484 14.6237C5.76939 14.6249 5.48446 14.6847 5.66985 14.5637C5.69888 14.5447 5.83402 14.5031 5.84024 14.4766C5.87042 14.3504 5.74147 14.2838 5.79126 14.1479C5.80864 14.0999 6.0268 14.0317 6.06837 13.9721C6.10991 13.9124 6.13416 13.8166 6.02218 13.8176C5.91016 13.8186 5.59121 13.9976 5.5409 13.9512C5.53445 13.9453 5.52828 13.9392 5.52236 13.933C5.32786 13.7302 5.41645 13.4142 5.34578 13.1611C5.33501 13.1224 5.22727 13.2021 5.20277 13.1486C5.11191 12.9516 4.85774 12.6511 5.04216 12.3727C5.18985 12.1496 5.41731 12.2616 5.45707 12.121C5.47579 12.0534 5.06241 12.1571 5.04504 12.1497C4.87058 12.0794 5.00922 11.9244 4.91155 11.8369C4.89133 11.8189 4.74201 11.9056 4.72655 11.8895C4.67233 11.8352 4.71489 11.7374 4.67639 11.6801C4.65875 11.6545 4.53993 11.709 4.53871 11.6793C4.5344 11.6089 4.5629 11.5334 4.65162 11.4269C4.65971 11.4171 4.82528 11.3928 4.81219 11.3447C4.79057 11.2671 4.86485 11.1295 4.71458 11.0914C4.66952 11.0803 4.39272 11.1921 4.56141 11.0598C4.59662 11.0321 4.93445 10.9112 4.62183 10.9649C4.56983 10.9737 4.13961 11.0252 4.36762 10.8713C4.42762 10.8307 4.68486 10.6847 4.62976 10.6717C4.62127 10.6703 4.47955 10.7475 4.45478 10.7282C4.37007 10.6591 4.34792 10.5596 4.26417 10.4873C4.24151 10.4681 4.1027 10.5671 4.07383 10.5365C3.99424 10.4525 3.98245 10.3118 3.99067 10.1945C3.994 10.1511 4.13142 10.1241 4.1442 10.1158C4.35226 9.98175 4.03804 10.0809 4.01461 10.0742C3.87295 10.0305 3.98874 9.90602 3.91822 9.84128C3.89915 9.82326 3.76058 9.89811 3.74585 9.89899C3.74161 9.89916 3.73772 9.89926 3.73418 9.89931C3.61674 9.90066 3.87564 9.83144 3.89204 9.792C3.94025 9.67784 3.89174 9.59231 3.83979 9.51796C3.82049 9.49074 3.66619 9.59317 3.65081 9.56795C3.55662 9.41997 3.5049 9.24728 3.53392 9.0535C3.53969 9.01689 3.67667 8.98253 3.70374 8.96434C3.89336 8.83773 3.58599 8.89107 3.55331 8.88781C3.4042 8.87322 3.50841 8.80138 3.46373 8.75298C3.24347 8.51737 3.17866 8.1419 3.11799 7.8594C3.03818 7.49158 3.05262 7.17499 2.88705 6.86074C2.87669 6.8407 2.71305 6.93196 2.70191 6.91559C2.56591 6.70102 2.54016 6.44563 2.39574 6.23395C2.3842 6.21646 2.23215 6.31053 2.20813 6.28469C2.15772 6.23215 2.13419 6.14914 2.16045 6.0645C2.17295 6.02334 2.32995 6.00762 2.33967 5.96736C2.36262 5.87349 2.34255 5.7911 2.28601 5.72737C2.28588 5.72723 2.28575 5.72709 2.28561 5.72695C2.26003 5.70163 2.11404 5.8161 2.09541 5.77595C1.96442 5.50236 1.82328 5.23876 1.92385 4.86721C1.93077 4.84172 2.26314 4.68618 2.18121 4.67145C2.08577 4.70677 1.97507 4.75216 1.87386 4.79188C1.65306 4.40589 1.60581 3.95393 1.45695 3.53724C1.45064 3.51969 1.28302 3.62289 1.26988 3.58928C1.19361 3.39484 1.06717 3.22741 1.16515 2.95669C1.17461 2.92994 1.49502 2.8109 1.42358 2.7726C1.41069 2.76596 1.33295 2.69608 1.2551 2.70159C1.24349 2.70276 1.10235 2.77891 1.08659 2.7526C0.997597 2.59865 0.961539 2.41397 0.985288 2.21434C0.989403 2.182 1.15804 2.14582 1.16234 2.12223C1.19161 1.9554 1.01315 1.85978 1.10412 1.67465C1.16557 1.55051 1.45017 1.47102 1.69926 1.31671C1.7344 1.29492 1.71892 1.2399 1.87345 1.17365C2.26197 1.00693 2.70092 0.857478 3.11383 0.676755C3.20278 0.637872 3.07726 0.606952 3.31141 0.560018C3.32713 0.556999 3.42004 0.57864 3.49883 0.56115C3.55333 0.549118 3.70518 0.468734 3.77767 0.459988C3.85009 0.451265 3.72541 0.52505 3.8141 0.523402C3.90372 0.521353 4.07848 0.434839 4.12393 0.485256ZM8.23185 17.6995C8.36399 17.591 7.80734 17.8102 7.96048 17.8067C7.96854 17.8062 8.22542 17.7049 8.23185 17.6995ZM10.6276 23.3192C10.847 23.1584 10.4707 23.2632 10.2997 23.3833C10.1288 23.5033 10.5612 23.368 10.6276 23.3192ZM11.0646 23.88C11.2281 23.73 10.4381 24.0393 10.6281 24.051C10.6389 24.0518 11.0551 23.8888 11.0646 23.88ZM1.86085 1.49488C1.86794 1.49123 1.85968 1.45051 1.85202 1.45258C1.66791 1.50425 1.68455 1.58563 1.86085 1.49488ZM11.5154 24.4296C11.6126 24.3639 11.4637 24.3498 11.3429 24.4314C11.2458 24.4971 11.3946 24.5113 11.5154 24.4296ZM7.82772 15.02C7.83567 15.0159 7.83204 14.9857 7.78561 15.0053C7.63611 15.0685 7.69391 15.0889 7.82772 15.02ZM11.9607 25.4946C11.9258 25.3247 12.5355 24.9641 12.5325 25.166C12.5319 25.2025 12.2982 25.1833 12.2559 25.2468C12.1789 25.3628 12.6059 25.2447 12.4178 25.4078C12.3834 25.4375 11.9612 25.5049 11.9597 25.4947C11.96 25.4947 11.9604 25.4946 11.9607 25.4946ZM8.88609 17.4011C8.89303 17.3971 8.88467 17.3568 8.87704 17.3589C8.69292 17.4103 8.70967 17.4916 8.88609 17.4011ZM7.52476 13.2989C7.53952 13.2905 7.51858 13.1975 7.50304 13.2005C7.19698 13.2724 7.23846 13.4608 7.52476 13.2989ZM10.3226 19.7621C10.5162 19.7308 10.557 19.7713 10.3482 19.8946C10.3434 19.8491 10.3284 19.8074 10.3226 19.7621ZM36.4625 12.1345C36.0636 12.4268 35.4864 12.699 35.0363 12.8739C34.8951 12.929 34.908 12.7986 34.8051 12.8344C34.6034 12.9047 34.4621 13.0478 34.2604 13.1092C34.1933 13.1291 34.1812 12.9415 34.1128 12.9657C33.7387 13.0993 33.4451 13.3217 33.0927 13.4881C32.111 13.9519 31.1373 14.4566 30.1911 14.9653C29.4348 15.3736 28.7298 15.7631 27.9681 16.1876C27.3929 16.5083 26.6744 16.7698 26.1267 17.1866C26.0641 17.2346 26.1814 17.3354 26.1751 17.3536C26.0743 17.6346 25.9838 17.3407 25.8337 17.3872C25.2348 17.5746 24.6856 17.9014 24.2092 18.2686C24.013 18.4213 24.3787 18.5369 24.0809 18.5303C24.0604 18.5302 24.0298 18.3644 23.9637 18.3864C23.8138 18.4365 23.5848 18.6146 23.4793 18.6669C23.4738 18.6696 23.4684 18.6722 23.4632 18.6748C23.2737 18.7683 23.24 18.7914 23.0652 18.9007C22.8123 19.0574 22.4682 19.1854 22.2216 19.3865C22.1691 19.4298 22.3312 19.5163 22.2554 19.5976C22.1794 19.679 21.9342 19.8213 21.8341 19.8411C21.7339 19.861 21.6992 19.7332 21.6693 19.7181C21.4205 19.5886 21.333 20.0489 21.2979 20.0819C20.7106 20.6356 20.0802 20.8219 19.462 21.2375C18.9949 21.5522 18.5693 21.9185 18.1179 22.219C17.7467 22.4655 17.4003 22.6514 17.0631 22.8633C16.9169 22.9556 16.7722 23.0527 16.6287 23.1602C16.577 23.1987 16.7478 23.3086 16.6851 23.3559C16.033 23.8472 15.3389 24.3285 14.6194 24.7106C14.5469 24.749 14.5311 24.5535 14.4519 24.5846C13.9524 24.789 13.1271 25.0142 13.3346 25.77C13.0436 25.9629 12.7031 26.1982 12.3788 26.2748C12.1686 26.3253 12.2044 26.0632 12.0625 26.2787C12.0302 26.3273 12.1864 26.4036 12.1307 26.4671C11.8963 26.7344 11.5751 26.9363 11.3743 27.215C11.3337 27.2719 11.4399 27.3675 11.4419 27.3993C11.4473 27.5779 11.2519 27.6011 11.1058 27.6035C11.0353 27.6047 10.9761 27.6012 10.956 27.6079C10.4886 27.7709 10.3007 28.0366 9.97648 28.3277C9.90305 28.3937 10.1176 28.4548 10.0518 28.5231C9.71514 28.8703 9.33501 29.2105 8.93848 29.4855C8.85033 29.5461 8.80465 29.363 8.75661 29.3861C8.54569 29.4907 8.73125 29.7382 8.53042 29.8488C8.48873 29.8721 8.40743 29.7568 8.39068 29.7522C8.12723 29.6798 8.29238 29.9971 8.27512 30.0259C8.06118 30.3978 7.6216 30.3516 7.38223 30.6937C7.35463 30.7342 7.55828 30.7695 7.47309 30.8758C6.93448 31.5508 6.33308 32.2282 5.73508 32.8521C5.70502 32.8835 5.67501 32.9147 5.64506 32.9458C5.54712 33.0478 5.49633 32.8906 5.47804 32.8883C5.18653 32.8619 5.41402 33.1325 5.3996 33.1763C5.27931 33.5163 4.85068 33.6584 5.07139 34.0742C4.15913 35.2926 3.75351 36.7396 3.00045 38.0529C2.99112 38.0701 2.83873 37.9937 2.82074 38.0286C2.60532 38.4516 2.88257 38.4316 3.12105 38.7893C3.18137 38.8773 2.75281 39.0254 2.72074 39.0419C2.60242 39.096 2.37458 38.9713 2.34935 38.9923C2.14912 39.1722 2.9661 39.2901 2.91213 39.565C2.9091 39.5734 2.76665 39.5107 2.74728 39.5314C2.72996 39.5498 2.72132 39.5697 2.71634 39.5901C2.70505 39.6441 2.71673 39.701 2.67207 39.7477C2.52853 39.8954 2.12304 39.8954 2.32247 40.1849C2.34907 40.2206 2.816 40.2433 2.76806 40.4834C2.74724 40.5771 2.71955 41.0053 2.68417 41.1318C2.64734 41.2518 2.50165 41.1545 2.49467 41.1625C2.28025 41.4802 2.20415 41.3471 1.9039 41.4997C1.60635 41.657 2.30835 41.6415 2.38569 41.71C2.46237 41.7754 2.29949 42.0103 2.24462 42.0773C2.18893 42.1395 2.09123 42.0624 2.06026 42.1183C1.86181 42.4922 2.41399 42.2694 2.53018 42.381C2.80816 42.6321 2.3056 42.8498 2.28943 43.1296C2.28495 43.2005 2.39478 43.1287 2.41403 43.1879C2.48973 43.4181 2.35463 43.5904 2.55553 43.817C2.58852 43.857 2.94136 43.9928 2.75735 44.1826C2.73096 44.2107 2.59049 44.1906 2.59044 44.2963C2.59022 44.4566 2.64649 44.7164 2.74922 44.8595C2.82328 44.9608 2.97119 44.7547 2.96501 44.9176C2.96302 44.9905 2.79986 44.9228 2.80682 45.0574C2.81268 45.194 2.95526 45.4811 3.01942 45.5872C3.08228 45.6944 3.19199 45.5566 3.20641 45.5605C3.28894 45.5841 3.4703 45.7384 3.48107 45.754C3.50552 45.7919 3.52977 45.8297 3.55389 45.8673C4.05258 46.6487 4.57339 47.462 5.44915 47.9132C5.51944 47.9491 5.56527 47.7764 5.57696 47.7804C5.84085 47.8576 5.42396 48.1361 5.51483 48.3668C5.66581 48.0533 5.73075 48.1659 5.92167 48.2264C6.01388 48.2549 6.0316 48.112 6.04577 48.1041C6.26325 47.9892 6.22036 48.2616 6.22036 48.3219C6.21332 48.54 6.40557 48.3727 6.40489 48.5186C6.40695 48.6646 6.18986 48.7786 6.36574 48.8573C6.46528 48.7664 6.47412 48.4141 6.62422 48.4248C7.17279 48.4674 8.02264 49.0267 8.43478 49.1628C8.65261 49.2392 8.80711 49.279 8.92027 49.3117C9.02353 49.3413 9.11117 49.3691 9.22021 49.4164C9.64816 49.5978 9.53807 49.3256 9.83948 49.2774C10.137 49.2258 9.88631 49.7784 9.90148 49.9114C9.91605 50.0439 9.9844 49.9239 10.0202 50.0021C10.0563 50.0802 9.93291 50.1445 10.0444 50.1926C10.1562 50.2414 10.5195 50.0762 10.5834 49.9517C10.7191 49.6887 10.6234 49.3734 10.9157 49.5268C10.9327 49.5358 10.8496 49.68 10.916 49.7066C11.422 49.9095 12.0034 49.9934 12.5259 50.1568C12.5985 50.1797 12.5133 50.3445 12.5556 50.3597C12.999 50.5177 12.8674 50.2101 13.1478 49.9118C13.0491 50.3356 13.1676 50.6132 13.516 50.6457C13.7221 50.6647 13.7023 50.4739 13.8461 50.3521C13.8891 50.3154 14.0261 50.4557 14.0595 50.3692C14.169 50.0867 14.0537 49.7537 14.4003 49.9075C14.4155 49.9147 14.3547 50.0695 14.4083 50.0828C14.7576 50.169 14.8186 49.8692 15.1903 49.8535C15.3142 49.8481 15.4772 49.8827 15.6512 49.9273C15.8868 49.9883 16.1532 50.0684 16.3396 50.0928C16.3135 50.5774 16.6349 50.4781 16.7748 50.1478C16.9924 50.1686 17.2306 50.1565 17.444 50.208C17.5175 50.2256 17.4655 50.3648 17.4745 50.3802C17.6144 50.6218 17.7124 50.2984 17.7601 50.2867C18.2676 50.1735 18.6875 50.4261 19.1828 50.1898C19.2001 50.1812 19.2306 49.8446 19.3579 50.0916C19.3662 50.1087 19.2048 50.2607 19.4329 50.2743C19.6606 50.288 20.0946 50.4706 20.419 50.3146C20.4978 50.2771 20.6955 50.0036 20.8496 50.217C20.8704 50.246 20.8479 50.3427 20.8779 50.3964C20.9752 50.5676 21.0274 50.2269 21.1426 50.5159C21.2579 50.8049 21.498 51.0207 21.8228 50.8191C21.8332 50.8132 21.9086 50.5428 22.0113 50.5464C22.1486 50.5513 22.3286 50.5895 22.4815 50.6005C22.5133 50.6028 22.544 50.604 22.5729 50.6034C22.6535 50.6018 22.6004 50.4346 22.6143 50.4314C23.1535 50.3325 23.5538 50.4773 24.1349 50.5346C24.2413 50.5455 24.5446 50.3128 24.7549 50.4906C24.9862 50.6851 24.7621 51.5114 25.2866 51.3078C25.5022 51.2262 25.7469 50.1784 26.1344 50.7135C26.8694 50.5684 27.5549 50.8347 28.2885 50.6331C28.3216 50.6242 28.4228 50.3313 28.5013 50.3342C28.6178 50.3391 28.6837 50.4744 28.7671 50.4823C28.9681 50.5029 29.1504 50.4731 29.3366 50.446C29.4774 50.4254 29.618 50.4065 29.7623 50.4126C29.8892 50.4178 29.8464 50.5591 29.998 50.5653C30.1495 50.5714 30.2487 50.3849 30.4557 50.4725C30.6122 50.5392 30.7718 50.9168 30.9751 50.9593C30.9798 50.5854 31.1199 50.5919 31.3695 50.4914C31.4174 50.4719 31.3649 50.3422 31.3876 50.3262C31.4798 50.2585 31.5664 50.3658 31.6541 50.2923C31.6755 50.2746 31.6757 50.1469 31.6932 50.1253C31.8413 49.9363 32.0896 50.2223 32.1322 50.2721C32.2954 50.4613 32.3707 50.295 32.4959 50.3694C32.6199 50.4437 32.4357 50.5378 32.5797 50.5827C32.8775 50.6757 33.2611 50.6547 33.5656 50.6609C33.6871 50.6626 33.6044 50.4921 33.6218 50.4884C33.8734 50.4455 34.1277 50.6276 34.2693 50.2888C34.4403 51.1673 34.4206 50.2042 34.778 50.3821C34.8062 50.3965 34.839 50.8118 34.7307 50.8721C34.6222 50.9322 34.4599 50.8015 34.3092 50.8959C34.2731 50.918 34.0669 51.3062 34.0391 51.3297C33.8203 51.5131 33.7908 50.8929 33.7793 50.8588C33.6487 50.4908 33.3985 50.9096 33.3332 50.9386C33.0333 51.0712 32.7794 50.9845 32.5303 51.0799C32.3652 51.1417 32.3506 51.5481 32.2212 51.5361C31.7917 51.497 31.6381 50.9311 31.2389 51.4255C31.1535 51.531 31.2424 51.9743 30.9314 51.6276C30.9118 51.6058 30.6809 51.2883 30.5475 51.4917C30.5309 51.5173 30.5327 51.6467 30.5107 51.6578C30.3629 51.7295 30.263 51.6274 30.1022 51.6785C29.9415 51.7296 29.749 51.8054 29.5653 51.7636C29.4967 51.7482 29.4151 51.6501 29.3502 51.564C29.3106 51.5113 29.2772 51.4631 29.2569 51.4409C29.1055 51.2727 28.9514 51.5536 28.8537 51.3489C28.7566 51.1432 28.9369 50.8265 28.6878 50.696C28.6831 51.0324 28.6667 51.3777 28.6566 51.7161C28.1146 51.7115 27.5896 51.6105 27.0491 51.6334C26.9817 51.6366 27.0534 51.8163 26.9812 51.8244C26.6767 51.8577 26.4096 51.7329 26.0971 51.7889C25.8539 51.833 25.5973 52.0283 25.3386 52.0803C25.1759 51.6979 24.7981 51.8339 24.5238 51.8025C24.4277 51.7917 24.4327 51.6888 24.3642 51.6562C24.1058 51.5356 24.2306 51.874 24.161 51.9285C23.8635 52.1607 23.8264 51.3915 23.466 51.4148C23.4468 51.4158 23.2184 51.8286 23.1867 51.8545C22.985 52.0232 23.1514 51.7121 23.0239 51.6831C22.831 51.6391 22.6871 51.5653 22.4903 51.6112C22.4498 51.6207 22.4071 51.6352 22.3613 51.6561C22.285 51.6923 22.093 51.9495 21.9359 51.7527C21.9152 51.727 21.9257 51.5913 21.9091 51.5835C21.6105 51.453 21.6054 51.879 21.4363 52.0241C21.2672 52.1691 21.0058 51.8757 20.9531 51.791C20.8146 51.572 21.0587 51.6971 21.0662 51.6755C21.1535 51.4192 20.9641 51.4639 20.8201 51.4424C20.7985 51.0247 20.5981 51.0499 20.671 51.4218C20.6792 51.4624 20.7911 51.4234 20.8201 51.4424C20.6971 51.8525 20.4674 51.9051 20.219 51.5216C20.103 51.3418 20.2129 51.1329 19.8608 51.2082C19.7014 51.242 19.7615 51.53 19.6205 51.6076C19.3003 51.7848 18.8839 51.5125 18.5467 51.5499C18.4252 51.5635 18.5411 51.7227 18.4579 51.7374C18.2372 51.7768 18.0465 51.6553 17.8272 51.7113C17.8073 51.7165 17.8522 51.8823 17.7842 51.883C17.2658 51.8911 16.8025 51.7725 16.2676 51.7493C16.0959 51.7419 15.8068 51.7717 15.5626 51.781C15.4468 51.7854 15.3387 51.7852 15.2518 51.7748C14.7902 51.7205 14.2057 51.4422 13.8022 51.4686C13.5372 51.485 13.5815 51.6536 13.4597 51.7563C13.2258 51.9556 12.8583 51.529 12.8157 51.4637C12.8141 51.4617 13.0479 51.4452 12.9333 51.3491C12.8793 51.1667 12.8184 51.4632 12.8157 51.4637C12.7839 51.422 12.3338 51.3372 12.2421 51.3577C12.1917 51.3693 12.2011 51.5275 12.1751 51.5306C11.5367 51.5979 10.9264 51.5539 10.3001 51.372C10.2895 51.3669 10.3359 51.1977 10.3108 51.188C9.96024 51.0478 9.70286 51.2155 9.37091 51.2761C9.03774 51.3358 8.80375 51.2372 8.70038 50.9032C8.64497 50.899 8.58647 50.8837 8.52761 50.8611C8.3426 50.7902 8.13444 50.6388 8.01321 50.5401C7.85169 50.4099 7.72948 50.7274 7.71078 50.729C7.15223 50.7835 6.88065 50.4861 6.3824 50.2552C6.14031 50.1448 5.61621 49.9634 5.34031 49.8601C5.1166 49.7786 5.02233 49.6361 4.8064 49.5697C4.77697 49.5604 4.7268 49.7065 4.71591 49.7069C4.40579 49.7335 4.70134 49.4781 4.69172 49.3953C4.65892 49.0924 4.64665 48.9362 4.32123 48.8486C4.24981 48.831 3.76015 49.1347 3.62692 49.0701C3.45874 48.9885 3.63141 48.8822 3.45663 48.799C3.44162 48.7913 3.36981 48.8857 3.28051 48.803C2.86711 48.4211 2.49517 47.9363 2.13205 47.4754C2.08267 47.4118 1.99582 47.6077 1.92116 47.5157C1.81927 47.3889 1.72209 47.256 1.63068 47.1157C1.40766 46.7751 1.22189 46.3844 1.12618 46.0223C1.09282 45.8943 1.246 45.9156 1.26998 45.8741C1.41685 45.6283 1.01343 45.535 0.991988 45.4952C0.504448 44.6425 0.661989 43.878 0.42204 42.9742C0.407704 42.9326 0.0113355 42.5567 0.319815 42.3629C0.340033 42.348 0.65439 42.171 0.432528 42.0173C0.418745 42.007 0.25452 42.1185 0.26905 41.9238C0.283826 41.7372 0.177175 41.4435 0.369878 41.2052C0.430581 41.1286 0.758204 40.9765 0.52117 40.7183C0.5039 40.696 -0.0409422 40.284 0.368656 40.2147C0.436242 40.2034 0.850966 40.2812 0.666494 39.9934C0.630984 39.9377 0.526703 40.0146 0.484678 39.8746C0.425922 39.6781 0.544646 39.4527 0.457852 39.1988C0.449764 39.1749 0.439729 39.1505 0.427337 39.126C0.402335 39.0786 0.155822 38.8446 0.400882 38.7368C0.439206 38.7202 0.568387 38.7901 0.600289 38.7159C0.75245 38.3653 0.756781 37.9517 0.959543 37.5909C1.03116 37.4641 1.23135 37.5919 1.33049 37.4698C1.42944 37.3473 1.571 37.0902 1.51968 36.9157C1.46864 36.7398 1.07064 36.784 1.11752 36.5554C1.32169 35.5719 1.91294 34.7539 2.39356 33.9151C2.4654 33.7905 2.29411 33.8343 2.39285 33.6469C2.71918 33.0134 3.26654 31.9614 3.83437 31.4968C3.8941 31.4467 3.95381 31.4026 4.01306 31.3659C4.50186 31.0736 4.24761 31.7029 4.55574 31.4367C4.70285 31.3103 4.49552 30.8875 4.51476 30.841C4.69856 30.3836 5.03436 30.2676 5.2598 29.9104C5.3063 29.837 5.12111 29.7911 5.16244 29.7295C5.30565 29.515 5.52663 29.3778 5.67497 29.1905C5.74071 29.107 5.63044 29.0343 5.70383 28.9679C5.87877 28.8079 6.06289 28.6894 6.30273 28.6129C6.32469 28.6059 6.34951 28.8167 6.46959 28.6978C6.66323 28.5057 6.99174 28.3394 7.12556 28.0281C7.16393 27.9364 6.95526 27.7224 7.24304 27.7271C7.3036 27.7279 7.51639 28.021 7.46607 27.6362C7.45599 27.5734 7.45441 26.9924 7.78324 27.0524C7.86855 27.069 8.1625 27.1947 8.21163 27.0855C8.21763 27.0698 8.06379 26.9942 8.12044 26.9197C8.32097 26.6602 8.59389 26.4337 8.80946 26.1733C8.86623 26.1041 8.65719 26.0684 8.7457 25.9689C8.88999 25.8068 9.08072 25.645 9.27819 25.4984C9.41312 25.3983 9.55624 25.3011 9.67841 25.2248C9.79007 25.1552 9.81068 25.3182 9.82761 25.3235C10.1007 25.4106 9.95749 25.1018 9.9843 25.0541C10.1534 24.7619 10.4407 24.724 10.6462 24.5028C10.7034 24.442 10.5588 24.358 10.5628 24.3367C10.6061 24.1252 10.6876 24.4217 10.788 24.3798C11.0689 24.2643 11.3166 24.0493 11.5413 23.846C11.6237 23.7711 11.413 23.7062 11.4885 23.6405C11.9345 23.2484 12.4101 22.9042 12.9375 22.6318C13.0357 22.5818 13.0652 22.7347 13.1024 22.7467C13.3559 22.8353 13.3503 22.4591 13.3744 22.405C13.4822 22.1594 13.6294 22.2043 13.7833 22.0622C14.3074 21.5797 14.9252 21.1501 15.5658 20.7377C15.8565 20.5515 16.1442 20.3749 16.4082 20.2121C17.4651 19.5606 18.3496 19.1268 19.2983 18.4594C19.3597 18.4165 19.1943 18.3027 19.246 18.2637C19.9366 17.7554 20.6341 17.3899 21.3222 16.8857C21.3785 16.8448 21.199 16.7503 21.2864 16.6796C21.4709 16.5298 21.7054 16.3917 21.9276 16.3174C21.9434 16.3121 21.9559 16.312 21.9662 16.3157C21.9943 16.3258 22.005 16.3639 22.0181 16.3976C22.0261 16.4181 22.0351 16.4369 22.0494 16.4468C22.0611 16.455 22.0765 16.4571 22.0979 16.4493C22.3459 16.3592 22.5879 16.2211 22.8006 16.0538C22.891 15.9822 22.6485 15.9217 22.7737 15.8405C23.6229 15.2853 24.436 14.7441 25.43 14.4078C25.497 14.3855 25.7399 14.6664 25.828 14.53C25.7843 14.4375 25.7213 14.3358 25.6686 14.2406C26.6504 13.5841 27.6662 13.0539 28.7018 12.4805C28.965 12.3345 29.2072 12.1992 29.4578 12.0542C29.5107 12.0236 29.3205 11.9109 29.4224 11.8508C30.0088 11.5044 30.5782 11.104 31.2791 10.9142C31.3483 10.8953 31.4912 11.2076 31.6409 11.0593C31.6669 11.033 31.9098 10.8369 31.9415 10.7322C31.9452 10.717 31.8155 10.6084 31.8993 10.5536C32.3839 10.2403 32.951 9.94984 33.4917 9.74662C33.5798 9.71373 33.5803 9.9101 33.6438 9.88795C34.0931 9.72974 34.4729 9.35892 34.9457 9.26237C35.2627 9.19819 35.3122 9.50894 35.5983 9.67686C35.6387 9.70054 35.8068 9.61043 35.8998 9.75084C36.1338 10.1037 36.2864 10.5504 36.5453 10.9211C36.6008 11.0011 36.7693 10.7825 36.7562 11.0612C36.7549 11.0801 36.6341 11.2402 36.6348 11.3318C36.6351 11.3953 36.7702 11.5145 36.7498 11.6078C36.7295 11.701 36.5963 11.6126 36.5458 11.7376C36.496 11.8635 36.6339 12.0082 36.4625 12.1345ZM7.30597 49.9417C7.19323 49.7297 6.96699 50.2841 7.19999 50.2137C7.21154 50.2096 7.31208 49.9522 7.30597 49.9417ZM27.5842 51.1594C27.3638 50.8987 27.2221 51.2888 27.3774 51.4903C27.5326 51.6916 27.6513 51.2384 27.5842 51.1594ZM29.8371 50.937C29.5805 50.7318 29.5507 51.5805 29.8204 51.4059C29.8361 51.3961 29.8521 50.9489 29.8371 50.937ZM34.9889 10.1264C34.9949 10.1321 35.1157 10.0708 35.1146 10.0623C35.0813 9.86183 34.8396 9.98478 34.9889 10.1264ZM32.0756 50.7089C31.9953 50.5945 31.7669 50.7282 31.8665 50.8704C31.9466 50.9847 32.1755 50.8512 32.0756 50.7089ZM2.00081 43.1744C2.00915 43.1706 2.00476 43.0708 1.95509 43.0786C1.79448 43.1048 1.85801 43.2395 2.00081 43.1744ZM35.882 50.7115C35.3191 50.6728 34.9834 49.9696 35.5975 50.0546C35.7086 50.07 35.3551 50.2755 35.4962 50.3401C35.7538 50.4579 35.9318 50.0201 36.1943 50.2595C36.2416 50.3033 35.9139 50.7152 35.881 50.7125C35.8813 50.7121 35.8817 50.7118 35.882 50.7115ZM7.44712 49.2301C7.44634 49.2217 7.32197 49.1694 7.31646 49.1755C7.18196 49.3292 7.43626 49.4362 7.44712 49.2301ZM2.9426 37.676C2.96017 37.6737 3.06786 37.3906 3.05703 37.3765C2.81161 37.1247 2.58706 37.7136 2.9426 37.676ZM16.3444 50.106C16.4946 49.9205 16.6665 49.904 16.7741 50.1475C16.6307 50.1301 16.4868 50.1232 16.3444 50.106Z" fill="black"/>
</svg>
