<svg width="57" height="37" viewBox="0 0 57 37" fill="none" xmlns="http://www.w3.org/2000/svg">
<path d="M1.30235 5.40421C1.81044 5.19417 2.50806 5.04349 3.04316 4.96658C3.21084 4.94219 3.15909 5.0678 3.27599 5.05568C3.50441 5.03198 3.69155 4.92368 3.91844 4.90961C3.99372 4.90547 3.95214 5.09211 4.02995 5.08411C4.45567 5.03928 4.82555 4.89041 5.24183 4.81178C7.37405 4.40299 9.36958 3.95938 11.4918 3.5507C12.1998 3.41384 13.0751 3.37742 13.7687 3.16394C13.8498 3.13883 13.7702 3.00491 13.7835 2.98972C13.9922 2.75606 13.971 3.06451 14.1396 3.06991C14.8039 3.09172 15.5133 2.96481 16.1492 2.78673C16.153 2.78566 16.1566 2.78456 16.1601 2.78343C16.4052 2.70504 16.0942 2.47635 16.3917 2.58537C16.4125 2.59277 16.373 2.75939 16.4499 2.76202C16.6241 2.76756 16.9351 2.68208 17.0659 2.67113C17.3182 2.6507 17.3588 2.64188 17.5926 2.60238C17.9123 2.54985 18.3024 2.56186 18.6344 2.47073C18.7053 2.45081 18.5834 2.30838 18.6941 2.26234C18.8051 2.21621 19.1114 2.18009 19.2193 2.2012C19.3275 2.2222 19.3038 2.35372 19.3265 2.37937C19.5105 2.59684 19.8128 2.20757 19.8642 2.19136C20.7073 1.91742 21.4657 2.00452 22.2528 1.90108C22.8545 1.82175 23.4638 1.68424 24.0436 1.62862C24.7487 1.5616 25.3452 1.58945 26.0088 1.51497C26.0789 1.50735 25.9799 1.32672 26.0655 1.31705C26.9841 1.21431 27.8353 1.17251 28.8041 1.24612C28.8977 1.25394 28.7871 1.42589 28.881 1.44362C29.459 1.54708 30.3432 1.8395 30.6464 1.10977C31.027 1.12603 31.4558 1.14542 31.8171 1.28563C32.0108 1.363 31.8805 1.50846 32.0109 1.49837C32.0329 1.49668 32.0623 1.49059 32.1018 1.47905C32.1636 1.46126 32.0813 1.30405 32.1742 1.28935C32.5657 1.22765 32.9889 1.27874 33.3685 1.20029C33.4457 1.18397 33.4259 1.04221 33.4481 1.0169C33.6349 0.811915 33.9346 1.15798 33.9992 1.18411C34.5028 1.37866 34.8402 1.31559 35.331 1.33908C35.444 1.34475 35.318 1.1493 35.4272 1.14798C35.9934 1.1439 36.5683 1.19251 37.0948 1.31442C37.2118 1.34202 37.0915 1.49587 37.1467 1.51734C37.3888 1.6103 37.4669 1.30945 37.6982 1.39448C37.7468 1.41207 37.7073 1.548 37.7152 1.56393C37.8364 1.81386 37.9869 1.48699 38.0241 1.48278C38.4833 1.42117 38.7866 1.80708 39.2437 1.80824C39.2995 1.80822 39.1951 1.61962 39.3509 1.63031C40.4004 1.70334 41.3933 1.89872 42.4204 2.2355C42.5725 2.28646 42.4362 2.39469 42.4431 2.41254C42.5541 2.69227 42.7208 2.37861 42.7741 2.37616C43.1911 2.3652 43.4898 2.72286 43.8403 2.38757C45.2192 2.82314 46.4778 3.05883 47.7967 3.70326C48.1021 3.8557 48.3926 4.02671 48.6629 4.22191C48.6804 4.23407 48.5796 4.373 48.6146 4.39652C49.0592 4.69578 49.0749 4.41908 49.5344 4.28305C49.6523 4.25014 49.7253 4.71501 49.7318 4.75033C49.7614 4.88153 49.5703 5.06442 49.5867 5.09521C49.721 5.34088 50.065 4.58954 50.3496 4.74062C50.3577 4.74651 50.2492 4.86047 50.2655 4.88636C50.3156 4.96704 50.4159 4.95311 50.4606 5.0376C50.567 5.23569 50.404 5.60227 50.7805 5.55362C50.8277 5.54705 51.0184 5.11419 51.2632 5.28969C51.3621 5.35862 51.8029 5.63471 51.9013 5.74213C52.0018 5.84812 51.8352 5.91632 51.84 5.92759C52.0348 6.30731 51.8691 6.29267 51.8435 6.63813C51.8122 6.98038 52.1911 6.38905 52.2988 6.37209C52.4009 6.3502 52.5372 6.66532 52.5517 6.75187C52.57 6.84021 52.4423 6.86003 52.4697 6.92393C52.6455 7.34355 52.8301 6.77063 53.0064 6.7734C53.4273 6.78719 53.2635 7.34336 53.4238 7.5715C53.468 7.6344 53.5072 7.50664 53.5631 7.54655C53.7775 7.70163 53.7863 7.94493 54.1057 8.08221C54.157 8.10298 54.5684 8.10287 54.4942 8.37924C54.4828 8.4181 54.3408 8.44736 54.3907 8.55711C54.4658 8.72112 54.6253 8.98584 54.763 9.11334C54.8682 9.21225 54.9548 8.95757 55 9.14551C55.0191 9.22877 54.8341 9.17359 54.8773 9.32303C54.9214 9.47068 55.1155 9.78712 55.1845 9.90964C55.255 10.0311 55.3614 9.88747 55.3764 9.8921C55.4654 9.92316 55.6597 10.1362 55.6693 10.1592C56.232 11.2961 56.2285 12.4751 56.3555 13.6544C56.3649 13.7492 56.5339 13.6818 56.5371 13.6962C56.6134 14.0193 56.1568 13.772 56.0052 13.9858C56.3514 13.9569 56.2901 14.0843 56.3189 14.3073C56.3325 14.4152 56.4692 14.3637 56.4825 14.374C56.6779 14.5484 56.4055 14.6464 56.3497 14.6692C56.1439 14.7577 56.3651 14.8952 56.2251 14.9542C56.0863 15.0102 55.9119 14.8265 55.8895 15.0351C56.0049 15.111 56.347 14.9902 56.3779 15.1627C56.4238 15.4421 56.3724 15.7758 56.2709 16.1135C56.1284 16.5958 55.8758 17.0832 55.7636 17.3529C55.58 17.7903 55.5378 17.9447 55.3864 18.1893C55.1036 18.6302 55.3995 18.5546 55.3572 18.9028C55.3072 19.2548 54.8498 18.8427 54.7149 18.829C54.5811 18.8122 54.674 18.9185 54.5875 18.934C54.5016 18.948 54.4759 18.8091 54.397 18.9049C54.32 18.999 54.3571 19.4037 54.4491 19.5097C54.6472 19.7315 54.9855 19.7371 54.7216 19.9877C54.7063 20.0019 54.6043 19.8677 54.5523 19.9258C54.1519 20.3774 53.7602 20.9568 53.3516 21.3404C53.2924 21.3971 53.1942 21.2373 53.1583 21.2689C52.7808 21.5965 53.1188 21.6284 53.2102 22.0452C52.904 21.7343 52.6062 21.6938 52.368 21.9892C52.2227 22.1675 52.3938 22.255 52.4003 22.4569C52.4022 22.5179 52.1956 22.564 52.2438 22.6442C52.4016 22.9061 52.7471 23.0016 52.4009 23.2082C52.3854 23.2169 52.2998 23.0732 52.2549 23.1106C51.9628 23.3512 52.1606 23.5853 51.9064 23.9197C51.7071 24.1822 51.1625 24.4858 50.8656 24.739C50.5238 24.3954 50.3565 24.7185 50.4945 25.0501C50.3183 25.2027 50.147 25.3922 49.9471 25.5156C49.8784 25.5582 49.8207 25.4199 49.803 25.4157C49.5296 25.3451 49.6741 25.6541 49.6442 25.6989C49.3127 26.1704 48.7908 26.3001 48.5277 26.8384C48.5195 26.8567 48.7139 27.1338 48.4491 27.0347C48.4314 27.0273 48.464 26.8002 48.2696 26.9474C48.0746 27.0951 47.602 27.2485 47.4254 27.5873C47.3833 27.6689 47.3829 28.0177 47.1135 27.9563C47.0774 27.9476 47.0381 27.8557 46.9788 27.8338C46.7887 27.7643 46.9498 28.0703 46.6722 27.9186C46.4498 27.7971 46.1878 27.7645 46.0044 27.9494C45.9588 27.9954 45.9179 28.0549 45.8834 28.13C45.8785 28.1408 45.9667 28.4116 45.876 28.4731C45.7358 28.5678 45.5072 28.6646 45.3627 28.7706C45.2935 28.8214 45.4359 28.9255 45.4256 28.9367C45.0078 29.3513 44.5764 29.4701 44.0068 29.777C43.9027 29.8327 43.7444 30.2137 43.4494 30.1911C43.1303 30.1635 42.8855 29.3416 42.5246 29.8093C42.3855 29.9923 42.7082 31.0256 42.0761 30.783C41.4799 31.3136 40.7 31.4603 40.0814 32.0407C40.0536 32.0667 40.0972 32.3781 40.0184 32.4189C39.9082 32.4749 39.7838 32.3892 39.7037 32.4246C39.3675 32.5693 39.1311 32.8358 38.8084 32.9937C38.6859 33.0539 38.6597 32.9076 38.5133 32.9792C38.3669 33.0507 38.3601 33.2658 38.1213 33.2935C37.9404 33.3138 37.6125 33.06 37.3937 33.1266C37.562 33.4604 37.4223 33.5266 37.2224 33.7435C37.184 33.7853 37.2954 33.8737 37.2803 33.8995C37.2202 34.0069 37.0854 33.9558 37.0319 34.0661C37.0188 34.0928 37.0768 34.2065 37.0694 34.2347C37.0081 34.4788 36.6295 34.3511 36.5644 34.3283C36.3165 34.2422 36.3287 34.4224 36.1765 34.4161C36.0266 34.4085 36.1576 34.2369 36.0016 34.2654C35.6784 34.3245 35.3229 34.5258 35.0278 34.665C34.9104 34.7212 35.0654 34.8347 35.0504 34.8463C34.8275 35.0046 34.5012 34.9619 34.513 35.3334C33.9599 34.6259 34.4026 35.4819 33.9707 35.494C33.9365 35.4946 33.7223 35.1369 33.803 35.0308C33.8836 34.9247 34.1015 34.9639 34.207 34.8073C34.2324 34.7703 34.2605 34.3241 34.2767 34.29C34.4059 34.0219 34.7084 34.5641 34.7348 34.5892C35.0237 34.857 35.0775 34.3627 35.1266 34.3059C35.3534 34.0448 35.6326 34.0017 35.8242 33.7979C35.9496 33.6654 35.7793 33.2961 35.9038 33.2462C36.3457 33.0649 36.7575 33.4893 36.9212 32.8474C36.9559 32.7103 36.6652 32.3622 37.1269 32.5118C37.1558 32.5214 37.5278 32.6846 37.5582 32.4384C37.5619 32.4074 37.4999 32.2938 37.5155 32.273C37.6217 32.1355 37.7637 32.1756 37.8907 32.0498C38.0176 31.924 38.1613 31.7606 38.3515 31.7048C38.466 31.6711 38.714 31.8085 38.7915 31.8326C39.0122 31.9036 39.0205 31.5783 39.2061 31.7096C39.3934 31.8409 39.3829 32.209 39.6723 32.1976C39.5135 31.901 39.3608 31.5908 39.2057 31.2899C39.7151 31.0116 40.282 30.8039 40.7681 30.4919C40.8285 30.4528 40.6719 30.3363 40.734 30.2904C40.9956 30.0978 41.3019 30.0604 41.5538 29.8421C41.7484 29.6725 41.8788 29.363 42.0709 29.1818C42.3985 29.4289 42.6942 29.0809 42.9579 28.9473C43.0519 28.8994 43.103 28.9888 43.1836 28.9753C43.4856 28.9221 43.1866 28.7131 43.2201 28.6261C43.3614 28.2547 43.8179 28.8752 44.1226 28.6416C44.1395 28.6292 44.106 28.1525 44.118 28.1127C44.1959 27.8543 44.229 28.2093 44.3552 28.1574C44.5849 28.0629 44.7791 28.0447 44.9352 27.7831C44.9819 27.7052 44.9829 27.3881 45.2322 27.4497C45.2656 27.4572 45.3363 27.5736 45.3555 27.5692C45.5087 27.5296 45.5429 27.438 45.5396 27.3288C45.5354 27.1944 45.4744 27.0333 45.5067 26.9091C45.5652 26.6843 45.9645 26.7482 46.0615 26.7801C46.3133 26.8624 46.0287 26.924 46.0352 26.9459C46.1156 27.2071 46.2521 27.0468 46.3882 26.9681C46.6628 27.2839 46.8201 27.1288 46.528 26.8851C46.496 26.8587 46.4247 26.9639 46.3882 26.9681C46.2447 26.5603 46.3954 26.3755 46.8367 26.5126C47.0432 26.5766 47.0866 26.8115 47.324 26.52C47.4307 26.3881 47.1988 26.2062 47.2606 26.0538C47.3937 25.7123 47.9044 25.6316 48.1532 25.3573C48.241 25.26 48.042 25.2251 48.0981 25.1547C48.2456 24.9681 48.4768 24.9197 48.6065 24.7197C48.618 24.7015 48.4695 24.6139 48.5207 24.5644C48.9083 24.1832 49.2962 23.9597 49.6985 23.5614C49.9008 23.3617 50.1772 22.9434 50.3783 22.7517C50.7347 22.4135 51.2775 22.156 51.5081 21.784C51.6565 21.5444 51.4887 21.4882 51.4749 21.3265C51.4457 21.0166 51.9888 20.9483 52.0691 20.9408C52.0722 20.9405 51.9635 21.1476 52.1054 21.1008C52.2895 21.1499 52.0683 20.9431 52.0691 20.9408C52.1227 20.9367 52.4211 20.5933 52.4443 20.5033C52.458 20.4541 52.3149 20.3859 52.3243 20.3622C52.5445 19.8092 52.8607 19.2389 53.2036 18.7708C53.2114 18.7632 53.3564 18.8619 53.3729 18.8429C53.6071 18.5791 53.5155 18.2892 53.5307 17.9657C53.5412 17.6495 53.6642 17.4707 54.0055 17.4309C54.0526 17.2205 54.2809 16.9901 54.4123 16.8542C54.5472 16.709 54.2315 16.5762 54.2298 16.5604C54.1884 16.1721 54.3073 15.9668 54.4276 15.6967C54.4707 15.599 54.5131 15.4938 54.5439 15.3723C54.6027 15.1589 54.6163 14.6827 54.5919 14.4451C54.5748 14.2539 54.6584 14.1433 54.6093 13.9703C54.6026 13.9471 54.451 13.9695 54.4453 13.9625C54.264 13.7778 54.6339 13.8641 54.6999 13.824C54.9374 13.6733 55.064 13.5626 54.9309 13.3102C54.9003 13.2483 54.3533 13.1354 54.3093 13.0456C54.2525 12.9233 54.4488 12.9439 54.3815 12.8151C54.3757 12.8042 54.2603 12.8257 54.2509 12.7434C54.2061 12.3623 54.158 11.9297 53.998 11.5508C53.9767 11.4993 53.8283 11.633 53.795 11.5614C53.6383 11.2263 53.4682 10.8736 53.3466 10.5083C53.3171 10.4183 53.4586 10.3983 53.481 10.3607C53.613 10.1265 53.2226 10.1585 53.204 10.1436C52.7013 9.70434 52.5382 9.05315 51.9154 8.67429C51.8786 8.65066 51.4126 8.72476 51.5082 8.39664C51.5156 8.37548 51.6109 8.03591 51.3728 8.12716C51.3582 8.13324 51.3237 8.31711 51.2139 8.20824C51.093 8.09123 50.8558 8.05028 50.7917 7.78159C50.7737 7.6984 50.8265 7.34283 50.5154 7.44271C50.492 7.44761 49.9244 7.76738 50.0415 7.37206C50.0606 7.30709 50.3004 6.9575 49.9728 7.0123C49.9102 7.0238 49.9362 7.14875 49.7984 7.13524C49.5822 7.11255 49.4431 6.90388 49.1527 6.96127C49.1017 6.97153 48.8243 7.14825 48.8043 6.89413C48.8009 6.85417 48.9011 6.74714 48.8441 6.70039C48.5718 6.47722 48.1948 6.40352 47.8987 6.16793C47.8016 6.08839 47.9493 5.90405 47.8553 5.79739C47.7617 5.69071 47.5393 5.53557 47.3717 5.58143C47.2051 5.62761 47.2114 6.01988 47.0109 5.97275C46.9851 5.96675 46.9594 5.96051 46.9337 5.95404C46.0688 5.73399 45.3304 5.28785 44.4791 5.02528C44.3482 4.9853 44.4243 5.13988 44.2287 5.09068C43.4604 4.89384 42.2897 4.76905 41.666 4.38074C41.1817 4.07077 41.8711 4.02109 41.484 3.862C41.295 3.78568 41.0124 4.16734 40.9639 4.17307C40.5139 4.23787 40.2369 4.00898 39.8275 4.01212C39.743 4.01297 39.802 4.19324 39.7305 4.19216C39.4864 4.19009 39.2399 4.08309 39.0026 4.07013C38.8961 4.06476 38.9011 4.19677 38.8048 4.17598C38.574 4.12789 38.3715 4.05194 38.1502 3.9078C38.1299 3.89465 38.2891 3.74661 38.1122 3.72369C37.8463 3.68915 37.5203 3.53987 37.1951 3.64042C37.0984 3.67083 37.0736 3.9681 36.8866 3.74819C36.8473 3.70237 36.9262 3.34816 36.6682 3.64138C36.6243 3.68974 36.2015 4.08193 36.0182 3.80291C35.9701 3.72932 35.8509 3.42934 35.7313 3.46976C35.7152 3.47635 35.7708 3.63955 35.6734 3.65055C35.3353 3.68679 34.9543 3.65532 34.6341 3.69632C34.5446 3.70748 34.6725 3.87713 34.5394 3.88852C34.1736 3.92005 33.7129 3.86962 33.3456 3.81493C33.2103 3.79444 33.3049 3.6577 33.2952 3.64266C33.1375 3.39822 33.0409 3.7264 32.9881 3.74539C32.6583 3.85935 32.4042 3.70635 32.0946 3.7505C32.0092 3.76233 32.0717 3.9182 32.0548 3.93236C32.0497 3.93642 32.0448 3.94011 32.0402 3.94346C31.8875 4.05464 32.0048 3.78724 31.8956 3.75863C31.5641 3.67555 31.2564 3.69478 30.9476 3.72337C30.8365 3.7341 30.9667 3.91203 30.8671 3.91959C30.2775 3.96793 29.6531 3.97665 29.0506 3.909C28.9371 3.89596 29.0002 3.75252 28.975 3.72191C28.8005 3.50761 28.5786 3.82602 28.5256 3.85839C28.2843 4.00597 28.1762 3.88914 27.9589 3.92692C26.9476 4.10926 25.6452 4.14293 24.6194 4.20427C23.3083 4.2821 22.3296 4.2741 21.0738 4.49055C20.9945 4.50418 21.1017 4.67648 21.0337 4.6906C20.1276 4.86909 19.3089 4.92693 18.4469 5.1297C18.3767 5.14596 18.5088 5.30206 18.3972 5.33401C18.1685 5.40076 17.8701 5.44378 17.6218 5.43145C17.5007 5.42578 17.6298 5.24867 17.5083 5.24605C17.2251 5.2397 16.9283 5.28186 16.6501 5.36326C16.6495 5.36345 16.6489 5.36364 16.6483 5.36383C16.5341 5.39983 16.7465 5.54118 16.591 5.57276C15.4993 5.79898 14.5542 6.02423 13.4329 6.02912C13.3571 6.02925 13.215 5.6851 13.075 5.78791C13.0852 5.88981 13.1116 6.00651 13.13 6.1138C11.5807 6.51606 10.0977 6.74235 8.57236 7.11546C8.50809 7.13126 8.66736 7.29066 8.54325 7.3222C7.82652 7.50479 7.13014 7.74655 6.34158 7.76379C6.26589 7.76513 6.21136 7.42566 6.01615 7.53341C5.9819 7.5526 5.67883 7.68447 5.61716 7.77896C5.60912 7.79284 5.7098 7.93017 5.60941 7.96323C5.0252 8.15274 4.39163 8.29749 3.76459 8.381C3.66327 8.39421 3.71827 8.2009 3.64562 8.20892C3.13019 8.26719 2.63152 8.55226 2.11261 8.55017C1.76462 8.54848 1.79577 8.23187 1.54093 8.00814C1.50491 7.97657 1.30491 8.03184 1.24465 7.87457C1.09263 7.47915 1.05182 7.00712 0.878494 6.58915C0.841367 6.49899 0.603999 6.68248 0.693169 6.40902C0.699626 6.39054 0.871163 6.25569 0.895539 6.1649C0.912655 6.10201 0.801873 5.95734 0.849229 5.86897C0.896652 5.78066 1.0138 5.89445 1.10226 5.78067C1.1904 5.66598 1.08379 5.49516 1.30235 5.40421ZM54.9965 16.1685C55.1972 16.0432 54.6216 15.8787 54.717 16.0842C54.7223 16.0943 54.9866 16.1749 54.9965 16.1685ZM40.5024 31.195C40.8431 31.2993 40.7819 30.8831 40.5341 30.7942C40.2869 30.705 40.3991 31.1632 40.5024 31.195ZM38.4897 32.5699C38.8284 32.6201 38.4525 31.8585 38.2835 32.1483C38.2735 32.1649 38.4699 32.567 38.4897 32.5699ZM2.30208 7.68884C2.29738 7.68195 2.15359 7.71758 2.15248 7.72617C2.13259 7.93079 2.41971 7.8595 2.30208 7.68884ZM36.4229 33.9101C36.5551 33.9712 36.7212 33.7357 36.5575 33.6599C36.4263 33.5988 36.2589 33.8341 36.4229 33.9101ZM53.2245 7.78507C53.229 7.77676 53.1614 7.6998 53.1278 7.73757C53.0204 7.85912 53.1518 7.92366 53.2245 7.78507ZM32.7251 35.728C33.3068 35.4928 33.9479 35.9639 33.2961 36.1831C33.1779 36.2226 33.4432 35.8675 33.2736 35.8771C32.9644 35.8948 32.9748 36.3751 32.6054 36.2856C32.539 36.2688 32.6918 35.7399 32.7257 35.7266C32.7255 35.7271 32.7253 35.7275 32.7251 35.728ZM55.7175 16.2494C55.7263 16.2478 55.7679 16.1092 55.7608 16.1041C55.5942 15.9859 55.512 16.2595 55.7175 16.2494ZM48.247 4.22363C48.247 4.20467 47.942 4.06437 47.9253 4.07517C47.6516 4.29934 48.2589 4.57971 48.247 4.22363ZM50.8521 24.7342C50.8622 24.9947 50.7528 25.1339 50.4952 25.0498C50.6155 24.9503 50.7197 24.8503 50.8521 24.7342Z" fill="black"/>
</svg>
