<svg width="34" height="61" viewBox="0 0 34 61" fill="none" xmlns="http://www.w3.org/2000/svg">
<path d="M0.74046 23.915C1.09249 23.682 1.60711 23.4959 2.00912 23.3925C2.13505 23.3597 2.12125 23.4832 2.20996 23.4652C2.38321 23.43 2.50649 23.316 2.68046 23.2907C2.73825 23.2828 2.7446 23.4644 2.80349 23.4528C3.12747 23.387 3.40379 23.2172 3.72218 23.1177C5.26959 22.6367 6.81299 22.1079 8.37657 21.6733C8.91085 21.5231 9.58577 21.4739 10.0963 21.2583C10.156 21.2329 10.0785 21.1018 10.0869 21.0868C10.2212 20.855 10.2411 21.1588 10.372 21.163C10.8975 21.1773 11.4602 21.0446 11.9151 20.8771C11.9178 20.876 11.9205 20.875 11.9231 20.8739C12.1023 20.7985 11.8443 20.5698 12.0811 20.6802C12.0976 20.6877 12.0828 20.852 12.1414 20.8553C12.2743 20.8625 12.5026 20.7818 12.6008 20.7728C12.7912 20.756 12.8172 20.7488 12.9967 20.7124C13.247 20.6632 13.5562 20.6804 13.8128 20.5961C13.8676 20.5776 13.7633 20.4339 13.8483 20.3902C13.9336 20.3463 14.174 20.3167 14.2601 20.3403C14.3464 20.3637 14.3339 20.4939 14.3529 20.52C14.5093 20.7402 14.7234 20.3625 14.7577 20.3488C15.3631 20.1077 15.9858 20.2199 16.5832 20.1577C17.0401 20.1097 17.5276 20.0071 17.987 19.991C18.5262 19.9734 18.9677 20.0489 19.4781 20.0343C19.5341 20.0331 19.4688 19.8442 19.5376 19.8424C20.2741 19.8241 20.9617 19.8778 21.6659 20.0739C21.7368 20.0939 21.6277 20.2495 21.6972 20.2794C22.1299 20.4564 22.7299 20.8738 23.0988 20.208C23.386 20.2851 23.75 20.3874 23.9747 20.5877C24.0993 20.6982 23.9695 20.8159 24.0671 20.8299C24.0835 20.8323 24.1063 20.8317 24.1379 20.8278C24.1873 20.822 24.1649 20.6541 24.2366 20.6572C24.544 20.6722 24.8242 20.8011 25.1468 20.8136C25.2108 20.8154 25.2363 20.6751 25.2607 20.6559C25.466 20.5025 25.5955 20.9049 25.6352 20.9451C25.9556 21.2507 26.2378 21.2812 26.5822 21.4315C26.6628 21.4672 26.6416 21.2511 26.7225 21.2797C27.1421 21.4308 27.5466 21.649 27.8734 21.929C27.9456 21.9917 27.7912 22.0907 27.8212 22.1277C27.9541 22.2899 28.1505 22.0506 28.283 22.2088C28.3108 22.2418 28.2182 22.3477 28.2166 22.3646C28.1874 22.6276 28.4515 22.3949 28.4818 22.4056C28.8575 22.5293 28.8457 22.9556 29.1541 23.1308C29.1924 23.1527 29.2226 22.9533 29.3242 23.0241C30.002 23.4954 30.5901 24.155 30.9704 24.8788C31.0293 24.9907 30.8703 25.0002 30.8624 25.0166C30.736 25.2691 31.0554 25.1299 31.0906 25.1562C31.3563 25.3645 31.2729 25.7618 31.7313 25.7368C32.2042 26.7298 32.7276 27.7248 32.8492 28.793C32.8798 29.0575 32.8871 29.332 32.8617 29.6038C32.8603 29.6204 32.6903 29.6208 32.6882 29.6536C32.6578 30.0494 32.9018 29.9333 33.2534 30.1576C33.342 30.2166 32.9828 30.4649 32.956 30.4842C32.8593 30.5597 32.6044 30.5179 32.5867 30.5416C32.4464 30.7321 33.2655 30.6262 33.2855 30.8812C33.2847 30.8892 33.131 30.8672 33.1174 30.8893C33.0749 30.9579 33.1394 31.0188 33.091 31.0863C32.9787 31.2442 32.5812 31.3054 32.8211 31.5044C32.8518 31.5304 33.3191 31.4737 33.3015 31.6921C33.2952 31.778 33.3029 32.1655 33.2689 32.2752C33.2362 32.384 33.0872 32.3052 33.0805 32.313C32.8732 32.5991 32.7935 32.4857 32.4932 32.6173C32.1931 32.7457 32.8949 32.7405 32.97 32.8051C33.0452 32.8684 32.8667 33.0825 32.8062 33.1199C32.7456 33.165 32.6546 33.0966 32.6191 33.1378C32.3854 33.4095 32.9557 33.2938 33.0584 33.4008C33.2999 33.6593 32.7628 33.7908 32.6865 33.9949C32.6657 34.0509 32.7891 34.0183 32.7936 34.0715C32.809 34.2832 32.6314 34.3835 32.7417 34.6431C32.7602 34.6832 33.0362 34.9345 32.7887 35.0158C32.7533 35.0266 32.6339 34.9576 32.5907 35.0356C32.5261 35.1519 32.4559 35.3704 32.4708 35.5142C32.4819 35.6206 32.7145 35.5482 32.6235 35.6617C32.5828 35.7119 32.4822 35.5825 32.416 35.6786C32.3504 35.7737 32.2962 36.0436 32.2758 36.1481C32.256 36.2521 32.4268 36.2329 32.4355 36.2437C32.4848 36.3084 32.5118 36.5281 32.5069 36.5462C32.2992 37.4576 31.8109 38.1178 31.5926 39.0116C31.5753 39.081 31.7521 39.0934 31.7511 39.1046C31.7379 39.354 31.3735 39.0252 31.1767 39.1231C31.5101 39.2198 31.4198 39.2858 31.3996 39.4496C31.39 39.5287 31.5304 39.536 31.5409 39.5474C31.6912 39.7275 31.4159 39.7109 31.3583 39.7109C31.146 39.7119 31.3343 39.8739 31.1918 39.8753C31.0503 39.8765 30.9123 39.6942 30.8582 39.8396C30.9577 39.9258 31.3022 39.9352 31.3075 40.0657C31.3156 40.2688 31.225 40.5083 31.1008 40.7431C30.9262 41.0735 30.6701 41.4205 30.5777 41.5875C30.4087 41.8985 30.3798 42.0134 30.2507 42.1838C30.0152 42.492 30.2919 42.4695 30.2874 42.7327C30.2809 42.9978 29.8004 42.6326 29.6711 42.6078C29.5421 42.582 29.6435 42.6726 29.5622 42.6794C29.4811 42.6858 29.4434 42.5668 29.3766 42.643C29.3103 42.7186 29.3915 43.0614 29.4936 43.1537C29.7109 43.3481 30.0314 43.3707 29.8168 43.5628C29.8043 43.5737 29.6886 43.4583 29.6477 43.5036C29.3245 43.8709 29.1153 44.2476 28.8031 44.5952C28.7604 44.6419 28.6354 44.5102 28.6089 44.5364C28.3313 44.8087 28.651 44.8336 28.8321 45.1736C28.4787 44.9215 28.1938 44.891 28.0492 45.1385C27.9616 45.2876 28.1397 45.3559 28.198 45.5203C28.2156 45.5698 28.0413 45.612 28.1064 45.6761C28.3186 45.8869 28.6589 45.9485 28.3922 46.1467C28.3801 46.1552 28.2653 46.0377 28.2335 46.0727C28.0235 46.3033 28.2758 46.4718 28.1463 46.7568C28.0466 46.9771 27.6628 47.2469 27.4883 47.4667C27.081 47.2034 27.0355 47.4833 27.2589 47.7545C27.1492 47.9008 27.0575 48.0779 26.9212 48.2024C26.8744 48.2453 26.7788 48.1347 26.7619 48.1329C26.4978 48.1019 26.7259 48.3473 26.7144 48.388C26.5709 48.8313 26.1862 48.9611 26.1615 49.4247C26.1607 49.4411 26.4259 49.6505 26.1627 49.5991C26.1449 49.5951 26.0927 49.4002 25.9772 49.5475C25.8614 49.6951 25.5111 49.8825 25.4862 50.1882C25.4803 50.2619 25.6094 50.553 25.359 50.5358C25.3253 50.5332 25.2577 50.4615 25.1993 50.4508C25.0127 50.4172 25.2637 50.6517 24.9727 50.5609C24.7396 50.4882 24.5064 50.4954 24.4238 50.6737C24.4032 50.7181 24.3919 50.7731 24.3921 50.8402C24.3917 50.8506 24.5718 51.0618 24.5174 51.1287C24.4305 51.2354 24.2684 51.3603 24.1926 51.4652C24.155 51.5175 24.3141 51.5844 24.3099 51.5952C24.1253 52.0003 23.8172 52.1607 23.4764 52.4987C23.4138 52.5603 23.4407 52.8999 23.1927 52.9242C22.921 52.9509 22.3911 52.293 22.2806 52.752C22.2357 52.936 22.9161 53.7595 22.2934 53.6723C22.0022 54.251 21.4676 54.4681 21.2275 55.0571C21.2169 55.0831 21.3864 55.335 21.3425 55.3815C21.277 55.4499 21.1392 55.4024 21.0889 55.4485C20.8755 55.6392 20.7959 55.9139 20.6022 56.1134C20.5288 56.1894 20.4456 56.0699 20.3579 56.1604C20.2703 56.2509 20.3562 56.4355 20.1762 56.5072C20.0397 56.561 19.6683 56.4112 19.5219 56.5123C19.801 56.761 19.7124 56.8514 19.6543 57.0676C19.6435 57.1091 19.7685 57.1638 19.7684 57.1879C19.7703 57.2876 19.6441 57.268 19.6525 57.369C19.6544 57.3934 19.7497 57.4783 19.7566 57.503C19.8191 57.7169 19.473 57.6748 19.4131 57.667C19.1849 57.6383 19.2688 57.7939 19.1464 57.819C19.0242 57.8438 19.0536 57.6702 18.9422 57.7271C18.7116 57.8449 18.5186 58.0909 18.3475 58.2713C18.2798 58.3438 18.4515 58.408 18.4448 58.421C18.3389 58.6025 18.0643 58.6348 18.2374 58.9486C17.4925 58.4626 18.2163 59.0982 17.8848 59.1993C17.8583 59.2071 17.5328 58.9478 17.5488 58.8404C17.5647 58.7332 17.7523 58.7206 17.7658 58.565C17.7693 58.5282 17.5948 58.1423 17.5925 58.1098C17.576 57.8542 18.0521 58.2524 18.0838 58.2683C18.4284 58.4357 18.2541 58.0034 18.268 57.9447C18.3327 57.6746 18.5349 57.5794 18.5984 57.3657C18.6404 57.2264 18.345 56.9471 18.4224 56.8785C18.6791 56.6505 19.1827 56.936 19.0243 56.3706C18.9932 56.2467 18.6112 56.0094 19.0449 56.0428C19.0721 56.0451 19.4399 56.1086 19.3594 55.8926C19.3492 55.8654 19.2509 55.7812 19.2546 55.7602C19.2814 55.6215 19.4128 55.6268 19.4618 55.4938C19.5108 55.3607 19.5579 55.1921 19.6885 55.106C19.7671 55.054 20.0261 55.1212 20.0992 55.1262C20.3082 55.1423 20.1788 54.8629 20.3849 54.9376C20.5924 55.0122 20.7375 55.3285 20.9686 55.2609C20.7154 55.0394 20.4616 54.8051 20.2097 54.5791C20.4968 54.2541 20.8491 53.9977 21.1057 53.6583C21.1373 53.616 20.963 53.5438 20.9931 53.4957C21.1147 53.3002 21.3605 53.2007 21.4815 52.9667C21.5759 52.7838 21.5621 52.493 21.6523 52.3002C22.0334 52.4382 22.1204 52.1149 22.2831 51.9617C22.3401 51.9079 22.4183 51.9748 22.4785 51.9516C22.7035 51.8626 22.3745 51.7326 22.3666 51.655C22.3325 51.324 22.9569 51.7747 23.1144 51.5354C23.1232 51.5227 22.9063 51.129 22.9008 51.0938C22.8634 50.8662 23.0308 51.1585 23.1151 51.0967C23.2686 50.9841 23.423 50.941 23.4524 50.6991C23.4626 50.6256 23.351 50.346 23.5856 50.3603C23.6165 50.362 23.7204 50.4496 23.7348 50.4433C23.8475 50.3896 23.8411 50.3086 23.7966 50.2179C23.7418 50.1062 23.6291 49.9797 23.6093 49.8713C23.5732 49.6751 23.9353 49.6749 24.0295 49.6889C24.2736 49.7245 24.0553 49.8138 24.0692 49.8314C24.2352 50.0393 24.2902 49.8871 24.3764 49.8033C24.7266 50.0318 24.8025 49.8817 24.4644 49.7154C24.4274 49.6974 24.4058 49.795 24.3764 49.8033C24.1031 49.4806 24.1637 49.3046 24.5911 49.3624C24.7913 49.3895 24.9128 49.5814 25.0115 49.306C25.056 49.1814 24.7917 49.0579 24.7908 48.9213C24.7887 48.6102 25.1949 48.491 25.304 48.253C25.3434 48.1668 25.162 48.1545 25.1843 48.0927C25.2408 47.932 25.4337 47.8554 25.4811 47.6737C25.4854 47.657 25.3258 47.5995 25.3549 47.5516C25.5717 47.1874 25.8576 46.939 26.0894 46.5768C26.2018 46.4015 26.3179 46.0419 26.4423 45.8725C26.6536 45.586 27.0983 45.3074 27.2143 44.991C27.2886 44.7883 27.1222 44.7465 27.0698 44.6123C26.9675 44.3539 27.4557 44.2818 27.5286 44.2749C27.5311 44.2747 27.477 44.4502 27.5977 44.4081C27.7788 44.4458 27.5283 44.277 27.5286 44.2749C27.5762 44.2703 27.7815 43.9773 27.7869 43.901C27.79 43.8594 27.6428 43.8031 27.647 43.7829C27.7516 43.2993 27.919 42.8974 28.2154 42.4732C28.2221 42.4669 28.3722 42.5572 28.386 42.5414C28.5838 42.3213 28.472 42.0642 28.4572 41.8035C28.4423 41.5427 28.5557 41.4013 28.884 41.4069C28.9218 41.2369 29.1424 41.0726 29.2723 40.979C29.4023 40.8853 29.0988 40.7302 29.0976 40.7165C29.072 40.3839 29.2088 40.2227 29.3563 40.0162C29.41 39.941 29.4649 39.8598 29.5131 39.7626C29.6004 39.589 29.6924 39.2199 29.7281 39.0185C29.7563 38.8588 29.8641 38.797 29.8657 38.6432C29.866 38.6225 29.7169 38.5895 29.7134 38.5819C29.5974 38.3698 29.9194 38.5678 29.9932 38.5581C30.2634 38.516 30.4123 38.4799 30.3773 38.2327C30.3697 38.175 29.9114 37.8658 29.9095 37.7714C29.9083 37.6479 30.0764 37.749 30.07 37.6181C30.0695 37.607 29.9567 37.573 29.9844 37.5032C30.111 37.1791 30.2817 36.8424 30.3601 36.5062C30.3714 36.4599 30.1746 36.4719 30.1886 36.4015C30.256 36.0644 30.3482 35.7127 30.5009 35.421C30.539 35.3492 30.6566 35.4246 30.6982 35.4162C30.9506 35.3616 30.6456 35.147 30.6436 35.1232C30.5883 34.5608 30.9731 34.1154 30.8897 33.5257C30.8852 33.4909 30.5443 33.2199 30.8654 33.1432C30.8868 33.1386 31.216 33.0578 31.0033 32.9493C30.9899 32.9425 30.8204 32.9963 30.8451 32.8833C30.8701 32.763 30.7701 32.5681 30.957 32.4135C31.0159 32.3656 31.3404 32.2485 31.0864 32.0925C31.0692 32.0787 30.4919 31.8539 30.8888 31.7714C30.9541 31.7579 31.377 31.7639 31.1564 31.591C31.1135 31.5587 31.0212 31.6216 30.9598 31.5361C30.8654 31.4116 30.9693 31.2175 30.7693 31.0616C30.7339 31.0333 30.4392 30.9359 30.6464 30.8199C30.6788 30.8013 30.8219 30.8172 30.8325 30.7636C30.8832 30.5069 30.7563 30.267 30.812 30.0131C30.831 29.9216 31.0638 29.9299 31.1065 29.8229C31.1496 29.7163 31.1679 29.5108 31.0441 29.436C30.9206 29.3626 30.5905 29.546 30.53 29.4143C30.5222 29.3976 30.5146 29.3808 30.5073 29.3641C30.2717 28.8316 30.2692 28.2115 30.0468 27.674C30.0129 27.5929 29.9276 27.7141 29.8692 27.6012C29.6498 27.1596 29.1179 26.5744 29.0582 26.0839C29.0088 25.6811 29.417 25.9042 29.3128 25.6419C29.2578 25.5117 28.8505 25.6921 28.8216 25.6807C28.5237 25.5591 28.5109 25.2868 28.2709 25.1483C28.2219 25.1206 28.1486 25.2842 28.1086 25.2599C27.9719 25.1789 27.8927 25.0141 27.7629 24.9305C27.7045 24.8934 27.6349 25.0047 27.5926 24.9598C27.4901 24.8536 27.4174 24.7335 27.3648 24.549C27.3595 24.5319 27.528 24.4502 27.4369 24.3807C27.2903 24.2694 27.1542 24.0398 26.9001 24.0362C26.8245 24.0358 26.6741 24.293 26.6597 24.0486C26.6563 23.9977 26.8607 23.7003 26.5724 23.8963C26.5216 23.9266 26.1015 24.1785 26.1035 23.8815C26.1041 23.803 26.1482 23.4989 26.0558 23.5071C26.0431 23.5094 26.0145 23.6727 25.9491 23.6599C25.7199 23.6124 25.5024 23.5028 25.2731 23.4686C25.211 23.4595 25.2364 23.6468 25.1466 23.6288C24.9004 23.5799 24.6162 23.4388 24.3865 23.3154C24.302 23.2696 24.4037 23.1567 24.4016 23.1404C24.3639 22.8751 24.2045 23.1713 24.168 23.1809C23.9272 23.2322 23.8032 23.041 23.5903 23.0322C23.5319 23.0295 23.5357 23.1913 23.5214 23.2023C23.5171 23.2054 23.5131 23.2082 23.5094 23.2107C23.3849 23.2939 23.5232 23.053 23.4587 23.0074C23.2718 22.8747 23.0318 22.8385 22.8102 22.8189C22.7288 22.8119 22.7865 23.0067 22.7143 22.9986C22.3095 22.9585 21.8855 22.8825 21.476 22.7405C21.3989 22.7135 21.4624 22.5794 21.449 22.5459C21.3554 22.312 21.1553 22.6006 21.1166 22.6268C20.9383 22.7455 20.8821 22.6177 20.7297 22.6311C19.9862 22.6969 19.0438 22.6148 18.3324 22.6C17.3557 22.584 16.6687 22.5199 15.7396 22.6819C15.6814 22.6921 15.7664 22.868 15.7168 22.8792C15.0944 23.0133 14.4737 23.0471 13.8379 23.2305C13.786 23.2452 13.897 23.4026 13.8152 23.432C13.6456 23.4939 13.4285 23.5305 13.2506 23.5123C13.1626 23.504 13.2402 23.3318 13.1519 23.3266C12.946 23.3144 12.7336 23.3507 12.5387 23.4267C12.5383 23.4268 12.5379 23.427 12.5374 23.4272C12.4578 23.4609 12.6267 23.6037 12.5168 23.6324C11.7573 23.8351 11.0242 24.0693 10.2063 24.0745C10.1496 24.075 9.99605 23.7387 9.90456 23.8406C9.92629 23.9404 9.96226 24.0545 9.99086 24.1595C8.87513 24.569 7.82717 24.8055 6.70156 25.2254C6.65491 25.2429 6.8059 25.3921 6.71634 25.4268C6.21892 25.62 5.75567 25.869 5.16247 25.9141C5.10363 25.9189 4.99488 25.5936 4.86288 25.7072C4.83979 25.7273 4.62811 25.8697 4.59864 25.964C4.59513 25.9778 4.70139 26.1051 4.62941 26.142C4.19679 26.3602 3.76983 26.516 3.30647 26.6272C3.2324 26.6445 3.2314 26.4571 3.17791 26.4681C2.79811 26.5482 2.48227 26.8452 2.0849 26.8708C1.81799 26.8879 1.76832 26.5847 1.5202 26.386C1.48511 26.3579 1.34379 26.4221 1.26051 26.2759C1.05066 25.9084 0.909527 25.461 0.67802 25.0732C0.628259 24.9895 0.485208 25.1795 0.491659 24.9131C0.492416 24.8951 0.595522 24.7555 0.593849 24.6673C0.592872 24.6062 0.47296 24.4752 0.489917 24.3878C0.50701 24.3005 0.624755 24.4017 0.668276 24.2874C0.711433 24.1723 0.589189 24.0158 0.74046 23.915ZM29.8642 40.5227C30.0682 40.46 29.5247 40.2094 29.5993 40.4001C29.6035 40.4096 29.854 40.526 29.8642 40.5227ZM21.1946 54.2864C21.509 54.3191 21.283 53.9821 21.0482 53.9475C20.8138 53.9127 21.0992 54.2764 21.1946 54.2864ZM20.1655 55.8162C20.4604 55.7908 19.835 55.2168 19.8206 55.4982C19.8195 55.5144 20.1483 55.8177 20.1655 55.8162ZM2.03301 26.0392C2.02783 26.0328 1.92526 26.0747 1.92636 26.0829C1.9578 26.2792 2.16217 26.1957 2.03301 26.0392ZM19.1172 57.3427C19.2454 57.371 19.2667 57.1465 19.1076 57.1112C18.9798 57.0827 18.9579 57.3074 19.1172 57.3427ZM32.396 33.9649C32.4052 33.9638 32.4227 33.8865 32.3724 33.8822C32.2107 33.8683 32.243 33.9815 32.396 33.9649ZM17.0213 59.6617C17.3668 59.3383 18.075 59.604 17.6665 59.9281C17.5925 59.9867 17.6399 59.6285 17.5127 59.6725C17.2808 59.7529 17.5033 60.1593 17.1781 60.1614C17.1192 60.1612 17.0007 59.6789 17.0211 59.6604C17.0212 59.6608 17.0212 59.6613 17.0213 59.6617ZM30.5566 40.7302C30.5651 40.7307 30.6154 40.6305 30.6092 40.6251C30.4574 40.4961 30.3565 40.6966 30.5566 40.7302ZM32.6442 29.3318C32.6603 29.322 32.6205 29.0596 32.6027 29.0551C32.2721 28.9925 32.3487 29.5069 32.6442 29.3318ZM27.475 47.4635C27.5727 47.6669 27.5136 47.8019 27.2594 47.7541C27.3349 47.6596 27.4011 47.5587 27.475 47.4635ZM12.1453 0.119786C12.2622 0.0948824 12.3849 0.182893 12.4684 0.282887C12.4946 0.313985 12.4524 0.412659 12.4692 0.438742C12.5022 0.489615 12.5551 0.449425 12.5852 0.507836C12.5951 0.527691 12.536 0.685915 12.5473 0.703002C12.6091 0.795455 12.6946 0.77336 12.7701 0.829951C13.1351 1.10728 13.5062 1.27406 13.8942 1.46513C14.0205 1.52752 14.136 1.72007 14.2958 1.69817C14.3143 1.69539 14.3467 1.55126 14.3533 1.54054C14.455 1.3768 14.3537 1.65711 14.3738 1.7044C14.4538 1.89132 14.5861 1.94584 14.7204 1.92787C14.7212 1.92776 14.722 1.92758 14.7228 1.92736C14.7787 1.91154 14.8143 1.62709 14.8159 1.79723C14.8161 1.80892 14.757 1.95447 14.7657 1.97466C14.7847 2.01987 14.854 2.01221 14.8749 2.03178C14.915 2.07027 14.9233 2.07123 14.9675 2.08708C15.0275 2.11008 15.076 2.20724 15.1516 2.19433C15.1679 2.19114 15.1988 2.0325 15.2293 2.01365C15.2599 1.99485 15.3142 2.02676 15.3221 2.06912C15.33 2.1115 15.2826 2.22869 15.2771 2.25731C15.2298 2.4985 15.4015 2.19915 15.4129 2.19411C15.6134 2.11014 15.6942 2.34032 15.8412 2.38996C15.9541 2.42763 16.094 2.40892 16.1967 2.45434C16.3227 2.51038 16.4017 2.63105 16.5298 2.66167C16.5432 2.66509 16.5925 2.48225 16.6091 2.48608C16.7851 2.52682 16.9452 2.60832 17.0699 2.79214C17.0821 2.81065 17.0014 2.95716 17.01 2.98489C17.0651 3.15149 17.1035 3.51726 17.427 2.86962C17.4839 2.92221 17.561 2.98414 17.5684 3.14376C17.5728 3.2318 17.4957 3.35569 17.522 3.35717C17.5265 3.35742 17.5338 3.35419 17.545 3.34672C17.5624 3.33524 17.6072 3.18288 17.6289 3.17678C17.7204 3.15132 17.7768 3.22977 17.8761 3.18233C17.8964 3.17234 17.9466 3.03986 17.9603 3.01791C18.0724 2.84076 17.9971 3.17909 17.9993 3.20687C18.0184 3.41517 18.1157 3.37718 18.1992 3.41759C18.2186 3.42709 18.2696 3.24208 18.2911 3.24497C18.4014 3.26235 18.4975 3.32173 18.5591 3.44091C18.5726 3.46783 18.488 3.60764 18.4911 3.62808C18.5054 3.71642 18.6377 3.44031 18.6553 3.52039C18.659 3.53686 18.5976 3.66136 18.5931 3.67603C18.5223 3.90618 18.6825 3.60665 18.6924 3.60287C18.8197 3.54774 18.7285 3.89463 18.8296 3.88559C18.8419 3.88422 18.8928 3.71454 18.923 3.72049C19.1228 3.75828 19.2983 3.89367 19.4149 4.1056C19.4332 4.13833 19.3563 4.24763 19.351 4.26312C19.2687 4.50537 19.4347 4.20767 19.4493 4.20052C19.5607 4.15199 19.4991 4.43952 19.727 4.10005C19.9223 4.3222 20.2107 4.32998 20.3891 4.57596C20.4318 4.63591 20.4667 4.70966 20.4898 4.80355C20.4914 4.80922 20.4055 4.95326 20.4091 4.96393C20.4522 5.09406 20.5579 4.8552 20.7702 4.60811C20.8238 4.54621 20.6848 4.90851 20.675 4.93531C20.6395 5.03433 20.5045 5.24461 20.4997 5.26491C20.4631 5.42509 20.8542 4.69925 20.9093 4.72937C20.9103 4.73151 20.8296 4.86031 20.8269 4.87604C20.8181 4.9253 20.8613 4.88035 20.8498 4.93368C20.8227 5.05695 20.6382 5.41271 20.7994 5.23579C20.8202 5.2128 21.0397 4.79968 21.0772 4.8461C21.092 4.86495 21.1802 4.90576 21.1891 4.94579C21.1982 4.98579 21.1069 5.10723 21.1054 5.11389C21.0705 5.32352 21.0051 5.38127 20.8897 5.65521C20.7743 5.92791 21.1156 5.31552 21.1678 5.25526C21.2199 5.19524 21.1841 5.36451 21.1666 5.42046C21.1491 5.47647 21.0869 5.55107 21.0807 5.58487C21.0403 5.80607 21.2851 5.30129 21.3633 5.2181C21.549 5.02149 21.3263 5.49365 21.3467 5.56498C21.3524 5.58433 21.4024 5.47635 21.4194 5.47354C21.4857 5.46377 21.4297 5.61923 21.5579 5.52267C21.5786 5.50685 21.7821 5.2645 21.6905 5.47721C21.6772 5.50781 21.5993 5.61211 21.6034 5.64855C21.6096 5.70316 21.646 5.75852 21.6991 5.74028C21.7384 5.72678 21.8241 5.52892 21.8179 5.60293C21.8151 5.63592 21.7264 5.72799 21.7263 5.78103C21.7262 5.83396 21.7887 5.86616 21.8136 5.87658C21.8385 5.88688 21.9117 5.74169 21.9192 5.73356C21.9631 5.68721 22.0489 5.64873 22.0528 5.65139C22.2631 5.75974 22.2903 6.10175 22.5289 6.15079C22.5474 6.15479 22.6316 6.0058 22.6354 6.00493C22.7255 5.97873 22.4354 6.33114 22.3863 6.4809C22.5727 6.18871 22.5587 6.25469 22.615 6.24652C22.6423 6.24236 22.7075 6.12456 22.7166 6.11415C22.8551 5.96154 22.7266 6.19227 22.7011 6.23998C22.6074 6.41567 22.7558 6.2334 22.6933 6.35091C22.6312 6.46749 22.4968 6.61191 22.5314 6.63214C22.6101 6.53558 22.7662 6.2499 22.8211 6.22354C22.9062 6.18232 22.9644 6.21559 23.006 6.27335C23.0659 6.35615 23.0929 6.48974 23.1291 6.53389C23.1905 6.6088 23.2282 6.60739 23.2474 6.67564C23.2813 6.79877 23.3904 6.58146 23.5045 6.5274C23.6188 6.47362 23.251 6.93814 23.1844 7.04689C23.1175 7.1554 23.2011 7.05423 23.1692 7.1173C23.1371 7.18031 23.0683 7.23746 23.0732 7.27319C23.078 7.3088 23.2648 7.16442 23.3498 7.06173C23.5296 6.84398 23.6772 6.58578 23.6708 6.70927C23.6703 6.71651 23.5691 6.83538 23.5718 6.85672C23.596 7.02191 23.69 7.09983 23.72 7.2538C23.724 7.27517 23.6097 7.4059 23.6108 7.41989C23.6219 7.56587 23.768 7.31094 24.0043 7.08258C23.7371 7.4216 23.6026 7.65051 23.659 7.69587C23.6929 7.72341 23.8 7.56816 23.9026 7.47912C23.9335 7.45228 23.8805 7.57437 23.9384 7.50699C24.1277 7.28697 24.2994 7.01024 24.2827 7.15944C24.2816 7.16635 24.1774 7.28636 24.1808 7.30098C24.2022 7.39604 24.3926 7.16016 24.4794 7.18023C24.5474 7.19591 24.5243 7.41125 24.5627 7.47913C24.2646 7.86179 24.3855 7.81501 24.6128 7.56809C24.6412 7.60755 24.6926 7.62369 24.6995 7.68784C24.7019 7.7098 24.6072 7.81403 24.5994 7.82717C24.4758 8.0328 24.6926 7.78932 24.7084 7.78554C24.8708 7.75555 24.7872 8.00398 25.0185 7.8802C25.0268 7.87569 25.2418 7.61615 25.11 7.82579C25.1008 7.84014 24.9783 7.93849 25.009 7.97826C25.0399 8.01817 24.9981 8.21626 25.1488 8.13727C25.1851 8.11826 25.3896 7.93181 25.2811 8.11895C25.2663 8.14429 25.2017 8.21632 25.1728 8.26213C25.0809 8.40822 25.3042 8.15087 25.1407 8.3908C25.0097 8.58292 24.9207 8.74914 24.9821 8.75016C24.9974 8.75042 25.0219 8.74047 25.0575 8.7182C25.0628 8.71506 25.2461 8.51615 25.2599 8.53301C25.2819 8.56008 25.2837 8.63425 25.3123 8.65547C25.3261 8.66557 25.424 8.52912 25.4283 8.52864C25.5768 8.52915 25.545 8.69665 25.5981 8.82497C25.6075 8.8487 25.8036 8.71445 25.7215 8.88129C25.6316 9.06388 25.067 9.66455 25.2762 9.58378C25.3599 9.55154 26.0735 8.78728 25.787 9.25306C25.9918 9.24996 25.9221 9.55342 26.1639 9.50737C26.1747 9.50539 26.3798 9.29734 26.3898 9.311C26.4043 9.3317 26.3264 9.44421 26.3338 9.46231C26.3629 9.54076 26.4892 9.49518 26.5308 9.55438C26.5468 9.57666 26.4485 9.67786 26.4676 9.70444C26.4867 9.73089 26.6231 9.60345 26.5978 9.69955C26.5783 9.77262 26.3571 10.0821 26.3613 10.1437C26.6051 9.86034 26.6227 9.88543 26.7269 9.84464C26.747 9.83666 26.8232 9.73061 26.8371 9.72174C26.8955 9.6834 26.8393 9.77725 26.9008 9.73368C26.9156 9.72326 26.9986 9.6263 27.0154 9.6123C27.1612 9.4896 27.0139 9.74146 26.9882 9.78522C26.8906 9.95164 27.0105 9.83567 26.9817 9.90944C26.9529 9.98317 26.8627 10.029 26.8563 10.0832C26.8431 10.1954 26.9181 10.2324 26.963 10.2785C26.9814 10.2963 27.0789 10.1554 27.0841 10.1549C27.1526 10.1566 27.075 10.3287 27.3178 10.0896C26.7753 10.7807 27.3972 10.0455 27.3403 10.228C27.3356 10.2427 27.0717 10.5632 27.0148 10.5947C26.9579 10.6262 27.0159 10.5051 26.9302 10.5568C26.9101 10.5689 26.6248 10.8368 26.6051 10.8509C26.4508 10.9613 26.8486 10.4853 26.8689 10.4579C27.0868 10.1604 26.7746 10.4448 26.7453 10.4579C26.611 10.5176 26.6268 10.4164 26.5252 10.4541C26.4592 10.4783 26.1927 10.785 26.1803 10.758C26.1386 10.6684 26.483 10.2171 26.0992 10.5356C26.0173 10.6036 25.7428 10.9531 25.9199 10.6452C25.9311 10.6258 26.1015 10.3513 25.9492 10.487C25.93 10.5041 25.8462 10.6027 25.8356 10.608C25.7665 10.6415 25.8176 10.5496 25.76 10.5654C25.7023 10.5812 25.6239 10.6111 25.6231 10.5528C25.6225 10.5179 25.7562 10.315 25.7859 10.2628C25.872 10.1128 25.6659 10.3036 25.7844 10.134C25.9034 9.96352 26.136 9.74872 26.1832 9.61337C25.9643 9.86857 25.7377 10.1289 25.5166 10.3849C25.4388 10.3033 25.4249 10.1492 25.3296 10.0883C25.3175 10.0809 25.2119 10.2283 25.196 10.2241C25.1295 10.2056 25.1704 10.0716 25.0875 10.0691C25.0229 10.0676 24.8578 10.179 24.7867 10.1824C25.0089 9.86663 24.8653 9.91688 24.8443 9.8537C24.8368 9.83168 24.9036 9.75351 24.9141 9.7187C24.9524 9.58926 24.7543 9.8668 24.709 9.89866C24.5152 10.0347 25.0022 9.43873 24.9329 9.40604C24.9293 9.40406 24.6312 9.68995 24.61 9.70555C24.4719 9.80758 24.6955 9.591 24.6946 9.55099C24.693 9.47792 24.7295 9.38102 24.61 9.43843C24.5747 9.45555 24.3827 9.62873 24.4834 9.45566C24.4966 9.43297 24.5842 9.32943 24.5866 9.32116C24.603 9.25799 24.5577 9.28918 24.4921 9.35102C24.4114 9.42715 24.2999 9.54971 24.2348 9.59947C24.1172 9.68968 24.2614 9.42794 24.3063 9.35519C24.4222 9.16692 24.3822 9.29615 24.397 9.28041C24.5725 9.09304 24.5143 9.10257 24.5046 9.06691C24.7642 8.73956 24.7156 8.73244 24.4936 9.03123C24.4693 9.0639 24.512 9.04828 24.5046 9.06691C24.2262 9.3688 24.1582 9.38131 24.3591 9.05129C24.4532 8.89661 24.602 8.74765 24.4975 8.7619C24.4502 8.76826 24.2801 9.00054 24.2085 9.04372C24.0455 9.14237 24.1463 8.8795 24.0666 8.87028C24.0378 8.86701 23.9587 9.00527 23.9357 9.00732C23.8744 9.01325 23.9167 8.89611 23.8443 8.91611C23.8376 8.91809 23.7434 9.05364 23.7312 9.04677C23.6374 8.99729 23.6307 8.85807 23.5459 8.78867C23.5049 8.75517 23.3746 8.76953 23.3428 8.72218C23.2869 8.64069 23.3388 8.37918 23.2386 8.37672C23.1738 8.37467 23.0842 8.51352 22.9988 8.58988C22.8337 8.7382 23.0062 8.38037 23.0335 8.32548C23.0344 8.32367 23.0939 8.3195 23.1251 8.2372C23.219 8.08731 23.0344 8.32515 23.0335 8.32548C23.0514 8.29013 23.0009 8.20615 22.9677 8.22085C22.9496 8.22891 22.8613 8.35787 22.8537 8.35971C22.674 8.40094 22.5533 8.36209 22.4982 8.23258C22.4984 8.22878 22.603 8.08881 22.6019 8.08161C22.5898 7.97728 22.4285 8.12473 22.308 8.19478C22.1875 8.26475 22.175 8.20404 22.3192 7.93874C22.2613 7.94421 22.2864 7.80003 22.3024 7.71312C22.3184 7.62628 22.1205 7.90292 22.1141 7.90666C21.9648 7.9952 21.9595 7.91571 21.9401 7.83394C21.9331 7.8042 21.9242 7.77421 21.906 7.75207C21.8733 7.7117 21.7665 7.69925 21.7021 7.70098C21.651 7.70289 21.6743 7.62266 21.6142 7.64394C21.6061 7.64675 21.5268 7.77587 21.5223 7.77986C21.3869 7.90751 21.6082 7.61002 21.6373 7.54999C21.743 7.33171 21.7963 7.21345 21.6877 7.27748C21.6626 7.29198 21.34 7.71788 21.3039 7.73164C21.2574 7.74854 21.3709 7.59442 21.3197 7.6164C21.3154 7.61814 21.2518 7.71733 21.2387 7.70265C21.177 7.63581 21.1323 7.5258 21.0475 7.48617C21.0362 7.48039 20.95 7.64709 20.9321 7.64139C20.8479 7.61447 20.7726 7.55931 20.7486 7.44174C20.7429 7.41222 20.8224 7.30748 20.8391 7.27207C20.939 7.05739 20.7269 7.32817 20.7182 7.3305C20.5041 7.39203 20.5605 7.06515 20.3532 7.11381C20.3413 7.11679 20.1007 7.40029 20.2343 7.11455C20.2432 7.09558 20.38 6.80325 20.2474 6.98038C20.2392 6.99149 20.1715 7.14354 20.153 7.11331C20.1343 7.08303 20.0359 7.15378 20.0889 6.97462C20.1059 6.91832 20.2357 6.62321 20.0742 6.82539C20.0627 6.83936 19.7245 7.31192 19.9015 6.95399C19.9306 6.89508 20.1411 6.52933 19.9926 6.69403C19.964 6.72607 19.9326 6.81633 19.8826 6.85571C19.806 6.91661 19.8178 6.79377 19.6866 6.93599C19.6634 6.96115 19.4956 7.19563 19.5767 6.99218C19.5894 6.96029 19.6644 6.84079 19.6593 6.82C19.6352 6.72045 19.5265 6.76858 19.5126 6.65037C19.5072 6.60859 19.6262 6.41402 19.6323 6.34801C19.6384 6.28203 19.6196 6.20543 19.5466 6.28451C19.4738 6.36371 19.3296 6.69807 19.2805 6.70491C19.2742 6.70579 19.2681 6.70641 19.262 6.70679C19.0635 6.71877 19.0087 6.46382 18.8702 6.3602C18.8491 6.34436 18.8099 6.47003 18.7747 6.45509C18.6424 6.39917 18.375 6.40405 18.3833 6.10241C18.389 5.86027 18.5744 5.76223 18.5442 5.64819C18.5289 5.5934 18.3123 5.95773 18.2988 5.96604C18.1631 6.05124 18.1876 5.85648 18.0943 5.8765C18.075 5.88067 18.0173 6.04244 18.0017 6.0443C17.9478 6.0521 17.9358 5.96261 17.8898 5.95703C17.8691 5.95489 17.8183 6.07531 17.806 6.05863C17.7758 6.02009 17.7633 5.95423 17.7743 5.82497C17.7752 5.81317 17.866 5.67578 17.8385 5.65685C17.7944 5.62683 17.7815 5.48893 17.6762 5.57886C17.6448 5.606 17.5241 5.87907 17.5721 5.67498C17.5821 5.63235 17.7352 5.30802 17.5701 5.5739C17.5423 5.6179 17.3077 5.97146 17.3809 5.70978C17.4002 5.64089 17.4932 5.36155 17.4549 5.39529C17.4493 5.4009 17.3968 5.55288 17.3742 5.56019C17.2956 5.5834 17.2411 5.54166 17.1613 5.56254C17.1399 5.56843 17.0994 5.73142 17.0696 5.73536C16.9868 5.74601 16.925 5.67458 16.8808 5.60024C16.8648 5.57262 16.9333 5.45213 16.9373 5.43761C17.0021 5.2012 16.8611 5.49833 16.8448 5.51236C16.7447 5.59532 16.7593 5.43479 16.691 5.45126C16.6723 5.45544 16.6242 5.60488 16.6161 5.61666C16.6137 5.62001 16.6115 5.62305 16.6095 5.62579C16.5425 5.7166 16.6622 5.47818 16.6549 5.4428C16.634 5.33987 16.5682 5.32722 16.5069 5.32454C16.4845 5.32386 16.4399 5.50144 16.4207 5.49891C16.3056 5.48721 16.2035 5.42898 16.1355 5.29589C16.1228 5.27052 16.1849 5.14457 16.1922 5.11318C16.2434 4.8936 16.0934 5.16265 16.0738 5.18625C15.9835 5.29384 16.0103 5.17182 15.9636 5.17895C15.7388 5.21728 15.5398 5.05778 15.376 4.94631C15.1678 4.80372 15.0322 4.61665 14.7944 4.57365C14.7794 4.57078 14.7351 4.75206 14.7214 4.75186C14.5506 4.74226 14.4208 4.62353 14.2446 4.62375C14.2303 4.62348 14.1956 4.79746 14.1709 4.80269C14.1199 4.81461 14.0685 4.78827 14.0416 4.72082C14.0283 4.68823 14.1024 4.5529 14.0881 4.52302C14.0539 4.45285 14.0056 4.42464 13.9467 4.436C13.9466 4.43603 13.9464 4.43606 13.9463 4.4361C13.9213 4.44316 13.9005 4.62346 13.8722 4.61688C13.6771 4.57533 13.4801 4.54837 13.3468 4.26588C13.3381 4.24662 13.4296 3.8915 13.3814 3.95065C13.3508 4.04766 13.3173 4.16254 13.2859 4.26663C12.9939 4.24231 12.7383 4.03839 12.4621 3.94306C12.4503 3.93906 12.4201 4.13206 12.3971 4.12529C12.2642 4.08627 12.1198 4.10344 12.0288 3.88005C12.0197 3.85815 12.1134 3.52954 12.059 3.56872C12.0494 3.57594 11.9755 3.6038 11.9408 3.67142C11.9358 3.68168 11.9071 3.83898 11.8859 3.83829C11.7673 3.83258 11.6577 3.76704 11.5669 3.64372C11.5523 3.62351 11.6134 3.46379 11.6034 3.44797C11.5313 3.33691 11.3974 3.43665 11.3431 3.26456C11.3067 3.14874 11.3991 2.86919 11.4348 2.58048C11.4399 2.53973 11.4029 2.52408 11.4406 2.36025C11.5354 1.94824 11.6638 1.50311 11.7626 1.06342C11.7839 0.96872 11.7061 1.05739 11.7929 0.837131C11.7988 0.822409 11.8558 0.756166 11.8842 0.681199C11.9038 0.629379 11.9324 0.460363 11.9626 0.395267C11.9929 0.330245 11.9738 0.473098 12.0159 0.398242C12.0583 0.322403 12.0948 0.13108 12.1453 0.119786ZM22.3713 7.32362C22.4353 7.16952 22.0933 7.66027 22.2043 7.56287C22.21 7.55758 22.3682 7.33122 22.3713 7.32362ZM25.7166 9.80498C25.852 9.57403 25.5781 9.85048 25.4711 10.0268C25.3641 10.2029 25.6755 9.87499 25.7166 9.80498ZM26.2015 9.96371C26.2957 9.77071 25.7399 10.4115 25.8943 10.3177C25.9031 10.3125 26.1961 9.97493 26.2015 9.96371ZM11.6069 2.53802C11.6083 2.5302 11.5827 2.5159 11.5802 2.52338C11.5201 2.70424 11.5712 2.73265 11.6069 2.53802ZM26.6954 10.1092C26.7572 10.0111 26.6348 10.0807 26.5578 10.2027C26.496 10.3008 26.6185 10.2312 26.6954 10.1092ZM21.1991 5.81691C21.2032 5.80897 21.19 5.79181 21.1646 5.83539C21.0832 5.97575 21.1304 5.95049 21.1991 5.81691ZM27.3104 10.6217C27.2408 10.5203 27.6414 9.941 27.6879 10.0847C27.6964 10.1107 27.5046 10.222 27.4862 10.2894C27.4529 10.4122 27.7659 10.101 27.6552 10.3164C27.6349 10.3558 27.3133 10.6287 27.3096 10.6223C27.3098 10.6221 27.3101 10.6219 27.3104 10.6217ZM22.7613 6.71988C22.7652 6.71296 22.7462 6.69086 22.7412 6.69695C22.6215 6.84515 22.6594 6.88952 22.7613 6.71988ZM20.3457 4.91189C20.3523 4.89629 20.3016 4.85143 20.2924 4.86415C20.1169 5.12248 20.2173 5.21316 20.3457 4.91189ZM24.5557 7.49006C24.6973 7.35803 24.7408 7.36334 24.6128 7.56781C24.5964 7.53885 24.573 7.51834 24.5557 7.49006Z" fill="black"/>
</svg>
