<svg width="59" height="58" viewBox="0 0 59 58" fill="none" xmlns="http://www.w3.org/2000/svg">
<path d="M19.4594 0.620677C19.5003 0.947488 19.4299 1.37161 19.3423 1.69276C19.3151 1.79342 19.211 1.73838 19.1874 1.8077C19.1415 1.94329 19.1891 2.07271 19.1353 2.20641C19.117 2.2507 18.9511 2.18906 18.9357 2.23563C18.8526 2.49089 18.887 2.73626 18.8423 2.9962C18.6219 4.27656 18.5153 5.53891 18.3939 6.83844C18.3541 7.26693 18.1838 7.78362 18.2351 8.2294C18.2412 8.28144 18.3896 8.25566 18.4014 8.26592C18.5819 8.42682 18.2863 8.3652 18.2433 8.46471C18.0735 8.85968 18.0446 9.3044 18.0882 9.69165C18.0884 9.69399 18.0887 9.69626 18.0891 9.69847C18.1155 9.8521 18.403 9.70442 18.2355 9.86154C18.224 9.87262 18.069 9.82563 18.0507 9.87001C18.0097 9.97066 18.031 10.165 18.0159 10.2436C17.9859 10.395 17.9866 10.4203 17.9799 10.5642C17.9693 10.761 17.8835 10.9925 17.9116 11.2049C17.9181 11.2503 18.0805 11.1961 18.1053 11.269C18.1301 11.3419 18.1099 11.5318 18.0699 11.5947C18.0299 11.6576 17.9048 11.626 17.8755 11.6363C17.6284 11.7214 17.9586 11.9533 17.9659 11.9819C18.0904 12.5035 17.8828 12.9399 17.8666 13.425C17.8547 13.7932 17.9047 14.1891 17.8839 14.5391C17.8585 14.9561 17.7594 15.3069 17.7603 15.7129C17.7603 15.7557 17.9505 15.7121 17.9508 15.7644C17.9536 16.3205 17.914 16.8712 17.7677 17.4197C17.7528 17.4747 17.5898 17.3975 17.565 17.4521C17.4173 17.7866 17.072 18.312 17.7858 18.5383C17.7497 18.7671 17.711 19.045 17.5586 19.2455C17.4747 19.3562 17.3338 19.2734 17.3396 19.3508C17.3405 19.3639 17.3457 19.3815 17.356 19.4054C17.3719 19.4427 17.5315 19.4004 17.5433 19.4559C17.5932 19.6897 17.5331 19.9412 17.6068 20.1734C17.6221 20.2206 17.7641 20.2127 17.7891 20.2268C17.9917 20.345 17.6441 20.5182 17.618 20.5576C17.4225 20.8582 17.4875 21.0849 17.4731 21.3707C17.4697 21.437 17.6625 21.3651 17.6661 21.4292C17.6819 21.7613 17.6537 22.1038 17.5582 22.4252C17.5365 22.4966 17.3769 22.4247 17.3582 22.4586C17.2779 22.608 17.5826 22.6522 17.5115 22.7957C17.4969 22.826 17.3588 22.8039 17.3434 22.809C17.1014 22.8884 17.4374 22.9763 17.4441 22.9992C17.5364 23.2881 17.1766 23.4584 17.2172 23.7359C17.2224 23.7691 17.4003 23.7007 17.4043 23.7937C17.4314 24.4131 17.3607 25.0648 17.1993 25.6715C17.1744 25.7658 17.045 25.6934 17.0286 25.6989C16.7714 25.7876 17.1093 25.8624 17.121 25.8939C17.2048 26.1416 16.9117 26.3602 17.311 26.5404C17.1696 27.3676 17.2652 28.1999 17.1027 29.0208C17.0627 29.2229 17.0071 29.4244 16.9284 29.6249C16.9237 29.6378 16.757 29.6086 16.7485 29.6344C16.6436 29.9449 16.906 29.8936 17.2172 30.1122C17.2953 30.1672 16.9055 30.3131 16.8768 30.3262C16.7712 30.3739 16.5239 30.3121 16.5032 30.3286C16.3404 30.4652 17.1652 30.4705 17.1589 30.6622C17.1573 30.6682 17.0065 30.6377 16.9909 30.6533C16.9418 30.7017 17.0003 30.7533 16.9464 30.8004C16.8218 30.9082 16.42 30.9343 16.6472 31.1133C16.6767 31.136 17.1452 31.119 17.1172 31.2894C17.1056 31.3574 17.1032 31.6596 17.07 31.7432C17.0369 31.8267 16.8883 31.7635 16.8815 31.7693C16.6745 31.9902 16.5949 31.901 16.2962 32.005C15.9985 32.109 16.7002 32.1015 16.7768 32.1507C16.8531 32.2 16.6831 32.3613 16.6245 32.4004C16.566 32.4395 16.472 32.385 16.4384 32.4203C16.2188 32.6549 16.7825 32.5385 16.891 32.622C17.1478 32.819 16.6232 32.9474 16.5663 33.1177C16.551 33.1637 16.6706 33.1298 16.6802 33.1716C16.7168 33.3372 16.5513 33.4304 16.6935 33.6222C16.7167 33.6536 17.0239 33.8153 16.7913 33.9051C16.7577 33.9178 16.6296 33.8741 16.5982 33.943C16.5511 34.046 16.5163 34.2333 16.5557 34.3471C16.5848 34.4312 16.8015 34.3435 16.7316 34.4456C16.7004 34.491 16.5786 34.4007 16.5304 34.4863C16.4822 34.5714 16.48 34.7933 16.4814 34.8778C16.4829 34.9621 16.6464 34.9216 16.657 34.9288C16.7181 34.9721 16.7905 35.1364 16.7898 35.1507C16.7848 35.8716 16.4891 36.5264 16.5552 37.2308C16.5601 37.2861 16.732 37.2553 16.7346 37.2638C16.7996 37.4547 16.351 37.2905 16.1945 37.4169C16.5415 37.4098 16.4761 37.4853 16.5095 37.6193C16.5259 37.6839 16.6612 37.6537 16.6747 37.66C16.8751 37.7619 16.6098 37.8189 16.5554 37.834C16.3553 37.89 16.5868 37.9664 16.453 38.0046C16.3202 38.0428 16.1289 37.9378 16.127 38.0651C16.2497 38.1051 16.577 38.0218 16.6261 38.1202C16.7027 38.2731 16.7007 38.4768 16.6693 38.684C16.6245 38.9803 16.5195 39.2838 16.498 39.4557C16.4615 39.7474 16.4811 39.8427 16.4305 40.0116C16.3388 40.3168 16.5831 40.2122 16.6865 40.4072C16.7899 40.6028 16.2017 40.4892 16.0736 40.5124C15.9456 40.535 16.0754 40.5691 16.0044 40.6004C15.9334 40.6315 15.8495 40.5559 15.8205 40.6339C15.7916 40.7119 16.0102 40.9356 16.1422 40.9682C16.4218 41.0371 16.7207 40.95 16.6097 41.1553C16.6031 41.1671 16.4489 41.1227 16.4316 41.1682C16.2993 41.5295 16.2788 41.9089 16.1603 42.2702C16.1438 42.3199 15.9723 42.2691 15.9608 42.2979C15.8396 42.5983 16.1351 42.4996 16.4533 42.6775C16.0234 42.6252 15.7564 42.7083 15.7459 42.9391C15.7395 43.0778 15.9286 43.0604 16.0582 43.1547C16.0973 43.1831 15.9646 43.2768 16.0526 43.2976C16.3401 43.3663 16.6674 43.285 16.5301 43.5186C16.5236 43.5288 16.3663 43.4901 16.3555 43.5258C16.2846 43.7569 16.5865 43.7953 16.6144 44.0487C16.6364 44.2473 16.4396 44.5924 16.4018 44.8164C15.9172 44.795 16.0209 45.0114 16.3522 45.1091C16.3334 45.2547 16.3469 45.4131 16.2958 45.5527C16.2784 45.6007 16.1391 45.5639 16.1238 45.5695C15.8826 45.6553 16.2056 45.73 16.2173 45.7619C16.3294 46.1079 16.0733 46.3777 16.303 46.7121C16.3113 46.724 16.6474 46.7543 16.3985 46.833C16.3813 46.8381 16.2318 46.7251 16.2147 46.8781C16.1975 47.0311 16.007 47.314 16.1557 47.5324C16.1915 47.5852 16.4604 47.725 16.2432 47.8223C16.2137 47.8352 16.1177 47.8166 16.0632 47.8349C15.8897 47.894 16.2289 47.9413 15.9371 48.0077C15.7034 48.061 15.5144 48.1688 15.5471 48.3235C15.5552 48.3619 15.5771 48.4033 15.6153 48.4474C15.6209 48.4545 15.8889 48.5146 15.8823 48.582C15.8716 48.6896 15.8101 48.8407 15.808 48.9534C15.8071 49.0073 15.9758 48.9786 15.9785 48.9881C16.0599 49.3537 15.9016 49.6065 15.8234 49.9926C15.8088 50.0634 16.0302 50.2758 15.8448 50.4074C15.6419 50.5518 14.8248 50.368 15.0087 50.7225C15.0823 50.8655 16.1196 51.0791 15.5703 51.3125C15.6874 51.806 15.3951 52.2486 15.5695 52.7455C15.5772 52.7678 15.866 52.8476 15.8603 52.8993C15.8512 52.976 15.7136 53.0135 15.7027 53.0682C15.6538 53.297 15.763 53.5117 15.7372 53.733C15.7277 53.8171 15.588 53.7827 15.5767 53.883C15.5655 53.9832 15.7485 54.0566 15.6543 54.1896C15.5825 54.29 15.2002 54.3798 15.1513 54.5147C15.5248 54.5328 15.5139 54.6263 15.6067 54.7962C15.6248 54.8289 15.756 54.7991 15.7712 54.8148C15.8361 54.8787 15.7264 54.932 15.7973 54.9931C15.8144 55.0079 15.9419 55.013 15.9631 55.0254C16.1476 55.1308 15.8549 55.284 15.804 55.3103C15.6105 55.4111 15.7747 55.467 15.6971 55.5467C15.6196 55.6264 15.5304 55.5002 15.4817 55.5947C15.3811 55.7905 15.3929 56.0469 15.38 56.2489C15.3757 56.3295 15.5479 56.2803 15.5513 56.292C15.5887 56.4603 15.4017 56.6227 15.7378 56.7268C14.8566 56.8122 15.8194 56.8303 15.6356 57.0627C15.6207 57.081 15.2051 57.0905 15.1467 57.0163C15.0883 56.9422 15.2217 56.8373 15.1303 56.734C15.1088 56.7096 14.7247 56.5605 14.7018 56.5411C14.5228 56.3898 15.1434 56.3906 15.1777 56.3841C15.5482 56.3098 15.1351 56.1295 15.1077 56.0849C14.982 55.8805 15.075 55.7138 14.9861 55.5435C14.9287 55.4321 14.523 55.4074 14.5384 55.322C14.5893 55.0382 15.1592 54.9582 14.6774 54.6725C14.5746 54.6112 14.1288 54.6532 14.4849 54.4587C14.5073 54.4465 14.8319 54.3042 14.633 54.2086C14.6079 54.1966 14.4786 54.1925 14.4682 54.1775C14.4013 54.0767 14.5066 54.0147 14.461 53.9059C14.4153 53.7971 14.3462 53.6657 14.3943 53.5449C14.423 53.4722 14.6673 53.3859 14.7275 53.3526C14.9009 53.2589 14.6259 53.1424 14.8339 53.0878C15.0429 53.0327 15.3528 53.1652 15.4921 53.0066C15.1562 52.989 14.8118 52.9632 14.4742 52.9419C14.4983 52.5846 14.6191 52.2364 14.6167 51.8771C14.616 51.8325 14.4338 51.8718 14.4285 51.8238C14.4067 51.6216 14.5415 51.4503 14.4974 51.2399C14.4626 51.0769 14.2775 50.8932 14.2351 50.7227C14.6232 50.6327 14.5013 50.3776 14.5427 50.1968C14.557 50.1334 14.6596 50.1412 14.6947 50.097C14.8245 49.9302 14.4819 49.9986 14.43 49.9499C14.2088 49.7407 14.9785 49.75 14.9677 49.5121C14.9674 49.4995 14.5627 49.3317 14.5379 49.3096C14.376 49.1694 14.6813 49.2923 14.7145 49.2092C14.7752 49.0574 14.8768 48.954 14.7629 48.7696C14.7292 48.7158 14.478 48.5809 14.6791 48.4856C14.7055 48.4731 14.8407 48.4852 14.8491 48.4746C14.9114 48.389 14.8603 48.3377 14.7723 48.2967C14.6639 48.2463 14.4996 48.2113 14.4221 48.1469C14.2818 48.0301 14.5817 47.8675 14.6676 47.8353C14.8899 47.7509 14.7588 47.909 14.7802 47.9147C15.0341 47.982 14.9944 47.8545 15.0193 47.759C15.4373 47.7595 15.4169 47.624 15.0435 47.6599C15.0027 47.6641 15.0391 47.7403 15.0193 47.759C14.6126 47.6604 14.5652 47.5107 14.9537 47.3605C15.1357 47.2902 15.3424 47.3697 15.2739 47.1347C15.243 47.0281 14.9541 47.0589 14.8789 46.9631C14.7075 46.7444 14.9851 46.4774 14.9504 46.2568C14.9379 46.1767 14.7778 46.2487 14.7638 46.1938C14.7261 46.0481 14.8485 45.9249 14.793 45.7779C14.7878 45.7646 14.622 45.791 14.6214 45.7459C14.6141 45.4037 14.7298 45.1099 14.7451 44.7533C14.7523 44.5811 14.6721 44.2699 14.6965 44.092C14.7379 43.7837 14.9905 43.4113 14.9415 43.145C14.9102 42.9714 14.7441 43.0035 14.6344 42.9258C14.4217 42.7757 14.8202 42.5369 14.8817 42.505C14.8837 42.504 14.9175 42.6537 15.0048 42.5775C15.1826 42.5375 14.8824 42.5067 14.8817 42.505C14.9215 42.484 14.9691 42.189 14.9396 42.1291C14.9235 42.0965 14.7668 42.109 14.7613 42.0922C14.6353 41.6911 14.6093 41.2928 14.6962 40.8935C14.6996 40.8865 14.8738 40.9032 14.8796 40.8868C14.9653 40.6568 14.7568 40.5005 14.6366 40.3042C14.5165 40.108 14.5642 39.9573 14.8678 39.8541C14.8351 39.708 14.9748 39.5049 15.0593 39.3882C15.1438 39.2715 14.8045 39.2431 14.7982 39.2323C14.6488 38.9864 14.717 38.8225 14.7806 38.6189C14.8037 38.5448 14.8263 38.4654 14.8375 38.3749C14.858 38.2136 14.8198 37.891 14.7887 37.7146C14.7635 37.5752 14.846 37.4945 14.7995 37.3652C14.7933 37.3477 14.6414 37.3599 14.6357 37.3545C14.4596 37.2059 14.8272 37.2871 14.8943 37.2599C15.1382 37.1617 15.2685 37.1003 15.1617 36.9141C15.1373 36.8711 14.6088 36.7303 14.5803 36.6526C14.5442 36.5516 14.7338 36.5958 14.6912 36.4898C14.6877 36.4808 14.5698 36.4786 14.5773 36.4143C14.6101 36.1162 14.6899 35.7927 14.6888 35.4816C14.6891 35.4391 14.5004 35.4871 14.4978 35.4256C14.4855 35.1372 14.5033 34.8221 14.6004 34.5449C14.6249 34.4767 14.7543 34.5244 14.7936 34.5108C15.0318 34.427 14.6948 34.2848 14.6891 34.2631C14.5427 33.7443 14.8652 33.3622 14.7361 32.8341C14.7285 32.8054 14.37 32.5736 14.6873 32.4867C14.7084 32.4807 15.033 32.395 14.8163 32.3019C14.8027 32.2962 14.6353 32.3507 14.6558 32.2461C14.6762 32.1415 14.5716 31.9684 14.7583 31.8301C14.8171 31.7863 15.1413 31.6892 14.8906 31.5438C14.873 31.5343 14.3027 31.3036 14.7038 31.2421C14.7698 31.2322 15.1911 31.2595 14.9805 31.089C14.9397 31.0565 14.8437 31.1097 14.7878 31.0257C14.7016 30.8969 14.8202 30.7342 14.6377 30.5733C14.6054 30.5452 14.3231 30.4206 14.5435 30.3361C14.5781 30.3229 14.7179 30.3551 14.7353 30.3071C14.8189 30.0786 14.7331 29.8334 14.8385 29.6022C14.8756 29.5203 15.1018 29.5706 15.1657 29.4861C15.2297 29.4016 15.2944 29.2291 15.1935 29.1349C15.0926 29.0406 14.7264 29.1271 14.7021 28.9903C14.699 28.9728 14.6961 28.9552 14.6936 28.9377C14.61 28.3614 14.8309 27.8006 14.8808 27.2295C14.8885 27.1422 14.7562 27.2102 14.7581 27.0812C14.7649 26.6058 14.6715 25.7813 14.9615 25.3786C15.1938 25.0559 15.3476 25.4774 15.4462 25.2281C15.4933 25.1077 15.0761 24.9614 15.0639 24.9316C14.9389 24.6397 15.1326 24.4465 15.0842 24.186C15.0741 24.1322 14.9014 24.1786 14.8947 24.1329C14.8705 23.9767 14.9524 23.8162 14.9435 23.6674C14.9392 23.6007 14.8082 23.6084 14.8204 23.5475C14.848 23.4018 14.9074 23.2742 15.0347 23.1356C15.0463 23.123 15.2056 23.2163 15.2154 23.1082C15.2308 22.9331 15.359 22.7195 15.2413 22.5134C15.2059 22.4522 14.9076 22.4396 15.1181 22.318C15.162 22.2925 15.5191 22.3393 15.2147 22.1787C15.1641 22.1517 14.7553 21.8854 15.0287 21.7711C15.1007 21.7409 15.3967 21.6678 15.3531 21.5942C15.3461 21.5842 15.1845 21.6178 15.1709 21.5576C15.1259 21.3455 15.1506 21.1257 15.1078 20.9079C15.0961 20.8497 14.9273 20.93 14.9151 20.8434C14.8813 20.6056 14.9337 20.3118 14.9936 20.0824C15.016 19.9978 15.1514 20.0614 15.1665 20.0558C15.4131 19.9644 15.0869 19.8941 15.0689 19.8603C14.9614 19.6505 15.121 19.499 15.0868 19.3078C15.0777 19.2551 14.92 19.2868 14.9064 19.2759C14.9025 19.2726 14.899 19.2695 14.8958 19.2665C14.7898 19.1682 15.053 19.2514 15.0854 19.186C15.1797 18.9972 15.1745 18.7831 15.1612 18.5885C15.156 18.517 14.9718 18.5908 14.9693 18.5267C14.9511 18.1473 14.982 17.7546 15.0948 17.3889C15.1164 17.32 15.2546 17.3686 15.287 17.3552C15.5137 17.263 15.2142 17.1062 15.1864 17.0715C15.0592 16.9138 15.1848 16.8586 15.1664 16.7226C15.0743 16.0581 15.1843 15.2453 15.2564 14.6235C15.3494 13.8132 15.5041 13.1873 15.4963 12.4113C15.496 12.362 15.3084 12.4053 15.3057 12.3627C15.2798 11.813 15.3711 11.276 15.3363 10.7249C15.3338 10.6797 15.1553 10.7386 15.1454 10.6659C15.1237 10.5166 15.1397 10.329 15.2012 10.1809C15.2308 10.1087 15.3786 10.212 15.4054 10.1392C15.468 9.96967 15.4869 9.78628 15.4647 9.60916C15.4646 9.60876 15.4646 9.60837 15.4645 9.60797C15.4529 9.53491 15.2708 9.64014 15.272 9.54315C15.277 8.87885 15.2685 8.22596 15.525 7.56333C15.5426 7.5179 15.9103 7.49019 15.8434 7.39001C15.742 7.37914 15.6224 7.37541 15.5139 7.36845C15.4887 6.40027 15.6486 5.44835 15.7016 4.48016C15.7038 4.43933 15.5073 4.50324 15.5106 4.42417C15.5292 3.96653 15.4908 3.52019 15.6999 3.05863C15.7203 3.01282 16.0609 3.04843 16.014 2.90975C16.0054 2.88528 15.967 2.67752 15.8947 2.62165C15.8838 2.61403 15.7231 2.64615 15.7208 2.57955C15.7099 2.1926 15.7602 1.78923 15.8709 1.40714C15.889 1.34549 16.0565 1.41759 16.0709 1.37372C16.1718 1.06254 16.0546 0.716227 16.219 0.421218C16.3297 0.223771 16.6205 0.308312 16.913 0.211447C16.9542 0.197743 16.965 0.0734851 17.1332 0.0728412C17.5562 0.0708827 18.0168 0.147129 18.4679 0.137917C18.5651 0.136034 18.4664 -0.0342799 18.6974 0.0725066C18.7128 0.079943 18.7864 0.203492 18.8649 0.236004C18.9192 0.258626 19.0913 0.227168 19.1602 0.271883C19.2291 0.316593 19.0843 0.35812 19.1645 0.431079C19.2458 0.504043 19.4413 0.479932 19.4594 0.620677ZM15.4372 38.8625C15.6043 38.7575 15.007 38.7205 15.1459 38.8451C15.1534 38.8512 15.429 38.8679 15.4372 38.8625ZM15.07 52.254C15.3387 52.1184 14.9544 52.0061 14.7472 52.1011C14.5403 52.1961 14.9886 52.2953 15.07 52.254ZM15.2108 53.7607C15.4245 53.5988 14.5777 53.543 14.7428 53.73C14.7522 53.7408 15.1984 53.7702 15.2108 53.7607ZM16.9781 0.709668C16.9861 0.708414 16.9969 0.619199 16.9891 0.61679C16.8009 0.562595 16.7794 0.740993 16.9781 0.709668ZM15.3691 55.2565C15.4856 55.2077 15.3584 55.0512 15.2136 55.1119C15.097 55.1607 15.2241 55.3174 15.3691 55.2565ZM16.2743 33.1122C16.2833 33.1108 16.2935 33.0469 16.2431 33.0465C16.0808 33.0452 16.1235 33.1361 16.2743 33.1122ZM15.2916 57.7869C15.3364 57.4142 16.0445 57.2117 15.9514 57.6161C15.9346 57.6893 15.7336 57.4495 15.6672 57.5411C15.5463 57.7088 15.982 57.838 15.7404 58.0051C15.6962 58.0353 15.2875 57.8081 15.2906 57.7862C15.2909 57.7864 15.2913 57.7867 15.2916 57.7869ZM16.1575 38.8235C16.1655 38.8216 16.1761 38.7331 16.1683 38.7307C15.9802 38.676 15.9588 38.8544 16.1575 38.8235ZM16.7731 29.3816C16.7901 29.3773 16.813 29.1717 16.7977 29.1645C16.491 29.0463 16.4439 29.4618 16.7731 29.3816ZM16.3888 44.8195C16.5764 44.923 16.5948 45.0397 16.3524 45.1087C16.3685 45.0128 16.3737 44.916 16.3888 44.8195ZM2.55727 17.0653C3.09644 16.7823 3.79298 16.4866 4.43465 16.2447C4.74822 16.1262 5.0482 16.0202 5.33314 15.924C5.59736 15.8356 5.51006 15.9888 5.69636 15.9315C6.0716 15.8149 6.36474 15.6332 6.73755 15.5289C6.86085 15.495 6.78081 15.7111 6.90869 15.672C7.25629 15.5665 7.59309 15.4337 7.9243 15.2996C8.23651 15.1733 8.56333 15.0379 8.89337 14.9227C9.69772 14.6414 10.4966 14.3636 11.2989 14.09C12.4318 13.704 13.5698 13.326 14.7222 12.9737C15.8705 12.6244 17.0336 12.2938 18.2574 12.0354C18.607 11.9623 18.956 11.897 19.3194 11.8421C20.1209 11.7654 21.179 11.5419 22.453 12.094C23.6648 12.7477 23.1994 14.0735 23.1665 14.4555C23.1338 14.6142 23.3002 14.5588 23.3042 14.5919C23.3423 15.1297 23.0981 14.8958 22.9582 15.1826C22.3963 16.2578 21.8057 17.338 21.3299 18.3225C21.1273 18.7364 21.6098 18.4741 21.236 18.8035C21.2101 18.8266 21.1327 18.6457 21.0546 18.7497C20.9796 18.8495 20.8846 19.0074 20.8051 19.1443C20.6944 19.3352 20.5838 19.5359 20.5134 19.6413C20.2773 19.9921 20.2281 20.0769 20.03 20.4018C19.7531 20.8528 19.3232 21.3997 19.0541 21.893C18.9944 22.0026 19.2183 21.9484 19.1351 22.1315C19.0533 22.3127 18.7501 22.7632 18.6238 22.8894C18.4973 23.0163 18.4315 22.8854 18.3904 22.8958C18.0486 22.9771 17.9997 23.6729 17.9623 23.7449C17.8089 24.0389 17.6518 24.3056 17.488 24.5611C16.9176 25.4499 16.2875 26.1801 15.6991 27.0446C15.1291 27.8826 14.5602 28.8176 13.9995 29.6055C13.9617 29.6586 13.9239 29.7112 13.8863 29.7632C13.2579 30.6307 12.6598 31.3448 12.0584 32.2142C11.9912 32.311 12.225 32.308 12.1432 32.4264C11.5429 33.2948 10.9389 34.1272 10.2839 34.9551C9.98808 35.3282 9.67775 35.7053 9.36 36.0732C9.25946 36.1893 9.24161 35.9325 9.13324 36.0424C8.47275 36.7188 7.34481 37.7021 7.58253 38.594C7.23336 39.0251 6.79998 39.567 6.39338 39.9315C6.3452 39.9746 6.29738 40.0153 6.25002 40.0532C5.96111 40.2849 6.03139 39.8881 5.81653 40.3058C5.76829 40.3993 5.97554 40.3856 5.89385 40.5184C5.56421 41.0578 5.08751 41.6096 4.78921 42.1429C4.73119 42.2485 4.86002 42.3127 4.85891 42.3567C4.82464 42.7463 4.25375 42.9369 4.17429 43.0011C3.48869 43.6027 3.23628 44.0571 2.69325 44.7615C2.57736 44.9105 2.8586 44.8571 2.75388 45.002C2.41409 45.0204 3.44474 45.2885 1.44019 45.2916C1.55597 42.0373 2.35878 42.9456 2.88948 41.8735C3.0346 41.7175 3.04294 41.9713 3.11908 41.9016C3.43396 41.6196 3.24395 41.3663 3.56047 41.0755C3.62738 41.0136 3.70387 41.14 3.72604 41.1367C4.06392 41.0975 3.92686 40.7292 3.96226 40.6739C4.40994 39.9649 4.9751 39.8433 5.44992 39.216C5.50382 39.1441 5.23845 39.1823 5.39871 38.9866C5.86045 38.4246 6.33305 37.8915 6.85409 37.3462C7.55557 36.6129 8.31207 35.8998 9.07494 35.2543C9.28143 35.0791 9.23781 35.3086 9.26134 35.3081C9.63098 35.2985 9.51221 34.9384 9.56496 34.8686C9.97905 34.3326 10.6519 34.087 10.7 33.4875C11.5291 32.7843 12.3099 32.0878 13.1316 31.3851C14.5076 30.209 15.9113 29.0942 17.4997 28.2238C17.5318 28.2057 17.5771 28.3798 17.6406 28.3432C18.3952 27.9168 18.1086 27.8032 18.4005 27.2101C18.475 27.0604 19.0604 27.1257 19.1086 27.1275C19.2856 27.1329 19.3025 27.4227 19.3535 27.4124C19.7668 27.3241 19.2507 26.6765 19.6956 26.3818C19.7103 26.3738 19.7354 26.5389 19.781 26.527C19.9226 26.4904 20.0048 26.3647 20.1474 26.3344C20.149 26.3341 20.1506 26.3337 20.1523 26.3334C20.4785 26.269 20.7835 26.5422 21.0606 26.0933C21.0956 26.036 20.7679 25.688 21.1826 25.4567C21.3465 25.3641 22.0625 24.922 22.2841 24.8289C22.5037 24.735 22.4396 24.9474 22.4576 24.9444C23.1077 24.7961 22.9383 24.9908 23.3573 25.0903C23.7735 25.1918 23.3532 24.6246 23.4269 24.4932C23.5007 24.3615 23.9861 24.2806 24.1135 24.2769C24.2407 24.2726 24.1621 24.4245 24.2662 24.4046C24.9557 24.2725 24.3606 23.9583 24.5042 23.755C24.8421 23.2771 25.442 23.553 25.8891 23.386C26.0106 23.3407 25.8635 23.2817 25.9616 23.2205C26.3518 22.9801 26.6717 23.0051 27.0718 22.6526C27.1367 22.595 27.3867 22.1344 27.7302 22.2318C27.7668 22.2426 27.7496 22.3376 27.8195 22.3612C27.8424 22.369 27.8747 22.369 27.9214 22.356C28.2023 22.2772 28.6979 22.0922 28.9624 21.9343C29.1607 21.8161 28.836 21.7208 29.1279 21.6705C29.2577 21.6487 29.0864 21.855 29.3259 21.8046C29.5634 21.7541 30.1304 21.521 30.348 21.433C30.5646 21.3445 30.387 21.2396 30.4006 21.2226C30.4863 21.1219 30.8776 20.8909 30.9146 20.8778C32.6068 20.2312 34.2762 19.943 35.951 19.4944C36.1329 19.4458 36.3154 19.3953 36.4988 19.3422C36.6461 19.3 36.5074 19.1576 36.5294 19.1494C37.0257 18.9594 36.7254 19.4956 37.1151 19.5618C36.9853 19.2362 37.215 19.247 37.5622 19.1333C37.7308 19.0781 37.6092 18.967 37.6221 18.9502C37.8381 18.6958 38.0718 18.9173 38.1278 18.9609C38.3362 19.1209 38.4784 18.8547 38.6196 18.9626C38.7593 19.0699 38.528 19.3118 38.8721 19.2444C38.948 19.1041 38.6323 18.8331 38.8885 18.7321C39.861 18.3395 41.778 18.334 42.5826 18.2911C43.388 18.2395 43.6493 18.2001 44.1253 18.2123C44.2781 18.2168 44.3937 18.2143 44.4832 18.2058C44.9153 18.1673 44.7664 17.9951 45.2119 17.887C45.75 17.7602 45.5081 18.3603 45.5909 18.485C45.6703 18.6103 45.7469 18.4778 45.8412 18.5462C45.9347 18.6148 45.7403 18.704 45.955 18.7274C46.1711 18.7491 46.7345 18.5274 46.8061 18.3972C46.9697 18.1196 46.6915 17.8141 47.3008 17.9372C47.3354 17.9447 47.2212 18.0961 47.3535 18.1169C48.3799 18.2773 49.4282 18.3922 50.4032 18.692C50.5323 18.7328 50.3814 18.8792 50.4553 18.9048C51.2301 19.1866 51.0216 18.8443 51.5617 18.6487C51.3437 19.0394 51.5375 19.3525 52.1006 19.5444C52.3565 19.6345 52.4402 19.5455 52.5859 19.479C52.6281 19.4612 52.6771 19.4463 52.7395 19.4399C52.8274 19.4306 53.029 19.6562 53.1081 19.5954C53.3727 19.4 53.2786 18.9882 53.8294 19.4017C53.8524 19.4203 53.6985 19.5197 53.7827 19.5736C54.3375 19.9447 54.5778 19.7306 55.1966 20.1255C55.7134 20.4555 56.3274 21.3019 56.6882 21.8624C56.3011 22.1475 56.7156 22.5387 57.1281 22.5967C57.331 22.968 57.5465 23.3806 57.6468 23.7744C57.6813 23.9102 57.5174 23.8737 57.5094 23.8956C57.3768 24.2209 57.736 24.2852 57.7758 24.3714C57.9154 24.686 57.9855 24.9864 58.0334 25.2874C58.1246 25.8723 58.1281 26.4041 58.3062 27.0103C58.3154 27.0421 58.6559 27.0904 58.4116 27.3493C58.3945 27.3634 58.2405 27.059 58.2292 27.4945C58.2199 27.9152 57.9872 28.7356 58.0604 29.3257C58.08 29.47 58.2965 29.8799 58.0318 30.1397C57.9961 30.1737 57.9088 30.1139 57.8457 30.1605C57.6436 30.3111 57.9604 30.4669 57.634 30.6166C57.3074 30.764 57.0076 31.1301 57.0459 31.751C57.0468 31.7698 57.2714 31.9739 57.2159 32.1514C57.1281 32.4337 56.949 32.8214 56.8505 33.1201C56.8035 33.2633 56.993 33.2254 56.9876 33.2512C56.9696 33.3274 56.9511 33.3994 56.9311 33.4709C56.6903 34.3217 56.3109 34.9257 55.8594 35.799C55.7694 35.9739 55.7391 36.5877 55.4097 36.8491C55.0471 37.1354 54.5035 36.3919 54.2509 37.319C54.1487 37.6858 54.8373 38.6167 54.0194 38.9592C53.7402 39.5847 53.3684 40.1256 52.9919 40.6632C52.625 41.1867 52.2562 41.7031 51.9513 42.3007C51.9236 42.3551 52.05 42.681 51.9627 42.7957C51.833 42.9652 51.6541 42.9793 51.5575 43.0959C51.153 43.5771 50.8846 44.1174 50.4889 44.5814C50.3385 44.7575 50.28 44.6064 50.1004 44.8138C49.9189 45.0222 49.9406 45.2866 49.6284 45.5144C49.3911 45.6865 48.9231 45.6469 48.6443 45.8914C48.9128 46.1513 48.7331 46.3426 48.492 46.7453C48.4457 46.8228 48.6054 46.8427 48.5883 46.884C48.5204 47.0544 48.3341 47.0939 48.2757 47.2598C48.2613 47.3 48.3518 47.39 48.3451 47.428C48.3435 47.4373 48.3416 47.4464 48.3394 47.4553C48.2635 47.7607 47.7545 47.8835 47.669 47.8986C47.3234 47.9721 47.3399 48.186 47.1247 48.287C46.9108 48.3858 47.0894 48.0894 46.869 48.2342C46.4012 48.5451 45.8941 49.0192 45.4625 49.3627C45.2871 49.5034 45.5133 49.5391 45.4908 49.5622C45.151 49.8939 44.6866 50.0153 44.678 50.4401C43.902 49.9142 44.4953 50.683 43.8463 50.9011C43.7951 50.9172 43.5189 50.6019 43.645 50.4472C43.7703 50.2929 44.088 50.2341 44.2587 49.9941C44.3081 49.9324 44.3573 49.4125 44.3809 49.3641C44.5684 48.9903 44.9953 49.44 45.0333 49.4542C45.4485 49.5968 45.5483 48.9702 45.6075 48.8807C45.923 48.4397 46.3357 48.1837 46.5954 47.8093C46.7654 47.5643 46.5039 47.2514 46.676 47.1016C46.9644 46.8488 47.2664 46.7635 47.5011 46.6433C47.7314 46.5237 47.9135 46.3547 47.9784 45.9272C48.0067 45.7406 47.575 45.5583 48.2066 45.3789C48.2451 45.3696 48.7558 45.2753 48.7586 44.9616C48.7588 44.9223 48.6601 44.8386 48.6774 44.8018C48.795 44.5567 48.9874 44.4887 49.1343 44.234C49.2797 43.981 49.4355 43.6715 49.6725 43.4414C49.8149 43.3035 50.1613 43.2495 50.2665 43.209C50.5682 43.0951 50.5144 42.7014 50.7789 42.6898C51.0456 42.6766 51.1019 43.1312 51.4738 42.8501C51.2119 42.6386 50.9551 42.405 50.6967 42.1853C51.2025 41.5061 51.7394 40.8698 52.2036 40.1608C52.2664 40.0649 52.3277 39.9678 52.3872 39.8693C52.4486 39.7669 52.2307 39.7746 52.2922 39.6627C52.551 39.1909 52.9009 38.8556 53.1334 38.3433C53.3123 37.9467 53.3692 37.4428 53.5317 37.0263C54.0014 36.9602 54.188 36.3005 54.4215 35.8821C54.5037 35.7353 54.5923 35.7882 54.6738 35.6915C54.9773 35.324 54.5776 35.3806 54.5802 35.2448C54.5847 34.667 55.3102 34.9318 55.532 34.3338C55.5455 34.3002 55.3127 33.7676 55.3069 33.7081C55.2752 33.3179 55.4616 33.7032 55.5673 33.505C55.6499 33.349 55.7304 33.2172 55.7984 33.0786C55.8865 32.9 55.9588 32.6924 55.9752 32.4134C55.9842 32.2679 55.8353 31.8803 56.0959 31.6813C56.1302 31.6548 56.2556 31.7098 56.2709 31.6848C56.5335 31.225 56.1235 31.0952 56.0506 30.7844C55.9777 30.4727 56.3511 30.1087 56.4503 30.0349C56.7101 29.8402 56.5088 30.2311 56.5265 30.2457C56.7477 30.4422 56.7693 30.1233 56.8355 29.8681C57.2545 29.9042 57.2883 29.5384 56.8999 29.6103C56.8578 29.6181 56.8637 29.8204 56.8355 29.8681C56.4714 29.5727 56.4781 29.2049 56.9039 28.835C57.1008 28.6603 57.2983 28.867 57.2697 28.2419C57.2518 27.9614 56.9588 28.0526 56.8902 27.8132C56.7335 27.2839 56.9755 26.567 56.8576 26.0313C56.8148 25.8351 56.686 26.0494 56.651 25.9183C56.6178 25.7974 56.6027 25.6807 56.5906 25.5652C56.5677 25.3506 56.5574 25.1453 56.4578 24.934C56.4438 24.9055 56.3058 25.0228 56.2747 24.9214C56.0329 24.1702 55.8361 23.5029 55.3528 22.8453C55.1176 22.5147 54.576 22.0871 54.2547 21.8177C53.749 21.3551 53.0292 20.6903 52.3942 20.5044C52.3193 20.4811 52.2578 20.4687 52.2068 20.4638C51.9733 20.4431 51.9572 20.5743 51.7961 20.615C51.4266 20.7106 50.9323 20.1711 50.8488 20.0916C50.848 20.0879 51.2275 20.1484 51.0519 20.0142C50.9799 19.8129 50.8525 20.0918 50.8488 20.0916C50.7849 20.0298 50.0838 19.8392 49.9314 19.8495C49.8498 19.8524 49.8678 20.0143 49.8262 20.0131C48.7704 19.9749 47.8804 19.9416 46.7525 19.8444C46.7347 19.8409 46.7601 19.6666 46.7182 19.6607C46.1275 19.5747 45.734 19.7954 45.2154 19.9405C44.9909 20.0035 44.7816 20.037 44.5875 20.0329C44.3409 20.0269 44.1262 19.9538 43.9395 19.7959C43.5489 19.861 42.9817 19.7783 42.6557 19.7313C42.3292 19.6839 42.3167 20.0285 42.2895 20.038C41.4338 20.3522 40.9138 20.2271 40.0226 20.3401C39.5958 20.3928 38.7628 20.5965 38.3197 20.728C37.9669 20.8316 37.7403 20.7993 37.4152 20.9252C37.3716 20.9421 37.4508 21.0793 37.4383 21.0882C37.1089 21.3499 37.203 20.9486 37.1112 20.9019C36.8198 20.7547 36.6263 20.673 36.2833 20.8084C36.234 20.8279 36.1816 20.852 36.1255 20.8811C36.0214 20.9343 35.8414 21.5325 35.656 21.6157C35.4124 21.7234 35.4563 21.5129 35.2001 21.6329C35.1782 21.6431 35.2149 21.7549 35.0484 21.7972C34.2731 21.996 33.4393 22.1874 32.6513 22.473C32.5448 22.5113 32.7429 22.6403 32.5906 22.6984C31.8778 22.9704 31.0959 23.2587 30.3694 23.4594C30.1911 23.508 30.2482 23.3435 30.1966 23.3225C29.8793 23.1976 29.6899 23.6479 29.641 23.6759C29.3003 23.8715 28.9607 24.029 28.6322 24.1669C27.8225 24.5077 27.0258 24.7485 26.1875 25.2964C26.1208 25.3396 25.7816 25.9294 25.4006 25.7783C25.3754 25.7681 24.9923 25.6089 24.8962 25.9125C24.8904 25.9313 25.1111 25.9988 24.8565 26.1195C24.6014 26.2406 24.2638 26.557 23.8414 26.5916C23.7081 26.6025 23.2903 26.4741 23.1052 26.8822C23.0915 26.9104 22.9098 27.6946 22.5326 27.4598C22.471 27.421 22.277 27.0435 22.0221 27.4574C21.9738 27.5372 22.1524 27.5362 21.9969 27.7033C21.8337 27.8791 21.5779 28.003 21.3549 28.1866C21.2512 28.2719 21.1548 28.37 21.0785 28.4917C21.0362 28.5593 20.9413 28.9653 20.619 28.9206C20.5683 28.9138 20.5499 28.7562 20.4341 28.8154C19.8727 29.1034 19.395 29.5523 18.8339 29.8373C18.6325 29.9407 18.5912 29.6893 18.365 29.7786C18.1382 29.868 17.7229 30.103 17.5913 30.333C17.4601 30.5626 17.8897 30.6924 17.6194 30.9341C16.6893 31.767 15.6698 32.4509 14.6855 33.2037C14.4202 33.406 14.14 33.6288 13.8797 33.8492C13.7004 34.0013 13.9317 33.9698 13.6757 34.2004C12.7193 35.053 11.2202 36.6556 10.2484 37.2605C9.4708 37.7381 10.1297 36.8244 9.59242 37.2452C9.34094 37.4416 9.38614 38.0049 9.34322 38.0694C9.09022 38.446 8.83403 38.6805 8.5681 38.9282C8.36212 39.1208 8.16176 39.3093 7.98136 39.5465C7.89563 39.6595 8.11533 39.671 8.04138 39.7656C7.79408 40.0851 7.42685 40.3863 7.1869 40.6849C7.07719 40.8219 7.2003 40.8792 7.08482 40.998C6.80126 41.2938 6.5377 41.5213 6.20777 41.727C6.1776 41.7459 6.20347 41.4602 6.00899 41.6852C5.6862 42.0605 5.24183 42.4174 4.99521 42.9334C4.92337 43.0861 5.17457 43.2483 4.78273 43.4178C4.70528 43.4482 4.47112 43.1632 4.47903 43.6635C4.49306 43.7284 4.40467 44.5407 3.99973 44.6434C3.88042 44.6873 3.5507 44.6425 3.45291 44.8611C3.44499 44.8852 3.63227 44.8976 3.55962 45.0281C3.375 44.3845 3.78765 47.3179 2.99585 43.0918C-1.11502 43.5362 1.98553 42.6784 1.44728 42.4685C1.5346 42.3306 1.25463 42.4253 1.39142 42.2196C1.74609 41.6821 2.26305 41.0664 2.69938 40.5715C2.84929 40.4041 2.86634 40.6104 2.88803 40.6064C3.24071 40.5418 3.07663 40.213 3.11621 40.1282C3.38704 39.575 3.7312 39.3718 4.02727 38.9058C4.10738 38.78 3.91877 38.7712 3.92526 38.7391C3.99715 38.4139 4.0885 38.7622 4.22362 38.6325C4.28358 38.5753 4.34273 38.5149 4.40112 38.4519C4.70229 38.1282 5.00967 37.6938 5.24504 37.3468C5.35384 37.1867 5.07854 37.2539 5.17805 37.1112C5.78194 36.2405 6.42234 35.3969 7.10087 34.6358C7.22852 34.4932 7.27096 34.6723 7.32015 34.659C7.66188 34.5695 7.65466 34.061 7.68648 33.9677C7.79358 33.646 7.93264 33.5398 8.08282 33.3624C8.12711 33.3101 8.17223 33.2518 8.21759 33.18C9.18694 31.6444 10.5546 29.8664 11.5739 28.4971C11.6316 28.4196 11.6888 28.343 11.7456 28.2671C12.9955 26.5943 14.042 25.2808 15.1362 23.5761C15.2091 23.4627 14.979 23.473 15.0397 23.3741C15.1031 23.2721 15.1666 23.1709 15.2303 23.0704C15.9659 21.9098 16.7477 20.8027 17.4219 19.6141C17.4828 19.5073 17.2401 19.5655 17.3323 19.3916C17.5213 19.0325 17.7782 18.6258 18.041 18.2916C18.1648 18.1353 18.1605 18.4403 18.2823 18.2814C18.3871 18.1448 18.487 18.0032 18.5806 17.8594C18.7381 17.6177 18.9003 17.3284 19.0237 17.069C19.1078 16.8914 18.8074 17.0623 18.9279 16.8395C19.8913 15.9409 19.8958 12.3537 21.2197 14.5605C21.2068 14.5434 21.1905 14.5346 21.1742 14.5245C21.1552 14.5131 21.2314 14.1543 21.0908 14.2165C21.0708 14.3173 21.0583 14.4364 21.0437 14.5445C20.6449 14.5381 19.6923 14.6726 18.905 14.8497C17.8358 15.0815 16.7346 15.3822 15.636 15.7222C15.1204 15.8822 14.6014 16.0532 14.0817 16.2355C13.9773 16.2722 14.222 16.3905 14.0221 16.462C13.4881 16.6534 12.9629 16.8606 12.4319 17.056C11.8113 17.2843 11.1788 17.4979 10.5044 17.6568C10.3798 17.6867 10.3118 17.3454 9.9853 17.5333C9.92951 17.5658 9.42377 17.8215 9.31759 17.9458C9.30368 17.9636 9.45893 18.0721 9.29371 18.1453C9.23985 18.1689 9.18593 18.1925 9.13197 18.2159C8.21878 18.6117 7.24283 18.9865 6.296 19.299C6.13475 19.3518 6.23156 19.1243 6.11636 19.1605C5.99943 19.1977 5.89268 19.2352 5.76894 19.2837C5.06972 19.5548 4.36895 19.9517 3.68413 20.1178C3.12169 20.2602 3.22174 19.892 2.81042 19.7628C2.76808 19.7372 2.43192 19.8855 2.36288 19.7324C2.14702 19.3666 2.08855 18.8834 1.8425 18.5009C1.7947 18.4156 1.41183 18.7102 1.56275 18.3806C1.57339 18.3581 1.84285 18.1472 1.89125 18.0374C1.9169 17.965 1.75664 17.8506 1.82819 17.7401C1.90174 17.6288 2.09634 17.6971 2.22663 17.5466C2.36996 17.3893 2.22504 17.2413 2.55727 17.0653ZM41.1742 19.5445C40.857 19.4231 40.8873 20.0231 41.1884 19.837C41.2029 19.8273 41.1905 19.5504 41.1742 19.5445ZM52.2527 40.9411C52.6903 40.7561 52.5079 40.3188 52.1874 40.4411C51.8681 40.5604 52.1203 40.9963 52.2527 40.9411ZM50.0015 44.3494C50.4526 44.1198 49.8307 43.5384 49.6616 44.0243C49.6515 44.0522 49.9753 44.3626 50.0015 44.3494ZM4.01622 19.1243C4.00748 19.1194 3.78803 19.2098 3.78724 19.2188C3.75057 19.4437 4.18774 19.2636 4.01622 19.1243ZM47.4384 47.5127C47.6231 47.4924 47.8264 47.0967 47.5964 47.1269C47.4124 47.1514 47.21 47.5382 47.4384 47.5127ZM26.0312 23.6414C26.0228 23.6355 25.8613 23.7076 25.8873 23.751C25.9709 23.8904 26.1694 23.7398 26.0312 23.6414ZM41.9256 51.5938C42.8523 51.2004 43.7381 51.4711 42.703 51.9483C42.5177 52.0278 42.9871 51.55 42.7297 51.6123C42.2633 51.7244 42.1258 52.2718 41.5919 52.2223C41.5019 52.2137 41.8764 51.6178 41.9268 51.5921C41.9264 51.5927 41.926 51.5932 41.9256 51.5938ZM40.9173 18.8544C40.9102 18.8472 40.6672 18.8741 40.6625 18.8829C40.556 19.0898 41.0429 19.0359 40.9173 18.8544ZM17.0617 28.7475C17.0399 28.7418 16.5741 29.0705 16.5696 29.0942C16.5198 29.5191 17.4565 28.8589 17.0617 28.7475ZM56.684 21.8785C57.0072 21.9893 57.2217 22.2785 57.1277 22.5955C56.996 22.3455 56.8436 22.112 56.684 21.8785Z" fill="black"/>
</svg>
