<svg width="44" height="57" viewBox="0 0 44 57" fill="none" xmlns="http://www.w3.org/2000/svg">
<path d="M0.332628 10.5233C0.517045 10.4727 0.755779 10.5302 0.935814 10.6077C0.99225 10.6318 0.962963 10.7376 1.00188 10.759C1.07785 10.8007 1.14919 10.7491 1.2265 10.7986C1.25192 10.8155 1.21934 10.9833 1.24602 10.9972C1.39222 11.0721 1.5304 11.0299 1.6773 11.066C2.39834 11.2443 3.1098 11.3063 3.84687 11.3771C4.08826 11.4004 4.3808 11.5499 4.6328 11.48C4.66194 11.4717 4.64266 11.3246 4.64806 11.3123C4.73277 11.1253 4.70762 11.4232 4.76501 11.462C4.99359 11.6151 5.23991 11.6248 5.45837 11.564C5.45968 11.5636 5.46096 11.5632 5.46219 11.5627C5.54798 11.5295 5.4538 11.249 5.54873 11.4093C5.55541 11.4202 5.53478 11.5772 5.56052 11.5934C5.61892 11.6299 5.72755 11.5998 5.77227 11.6113C5.85853 11.6343 5.87268 11.6324 5.95364 11.6325C6.06432 11.6339 6.19709 11.7088 6.31445 11.6705C6.33984 11.6618 6.30215 11.5022 6.34225 11.4739C6.3824 11.4457 6.49037 11.4566 6.52757 11.4935C6.56479 11.5304 6.5526 11.6569 6.55976 11.6856C6.61903 11.9282 6.73446 11.5871 6.75003 11.5783C7.03743 11.428 7.2876 11.6129 7.56379 11.6031C7.77153 11.5953 7.99009 11.5237 8.18602 11.5248C8.42111 11.5266 8.62494 11.6051 8.85162 11.58C8.87556 11.5775 8.83897 11.3903 8.86815 11.3869C9.17599 11.351 9.48935 11.3561 9.80525 11.4666C9.83703 11.4779 9.8059 11.6454 9.83821 11.6666C10.0348 11.7924 10.358 12.1012 10.428 11.3744C10.5586 11.3947 10.7165 11.414 10.841 11.5517C10.9097 11.6275 10.8753 11.7737 10.918 11.7625C10.9252 11.7606 10.9346 11.7542 10.9471 11.7422C10.9666 11.7238 10.9295 11.5678 10.9594 11.5521C11.0849 11.4859 11.2316 11.5274 11.3544 11.437C11.3794 11.4182 11.3624 11.2775 11.368 11.2515C11.4156 11.0412 11.5431 11.3743 11.5676 11.3974C11.753 11.5695 11.8732 11.4875 12.0338 11.4797C12.0711 11.478 12.0125 11.2917 12.0478 11.2832C12.2312 11.2417 12.4242 11.2426 12.6125 11.3116C12.6545 11.3273 12.6309 11.4919 12.6516 11.5077C12.7432 11.5754 12.7362 11.2689 12.8232 11.3278C12.8416 11.3398 12.8438 11.4788 12.8482 11.4937C12.9179 11.7277 12.9315 11.3865 12.9434 11.3779C13.0941 11.2621 13.2278 11.6053 13.3781 11.5412C13.396 11.5332 13.3383 11.3623 13.3896 11.3504C13.731 11.2703 14.0999 11.2826 14.4569 11.3864C14.5124 11.4024 14.4881 11.5374 14.4931 11.5533C14.5744 11.8001 14.5743 11.458 14.5903 11.4434C14.7175 11.3372 14.8763 11.607 14.925 11.1939C15.4019 11.2551 15.8496 11.0771 16.3267 11.1521C16.4443 11.1706 16.565 11.2042 16.687 11.2607C16.6948 11.2639 16.7034 11.4318 16.7189 11.4375C16.9063 11.5079 16.8391 11.254 16.9126 10.923C16.931 10.8399 17.0707 11.2092 17.0824 11.236C17.125 11.3351 17.1285 11.5862 17.1408 11.6048C17.2417 11.7506 17.1183 10.9354 17.225 10.9205C17.2286 10.9215 17.235 11.0737 17.2461 11.0874C17.2804 11.1306 17.3 11.067 17.3344 11.115C17.4135 11.2261 17.491 11.6199 17.5551 11.3755C17.563 11.3439 17.4803 10.8833 17.578 10.8918C17.6171 10.8957 17.7836 10.864 17.8349 10.8872C17.8862 10.9104 17.8754 11.0642 17.8797 11.0702C18.0351 11.2491 17.9988 11.3378 18.1051 11.6205C18.2115 11.902 18.0927 11.2109 18.1074 11.1297C18.1221 11.0487 18.2394 11.1977 18.2708 11.2508C18.3022 11.304 18.2874 11.4029 18.3127 11.4319C18.4797 11.6209 18.3212 11.0789 18.3495 10.9622C18.416 10.6859 18.5738 11.1879 18.6775 11.2237C18.7055 11.2333 18.6665 11.1195 18.6879 11.105C18.7727 11.0493 18.8524 11.2012 18.9339 11.0381C18.9473 11.0114 18.9831 10.6896 19.073 10.9076C19.0859 10.9391 19.084 11.0705 19.1276 11.093C19.1928 11.1269 19.3028 11.1382 19.359 11.0853C19.4005 11.0462 19.3135 10.844 19.3825 10.9001C19.4132 10.9252 19.3847 11.0562 19.4408 11.093C19.4966 11.1298 19.6183 11.1046 19.6647 11.0927C19.7108 11.0807 19.6591 10.9251 19.6611 10.9137C19.6739 10.8483 19.7509 10.7566 19.7589 10.7554C20.1558 10.6701 20.5728 10.8759 20.9461 10.7183C20.9755 10.7062 20.9254 10.5416 20.9296 10.538C21.022 10.4491 21.0183 10.9108 21.1184 11.0474C21.0472 10.7081 21.1015 10.7622 21.169 10.7115C21.2015 10.6868 21.1584 10.5582 21.1593 10.5441C21.1763 10.3341 21.2596 10.5865 21.2787 10.6378C21.3489 10.8264 21.3458 10.5892 21.3932 10.7152C21.4404 10.8402 21.4205 11.0417 21.4905 11.0265C21.4881 10.9009 21.3783 10.5914 21.4222 10.5301C21.4902 10.4346 21.6014 10.4092 21.7209 10.4118C21.8917 10.4156 22.0798 10.4765 22.1791 10.4736C22.3475 10.4687 22.3963 10.436 22.4981 10.4622C22.6831 10.5093 22.5755 10.285 22.6601 10.1566C22.7449 10.0281 22.8061 10.619 22.8455 10.7409C22.8848 10.8628 22.8763 10.7311 22.9083 10.7961C22.9403 10.8611 22.9164 10.9539 22.9653 10.9711C23.0143 10.9883 23.0914 10.7427 23.0814 10.6091C23.0601 10.3261 22.949 10.0465 23.0851 10.1257C23.093 10.1304 23.1014 10.2874 23.13 10.2977C23.3588 10.3747 23.568 10.3405 23.7907 10.4035C23.8214 10.4124 23.831 10.5871 23.8492 10.5942C24.0399 10.6685 23.9216 10.3946 23.9491 10.0581C24.0147 10.4851 24.1186 10.7334 24.2482 10.7094C24.3261 10.695 24.2748 10.5132 24.2981 10.3728C24.305 10.3305 24.3862 10.4458 24.3782 10.357C24.3522 10.0665 24.2348 9.75967 24.3936 9.85855C24.4006 9.86337 24.4147 10.0224 24.4364 10.0277C24.577 10.0626 24.5302 9.76281 24.6609 9.69784C24.7633 9.64691 24.9955 9.78658 25.1268 9.78919C25.2255 10.2642 25.3208 10.1302 25.2986 9.79281C25.3823 9.78881 25.4682 9.75091 25.5538 9.77965C25.5837 9.78929 25.596 9.93033 25.6026 9.94443C25.7045 10.1659 25.6703 9.84034 25.6848 9.82413C25.8455 9.6622 26.052 9.86931 26.1807 9.59395C26.1852 9.58404 26.1226 9.25279 26.2242 9.48226C26.2311 9.49811 26.2045 9.66106 26.2922 9.65372C26.379 9.64662 26.5829 9.7862 26.6634 9.60802C26.6834 9.56502 26.6943 9.28216 26.7986 9.47771C26.8126 9.5043 26.8256 9.60045 26.8484 9.65042C26.9219 9.8095 26.8662 9.47291 26.9721 9.74559C27.0569 9.96395 27.1609 10.1302 27.2373 10.0738C27.2563 10.0598 27.2736 10.032 27.2885 9.98787C27.291 9.98134 27.259 9.71174 27.2974 9.70736C27.3586 9.70058 27.4562 9.7359 27.5185 9.71976C27.5483 9.71194 27.4915 9.55301 27.496 9.54882C27.6789 9.4103 27.8504 9.52395 28.0786 9.53727C28.1205 9.54005 28.1806 9.29121 28.2979 9.44927C28.4268 9.62218 28.529 10.4436 28.6773 10.2072C28.7376 10.1123 28.5952 9.07318 28.8609 9.56598C29.0985 9.37163 29.4088 9.58181 29.6355 9.32993C29.6457 9.31873 29.6156 9.02621 29.6452 9.02311C29.6893 9.01904 29.7448 9.14568 29.7775 9.14698C29.914 9.15598 30.0073 9.01323 30.1303 9.00172C30.1777 8.99688 30.1952 9.13757 30.2518 9.13177C30.3084 9.12583 30.3006 8.9368 30.3964 9.00542C30.4689 9.05785 30.6161 9.41191 30.7019 9.4362C30.615 9.07258 30.6683 9.06734 30.7363 8.94878C30.7493 8.92581 30.699 8.80422 30.7036 8.78684C30.7214 8.71333 30.7788 8.81017 30.7935 8.73129C30.7972 8.71232 30.7667 8.58833 30.7679 8.56583C30.7771 8.36981 30.9367 8.62599 30.9644 8.67062C31.0699 8.84001 31.0575 8.67194 31.1214 8.73304C31.1853 8.79413 31.1396 8.90193 31.2041 8.93257C31.3391 8.99553 31.4699 8.94141 31.5824 8.91911C31.6268 8.90953 31.5551 8.75184 31.5605 8.74663C31.6408 8.68182 31.7776 8.83422 31.745 8.49229C32.0239 9.32712 31.7792 8.39584 31.9534 8.53291C31.9672 8.54406 32.0825 8.94303 32.0578 9.01218C32.033 9.08129 31.941 8.97078 31.9094 9.07676C31.9018 9.10167 31.9227 9.4976 31.9183 9.52301C31.8838 9.72166 31.7208 9.12305 31.7083 9.09107C31.5708 8.74658 31.5828 9.17566 31.5661 9.20973C31.4891 9.36589 31.3776 9.30391 31.3058 9.41952C31.2597 9.49414 31.3522 9.88981 31.3013 9.8897C31.1323 9.88952 30.9406 9.35312 30.9104 9.86697C30.9038 9.97659 31.0421 10.3998 30.8441 10.0891C30.8316 10.0695 30.6706 9.78028 30.6704 9.98845C30.6703 10.0147 30.7015 10.1403 30.6961 10.1528C30.6588 10.2345 30.5982 10.1432 30.5513 10.2056C30.5044 10.268 30.4514 10.3568 30.3742 10.3305C30.3275 10.3149 30.2166 10.0938 30.183 10.0412C30.087 9.88961 30.0934 10.175 30.0102 9.98333C29.9266 9.79066 29.9199 9.46881 29.7976 9.36092C29.8737 9.68846 29.9475 10.0257 30.022 10.3556C29.8198 10.3926 29.5994 10.3339 29.4057 10.3957C29.3817 10.4037 29.4489 10.5735 29.4243 10.5865C29.3195 10.6412 29.1962 10.5382 29.0897 10.6162C29.0084 10.6771 28.9533 10.8869 28.87 10.9561C28.7238 10.5953 28.6144 10.7553 28.5055 10.7447C28.4673 10.7412 28.4463 10.6406 28.4135 10.6138C28.2907 10.5152 28.4125 10.8359 28.3987 10.8941C28.3393 11.1424 28.155 10.3952 28.0293 10.4439C28.0225 10.4462 28.0311 10.8654 28.0249 10.893C27.9867 11.0728 27.9802 10.7568 27.926 10.7382C27.8271 10.7042 27.7454 10.6225 27.6714 10.7628C27.6501 10.8042 27.6366 11.0696 27.5356 10.8898C27.5223 10.8663 27.4963 10.7331 27.4885 10.7268C27.4265 10.6801 27.4108 10.7379 27.4095 10.8298C27.408 10.943 27.4285 11.108 27.4118 11.1935C27.3815 11.3483 27.2206 11.0832 27.1826 11.0048C27.0834 10.8024 27.2009 10.9046 27.1989 10.883C27.1747 10.6259 27.1148 10.6847 27.057 10.6756C26.9572 10.2698 26.8888 10.3109 26.9974 10.6677C27.0094 10.7067 27.0421 10.6594 27.057 10.6756C27.1007 11.0859 27.0302 11.1556 26.8566 10.802C26.7753 10.6362 26.7694 10.4231 26.6559 10.5269C26.6043 10.5738 26.6898 10.8495 26.6546 10.9377C26.5741 11.139 26.3615 10.9112 26.2489 10.9793C26.2079 11.004 26.2848 11.1483 26.258 11.1705C26.1868 11.2299 26.0909 11.1299 26.0236 11.2065C26.0175 11.2137 26.0704 11.3708 26.0459 11.3783C25.8627 11.4378 25.6707 11.3713 25.4701 11.4112C25.373 11.4306 25.2195 11.5562 25.1163 11.5592C24.9365 11.5658 24.6798 11.3745 24.5401 11.4628C24.4505 11.5194 24.5051 11.6764 24.4861 11.795C24.4494 12.0249 24.2293 11.6718 24.1984 11.6164C24.1975 11.6146 24.2728 11.5595 24.2115 11.4857C24.1506 11.3181 24.1992 11.6155 24.1984 11.6164C24.1781 11.5808 24.005 11.5777 23.9785 11.6152C23.9641 11.6357 24.005 11.7868 23.9969 11.7945C23.8052 11.9758 23.5869 12.0597 23.346 12.0325C23.3414 12.0302 23.3138 11.8576 23.3034 11.8543C23.1576 11.8037 23.115 12.0297 23.0313 12.1751C22.9476 12.3204 22.8542 12.295 22.7347 12.0125C22.6616 12.0649 22.5175 11.9572 22.4355 11.8908C22.3532 11.8244 22.4065 12.1604 22.4018 12.1681C22.2947 12.3487 22.1893 12.3047 22.0633 12.2704C22.0175 12.2579 21.9689 12.2467 21.9165 12.2481C21.8228 12.25 21.6529 12.331 21.5584 12.3857C21.485 12.4293 21.4237 12.3592 21.3603 12.4222C21.3517 12.4307 21.388 12.578 21.386 12.5843C21.3368 12.777 21.3111 12.4056 21.283 12.3435C21.1808 12.1173 21.1217 11.9978 21.0386 12.1271C21.0194 12.1568 21.0419 12.6939 21.0038 12.7322C20.9543 12.7809 20.9429 12.589 20.892 12.6447C20.8876 12.6493 20.9087 12.7653 20.8715 12.7664C20.7002 12.773 20.5002 12.7374 20.3262 12.7783C20.3023 12.7835 20.364 12.9627 20.3298 12.9732C20.1697 13.0224 19.9894 13.0449 19.817 12.984C19.7745 12.9684 19.7782 12.8353 19.7635 12.7983C19.6743 12.5744 19.6535 12.9238 19.6422 12.9322C19.3741 13.1411 19.1031 12.8702 18.8292 13.0605C18.8152 13.0714 18.7429 13.4527 18.6407 13.1502C18.6337 13.1301 18.5314 12.8204 18.5146 13.045C18.5136 13.059 18.5722 13.2176 18.5096 13.2098C18.447 13.202 18.366 13.3255 18.2574 13.1575C18.223 13.1046 18.116 12.7961 18.0745 13.0602C18.0722 13.0786 18.033 13.6678 17.9344 13.279C17.9183 13.215 17.8668 12.7962 17.8044 13.0234C17.7924 13.0674 17.8379 13.1561 17.7989 13.2209C17.7392 13.3206 17.6283 13.2219 17.5652 13.4202C17.5543 13.4553 17.5269 13.748 17.4449 13.5398C17.4321 13.5071 17.429 13.3654 17.399 13.3536C17.2568 13.2964 17.1309 13.4082 16.9844 13.329C16.9326 13.3012 16.9275 13.0722 16.8704 13.0181C16.8135 12.9639 16.706 12.9186 16.6675 13.0284C16.6287 13.1382 16.7312 13.4911 16.6568 13.5298C16.6473 13.5347 16.6377 13.5394 16.6281 13.5438C16.3112 13.6879 15.9633 13.527 15.6304 13.5348C15.5797 13.5359 15.6361 13.6602 15.5623 13.6711C15.2908 13.7121 14.8317 13.8841 14.5661 13.6337C14.3542 13.4332 14.5752 13.2415 14.4217 13.1668C14.3479 13.1311 14.3147 13.5585 14.2991 13.5734C14.1475 13.7242 14.0148 13.5493 13.8719 13.6205C13.8424 13.6353 13.8886 13.8027 13.8633 13.8133C13.7768 13.8513 13.6758 13.7841 13.5918 13.8058C13.5542 13.816 13.5731 13.9454 13.537 13.9386C13.4505 13.9237 13.371 13.8758 13.278 13.7611C13.2696 13.7506 13.3056 13.5843 13.2429 13.5838C13.1413 13.5834 13.0063 13.4739 12.9012 13.6079C12.8701 13.6482 12.8937 13.9458 12.8025 13.7466C12.7834 13.7049 12.7736 13.3461 12.7131 13.6619C12.7031 13.7144 12.5919 14.1426 12.499 13.8799C12.4746 13.8107 12.4035 13.5221 12.3659 13.5713C12.3608 13.5791 12.3959 13.7372 12.3629 13.7555C12.2459 13.8172 12.1178 13.8098 11.9977 13.8692C11.9656 13.8853 12.0273 14.0471 11.979 14.0659C11.846 14.1179 11.6727 14.088 11.5359 14.0455C11.4854 14.0295 11.5098 13.89 11.5052 13.8753C11.431 13.6366 11.4197 13.9665 11.4019 13.9869C11.2908 14.1094 11.19 13.9615 11.084 14.0094C11.0546 14.0222 11.0861 14.177 11.081 14.1913C11.0795 14.1954 11.078 14.1992 11.0766 14.2026C11.0292 14.3151 11.0546 14.0471 11.0145 14.0195C10.8987 13.939 10.7768 13.9593 10.6664 13.9861C10.6258 13.9961 10.683 14.1745 10.6464 14.1815C10.4299 14.226 10.2015 14.2217 9.9845 14.1332C9.94351 14.1162 9.9611 13.9753 9.95105 13.9438C9.88181 13.7238 9.81411 14.0326 9.79615 14.0626C9.71497 14.1996 9.67425 14.0779 9.59754 14.1049C9.22086 14.2391 8.75197 14.1782 8.38858 14.1419C7.9222 14.0952 7.55176 13.9747 7.11091 14.0224C7.08283 14.0252 7.11667 14.2103 7.09251 14.2152C6.78132 14.2691 6.46405 14.2045 6.1535 14.2652C6.12785 14.2698 6.1689 14.4453 6.12782 14.4587C6.04357 14.4874 5.93557 14.4801 5.84826 14.4255C5.8057 14.3992 5.85901 14.2468 5.81626 14.2235C5.71672 14.1687 5.61085 14.1582 5.50977 14.1882C5.50954 14.1883 5.50932 14.1884 5.50909 14.1885C5.46747 14.2033 5.53493 14.3806 5.47901 14.3836C5.09875 14.4082 4.72824 14.4445 4.3373 14.215C4.31056 14.1993 4.28432 13.833 4.2296 13.9039C4.22644 14.0056 4.22784 14.1253 4.22709 14.234C3.67894 14.2979 3.1254 14.1737 2.57524 14.1546C2.55181 14.1538 2.59251 14.348 2.54712 14.3475C2.28221 14.3449 2.03069 14.3984 1.76488 14.2047C1.73846 14.1858 1.753 13.8442 1.67489 13.8956C1.66115 13.905 1.54334 13.9502 1.51251 14.0242C1.50832 14.0354 1.52926 14.1949 1.4912 14.1994C1.26975 14.2228 1.03615 14.1852 0.820582 14.0863C0.785439 14.0701 0.824088 13.9005 0.799075 13.8874C0.621753 13.7961 0.425916 13.9237 0.255059 13.7681C0.140709 13.6632 0.185962 13.3701 0.127347 13.0806C0.119072 13.0398 0.0476916 13.0327 0.045564 12.8645C0.0400745 12.4417 0.0789215 11.9792 0.0689676 11.5285C0.0669132 11.4314 -0.0293839 11.5351 0.0292685 11.3011C0.0333761 11.2854 0.103097 11.2082 0.120763 11.1288C0.133071 11.0739 0.113376 10.9028 0.138088 10.8326C0.162778 10.7625 0.187919 10.906 0.228464 10.8236C0.268957 10.7402 0.253222 10.5456 0.332628 10.5233ZM22.0665 11.5939C21.9748 11.4448 22.0744 12.0347 22.1156 11.8815C22.1175 11.8734 22.0712 11.6012 22.0665 11.5939ZM29.4953 9.89479C29.3539 9.65746 29.3903 10.0477 29.4941 10.2323C29.5979 10.4167 29.5384 9.96668 29.4953 9.89479ZM30.2804 9.50563C30.1388 9.32614 30.3261 10.1536 30.3841 9.96283C30.3875 9.952 30.2886 9.51604 30.2804 9.50563ZM0.411128 13.0008C0.41033 12.9928 0.359404 12.9847 0.358112 12.9925C0.329369 13.1823 0.431286 13.1985 0.411128 13.0008ZM31.0486 9.09951C30.9915 8.99549 30.9394 9.14498 31.0102 9.27439C31.0672 9.37849 31.1196 9.2289 31.0486 9.09951ZM18.724 11.5119C18.7217 11.5033 18.6847 11.5008 18.693 11.5505C18.7197 11.7106 18.7628 11.6577 18.724 11.5119ZM32.4389 8.73822C32.223 8.76044 31.9255 8.11308 32.1699 8.1324C32.2142 8.13586 32.1372 8.37135 32.2047 8.41932C32.3283 8.50656 32.2826 8.06414 32.4386 8.26757C32.4669 8.30485 32.4516 8.73847 32.4388 8.73926C32.4389 8.73891 32.4389 8.73857 32.4389 8.73822ZM21.9 10.894C21.8974 10.8865 21.8466 10.8882 21.8468 10.8961C21.8545 11.0878 21.957 11.0844 21.9 10.894ZM16.5751 11.4401C16.5702 11.4238 16.4524 11.4229 16.4507 11.4388C16.4292 11.7546 16.6682 11.7571 16.5751 11.4401ZM25.1315 9.80143C25.1453 9.60311 25.2048 9.56734 25.2983 9.79263C25.2419 9.79171 25.1877 9.80143 25.1315 9.80143ZM23.6157 2.7399C23.3845 3.09137 23.0893 3.35425 22.7762 3.60788C22.6893 3.67447 22.643 3.56471 22.5786 3.60855C22.4519 3.69534 22.399 3.83947 22.2589 3.93058C22.2119 3.9606 22.1255 3.80209 22.0791 3.83616C21.8326 4.0156 21.7091 4.23091 21.4863 4.44393C20.86 5.03483 20.2671 5.65664 19.6837 6.29587C19.2995 6.71567 18.9108 7.15419 18.5206 7.59516C18.211 7.94369 17.7136 8.3275 17.4668 8.7508C17.4377 8.8008 17.5748 8.86479 17.5777 8.88086C17.6187 9.13023 17.4194 8.90205 17.3191 8.96614C16.9237 9.21857 16.5947 9.62073 16.3846 9.98709C16.2929 10.1467 16.6365 10.1801 16.3942 10.2257C16.3776 10.2291 16.2817 10.0969 16.2379 10.1266C16.1389 10.1939 16.0292 10.3831 15.9654 10.4462C15.8576 10.5518 15.8316 10.5834 15.7605 10.6747C15.7501 10.6882 15.7386 10.7029 15.7258 10.7194C15.5869 10.8956 15.3703 11.0527 15.2558 11.2633C15.2319 11.3084 15.4002 11.3518 15.3737 11.4323C15.3471 11.5127 15.2083 11.6747 15.1349 11.7096C15.0615 11.7445 14.9789 11.6443 14.9482 11.6372C14.6899 11.5748 14.8122 11.9758 14.8 12.0062C14.5685 12.555 14.1214 12.8371 13.8012 13.2773C13.5589 13.6112 13.3531 14.0051 13.1188 14.3184C12.8399 14.6901 12.5397 14.9646 12.2926 15.3451C12.2669 15.3845 12.4469 15.445 12.423 15.4936C12.4226 15.4944 12.4221 15.4952 12.4216 15.4961C12.0879 16.0138 11.722 16.5126 11.2745 16.953C11.2295 16.997 11.1359 16.839 11.0827 16.8775C10.7633 17.1095 10.1538 17.4435 10.6386 18.0233C10.4759 18.2231 10.2862 18.4665 10.0434 18.5792C9.88654 18.6528 9.81042 18.4347 9.77746 18.6322C9.76989 18.6766 9.93255 18.7145 9.91117 18.7747C9.82121 19.0277 9.62891 19.2418 9.56761 19.5004C9.55548 19.5531 9.68389 19.6144 9.69818 19.6401C9.81179 19.8509 9.4162 19.8471 9.37241 19.8722C9.19802 19.9728 9.09206 20.1025 9.01235 20.2333C8.94126 20.3501 8.88705 20.4737 8.812 20.601C8.77486 20.6639 8.98278 20.6831 8.95313 20.7468C8.80034 21.0705 8.60279 21.3943 8.3584 21.6746C8.30413 21.7359 8.19526 21.5954 8.16198 21.6209C8.01698 21.7347 8.27121 21.9089 8.14043 22.018C8.11325 22.0412 7.99843 21.9612 7.98212 21.9597C7.72577 21.9352 7.99068 22.1621 7.98673 22.1865C7.93899 22.5082 7.52659 22.5471 7.44465 22.8405C7.43532 22.8757 7.62831 22.8768 7.59261 22.9706C7.35498 23.6008 7.051 24.2082 6.7202 24.809C6.67071 24.8982 6.56493 24.7923 6.54761 24.7934C6.27399 24.8217 6.58315 24.9802 6.5874 25.0127C6.59949 25.1351 6.52753 25.2435 6.49031 25.3556C6.45081 25.4731 6.45354 25.5869 6.6466 25.7055C6.38113 26.8207 6.59139 27.2929 7.47391 27.7349C7.48729 27.7409 7.44728 27.9047 7.47529 27.916C7.7779 28.0401 7.72799 27.77 7.90509 27.4557C7.94331 27.3771 8.14343 27.7544 8.1677 27.7803C8.23793 27.88 8.20481 28.1319 8.22691 28.1507C8.42395 28.2941 8.28648 27.4785 8.46351 27.4591C8.46956 27.4598 8.46923 27.6127 8.48718 27.6257C8.54361 27.6668 8.58294 27.6008 8.64161 27.6453C8.77658 27.7478 8.8967 28.1352 9.04259 27.8713C9.06124 27.8366 8.92773 27.3873 9.12373 27.3703C9.15888 27.3672 9.24624 27.3495 9.34508 27.3289C9.46311 27.3044 9.59206 27.2801 9.64832 27.2846C9.74936 27.2928 9.71816 27.4544 9.72636 27.4592C10.0235 27.5965 9.94582 27.6987 10.1365 27.9584C10.326 28.2174 10.1373 27.5412 10.1712 27.4536C10.2054 27.3661 10.423 27.4869 10.4794 27.5332C10.5361 27.5795 10.5016 27.6849 10.5479 27.708C10.8536 27.8586 10.5889 27.3433 10.6532 27.2158C10.8107 26.913 11.0842 27.3872 11.2836 27.3987C11.3377 27.4018 11.2718 27.2943 11.3152 27.2743C11.4886 27.1962 11.6249 27.3346 11.8029 27.1488C11.8327 27.1183 11.9464 26.7784 12.0996 26.9834C12.1212 27.013 12.1011 27.1485 12.185 27.1625C12.3105 27.1835 12.5239 27.1739 12.6392 27.11C12.7246 27.0627 12.5838 26.8704 12.7097 26.916C12.7655 26.9365 12.6928 27.0756 12.7954 27.1039C12.896 27.1324 13.1519 27.0847 13.2444 27.0659C13.3383 27.0466 13.2614 26.8948 13.2673 26.8829C13.3041 26.8137 13.4738 26.7087 13.4896 26.7066C13.7662 26.658 14.0595 26.6473 14.3415 26.65C14.8405 26.6569 15.3719 26.6991 15.8709 26.6114C15.9348 26.6008 15.8822 26.4328 15.8919 26.4294C16.109 26.346 15.96 26.8085 16.1178 26.9528C16.0795 26.6078 16.1723 26.6657 16.3214 26.6224C16.3933 26.6014 16.3495 26.4686 16.3556 26.4547C16.4583 26.2475 16.5404 26.5091 16.5599 26.5626C16.6315 26.7592 16.7098 26.5241 16.7613 26.6561C16.8117 26.7871 16.7005 26.9826 16.8459 26.9793C16.8871 26.8552 16.7758 26.5313 16.8889 26.4785C17.31 26.2728 18.109 26.5751 18.4344 26.6516C18.7741 26.7235 18.8758 26.721 19.0671 26.8034C19.3391 26.9265 19.3405 26.7853 19.4606 26.6949C19.4903 26.6726 19.5271 26.6539 19.5768 26.6442C19.8281 26.5979 19.5596 27.1388 19.5565 27.2696C19.5509 27.4001 19.6196 27.2837 19.6363 27.3617C19.6519 27.4394 19.5505 27.4991 19.6257 27.5493C19.6991 27.5976 19.9922 27.4598 20.07 27.348C20.2326 27.1087 20.2279 26.7882 20.4282 26.9792C20.4394 26.9904 20.3368 27.1166 20.3825 27.1523C20.739 27.4277 21.1277 27.6512 21.4061 27.9866C21.4437 28.0326 21.2997 28.1415 21.3197 28.1695C21.5172 28.4621 21.5992 28.1573 21.9653 28.0428C21.6478 28.3399 21.5552 28.6023 21.7229 28.7733C21.8246 28.8799 21.9427 28.7317 22.11 28.7174C22.1615 28.7141 22.1367 28.8825 22.2161 28.8397C22.4804 28.7055 22.661 28.4095 22.7442 28.7213C22.7471 28.7351 22.5972 28.8005 22.6162 28.8407C22.7328 29.1011 23.001 28.955 23.1998 29.1995C23.3424 29.3771 23.3899 29.7716 23.4508 30.0329C23.4583 30.0635 23.4662 30.0925 23.4749 30.1194C23.0316 30.3145 23.2287 30.489 23.5741 30.4562C23.6239 30.6181 23.7053 30.7876 23.7148 30.9636C23.7181 31.024 23.5727 31.0313 23.5606 31.0431C23.3677 31.219 23.6973 31.1847 23.7206 31.2173C23.9536 31.56 23.7926 31.9401 24.1027 32.2485C24.1137 32.2595 24.4488 32.2146 24.2275 32.3642C24.212 32.3736 24.0375 32.2796 24.0602 32.4582C24.0854 32.6507 23.9578 32.9785 24.147 33.2035C24.1925 33.2559 24.4846 33.3725 24.2878 33.5235C24.261 33.5433 24.1629 33.5379 24.1123 33.5669C23.9507 33.6578 24.2937 33.6575 24.0157 33.7746C23.7377 33.8921 23.5408 34.0828 23.7608 34.3065C23.7672 34.3136 24.0412 34.348 24.0433 34.4268C24.047 34.5578 24.0022 34.7193 24.0119 34.8463C24.0166 34.9059 24.1815 34.8573 24.1852 34.8675C24.2046 34.9323 24.2171 34.995 24.2243 35.0564C24.2612 35.3751 24.1583 35.6521 24.1124 36.0089C24.1021 36.0878 24.3349 36.3163 24.1554 36.4778C23.9586 36.65 23.1356 36.4909 23.3321 36.8639C23.4102 37.0128 24.4533 37.2201 23.9076 37.5003C24.0315 38.0686 23.7381 38.5322 23.9015 39.114C23.9088 39.1386 24.196 39.229 24.1891 39.2861C24.1782 39.3705 24.0397 39.4098 24.0274 39.4701C23.9852 39.6636 24.0352 39.8521 24.0451 40.0438C24.0481 40.1022 24.0474 40.1609 24.0392 40.22C24.0262 40.3162 23.888 40.2728 23.8722 40.3879C23.8564 40.5047 24.0366 40.5854 23.9362 40.7301C23.8597 40.8385 23.4733 40.9233 23.4174 41.0712C23.7896 41.1063 23.7739 41.2098 23.8568 41.4062C23.8729 41.444 24.0058 41.4158 24.0201 41.4343C24.0812 41.5098 23.9683 41.5658 24.0353 41.6389C24.0514 41.6566 24.1786 41.6682 24.1989 41.6834C24.3766 41.8131 24.0739 41.9776 24.0217 41.9999C23.8221 42.1004 23.9825 42.1705 23.8997 42.2546C23.8169 42.3385 23.7363 42.1943 23.6813 42.2961C23.5677 42.507 23.5608 42.7947 23.5321 43.0237C23.5214 43.1151 23.6972 43.0696 23.6996 43.083C23.7237 43.2776 23.5233 43.4531 23.8508 43.5856C22.9645 43.621 23.9241 43.704 23.7211 43.9496C23.7048 43.969 23.2893 43.9509 23.2372 43.8648C23.1852 43.7788 23.327 43.6723 23.2439 43.5533C23.2245 43.5248 22.8529 43.3376 22.8315 43.3153C22.6652 43.1313 23.2846 43.1709 23.3194 43.1654C23.6953 43.1028 23.2969 42.8735 23.2728 42.8221C23.1627 42.5849 23.2673 42.4052 23.1898 42.2131C23.1398 42.0877 22.7362 42.0396 22.7569 41.9479C22.8252 41.643 23.4007 41.5656 22.9352 41.2275C22.8358 41.155 22.3883 41.1827 22.7543 40.9826C22.7774 40.9702 23.1089 40.8257 22.9145 40.7142C22.89 40.7002 22.7609 40.691 22.7513 40.6743C22.689 40.5625 22.7969 40.4995 22.7558 40.3808C22.7151 40.2554 22.6514 40.1055 22.7039 39.9721C22.7057 39.9676 22.7081 39.9631 22.7111 39.9586C22.7623 39.8818 22.9859 39.7997 23.0438 39.7661C23.2203 39.6656 22.9487 39.5322 23.158 39.4765C23.3685 39.4197 23.6749 39.5711 23.8183 39.3987C23.4829 39.3738 23.1391 39.3401 22.802 39.3116C22.8343 38.9321 22.961 38.5234 22.9582 38.1398C22.9575 38.0917 22.7753 38.1351 22.7699 38.0836C22.7475 37.873 22.8813 37.674 22.8338 37.4426C22.7963 37.2631 22.6067 37.0695 22.5589 36.8911C22.9441 36.7879 22.8128 36.5069 22.8447 36.307C22.8559 36.237 22.9587 36.24 22.9913 36.1899C23.1117 36.0011 22.7734 36.0956 22.7188 36.0463C22.4852 35.8372 23.2544 35.8018 23.2259 35.543C23.2247 35.5278 22.8076 35.3747 22.7809 35.3539C22.6075 35.2159 22.9224 35.3228 22.9481 35.2296C22.9583 35.1927 22.9706 35.1581 22.9822 35.1247C23.0238 35.005 23.057 34.8989 22.9529 34.7576C22.9136 34.7054 22.649 34.5936 22.8365 34.4643C22.8611 34.4475 22.9969 34.4442 23.0038 34.4317C23.1171 34.2061 22.6918 34.2407 22.5368 34.1389C22.3818 34.038 22.6541 33.8318 22.7338 33.7853C22.9403 33.6655 22.8355 33.8461 22.8573 33.849C23.1185 33.8798 23.0603 33.7564 23.0688 33.6506C23.4816 33.5834 23.437 33.4356 23.0754 33.5386C23.0359 33.5498 23.0851 33.6267 23.0688 33.6506C22.6503 33.6073 22.5787 33.4637 22.9316 33.2363C23.0966 33.1296 23.316 33.1715 23.2005 32.9403C23.1477 32.8362 22.8719 32.9297 22.7775 32.8468C22.5615 32.654 22.7659 32.3217 22.672 32.1169C22.637 32.0388 22.5037 32.156 22.4745 32.1045C22.3968 31.9698 22.4767 31.8138 22.3778 31.6928C22.3687 31.6822 22.2196 31.7588 22.2051 31.7177C22.092 31.4093 22.0935 31.0999 21.9594 30.7919C21.9515 30.7738 21.9416 30.7548 21.9301 30.735C21.8456 30.5875 21.6807 30.4207 21.6206 30.2892C21.5158 30.0451 21.502 29.6215 21.299 29.4852C21.168 29.3966 21.0708 29.5361 20.9483 29.5705C20.7197 29.6454 20.836 29.2286 20.8449 29.1587C20.8453 29.1558 20.9681 29.2105 20.9713 29.1014C21.0544 28.9403 20.8459 29.1586 20.8449 29.1587C20.8577 29.1154 20.6757 28.9271 20.6134 28.9256C20.5809 28.924 20.5048 29.0613 20.49 29.0584C20.1401 28.9889 19.8498 28.8874 19.547 28.6982C19.5424 28.6931 19.6111 28.5322 19.599 28.5222C19.4288 28.3786 19.2183 28.5401 19.0308 28.6227C19.0129 28.6301 18.9957 28.6363 18.9792 28.6411C18.8147 28.6896 18.7092 28.6073 18.6612 28.3211C18.5241 28.3334 18.347 28.1726 18.2345 28.078C18.1224 27.9832 18.0667 28.3199 18.057 28.3255C17.7311 28.5082 17.5479 28.3015 17.2103 28.2613C17.0537 28.2411 16.7094 28.2907 16.538 28.3333C16.3994 28.3668 16.3105 28.2904 16.1794 28.3474C16.1617 28.3551 16.1871 28.5055 16.1819 28.5116C16.0433 28.6998 16.0949 28.3267 16.0605 28.2622C15.9344 28.0284 15.8499 27.9049 15.6702 28.0313C15.6272 28.0603 15.5417 28.6017 15.4657 28.6396C15.3653 28.6881 15.3877 28.4943 15.2814 28.5506C15.2723 28.5553 15.2855 28.6723 15.2167 28.6738C15.0068 28.6799 14.8089 28.6687 14.5912 28.6763C14.4687 28.6804 14.3447 28.6901 14.2228 28.7111C14.177 28.7186 14.2612 28.8957 14.1957 28.9095C13.9022 28.9724 13.5722 29.0161 13.2522 28.9809C13.1735 28.9716 13.1988 28.8346 13.1761 28.799C13.0389 28.5836 12.9621 28.9437 12.9407 28.954C12.4325 29.21 11.9506 28.9882 11.4229 29.2473C11.3938 29.262 11.2337 29.6697 11.0583 29.3861C11.0464 29.3672 10.876 29.075 10.8325 29.3093C10.8298 29.3239 10.9295 29.4716 10.8144 29.4794C10.6991 29.4872 10.5422 29.6349 10.3446 29.4929C10.2822 29.4482 10.0926 29.1622 9.99858 29.4459C9.99535 29.4567 9.96282 29.6468 9.90514 29.7558C9.84582 29.8484 9.76863 29.885 9.68581 29.7185C9.65595 29.6574 9.58082 29.2434 9.4218 29.4957C9.39122 29.5443 9.4818 29.6228 9.39009 29.7002C9.24806 29.8195 9.02203 29.7426 8.86129 29.953C8.8287 29.9907 8.74648 30.2907 8.56596 30.0892C8.53909 30.0574 8.56386 29.9138 8.48667 29.9047C8.12338 29.8599 7.75466 29.9604 7.38456 29.8277C7.22453 29.7763 7.32565 29.5591 7.17485 29.4767C7.02167 29.3952 6.73833 29.27 6.55348 29.3146C6.36101 29.3569 6.42302 29.7682 6.15087 29.6943C4.65837 29.3354 4.05481 27.3731 4.18298 26.4938C4.18502 26.3485 4.05514 26.4719 4.05383 26.2537C4.05653 25.7926 4.0881 25.3131 4.20412 24.8361C4.30949 24.407 4.44978 24.0989 4.65654 23.8851C5.0051 23.5443 4.98932 24.1133 5.18039 23.8324C5.27581 23.6886 4.92766 23.4152 4.92991 23.3712C4.92667 22.9972 5.19479 22.8361 5.27136 22.5137C5.28756 22.4465 5.10402 22.4397 5.11977 22.3829C5.16729 22.1999 5.31511 22.0584 5.37775 21.8907C5.40546 21.8156 5.28095 21.7735 5.32168 21.7107C5.41803 21.5596 5.53691 21.4401 5.72473 21.3365C5.74177 21.3272 5.83969 21.4957 5.90411 21.3792C6.00773 21.1914 6.22393 21.0332 6.22409 20.7643C6.2234 20.685 5.96053 20.543 6.21422 20.5049C6.26747 20.4966 6.56393 20.7019 6.375 20.399C6.34213 20.3508 6.12319 19.8783 6.42853 19.8837C6.50865 19.8852 6.81091 19.9452 6.8108 19.8511C6.80987 19.8378 6.64802 19.7985 6.66787 19.7312C6.73997 19.4966 6.88073 19.2838 6.96578 19.0407C6.9664 19.039 6.96701 19.0372 6.96762 19.0354C6.9901 18.9697 6.79553 18.9738 6.8338 18.8782C6.94349 18.6073 7.14895 18.3456 7.33269 18.1432C7.40039 18.0692 7.48254 18.1987 7.49905 18.2003C7.76645 18.2288 7.52169 17.9997 7.52552 17.9568C7.5528 17.693 7.7808 17.6181 7.86457 17.4075C7.88814 17.3495 7.73226 17.3033 7.72696 17.2855C7.67901 17.1053 7.86697 17.3347 7.93494 17.2849C8.12511 17.1475 8.24537 16.9352 8.3492 16.7368C8.38717 16.6637 8.1846 16.643 8.22054 16.5785C8.43039 16.1948 8.69923 15.8173 9.01367 15.5265C9.07376 15.471 9.16225 15.5903 9.198 15.5942C9.44689 15.6237 9.28706 15.3152 9.28472 15.2667C9.27302 15.0468 9.41393 15.0592 9.48227 14.9174C9.65016 14.5687 9.87522 14.2262 10.1227 13.8918C10.3725 13.5544 10.6411 13.2317 10.8684 12.9563C11.4588 12.2399 11.9903 11.736 12.485 11.0084C12.5166 10.9623 12.3336 10.8969 12.359 10.8558C12.693 10.3293 13.1238 9.8758 13.4543 9.35115C13.4817 9.3082 13.297 9.26002 13.3363 9.18748C13.3767 9.11154 13.4348 9.02813 13.5001 8.95361C13.5623 8.88254 13.6323 8.81774 13.7048 8.76803C13.7771 8.71808 13.8293 8.89899 13.8995 8.84689C14.0634 8.72588 14.2003 8.56806 14.2991 8.39333C14.3408 8.31874 14.1201 8.30986 14.1855 8.22147C14.631 7.61374 15.0635 7.00863 15.7181 6.5556C15.7634 6.52399 16.0798 6.7146 16.0938 6.58351C16.0192 6.51386 15.9251 6.44003 15.8421 6.36974C16.3112 5.70457 16.8932 5.07623 17.4328 4.47492C17.6159 4.26978 17.7938 4.0684 17.963 3.86834C17.9923 3.83369 17.7923 3.77171 17.8481 3.70406C18.1706 3.31306 18.4681 2.86595 18.9408 2.59719C18.9906 2.56665 19.2363 2.80547 19.2991 2.6487C19.3104 2.62017 19.4267 2.4086 19.4072 2.31611C19.4037 2.30274 19.2542 2.23322 19.2982 2.17303C19.5253 1.86161 19.9054 1.46391 20.2297 1.23033C20.292 1.18126 20.3687 1.35379 20.414 1.31998C20.7279 1.0873 20.869 0.721311 21.2052 0.565172C21.4299 0.462067 21.6116 0.701251 21.9073 0.80027C21.9573 0.804684 22.0183 0.743619 22.171 0.823962C22.5075 1.081 22.797 1.45412 23.1608 1.72223C23.2845 1.72728 23.2486 1.60911 23.3997 1.7928C23.4193 1.79399 23.3586 1.9837 23.4165 2.03848C23.445 2.0898 23.5988 2.17306 23.6247 2.25102C23.6494 2.33019 23.507 2.27605 23.5063 2.40419C23.5139 2.52411 23.6926 2.61434 23.6157 2.7399ZM17.7199 27.6679C17.6114 27.4972 17.5609 28.0935 17.6928 27.9584C17.6992 27.9512 17.7254 27.6763 17.7199 27.6679ZM23.4098 38.5528C23.6798 38.4011 23.2957 38.2787 23.0881 38.3836C22.8807 38.4878 23.3279 38.5986 23.4098 38.5528ZM23.5117 40.2373C23.7321 40.0583 22.8875 39.9742 23.0452 40.1893C23.054 40.2018 23.4989 40.2477 23.5117 40.2373ZM21.6026 1.28365C21.6105 1.28667 21.6844 1.21172 21.6794 1.2055C21.5712 1.03955 21.4237 1.1891 21.6026 1.28365ZM23.5906 41.9192C23.7099 41.8734 23.5933 41.6843 23.4445 41.7481C23.3247 41.8014 23.4421 41.9782 23.5906 41.9192ZM11.3484 27.6835C11.3447 27.6752 11.2725 27.6817 11.2843 27.7307C11.3225 27.8885 11.4107 27.8239 11.3484 27.6835ZM23.3128 44.7403C23.3925 44.3204 24.1166 44.1433 23.987 44.5941C23.9635 44.6759 23.7851 44.3894 23.7104 44.4885C23.5744 44.6695 23.9967 44.8494 23.7392 45.0239C23.6922 45.0551 23.3068 44.7637 23.3119 44.7395C23.3122 44.7398 23.3125 44.7401 23.3128 44.7403ZM17.6962 26.9463C17.6943 26.9382 17.5933 26.9249 17.5903 26.9328C17.5265 27.1193 17.7264 27.1458 17.6962 26.9463ZM7.21637 27.854C7.21106 27.838 7.03478 27.7703 7.02743 27.7813C6.81071 28.0425 7.24476 28.2036 7.21637 27.854ZM23.4648 30.1286C23.688 30.159 23.7648 30.2853 23.5742 30.4556C23.5454 30.3488 23.5024 30.2413 23.4648 30.1286ZM42.7881 27.5815C42.441 27.8197 41.9352 28.0155 41.5288 28.1351C41.4019 28.1726 41.4129 28.0483 41.3234 28.0698C41.1483 28.1119 41.0259 28.2315 40.8496 28.2649C40.7909 28.2754 40.7794 28.0934 40.7197 28.1079C40.3923 28.1886 40.1373 28.363 39.8212 28.479C38.744 28.8735 37.6999 29.3009 36.6543 29.7346C36.1941 29.9257 35.7354 30.1172 35.2751 30.3069C34.7683 30.5163 34.1059 30.6561 33.6277 30.9509C33.5712 30.9858 33.6688 31.103 33.6625 31.1193C33.5621 31.3707 33.4965 31.0732 33.3636 31.0911C32.8349 31.1635 32.3261 31.3831 31.9043 31.6399C31.7257 31.7493 32.0375 31.928 31.7787 31.8662C31.7609 31.8622 31.7433 31.698 31.6846 31.7067C31.5515 31.7266 31.3414 31.8541 31.2459 31.8844C31.0615 31.9421 31.0334 31.9568 30.8686 32.0307C30.645 32.1295 30.338 32.1852 30.1116 32.3288C30.0633 32.3599 30.1989 32.474 30.1279 32.5369C30.1252 32.5393 30.1222 32.5417 30.119 32.5442C30.0397 32.6064 29.83 32.6878 29.7445 32.6873C29.6554 32.6867 29.6337 32.5579 29.6086 32.5376C29.3994 32.3655 29.2917 32.7877 29.2627 32.8103C28.7245 33.2166 28.1462 33.2734 27.5906 33.5348C27.1674 33.7344 26.7537 34.0004 26.3509 34.183C25.868 34.4015 25.4367 34.513 24.9843 34.7508C24.9363 34.7758 25.0761 34.9174 25.0177 34.9483C24.592 35.1735 24.1751 35.3749 23.7293 35.5491C23.5232 35.6297 23.3146 35.7026 23.1023 35.7662C23.035 35.7863 23.0385 35.5982 22.9666 35.6095C22.5371 35.6762 21.7696 35.7105 21.8933 36.4631C21.6302 36.5717 21.3107 36.7122 21.0136 36.7102C20.823 36.7086 20.8767 36.4726 20.7355 36.6389C20.7037 36.6762 20.8327 36.7854 20.7793 36.8308C20.5533 37.0229 20.2633 37.1282 20.0497 37.3458C20.0076 37.3897 20.0924 37.5043 20.0908 37.5347C20.0746 37.7825 19.7052 37.6034 19.6493 37.6077C19.2294 37.6409 19.0274 37.8481 18.7206 38.0326C18.6498 38.0752 18.8329 38.1854 18.7687 38.232C18.4359 38.471 18.0754 38.6831 17.6922 38.8373C17.6074 38.8707 17.5855 38.6905 17.5404 38.6997C17.5164 38.7048 17.4973 38.7134 17.4819 38.7246C17.3703 38.8061 17.457 39.0244 17.2954 39.0647C17.2568 39.0747 17.1956 38.9485 17.1814 38.9398C16.9572 38.8037 17.0726 39.1362 17.0536 39.1586C16.8214 39.4459 16.4323 39.2903 16.1891 39.5331C16.1606 39.5622 16.338 39.6488 16.2519 39.722C15.668 40.2186 15.0231 40.6831 14.3798 41.0825C14.2781 41.1465 14.2509 40.9925 14.2345 40.9855C13.9719 40.882 14.146 41.1854 14.1274 41.2205C13.9724 41.493 13.5723 41.4891 13.7216 41.9167C13.2158 42.3325 12.8131 42.835 12.4266 43.3369C12.0562 43.8184 11.7047 44.2915 11.2609 44.7401C11.2496 44.752 11.1159 44.6471 11.0939 44.6716C10.8301 44.9695 11.0951 45.0281 11.2741 45.3872C11.3201 45.4752 10.892 45.4866 10.8588 45.4927C10.7385 45.5078 10.5372 45.3469 10.5102 45.358C10.2934 45.4593 11.0607 45.76 10.9761 45.9667C10.9721 45.9729 10.8427 45.8882 10.8215 45.9003C10.7551 45.9383 10.7893 46.0158 10.7195 46.0518C10.5594 46.1329 10.1638 46.0448 10.3137 46.3236C10.3341 46.3584 10.7876 46.4734 10.7039 46.6576C10.6685 46.7312 10.5764 47.0693 10.5231 47.1581C10.4684 47.2463 10.3396 47.1441 10.3315 47.1491C10.0695 47.3682 10.0152 47.249 9.69322 47.3262C9.37226 47.4111 10.0689 47.5105 10.1335 47.58C10.1979 47.6483 9.99609 47.8157 9.93058 47.8577C9.86477 47.8984 9.78184 47.8209 9.74154 47.8605C9.47896 48.1293 10.0628 48.0416 10.1565 48.1529C10.3815 48.4086 9.84102 48.5262 9.76686 48.7344C9.74701 48.7904 9.86996 48.7541 9.87566 48.8057C9.89762 49.0095 9.72529 49.1216 9.85988 49.3654C9.87132 49.3861 9.95815 49.4519 10.0068 49.5255C10.0509 49.5948 10.0628 49.6686 9.95111 49.7228C9.91765 49.7389 9.78924 49.6851 9.75828 49.7719C9.71126 49.9023 9.68716 50.1296 9.73994 50.2618C9.77914 50.3642 9.98398 50.2397 9.92755 50.3685C9.90289 50.4261 9.76869 50.3273 9.73315 50.4367C9.69621 50.5479 9.73934 50.8106 9.76431 50.9055C9.78905 51.0071 9.93733 50.9221 9.94974 50.9288C10.0203 50.968 10.1392 51.1241 10.1437 51.1374C10.3524 51.868 10.5768 52.687 11.3044 53.1378C11.3605 53.1724 11.4296 53.01 11.4392 53.014C11.6511 53.0822 11.2448 53.3474 11.2879 53.565C11.4683 53.2678 11.506 53.3734 11.6617 53.4271C11.7368 53.4522 11.7718 53.3158 11.7852 53.3079C11.9013 53.2411 11.9264 53.3007 11.9254 53.3741C11.9246 53.4272 11.911 53.4882 11.9071 53.512C11.8746 53.7214 12.059 53.5548 12.042 53.6952C12.0287 53.8362 11.8282 53.9522 11.9737 54.0239C12.0684 53.9327 12.1124 53.5921 12.2392 53.5968C12.6964 53.6153 13.3632 54.1137 13.7237 54.2309C14.056 54.3468 14.1787 54.3491 14.3784 54.439C14.7315 54.5948 14.6429 54.3307 14.8914 54.2657C15.1415 54.1985 14.9287 54.7614 14.9405 54.8927C14.9532 55.024 15.0127 54.9013 15.044 54.9773C15.0757 55.0534 14.9681 55.1233 15.0656 55.1659C15.1649 55.2093 15.4633 55.0249 15.5172 54.8977C15.6297 54.6287 15.5505 54.3198 15.792 54.4571C15.8061 54.4652 15.7376 54.6131 15.7926 54.6362C16.0631 54.7434 16.3232 54.8038 16.6006 54.8668C16.7845 54.9089 16.9782 54.952 17.1518 55.0078C17.2129 55.0272 17.1442 55.1957 17.1798 55.2089C17.5538 55.3466 17.4385 55.0456 17.6676 54.7353C17.5927 55.1628 17.6974 55.4347 17.9901 55.4524C18.1638 55.4628 18.1432 55.273 18.2615 55.1455C18.2968 55.107 18.4149 55.2416 18.4412 55.1539C18.5269 54.8672 18.4226 54.5391 18.7171 54.679C18.7301 54.6856 18.6825 54.8427 18.7278 54.8538C19.025 54.9264 19.0595 54.6243 19.3753 54.5949C19.6207 54.5718 20.0654 54.7625 20.3418 54.7937C20.3326 55.2789 20.6019 55.169 20.7113 54.8344C20.8969 54.8482 21.0962 54.8286 21.271 54.8738C21.3317 54.8891 21.2928 55.0298 21.3005 55.0449C21.4199 55.2822 21.4974 54.9561 21.5368 54.943C21.5852 54.9285 21.6328 54.9188 21.6796 54.9125C22.0512 54.863 22.3652 55.0279 22.7258 54.807C22.7403 54.798 22.7569 54.4607 22.872 54.7044C22.8795 54.7212 22.7464 54.8773 22.9407 54.8851C23.1382 54.8929 23.5026 55.065 23.7669 54.9018C23.8308 54.8625 23.9876 54.5847 24.1261 54.7946C24.1446 54.8231 24.128 54.9202 24.155 54.9733C24.2424 55.1423 24.2778 54.8005 24.3835 55.0869C24.4886 55.3733 24.6932 55.5842 24.9583 55.3762C24.9668 55.3702 25.0225 55.0984 25.108 55.1C25.2444 55.1028 25.4403 55.1528 25.5837 55.1464C25.652 55.1432 25.6029 54.9771 25.6146 54.9737C26.0331 54.8728 26.3481 54.9851 26.7886 55.0403C26.8226 55.0445 26.8558 55.0484 26.8906 55.0519C26.9801 55.0611 27.2295 54.8241 27.4094 54.999C27.607 55.1904 27.4373 56.0193 27.8707 55.809C28.0473 55.7249 28.235 54.6742 28.5701 55.205C29.1853 55.0519 29.7595 55.3124 30.3749 55.106C30.4026 55.0969 30.4839 54.8034 30.5499 54.8059C30.6471 54.8101 30.7032 54.945 30.7726 54.9525C31.0632 54.9871 31.3269 54.8653 31.6083 54.8785C31.7151 54.8833 31.6802 55.0247 31.8075 55.0305C31.8391 55.0319 31.8675 55.0216 31.8953 55.0066C31.98 54.9607 32.0585 54.8711 32.1887 54.9368C32.3194 55.0033 32.4534 55.3807 32.6254 55.4231C32.6281 55.0492 32.7464 55.0556 32.9562 54.9553C32.9966 54.9358 32.9522 54.8061 32.9712 54.7901C33.0488 54.7225 33.1221 54.8299 33.1953 54.7565C33.2132 54.7388 33.2133 54.6111 33.2279 54.5895C33.3522 54.4008 33.5598 54.6873 33.5952 54.7373C33.7312 54.9269 33.7943 54.7608 33.8984 54.8357C34.0023 54.9105 33.847 55.0039 33.9681 55.0493C34.2192 55.1434 34.5416 55.1244 34.7961 55.1327C34.8976 55.1352 34.83 54.9641 34.8446 54.9605C35.0557 54.9193 35.2657 55.1035 35.3878 54.7659C35.5197 55.646 35.5162 54.6826 35.8149 54.8641C35.8384 54.8788 35.8597 55.2944 35.7679 55.3535C35.6763 55.4126 35.5411 55.2803 35.4137 55.3733C35.3834 55.3951 35.2076 55.7815 35.1843 55.8048C35.0008 55.9866 34.9822 55.3662 34.9728 55.332C34.8671 54.9631 34.6542 55.3803 34.5995 55.4089C34.3482 55.5398 34.1347 55.4518 33.9248 55.5464C33.7874 55.6075 33.7744 56.0139 33.6671 56.0016C33.3108 55.9613 33.1829 55.3952 32.8484 55.8893C32.7769 55.9948 32.8528 56.4381 32.591 56.0915C32.5746 56.0696 32.3787 55.7523 32.2702 55.9558C32.2566 55.9815 32.2587 56.1109 32.2405 56.122C32.1218 56.192 32.0397 56.0974 31.9127 56.1396C31.9092 56.1408 31.9057 56.142 31.9021 56.1434C31.7687 56.1949 31.608 56.2712 31.4539 56.2301C31.361 56.2056 31.2378 55.9668 31.1923 55.9087C31.0637 55.7411 30.9356 56.0227 30.8539 55.8185C30.7712 55.6133 30.9172 55.2957 30.7091 55.1666C30.7091 55.5029 30.6995 55.8483 30.695 56.1867C30.2456 56.1851 29.7993 56.088 29.3511 56.1157C29.2953 56.1195 29.3578 56.2985 29.2978 56.3072C29.0445 56.3433 28.8192 56.2212 28.5586 56.2806C28.3561 56.3273 28.1434 56.5256 27.9297 56.5807C27.7866 56.2004 27.4742 56.3413 27.2443 56.3138C27.1637 56.3043 27.1657 56.2014 27.1076 56.1698C26.8888 56.053 27.0008 56.3895 26.9437 56.4449C26.9035 56.4838 26.8691 56.4955 26.8368 56.4882C26.6742 56.4508 26.5996 55.918 26.3492 55.9422C26.3333 55.9435 26.1529 56.3599 26.1271 56.3863C25.9631 56.5584 26.0943 56.2446 25.9873 56.2178C25.7915 56.1688 25.6572 56.0751 25.4296 56.2027C25.3639 56.2404 25.2116 56.501 25.0762 56.3074C25.0583 56.282 25.0635 56.1462 25.0496 56.1387C24.7982 56.014 24.805 56.44 24.6683 56.5885C24.5331 56.7369 24.3033 56.4492 24.256 56.3658C24.1323 56.1499 24.3433 56.2695 24.3491 56.2478C24.4166 55.9897 24.2567 56.0384 24.1336 56.0202C24.1041 55.6031 23.9341 55.6328 24.0061 56.0029C24.0142 56.0434 24.1084 56.0018 24.1336 56.0202C24.0375 56.4329 23.8498 56.4905 23.6338 56.1129C23.5329 55.9358 23.6183 55.7244 23.3286 55.808C23.1969 55.8457 23.254 56.1321 23.1368 56.2132C22.8677 56.3982 22.5108 56.1368 22.2361 56.1833C22.1362 56.2002 22.2362 56.3562 22.168 56.3731C22.0047 56.4135 21.8549 56.3268 21.6949 56.3502C21.6745 56.3531 21.6539 56.3579 21.6329 56.365C21.6162 56.3708 21.6589 56.5352 21.6012 56.5379C21.1679 56.5611 20.7825 56.457 20.3248 56.4516C20.1073 56.4493 19.7078 56.5356 19.4753 56.5126C19.0784 56.4747 18.5927 56.2197 18.2486 56.2625C18.0253 56.2897 18.0663 56.4564 17.9656 56.5639C17.7726 56.7728 17.454 56.3626 17.4172 56.2994C17.4159 56.2974 17.6124 56.2707 17.5141 56.1798C17.4653 56.0001 17.4195 56.2987 17.4172 56.2994C17.3896 56.2591 17.0092 56.1945 16.9324 56.2193C16.8901 56.2332 16.9004 56.3907 16.8785 56.395C16.7371 56.4208 16.5918 56.4382 16.4503 56.4476C16.0621 56.4739 15.6693 56.4361 15.2817 56.3265C15.2728 56.3221 15.3115 56.1511 15.2904 56.1428C15.0039 56.0227 14.762 56.1993 14.4802 56.2768C14.197 56.3534 14.0033 56.2688 13.9081 55.9402C13.701 55.9332 13.4547 55.7346 13.3227 55.6143C13.1828 55.4922 13.0655 55.8113 13.0488 55.8136C12.5353 55.8843 12.3307 55.61 11.8809 55.3891C11.681 55.2919 11.2222 55.1204 10.974 55.014C10.968 55.0115 10.9621 55.0091 10.9563 55.0067C10.7492 54.9194 10.6799 54.7801 10.4842 54.7065C10.4576 54.6962 10.3936 54.8363 10.3834 54.8362C10.0864 54.8466 10.3966 54.6127 10.3977 54.532C10.4056 54.2366 10.4082 54.0803 10.1218 53.977C10.0588 53.9561 9.54645 54.2055 9.42359 54.1211C9.27278 54.0183 9.45866 53.9389 9.30355 53.8329C9.29062 53.8233 9.20292 53.9035 9.13281 53.8111C8.80727 53.3849 8.55776 52.8339 8.34762 52.3376C8.31843 52.2676 8.18097 52.4285 8.13552 52.3257C7.92416 51.8595 7.78692 51.207 7.82886 50.7563C7.8381 50.639 7.97677 50.7012 8.0128 50.6733C8.23094 50.5102 7.87699 50.3209 7.86916 50.2828C7.78645 49.9696 7.80381 49.6888 7.84634 49.4168C7.90331 49.0507 8.00241 48.7011 7.97029 48.2681C7.96559 48.23 7.64657 47.8666 7.98294 47.7678C8.0054 47.7598 8.34621 47.6724 8.15229 47.5165C8.1403 47.5063 7.96024 47.5664 8.00602 47.4172C8.05143 47.2703 7.99619 46.9992 8.22626 46.8263C8.29904 46.7701 8.64764 46.6966 8.4548 46.4388C8.43881 46.4262 7.9747 45.9549 8.39071 45.967C8.45914 45.9698 8.85387 46.1153 8.72232 45.8269C8.6971 45.771 8.58142 45.8181 8.56451 45.6866C8.53901 45.4829 8.72812 45.2974 8.63811 45.0193C8.62126 44.9716 8.42197 44.7028 8.67647 44.6634C8.71613 44.6576 8.8293 44.7503 8.87206 44.692C9.0753 44.417 9.14443 44.0599 9.39018 43.8073C9.47667 43.7189 9.64814 43.8803 9.75988 43.8034C9.87157 43.7262 10.0425 43.547 10.0189 43.3853C9.99586 43.2223 9.61181 43.1548 9.68967 42.9723C9.87189 42.5495 10.1527 42.1923 10.4599 41.8609C10.7239 41.577 11.0092 41.3103 11.2726 41.0284C11.3555 40.9403 11.1912 40.9305 11.308 40.7941C11.7365 40.282 12.4694 39.394 13.0786 39.2304C13.5579 39.1018 13.2514 39.5965 13.5635 39.4416C13.7122 39.3683 13.573 38.9328 13.5957 38.8963C13.8131 38.5363 14.1299 38.521 14.3684 38.2607C14.4176 38.2071 14.2568 38.1157 14.3001 38.0715C14.4463 37.9199 14.6742 37.8425 14.8203 37.7164C14.887 37.6585 14.7962 37.5632 14.8678 37.5228C15.0384 37.4252 15.2114 37.3679 15.438 37.3569C15.4585 37.356 15.4575 37.5561 15.5786 37.4775C15.7775 37.3478 16.0777 37.2868 16.2262 37.0361C16.2504 36.9948 16.2116 36.9007 16.2146 36.8371C16.2171 36.7852 16.2475 36.7536 16.3624 36.7884C16.4162 36.8044 16.576 37.1283 16.5701 36.761C16.5669 36.7011 16.6261 36.1634 16.905 36.3052C16.9791 36.3419 17.2275 36.5314 17.2816 36.4427C17.2884 36.4297 17.1596 36.3214 17.217 36.2666C17.4212 36.076 17.6767 35.9383 17.8957 35.7471C17.9534 35.6963 17.7719 35.612 17.8594 35.5415C18.0997 35.3474 18.4538 35.1878 18.7432 35.0809C18.8501 35.0417 18.8515 35.1995 18.8661 35.2084C19.1006 35.3541 19.0046 35.0308 19.0331 34.9924C19.2062 34.7618 19.4587 34.7968 19.6538 34.6417C19.708 34.5992 19.5899 34.4856 19.595 34.4669C19.6522 34.2792 19.6966 34.5761 19.7895 34.5601C20.0495 34.5167 20.2923 34.3702 20.4982 34.2368C20.5751 34.1869 20.3987 34.0755 20.4688 34.0325C20.8794 33.7765 21.354 33.5476 21.8124 33.4245C21.9004 33.4009 21.9144 33.5509 21.9455 33.5708C22.1608 33.7113 22.1893 33.3547 22.215 33.3091C22.3045 33.1486 22.3995 33.1573 22.5053 33.1236C22.5363 33.1138 22.5683 33.1002 22.6014 33.0777C23.3011 32.596 24.2833 32.2081 25.0186 31.9126C25.9775 31.5261 26.7704 31.3014 27.6378 30.8597C27.6936 30.8315 27.558 30.6894 27.6052 30.663C28.0512 30.42 28.5074 30.2408 28.9592 30.0305C29.1335 29.9494 29.3069 29.8638 29.4776 29.7687C29.528 29.741 29.379 29.6155 29.4576 29.5656C29.6167 29.4628 29.834 29.3733 30.0294 29.3453C30.1245 29.3314 30.0755 29.5205 30.1699 29.5037C30.3899 29.4649 30.6062 29.3791 30.7973 29.26C30.8785 29.2089 30.6728 29.1051 30.7842 29.0515C31.5327 28.6872 32.2735 28.3113 33.1309 28.1705C33.19 28.1607 33.3904 28.4717 33.4724 28.356C33.4379 28.2599 33.3869 28.1516 33.3447 28.0514C34.0249 27.6945 34.7112 27.4126 35.4155 27.1198C35.8343 26.9459 36.2493 26.7728 36.6643 26.5815C36.7109 26.56 36.5469 26.4234 36.6366 26.3808C37.159 26.1327 37.6272 25.8455 38.2411 25.7588C38.3017 25.75 38.4256 26.0699 38.5573 25.9474C38.5803 25.9256 38.7934 25.7695 38.8189 25.674C38.822 25.66 38.7093 25.5379 38.7812 25.497C39.2009 25.262 39.669 25.0681 40.1449 24.936C40.2218 24.9149 40.2244 25.104 40.2799 25.0903C40.6701 24.9934 40.9906 24.6841 41.3956 24.6479C41.6672 24.6241 41.7196 24.9275 41.9723 25.1218C42.0081 25.1492 42.1504 25.0822 42.2355 25.2274C42.4498 25.5924 42.596 26.0382 42.8324 26.4231C42.8832 26.5061 43.0237 26.3147 43.0205 26.581C43.02 26.599 42.9189 26.7396 42.9218 26.8278C42.9237 26.8888 43.0451 27.0183 43.0296 27.1058C43.0139 27.1933 42.895 27.0936 42.8534 27.2084C42.8124 27.324 42.9369 27.4786 42.7881 27.5815ZM12.7217 55.0528C12.6378 54.8503 12.4104 55.4041 12.6168 55.3252C12.6269 55.3207 12.7263 55.0629 12.7217 55.0528ZM29.7906 55.6372C29.6015 55.3784 29.4882 55.7697 29.6218 55.9698C29.7552 56.1698 29.8482 55.7157 29.7906 55.6372ZM31.6751 55.4026C31.458 55.1983 31.4401 56.047 31.6647 55.8716C31.6777 55.8617 31.6878 55.4145 31.6751 55.4026ZM41.4559 25.4817C41.4613 25.4879 41.5649 25.4432 41.5637 25.435C41.5298 25.2387 41.3229 25.3281 41.4559 25.4817ZM33.5474 55.1739C33.4805 55.0593 33.2897 55.1926 33.3729 55.3349C33.4396 55.4494 33.6304 55.3165 33.5474 55.1739ZM9.47532 48.7142C9.48436 48.7127 9.50128 48.6335 9.45099 48.6303C9.28859 48.6205 9.32192 48.7377 9.47532 48.7142ZM36.7338 55.2069C36.2658 55.1606 35.9943 54.4537 36.5091 54.5463C36.602 54.5632 36.3016 54.764 36.4187 54.8305C36.632 54.9515 36.7903 54.5163 37.0043 54.7596C37.0426 54.804 36.7601 55.211 36.7329 55.2078C36.7332 55.2075 36.7335 55.2072 36.7338 55.2069ZM12.8822 54.3477C12.8818 54.3394 12.7767 54.2932 12.7716 54.2995C12.6458 54.4558 12.8626 54.551 12.8822 54.3477ZM11.2594 44.4069C11.2764 44.4096 11.4187 44.1991 11.4104 44.1842C11.2137 43.906 10.917 44.3441 11.2594 44.4069ZM20.3462 54.8067C20.4683 54.6163 20.6131 54.5942 20.7108 54.8341C20.589 54.8213 20.4671 54.8191 20.3462 54.8067Z" fill="black"/>
</svg>
