<svg width="57" height="60" viewBox="0 0 57 60" fill="none" xmlns="http://www.w3.org/2000/svg">
<path d="M10.5218 8.1573C10.7008 8.42129 10.8228 8.81923 10.8846 9.13594C10.9042 9.23509 10.787 9.23428 10.7962 9.30472C10.8143 9.44244 10.9132 9.53291 10.9235 9.67251C10.9264 9.71899 10.7513 9.74016 10.7578 9.78728C10.7949 10.045 10.9326 10.2416 11.006 10.4862C11.3672 11.6911 11.8223 12.8294 12.2804 14.0064C12.4316 14.3944 12.5047 14.9171 12.7449 15.2792C12.7731 15.3214 12.8944 15.2326 12.9095 15.2362C13.141 15.2942 12.8499 15.3735 12.8549 15.4788C12.8753 15.8961 13.0433 16.2933 13.2511 16.6083C13.2524 16.6102 13.2537 16.612 13.255 16.6137C13.3455 16.7346 13.538 16.4781 13.4568 16.689C13.4514 16.7037 13.2924 16.7326 13.2954 16.7791C13.3026 16.8845 13.4064 17.0428 13.4272 17.1175C13.4664 17.2617 13.4781 17.2832 13.5348 17.4106C13.6111 17.5853 13.6353 17.8238 13.7531 17.9947C13.7787 18.031 13.9002 17.9113 13.9542 17.9631C14.0081 18.015 14.0729 18.1881 14.0645 18.2604C14.0562 18.3327 13.9306 18.3614 13.9089 18.3835C13.7252 18.5678 14.1214 18.6201 14.1404 18.6415C14.4791 19.0362 14.4838 19.5064 14.6808 19.9327C14.8307 20.2561 15.048 20.5757 15.182 20.8874C15.3411 21.259 15.4055 21.6064 15.5833 21.9567C15.6019 21.9938 15.753 21.8707 15.776 21.9158C16.021 22.3949 16.2257 22.8884 16.3341 23.4278C16.3448 23.482 16.1654 23.4885 16.1671 23.5468C16.1809 23.902 16.1013 24.5107 16.8379 24.386C16.9055 24.5998 16.992 24.8573 16.9433 25.0988C16.9165 25.2321 16.7545 25.2237 16.7934 25.288C16.7999 25.2989 16.8122 25.3118 16.8318 25.3278C16.8623 25.3529 16.9865 25.2448 17.0213 25.2874C17.1678 25.4671 17.2237 25.7113 17.3908 25.8787C17.4251 25.9127 17.5486 25.8422 17.5771 25.8431C17.8097 25.8544 17.5745 26.1599 17.5683 26.2057C17.5247 26.553 17.6817 26.7197 17.7934 26.973C17.8193 27.0318 17.9603 26.8832 17.9913 26.937C18.1503 27.2168 18.2744 27.5253 18.3292 27.8457C18.3409 27.9172 18.1669 27.9267 18.165 27.9643C18.1584 28.1294 18.4499 28.0309 18.449 28.1868C18.4491 28.2195 18.3161 28.2623 18.3046 28.2736C18.1229 28.4508 18.4615 28.376 18.4775 28.3928C18.6859 28.601 18.4386 28.9094 18.5958 29.1309C18.615 29.1573 18.7442 29.0184 18.7883 29.097C19.0826 29.6199 19.3035 30.2146 19.4238 30.8111C19.4427 30.9037 19.2955 30.8992 19.2831 30.9112C19.092 31.1033 19.4266 31.0164 19.4508 31.0382C19.6336 31.2147 19.4671 31.535 19.9024 31.5115C20.1367 32.2895 20.585 32.9657 20.7977 33.7476C20.8501 33.9402 20.8882 34.1392 20.9053 34.3477C20.9067 34.3609 20.7451 34.4104 20.7487 34.4366C20.7903 34.7518 21.0024 34.5899 21.3758 34.6391C21.4697 34.6516 21.1849 34.9524 21.165 34.9766C21.0914 35.0652 20.8434 35.1227 20.8321 35.1462C20.7462 35.3373 21.4856 34.9719 21.5635 35.1404C21.5647 35.1462 21.4167 35.1876 21.4095 35.208C21.3867 35.2718 21.4616 35.2902 21.434 35.355C21.3695 35.5041 21.0219 35.7068 21.3029 35.7595C21.3391 35.7659 21.7505 35.5411 21.7998 35.7009C21.8191 35.7647 21.9487 36.0269 21.9555 36.1141C21.9622 36.2011 21.8019 36.2131 21.7984 36.2211C21.7097 36.5048 21.5997 36.4634 21.378 36.6873C21.1572 36.9106 21.7811 36.5894 21.871 36.5976C21.9608 36.6059 21.8791 36.8216 21.8438 36.8816C21.8085 36.9416 21.7008 36.9367 21.6862 36.9823C21.5922 37.2834 22.0452 36.93 22.1786 36.9535C22.494 37.0085 22.0811 37.3547 22.1045 37.5273C22.1109 37.5739 22.203 37.491 22.2299 37.5228C22.3348 37.6494 22.2275 37.8041 22.4382 37.9061C22.4726 37.9228 22.8176 37.9247 22.6489 38.1066C22.6245 38.1326 22.4909 38.1523 22.4929 38.226C22.4956 38.3361 22.5462 38.5135 22.6311 38.5941C22.6938 38.6536 22.8491 38.4807 22.8312 38.6003C22.8231 38.6534 22.6748 38.6301 22.6691 38.7257C22.6632 38.8208 22.758 39.0134 22.7961 39.0858C22.8342 39.158 22.9626 39.0497 22.9752 39.0511C23.0487 39.0612 23.1851 39.1706 23.1907 39.1832C23.5005 39.8083 23.5217 40.5066 23.8879 41.0854C23.9164 41.1309 24.0566 41.0272 24.0626 41.0334C24.2039 41.1692 23.7314 41.2285 23.6467 41.4079C23.9537 41.2461 23.9282 41.3407 24.0165 41.4415C24.0593 41.4899 24.167 41.4032 24.1819 41.4025C24.4054 41.4007 24.1931 41.5689 24.151 41.6064C23.9966 41.7445 24.2369 41.7066 24.1339 41.7996C24.0319 41.8922 23.8151 41.8873 23.869 41.9982C23.9961 41.9776 24.2522 41.7589 24.3391 41.8219C24.4741 41.9196 24.5612 42.0964 24.6235 42.2895C24.7126 42.5656 24.751 42.8748 24.8068 43.033C24.9014 43.3013 24.9605 43.3749 24.9888 43.5435C25.04 43.8482 25.2127 43.6484 25.3901 43.7704C25.5678 43.893 24.9926 44.0587 24.8882 44.1361C24.7837 44.2131 24.9146 44.1843 24.8647 44.2432C24.8148 44.3019 24.7069 44.2743 24.715 44.3546C24.7232 44.435 25.0161 44.5302 25.1482 44.4991C25.4281 44.4332 25.6573 44.2239 25.6476 44.4511C25.6469 44.4642 25.4898 44.4951 25.4941 44.5421C25.5334 44.9136 25.6805 45.2505 25.7321 45.6157C25.739 45.6661 25.5636 45.699 25.5658 45.7292C25.5885 46.043 25.8095 45.8252 26.1716 45.8361C25.7645 45.9838 25.5621 46.1753 25.6534 46.3794C25.7081 46.5022 25.8695 46.4023 26.0265 46.4256C26.0738 46.4325 25.9961 46.5731 26.0838 46.5516C26.3707 46.482 26.6277 46.2649 26.6069 46.5283C26.6055 46.54 26.448 46.5771 26.4539 46.6129C26.4914 46.8443 26.7779 46.742 26.9134 46.9484C27.0196 47.1101 26.9942 47.4965 27.0581 47.707C26.6156 47.9058 26.8026 48.0462 27.1413 47.9821C27.188 48.1162 27.2691 48.247 27.2843 48.3905C27.2897 48.4398 27.1492 48.4705 27.1379 48.4823C26.9597 48.6645 27.281 48.5841 27.3054 48.6065C27.5564 48.855 27.4452 49.203 27.7962 49.3889C27.8088 49.3954 28.1224 49.2709 27.9343 49.4505C27.9212 49.4625 27.7383 49.432 27.7897 49.5718C27.841 49.7117 27.7942 50.0416 28.0223 50.1635C28.0773 50.1931 28.3785 50.1932 28.2268 50.3747C28.2061 50.3991 28.1122 50.4261 28.0715 50.4663C27.9422 50.5952 28.2659 50.4839 28.0341 50.6722C27.8485 50.823 27.7266 51.0009 27.8232 51.1199C27.8473 51.1494 27.8848 51.1754 27.9383 51.1963C27.9463 51.1999 28.2121 51.1317 28.2356 51.1928C28.2728 51.2906 28.2838 51.4487 28.331 51.547C28.3537 51.594 28.492 51.4935 28.4985 51.5005C28.7307 51.7799 28.6995 52.0692 28.7979 52.4378C28.8157 52.5055 29.1061 52.5897 28.9978 52.7865C28.8795 53.0023 28.0691 53.21 28.388 53.4338C28.5161 53.5243 29.5363 53.2435 29.1471 53.6915C29.467 54.0653 29.3987 54.5788 29.7712 54.9298C29.7878 54.9456 30.0807 54.8849 30.0981 54.9322C30.1234 55.0026 30.0168 55.0967 30.031 55.1487C30.087 55.3683 30.2782 55.5048 30.3516 55.7076C30.3798 55.7845 30.24 55.8175 30.2735 55.9092C30.3072 56.0007 30.5028 55.982 30.4766 56.1392C30.4562 56.2582 30.1537 56.5072 30.1688 56.6456C30.5105 56.4938 30.5415 56.5794 30.6986 56.6846C30.7289 56.7047 30.8332 56.6201 30.8537 56.6268C30.9396 56.6529 30.8647 56.7482 30.9548 56.7691C30.9764 56.7743 31.0927 56.7215 31.117 56.7227C31.3278 56.731 31.1331 56.9946 31.099 57.0402C30.97 57.214 31.1412 57.1887 31.1066 57.2924C31.072 57.3959 30.9373 57.327 30.935 57.4304C30.9304 57.6447 31.0527 57.8609 31.1293 58.0411C31.1606 58.1127 31.2931 57.993 31.3011 58.0016C31.408 58.1301 31.3117 58.3543 31.6574 58.2935C30.9071 58.7625 31.7755 58.3463 31.7125 58.6295C31.7072 58.6519 31.3399 58.8467 31.2553 58.8088C31.1708 58.7709 31.2444 58.6204 31.1176 58.5722C31.0877 58.5607 30.6795 58.6042 30.6506 58.5978C30.4246 58.5473 30.9796 58.2697 31.0075 58.2487C31.3061 58.0183 30.8584 58.0479 30.8144 58.0216C30.613 57.9015 30.6234 57.7157 30.4697 57.6084C30.3699 57.538 29.9965 57.6986 29.9731 57.618C29.8948 57.3499 30.3693 57.0252 29.814 56.9945C29.6955 56.9877 29.3153 57.2239 29.5488 56.8962C29.5635 56.8756 29.7916 56.6071 29.5722 56.6137C29.5445 56.6146 29.4271 56.6691 29.4113 56.6607C29.3076 56.6037 29.3746 56.5029 29.2864 56.4294C29.1981 56.3558 29.0791 56.2734 29.0694 56.1475C29.0634 56.0717 29.2441 55.8876 29.2834 55.8319C29.3975 55.6731 29.101 55.6959 29.263 55.5554C29.4258 55.4141 29.7605 55.3895 29.8159 55.1901C29.508 55.3255 29.1889 55.4577 28.8779 55.5907C28.7437 55.2712 28.6999 54.9163 28.541 54.6069C28.521 54.5687 28.3753 54.6844 28.3496 54.6454C28.242 54.4805 28.2878 54.272 28.1566 54.11C28.0545 53.9848 27.8089 53.9092 27.6967 53.7809C28.0043 53.5291 27.7841 53.3634 27.7423 53.1886C27.7275 53.1274 27.8225 53.0882 27.8346 53.0343C27.8779 52.8319 27.6016 53.0447 27.534 53.0258C27.245 52.9445 27.937 52.6072 27.8236 52.4065C27.8178 52.3958 27.383 52.4323 27.3512 52.4244C27.1454 52.3759 27.4719 52.3451 27.4653 52.2584C27.4533 52.1001 27.4991 51.9652 27.3169 51.857C27.2633 51.8256 26.9799 51.8218 27.1182 51.6492C27.1363 51.6266 27.2624 51.5764 27.2653 51.5635C27.2836 51.4616 27.2156 51.4402 27.1191 51.4443C27.0002 51.4493 26.8381 51.4929 26.7408 51.4719C26.5645 51.434 26.7616 51.159 26.8243 51.0926C26.9862 50.92 26.938 51.1154 26.9596 51.1107C27.2159 51.055 27.1248 50.9627 27.1054 50.869C27.4792 50.6819 27.4019 50.574 27.0839 50.7726C27.0492 50.7944 27.1149 50.844 27.1054 50.869C26.6989 50.9662 26.5913 50.8581 26.873 50.5541C27.0051 50.4118 27.2244 50.3877 27.0608 50.2155C26.9866 50.1372 26.7419 50.2934 26.633 50.2444C26.3843 50.1324 26.5161 49.7772 26.3889 49.6022C26.3427 49.5386 26.2311 49.6727 26.1946 49.6315C26.0974 49.5226 26.1531 49.3612 26.0395 49.2592C26.029 49.25 25.8923 49.3472 25.8721 49.3084C25.7163 49.0161 25.6917 48.7104 25.5499 48.3956C25.4813 48.2435 25.2739 48.0106 25.2182 47.846C25.1207 47.5611 25.1842 47.1262 25.0242 46.9181C24.9205 46.7822 24.7861 46.8844 24.6542 46.8665C24.3987 46.8323 24.6507 46.4472 24.6917 46.3921C24.6931 46.3903 24.7885 46.5045 24.8333 46.3995C24.9748 46.2852 24.6931 46.3932 24.6917 46.3921C24.7181 46.3561 24.6321 46.0799 24.5796 46.0414C24.551 46.0205 24.4164 46.1016 24.4042 46.0894C24.1167 45.7995 23.9198 45.4671 23.8233 45.0832C23.8233 45.0757 23.9863 45.0119 23.9843 44.9951C23.9606 44.758 23.7062 44.7165 23.5132 44.6009C23.3202 44.4853 23.2972 44.3337 23.5236 44.1083C23.4306 43.9968 23.4669 43.7587 23.4916 43.62C23.5162 43.4812 23.2006 43.6089 23.1902 43.6025C22.9495 43.4571 22.939 43.2849 22.9071 43.0804C22.8954 43.006 22.881 42.9273 22.8515 42.8441C22.7996 42.6956 22.6248 42.4341 22.52 42.2956C22.4367 42.1865 22.4753 42.0798 22.3774 41.989C22.3642 41.9766 22.2337 42.0553 22.2263 42.0531C22.0041 42.0038 22.368 41.909 22.4162 41.8555C22.5914 41.6612 22.681 41.5497 22.5044 41.4368C22.4638 41.4107 21.9301 41.526 21.8708 41.4717C21.7945 41.4006 21.9832 41.3537 21.8989 41.2813C21.8919 41.2751 21.7856 41.326 21.7642 41.2672C21.6636 40.9949 21.5938 40.6797 21.4572 40.4115C21.439 40.3746 21.2912 40.5007 21.2621 40.4488C21.1254 40.2051 21.0039 39.925 20.9698 39.6419C20.962 39.572 21.0984 39.5552 21.1276 39.5258C21.304 39.3466 20.9408 39.3749 20.9262 39.3587C20.5691 38.9762 20.6909 38.5015 20.3452 38.1032C20.3259 38.0818 19.9044 38.0424 20.1501 37.825C20.1664 37.8104 20.4191 37.5908 20.1848 37.6076C20.1702 37.6086 20.0443 37.7309 20.017 37.6313C19.9897 37.5318 19.8208 37.4292 19.9273 37.226C19.9608 37.1618 20.2081 36.9324 19.9207 36.9193C19.9009 36.919 19.2906 36.9755 19.6222 36.7425C19.6769 36.7043 20.0653 36.5389 19.8028 36.4861C19.7521 36.4763 19.6895 36.5654 19.6029 36.5179C19.4697 36.4453 19.5049 36.2515 19.2716 36.1943C19.2304 36.1846 18.9239 36.2036 19.084 36.0317C19.1091 36.0048 19.2481 35.9699 19.2427 35.9206C19.2178 35.6858 19.0342 35.5125 19.0277 35.2654C19.0251 35.178 19.2491 35.1201 19.2695 35.0184C19.2898 34.9167 19.2724 34.7387 19.1411 34.7025C19.0098 34.6664 18.7203 34.9053 18.6389 34.7981C18.6285 34.7843 18.6183 34.7704 18.6084 34.7564C18.2824 34.2961 18.2353 33.7126 18.0309 33.1968C17.9997 33.1179 17.9111 33.236 17.8567 33.1238C17.6554 32.71 17.2125 32.0397 17.2961 31.5617C17.363 31.1788 17.6842 31.4739 17.6637 31.2143C17.6533 31.0892 17.2167 31.15 17.1927 31.1297C16.9537 30.9336 17.0426 30.6798 16.8858 30.4765C16.8533 30.4345 16.7192 30.5521 16.6933 30.5156C16.6035 30.3916 16.6068 30.2162 16.534 30.0916C16.501 30.0359 16.3873 30.1013 16.3717 30.0433C16.3329 29.905 16.3302 29.7681 16.3836 29.5913C16.3884 29.5752 16.5716 29.5844 16.5331 29.4866C16.4705 29.3284 16.492 29.0864 16.297 28.9612C16.2386 28.9242 15.9665 29.0471 16.1016 28.8476C16.1298 28.8059 16.4693 28.6861 16.1273 28.6839C16.0703 28.6833 15.5888 28.6367 15.7833 28.4153C15.8345 28.3569 16.0672 28.161 15.9961 28.117C15.9855 28.1115 15.8557 28.213 15.8173 28.167C15.6846 28.004 15.6108 27.8031 15.4777 27.6341C15.4418 27.5891 15.326 27.7341 15.2774 27.6649C15.1435 27.4745 15.0622 27.1973 15.0157 26.9722C14.9988 26.8891 15.1476 26.8834 15.1586 26.8717C15.3392 26.6822 15.017 26.7677 14.9862 26.7466C14.7987 26.6136 14.8752 26.4112 14.7613 26.2614C14.7302 26.2198 14.603 26.318 14.5861 26.3147C14.5812 26.3136 14.5767 26.3125 14.5725 26.3113C14.435 26.274 14.7065 26.2277 14.7069 26.1567C14.7089 25.9514 14.6109 25.7687 14.5141 25.6066C14.4784 25.5471 14.3459 25.6935 14.3158 25.6393C14.1341 25.3197 13.9905 24.9666 13.9318 24.6001C13.9211 24.5309 14.0658 24.5109 14.0889 24.4848C14.2513 24.3035 13.9153 24.3023 13.8753 24.2849C13.6928 24.2057 13.781 24.1017 13.7053 23.9924C13.3333 23.4597 13.0772 22.7082 12.8705 22.1388C12.6004 21.3971 12.4658 20.787 12.1205 20.1202C12.0987 20.0777 11.9499 20.1992 11.9289 20.1636C11.6662 19.7004 11.5135 19.1956 11.2422 18.7351C11.2203 18.6972 11.0865 18.8281 11.0458 18.7698C10.9614 18.6505 10.8939 18.4813 10.8843 18.3258C10.8793 18.2501 11.0564 18.2731 11.0486 18.1982C11.0306 18.0237 10.9675 17.8568 10.8705 17.7137C10.8703 17.7134 10.8701 17.7131 10.8698 17.7128C10.8276 17.6549 10.7107 17.8275 10.6695 17.7431C10.3844 17.167 10.0921 16.6069 10.0324 15.9194C10.0283 15.8722 10.3449 15.6834 10.2414 15.6268C10.1461 15.6629 10.0376 15.7134 9.93752 15.756C9.49287 14.931 9.22079 14.0369 8.84607 13.1768C8.83024 13.1405 8.68247 13.2839 8.65091 13.2141C8.46806 12.8104 8.2391 12.4421 8.2247 11.9496C8.22302 11.9008 8.54295 11.7788 8.44056 11.6801C8.42221 11.6628 8.29729 11.5006 8.20833 11.4847C8.19524 11.483 8.06566 11.5828 8.03452 11.5264C7.85608 11.197 7.7252 10.826 7.65752 10.4463C7.64687 10.3849 7.82794 10.372 7.82169 10.3277C7.77622 10.0136 7.52047 9.76702 7.53881 9.43842C7.55165 9.21821 7.84839 9.16081 8.06753 8.94597C8.09843 8.91562 8.05386 8.80346 8.20393 8.72745C8.58116 8.53601 9.02598 8.39532 9.42518 8.185C9.51121 8.13979 9.34873 8.03694 9.60172 8.02558C9.61877 8.02508 9.73844 8.09878 9.82276 8.09166C9.88111 8.08687 10.0213 7.98248 10.1023 7.9902C10.1834 7.99794 10.072 8.09877 10.1756 8.1258C10.28 8.15237 10.4442 8.04388 10.5218 8.1573ZM23.6002 42.9963C23.7037 42.8307 23.1537 43.0667 23.3322 43.112C23.3415 43.1139 23.5952 43.0047 23.6002 42.9963ZM29.1105 54.7292C29.2915 54.4916 28.8991 54.5669 28.7553 54.7419C28.6118 54.9168 29.0557 54.8014 29.1105 54.7292ZM29.8932 55.9676C30.0137 55.7319 29.2325 56.0635 29.4616 56.151C29.4747 56.1562 29.8863 55.9814 29.8932 55.9676ZM8.34297 9.34713C8.34956 9.34246 8.32034 9.26054 8.31232 9.26196C8.12047 9.29957 8.17903 9.46332 8.34297 9.34713ZM30.6869 57.1888C30.7697 57.0944 30.5878 57.0162 30.4848 57.1336C30.4019 57.228 30.5838 57.3063 30.6869 57.1888ZM21.8412 37.6535C21.8486 37.6483 21.8299 37.5885 21.7847 37.6107C21.639 37.6825 21.7168 37.7418 21.8412 37.6535ZM31.7208 59.4094C31.5984 59.0674 32.1429 58.5748 32.236 58.9659C32.2529 59.0367 31.9687 58.9197 31.9494 59.0286C31.9144 59.2277 32.3602 59.1439 32.217 59.3966C32.1907 59.4425 31.7264 59.4296 31.7197 59.4092C31.72 59.4093 31.7204 59.4094 31.7208 59.4094ZM24.2269 42.6396C24.2332 42.6344 24.204 42.5531 24.196 42.5545C24.0041 42.5917 24.0627 42.7554 24.2269 42.6396ZM20.6604 34.2072C20.6737 34.1958 20.6046 34.008 20.5877 34.0086C20.2621 34.044 20.4012 34.4241 20.6604 34.2072ZM27.0478 47.7155C27.2605 47.7208 27.3279 47.8133 27.1413 47.9816C27.1139 47.8916 27.0763 47.8056 27.0478 47.7155ZM0.816381 29.3766C1.22159 29.1159 1.79562 28.8945 2.26398 28.7501C2.40203 28.7088 2.38386 28.8358 2.48266 28.811C2.67323 28.7636 2.83845 28.625 3.02852 28.5871C3.09219 28.5748 3.09553 28.7599 3.16071 28.7435C3.51263 28.6547 3.84956 28.444 4.18396 28.3224C5.04543 28.002 5.87234 27.673 6.71839 27.3252C7.59209 26.9676 8.47889 26.593 9.38025 26.2201C9.95298 25.9831 10.7092 25.8041 11.2647 25.4784C11.3303 25.4398 11.2282 25.3243 11.2363 25.3073C11.3658 25.0442 11.4203 25.3463 11.572 25.3208C12.1399 25.2291 12.7168 24.9884 13.1982 24.7175C13.2137 24.7088 13.2291 24.7 13.2444 24.6911C13.4488 24.5727 13.114 24.4017 13.3976 24.455C13.4172 24.4584 13.4264 24.6257 13.4922 24.6146C13.6413 24.5891 13.8859 24.4495 13.9964 24.414C14.2094 24.3464 14.2425 24.33 14.4367 24.2459C14.699 24.1338 15.0355 24.0704 15.3026 23.9142C15.3593 23.8805 15.2154 23.7685 15.3 23.7015C15.3847 23.6345 15.6449 23.5353 15.7465 23.5321C15.848 23.5291 15.8618 23.6607 15.8887 23.6805C16.1138 23.8483 16.2646 23.4138 16.2999 23.3894C16.9251 22.9619 17.6027 22.8792 18.2415 22.6053C18.6981 22.4091 19.1672 22.15 19.6048 21.9646C19.6381 21.9505 19.6713 21.9368 19.7044 21.9235C20.2668 21.6984 20.7773 21.5791 21.3107 21.3416C21.3674 21.3166 21.228 21.1702 21.2972 21.1392C22.0383 20.8082 22.7788 20.527 23.5743 20.3425C23.654 20.3242 23.6196 20.5168 23.703 20.5077C24.2112 20.4487 25.0493 20.4656 25.0563 19.687C25.3783 19.5892 25.7642 19.4681 26.0942 19.4947C26.1097 19.4959 26.1235 19.4983 26.1358 19.5016C26.293 19.5439 26.2134 19.7362 26.3908 19.59C26.434 19.5546 26.312 19.4327 26.3813 19.3907C26.673 19.2144 27.0354 19.1285 27.3162 18.9324C27.3731 18.8922 27.3048 18.7668 27.3135 18.7361C27.3892 18.4854 27.7623 18.7077 27.8256 18.71C28.3073 18.7232 28.5853 18.5394 28.9757 18.3966C29.066 18.3637 28.8924 18.2259 28.977 18.1878C29.4164 17.9927 29.8889 17.8334 30.3599 17.749C30.4648 17.7307 30.4307 17.9161 30.4837 17.9151C30.7166 17.9091 30.6566 17.6051 30.878 17.5941C30.9245 17.5915 30.9487 17.7303 30.9616 17.7418C31.1633 17.9225 31.1505 17.5664 31.1787 17.5481C31.5329 17.3099 31.9024 17.5521 32.2612 17.3697C32.3041 17.3475 32.1431 17.2189 32.2673 17.1667C32.3949 17.1129 32.5248 17.0608 32.6562 17.0109C33.3766 16.7369 34.1412 16.5251 34.8921 16.3931C35.0297 16.3687 34.979 16.5255 34.9925 16.538C35.2082 16.7325 35.185 16.381 35.2236 16.3543C35.5307 16.1521 35.9326 16.3178 36.0352 15.8561C37.1533 15.5943 38.2073 15.1424 39.3156 14.9057C39.6808 14.8262 40.0482 14.776 40.4191 14.7684C40.4385 14.7676 40.4512 14.9376 40.4897 14.9353C40.9532 14.9132 40.796 14.6854 41.0113 14.3063C41.0704 14.2098 41.3988 14.5304 41.4248 14.554C41.5239 14.6387 41.5052 14.8979 41.5349 14.9121C41.7748 15.0225 41.5524 14.226 41.8356 14.1691C41.8447 14.1687 41.8406 14.3242 41.8673 14.3343C41.9501 14.3663 42.0094 14.2936 42.0911 14.3315C42.2787 14.4199 42.4107 14.8028 42.6079 14.5337C42.6352 14.4989 42.4958 14.0467 42.7589 14.0281C42.8652 14.0196 43.3214 13.9489 43.4511 13.9656C43.5811 13.9808 43.5128 14.1406 43.5228 14.146C43.8808 14.3063 43.7629 14.403 43.9562 14.6797C44.1444 14.957 44.0335 14.2635 44.0939 14.1795C44.152 14.0956 44.4133 14.2401 44.4793 14.2934C44.5442 14.3463 44.4747 14.447 44.5308 14.4756C44.8982 14.665 44.6672 14.1188 44.7802 14.001C45.0518 13.7236 45.2881 14.2371 45.5322 14.2853C45.5991 14.2985 45.5436 14.1805 45.6032 14.1691C45.837 14.1259 45.9932 14.2894 46.2718 14.1493C46.2948 14.138 46.3648 14.0569 46.4468 14.0079C46.5295 13.9583 46.6245 13.9417 46.6901 14.061C46.7083 14.0952 46.6436 14.221 46.7435 14.2562C46.8962 14.3089 47.1505 14.3575 47.3308 14.3326C47.4577 14.3135 47.3377 14.0862 47.4874 14.1689C47.5533 14.206 47.412 14.3159 47.5359 14.3753C47.6594 14.4338 47.981 14.4716 48.1017 14.4869C48.2225 14.5014 48.1823 14.3312 48.1936 14.3219C48.2631 14.2691 48.5083 14.2321 48.5304 14.2369C49.6175 14.4181 50.479 14.9631 51.4625 15.3122C51.5397 15.3403 51.5621 15.1625 51.5745 15.1652C51.8612 15.2214 51.4668 15.5365 51.5711 15.7558C51.6998 15.4333 51.7714 15.5366 51.9649 15.5952C52.0595 15.6242 52.0759 15.4812 52.0901 15.4731C52.3168 15.363 52.2787 15.6443 52.2734 15.7031C52.2569 15.9213 52.4621 15.7707 52.4491 15.9175C52.4342 16.0621 52.213 16.1555 52.3696 16.2481C52.4794 16.1702 52.5304 15.8205 52.6807 15.8518C52.8785 15.8924 53.1061 16.0261 53.3178 16.1981C53.7027 16.5062 54.0303 16.9536 54.2167 17.1675C54.5019 17.4939 54.6164 17.599 54.7446 17.8242C54.9655 18.2382 55.0499 17.9559 55.3139 18.1359C55.5755 18.3274 54.9966 18.5282 54.9141 18.6333C54.8286 18.7349 54.9616 18.7 54.928 18.7783C54.8936 18.8554 54.7667 18.8147 54.8021 18.922C54.8376 19.0256 55.1799 19.1772 55.3166 19.1558C55.6066 19.1056 55.805 18.8357 55.8561 19.1774C55.8584 19.1968 55.6922 19.2092 55.708 19.2797C55.835 19.8309 56.0026 20.3787 55.996 20.9303C55.9945 21.0053 55.8125 20.9715 55.8095 21.0147C55.7669 21.4588 56.0303 21.2596 56.3808 21.4815C55.9444 21.466 55.7015 21.6254 55.7077 21.9379C55.7088 22.1285 55.8962 22.0948 56.027 22.2277C56.0666 22.2687 55.9312 22.4057 56.0178 22.4361C56.2704 22.53 56.5648 22.4427 56.5124 22.6837C56.5059 22.7124 56.4939 22.7474 56.476 22.7846C56.4683 22.7996 56.3158 22.7333 56.3005 22.7864C56.1959 23.1253 56.4906 23.2122 56.444 23.6169C56.4068 23.9366 56.0732 24.4004 55.9114 24.715C55.4622 24.5349 55.4551 24.8455 55.7013 25.1058C55.5973 25.2999 55.5026 25.5267 55.3558 25.6935C55.3072 25.7478 55.2079 25.6379 55.1902 25.6383C54.9178 25.6364 55.1515 25.8784 55.1374 25.9264C54.9745 26.4305 54.5249 26.6301 54.413 27.1472C54.409 27.1656 54.65 27.404 54.375 27.348C54.3569 27.343 54.345 27.1205 54.1858 27.2889C54.0165 27.4692 53.6108 27.6414 53.4953 27.9717C53.469 28.0507 53.5143 28.387 53.2502 28.3389C53.215 28.3319 53.1667 28.245 53.1079 28.2259C52.922 28.1636 53.1049 28.4572 52.8316 28.3123C52.6349 28.2068 52.422 28.1655 52.2787 28.2795C52.2235 28.3234 52.1782 28.3905 52.1464 28.4869C52.1427 28.4973 52.2538 28.7542 52.1724 28.8123C52.0448 28.9033 51.8239 28.9987 51.6952 29.0935C51.6347 29.1383 51.7716 29.2462 51.7628 29.2563C51.3996 29.6308 50.9905 29.7216 50.4687 29.9595C50.3788 29.9995 50.2409 30.3446 49.9769 30.2839C49.6892 30.2158 49.4916 29.3892 49.1519 29.7922C49.0169 29.9515 49.2434 31.0084 48.6909 30.6729C48.1284 31.0898 47.3775 31.1061 46.8213 31.5216C46.7951 31.5406 46.8037 31.8488 46.731 31.8714C46.6233 31.9044 46.5184 31.7976 46.4398 31.8165C46.4022 31.8251 46.3655 31.8355 46.3296 31.8472C46.0503 31.9382 45.8045 32.1162 45.5445 32.1837C45.429 32.2141 45.4257 32.0673 45.2877 32.103C45.1498 32.1385 45.1131 32.3443 44.8985 32.3158C44.7358 32.2936 44.4862 31.9723 44.2842 31.9842C44.3797 32.3456 44.2464 32.3763 44.0329 32.5373C43.9917 32.5684 44.0756 32.6803 44.0579 32.7015C43.9837 32.7913 43.8788 32.7079 43.8184 32.7994C43.8036 32.8215 43.8354 32.9452 43.825 32.9702C43.7373 33.1881 43.4388 32.968 43.3882 32.9291C43.1933 32.7823 43.1635 32.9606 43.0301 32.9162C42.8973 32.8714 43.0474 32.7389 42.9025 32.7273C42.6026 32.7032 42.244 32.8062 41.9488 32.8634C41.8313 32.8871 41.9469 33.0366 41.9309 33.0438C41.6943 33.1387 41.439 33.0054 41.3734 33.3645C41.0423 32.535 41.2512 33.4761 40.8801 33.3675C40.8507 33.3585 40.7415 32.9567 40.831 32.8779C40.9203 32.7992 41.097 32.8974 41.2164 32.7769C41.2454 32.7486 41.3536 32.3301 41.3732 32.3019C41.5308 32.0816 41.6846 32.6827 41.7024 32.7139C41.9037 33.0476 42.0575 32.5854 42.1119 32.5435C42.3678 32.3509 42.6245 32.3805 42.8331 32.2327C42.9692 32.1366 42.886 31.7385 43.0043 31.7218C43.4001 31.6641 43.6581 32.1822 43.9145 31.602C43.9665 31.4784 43.7677 31.0737 44.1456 31.3291C44.1688 31.3454 44.4688 31.591 44.5305 31.3613C44.5381 31.3324 44.5005 31.2086 44.5169 31.1923C44.6278 31.0854 44.7449 31.1574 44.8709 31.0661C44.9967 30.9749 45.1399 30.8515 45.3091 30.8415C45.4065 30.837 45.6165 31.0204 45.6834 31.0598C45.8489 31.158 45.9109 30.9384 46.0209 30.981C46.0387 30.9878 46.0579 31.0014 46.079 31.0242C46.2331 31.1887 46.1735 31.5444 46.4417 31.5897C46.335 31.2707 46.2354 30.9396 46.132 30.6174C46.6135 30.4533 47.0592 30.3942 47.54 30.1706C47.5965 30.1437 47.466 30.0033 47.5242 29.9704C47.7685 29.8322 48.0408 29.8495 48.2712 29.6823C48.4461 29.5536 48.5742 29.2761 48.7604 29.1244C49.0653 29.4001 49.309 29.1206 49.5342 29.0313C49.6137 28.9997 49.6601 29.0914 49.7293 29.0901C49.9882 29.0819 49.723 28.8431 49.7484 28.7659C49.8563 28.4342 50.2883 29.0731 50.5578 28.8777C50.5738 28.8669 50.5231 28.4091 50.5303 28.373C50.5846 28.1353 50.6349 28.4749 50.7447 28.4368C50.9467 28.365 51.1102 28.3699 51.242 28.1228C51.2807 28.0499 51.2609 27.7442 51.4892 27.8157C51.5194 27.8249 51.5956 27.9375 51.612 27.9346C51.7971 27.8954 51.7562 27.744 51.7066 27.5883C51.6783 27.4995 51.6473 27.4089 51.6529 27.3357C51.6676 27.1353 52.0204 27.2155 52.1181 27.2408C52.3583 27.319 52.1097 27.375 52.1184 27.3953C52.2271 27.6411 52.3307 27.4912 52.4426 27.4169C52.7403 27.7112 52.8629 27.5612 52.5571 27.3383C52.5238 27.314 52.4754 27.4127 52.4426 27.4169C52.2516 27.0354 52.3486 26.8719 52.7715 26.9885C52.9695 27.042 53.0557 27.2571 53.2134 26.9787C53.2819 26.8536 53.0362 26.696 53.0611 26.5512C53.1171 26.2217 53.5482 26.1159 53.6789 25.8636C53.7285 25.7691 53.5407 25.76 53.5696 25.6927C53.6439 25.5154 53.833 25.445 53.8785 25.2575C53.8822 25.2407 53.7215 25.1872 53.7487 25.1392C53.9427 24.7867 54.2153 24.4872 54.3724 24.0984C54.456 23.8974 54.4813 23.5203 54.5446 23.3277C54.6296 23.0784 54.8063 22.8034 54.8801 22.5386C54.9103 22.4306 54.9239 22.3269 54.9099 22.2351C54.8771 22.0275 54.7099 22.0734 54.5973 21.9913C54.38 21.8458 54.7434 21.5383 54.7961 21.484C54.7986 21.4818 54.8549 21.6533 54.9297 21.5511C55.0993 21.4764 54.7969 21.4852 54.7961 21.484C54.8352 21.4539 54.8179 21.0994 54.7688 21.0376C54.7442 21.004 54.5958 21.0573 54.5859 21.0398C54.3522 20.6252 54.1689 20.2417 54.0193 19.7992C54.0183 19.7905 54.1786 19.7199 54.1741 19.7003C54.1119 19.4203 53.8308 19.3763 53.6022 19.2689C53.3739 19.1641 53.3067 19.0133 53.4472 18.7143C53.3061 18.604 53.2348 18.3338 53.1841 18.1717C53.1331 18.0087 52.8831 18.2422 52.8699 18.2387C52.5028 18.1432 52.4204 17.9405 52.2071 17.7096C52.1649 17.6645 52.1179 17.619 52.063 17.5747C51.9044 17.4431 51.5502 17.2802 51.3368 17.2069C51.1711 17.1496 51.1121 17.0294 50.9506 17.0063C50.9286 17.0031 50.881 17.1484 50.8727 17.1508C50.6395 17.2391 50.8733 16.9413 50.8689 16.8658C50.8506 16.5918 50.8213 16.4362 50.5548 16.447C50.4927 16.4488 50.1417 16.8822 50.0507 16.8815C49.9238 16.8762 50.033 16.7128 49.8957 16.7125C49.8839 16.7124 49.8468 16.824 49.7738 16.7931C49.432 16.6503 49.0499 16.4703 48.667 16.3958C48.6142 16.3851 48.64 16.5825 48.5639 16.5703C48.1978 16.5116 47.8223 16.4407 47.4767 16.3089C47.3916 16.2759 47.4627 16.1529 47.4483 16.1119C47.3561 15.8633 47.1454 16.185 47.118 16.1891C46.8335 16.2299 46.6005 16.2008 46.3531 16.1612C46.009 16.1062 45.6544 16.0327 45.2659 16.1295C45.2271 16.1387 44.9602 16.515 44.8146 16.2094C44.8056 16.1889 44.655 15.8755 44.5542 16.1031C44.5483 16.1173 44.6401 16.2765 44.4989 16.2699C44.3579 16.2635 44.1616 16.3915 43.9564 16.2306C43.8931 16.1797 43.7113 15.8769 43.5657 16.1531C43.5532 16.1722 43.3707 16.7795 43.2092 16.401C43.184 16.3387 43.126 15.9198 42.9508 16.1665C42.9187 16.2141 43.007 16.2951 42.9139 16.3698C42.7728 16.4845 42.5365 16.4114 42.3757 16.6341C42.3472 16.6735 42.2642 16.9816 42.0943 16.7952C42.0675 16.7661 42.0712 16.6213 42.0031 16.6196C41.6709 16.6128 41.3848 16.7773 41.0509 16.763C40.932 16.7586 40.9266 16.5245 40.7941 16.4965C40.6617 16.4684 40.408 16.4781 40.3137 16.6141C40.2199 16.75 40.4594 17.0578 40.2835 17.1401C40.204 17.1775 40.1232 17.2119 40.0411 17.2441C39.3384 17.5197 38.5635 17.5845 37.8393 17.7922C37.7192 17.8266 37.8575 17.9179 37.6835 17.9776C37.0395 18.1983 35.9742 18.6868 35.3273 18.6191C34.8079 18.5648 35.3163 18.2109 34.9446 18.2444C34.7646 18.2613 34.7253 18.7219 34.6901 18.7482C34.3466 19.0111 34.0147 18.93 33.6842 19.1082C33.6161 19.1451 33.7441 19.2811 33.6855 19.3107C33.6274 19.3405 33.5654 19.3622 33.5019 19.3801C33.3471 19.4238 33.183 19.4449 33.0447 19.5052C32.9572 19.5437 33.018 19.6607 32.9321 19.6809C32.7271 19.7308 32.534 19.7424 32.2997 19.6974C32.2783 19.6933 32.3411 19.4975 32.1929 19.5451C31.9532 19.6224 31.6179 19.6166 31.3892 19.834C31.3214 19.899 31.4218 20.1801 31.177 20.0509C31.1257 20.024 31.0474 19.6707 30.9532 20.036C30.9369 20.0969 30.7444 20.6144 30.4843 20.4244C30.4156 20.3744 30.2007 20.1417 30.1201 20.2213C30.1096 20.2331 30.2186 20.3634 30.144 20.4082C29.8805 20.5632 29.5779 20.6594 29.3056 20.8169C29.2331 20.8592 29.4075 20.9703 29.2975 21.0285C28.9953 21.1885 28.5853 21.3007 28.258 21.3717C28.1372 21.3975 28.1662 21.2389 28.1525 21.2281C27.9312 21.0529 27.9702 21.39 27.9329 21.4251C27.6982 21.6392 27.4324 21.5774 27.1936 21.7147C27.1276 21.7523 27.2344 21.8786 27.2255 21.8971C27.1311 22.0807 27.1358 21.7767 27.0331 21.7837C27.0328 21.7837 27.0325 21.7838 27.0321 21.7838C26.7438 21.8031 26.4668 21.9259 26.2128 22.0482C26.1202 22.0931 26.2944 22.2193 26.2106 22.2576C25.7151 22.488 25.1884 22.6804 24.6586 22.7866C24.5584 22.8064 24.5645 22.6532 24.5331 22.6314C24.3155 22.4784 24.2345 22.8401 24.2007 22.8852C24.0465 23.091 23.9209 23.0086 23.7501 23.1033C22.915 23.568 21.8057 23.9396 20.9551 24.2429C20.8397 24.2841 20.7269 24.3234 20.6163 24.3614C19.671 24.686 18.8619 24.9195 17.9572 25.3445C17.8926 25.3746 18.0324 25.5168 17.9778 25.5449C17.2767 25.8974 16.5285 26.1453 15.8331 26.5111C15.776 26.5408 15.9318 26.6647 15.8428 26.7177C15.6658 26.8252 15.4044 26.9305 15.1853 26.9663C15.0776 26.9845 15.1458 26.7886 15.0387 26.8097C14.7892 26.8586 14.5434 26.9545 14.3266 27.0824C14.2396 27.1342 14.4313 27.2255 14.3471 27.2846C14.3422 27.288 14.3363 27.2914 14.3294 27.2946C13.4568 27.7048 12.6213 28.1172 11.6502 28.3048C11.583 28.3179 11.3839 28.0059 11.2798 28.131C11.3124 28.2279 11.3628 28.3365 11.4038 28.4372C10.2848 29.0088 9.10707 29.4474 7.9582 29.9522C7.83381 30.007 7.7111 30.0619 7.59019 30.1171C7.5364 30.1417 7.71178 30.2735 7.60824 30.3219C7.03371 30.5909 6.45284 30.9276 5.76892 31.0425C5.69997 31.0548 5.58189 30.7324 5.42711 30.8644C5.39896 30.8884 5.15781 31.0554 5.12575 31.1533C5.12024 31.1684 5.2415 31.2869 5.15327 31.3347C4.65213 31.6041 4.11403 31.826 3.5812 31.9793C3.49023 32.0062 3.50451 31.8099 3.43927 31.8277C3.00222 31.9421 2.6173 32.2768 2.15766 32.3343C1.85478 32.3698 1.80648 32.0658 1.54933 31.8716C1.53388 31.8337 1.33098 31.9288 1.26269 31.775C1.05175 31.408 0.915623 30.9581 0.682283 30.5712C0.637653 30.4849 0.479795 30.6823 0.484763 30.4167C0.507514 30.3875 0.596222 30.2555 0.624276 30.1523C0.622196 30.0918 0.504056 29.9598 0.519376 29.8733C0.536396 29.786 0.657084 29.8857 0.723918 29.7596C0.788737 29.6335 0.645345 29.4877 0.816381 29.3766ZM52.9088 17.4412C52.897 17.2217 52.5113 17.6794 52.7171 17.6613C52.7275 17.6599 52.9095 17.4521 52.9088 17.4412ZM47.2477 30.7991C47.5341 30.9671 47.5235 30.5498 47.3067 30.42C47.0891 30.2903 47.1649 30.7464 47.2477 30.7991ZM45.3217 31.7038C45.6108 31.8286 45.378 31.0121 45.1969 31.2515C45.1863 31.2652 45.3049 31.6965 45.3217 31.7038ZM2.15775 31.4754C2.16218 31.4643 2.02424 31.5244 2.02756 31.5315C2.04523 31.7349 2.3038 31.6234 2.15775 31.4754ZM43.3343 32.4924C43.4353 32.5853 43.6082 32.4034 43.4833 32.2885C43.3838 32.196 43.2098 32.3768 43.3343 32.4924ZM45.5417 14.5773C45.5392 14.5683 45.4483 14.5614 45.4509 14.6118C45.4596 14.7739 45.5836 14.7267 45.5417 14.5773ZM39.7683 33.2386C40.3146 33.1807 40.7648 33.8107 40.1584 33.8363C40.0486 33.8405 40.3526 33.5764 40.2051 33.5375C39.9373 33.4666 39.8403 33.9284 39.542 33.7368C39.4892 33.7016 39.7379 33.2405 39.7691 33.2375C39.7688 33.2379 39.7686 33.2383 39.7683 33.2386ZM53.2927 16.8276C53.2954 16.8194 53.1997 16.7345 53.1923 16.739C53.0231 16.8475 53.211 17.0144 53.2927 16.8276ZM40.1296 15.0164C40.1183 15.0015 39.8222 15.0696 39.8169 15.0879C39.7556 15.4282 40.3496 15.2925 40.1296 15.0164ZM55.8974 24.7153C56.0221 24.9203 55.969 25.0995 55.7018 25.1053C55.7743 24.9781 55.8331 24.8456 55.8974 24.7153ZM27.0467 0.303406C27.2011 0.318082 27.361 0.45542 27.4432 0.579351C27.4731 0.619893 27.4071 0.705858 27.4261 0.738353C27.4612 0.8008 27.5474 0.784429 27.5708 0.850177C27.5804 0.873406 27.4867 1.0147 27.4984 1.0356C27.5617 1.14833 27.6848 1.16029 27.7709 1.24173C28.0645 1.51825 28.3776 1.74809 28.689 1.96576C28.8446 2.07214 28.9787 2.16531 29.1315 2.26999C29.2949 2.38116 29.4142 2.61354 29.6212 2.6455C29.6451 2.64893 29.7007 2.51175 29.7102 2.50295C29.8564 2.3692 29.6995 2.62304 29.721 2.67873C29.8012 2.89612 29.9647 2.99683 30.1418 3.02577C30.2172 3.03765 30.2897 2.7449 30.2773 2.92417C30.2765 2.93627 30.1877 3.06643 30.1969 3.09015C30.2179 3.14364 30.3043 3.15774 30.3287 3.18469C30.3752 3.23729 30.3855 3.24101 30.4398 3.27194C30.5108 3.31389 30.5631 3.42388 30.655 3.44322C30.6585 3.44395 30.6621 3.44455 30.6657 3.44502C30.6868 3.44728 30.74 3.29368 30.7803 3.28432C30.8204 3.27492 30.8863 3.32587 30.8928 3.37237C30.8992 3.41886 30.8289 3.52421 30.8194 3.55197C30.7388 3.7857 30.9835 3.53394 30.9984 3.53258C31.2651 3.51535 31.3414 3.77683 31.5254 3.87817C31.6656 3.95494 31.8478 3.98402 31.9753 4.06603C32.128 4.16483 32.2191 4.31684 32.3796 4.39196C32.3965 4.40005 32.4717 4.22564 32.4925 4.23522C32.6257 4.2967 32.7508 4.37195 32.8603 4.47304C32.9324 4.5396 32.998 4.61751 33.0549 4.71012C33.0691 4.73363 32.9576 4.86007 32.9667 4.89204C33.0251 5.08496 33.0529 5.48363 33.5024 4.91306C33.5742 4.98963 33.6638 5.07879 33.6637 5.24968C33.6637 5.35969 33.521 5.48357 33.6217 5.45539C33.6443 5.44924 33.71 5.304 33.7377 5.30497C33.8545 5.30947 33.9193 5.41065 34.049 5.39604C34.0755 5.39271 34.1464 5.27005 34.165 5.25164C34.3174 5.10368 34.2035 5.43586 34.2048 5.46617C34.2189 5.69469 34.34 5.68627 34.4417 5.75806C34.4652 5.77478 34.5407 5.5969 34.5672 5.60732C34.6932 5.66011 34.803 5.74648 34.875 5.8743C34.8821 5.88695 34.8889 5.9 34.8953 5.91347C34.9108 5.94713 34.796 6.06511 34.7987 6.08803C34.8113 6.18723 34.9954 5.94235 35.0108 6.0329C35.0142 6.05163 34.9297 6.16188 34.9231 6.17583C34.8195 6.3947 35.0396 6.13481 35.0522 6.13439C35.2159 6.12307 35.0799 6.45952 35.2066 6.48772C35.2221 6.49088 35.2968 6.32876 35.3342 6.3465C35.5825 6.46299 35.7954 6.67945 35.922 6.95494C35.9428 6.99835 35.8378 7.08375 35.83 7.09829C35.7087 7.32552 35.9395 7.07412 35.9586 7.07278C36.1027 7.06846 36.0015 7.35302 36.3132 7.08421C36.4339 7.26232 36.602 7.39239 36.7515 7.52843C36.9534 7.71222 37.129 7.90845 37.1637 8.24699C37.1645 8.25417 37.0336 8.35924 37.0357 8.37292C37.0573 8.53803 37.2312 8.34188 37.5436 8.21733C37.6236 8.18788 37.3765 8.49337 37.3573 8.51478C37.2912 8.59842 37.0812 8.73493 37.0704 8.75368C36.9839 8.89901 37.6267 8.38188 37.6859 8.45979C37.6865 8.4629 37.5577 8.54401 37.5503 8.55925C37.5264 8.60647 37.5889 8.58968 37.56 8.63897C37.4966 8.75823 37.1759 8.99796 37.413 8.93404C37.444 8.9266 37.8265 8.6554 37.8576 8.7465C37.8706 8.78316 37.9546 8.91298 37.956 8.98619C37.9528 9.0476 37.8004 9.07951 37.7965 9.0863C37.6713 9.28653 37.5738 9.27557 37.3199 9.43002C37.0593 9.56837 37.7159 9.32285 37.7999 9.32328C37.8843 9.32406 37.7568 9.46297 37.7057 9.49537C37.6556 9.52836 37.5544 9.52308 37.5275 9.54688C37.3456 9.68605 37.8855 9.5418 38.0065 9.57365C38.2938 9.68056 37.7761 9.79897 37.7236 9.86829C37.709 9.8908 37.8282 9.88181 37.8382 9.90536C37.8636 9.97239 37.7867 10.0051 37.7834 10.0567C37.7817 10.0789 37.793 10.1053 37.829 10.1436C37.8503 10.1592 38.1282 10.3304 37.8866 10.3191C37.8523 10.3157 37.7363 10.2563 37.6952 10.281C37.6339 10.3185 37.5656 10.3897 37.571 10.4611C37.5741 10.5157 37.791 10.5741 37.6977 10.5956C37.6567 10.6031 37.5773 10.4979 37.5113 10.5137C37.4463 10.5294 37.3818 10.6148 37.3536 10.6491C37.3271 10.6828 37.4601 10.7782 37.4659 10.7879C37.496 10.8478 37.4759 10.9736 37.4688 10.9787C37.1493 11.2758 36.7403 11.1557 36.4713 11.3521C36.4501 11.367 36.523 11.5223 36.5204 11.5262C36.4599 11.6231 36.3759 11.1717 36.2731 11.0463C36.3736 11.3225 36.3508 11.3298 36.3131 11.359C36.3064 11.3643 36.2992 11.3702 36.292 11.3785C36.2693 11.4051 36.3245 11.5284 36.3261 11.5423C36.3421 11.7507 36.2343 11.508 36.2122 11.4584C36.1282 11.2766 36.1635 11.5099 36.1094 11.3875C36.0568 11.2657 36.0445 11.067 35.9941 11.0834C36.0114 11.2072 36.1371 11.509 36.1087 11.5711C35.9919 11.8103 35.6267 11.6271 35.4958 11.6217C35.3586 11.6188 35.3257 11.6466 35.2433 11.6138C35.0969 11.5531 35.1804 11.784 35.1082 11.9049C35.0342 12.0254 35.0027 11.4328 34.9743 11.3082C34.9466 11.1836 34.9503 11.315 34.9278 11.2473C34.9056 11.1796 34.9248 11.0902 34.8894 11.068C34.8547 11.046 34.7907 11.2808 34.7923 11.4144C34.7969 11.6972 34.8716 11.9869 34.7673 11.8933C34.7613 11.8877 34.7627 11.7311 34.7408 11.7175C34.6655 11.6725 34.5885 11.6486 34.517 11.6275C34.424 11.6006 34.3309 11.579 34.2377 11.5255C34.215 11.5122 34.2231 11.3382 34.2098 11.3284C34.072 11.2262 34.1371 11.5145 34.0828 11.8424C34.0748 11.4106 34.0212 11.1495 33.9245 11.1516C33.866 11.1527 33.8847 11.3404 33.8518 11.4748C33.8418 11.5153 33.7942 11.3878 33.79 11.4766C33.7757 11.767 33.8291 12.0897 33.7183 11.9644C33.7135 11.9585 33.7227 11.7995 33.7064 11.7904C33.6028 11.7309 33.6002 12.0342 33.4891 12.0736C33.4023 12.1045 33.2424 11.9221 33.1452 11.8926C33.1434 11.4076 33.0539 11.5192 33.0166 11.8536C32.9529 11.8401 32.8838 11.8588 32.8224 11.8122C32.8013 11.7963 32.8162 11.6559 32.8136 11.6407C32.7817 11.4458 32.756 11.6279 32.7399 11.7075C32.7363 11.7252 32.7333 11.7378 32.7307 11.7401C32.5803 11.8626 32.4644 11.6138 32.3173 11.8513C32.3122 11.8598 32.2952 12.1965 32.2634 11.9495C32.2615 11.9325 32.3124 11.7805 32.246 11.7668C32.1792 11.7532 32.0603 11.5687 31.9629 11.7213C31.9394 11.758 31.8719 12.0292 31.8351 11.8137C31.8302 11.7845 31.8408 11.6882 31.8343 11.6341C31.8133 11.4617 31.7834 11.8014 31.7628 11.5109C31.7421 11.2203 31.685 11.0009 31.5841 11.1958C31.5809 11.2015 31.5458 11.47 31.517 11.4643C31.4709 11.4548 31.4097 11.3953 31.3603 11.3943C31.337 11.3939 31.3425 11.5621 31.3383 11.5649C31.2006 11.6368 31.1059 11.5358 30.9833 11.4573C30.9615 11.4431 30.9374 11.4295 30.9123 11.4179C30.8825 11.4036 30.7777 11.6255 30.7315 11.4409C30.6814 11.2389 30.807 10.4231 30.6477 10.6077C30.5863 10.6817 30.4234 11.7162 30.3594 11.1682C30.1435 11.2849 29.9675 10.9912 29.7467 11.1622C29.7375 11.1698 29.6784 11.4568 29.656 11.4506C29.6228 11.4409 29.6179 11.3036 29.595 11.2923C29.4992 11.2415 29.4005 11.3484 29.3074 11.3204C29.271 11.3099 29.2988 11.1712 29.2559 11.1587C29.2522 11.1577 29.2485 11.158 29.2448 11.1595C29.2049 11.1755 29.1601 11.3194 29.1163 11.2322C29.0798 11.1595 29.0808 10.7782 29.0282 10.7278C28.9839 11.099 28.9428 11.0867 28.8597 11.1764C28.8437 11.1938 28.8435 11.3248 28.8352 11.3397C28.8008 11.4032 28.789 11.2933 28.7558 11.3629C28.7478 11.3796 28.7325 11.5063 28.7251 11.5271C28.6601 11.7088 28.6301 11.416 28.6204 11.3644C28.5953 11.1701 28.5535 11.3323 28.5269 11.2537C28.5009 11.1751 28.5648 11.0888 28.5294 11.0387C28.459 10.9355 28.3471 10.9421 28.2602 10.9248C28.2266 10.9189 28.2276 11.0909 28.2223 11.094C28.1494 11.1281 28.1001 10.9386 28.013 11.2694C28.0812 10.3928 27.9581 11.3479 27.8842 11.1603C27.8771 11.145 27.9239 10.7324 27.9649 10.6766C28.0006 10.62 28.0266 10.7546 28.0822 10.6663C28.0951 10.6455 28.2063 10.268 28.218 10.2458C28.3032 10.0714 28.2277 10.687 28.2272 10.7213C28.2142 11.0905 28.3392 10.6841 28.3619 10.6578C28.4727 10.5383 28.5196 10.6321 28.6048 10.5472C28.6587 10.4921 28.7126 10.0894 28.7479 10.1062C28.8637 10.1616 28.8338 10.7288 29.006 10.254C29.0429 10.1527 29.0681 9.70865 29.1178 10.0657C29.1205 10.0882 29.1467 10.4126 29.2058 10.2159C29.2132 10.191 29.2272 10.0624 29.2345 10.0522C29.2826 9.9868 29.2986 10.0923 29.349 10.0481C29.3545 10.0432 29.3602 10.0381 29.366 10.0328C29.4122 9.99036 29.4695 9.9421 29.5081 9.98542C29.535 10.0146 29.5491 10.2585 29.5577 10.3187C29.5817 10.4921 29.6546 10.2193 29.6601 10.4268C29.666 10.6354 29.5825 10.9429 29.6395 11.083C29.6753 10.7486 29.7152 10.4058 29.7526 10.0697C29.9029 10.0964 30.0331 10.2178 30.1888 10.2167C30.2079 10.2162 30.2044 10.0344 30.2253 10.0292C30.3097 10.0078 30.371 10.1423 30.4623 10.0983C30.5325 10.0635 30.6239 9.8788 30.6955 9.83591C30.7082 10.2228 30.8217 10.1003 30.895 10.1407C30.9207 10.1547 30.9117 10.2571 30.9284 10.2918C30.9918 10.4205 30.9813 10.0789 31.0046 10.0269C31.0434 9.94035 31.0603 10.0042 31.072 10.1135C31.0906 10.2848 31.0984 10.5681 31.1596 10.5604C31.1651 10.56 31.2543 10.1545 31.2644 10.1295C31.33 9.96655 31.265 10.2726 31.2982 10.3049C31.3588 10.364 31.3987 10.4644 31.4804 10.3485C31.5042 10.3141 31.5692 10.0615 31.6012 10.2612C31.6055 10.2873 31.5956 10.4226 31.5997 10.4307C31.6746 10.567 31.6974 10.1415 31.75 9.99949C31.8023 9.85751 31.8604 10.1544 31.8717 10.2397C31.9009 10.4604 31.8384 10.3321 31.8354 10.3535C31.7999 10.6083 31.8546 10.5665 31.8941 10.5898C31.8829 11.0075 31.9408 10.9847 31.9348 10.6122C31.9341 10.5715 31.9014 10.6092 31.8941 10.5898C31.9462 10.1817 32.0075 10.1316 32.0618 10.5168C32.0874 10.6973 32.0499 10.9055 32.1502 10.8322C32.1957 10.799 32.1875 10.511 32.2285 10.4338C32.3216 10.2575 32.4286 10.5286 32.5208 10.488C32.554 10.4732 32.5248 10.3152 32.5475 10.2997C32.6074 10.258 32.658 10.3769 32.7182 10.3171C32.7237 10.3115 32.7124 10.1465 32.7308 10.1446C32.7389 10.1436 32.7469 10.143 32.7549 10.1427C32.8841 10.1389 32.9995 10.2329 33.1357 10.2347C33.205 10.2356 33.3299 10.143 33.4015 10.1597C33.5259 10.188 33.6863 10.4227 33.7924 10.3599C33.8604 10.3196 33.8376 10.1556 33.8615 10.042C33.9065 9.82203 34.0246 10.2061 34.0423 10.2655C34.043 10.2675 33.9866 10.3096 34.0226 10.3923C34.051 10.5673 34.0418 10.2663 34.0423 10.2655C34.0533 10.304 34.1752 10.3339 34.1962 10.3007C34.2078 10.2826 34.1898 10.1273 34.1959 10.1208C34.2565 10.0584 34.3166 10.0128 34.3772 9.98493C34.4625 9.94576 34.5533 9.94121 34.6453 9.97406C34.6483 9.9769 34.6633 10.151 34.6702 10.1555C34.768 10.2228 34.7972 10.0039 34.8524 9.86861C34.9063 9.73347 34.9633 9.76795 35.0501 10.0581C35.0962 10.0129 35.1914 10.1314 35.2513 10.2024C35.3103 10.2736 35.2541 9.93797 35.2565 9.93073C35.33 9.6977 35.4239 9.87701 35.5477 9.87865C35.6061 9.88018 35.6889 9.80694 35.731 9.75515C35.7504 9.73061 35.7746 9.74547 35.7956 9.74826C35.8096 9.75015 35.8221 9.74666 35.8293 9.72269C35.8317 9.7147 35.7787 9.57276 35.7783 9.56676C35.7543 9.38352 35.8584 9.73911 35.8878 9.7989C35.9951 10.016 36.0618 10.1284 36.0743 10.002C36.0792 9.97229 35.907 9.46684 35.9057 9.4333C35.9077 9.38927 35.9786 9.56684 35.9789 9.51589C35.9789 9.51173 35.9296 9.40472 35.9417 9.40476C35.9996 9.40266 36.0713 9.43922 36.0797 9.41855C36.0804 9.41661 35.9703 9.26552 35.9677 9.26155C35.9697 9.23115 35.8984 9.29324 35.9035 9.44267C35.9075 9.4768 36.0243 9.53792 36.0534 9.56443C36.2378 9.71326 35.9327 9.56342 35.9204 9.57323C35.7869 9.62487 35.871 9.7056 35.919 9.6838C35.944 9.69448 35.937 9.71085 35.8696 9.76171C35.8579 9.75408 35.4871 9.86486 35.8052 9.86194C35.8271 9.86624 36.1451 9.82764 35.9324 9.8917C35.9196 9.8973 35.754 9.91557 35.777 9.94448C35.7978 9.9664 35.7094 10.0522 35.8837 9.99843C35.9402 9.98534 36.228 9.8446 35.9947 9.95039C35.9762 9.95397 35.4702 10.2329 35.8069 10.0193C35.8621 9.98393 36.2233 9.76514 36.0215 9.85102C35.9829 9.86859 35.9097 9.92874 35.8521 9.94796C35.7653 9.98056 35.834 9.88176 35.6643 9.9688C35.6334 9.98304 35.3935 10.1404 35.5523 9.99086C35.5769 9.96711 35.6917 9.88519 35.6966 9.86596C35.72 9.77357 35.5989 9.7768 35.6285 9.66438C35.6372 9.62303 35.8145 9.47941 35.8404 9.41739C35.8665 9.35556 35.8669 9.27046 35.7695 9.31962C35.6728 9.36948 35.436 9.64649 35.3842 9.635C35.2379 9.60529 35.1941 9.47427 35.1289 9.33139C35.0987 9.26113 35.0672 9.19158 35.0182 9.13568C34.9968 9.11127 34.9327 9.22724 34.8952 9.19859C34.7506 9.08741 34.4474 9.0016 34.4809 8.68077C34.5139 8.42815 34.7436 8.3914 34.7197 8.26028C34.7069 8.19676 34.4119 8.50301 34.395 8.507C34.2247 8.54826 34.2715 8.35079 34.1526 8.33553C34.1281 8.3325 34.0451 8.48356 34.0255 8.47953C33.9591 8.46823 33.952 8.3694 33.896 8.34686C33.8707 8.33712 33.7993 8.44661 33.7854 8.42449C33.7513 8.37274 33.7406 8.29829 33.763 8.16481C33.7649 8.15261 33.8869 8.03948 33.8541 8.00936C33.8009 7.96111 33.7943 7.81013 33.6579 7.86832C33.6168 7.88578 33.4489 8.13261 33.5215 7.93285C33.533 7.90073 33.6609 7.72226 33.6179 7.74262C33.6049 7.74875 33.5765 7.77289 33.5249 7.82454C33.4874 7.86127 33.1713 8.1525 33.2784 7.90049C33.3066 7.83414 33.4398 7.57054 33.3895 7.59255C33.382 7.59649 33.3073 7.73924 33.2781 7.73879C33.1758 7.73405 33.1126 7.67245 33.011 7.66656C32.9839 7.66539 32.9231 7.82366 32.8856 7.81753C32.7826 7.80094 32.7041 7.70069 32.6513 7.60588C32.632 7.57067 32.7259 7.46742 32.7318 7.45342C32.8265 7.22551 32.6308 7.49039 32.6094 7.49955C32.4777 7.55216 32.5052 7.38749 32.4173 7.38102C32.3933 7.37892 32.3238 7.52003 32.3128 7.52965C32.2034 7.62235 32.3795 7.40063 32.3719 7.35948C32.351 7.24336 32.2689 7.2077 32.1899 7.18291C32.1607 7.17401 32.0945 7.34628 32.0695 7.33654C31.9207 7.2825 31.7917 7.18462 31.7115 7.02041C31.6965 6.98921 31.7835 6.8783 31.7947 6.84778C31.873 6.63443 31.665 6.86542 31.6383 6.88337C31.5162 6.96515 31.558 6.84626 31.4979 6.83771C31.4902 6.83668 31.4826 6.83552 31.475 6.83423C31.191 6.78579 30.9463 6.55402 30.7497 6.3863C30.4882 6.16366 30.3189 5.9176 30.0183 5.79243C29.9991 5.78421 29.9282 5.95747 29.9106 5.9525C29.7364 5.89696 29.5996 5.78198 29.4408 5.70494C29.394 5.68223 29.3456 5.66276 29.2942 5.64894C29.2755 5.64359 29.2166 5.81199 29.1839 5.80867C29.1162 5.80294 29.0514 5.7576 29.0226 5.67862C29.0084 5.64038 29.1154 5.52586 29.0997 5.49009C29.0624 5.40616 29.0032 5.36064 28.9222 5.34997C28.8881 5.34607 28.8468 5.52808 28.8091 5.51062C28.5513 5.39522 28.2995 5.29942 28.1525 4.96149C28.1428 4.93848 28.295 4.60463 28.2267 4.64862C28.1776 4.73776 28.1232 4.84433 28.0725 4.94049C27.8208 4.85381 27.6133 4.70539 27.3932 4.55287C27.2678 4.46636 27.1608 4.38968 27.0228 4.31351C27.0074 4.30503 26.9484 4.49251 26.9183 4.47702C26.7476 4.38943 26.5558 4.35524 26.463 4.09551C26.4542 4.07025 26.6121 3.76711 26.5396 3.78935C26.5291 3.79471 26.4279 3.7963 26.374 3.85263C26.3663 3.86133 26.3116 4.01203 26.2835 4.00358C26.126 3.95437 25.9873 3.84748 25.8854 3.69112C25.8701 3.66611 25.9666 3.52395 25.9564 3.50482C25.8638 3.36104 25.7019 3.4274 25.6392 3.22789C25.622 3.1053 25.7559 2.84387 25.8383 2.56359C25.8468 2.52255 25.8113 2.49903 25.8796 2.34537C26.0529 1.95982 26.2649 1.54787 26.4467 1.1355C26.4711 1.03986 26.3843 1.11502 26.5051 0.912423C26.5148 0.899545 26.6032 0.85465 26.643 0.785431C26.6741 0.739242 26.7314 0.577342 26.7777 0.521215C26.8229 0.464607 26.7901 0.607398 26.8526 0.545287C26.9128 0.480938 26.9821 0.298636 27.0467 0.303406ZM35.5188 10.5169C35.5943 10.6678 35.4728 10.0821 35.4613 10.2308C35.4609 10.2387 35.515 10.5095 35.5188 10.5169ZM29.9939 10.6671C30.0312 10.9354 30.1086 10.5528 30.0835 10.346C30.059 10.1394 29.9827 10.5857 29.9939 10.6671ZM29.3428 10.796C29.395 11.0108 29.4935 10.1682 29.3986 10.3306C29.3931 10.3397 29.3398 10.7836 29.3428 10.796ZM26.0691 2.58059C26.0715 2.57291 26.0364 2.54791 26.0326 2.55481C25.9315 2.71726 26.0011 2.76683 26.0691 2.58059ZM28.69 10.9331C28.6987 11.0498 28.7761 10.9256 28.7663 10.7807C28.7591 10.6643 28.679 10.788 28.69 10.9331ZM37.4313 9.84581C37.4403 9.846 37.448 9.82018 37.3973 9.81779C37.2347 9.80986 37.2815 9.84259 37.4313 9.84581ZM27.6146 10.7994C27.7647 10.854 27.7723 11.5626 27.6 11.4579C27.569 11.4389 27.7037 11.2472 27.6703 11.1785C27.6188 11.0547 27.4925 11.4807 27.4626 11.2375C27.4466 11.1914 27.6059 10.7947 27.6151 10.7984C27.6149 10.7987 27.6147 10.7991 27.6146 10.7994ZM35.6927 11.2145C35.6954 11.222 35.733 11.2215 35.7327 11.2135C35.7108 11.0239 35.6364 11.0246 35.6927 11.2145ZM36.9706 8.27923C36.9817 8.26617 36.928 8.18719 36.9144 8.19575C36.6595 8.37851 36.7607 8.53157 36.9706 8.27923ZM33.1435 11.8797C33.1026 12.0711 33.0509 12.0938 33.0168 11.8539C33.0589 11.8666 33.1012 11.8683 33.1435 11.8797Z" fill="black"/>
</svg>
