<svg width="46" height="57" viewBox="0 0 46 57" fill="none" xmlns="http://www.w3.org/2000/svg">
<path d="M26.5106 0.152617C26.5627 0.242927 26.507 0.370617 26.4305 0.458614C26.4068 0.488754 26.3008 0.473437 26.2797 0.494635C26.2384 0.539406 26.2904 0.567 26.2413 0.606445C26.2245 0.618991 26.0566 0.603355 26.0428 0.616542C25.9686 0.688534 26.0114 0.76664 25.9757 0.834083C25.7996 1.19682 25.7365 1.56536 25.66 1.93162C25.6349 2.0589 25.4825 2.19692 25.5492 2.32858C25.5571 2.34368 25.7045 2.33468 25.7167 2.33755C25.9027 2.38276 25.6051 2.36773 25.5656 2.39744C25.4094 2.50862 25.3959 2.63313 25.4528 2.74541C25.4531 2.74609 25.4535 2.74674 25.454 2.74738C25.4856 2.79177 25.7678 2.74589 25.6058 2.79338C25.5947 2.79673 25.4382 2.78457 25.4215 2.79772C25.384 2.82898 25.4119 2.88178 25.3995 2.90382C25.3748 2.94617 25.3764 2.95323 25.3746 2.9937C25.3708 3.04908 25.293 3.11579 25.3285 3.17682C25.3365 3.18985 25.497 3.17259 25.5243 3.19339C25.5516 3.21415 25.5379 3.26962 25.5001 3.2885C25.4623 3.30733 25.3362 3.29932 25.3073 3.30265C25.0633 3.32863 25.4012 3.38973 25.4095 3.39775C25.5519 3.54193 25.3594 3.67002 25.36 3.81069C25.3608 3.9127 25.4244 4.02377 25.4156 4.12421C25.4046 4.24402 25.3177 4.34778 25.3326 4.45957C25.334 4.47161 25.5227 4.4575 25.5248 4.47221C25.5467 4.62726 25.5262 4.79059 25.3988 4.94554C25.3859 4.96106 25.2202 4.94106 25.1974 4.95657C25.0613 5.0513 24.7342 5.20399 25.4554 5.26201C25.4273 5.32753 25.3982 5.40964 25.2528 5.46744C25.1727 5.4991 25.0291 5.47735 25.0375 5.49892C25.0389 5.50256 25.0447 5.50743 25.0558 5.51401C25.0729 5.52429 25.231 5.51092 25.2448 5.52635C25.3026 5.5913 25.2512 5.66281 25.3329 5.72801C25.3499 5.74128 25.4915 5.73766 25.517 5.74142C25.7235 5.773 25.3821 5.82586 25.3573 5.83743C25.1723 5.92499 25.2451 5.99124 25.2406 6.07209C25.2395 6.09065 25.4297 6.06871 25.4354 6.08657C25.4627 6.17923 25.4463 6.27611 25.3619 6.36847C25.3427 6.38902 25.1807 6.37012 25.1632 6.37994C25.0881 6.42328 25.3941 6.43292 25.328 6.47467C25.3145 6.48348 25.1758 6.47851 25.1605 6.48012C24.9214 6.50527 25.2602 6.52719 25.2677 6.53368C25.3699 6.6155 25.0162 6.66982 25.0663 6.74596C25.0726 6.75523 25.2481 6.73434 25.2552 6.76038C25.3037 6.9339 25.2555 7.12022 25.1151 7.29708C25.0935 7.32458 24.9617 7.30495 24.9454 7.30667C24.6915 7.33449 25.0317 7.35184 25.0446 7.36063C25.1368 7.42923 24.8515 7.49371 25.2567 7.54074C25.1439 7.77518 25.2681 8.01742 25.134 8.24758C25.101 8.30521 25.0523 8.36302 24.9806 8.42099C24.9764 8.42472 24.8088 8.41804 24.8011 8.42548C24.7071 8.5152 24.9675 8.498 25.286 8.55757C25.366 8.57258 24.9814 8.61836 24.9532 8.62242C24.8494 8.6372 24.6001 8.62187 24.58 8.62682C24.422 8.66755 25.2464 8.66177 25.2467 8.71533C25.2453 8.71702 25.0936 8.70994 25.0785 8.71446C25.0311 8.72851 25.0914 8.74245 25.0392 8.75622C24.9183 8.78774 24.5177 8.79896 24.7509 8.84725C24.7811 8.85337 25.2488 8.844 25.2267 8.89241C25.2175 8.91168 25.2255 8.99735 25.1952 9.02147C25.1649 9.04552 25.0142 9.02901 25.0077 9.03072C24.8084 9.09558 24.7258 9.071 24.4308 9.10353C24.1369 9.1361 24.8379 9.12708 24.9161 9.14036C24.9942 9.15366 24.8297 9.20145 24.7726 9.21322C24.7154 9.22498 24.6196 9.21031 24.5873 9.22076C24.3759 9.29012 24.9352 9.25121 25.0465 9.27408C25.31 9.32775 24.7901 9.37096 24.7391 9.41897C24.7254 9.43206 24.8438 9.42137 24.8549 9.43303C24.8971 9.47922 24.7349 9.50705 24.8837 9.55981C24.9079 9.56844 25.2205 9.61113 24.9911 9.63884C24.958 9.64276 24.8285 9.63161 24.7994 9.65144C24.7559 9.68106 24.7276 9.73455 24.7709 9.76654C24.8029 9.79016 25.0164 9.76308 24.9501 9.79282C24.9205 9.80603 24.7956 9.78153 24.7504 9.80637C24.7052 9.83107 24.7107 9.89438 24.715 9.91854C24.7194 9.94263 24.8813 9.92944 24.8922 9.93139C24.9547 9.94316 25.0328 9.98948 25.0326 9.99359C25.0524 10.2009 24.7794 10.3852 24.8698 10.5862C24.8766 10.6019 25.0474 10.5915 25.0502 10.5939C25.1217 10.6477 24.6677 10.6052 24.5157 10.6428C24.8623 10.6374 24.7995 10.6596 24.8375 10.6976C24.8561 10.7159 24.9903 10.7059 25.004 10.7076C25.2078 10.7348 24.9446 10.7537 24.8907 10.7586C24.6927 10.7766 24.9267 10.7962 24.7943 10.8085C24.6629 10.8208 24.4681 10.7925 24.4706 10.8291C24.5946 10.8394 24.9188 10.8122 24.9713 10.84C25.0531 10.8832 25.0581 10.9399 25.0339 10.9988C24.9993 11.0829 24.9048 11.1699 24.8893 11.219C24.8629 11.3022 24.8858 11.3292 24.8409 11.3778C24.7599 11.4658 25.0004 11.4336 25.1105 11.4883C25.2205 11.5432 24.6288 11.5165 24.5016 11.5244C24.3744 11.5322 24.5053 11.5407 24.4354 11.5503C24.3655 11.5599 24.2791 11.5391 24.2528 11.5617C24.2266 11.5844 24.4528 11.6465 24.5858 11.654C24.8676 11.6706 25.1634 11.6432 25.0595 11.7021C25.0533 11.7055 24.8977 11.6945 24.882 11.7075C24.7622 11.8107 24.7547 11.9183 24.6488 12.0221C24.634 12.0364 24.4609 12.0236 24.4503 12.0319C24.3396 12.1186 24.6315 12.0876 24.9557 12.1352C24.5242 12.1245 24.2602 12.1507 24.2577 12.2167C24.256 12.2564 24.4445 12.2496 24.5773 12.2753C24.6173 12.283 24.4879 12.3111 24.5765 12.3162C24.8662 12.3331 25.1905 12.3065 25.0614 12.3748C25.0553 12.3778 24.8967 12.3682 24.8871 12.3786C24.8242 12.4454 25.1272 12.4526 25.1639 12.524C25.1927 12.5798 25.008 12.6795 24.9779 12.7434C24.4928 12.7421 24.6039 12.8025 24.9384 12.827C24.9247 12.8686 24.9436 12.9136 24.8973 12.9539C24.8816 12.9677 24.7411 12.9586 24.726 12.9604C24.4879 12.9872 24.8133 13.0053 24.8261 13.0143C24.9501 13.1116 24.7034 13.193 24.9445 13.2841C24.9531 13.2874 25.2901 13.2927 25.0441 13.3173C25.0271 13.3189 24.8738 13.2885 24.8619 13.3319C24.8501 13.3753 24.6694 13.4572 24.8256 13.5177C24.8632 13.5324 25.1367 13.5694 24.923 13.5992C24.894 13.6031 24.7973 13.5988 24.7435 13.6045C24.5722 13.623 24.9128 13.6331 24.6234 13.6549C24.3917 13.6723 24.2066 13.7049 24.2446 13.7486C24.254 13.7595 24.2773 13.7711 24.317 13.7833C24.3228 13.7852 24.5928 13.7997 24.5885 13.819C24.5815 13.8498 24.5252 13.8936 24.527 13.9259C24.5279 13.9413 24.6955 13.9314 24.6986 13.9341C24.7925 14.0385 24.6431 14.11 24.5782 14.2204C24.566 14.2406 24.7946 14.2986 24.6139 14.3378C24.4161 14.3808 23.5931 14.3366 23.7892 14.4355C23.8676 14.4754 24.9116 14.526 24.3707 14.5979C24.5048 14.7375 24.2279 14.8671 24.4193 15.0054C24.4278 15.0116 24.7192 15.0314 24.7152 15.0461C24.7088 15.0679 24.5726 15.0799 24.5636 15.0955C24.5226 15.1608 24.6391 15.2207 24.621 15.2839C24.6144 15.3079 24.4736 15.2995 24.4657 15.3281C24.458 15.3568 24.6434 15.3759 24.5538 15.4147C24.4856 15.444 24.1066 15.4733 24.0624 15.5123C24.4362 15.5138 24.4285 15.5406 24.5272 15.5882C24.5464 15.5974 24.6765 15.5876 24.6923 15.5919C24.7593 15.6095 24.6515 15.6258 24.7245 15.6426C24.742 15.6467 24.8697 15.6469 24.8912 15.6502C25.0793 15.6784 24.7921 15.7244 24.7421 15.7324C24.5522 15.7628 24.7182 15.777 24.6434 15.8003C24.5687 15.8236 24.4752 15.7888 24.4298 15.816C24.336 15.8724 24.3566 15.945 24.3507 16.0024C24.3492 16.0254 24.5196 16.0097 24.5233 16.013C24.5665 16.0604 24.3853 16.1084 24.7247 16.1347C23.847 16.1677 24.8099 16.1634 24.6342 16.2313C24.6199 16.2367 24.2049 16.2435 24.1439 16.2229C24.083 16.2024 24.2128 16.1712 24.1178 16.1427C24.0955 16.136 23.7066 16.0974 23.683 16.0921C23.4988 16.0508 24.1191 16.045 24.1532 16.0428C24.5209 16.0181 24.1018 15.971 24.0729 15.9586C23.9402 15.9018 24.0274 15.8537 23.9327 15.8063C23.8715 15.7754 23.4652 15.7723 23.4777 15.748C23.5188 15.6674 24.0856 15.6389 23.5941 15.562C23.4893 15.5456 23.0452 15.5619 23.3944 15.5029C23.4164 15.4992 23.7359 15.4554 23.5338 15.4301C23.5083 15.427 23.3789 15.4271 23.368 15.4229C23.2977 15.3948 23.4008 15.3761 23.3514 15.3456C23.3021 15.3151 23.2284 15.2784 23.2723 15.2436C23.2986 15.2226 23.5397 15.1958 23.5988 15.1857C23.7688 15.1574 23.49 15.1271 23.6959 15.1096C23.9029 15.0919 24.2172 15.1264 24.351 15.0801C24.0147 15.0784 23.6696 15.0744 23.3314 15.0717C23.3433 14.9699 23.452 14.8713 23.4371 14.7685C23.435 14.7557 23.2542 14.7688 23.2472 14.7551C23.2185 14.6975 23.3473 14.6473 23.296 14.5878C23.2556 14.5417 23.0642 14.4912 23.016 14.4431C23.4008 14.4137 23.2701 14.3425 23.3053 14.2908C23.3175 14.2727 23.4202 14.2739 23.4537 14.261C23.5777 14.2125 23.2377 14.2352 23.1842 14.2219C22.9558 14.1649 23.7254 14.16 23.7064 14.0929C23.7057 14.0893 23.2955 14.0459 23.2699 14.0399C23.1033 14.0019 23.4127 14.0336 23.443 14.0098C23.4984 13.9658 23.5964 13.9352 23.4762 13.8836C23.4406 13.8686 23.1849 13.8325 23.3827 13.8034C23.4086 13.7995 23.5442 13.8017 23.5521 13.7986C23.6114 13.7735 23.5586 13.7594 23.4693 13.7486C23.3592 13.7353 23.1938 13.727 23.1141 13.7094C22.9699 13.6775 23.264 13.6283 23.3488 13.6183C23.5681 13.5921 23.4425 13.6383 23.464 13.6398C23.7201 13.6564 23.676 13.6206 23.6976 13.5932C24.1154 13.5892 24.0903 13.5509 23.7184 13.5648C23.6778 13.5664 23.7167 13.5877 23.6976 13.5932C23.2878 13.5692 23.2353 13.5271 23.6183 13.4807C23.7978 13.459 24.0071 13.4795 23.9305 13.4136C23.896 13.3838 23.6083 13.3953 23.5299 13.3689C23.351 13.3086 23.6193 13.2312 23.577 13.1683C23.5617 13.1455 23.4042 13.1677 23.3883 13.1522C23.3456 13.1108 23.4637 13.0744 23.4032 13.0329C23.3975 13.0292 23.2327 13.0384 23.2306 13.0255C23.2115 12.9278 23.317 12.8431 23.32 12.7417C23.3213 12.6927 23.2304 12.6054 23.2487 12.5549C23.2794 12.4676 23.519 12.3597 23.4608 12.2835C23.4236 12.2342 23.2587 12.245 23.1464 12.2239C22.9286 12.1831 23.3186 12.1111 23.379 12.1015C23.381 12.1012 23.4199 12.1435 23.5045 12.1209C23.6809 12.1078 23.3798 12.1019 23.379 12.1015C23.418 12.0951 23.4555 12.0107 23.424 11.994C23.4067 11.9849 23.2505 11.99 23.2445 11.9852C23.1047 11.8726 23.065 11.7602 23.1381 11.647C23.1412 11.645 23.3159 11.648 23.3212 11.6433C23.3989 11.577 23.1851 11.5339 23.0582 11.479C22.9314 11.4241 22.9739 11.3807 23.2738 11.3483C23.236 11.307 23.3686 11.2478 23.4491 11.2139C23.5296 11.1799 23.1895 11.1752 23.1827 11.1722C23.025 11.1039 23.0875 11.0569 23.1441 10.9988C23.1646 10.9777 23.1844 10.9551 23.1925 10.9295C23.2075 10.8847 23.1582 10.7919 23.121 10.7418C23.091 10.7022 23.1707 10.6783 23.1198 10.6418C23.113 10.6369 22.9615 10.6419 22.9557 10.6404C22.7745 10.5997 23.1447 10.6192 23.2108 10.6108C23.4512 10.5804 23.5793 10.5616 23.4662 10.5097C23.4403 10.4977 22.9073 10.4629 22.8761 10.4411C22.8366 10.4128 23.0276 10.4235 22.9813 10.3939C22.9775 10.3914 22.8597 10.3919 22.8649 10.3736C22.8874 10.2888 22.956 10.197 22.9442 10.1094C22.9431 10.0972 22.7561 10.1128 22.7514 10.0952C22.7292 10.0124 22.7361 9.922 22.8236 9.84203C22.8457 9.82234 22.9766 9.83468 23.0155 9.83041C23.2507 9.80418 22.909 9.76705 22.9025 9.76094C22.7383 9.6147 23.0475 9.50466 22.9003 9.35635C22.8916 9.34813 22.5253 9.28509 22.8395 9.25706C22.8604 9.25513 23.1818 9.22738 22.962 9.20289C22.9483 9.20137 22.7828 9.21863 22.7997 9.18851C22.8165 9.1584 22.706 9.11003 22.8878 9.06884C22.9451 9.05579 23.2657 9.02497 23.0101 8.98619C22.9923 8.98365 22.4144 8.92384 22.8131 8.90256C22.8788 8.89911 23.3007 8.9027 23.0844 8.85662C23.0424 8.84782 22.9483 8.8638 22.8895 8.84062C22.799 8.80512 22.912 8.75818 22.724 8.71477C22.6907 8.70703 22.4043 8.67549 22.6217 8.64844C22.6558 8.64428 22.7966 8.65217 22.8124 8.63817C22.888 8.57157 22.7938 8.50213 22.8912 8.43509C22.9255 8.41135 23.1532 8.42348 23.2142 8.39876C23.2752 8.37402 23.3339 8.32432 23.2299 8.29858C23.1258 8.27283 22.7628 8.30095 22.7338 8.2624C22.7301 8.25746 22.7266 8.25251 22.7235 8.24758C22.62 8.08573 22.8215 7.92568 22.8517 7.76039C22.8563 7.73539 22.7265 7.7561 22.724 7.7193C22.7143 7.58243 22.5926 7.35451 22.8685 7.23486C23.0896 7.13977 23.2578 7.25941 23.3478 7.18678C23.3907 7.15175 22.9687 7.11401 22.9555 7.10559C22.8205 7.02339 23.0074 6.96661 22.9501 6.8934C22.9382 6.87829 22.7672 6.89311 22.7589 6.88025C22.7293 6.83636 22.8056 6.79039 22.7916 6.74876C22.785 6.73008 22.6544 6.73352 22.6644 6.71636C22.6871 6.67592 22.742 6.63806 22.8644 6.59686C22.8755 6.5931 23.038 6.61844 23.0441 6.58715C23.0534 6.53653 23.1742 6.47399 23.0494 6.41637C23.0119 6.39927 22.7134 6.39858 22.9196 6.36192C22.9626 6.35425 23.3211 6.36401 23.0114 6.32141C22.9599 6.31421 22.5421 6.24282 22.8114 6.20802C22.8823 6.19882 23.1756 6.17537 23.1295 6.15514C23.1222 6.15239 22.9618 6.16339 22.9462 6.14662C22.8938 6.08759 22.9109 6.02632 22.8607 5.96291C22.847 5.94626 22.6811 5.97106 22.6659 5.94625C22.624 5.878 22.6662 5.79346 22.7181 5.72776C22.7376 5.70354 22.8751 5.72028 22.89 5.71852C23.1333 5.69019 22.8049 5.6735 22.7858 5.66413C22.6711 5.60587 22.8254 5.56176 22.7846 5.50862C22.7737 5.49396 22.6171 5.50436 22.6032 5.50144C22.5992 5.50055 22.5955 5.49971 22.5922 5.49892C22.483 5.47249 22.7488 5.49316 22.7789 5.4746C22.8667 5.42143 22.8541 5.35771 22.8341 5.30239C22.8265 5.2819 22.645 5.30493 22.6403 5.28654C22.609 5.17777 22.6264 5.06615 22.7264 4.9627C22.7456 4.94323 22.8854 4.95548 22.9174 4.95143C23.1408 4.92344 22.836 4.88267 22.807 4.87331C22.6745 4.82926 22.7981 4.81165 22.775 4.77262C22.6601 4.57889 22.742 4.35853 22.7926 4.17442C22.8577 3.94035 22.9907 3.76852 22.9562 3.5426C22.9542 3.52861 22.7682 3.54272 22.764 3.53066C22.7192 3.37736 22.7919 3.22283 22.7382 3.06486C22.7341 3.05206 22.5578 3.0705 22.5453 3.04997C22.5185 3.00784 22.5281 2.95504 22.5844 2.91335C22.6115 2.89302 22.7628 2.92028 22.787 2.89983C22.8437 2.85391 22.8563 2.7987 22.828 2.74772C22.8279 2.74761 22.8279 2.74749 22.8278 2.74738C22.8137 2.72632 22.6353 2.75863 22.6332 2.73053C22.6153 2.53889 22.5842 2.35955 22.8178 2.16455C22.8338 2.15159 23.2003 2.1402 23.13 2.1129C23.0283 2.11084 22.9087 2.11096 22.7999 2.11006C22.7414 1.83419 22.8684 1.5606 22.8881 1.28958C22.8889 1.27737 22.6947 1.29845 22.6952 1.27485C22.6981 1.1346 22.6443 1.02765 22.8373 0.882148C22.8562 0.868982 23.1978 0.875485 23.1461 0.837162C23.1367 0.830179 23.0911 0.773798 23.017 0.759916C23.0058 0.757999 22.8463 0.767974 22.8417 0.750348C22.8175 0.627186 22.8539 0.532728 22.9513 0.411073C22.9673 0.393787 23.1371 0.412163 23.15 0.399899C23.2402 0.314494 23.1111 0.216819 23.2653 0.127187C23.3691 0.0736052 23.6626 0.0982923 23.9515 0.0612819C23.9923 0.0545329 23.9988 0.0229863 24.1669 0.0234836C24.5896 0.0200013 25.0525 0.0326256 25.5031 0.0274105C25.6001 0.0233224 25.4956 -0.0144512 25.7301 0.00363887C25.7458 0.0102503 25.8236 0.0399544 25.9032 0.0484118C25.9582 0.0544226 26.1292 0.0434551 26.1996 0.055968C26.2699 0.0675199 26.1266 0.0897741 26.2093 0.10303C26.2931 0.121416 26.4876 0.111631 26.5106 0.152617ZM23.8087 11.0612C23.972 11.0299 23.3739 11.0253 23.517 11.0592C23.5246 11.0608 23.8007 11.0628 23.8087 11.0612ZM23.9032 14.8712C24.167 14.8305 23.7791 14.802 23.5753 14.8312C23.3718 14.86 23.8232 14.8837 23.9032 14.8712ZM24.0958 15.297C24.3039 15.2488 23.4556 15.2413 23.6271 15.2928C23.6368 15.2958 24.0837 15.2998 24.0958 15.297ZM24.0338 0.204979C24.0418 0.205515 24.0495 0.180402 24.0416 0.178201C23.8516 0.164698 23.8363 0.21684 24.0338 0.204979ZM24.3055 15.7214C24.4203 15.7065 24.2878 15.6635 24.1451 15.682C24.0304 15.697 24.1628 15.74 24.3055 15.7214ZM24.4471 9.42027C24.4561 9.41978 24.4641 9.40175 24.4137 9.40211C24.2514 9.40333 24.2972 9.42844 24.4471 9.42027ZM24.3153 16.4412C24.3472 16.3344 25.0479 16.2697 24.9689 16.3859C24.9546 16.407 24.7454 16.3406 24.6823 16.3673C24.5672 16.4164 25.0071 16.449 24.7714 16.4991C24.7282 16.5082 24.3119 16.4473 24.3143 16.441C24.3147 16.4411 24.315 16.4411 24.3153 16.4412ZM24.5272 11.0432C24.5351 11.0426 24.5426 11.0175 24.5348 11.0169C24.3449 11.0033 24.3297 11.0538 24.5272 11.0432ZM24.817 8.35322C24.8339 8.3518 24.8496 8.29318 24.8341 8.29129C24.5236 8.26071 24.4908 8.3792 24.817 8.35322ZM24.965 12.7444C25.156 12.772 25.1785 12.8049 24.9386 12.8269C24.9513 12.7995 24.9532 12.7719 24.965 12.7444ZM43.4378 52.6645C42.2256 52.2782 40.5919 51.6189 39.2781 51.0543C38.8594 50.8751 39.1113 50.8547 38.8212 50.7255C38.251 50.472 37.6965 50.3237 37.1349 50.0654C36.9461 49.9782 37.2461 49.9094 37.0468 49.8217C35.9543 49.3421 34.8918 48.9994 33.7959 48.5647C31.8467 47.7907 30.0141 47.0888 28.4075 46.4946C25.5411 45.4361 23.2896 44.6753 21.2571 44.0355C20.2132 43.7059 19.0573 43.2367 18.1551 43.0827C18.0463 43.0639 18.0746 43.2228 18.0514 43.2295C17.6898 43.3321 17.8662 43.0691 17.6689 42.9806C17.4972 42.9049 17.3369 42.8394 17.1706 42.7793C16.5676 42.5598 15.9109 42.4212 15.3931 42.3656C15.1041 42.3345 15.3329 42.6769 15.0794 42.461C15.0617 42.4463 15.1626 42.3061 15.0882 42.275C14.9196 42.2045 14.5821 42.172 14.4555 42.1378C14.2139 42.0712 14.1732 42.066 13.944 42.0272C13.634 41.9734 13.2705 41.8416 12.955 41.8364C12.8877 41.8358 12.9544 42.0062 12.8459 42.0197C12.7369 42.0329 12.4642 41.9866 12.3771 41.9391C12.2896 41.8913 12.3423 41.7703 12.3292 41.7398C12.2196 41.4817 11.8728 41.7875 11.8345 41.7928C11.3023 41.8514 10.8602 41.7441 10.426 41.6839C10.2832 41.6639 10.1408 41.6493 9.99697 41.6485C9.55653 41.6461 9.12604 41.7246 8.76189 41.743C8.32109 41.7652 7.97549 41.7207 7.60102 41.8004C7.56209 41.8087 7.64049 41.9863 7.59376 41.9968C7.10446 42.1071 6.66707 42.2033 6.22567 42.2309C6.22395 42.231 6.22222 42.2311 6.2205 42.2312C6.17559 42.2341 6.17056 42.0593 6.12156 42.0531C5.82858 42.0115 5.27642 41.9115 5.4951 42.617C5.34002 42.6677 5.16429 42.74 4.96528 42.6991C4.83707 42.6731 4.80888 42.4734 4.75768 42.6028C4.74647 42.6317 4.86482 42.7415 4.84203 42.7746C4.74799 42.9126 4.58245 42.9789 4.52228 43.1414C4.51054 43.1745 4.61133 43.2744 4.62207 43.299C4.70971 43.4972 4.3952 43.3263 4.35677 43.3299C4.08408 43.3409 4.03389 43.5073 3.91315 43.6522C3.88502 43.6863 4.06658 43.7629 4.0457 43.799C4.00977 43.86 3.97166 43.9188 3.92961 43.9764C3.84458 44.0928 3.74484 44.2024 3.62333 44.3025C3.58259 44.3358 3.46337 44.2172 3.43645 44.2295C3.31798 44.2888 3.57819 44.4518 3.47543 44.5084C3.45398 44.5211 3.33464 44.4496 3.31925 44.4464C3.0758 44.399 3.35873 44.5939 3.35976 44.6094C3.37288 44.8251 2.99335 44.8188 2.96764 45.0389C2.96544 45.0643 3.15125 45.0648 3.13529 45.1318C3.03207 45.5735 2.8629 46.0841 2.6541 46.6418C2.62199 46.7285 2.49835 46.652 2.48151 46.6558C2.21782 46.7236 2.5505 46.8175 2.56032 46.8477C2.57933 46.9152 2.5701 46.9795 2.55535 47.0419C2.49123 47.5207 2.42873 47.9359 2.74002 48.2263C2.75783 50.0553 3.55917 51.1313 4.35731 51.9478C4.66241 52.2563 4.97193 52.5346 5.31259 52.8325C5.32919 52.8463 5.21517 52.975 5.2492 53.0023C5.65304 53.3179 5.69179 53.0403 6.10961 52.8765C6.21375 52.8348 6.29949 53.2796 6.31576 53.3147C6.35758 53.4404 6.19183 53.6454 6.21106 53.6738C6.3847 53.9025 6.61454 53.1117 6.89861 53.1995C6.90746 53.2036 6.82515 53.3372 6.84545 53.3591C6.90971 53.4279 7.00246 53.3917 7.06327 53.4625C7.20233 53.6247 7.1747 54.0327 7.50818 53.8683C7.54995 53.8458 7.59629 53.3799 7.86241 53.4554C7.91642 53.4707 8.06816 53.4993 8.22358 53.527C8.37091 53.5536 8.52139 53.5794 8.5872 53.6025C8.72242 53.6498 8.60892 53.7876 8.61776 53.7953C8.97732 54.0371 8.82335 54.1021 8.99344 54.4151C9.17022 54.7252 9.17099 54.0214 9.25562 53.9495C9.33947 53.8783 9.61615 54.0588 9.68708 54.1181C9.75666 54.1782 9.66273 54.2702 9.72582 54.3052C10.1476 54.5303 9.92228 53.9632 10.0628 53.8555C10.3864 53.5974 10.6422 54.1142 10.9566 54.1542C11.0405 54.1647 10.968 54.0491 11.0414 54.035C11.331 53.9797 11.5204 54.1308 11.8459 53.954C11.9008 53.9253 12.1393 53.5889 12.3404 53.7961C12.3694 53.826 12.3123 53.9631 12.4435 53.977C12.5729 53.9906 12.7679 53.9878 12.9453 53.9613C13.0375 53.9476 13.1242 53.9278 13.1931 53.902C13.3416 53.8457 13.1321 53.6634 13.3347 53.6974C13.4252 53.7123 13.2868 53.8623 13.4559 53.8795C13.625 53.8977 14.0347 53.8143 14.1953 53.7752C14.353 53.7374 14.2323 53.5973 14.243 53.584C14.3074 53.5071 14.5895 53.3635 14.6156 53.357C15.7502 53.0729 16.8883 52.9158 18.0046 52.4478C18.197 52.3668 18.3878 52.2764 18.5725 52.1763C18.6715 52.1227 18.5313 51.9996 18.5457 51.9898C18.8586 51.7623 18.7822 52.3019 19.0923 52.3207C18.9029 52.0272 19.0786 52.0131 19.3063 51.8523C19.4153 51.7745 19.2888 51.6891 19.2932 51.6713C19.3693 51.4013 19.6099 51.5686 19.6675 51.5984C19.8762 51.7095 19.8834 51.4358 20.0274 51.5049C20.1718 51.5725 20.0897 51.847 20.3225 51.7068C20.3229 51.5621 19.9884 51.3843 20.133 51.2366C20.6767 50.7016 21.9112 50.0786 22.3161 49.692C22.4162 49.604 22.4961 49.5279 22.5637 49.4608C22.7796 49.2439 22.872 49.1275 23.0442 48.9701C23.4385 48.5914 23.124 48.6037 23.2044 48.2929C23.2685 47.9867 23.6966 48.4146 23.8286 48.4441C23.9615 48.4702 23.8747 48.36 23.9633 48.3457C24.0526 48.3299 24.0655 48.4827 24.1561 48.3756C24.2524 48.2635 24.1984 47.853 24.0878 47.7673C23.86 47.5819 23.5371 47.5938 23.7364 47.3779C23.7481 47.3647 23.8766 47.4643 23.914 47.4105C24.199 46.9971 24.299 46.5194 24.4123 46.0819C24.4281 46.0197 24.6003 46.0769 24.6114 46.0401C24.6155 46.0261 24.6191 46.0127 24.6221 46C24.7011 45.8016 24.4187 45.8725 24.1062 45.7474C24.5377 45.7762 24.8017 45.7068 24.8042 45.5151C24.8059 45.3993 24.6175 45.4189 24.4846 45.3422C24.4446 45.3192 24.574 45.2334 24.4854 45.2175C24.1957 45.165 23.8714 45.2492 24.0005 45.0342C24.0066 45.0247 24.1652 45.0548 24.1748 45.0221C24.2377 44.808 23.9347 44.7822 23.898 44.5366C23.8692 44.3456 24.054 43.9839 24.084 43.7399C24.3634 43.7428 24.445 43.6682 24.4001 43.5851C24.367 43.524 24.2654 43.4583 24.1236 43.4175C24.1372 43.2544 24.1183 43.0749 24.1646 42.9098C24.1803 42.853 24.3208 42.8903 24.336 42.8832C24.574 42.7732 24.2486 42.6974 24.2359 42.6598C24.1119 42.2514 24.3585 41.9031 24.1175 41.479C24.1088 41.4639 23.7718 41.4398 24.0178 41.3252C24.0348 41.3178 24.1881 41.4595 24.2 41.2576C24.2119 41.0561 24.3925 40.6644 24.2363 40.3665C24.23 40.3543 24.2168 40.339 24.2004 40.3211C24.1199 40.2336 23.9615 40.0856 24.1389 39.9613C24.168 39.9413 24.2646 39.9632 24.3184 39.9344C24.4897 39.8412 24.1492 39.7901 24.4385 39.6794C24.7278 39.569 24.9445 39.3369 24.7449 39.014C24.7391 39.0037 24.4691 38.9273 24.4734 38.825C24.4805 38.6627 24.5367 38.4262 24.5349 38.25C24.534 38.1657 24.3664 38.2197 24.3633 38.2051C24.2694 37.6391 24.4188 37.2178 24.4837 36.5678C24.4896 36.5094 24.4388 36.3977 24.4056 36.2706C24.3704 36.136 24.3551 35.9841 24.448 35.8619C24.6458 35.5975 25.4688 35.872 25.2727 35.2568C25.1943 35.0085 24.1503 34.6894 24.6912 34.2218C24.5571 33.3143 24.834 32.4322 24.6426 31.4213C24.6402 31.4086 24.616 31.3882 24.5823 31.3631C24.4949 31.2979 24.3438 31.2006 24.3467 31.1227C24.3532 30.9623 24.4893 30.874 24.4983 30.759C24.5393 30.263 24.4228 29.8156 24.4409 29.3119C24.4475 29.1216 24.5883 29.1882 24.5962 28.9608C24.604 28.7316 24.4185 28.5871 24.5081 28.2619C24.5763 28.0195 24.9554 27.7769 24.9995 27.4532C24.6257 27.4403 24.6334 27.2097 24.5347 26.7979C24.5155 26.7188 24.3854 26.8037 24.3696 26.7662C24.3026 26.6133 24.4104 26.4739 24.3374 26.3262C24.3199 26.2894 24.1922 26.2876 24.1707 26.2575C23.9827 26.0016 24.2698 25.5789 24.3198 25.5063C24.3784 25.4204 24.4032 25.3486 24.4115 25.2841C24.4302 25.1351 24.3668 25.0203 24.4185 24.8657C24.4932 24.6418 24.5867 24.9766 24.6321 24.715C24.726 24.1921 24.7053 23.4416 24.7112 22.8469C24.7128 22.6012 24.5423 22.7688 24.5386 22.7337C24.4954 22.2299 24.6767 21.7074 24.3372 21.3977C25.2149 21.0119 24.252 21.103 24.4278 20.2602C24.442 20.1949 24.857 20.1119 24.918 20.3624C24.9789 20.6171 24.8491 20.9893 24.9441 21.3066C24.9664 21.3833 25.3554 21.8236 25.3789 21.8838C25.5631 22.3312 24.9428 22.3899 24.9087 22.4143C24.541 22.6788 24.9601 23.1876 24.989 23.3018C25.1217 23.8798 25.0345 24.3598 25.1292 24.8079C25.1823 25.0659 25.4958 25.1235 25.5692 25.2841C25.5803 25.3076 25.5859 25.3335 25.5842 25.3628C25.5431 26.1008 24.9763 26.368 25.4678 27.0243C25.5726 27.1654 26.0167 27.0282 25.6675 27.5315C25.6455 27.5623 25.326 27.9252 25.5281 28.134C25.5536 28.1603 25.683 28.1595 25.6939 28.1941C25.7642 28.4258 25.6611 28.5818 25.7105 28.822C25.7598 29.0648 25.8335 29.3558 25.7896 29.6309C25.7633 29.7917 25.5222 29.9972 25.4632 30.0737C25.2931 30.29 25.5719 30.5208 25.366 30.6538C25.159 30.7863 24.8447 30.5304 24.711 30.8724C25.0472 30.885 25.3923 30.914 25.7305 30.9343C25.7282 31.078 25.7223 31.2209 25.7145 31.3631C25.6814 31.962 25.6128 32.529 25.6248 33.0912C25.627 33.177 25.8077 33.0893 25.8147 33.1812C25.8434 33.5684 25.7146 33.9049 25.7659 34.2877C25.8063 34.5862 25.9977 34.9112 26.0459 35.2092C25.6612 35.3922 25.7918 35.8389 25.7566 36.1461C25.7483 36.2205 25.6978 36.2406 25.6559 36.2706C25.6364 36.2845 25.6188 36.3005 25.6082 36.325C25.4842 36.6157 25.8242 36.4793 25.8777 36.5589C26.1061 36.8988 25.3365 36.9246 25.3555 37.3137C25.3562 37.3345 25.7665 37.584 25.792 37.6179C25.9586 37.8338 25.6492 37.654 25.6189 37.7882C25.5635 38.0319 25.4656 38.2 25.5857 38.4796C25.6213 38.562 25.877 38.7539 25.6792 38.908C25.6533 38.9283 25.5177 38.9171 25.5098 38.9334C25.3774 39.2276 25.8035 39.2343 25.9478 39.4001C26.092 39.5656 25.7979 39.8145 25.7132 39.8649C25.4939 39.9969 25.6194 39.7637 25.5979 39.7562C25.3418 39.6716 25.3859 39.8541 25.3643 39.9913C24.9465 40.0115 24.9716 40.2025 25.3435 40.1333C25.3841 40.1255 25.3452 40.019 25.3643 39.9913C25.6316 40.07 25.7469 40.1868 25.6885 40.3211C25.6574 40.3925 25.5768 40.4689 25.4436 40.5473C25.2641 40.6523 25.0548 40.5545 25.1314 40.871C25.1659 41.0136 25.4536 40.9586 25.532 41.0835C25.7109 41.3681 25.4426 41.7268 25.4849 42.0013C25.5002 42.101 25.6577 42.004 25.6736 42.072C25.7163 42.2521 25.5982 42.4079 25.6587 42.5819C25.6644 42.5977 25.8292 42.5592 25.8313 42.6133C25.8477 42.9643 25.7723 43.2624 25.7487 43.5851C25.7449 43.6383 25.7424 43.6919 25.742 43.7463C25.7406 43.9326 25.8315 44.2538 25.8132 44.4288C25.7825 44.7391 25.5429 45.0888 25.6011 45.3173C25.6384 45.4654 25.8032 45.4322 25.9155 45.4943C26.1333 45.6148 25.7433 45.8149 25.6829 45.8397C25.6809 45.841 25.642 45.7247 25.5574 45.7868C25.3811 45.8228 25.6821 45.8384 25.6829 45.8397C25.6605 45.8497 25.6386 45.9291 25.63 46C25.6238 46.1025 25.6211 46.2011 25.6328 46.238C25.6479 46.285 25.8053 46.2638 25.8101 46.2888C25.9264 46.8477 25.8198 47.6261 25.4039 48.3709C25.3951 48.3829 25.2433 48.2945 25.2248 48.3227C24.9652 48.7019 25.0013 49.0631 24.8851 49.4721C24.7706 49.8736 24.5079 50.1347 24.1235 50.1242C24.0275 50.2707 23.8569 50.4135 23.6796 50.531C23.5396 50.624 23.3972 50.7002 23.2883 50.7551C23.043 50.8775 23.2421 51.1525 23.2291 51.1742C22.8077 51.8354 22.3282 51.9581 21.6627 52.3725C21.3542 52.5658 20.7357 52.9954 20.4078 53.2108C20.1452 53.3868 19.9377 53.4036 19.6999 53.5776C19.6684 53.6006 19.7698 53.7195 19.7618 53.7299C19.5522 54.0326 19.5307 53.6315 19.4433 53.6002C19.1256 53.4839 18.9463 53.4274 18.6205 53.6911C18.6043 53.7042 18.5885 53.7433 18.575 53.7961C18.5262 53.9859 18.4727 54.3662 18.357 54.4383C18.1653 54.5565 18.1739 54.3483 17.9747 54.4741C17.9574 54.4846 18.0033 54.5937 17.8666 54.639C17.2454 54.8462 16.5408 54.9997 15.9154 55.1819C15.8283 55.2067 15.9897 55.3567 15.8639 55.3956C15.2722 55.5778 14.6227 55.7157 14.0348 55.7337C13.8909 55.7373 13.9555 55.5925 13.9183 55.5598C13.6937 55.3616 13.4887 55.7406 13.4445 55.7538C13.367 55.7786 13.2904 55.8 13.2145 55.8185C12.2975 56.0383 11.534 55.8504 10.5877 56.0027C10.5347 56.0134 10.0931 56.3803 9.90567 56.0596C9.89129 56.0384 9.71558 55.7124 9.53944 55.9239C9.52809 55.937 9.63971 56.1083 9.43263 56.0811C9.2273 56.054 8.88244 56.14 8.62012 55.929C8.5362 55.8626 8.36753 55.5221 8.07273 55.7377C8.06403 55.7445 7.96262 55.8501 7.84246 55.9266C7.69329 56.0222 7.51389 56.0711 7.47443 55.8384C7.46232 55.7686 7.56761 55.362 7.21586 55.5101C7.14768 55.5383 7.23641 55.654 7.06633 55.677C6.80162 55.7113 6.51938 55.5239 6.16912 55.6144C6.10958 55.6317 5.79439 55.834 5.68595 55.5654C5.66965 55.5236 5.7678 55.4089 5.68127 55.3617C5.28339 55.1413 4.77351 55.0245 4.39881 54.7135C4.26511 54.6023 4.44915 54.4438 4.32639 54.3046C4.20172 54.1653 3.94067 53.9316 3.73254 53.9106C3.51952 53.8867 3.48285 54.3089 3.22143 54.1531C3.04922 54.0477 2.88496 53.929 2.72929 53.7993C1.84124 53.0561 1.20681 51.9534 0.77362 50.6155C0.69758 50.3698 0.637769 50.6185 0.522136 50.241C0.258725 49.4067 0.0632944 48.0339 0.201787 46.8537C0.238934 46.5866 0.314484 46.3441 0.447981 46.1824C0.718246 45.8619 0.821034 46.3167 0.949541 46.0668C1.0111 45.9497 0.617737 45.7536 0.610618 45.7193C0.534205 45.3947 0.766828 45.2183 0.782828 44.9394C0.786554 44.881 0.604988 44.8957 0.610297 44.8457C0.627547 44.6728 0.754794 44.5205 0.79456 44.3618C0.812341 44.29 0.683582 44.2624 0.716459 44.2002C0.794027 44.0515 0.899611 43.9329 1.07391 43.8356C1.08953 43.8274 1.20337 43.9748 1.2542 43.871C1.33731 43.7011 1.54181 43.5522 1.52797 43.3142C1.52353 43.2436 1.26353 43.0952 1.50888 43.08C1.56057 43.0769 1.85212 43.2869 1.66109 43.0012C1.62612 42.9571 1.41306 42.5074 1.71164 42.5498C1.7586 42.557 1.88326 42.595 1.97428 42.6068C2.03371 42.6144 2.07895 42.6106 2.08042 42.5774C2.08021 42.5651 1.92699 42.5034 1.94946 42.4456C2.03124 42.2437 2.18609 42.0773 2.2937 41.8802C2.32285 41.8267 2.13952 41.783 2.18813 41.7059C2.32313 41.4918 2.57335 41.3038 2.79018 41.1827C2.86998 41.1384 2.91407 41.2826 2.92899 41.2894C3.164 41.4071 2.99617 41.1199 3.01158 41.0822C3.10517 40.8567 3.33028 40.88 3.4651 40.7351C3.50328 40.6952 3.38237 40.5887 3.38325 40.5711C3.40031 40.3936 3.4894 40.6736 3.56549 40.6592C3.77968 40.6201 3.96026 40.4941 4.12714 40.3778C4.18854 40.3349 4.02656 40.2172 4.08373 40.1801C4.41953 39.9584 4.82448 39.7934 5.23536 39.7465C5.31273 39.738 5.3169 39.8857 5.34268 39.9102C5.35834 39.9254 5.37287 39.9367 5.38641 39.9446C5.52429 40.0261 5.56461 39.7423 5.58911 39.7064C5.70431 39.5286 5.80907 39.6257 5.94525 39.5614C6.61359 39.2402 7.58307 39.1552 8.35272 39.1444C9.10097 39.1293 9.7659 39.2042 10.4971 39.251C10.7476 39.2674 11.0217 39.282 11.3067 39.2912C11.3779 39.2938 11.318 39.1035 11.38 39.1034C12.1722 39.1106 13.0139 39.2752 13.9353 39.3581C14.0119 39.3654 13.9282 39.1746 14.0525 39.1807C14.3077 39.1919 14.6285 39.2536 14.8781 39.3539C14.9997 39.4025 14.8047 39.5223 14.9274 39.5681C15.2234 39.6772 15.5555 39.7515 15.884 39.7871C16.0242 39.8021 15.8508 39.5841 16.0309 39.6175C16.5808 39.7178 17.214 39.8427 17.8155 39.9963C18.5333 40.1789 19.2861 40.4168 20.0733 40.7561C20.1761 40.8001 20.1744 41.1789 20.4201 41.1727C20.4639 41.0792 20.4943 40.9635 20.5304 40.8606C22.7972 41.4167 25.3707 42.3405 28.678 43.4862C28.8235 43.5366 28.6341 43.2669 28.9163 43.3637C29.0853 43.4216 29.2544 43.4792 29.4236 43.5367C30.861 44.0251 32.4424 44.5565 34.1461 45.3544C34.3353 45.4427 34.108 45.7237 34.7117 45.887C34.8172 45.9149 35.7144 46.192 35.9695 46.2062C36.0044 46.207 35.8973 45.9983 36.1844 46.0979C37.8571 46.6815 39.6158 47.3679 41.1487 48.035C41.395 48.1426 41.0682 48.2034 41.2431 48.2815C42.5397 48.854 43.8219 49.1866 44.8523 49.7259C45.512 50.0764 45.1543 50.2586 45.4256 50.6645C45.4641 50.7219 45.8933 50.8843 45.8585 51.0504C45.772 51.4687 45.4051 51.8281 45.3376 52.2829C45.3226 52.3808 45.938 52.4921 45.515 52.5886C45.4856 52.5947 45.0388 52.5157 44.9083 52.553C44.8175 52.5785 44.8891 52.7864 44.718 52.7992C44.547 52.812 44.4344 52.6187 44.1627 52.6079C43.8909 52.5981 43.9311 52.8198 43.4378 52.6645ZM22.156 51.2581C21.866 51.2755 22.1958 51.7759 22.3225 51.4982C22.3283 51.484 22.1709 51.2566 22.156 51.2581ZM25.1587 32.3819C24.8949 32.6705 25.2828 32.8662 25.4866 32.6638C25.6901 32.4611 25.2387 32.2938 25.1587 32.3819ZM24.9661 29.2085C24.7581 29.59 25.6063 29.6498 25.4348 29.2415C25.4251 29.2177 24.9782 29.1862 24.9661 29.2085ZM43.6403 50.1018C43.6433 50.1113 43.9792 50.2423 43.99 50.2378C44.2354 50.1252 43.5638 49.8636 43.6403 50.1018ZM24.7564 25.6066C24.6416 25.7436 24.7741 26.137 24.9168 25.9672C25.0316 25.8306 24.8991 25.4362 24.7564 25.6066ZM10.9757 54.4456C10.9721 54.437 10.8552 54.4328 10.8591 54.483C10.8718 54.6452 11.0347 54.5936 10.9757 54.4456ZM24.7466 17.4299C24.7147 19.0307 24.014 19.7935 24.093 18.234C24.1073 17.9314 24.3165 18.8863 24.3797 18.501C24.4947 17.8096 24.0548 17.3157 24.2905 16.5145C24.3337 16.3707 24.75 17.3313 24.7476 17.4329C24.7473 17.4319 24.7469 17.4309 24.7466 17.4299ZM21.6093 50.7724C21.6012 50.7691 21.4501 50.8732 21.4509 50.8819C21.483 51.0953 21.7929 50.8821 21.6093 50.7724ZM4.89903 52.7797C4.89912 52.7627 4.63264 52.5665 4.61678 52.5713C4.28475 52.724 4.85361 53.1439 4.89903 52.7797ZM24.0969 43.7361C24.0099 43.6885 23.9578 43.6362 23.9496 43.5851C23.9399 43.5242 23.9927 43.4649 24.1233 43.418C24.1167 43.474 24.113 43.5298 24.1093 43.5851C24.1059 43.6358 24.1026 43.6862 24.0969 43.7361ZM24.5561 14.5122C24.6585 14.4518 24.8025 14.4964 24.9145 14.5642C24.9496 14.5852 24.9412 14.6923 24.9658 14.7115C25.0139 14.7491 25.0516 14.6939 25.0998 14.7394C25.1158 14.755 25.1108 14.9238 25.1273 14.9363C25.2176 15.0036 25.2941 14.9547 25.3825 14.9835C25.8177 15.1258 26.2369 15.156 26.6695 15.1986C26.8122 15.2125 26.9951 15.3509 27.1352 15.273C27.1515 15.2638 27.1298 15.1176 27.1321 15.1052C27.168 14.9158 27.1746 15.2138 27.2108 15.2506C27.3542 15.3959 27.5011 15.3979 27.6229 15.3312C27.6236 15.3308 27.6243 15.3304 27.625 15.3299C27.6725 15.2944 27.5987 15.0171 27.6647 15.1744C27.6694 15.1851 27.6681 15.3423 27.6841 15.3577C27.7205 15.3925 27.7816 15.3596 27.8085 15.37C27.8603 15.3906 27.8684 15.3884 27.9157 15.3865C27.9805 15.3852 28.0634 15.4567 28.1298 15.4159C28.1439 15.4067 28.1117 15.2483 28.1331 15.2192C28.1546 15.1902 28.218 15.1988 28.242 15.2348C28.266 15.2709 28.267 15.3973 28.273 15.4259C28.3228 15.6667 28.3684 15.3241 28.377 15.315C28.5351 15.1597 28.6954 15.3402 28.8542 15.3271C28.9748 15.3167 29.0987 15.2432 29.2142 15.2428C29.3518 15.243 29.4745 15.3205 29.6062 15.2951C29.6201 15.2927 29.5888 15.1059 29.6057 15.1024C29.7859 15.0662 29.9682 15.0724 30.1593 15.1851C30.1785 15.1966 30.1681 15.3636 30.1881 15.3849C30.3099 15.5118 30.5114 15.8239 30.5207 15.0998C30.5982 15.1219 30.6918 15.1437 30.7706 15.2833C30.814 15.3602 30.7998 15.5054 30.8244 15.495C30.8286 15.4933 30.8338 15.4871 30.8407 15.4754C30.8513 15.4573 30.8233 15.301 30.8402 15.2859C30.9116 15.2222 30.9986 15.2669 31.0673 15.1795C31.0813 15.1614 31.0659 15.0206 31.0683 14.9948C31.0884 14.7861 31.1758 15.1216 31.191 15.1453C31.3061 15.3218 31.3738 15.2434 31.4679 15.2405C31.4897 15.2399 31.449 15.0523 31.4695 15.0449C31.5758 15.0092 31.6895 15.0166 31.8024 15.0924C31.8275 15.1097 31.8185 15.2729 31.8312 15.2894C31.8869 15.3604 31.8739 15.0544 31.9268 15.1166C31.9379 15.1293 31.9432 15.268 31.9462 15.2831C31.9938 15.5192 31.9921 15.1794 31.9989 15.1714C32.0843 15.0621 32.172 15.41 32.2583 15.353C32.2686 15.3458 32.2305 15.1727 32.2603 15.1632C32.4588 15.099 32.6767 15.1301 32.888 15.2543C32.9209 15.2733 32.909 15.4065 32.9123 15.4226C32.9642 15.6732 32.9581 15.3324 32.9672 15.3188C33.0401 15.2205 33.1374 15.499 33.1599 15.0908C33.4411 15.1818 33.7026 15.0365 33.9835 15.1488C34.0527 15.1765 34.1231 15.2197 34.1952 15.286C34.1998 15.2899 34.2053 15.4575 34.2145 15.4645C34.3247 15.5502 34.2844 15.2921 34.3274 14.9692C34.3382 14.8881 34.4206 15.2674 34.4274 15.2951C34.4524 15.3973 34.4546 15.6472 34.4618 15.6668C34.5208 15.8206 34.4483 14.9993 34.5111 14.9941C34.5132 14.9953 34.5169 15.1473 34.5233 15.1619C34.5434 15.2078 34.5549 15.1464 34.575 15.1972C34.6212 15.3148 34.6658 15.7132 34.7035 15.4763C34.7082 15.4456 34.6606 14.9802 34.7184 14.9978C34.7414 15.0053 34.8397 14.9894 34.8699 15.0175C34.8999 15.0455 34.8928 15.1972 34.8953 15.2035C34.9856 15.3963 34.9638 15.4809 35.0244 15.7721C35.0849 16.0621 35.0194 15.3641 35.0284 15.2849C35.0376 15.2059 35.1052 15.3655 35.1232 15.4214C35.1411 15.4773 35.1319 15.5741 35.1464 15.6054C35.2422 15.8099 35.1538 15.2558 35.1711 15.1428C35.2119 14.8753 35.3008 15.3898 35.3611 15.4362C35.3775 15.4487 35.3557 15.3316 35.3684 15.3195C35.4188 15.2731 35.464 15.4323 35.5134 15.2792C35.5215 15.2542 35.5464 14.9387 35.5964 15.1648C35.6036 15.1975 35.6009 15.3276 35.6261 15.3548C35.6637 15.3955 35.7277 15.4188 35.761 15.3728C35.7857 15.3387 35.7378 15.1283 35.7772 15.1917C35.7947 15.22 35.7764 15.3468 35.8085 15.3896C35.8404 15.4324 35.9126 15.4212 35.9399 15.4147C35.9671 15.4081 35.9393 15.2479 35.9407 15.2369C35.9492 15.1735 35.996 15.0915 36.0007 15.0913C36.2351 15.053 36.4742 15.3079 36.6968 15.1997C36.7143 15.1914 36.6888 15.0222 36.6914 15.0191C36.7475 14.9429 36.7345 15.3994 36.7896 15.5475C36.7561 15.2025 36.7865 15.2631 36.827 15.2217C36.8465 15.2015 36.8245 15.0687 36.8253 15.0548C36.8404 14.8492 36.8827 15.1099 36.8925 15.1632C36.9287 15.359 36.9326 15.1239 36.9571 15.2548C36.9814 15.3847 36.9645 15.5815 37.006 15.5757C37.008 15.4511 36.9515 15.1304 36.979 15.0755C37.0217 14.9901 37.088 14.9798 37.1581 14.9986C37.2583 15.0254 37.3662 15.1117 37.4239 15.1227C37.5218 15.1414 37.551 15.1162 37.6104 15.1565C37.7176 15.2293 37.6617 14.9925 37.7157 14.8778C37.7699 14.7631 37.7859 15.3554 37.8049 15.4815C37.8238 15.6076 37.8232 15.4763 37.8397 15.5451C37.8562 15.6139 37.8392 15.702 37.8671 15.7262C37.8951 15.7502 37.948 15.5192 37.9467 15.3858C37.9439 15.1034 37.8887 14.8111 37.9653 14.9093C37.9698 14.9151 37.9692 15.0712 37.9855 15.0857C38.1147 15.1957 38.2396 15.1932 38.3675 15.2894C38.3851 15.3029 38.3841 15.4766 38.3945 15.4864C38.5028 15.5889 38.4442 15.3008 38.4733 14.9732C38.495 15.4043 38.546 15.6651 38.6218 15.6617C38.6674 15.6598 38.6448 15.4725 38.6637 15.3378C38.6694 15.2972 38.7118 15.4236 38.7106 15.3348C38.707 15.0445 38.6512 14.7236 38.7393 14.8462C38.7432 14.852 38.7448 15.011 38.7574 15.0196C38.8388 15.0763 38.8241 14.7735 38.9038 14.7304C38.9662 14.6965 39.0959 14.8716 39.172 14.8958C39.2086 15.3795 39.2695 15.2633 39.2715 14.9276C39.3204 14.9375 39.3706 14.9146 39.4204 14.957C39.4376 14.9714 39.4382 15.1123 39.4414 15.1273C39.4909 15.3621 39.4861 15.0361 39.4954 15.0226C39.5976 14.8901 39.7082 15.1288 39.796 14.8801C39.7991 14.8711 39.7787 14.5347 39.8267 14.7777C39.8298 14.7945 39.8066 14.9501 39.8578 14.958C39.909 14.9659 40.018 15.1385 40.0754 14.9773C40.0894 14.9385 40.1105 14.6624 40.1616 14.8728C40.1685 14.9013 40.1711 14.9981 40.1819 15.0512C40.2167 15.2203 40.2015 14.8799 40.2494 15.1663C40.2876 15.3957 40.3396 15.5773 40.3869 15.5355C40.3986 15.5251 40.4101 15.5009 40.421 15.4601C40.4227 15.4542 40.4182 15.1837 40.4406 15.1863C40.4765 15.1905 40.5311 15.2426 40.5678 15.2379C40.5854 15.2356 40.5609 15.0694 40.5637 15.0661C40.6751 14.9631 40.7713 15.1054 40.9036 15.16C40.9279 15.1703 40.9769 14.9372 41.0363 15.1138C41.1014 15.3071 41.1153 16.1315 41.2138 15.927C41.2535 15.8452 41.2295 14.7998 41.3547 15.3325C41.5043 15.1863 41.6742 15.4506 41.8197 15.2471C41.8263 15.2381 41.8262 14.9458 41.8435 14.9484C41.8692 14.9528 41.8938 15.0875 41.9125 15.095C41.9911 15.13 42.051 15.0084 42.1251 15.0207C42.1532 15.0251 42.1547 15.1662 42.1882 15.1715C42.2217 15.1766 42.2291 14.99 42.2807 15.0758C42.3198 15.1411 42.3833 15.5163 42.4314 15.5568C42.4037 15.184 42.435 15.1893 42.4818 15.0866C42.4908 15.0667 42.4693 14.9378 42.473 14.9217C42.488 14.8533 42.5151 14.9593 42.5286 14.885C42.5318 14.8672 42.522 14.7399 42.5241 14.7181C42.5418 14.5281 42.6178 14.8102 42.6309 14.8593C42.681 15.0458 42.6844 14.879 42.7172 14.9514C42.75 15.0238 42.7171 15.1202 42.7522 15.1629C42.8248 15.2514 42.9069 15.2242 42.9736 15.2248C43.0001 15.2243 42.9687 15.0558 42.9722 15.0518C43.0234 15.0044 43.0929 15.1807 43.0965 14.8399C43.2035 15.712 43.1227 14.7524 43.2147 14.9215C43.2219 14.9351 43.2624 15.3483 43.2436 15.4109C43.2248 15.4735 43.1788 15.347 43.1535 15.4442C43.1475 15.4671 43.1336 15.8583 43.1294 15.8823C43.0964 16.0696 43.0409 15.4518 43.0357 15.418C42.9782 15.0538 42.9569 15.4758 42.9449 15.5058C42.8899 15.6432 42.8274 15.5606 42.7801 15.6594C42.7491 15.7232 42.7776 16.1285 42.7485 16.1183C42.6519 16.0847 42.5746 15.5223 42.5253 16.0191C42.5146 16.1251 42.5683 16.5664 42.4732 16.2236C42.4672 16.202 42.3919 15.8875 42.3787 16.0912C42.3771 16.1169 42.3874 16.2459 42.3835 16.2571C42.3568 16.3298 42.3272 16.2287 42.296 16.2807C42.2648 16.3327 42.2284 16.4094 42.1849 16.3688C42.1586 16.3445 42.1087 16.1066 42.0925 16.0487C42.0465 15.8817 42.0334 16.1624 41.997 15.9587C41.9603 15.754 41.9754 15.4375 41.9114 15.3084C41.9359 15.6438 41.9585 15.9882 41.982 16.3256C41.8639 16.323 41.74 16.2237 41.6236 16.2478C41.6092 16.2511 41.6384 16.4302 41.6233 16.4384C41.5596 16.4722 41.4919 16.3483 41.4276 16.4048C41.3779 16.4493 41.3349 16.6447 41.2834 16.6971C41.2193 16.3162 41.1475 16.4529 41.0851 16.4226C41.0632 16.4121 41.0565 16.3095 41.039 16.2773C40.9732 16.1581 41.0262 16.495 41.0151 16.5496C40.9671 16.7824 40.9009 16.0157 40.8247 16.0408C40.8206 16.0418 40.8026 16.4548 40.7976 16.4808C40.7667 16.6503 40.7791 16.339 40.7492 16.311C40.6945 16.2597 40.6518 16.1648 40.6022 16.2893C40.5877 16.3261 40.5666 16.5843 40.5175 16.3897C40.5111 16.3643 40.5029 16.2289 40.4987 16.2213C40.4653 16.1644 40.4533 16.2183 40.4479 16.3084C40.4413 16.4193 40.4447 16.585 40.4308 16.666C40.4055 16.8127 40.3257 16.524 40.3076 16.4404C40.2602 16.2241 40.3233 16.3451 40.3232 16.3235C40.3222 16.0667 40.2844 16.1139 40.2512 16.0948C40.2137 15.6787 40.1716 15.7072 40.2169 16.0767C40.2219 16.1171 40.2434 16.0763 40.2512 16.0948C40.2558 16.5056 40.2114 16.5618 40.1278 16.1842C40.0886 16.0072 40.0958 15.7967 40.0257 15.879C39.9939 15.9162 40.0299 16.2019 40.0056 16.2825C39.95 16.4664 39.8384 16.206 39.7699 16.2538C39.7451 16.2712 39.7828 16.4261 39.7663 16.4434C39.7224 16.4897 39.6714 16.3753 39.6287 16.4393C39.6249 16.4453 39.6483 16.6088 39.6337 16.6121C39.5233 16.64 39.4176 16.5424 39.3005 16.5488C39.244 16.5519 39.1502 16.6505 39.0903 16.6369C38.9865 16.6143 38.843 16.3852 38.761 16.45C38.7075 16.4917 38.7328 16.655 38.7175 16.7689C38.6879 16.9896 38.5746 16.6074 38.5587 16.5481C38.5582 16.5461 38.6037 16.5035 38.5712 16.4212C38.5422 16.2466 38.5592 16.5472 38.5587 16.5481C38.5483 16.5097 38.4483 16.4801 38.4315 16.513C38.4224 16.531 38.4406 16.6863 38.4356 16.6927C38.3168 16.8423 38.1899 16.8921 38.0525 16.8297C38.0499 16.8268 38.0397 16.6523 38.0338 16.6475C37.9515 16.5761 37.9195 16.793 37.8666 16.9245C37.8138 17.0559 37.7606 17.0175 37.6998 16.7214C37.6553 16.7628 37.5769 16.636 37.5314 16.5589C37.4859 16.4818 37.5072 16.8212 37.5043 16.8282C37.4379 16.9917 37.3786 16.9336 37.3068 16.8826C37.2807 16.864 37.2529 16.8464 37.2225 16.8406C37.1683 16.8299 37.0671 16.8874 37.0127 16.929C36.9697 16.9624 36.9361 16.8851 36.8983 16.9392C36.8932 16.9465 36.9108 17.097 36.9096 17.1029C36.8772 17.2872 36.8705 16.9164 36.8556 16.8512C36.8018 16.6143 36.7702 16.4884 36.7193 16.6058C36.7076 16.6327 36.7094 17.1673 36.6868 17.2003C36.6573 17.2423 36.6545 17.0509 36.624 17.0997C36.6214 17.1037 36.6313 17.2212 36.6098 17.2177C36.5101 17.2029 36.3979 17.143 36.2971 17.1628C36.2833 17.165 36.3158 17.35 36.2961 17.3563C36.2036 17.3859 36.0998 17.3871 36.0011 17.3071C35.9767 17.2868 35.9806 17.1552 35.9726 17.1169C35.924 16.8848 35.9082 17.2288 35.9016 17.2359C35.7465 17.4128 35.5935 17.1147 35.4337 17.275C35.4251 17.2844 35.3821 17.6552 35.3254 17.3445C35.3216 17.3239 35.2646 17.006 35.2538 17.2273C35.2532 17.2411 35.286 17.4045 35.2502 17.3904C35.2144 17.3763 35.1676 17.4909 35.106 17.3134C35.0865 17.2575 35.0258 16.9406 35.0012 17.199C34.9997 17.217 34.9761 17.7985 34.9201 17.403C34.9109 17.3379 34.8819 16.9169 34.8455 17.1368C34.8386 17.1794 34.8645 17.2718 34.8423 17.3325C34.8082 17.426 34.7448 17.3177 34.709 17.509C34.7028 17.5429 34.6877 17.8314 34.6405 17.6171C34.6331 17.5835 34.631 17.4424 34.6138 17.4279C34.5322 17.3585 34.4603 17.4587 34.3758 17.3676C34.3459 17.3356 34.3419 17.1075 34.3087 17.0489C34.2755 16.9903 34.2138 16.9363 34.1922 17.0424C34.1707 17.1485 34.2317 17.5078 34.1895 17.5403C34.1841 17.5444 34.1787 17.5483 34.1732 17.5519C33.9938 17.6698 33.7919 17.4837 33.6021 17.4683C33.5731 17.466 33.607 17.5936 33.565 17.5994C33.4102 17.6213 33.151 17.7639 32.9943 17.4994C32.8687 17.2876 32.9916 17.1091 32.9018 17.026C32.8585 16.9864 32.8486 17.4104 32.84 17.4244C32.7565 17.5664 32.6764 17.3852 32.5962 17.4491C32.5797 17.4623 32.6103 17.6314 32.5961 17.6408C32.5475 17.6744 32.4881 17.6025 32.4406 17.6203C32.4194 17.6286 32.4336 17.7585 32.4128 17.7501C32.363 17.7313 32.3163 17.6799 32.2599 17.5616C32.2547 17.5508 32.2707 17.3865 32.2347 17.3833C32.1765 17.3786 32.0957 17.2638 32.0394 17.3934C32.0227 17.4323 32.0454 17.73 31.9871 17.5278C31.9748 17.4855 31.9579 17.1273 31.9332 17.4399C31.9289 17.4919 31.8793 17.9149 31.8176 17.6496C31.8014 17.5798 31.751 17.2895 31.7311 17.3374C31.7284 17.345 31.7539 17.5038 31.7356 17.5209C31.6708 17.5785 31.5972 17.5672 31.5304 17.6228C31.5126 17.638 31.5538 17.8012 31.5268 17.8186C31.4527 17.8665 31.3526 17.832 31.2728 17.7862C31.2434 17.769 31.2518 17.6304 31.2486 17.6157C31.1968 17.3757 31.2033 17.7046 31.194 17.7246C31.1356 17.8442 31.0721 17.6945 31.0131 17.7401C30.9968 17.7523 31.0213 17.9074 31.019 17.9216C31.0183 17.9256 31.0176 17.9294 31.0169 17.9327C30.9945 18.0441 30.9978 17.7771 30.9737 17.7488C30.904 17.6663 30.8349 17.6844 30.773 17.7093C30.7503 17.7187 30.7908 17.8977 30.7702 17.904C30.6487 17.945 30.5185 17.9378 30.3897 17.8476C30.3654 17.8303 30.3688 17.6898 30.3615 17.6583C30.3112 17.4382 30.2873 17.7457 30.2785 17.7756C30.2388 17.9116 30.2096 17.7899 30.1671 17.8164C29.9597 17.9481 29.6861 17.8875 29.4779 17.8532C29.2066 17.8093 28.9896 17.693 28.7385 17.7475C28.7225 17.7508 28.7534 17.9349 28.7398 17.9401C28.5638 17.999 28.3813 17.9405 28.2056 18.0083C28.1912 18.0135 28.2264 18.1876 28.2036 18.2019C28.1572 18.2325 28.0948 18.2278 28.0413 18.1755C28.0152 18.1504 28.0354 17.997 28.0094 17.9748C27.9487 17.9227 27.8875 17.9149 27.832 17.9476C27.8319 17.9477 27.8318 17.9478 27.8317 17.9479C27.809 17.9638 27.8595 18.1388 27.828 18.1434C27.6119 18.1784 27.4009 18.2262 27.1628 18.0108C27.1465 17.996 27.1044 17.6316 27.0779 17.7042C27.0835 17.8058 27.093 17.9251 27.1005 18.0335C26.7887 18.1169 26.4654 18.015 26.1464 18.0205C26.133 18.0207 26.1714 18.2125 26.1455 18.214C25.9953 18.223 25.8539 18.2881 25.6853 18.1078C25.6686 18.0902 25.6496 17.749 25.6088 17.804C25.6016 17.8141 25.5376 17.8648 25.526 17.9401C25.5245 17.9515 25.5494 18.1095 25.528 18.1158C25.4034 18.1499 25.268 18.1241 25.1341 18.037C25.1124 18.0226 25.1208 17.8516 25.1052 17.8399C24.9952 17.7581 24.8934 17.8957 24.7828 17.7497C24.7088 17.6515 24.7101 17.3569 24.6524 17.0716C24.6442 17.0314 24.6029 17.0282 24.5876 16.8607C24.5489 16.4398 24.5322 15.9768 24.4887 15.5282C24.4793 15.4316 24.4329 15.5401 24.4468 15.3038C24.4478 15.2879 24.4813 15.2072 24.4848 15.1271C24.4872 15.0718 24.4615 14.9023 24.4699 14.831C24.4782 14.7598 24.5047 14.9014 24.5211 14.8172C24.5375 14.7319 24.5121 14.5388 24.5561 14.5122ZM37.3268 16.2143C37.2777 16.0543 37.3194 16.6511 37.3474 16.5053C37.3487 16.4976 37.3293 16.2221 37.3268 16.2143ZM41.7052 15.7739C41.637 15.5146 41.6351 15.9039 41.6846 16.1044C41.7341 16.3047 41.7259 15.8524 41.7052 15.7739ZM42.1814 15.543C42.1097 15.34 42.1677 16.1863 42.2135 16.0107C42.2162 16.0008 42.1856 15.5548 42.1814 15.543ZM24.8082 16.9768C24.807 16.9689 24.7771 16.9635 24.777 16.9714C24.7764 17.162 24.8362 17.1727 24.8082 16.9768ZM42.6526 15.2955C42.6262 15.1824 42.5869 15.3184 42.6196 15.459C42.6459 15.572 42.6853 15.4361 42.6526 15.2955ZM35.3856 15.7271C35.3844 15.7183 35.3627 15.7119 35.3671 15.7621C35.3813 15.9238 35.4069 15.8758 35.3856 15.7271ZM43.4806 15.2203C43.3556 15.1981 43.2262 14.5055 43.3658 14.5738C43.3911 14.5861 43.3314 14.8006 43.3671 14.8612C43.4324 14.9715 43.4351 14.5299 43.511 14.7604C43.5248 14.8026 43.4879 15.2231 43.4805 15.2213C43.4805 15.221 43.4806 15.2206 43.4806 15.2203ZM37.2494 15.4997C37.248 15.4918 37.2184 15.4867 37.2183 15.4945C37.2175 15.6851 37.2773 15.6956 37.2494 15.4997ZM34.1302 15.4552C34.1273 15.4385 34.0586 15.4281 34.0576 15.4438C34.0468 15.7562 34.1859 15.7781 34.1302 15.4552ZM39.1742 14.9086C39.1909 14.7156 39.2271 14.6902 39.2713 14.9274C39.2387 14.9172 39.2068 14.9178 39.1742 14.9086Z" fill="black"/>
</svg>
