<svg width="56" height="60" viewBox="0 0 56 60" fill="none" xmlns="http://www.w3.org/2000/svg">
<path d="M4.04545 14.3037C4.13916 15.122 4.14348 16.2021 4.1163 17.0275C4.10794 17.2852 3.99434 17.1617 3.98391 17.3403C3.97261 17.5361 3.99024 17.7233 4.00317 17.9116C4.01329 18.0589 4.02036 18.2045 4.00833 18.3566C3.99875 18.4711 3.82221 18.3405 3.81602 18.4603C3.78353 19.1197 3.86694 19.7336 3.87676 20.3988C3.88915 21.247 3.91174 22.0923 3.94226 22.9347C4.00273 24.6021 4.09448 26.2657 4.20383 27.9422C4.25164 28.6779 4.30471 29.4352 4.35921 30.1829C4.42055 31.0245 4.42395 32.0195 4.5128 32.9451C4.53843 33.2122 4.56933 33.4581 4.61308 33.7161C4.63569 33.8471 4.77339 33.7521 4.78827 33.7758C5.01705 34.1458 4.70674 34.0491 4.69627 34.3059C4.65743 35.3382 4.78132 36.4489 4.97326 37.4093C5.05479 37.8105 5.28634 37.3594 5.18361 37.8012C5.17683 37.8319 5.00666 37.7489 5.00663 37.8652C5.00665 37.8814 5.00704 37.8984 5.00776 37.9161C5.01804 38.1833 5.10736 38.6082 5.12681 38.801C5.16245 39.1758 5.17444 39.2387 5.2359 39.5991C5.31665 40.0746 5.35371 40.6747 5.51371 41.1456C5.54936 41.2481 5.66807 41.0726 5.73774 41.2241C5.79201 41.3562 5.94675 41.7895 5.87896 41.7102C5.72168 41.5843 5.66495 41.7275 5.62364 41.7254C4.31935 41.6908 4.92057 42.1429 4.78084 41.771C4.76688 41.6382 4.75068 41.4812 4.75912 41.4458C5.08462 40.1097 5.72075 39.1045 6.21945 37.9667C6.60162 37.0994 6.96988 36.1593 7.37543 35.347C7.69967 34.6983 8.03286 34.1305 8.35728 33.5519C8.51577 33.269 8.67787 32.9734 8.82789 32.6821C8.87804 32.5853 8.65131 32.6092 8.71249 32.4905C9.37441 31.2084 10.0986 29.9806 10.9475 28.8312C11.0337 28.7147 11.0783 28.9597 11.1728 28.8486C11.7374 28.1778 12.7653 27.1878 12.4488 26.3687C12.5782 26.1933 12.7185 26.0036 12.8661 25.8162C13.1211 25.4919 13.3927 25.1818 13.6608 24.9625C13.9348 24.7387 13.8892 25.1131 14.0703 24.728C14.1116 24.6412 13.9113 24.6488 13.9833 24.5254C14.2889 24.0028 14.7187 23.5121 15.0162 22.9928C15.0765 22.8868 14.9444 22.8263 14.9452 22.7835C14.9585 22.428 15.5272 22.2598 15.6108 22.1958C16.2505 21.6937 16.5655 21.203 17.0543 20.6461C17.1679 20.5174 16.891 20.5456 16.9956 20.4169C17.4569 19.8542 17.9706 19.3049 18.5126 18.82C18.6115 18.7315 18.7113 18.6451 18.8118 18.5613C18.9569 18.441 18.9516 18.6775 19.0267 18.6261C19.3562 18.3999 19.2025 18.1214 19.5199 17.9033C19.5868 17.8572 19.651 17.9882 19.6721 17.9889C20.0012 18.0025 19.9096 17.6223 19.9477 17.576C20.4204 16.9897 21.0067 16.9378 21.5158 16.4348C21.577 16.3743 21.3156 16.3663 21.4951 16.2044C22.6875 15.1276 24.1069 14.1474 25.5477 13.4476C25.7708 13.3393 25.6868 13.5431 25.7087 13.5489C25.7479 13.559 25.7823 13.5632 25.8124 13.5626C26.0466 13.5588 26.0313 13.258 26.0882 13.2124C26.6005 12.8129 27.2548 12.7972 27.4664 12.2446C29.6202 11.33 31.8604 10.4769 34.2154 10.3986C34.5859 10.3861 34.9632 10.3928 35.3258 10.4222C35.3597 10.4245 35.3089 10.5951 35.3762 10.5991C36.1875 10.6586 36.0199 10.4076 36.5742 10.0876C36.7199 10.0075 37.1289 10.4044 37.1597 10.435C37.287 10.5444 37.139 10.7876 37.1821 10.8096C37.5311 10.9851 37.5214 10.1561 38.0354 10.1959C38.0511 10.1986 37.9699 10.3441 38.011 10.3627C38.1378 10.4209 38.2753 10.3733 38.3986 10.4388C38.6784 10.591 38.7322 10.999 39.1933 10.8296C39.2538 10.8089 39.2487 10.3317 39.69 10.4266C39.8646 10.4608 40.6524 10.6081 40.8657 10.6931C41.0782 10.7736 40.8877 10.884 40.902 10.894C41.4216 11.2243 41.1785 11.2515 41.3754 11.6067C41.5668 11.9624 41.6931 11.2709 41.831 11.228C41.9694 11.1846 42.3337 11.4651 42.4168 11.5524C42.5003 11.6386 42.344 11.6897 42.4237 11.7489C42.9523 12.1431 42.7976 11.5049 43.032 11.4656C43.0872 11.4567 43.1391 11.4551 43.1879 11.4594C43.6315 11.4996 43.8151 12.0249 44.1649 12.2164C44.2703 12.2744 44.2228 12.1269 44.3251 12.157C44.7333 12.2819 44.8854 12.5253 45.3889 12.5993C45.4698 12.6103 45.9612 12.5024 46.0898 12.8296C46.1072 12.8762 45.961 12.9455 46.1084 13.0561C46.3299 13.2211 46.7326 13.4802 46.9983 13.5906C47.2019 13.6762 47.0929 13.36 47.2969 13.5623C47.3863 13.6524 47.1303 13.6407 47.3018 13.8004C47.4735 13.958 47.9532 14.27 48.1302 14.3924C48.3084 14.5131 48.3056 14.3128 48.326 14.3138C48.4502 14.3237 48.8293 14.5072 48.8619 14.5337C50.1458 15.4912 51.0664 16.671 51.9837 17.8616C52.1605 18.0918 52.3366 18.3222 52.5153 18.5532C52.6019 18.6659 52.6885 18.4912 52.7031 18.5074C53.0405 18.877 52.4471 18.8086 52.5076 19.175C52.7701 18.9443 52.831 19.1468 53.0432 19.421C53.1453 19.5534 53.2133 19.4069 53.2329 19.4127C53.537 19.5225 53.3949 19.8069 53.3691 19.8706C53.2763 20.1086 53.565 20.1499 53.5005 20.3112C53.4356 20.4701 53.1465 20.338 53.2994 20.6252C53.4522 20.6509 53.6273 20.2826 53.7898 20.4841C54.4299 21.2438 54.8189 23.0318 54.963 23.7711C55.1301 24.5158 55.194 24.7535 55.2318 25.1963C55.2827 25.9984 55.4718 25.6713 55.6472 26.1573C55.8127 26.6492 55.1959 26.4637 55.0774 26.5482C54.9577 26.6289 55.095 26.6912 55.0327 26.7826C54.9702 26.8727 54.8688 26.6982 54.859 26.8976C54.8515 27.0946 55.1037 27.6256 55.2367 27.6958C55.5067 27.8326 55.7825 27.6052 55.731 28.0484C55.7279 28.0734 55.7237 28.1006 55.7183 28.13C55.7123 28.1614 55.5562 28.0606 55.541 28.1805C55.4248 29.1291 55.3375 30.1094 55.0803 31.0186C55.0447 31.1431 54.8928 31.0013 54.8701 31.0729C54.6233 31.8122 54.9586 31.5918 55.1855 32.0861C54.7833 31.8982 54.483 32.0723 54.3326 32.6282C54.2386 32.9633 54.4352 32.9565 54.4973 33.2146C54.516 33.2929 54.3171 33.4933 54.3869 33.5635C54.6135 33.7967 55.0025 33.6731 54.6741 34.2211C54.6591 34.2446 54.5392 34.1095 54.4983 34.1945C54.2282 34.7391 54.4845 34.9183 54.2484 35.547C54.0649 36.0382 53.4738 36.781 53.1423 37.2648C52.7321 37.0088 52.549 37.5213 52.7008 37.8935C52.5851 38.056 52.4692 38.2287 52.347 38.3949C52.2346 38.5478 52.1202 38.6909 51.9966 38.8172C51.9077 38.9079 51.8464 38.7566 51.8246 38.7601C51.4904 38.8052 51.6441 39.1324 51.6016 39.2053C51.1267 39.9824 50.4633 40.327 50.0065 41.0843C49.9907 41.1105 50.1817 41.3944 49.8449 41.3666C49.823 41.3633 49.9283 41.0633 49.6246 41.3188C49.3204 41.5757 48.6335 41.9049 48.2724 42.3546C48.1897 42.4617 48.0684 42.8825 47.7209 42.8556C47.6748 42.8513 47.6543 42.749 47.5814 42.7327C47.3487 42.6805 47.4549 43.0175 47.1331 42.8776C46.8138 42.7356 46.3564 42.7629 45.9895 43.1871C45.9777 43.2 45.9925 43.499 45.8366 43.5747C45.5893 43.6954 45.2115 43.8162 44.9469 43.9371C44.8201 43.9953 44.9701 44.1116 44.9492 44.1243C44.4799 44.3935 44.056 44.5325 43.5884 44.6537C43.2524 44.7401 42.8819 44.8191 42.4891 44.908C42.317 44.9481 41.8725 45.3105 41.4799 45.2184C41.0567 45.1135 41.2464 44.2333 40.4539 44.6021C40.1474 44.7433 39.8777 45.8566 39.1503 45.4101C37.9419 45.7072 36.7563 45.4962 35.5385 45.6758C35.4837 45.6838 35.3028 45.9727 35.1693 45.9654C34.9721 45.9542 34.8679 45.8142 34.7272 45.7998C34.1316 45.735 33.5827 45.8125 33.0342 45.7414C32.9798 45.7345 32.9452 45.7204 32.9196 45.7028C32.8455 45.652 32.8465 45.5728 32.659 45.5466C32.4069 45.5108 32.214 45.6751 31.8756 45.5399C31.6239 45.4371 31.3982 45.0215 31.0811 44.9256C31.009 45.2923 30.783 45.2498 30.3533 45.2726C30.2704 45.277 30.3324 45.4205 30.2919 45.4292C30.126 45.4671 30.0033 45.3342 29.8425 45.3772C29.8033 45.3874 29.777 45.5124 29.7435 45.5277C29.456 45.6635 29.097 45.2934 29.0372 45.2286C28.8046 44.9832 28.6398 45.1155 28.4448 44.993C28.2616 44.8727 28.58 44.8523 28.3598 44.7532C27.9055 44.5487 27.2815 44.4071 26.7854 44.2596C26.5875 44.2016 26.6759 44.404 26.6465 44.3995C26.2214 44.3233 25.8541 44.0211 25.5195 44.2716C25.5077 43.3467 25.257 44.2799 24.7417 43.924C24.7011 43.8954 24.7776 43.4834 24.9666 43.4823C25.1553 43.481 25.3718 43.6883 25.6336 43.6712C25.6961 43.668 26.1496 43.4013 26.1999 43.3916C26.6068 43.3223 26.4809 43.9304 26.4908 43.9691C26.6035 44.386 27.1255 44.097 27.237 44.0969C27.7554 44.1008 28.1386 44.2871 28.5562 44.289C28.8427 44.2936 28.9617 43.9037 29.1704 43.9632C29.8601 44.1559 30.0027 44.761 30.74 44.3936C30.8962 44.3136 30.8342 43.8547 31.2654 44.2787C31.2811 44.3039 31.6277 44.6809 31.8762 44.5105C31.9075 44.4891 31.9243 44.3608 31.9621 44.355C32.2148 44.3182 32.3633 44.441 32.631 44.4223C32.7621 44.4129 32.9056 44.3982 33.0513 44.3936C33.2027 44.3889 33.3565 44.395 33.5031 44.4299C33.6775 44.4713 33.8791 44.7278 33.9675 44.7928C34.2104 44.98 34.4936 44.7154 34.6375 44.9277C34.7858 45.1409 34.4632 45.4428 34.8738 45.5924C34.9008 45.2569 34.9471 44.9132 34.9816 44.5759C35.8453 44.615 36.7046 44.7105 37.5861 44.633C37.6934 44.623 37.5706 44.4508 37.6845 44.4353C38.1633 44.3692 38.5815 44.4553 39.0925 44.3333C39.479 44.2389 39.8647 43.9801 40.2402 43.8563C40.5379 44.1918 41.1342 43.9274 41.5563 43.8486C41.707 43.8208 41.7241 43.9224 41.8383 43.9256C42.2675 43.932 41.9868 43.658 42.0782 43.5758C42.4476 43.2282 42.7282 43.9154 43.2582 43.7377C43.2677 43.7344 43.2773 43.7308 43.287 43.7269C43.3188 43.7158 43.5226 43.201 43.557 43.159C43.7916 42.8869 43.6589 43.2727 43.8563 43.226C44.2131 43.1395 44.4916 43.1261 44.8388 42.8286C44.9406 42.741 45.0947 42.3804 45.3991 42.443C45.4394 42.451 45.4871 42.5792 45.5137 42.5741C45.9924 42.4673 45.7883 42.0893 45.9471 41.8312C46.1023 41.5749 46.5992 41.6082 46.7171 41.6315C47.021 41.6951 46.6268 41.8022 46.6276 41.8259C46.6445 42.1179 46.8808 41.9182 47.0858 41.8063C47.3461 42.136 47.6075 41.9262 47.297 41.6882C47.2632 41.6624 47.1357 41.7964 47.0858 41.8063C47.0322 41.3492 47.2683 41.1242 47.8199 41.1879C48.0757 41.2171 48.0671 41.4946 48.4683 41.0773C48.647 40.8865 48.387 40.7281 48.5069 40.5248C48.7702 40.0697 49.4444 39.8039 49.7763 39.3912C49.896 39.2424 49.6545 39.2687 49.7314 39.1639C49.9301 38.8891 50.2241 38.7342 50.3979 38.4295C50.4133 38.4019 50.2381 38.3554 50.304 38.272C50.5363 37.9744 50.7622 37.7078 50.988 37.429C51.2444 37.1118 51.4954 36.7858 51.7265 36.402C51.9409 36.0534 52.2043 35.3657 52.3947 34.9937C52.7356 34.3523 53.2808 33.5853 53.4086 32.9572C53.4916 32.5513 53.3054 32.5924 53.2443 32.3953C53.1246 32.0219 53.6322 31.5383 53.7066 31.4651C53.71 31.4628 53.6726 31.8173 53.7956 31.6505C53.9915 31.5789 53.7066 31.4687 53.7066 31.4651C53.7596 31.4224 53.9234 30.7318 53.908 30.5874C53.9021 30.5095 53.7414 30.5291 53.7411 30.4893C53.7366 29.6733 53.7441 28.8768 53.7727 28.0683C53.7772 27.9402 53.7822 27.8117 53.7877 27.6828C53.7903 27.6661 53.9658 27.6851 53.9696 27.6455C54.0249 27.0892 53.7792 26.7509 53.6003 26.3251C53.4193 25.8982 53.4009 25.5523 53.6444 25.2328C53.5441 24.9066 53.5602 24.4013 53.561 24.1035C53.5622 23.8048 53.223 23.8646 53.2101 23.8429C52.7827 23.1787 52.8152 22.7002 52.5234 21.9585C52.3877 21.6062 51.9988 20.9502 51.7613 20.624C51.5742 20.3617 51.5394 20.1539 51.3337 19.9304C51.3059 19.9003 51.2014 20.0173 51.1898 20.0102C50.8572 19.8359 51.2516 19.7619 51.2682 19.6675C51.3267 19.3274 51.3411 19.1201 50.9888 18.8406C50.9604 18.8182 50.8684 18.8147 50.7555 18.8159C50.545 18.8173 50.2634 18.8378 50.1748 18.762C49.9977 18.6105 50.1986 18.5523 50.0071 18.3996C49.9907 18.3868 49.9048 18.4668 49.8122 18.3536C49.3845 17.8328 48.8773 17.2365 48.3326 16.7882C48.2573 16.7256 48.2314 16.9489 48.1212 16.8617C47.5918 16.4434 47.0368 16.0273 46.5527 15.608C46.4328 15.5039 46.5841 15.446 46.5759 15.3944C46.5191 15.0772 46.0814 15.2112 46.0385 15.1936C44.9799 14.7573 44.2466 14.0566 43.0074 13.7373C42.9595 13.7254 42.6396 13.7965 42.4028 13.7174C42.299 13.6826 42.2128 13.6191 42.1731 13.5052C42.1647 13.4802 42.0362 13.099 41.7662 13.2463C41.7498 13.2557 41.8389 13.4558 41.5987 13.365C41.3574 13.2741 40.9379 13.2716 40.6615 13.0169C40.5802 12.9378 40.401 12.5635 40.0169 12.7443C39.9855 12.7542 39.3778 13.2239 39.2952 12.8078C39.2818 12.7398 39.3924 12.3275 38.9793 12.4827C38.9016 12.5136 39.0116 12.6247 38.8178 12.656C38.5285 12.7058 38.1503 12.5475 37.7865 12.7066C37.7204 12.7342 37.4471 13.0005 37.2586 12.7736C37.2285 12.738 37.2979 12.6003 37.1897 12.5792C36.6786 12.4787 36.0956 12.5722 35.5572 12.5022C35.3637 12.4782 35.4493 12.2451 35.2427 12.197C35.0456 12.1496 34.6348 12.129 34.4279 12.2468C34.4217 12.2503 34.4157 12.2539 34.4099 12.2576C34.2097 12.3867 34.4828 12.718 34.1757 12.7868C32.8557 13.0906 31.4982 13.2231 30.1853 13.6871C29.9921 13.7563 30.1967 13.8156 29.9181 13.9281C29.0844 14.2585 27.8459 14.9554 26.8995 15.3961C26.6715 15.4995 26.4584 15.5856 26.268 15.6423C25.4795 15.8848 26.2333 15.2002 25.6694 15.4568C25.3949 15.5842 25.3656 16.1158 25.3173 16.1655C24.8294 16.668 24.3318 16.8061 23.8712 17.2394C23.7774 17.3286 23.9824 17.3846 23.9019 17.4588C23.6284 17.7133 23.2761 17.9047 23.0111 18.1491C22.8927 18.2591 23.0005 18.3387 22.8818 18.428C22.599 18.6436 22.3308 18.8098 21.9917 18.9553C21.9606 18.9687 22.0087 18.7037 21.8095 18.8789C21.4886 19.1623 21.0155 19.4483 20.7535 19.8869C20.6759 20.018 20.884 20.231 20.5164 20.3114C20.4421 20.3281 20.2538 20.0374 20.2106 20.4544C20.2092 20.4684 20.208 20.4832 20.2069 20.4988C20.1988 20.58 20.0798 21.3125 19.679 21.3534C19.573 21.364 19.2175 21.3184 19.1325 21.4822C19.1219 21.505 19.3056 21.5404 19.2191 21.6603C18.9129 22.0808 18.545 22.4802 18.2413 22.9222C18.1608 23.0401 18.4235 22.9839 18.3 23.1561C17.9608 23.6288 17.4759 24.1684 17.0859 24.5906C16.9422 24.7455 16.9218 24.5466 16.9006 24.5495C16.5569 24.5978 16.7301 24.9135 16.6965 24.9898C16.485 25.461 16.1275 25.6873 15.8865 26.0926C15.8198 26.2043 16.0007 26.2207 15.997 26.2498C15.953 26.5461 15.8395 26.221 15.7161 26.3409C15.4443 26.6045 15.2068 26.9334 14.9922 27.2657C14.9342 27.3556 14.8783 27.4451 14.8242 27.533C14.7317 27.6839 14.9932 27.6205 14.9087 27.7546C14.42 28.5379 13.8685 29.3682 13.3102 30.0897C13.2027 30.2289 13.1407 30.0622 13.0944 30.0767C12.7719 30.1759 12.8445 30.6472 12.8272 30.7333C12.7461 31.1286 12.5688 31.1864 12.4177 31.4919C11.9098 32.523 11.2594 33.6746 10.6661 34.7485C10.4003 35.2294 10.1593 35.6658 9.92501 36.1052C8.97703 37.8895 8.19625 39.2938 7.51913 41.0754C7.47503 41.1923 7.69412 41.144 7.65903 41.2441C7.51235 41.6624 7.33471 42.1282 7.19694 42.5407C0.372645 44.3727 3.98381 40.9785 2.76531 40.7275C2.73731 40.6066 2.59898 40.8174 2.5481 40.6222C2.44537 40.2359 2.36511 39.7142 2.36127 39.3346C2.35752 39.1403 2.54782 39.3714 2.54106 39.176C2.52939 38.8709 2.50478 38.587 2.46196 38.2876C2.43862 38.1243 2.40772 37.9422 2.37657 37.7926C2.33795 37.6055 2.19908 37.9158 2.16278 37.6697C1.94316 36.1901 1.74778 34.7361 1.73379 33.2441C1.73179 33.0175 1.73353 32.7851 1.7404 32.5539C1.74427 32.4364 2.09821 32.2973 2.00279 32.056C1.89969 32.0476 1.78077 32.0608 1.67178 32.0637C1.50891 30.7739 1.4075 29.487 1.32205 28.1984C1.24425 27.0246 1.18001 25.8521 1.09606 24.6715C1.08863 24.5674 0.909239 24.7626 0.893868 24.5609C0.858383 24.0955 0.814922 23.6328 0.782692 23.1721C0.734049 22.4766 0.710165 21.7759 0.775844 21.0497C0.78643 20.9295 1.13144 20.9678 1.05575 20.6208C1.04199 20.5595 0.96077 20.0357 0.877826 19.9049C0.865435 19.8872 0.712724 19.9938 0.696791 19.8246C0.646084 19.2689 0.614625 18.6915 0.604535 18.1223C0.596419 17.6791 0.600931 17.2409 0.618342 16.8124C0.625009 16.6511 0.804464 16.8119 0.810699 16.6971C0.853951 15.8881 0.677311 15.016 0.793034 14.2467C0.870798 13.7222 1.17362 13.9002 1.44886 13.6127C1.48765 13.5718 1.47908 13.2556 1.64631 13.2318C2.06661 13.1704 2.53612 13.3006 2.98327 13.2171C3.07948 13.1988 2.95577 12.7867 3.20148 13.0227C3.2179 13.0389 3.30991 13.3388 3.39305 13.4106C3.45051 13.4603 3.61675 13.3578 3.69221 13.4612C3.76763 13.5647 3.63019 13.6894 3.72167 13.8642C3.81419 14.0377 4.00465 13.9545 4.04545 14.3037ZM53.5121 22.7597C53.571 22.4474 52.9984 22.6252 53.2319 22.8428C53.2438 22.8531 53.5094 22.7755 53.5121 22.7597ZM36.7169 45.1456C37.0959 45.3961 37.3215 44.9929 37.0577 44.8032C36.7978 44.6122 36.6035 45.0692 36.7169 45.1456ZM32.9714 45.2076C33.3719 45.4552 33.5082 44.6154 33.0539 44.7447C33.0401 44.7484 33.0121 44.8702 32.9916 44.9879C32.9739 45.0894 32.9618 45.188 32.9697 45.2053C32.9702 45.2064 32.9708 45.2071 32.9714 45.2076ZM1.59484 14.8728C1.60254 14.8683 1.59839 14.6403 1.59027 14.6354C1.39421 14.5239 1.40263 14.9801 1.59484 14.8728ZM29.2278 44.8233C29.3375 44.965 29.7447 44.9131 29.6092 44.7396C29.5018 44.6011 29.0934 44.6483 29.2278 44.8233ZM44.0715 12.4937C44.0707 12.4836 43.9221 12.415 43.9073 12.4635C43.8606 12.6193 44.0857 12.6614 44.0715 12.4937ZM23.0801 42.9922C23.9705 43.3608 24.2875 44.2101 23.3228 43.7804C23.1484 43.7015 23.7865 43.7118 23.5796 43.5691C23.2041 43.3096 22.7686 43.6156 22.4203 43.2268C22.3592 43.1572 23.0313 42.9711 23.082 42.9919C23.0814 42.992 23.0807 42.9921 23.0801 42.9922ZM54.1311 22.3616C54.137 22.3535 54.0627 22.1385 54.053 22.1364C53.8328 22.0922 53.9805 22.5196 54.1311 22.3616ZM34.7236 10.63C34.7127 10.6176 34.4002 10.635 34.2449 10.6555C34.1959 10.6617 34.1624 10.6677 34.1587 10.6718C34.076 10.7901 34.1507 10.8553 34.2707 10.8793C34.497 10.9235 34.8959 10.8291 34.7236 10.63ZM53.1264 37.2661C53.1614 37.5808 53.0133 37.8565 52.7016 37.8927C52.8507 37.6896 52.9869 37.4764 53.1264 37.2661ZM35.5065 1.50084C35.5756 1.8492 35.542 2.30902 35.4822 2.65789C35.4636 2.76723 35.3551 2.7175 35.3376 2.79315C35.3034 2.94105 35.3618 3.07424 35.3195 3.22018C35.305 3.26855 35.1345 3.21728 35.1231 3.26781C35.0619 3.54459 35.1167 3.80007 35.0939 4.07634C34.9829 5.47534 34.9798 6.80966 34.9628 8.20713C34.9575 8.67188 34.8285 9.23689 34.9143 9.70458C34.9244 9.75919 35.0704 9.72044 35.0829 9.7304C35.2754 9.88671 34.9759 9.8443 34.9407 9.9527C34.8019 10.3843 34.8066 10.8446 34.8798 11.2676C34.8803 11.2701 34.8808 11.2725 34.8813 11.2749C34.9193 11.4384 35.1947 11.2576 35.0396 11.4395C35.029 11.4522 34.8709 11.4134 34.856 11.4625C34.8227 11.574 34.8586 11.7809 34.8494 11.8661C34.8309 12.0304 34.8335 12.0573 34.8374 12.2114C34.8414 12.422 34.7728 12.6741 34.8164 12.8967C34.8261 12.9442 34.9842 12.8752 35.0142 12.9504C35.0442 13.0258 35.0378 13.2276 35.0024 13.2966C34.967 13.3657 34.8399 13.3413 34.8115 13.3543C34.5711 13.4615 34.9169 13.6811 34.9263 13.7105C35.0879 14.2602 34.9116 14.75 34.9286 15.2669C34.942 15.6604 35.0183 16.0758 35.0205 16.4448C35.0223 16.8778 34.9466 17.2793 34.9732 17.711C34.9758 17.757 35.163 17.698 35.1665 17.7541C35.2044 18.3506 35.1983 18.9371 35.084 19.5202C35.0723 19.5787 34.905 19.5075 34.8835 19.5661C34.7558 19.9375 34.4406 20.5234 35.1657 20.7247C35.1423 20.9719 35.1185 21.27 34.9769 21.4904C34.8988 21.612 34.7538 21.5319 34.7636 21.6134C34.7653 21.6272 34.7713 21.6455 34.7828 21.6702C34.8006 21.7087 34.9578 21.6556 34.9725 21.7136C35.0344 21.9599 34.987 22.2194 35.0721 22.4698C35.0898 22.5203 35.2312 22.5045 35.2569 22.5185C35.4651 22.6367 35.1264 22.8418 35.1021 22.8856C34.9213 23.2198 34.9968 23.4595 34.9952 23.765C34.9948 23.8358 35.1842 23.7503 35.1906 23.8184C35.2212 24.1715 35.2076 24.5349 35.1252 24.8756C35.1064 24.9514 34.9439 24.8827 34.9267 24.919C34.8525 25.0842 35.1586 25.12 35.0932 25.2786C35.0798 25.3121 34.941 25.2938 34.9258 25.3C34.6871 25.3961 35.0262 25.4773 35.0337 25.5017C35.1369 25.8103 34.7835 26.007 34.8337 26.3014C34.84 26.3366 35.0155 26.2571 35.0227 26.3562C35.071 27.0125 35.0199 27.7038 34.8734 28.3692C34.8508 28.4712 34.7197 28.397 34.7034 28.4033C34.4484 28.5055 34.788 28.5763 34.8004 28.6097C34.89 28.8727 34.6016 29.1114 35.0044 29.2927C34.8797 30.1622 34.9847 31.0889 34.8256 31.9453C34.7866 32.1518 34.7308 32.3808 34.6519 32.5962C34.6472 32.6103 34.4806 32.5793 34.472 32.6073C34.3664 32.943 34.6289 32.8865 34.9391 33.1216C35.017 33.181 34.6262 33.3369 34.5975 33.3507C34.4916 33.4013 34.2447 33.335 34.2238 33.3526C34.0601 33.4974 34.8849 33.5053 34.8769 33.7093C34.8753 33.7156 34.7248 33.6827 34.709 33.6991C34.6595 33.7502 34.7176 33.8052 34.6632 33.8547C34.5374 33.968 34.1354 33.9925 34.3604 34.1819C34.3896 34.2059 34.8585 34.1921 34.8282 34.3709C34.8157 34.4456 34.808 34.7754 34.773 34.8653C34.7382 34.9554 34.5908 34.885 34.584 34.8912C34.3725 35.1271 34.2947 35.0295 33.9938 35.1367C33.6939 35.2432 34.3957 35.2464 34.4711 35.3005C34.5464 35.3548 34.3725 35.5243 34.313 35.5646C34.2534 35.605 34.1609 35.5453 34.1264 35.5822C33.9008 35.8265 34.4674 35.7145 34.5737 35.8055C34.8251 36.0203 34.2969 36.1439 34.2349 36.3202C34.2181 36.368 34.3387 36.3357 34.3471 36.3797C34.3784 36.5553 34.2093 36.6566 34.3442 36.8676C34.3662 36.9022 34.6669 37.0873 34.4306 37.1765C34.3965 37.1891 34.2703 37.1377 34.236 37.2108C34.1847 37.3201 34.1418 37.5189 34.176 37.6413C34.2013 37.7317 34.4218 37.6469 34.3473 37.7528C34.314 37.7997 34.1964 37.6991 34.1443 37.788C34.0923 37.8764 34.0794 38.11 34.0764 38.1985C34.0737 38.287 34.239 38.2519 34.2493 38.2599C34.3081 38.3085 34.372 38.4827 34.3703 38.4994C34.323 39.2952 33.9851 39.9531 33.9915 40.7158C33.9917 40.7761 34.1658 40.7554 34.1676 40.7648C34.2157 40.9765 33.7827 40.7654 33.6157 40.8895C33.9623 40.9083 33.8905 40.9849 33.9116 41.1311C33.9221 41.2016 34.0597 41.1801 34.0726 41.1879C34.2631 41.3134 33.9932 41.3527 33.9376 41.3642C33.7329 41.4072 33.9564 41.5077 33.8194 41.5368C33.6835 41.5657 33.5029 41.4386 33.4888 41.5725C33.6073 41.6254 33.9413 41.5657 33.9808 41.6742C34.0421 41.8435 34.0202 42.0549 33.9666 42.2726C33.889 42.5929 33.7484 42.9077 33.7059 43.0883C33.6338 43.3944 33.6408 43.4962 33.5686 43.6672C33.4375 43.9746 33.6941 43.8928 33.7686 44.1184C33.8425 44.3446 33.2758 44.1452 33.1454 44.154C33.0151 44.1617 33.1389 44.215 33.0639 44.2392C32.9889 44.2631 32.9168 44.1715 32.8766 44.2507C32.8367 44.3299 33.0196 44.5959 33.1452 44.6488C33.4114 44.7607 33.7211 44.7101 33.5789 44.9129C33.5705 44.9245 33.4249 44.8556 33.4006 44.9012C33.2129 45.2634 33.13 45.6511 32.9441 46.0234C32.9185 46.0733 32.759 45.9905 32.7422 46.0191C32.5665 46.3146 32.8761 46.2608 33.1549 46.505C32.7418 46.3736 32.4634 46.4139 32.4078 46.6483C32.374 46.7891 32.5632 46.8067 32.6714 46.9283C32.7039 46.9655 32.555 47.0337 32.6363 47.0748C32.9032 47.204 33.2426 47.1805 33.0556 47.4056C33.0469 47.4153 32.9014 47.3425 32.8828 47.3786C32.7611 47.6107 33.0479 47.7134 33.0151 47.9882C32.9888 48.2062 32.7146 48.5125 32.6171 48.7431C32.1519 48.6059 32.1954 48.8566 32.4891 49.0417C32.4308 49.1905 32.3991 49.3593 32.3097 49.4899C32.2791 49.5349 32.1554 49.4602 32.1389 49.4619C31.882 49.4854 32.1717 49.6475 32.1735 49.6837C32.182 50.0617 31.8453 50.2844 31.9539 50.6921C31.9578 50.7066 32.2674 50.8417 32.0038 50.8457C31.9858 50.8453 31.8819 50.684 31.8138 50.8343C31.7447 50.9873 31.4699 51.1998 31.5247 51.4798C31.5388 51.5456 31.7372 51.7832 31.4956 51.8061C31.463 51.8088 31.3803 51.7561 31.3223 51.7553C31.1374 51.7528 31.4356 51.9218 31.1374 51.8829C30.8986 51.8514 30.6818 51.8863 30.6514 52.0462C30.6438 52.0861 30.6477 52.1339 30.6654 52.1906C30.6681 52.1987 30.8908 52.3608 30.8556 52.4263C30.7996 52.5301 30.6777 52.655 30.6262 52.7638C30.6016 52.816 30.7682 52.8568 30.7666 52.8672C30.6751 53.2629 30.4211 53.4266 30.1553 53.7666C30.1077 53.8265 30.1941 54.1337 29.9627 54.1671C29.7103 54.2009 29.092 53.6378 29.0745 54.0363C29.0672 54.1944 29.8336 54.9331 29.2324 54.853C29.0509 55.3524 28.5357 55.5712 28.3519 56.0799C28.3437 56.1027 28.5159 56.3491 28.4759 56.3887C28.4155 56.4477 28.2833 56.3912 28.2373 56.4289C28.0417 56.5845 27.9708 56.8278 27.7892 56.9834C27.7206 57.0421 27.6441 56.92 27.5627 56.9883C27.4815 57.0562 27.5564 57.2413 27.3881 57.2751C27.26 57.3003 26.9266 57.091 26.7929 57.1489C27.0346 57.4339 26.9558 57.4936 26.8832 57.6827C26.8692 57.7193 26.9806 57.7958 26.9782 57.8184C26.9696 57.9127 26.8539 57.8681 26.8505 57.9645C26.8495 57.9879 26.929 58.0878 26.9325 58.1126C26.9645 58.3285 26.6448 58.2127 26.5914 58.1902C26.3844 58.1091 26.4411 58.2737 26.3248 58.2663C26.2096 58.2577 26.2605 58.105 26.1513 58.1283C25.9261 58.1762 25.717 58.344 25.5351 58.4536C25.463 58.498 25.6034 58.6104 25.5952 58.6201C25.4676 58.7533 25.2217 58.6899 25.3089 59.0326C24.7582 58.3377 25.2587 59.1622 24.9461 59.1359C24.9213 59.1334 24.6998 58.7817 24.7348 58.6925C24.7687 58.604 24.9335 58.6596 24.975 58.5249C24.9861 58.4928 24.905 58.0881 24.9073 58.0588C24.9331 57.8273 25.2787 58.3419 25.3042 58.3664C25.5779 58.6291 25.4982 58.1812 25.5173 58.1334C25.6132 57.9108 25.8054 57.8825 25.8877 57.7054C25.9417 57.59 25.7071 57.258 25.7813 57.2177C26.0236 57.0846 26.4646 57.4571 26.3551 56.9077C26.3309 56.7904 25.9993 56.4909 26.3781 56.6243C26.4011 56.6337 26.7278 56.7712 26.6568 56.5619C26.6477 56.5357 26.56 56.4405 26.5631 56.4229C26.5854 56.3067 26.7024 56.3384 26.7438 56.2303C26.7845 56.1226 26.8196 55.9846 26.9331 55.9315C27.001 55.8998 27.2387 56.0003 27.306 56.015C27.4984 56.0594 27.366 55.7916 27.5593 55.885C27.7556 55.9764 27.9032 56.2823 28.1177 56.2438C27.8713 56.015 27.6232 55.7746 27.3767 55.5429C27.615 55.2926 27.9161 55.0963 28.1207 54.8C28.1456 54.7632 27.9739 54.6908 27.9965 54.649C28.089 54.477 28.2927 54.4138 28.3668 54.215C28.4234 54.0608 28.3594 53.8103 28.4071 53.645C28.7854 53.7678 28.8042 53.4891 28.9247 53.3523C28.9671 53.3041 29.0537 53.3594 29.1055 53.3369C29.2989 53.2493 28.9634 53.1506 28.94 53.0837C28.8374 52.8002 29.5217 53.1538 29.6188 52.9325C29.6246 52.9204 29.3325 52.5943 29.3188 52.5648C29.2314 52.3707 29.4558 52.6108 29.521 52.5501C29.6399 52.4386 29.7765 52.3842 29.7482 52.1661C29.7398 52.1017 29.5631 51.8778 29.7862 51.8662C29.8155 51.8645 29.9354 51.9283 29.9473 51.9215C30.0384 51.8654 30.0103 51.7991 29.9445 51.7278C29.8633 51.6402 29.724 51.5463 29.6758 51.4586C29.5881 51.3007 29.9256 51.2598 30.0178 51.2592C30.2561 51.2586 30.0761 51.3617 30.0939 51.3745C30.3058 51.5302 30.316 51.3949 30.3743 51.3116C30.7651 51.4601 30.7965 51.3189 30.4331 51.2243C30.3933 51.2142 30.3996 51.3006 30.3743 51.3116C30.0301 51.0723 30.0372 50.9181 30.456 50.9013C30.6515 50.8945 30.8214 51.0363 30.8358 50.7875C30.8421 50.6745 30.5585 50.6107 30.5185 50.4951C30.4265 50.2328 30.7744 50.0592 30.8093 49.8276C30.8217 49.7441 30.6466 49.7694 30.6498 49.7108C30.6578 49.5552 30.8119 49.4661 30.7988 49.3105C30.7974 49.2962 30.6307 49.276 30.6426 49.2324C30.7293 48.9011 30.9189 48.641 31.0244 48.2823C31.0764 48.1059 31.0686 47.7899 31.1329 47.6159C31.2425 47.3211 31.5719 46.9849 31.5773 46.7039C31.5807 46.5247 31.4112 46.5251 31.3184 46.4271C31.1382 46.2392 31.5742 46.0709 31.6408 46.048C31.643 46.0474 31.6483 46.2058 31.7484 46.1437C31.9309 46.1344 31.6412 46.0498 31.6408 46.048C31.684 46.0343 31.7848 45.739 31.7662 45.6713C31.7561 45.6349 31.5993 45.6218 31.597 45.6035C31.5463 45.1546 31.5782 44.7742 31.7243 44.3697C31.7287 44.363 31.8988 44.4045 31.907 44.3883C32.0259 44.162 31.8416 43.9701 31.7496 43.7492C31.6577 43.5269 31.7225 43.3886 32.0372 43.3176C32.0229 43.165 32.1861 42.972 32.2839 42.8595C32.3817 42.747 32.0476 42.6807 32.0425 42.6689C31.9223 42.397 32.0082 42.2323 32.0934 42.0221C32.1246 41.9446 32.1545 41.8693 32.1746 41.7771C32.2109 41.6149 32.2031 41.2789 32.1877 41.0923C32.1751 40.945 32.2644 40.8671 32.2291 40.7274C32.2244 40.7085 32.0719 40.7097 32.0667 40.7035C31.9036 40.5339 32.2633 40.6471 32.3325 40.6236C32.584 40.5379 32.7192 40.4817 32.6278 40.2746C32.6071 40.2246 32.09 40.0463 32.0672 39.9645C32.0384 39.8587 32.2245 39.9168 32.1894 39.8051C32.1865 39.7955 32.0691 39.7855 32.0809 39.72C32.1344 39.4155 32.2349 39.0825 32.2523 38.753C32.2551 38.708 32.0638 38.749 32.0648 38.6838C32.0701 38.3719 32.1034 38.0528 32.2132 37.7702C32.2408 37.7005 32.3678 37.7554 32.4078 37.7429C32.6497 37.6656 32.3192 37.5036 32.3144 37.4808C32.1901 36.9395 32.528 36.5221 32.4135 35.9787C32.4067 35.9487 32.0545 35.7006 32.3739 35.6167C32.3951 35.611 32.7218 35.528 32.5073 35.426C32.4939 35.4197 32.3252 35.4737 32.3481 35.3644C32.371 35.255 32.2702 35.0713 32.4596 34.9274C32.5193 34.8819 32.8454 34.7828 32.5972 34.6242C32.5799 34.6136 32.0134 34.3612 32.4154 34.2988C32.4815 34.2896 32.9026 34.3191 32.6941 34.142C32.6536 34.1079 32.557 34.1621 32.502 34.0747C32.4173 33.941 32.5377 33.773 32.3564 33.604C32.3244 33.5745 32.043 33.4436 32.264 33.3558C32.2986 33.342 32.4382 33.3762 32.456 33.3258C32.541 33.0861 32.4561 32.8266 32.5619 32.5795C32.5991 32.4919 32.8252 32.5449 32.8892 32.454C32.9533 32.3635 33.0179 32.1759 32.9167 32.0765C32.8155 31.9795 32.4497 32.0711 32.4248 31.9299C32.4216 31.9118 32.4187 31.8936 32.4161 31.8755C32.3299 31.2798 32.5452 30.6862 32.5866 30.0714C32.593 29.9775 32.4617 30.0532 32.4617 29.9144C32.4612 29.4171 32.3498 28.5601 32.6289 28.1189C32.8526 27.767 33.0175 28.2136 33.1095 27.9436C33.1533 27.813 32.7322 27.6683 32.7191 27.6366C32.5859 27.3226 32.7736 27.1261 32.7169 26.8523C32.7051 26.7963 32.534 26.8508 32.5258 26.8032C32.4965 26.6405 32.573 26.4689 32.559 26.3121C32.5524 26.2417 32.4218 26.2547 32.4318 26.1899C32.4543 26.0348 32.509 25.897 32.6311 25.7443C32.6422 25.7303 32.8049 25.8237 32.8107 25.7079C32.8196 25.5204 32.9395 25.2859 32.8137 25.0683C32.7758 25.0048 32.4773 24.9999 32.6827 24.8656C32.7256 24.8373 33.0843 24.8711 32.7736 24.7166C32.722 24.6906 32.3024 24.4307 32.5706 24.2988C32.6413 24.264 32.9339 24.1741 32.8871 24.0986C32.8797 24.0883 32.7197 24.1309 32.7035 24.0682C32.6492 23.847 32.664 23.6134 32.6113 23.3837C32.5968 23.3224 32.432 23.4158 32.4158 23.3244C32.371 23.073 32.4092 22.7559 32.4576 22.5054C32.4758 22.413 32.6141 22.4747 32.629 22.4678C32.8707 22.3554 32.5415 22.2994 32.5218 22.2652C32.404 22.0525 32.5557 21.8861 32.5116 21.6873C32.4998 21.6325 32.3439 21.6741 32.3298 21.6634C32.3257 21.6601 32.322 21.657 32.3187 21.6541C32.2078 21.5566 32.4749 21.6299 32.5038 21.5595C32.5882 21.3562 32.5716 21.1302 32.5477 20.9245C32.5387 20.8489 32.3587 20.9374 32.3528 20.8696C32.3139 20.4681 32.3225 20.0455 32.4137 19.644C32.4313 19.5711 32.5721 19.6136 32.6036 19.5978C32.8247 19.4887 32.5165 19.3425 32.4867 19.3079C32.3504 19.1507 32.4726 19.0854 32.4461 18.9438C32.3148 18.2543 32.373 17.3741 32.404 16.7051C32.4442 15.8539 32.5559 15.1801 32.4933 14.3471C32.4895 14.2941 32.3054 14.3539 32.2997 14.3083C32.2347 13.7132 32.2879 13.1622 32.2127 12.5767C32.2068 12.529 32.0332 12.6045 32.0179 12.5282C31.9853 12.3717 31.9874 12.1713 32.0376 12.0089C32.0618 11.9297 32.2169 12.0288 32.2381 11.9492C32.2879 11.7637 32.2929 11.566 32.2573 11.3774C32.2573 11.377 32.2572 11.3766 32.2571 11.3761C32.24 11.2985 32.0663 11.4254 32.0602 11.3211C32.0145 10.6023 31.9567 9.93786 32.1601 9.20882C32.1741 9.15918 32.5385 9.10097 32.4639 8.99952C32.362 8.9959 32.2425 9.00132 32.1337 9.00243C32.0314 7.95729 32.1149 6.95753 32.0879 5.92308C32.0867 5.87949 31.8961 5.96353 31.8928 5.87917C31.8736 5.39149 31.7978 4.91351 31.9672 4.40147C31.9838 4.35195 32.3262 4.36108 32.2679 4.21996C32.2573 4.19515 32.2017 3.98077 32.125 3.9281C32.1134 3.92101 31.956 3.96806 31.9481 3.89839C31.9048 3.49333 31.9208 3.06318 31.9984 2.64765C32.0113 2.58057 32.1843 2.64306 32.1949 2.5952C32.2688 2.25572 32.1222 1.89541 32.2604 1.56423C32.3535 1.34241 32.6506 1.40833 32.9336 1.27884C32.9735 1.26055 32.9733 1.12556 33.1409 1.11034C33.5622 1.07174 34.0278 1.11439 34.4765 1.06555C34.5731 1.05518 34.4599 0.879491 34.6994 0.975048C34.7154 0.981778 34.7996 1.10896 34.8806 1.13728C34.9367 1.15704 35.1054 1.10824 35.178 1.15059C35.2505 1.19293 35.1098 1.25022 35.1962 1.32196C35.2835 1.3936 35.4761 1.35089 35.5065 1.50084ZM32.7203 42.3455C32.8983 42.2498 32.3078 42.1521 32.4323 42.298C32.4391 42.3052 32.7115 42.3505 32.7203 42.3455ZM28.2663 55.3733C28.5664 55.4197 28.3216 55.1008 28.0972 55.0579C27.8751 55.012 28.1762 55.3578 28.2663 55.3733ZM27.3852 56.6445C27.6569 56.6673 27.0697 56.0545 27.0658 56.301C27.0654 56.3151 27.3695 56.6429 27.3852 56.6445ZM33.0417 1.80888C33.0496 1.80686 33.0527 1.71023 33.0447 1.7083C32.8524 1.66627 32.8465 1.85948 33.0417 1.80888ZM26.3588 57.8185C26.4733 57.8757 26.5171 57.6724 26.3747 57.6029C26.2615 57.5464 26.2181 57.7466 26.3588 57.8185ZM33.9431 36.3069C33.9521 36.3056 33.9643 36.2392 33.9139 36.2374C33.7517 36.232 33.7916 36.3278 33.9431 36.3069ZM24.1066 59.2113C24.4689 59.0705 25.018 59.5705 24.5819 59.7061C24.5038 59.7294 24.6366 59.4283 24.5165 59.4181C24.3016 59.3976 24.3799 59.8485 24.104 59.7168C24.0562 59.6917 24.087 59.2176 24.1068 59.2101C24.1067 59.2105 24.1066 59.2109 24.1066 59.2113ZM33.4415 42.3749C33.4497 42.3737 33.4701 42.2789 33.4626 42.2755C33.2814 42.1984 33.2403 42.3887 33.4415 42.3749ZM34.4967 32.3329C34.5138 32.3289 34.5365 32.1018 34.5211 32.0981C34.2143 31.9714 34.1677 32.4213 34.4967 32.3329ZM32.6035 48.7433C32.758 48.8984 32.7434 49.0287 32.4895 49.0413C32.5315 48.9442 32.563 48.8427 32.6035 48.7433Z" fill="black"/>
</svg>
